<svg viewBox="0 0 800 1600" xmlns="http://www.w3.org/2000/svg">
  <defs>
    <marker id="arrow" viewBox="0 0 10 10" refX="9" refY="5" markerWidth="6" markerHeight="6" orient="auto-start-reverse">
      <path d="M 0 0 L 10 5 L 0 10 z" fill="#1976d2"/>
    </marker>
    <marker id="arrowRed" viewBox="0 0 10 10" refX="9" refY="5" markerWidth="6" markerHeight="6" orient="auto-start-reverse">
      <path d="M 0 0 L 10 5 L 0 10 z" fill="#f44336"/>
    </marker>
    <marker id="arrowGreen" viewBox="0 0 10 10" refX="9" refY="5" markerWidth="6" markerHeight="6" orient="auto-start-reverse">
      <path d="M 0 0 L 10 5 L 0 10 z" fill="#388e3c"/>
    </marker>
    <linearGradient id="titleGrad" x1="0%" y1="0%" x2="100%" y2="0%">
      <stop offset="0%" style="stop-color:#1976d2"/>
      <stop offset="100%" style="stop-color:#9c27b0"/>
    </linearGradient>
    <linearGradient id="blueGrad" x1="0%" y1="0%" x2="0%" y2="100%">
      <stop offset="0%" style="stop-color:#e3f2fd"/>
      <stop offset="100%" style="stop-color:#bbdefb"/>
    </linearGradient>
    <linearGradient id="greenGrad" x1="0%" y1="0%" x2="0%" y2="100%">
      <stop offset="0%" style="stop-color:#e8f5e9"/>
      <stop offset="100%" style="stop-color:#c8e6c9"/>
    </linearGradient>
    <linearGradient id="orangeGrad" x1="0%" y1="0%" x2="0%" y2="100%">
      <stop offset="0%" style="stop-color:#fff3e0"/>
      <stop offset="100%" style="stop-color:#ffe0b2"/>
    </linearGradient>
    <linearGradient id="redGrad" x1="0%" y1="0%" x2="0%" y2="100%">
      <stop offset="0%" style="stop-color:#ffebee"/>
      <stop offset="100%" style="stop-color:#ffcdd2"/>
    </linearGradient>
    <linearGradient id="purpleGrad" x1="0%" y1="0%" x2="0%" y2="100%">
      <stop offset="0%" style="stop-color:#f3e5f5"/>
      <stop offset="100%" style="stop-color:#e1bee7"/>
    </linearGradient>
    <filter id="shadow">
      <feDropShadow dx="1" dy="2" stdDeviation="2" flood-opacity="0.15"/>
    </filter>
  </defs>

  <style>
    @keyframes fadeInSlide {
      from { opacity: 0; transform: translateY(20px); }
      to { opacity: 1; transform: translateY(0); }
    }
    @keyframes scaleIn {
      from { opacity: 0; transform: scale(0.85); }
      to { opacity: 1; transform: scale(1); }
    }
    @keyframes textReveal {
      from { opacity: 0; transform: translateX(-10px); }
      to { opacity: 1; transform: translateX(0); }
    }
    @keyframes pulse {
      0%, 100% { transform: scale(1); }
      50% { transform: scale(1.03); }
    }
    @keyframes drawLine {
      from { stroke-dashoffset: 200; }
      to { stroke-dashoffset: 0; }
    }
    .step { animation: fadeInSlide 0.6s ease-out; }
    .step rect { animation: scaleIn 0.5s cubic-bezier(0.34, 1.56, 0.64, 1); transform-origin: center; }
    .step text { animation: textReveal 0.4s ease-out 0.2s backwards; }
    .code-text { font-family: 'Courier New', monospace; font-size: 9px; }
    .label { font-family: Arial, sans-serif; font-size: 9px; }
    .heading { font-family: Arial, sans-serif; font-weight: bold; }
  </style>

  <rect width="800" height="1600" fill="#f8f9fa"/>

  <!-- Step 0: Title -->
  <g class="step" id="step0" data-narration="Welcome! Today we'll learn how to return objects from functions in C plus plus. This is a key concept for university exams and real-world programming.">
    <rect x="20" y="10" width="760" height="45" rx="10" ry="10" fill="url(#titleGrad)" filter="url(#shadow)"/>
    <text x="400" y="28" text-anchor="middle" fill="white" class="heading" font-size="16">Returning Objects in C++</text>
    <text x="400" y="44" text-anchor="middle" fill="#e0e0ff" font-size="10">university 2022 Scheme · CSE · Complete Visual Guide</text>
  </g>

  <!-- Step 1: Why it matters -->
  <g class="step" id="step1" data-narration="When functions create or modify objects, they must pass them back to the caller. Choosing the wrong return method causes bugs, memory leaks, or slow code.">
    <rect x="20" y="65" width="760" height="85" rx="8" ry="8" fill="url(#blueGrad)" filter="url(#shadow)" stroke="#1976d2" stroke-width="1"/>
    <text x="40" y="82" class="heading" font-size="12" fill="#1976d2">💡 Why Does Returning Objects Matter?</text>
    <rect x="35" y="90" width="220" height="50" rx="6" ry="6" fill="white" stroke="#1976d2" stroke-width="0.5"/>
    <text x="145" y="107" text-anchor="middle" class="label" fill="#333" font-weight="bold">Memory Management</text>
    <text x="145" y="120" text-anchor="middle" class="label" fill="#666">Who owns the object?</text>
    <text x="145" y="132" text-anchor="middle" class="label" fill="#666">When is it destroyed?</text>
    <rect x="280" y="90" width="220" height="50" rx="6" ry="6" fill="white" stroke="#ff9800" stroke-width="0.5"/>
    <text x="390" y="107" text-anchor="middle" class="label" fill="#333" font-weight="bold">Performance</text>
    <text x="390" y="120" text-anchor="middle" class="label" fill="#666">Unnecessary copies?</text>
    <text x="390" y="132" text-anchor="middle" class="label" fill="#666">Move vs Copy cost?</text>
    <rect x="525" y="90" width="220" height="50" rx="6" ry="6" fill="white" stroke="#f44336" stroke-width="0.5"/>
    <text x="635" y="107" text-anchor="middle" class="label" fill="#333" font-weight="bold">Safety</text>
    <text x="635" y="120" text-anchor="middle" class="label" fill="#666">Dangling references?</text>
    <text x="635" y="132" text-anchor="middle" class="label" fill="#666">Undefined behavior?</text>
  </g>

  <!-- Step 2: Three Methods Overview -->
  <g class="step" id="step2" data-narration="C plus plus offers three primary methods to return objects: by value, by reference, and by pointer. Each has unique trade-offs in safety and speed.">
    <rect x="20" y="160" width="760" height="90" rx="8" ry="8" fill="white" filter="url(#shadow)" stroke="#9c27b0" stroke-width="1"/>
    <text x="40" y="178" class="heading" font-size="12" fill="#9c27b0">🔑 Three Return Mechanisms</text>
    <rect x="35" y="188" width="230" height="52" rx="8" ry="8" fill="#e3f2fd" stroke="#1976d2" stroke-width="1.5"/>
    <text x="150" y="207" text-anchor="middle" class="heading" font-size="11" fill="#1976d2">① By Value</text>
    <text x="150" y="222" text-anchor="middle" class="code-text" fill="#333">Rectangle getRect()</text>
    <text x="150" y="234" text-anchor="middle" class="label" fill="#666">Returns a copy</text>
    <rect x="285" y="188" width="230" height="52" rx="8" ry="8" fill="#e8f5e9" stroke="#388e3c" stroke-width="1.5"/>
    <text x="400" y="207" text-anchor="middle" class="heading" font-size="11" fill="#388e3c">② By Reference</text>
    <text x="400" y="222" text-anchor="middle" class="code-text" fill="#333">Rectangle&amp; getRect()</text>
    <text x="400" y="234" text-anchor="middle" class="label" fill="#666">Returns an alias</text>
    <rect x="535" y="188" width="230" height="52" rx="8" ry="8" fill="#fff3e0" stroke="#ff9800" stroke-width="1.5"/>
    <text x="650" y="207" text-anchor="middle" class="heading" font-size="11" fill="#ff9800">③ By Pointer</text>
    <text x="650" y="222" text-anchor="middle" class="code-text" fill="#333">Rectangle* getRect()</text>
    <text x="650" y="234" text-anchor="middle" class="label" fill="#666">Returns address</text>
  </g>

  <!-- Step 3: Return by Value - Concept -->
  <g class="step" id="step3" data-narration="Return by value creates an independent copy. The function builds an object locally, then the copy constructor creates a new object for the caller. Very safe!">
    <rect x="20" y="260" width="760" height="95" rx="8" ry="8" fill="url(#blueGrad)" filter="url(#shadow)" stroke="#1976d2" stroke-width="1"/>
    <text x="40" y="278" class="heading" font-size="12" fill="#1976d2">📦 Return by Value — How It Works</text>
    <!-- Function box -->
    <rect x="35" y="288" width="180" height="58" rx="6" ry="6" fill="white" stroke="#1976d2" stroke-width="1"/>
    <text x="125" y="303" text-anchor="middle" class="heading" font-size="10" fill="#1976d2">Function Scope</text>
    <rect x="50" y="310" width="100" height="28" rx="4" ry="4" fill="#bbdefb"/>
    <text x="100" y="328" text-anchor="middle" class="code-text" fill="#0d47a1">local obj</text>
    <!-- Arrow -->
    <line x1="220" y1="320" x2="320" y2="320" stroke="#1976d2" stroke-width="2" marker-end="url(#arrow)" stroke-dasharray="200" stroke-dashoffset="200">
      <animate attributeName="stroke-dashoffset" from="200" to="0" dur="1s" fill="freeze"/>
    </line>
    <text x="270" y="312" text-anchor="middle" class="label" fill="#1976d2" font-weight="bold">COPY</text>
    <!-- Copy box -->
    <rect x="325" y="288" width="180" height="58" rx="6" ry="6" fill="white" stroke="#388e3c" stroke-width="1"/>
    <text x="415" y="303" text-anchor="middle" class="heading" font-size="10" fill="#388e3c">Caller Scope</text>
    <rect x="340" y="310" width="110" height="28" rx="4" ry="4" fill="#c8e6c9"/>
    <text x="395" y="328" text-anchor="middle" class="code-text" fill="#1b5e20">new copy ✓</text>
    <!-- Safety badge -->
    <rect x="540" y="290" width="220" height="52" rx="8" ry="8" fill="#e8f5e9" stroke="#388e3c" stroke-width="1"/>
    <text x="555" y="306" class="label" fill="#388e3c" font-weight="bold">✅ Safest method</text>
    <text x="555" y="320" class="label" fill="#555">• Independent copy for caller</text>
    <text x="555" y="333" class="label" fill="#555">• No dangling references</text>
  </g>

  <!-- Step 4: Return by Value - Code -->
  <g class="step" id="step4" data-narration="Here's a concrete example. The createRectangle function builds a local Rectangle and returns it by value. The caller gets a fresh, independent copy.">
    <rect x="20" y="365" width="760" height="90" rx="8" ry="8" fill="white" filter="url(#shadow)" stroke="#1976d2" stroke-width="0.5"/>
    <text x="40" y="383" class="heading" font-size="11" fill="#1976d2">📝 Code: Return by Value</text>
    <rect x="35" y="390" width="355" height="58" rx="6" ry="6" fill="#263238"/>
    <text x="45" y="404" class="code-text" fill="#80cbc4">Rectangle createRectangle(int l, int b) {</text>
    <text x="55" y="416" class="code-text" fill="#fff59d">  Rectangle r(l, b);</text>
    <text x="55" y="428" class="code-text" fill="#ef9a9a">  return r;</text>
    <text x="45" y="440" class="code-text" fill="#80cbc4">}</text>
    <rect x="410" y="390" width="350" height="58" rx="6" ry="6" fill="#263238"/>
    <text x="420" y="404" class="code-text" fill="#80cbc4">// Caller side:</text>
    <text x="420" y="416" class="code-text" fill="#fff59d">Rectangle rect = createRectangle(5, 3);</text>
    <text x="420" y="428" class="code-text" fill="#a5d6a7">// rect is an independent copy</text>
    <text x="420" y="440" class="code-text" fill="#a5d6a7">// Safe to use freely!</text>
  </g>

  <!-- Step 5: Copy & Move Semantics -->
  <g class="step" id="step5" data-narration="When returning by value, the copy constructor creates the returned copy. In C plus plus eleven and later, the move constructor can transfer ownership more efficiently.">
    <rect x="20" y="465" width="760" height="95" rx="8" ry="8" fill="url(#purpleGrad)" filter="url(#shadow)" stroke="#9c27b0" stroke-width="1"/>
    <text x="40" y="483" class="heading" font-size="12" fill="#9c27b0">⚙️ Copy Constructor vs Move Constructor</text>
    <!-- Copy side -->
    <rect x="35" y="493" width="350" height="58" rx="6" ry="6" fill="white" stroke="#f44336" stroke-width="1"/>
    <text x="210" y="508" text-anchor="middle" class="heading" font-size="10" fill="#f44336">Copy Constructor (Deep Copy)</text>
    <text x="50" y="522" class="code-text" fill="#333">DataBuffer(const DataBuffer&amp; db)</text>
    <text x="50" y="534" class="code-text" fill="#666">  : buffer(db.buffer) {}  // duplicates data</text>
    <rect x="50" y="540" width="80" height="6" rx="2" ry="2" fill="#ffcdd2"/>
    <text x="140" y="547" class="label" fill="#f44336">Slower — full copy</text>
    <!-- Move side -->
    <rect x="405" y="493" width="355" height="58" rx="6" ry="6" fill="white" stroke="#388e3c" stroke-width="1"/>
    <text x="582" y="508" text-anchor="middle" class="heading" font-size="10" fill="#388e3c">Move Constructor (C++11) ⚡</text>
    <text x="415" y="522" class="code-text" fill="#333">DataBuffer(DataBuffer&amp;&amp; db) noexcept</text>
    <text x="415" y="534" class="code-text" fill="#666">  : buffer(move(db.buffer)) {} // steals</text>
    <rect x="415" y="540" width="180" height="6" rx="2" ry="2" fill="#c8e6c9"/>
    <text x="600" y="547" class="label" fill="#388e3c">Fast — transfers ownership</text>
  </g>

  <!-- Step 6: RVO/NRVO -->
  <g class="step" id="step6" data-narration="Compilers can optimize away copies entirely using Return Value Optimization. The object is constructed directly in the caller's memory. No copy or move needed!">
    <rect x="20" y="570" width="760" height="95" rx="8" ry="8" fill="url(#greenGrad)" filter="url(#shadow)" stroke="#388e3c" stroke-width="1"/>
    <text x="40" y="588" class="heading" font-size="12" fill="#388e3c">🚀 RVO &amp; NRVO — Compiler Magic</text>
    <!-- Flow diagram -->
    <rect x="35" y="598" width="130" height="35" rx="6" ry="6" fill="white" stroke="#388e3c" stroke-width="1"/>
    <text x="100" y="618" text-anchor="middle" class="label" fill="#333" font-weight="bold">Function builds</text>
    <line x1="170" y1="615" x2="210" y2="615" stroke="#388e3c" stroke-width="2" marker-end="url(#arrowGreen)"/>
    <rect x="215" y="598" width="130" height="35" rx="6" ry="6" fill="#fff9c4" stroke="#f9a825" stroke-width="1"/>
    <text x="280" y="612" text-anchor="middle" class="label" fill="#333" font-weight="bold">RVO skips</text>
    <text x="280" y="624" text-anchor="middle" class="label" fill="#f44336">❌ no copy</text>
    <line x1="350" y1="615" x2="390" y2="615" stroke="#388e3c" stroke-width="2" marker-end="url(#arrowGreen)"/>
    <rect x="395" y="598" width="140" height="35" rx="6" ry="6" fill="white" stroke="#388e3c" stroke-width="1"/>
    <text x="465" y="618" text-anchor="middle" class="label" fill="#388e3c" font-weight="bold">Direct in caller ✓</text>
    <!-- Note -->
    <rect x="560" y="595" width="200" height="60" rx="6" ry="6" fill="white" stroke="#9c27b0" stroke-width="1"/>
    <text x="575" y="611" class="label" fill="#9c27b0" font-weight="bold">📌 Key for university Exams:</text>
    <text x="575" y="625" class="label" fill="#555">• RVO = unnamed return</text>
    <text x="575" y="639" class="label" fill="#555">• NRVO = named local var</text>
    <text x="575" y="651" class="label" fill="#555">• Mandatory in C++17</text>
    <text x="100" y="655" class="code-text" fill="#1b5e20">string getMessage() { return "Hello"; } // Constructed directly in caller's memory</text>
  </g>

  <!-- Step 7: Return by Reference -->
  <g class="step" id="step7" data-narration="Return by reference avoids copying by returning an alias. The key rule: the referenced object must outlive the function call. Never return reference to a local variable!">
    <rect x="20" y="675" width="760" height="95" rx="8" ry="8" fill="url(#greenGrad)" filter="url(#shadow)" stroke="#388e3c" stroke-width="1"/>
    <text x="40" y="693" class="heading" font-size="12" fill="#388e3c">🔗 Return by Reference — Alias, Not Copy</text>
    <!-- Diagram -->
    <rect x="35" y="702" width="160" height="58" rx="6" ry="6" fill="white" stroke="#388e3c" stroke-width="1"/>
    <text x="115" y="717" text-anchor="middle" class="heading" font-size="10" fill="#388e3c">Object (persists)</text>
    <rect x="50" y="725" width="100" height="25" rx="4" ry="4" fill="#c8e6c9"/>
    <text x="100" y="742" text-anchor="middle" class="code-text" fill="#1b5e20">*this</text>
    <line x1="200" y1="735" x2="280" y2="735" stroke="#388e3c" stroke-width="2" marker-end="url(#arrowGreen)" stroke-dasharray="200" stroke-dashoffset="200">
      <animate attributeName="stroke-dashoffset" from="200" to="0" dur="0.8s" fill="freeze"/>
    </line>
    <text x="240" y="727" text-anchor="middle" class="label" fill="#388e3c" font-weight="bold">ref &amp;</text>
    <rect x="285" y="702" width="160" height="58" rx="6" ry="6" fill="white" stroke="#1976d2" stroke-width="1"/>
    <text x="365" y="717" text-anchor="middle" class="heading" font-size="10" fill="#1976d2">Caller</text>
    <rect x="300" y="725" width="120" height="25" rx="4" ry="4" fill="#bbdefb"/>
    <text x="360" y="742" text-anchor="middle" class="code-text" fill="#0d47a1">same object!</text>
    <!-- Safe uses -->
    <rect x="480" y="700" width="280" height="60" rx="6" ry="6" fill="white" stroke="#388e3c" stroke-width="1"/>
    <text x="495" y="715" class="label" fill="#388e3c" font-weight="bold">✅ Safe when returning:</text>
    <text x="495" y="729" class="label" fill="#555">• *this (method chaining)</text>
    <text x="495" y="743" class="label" fill="#555">• Data members (persistent)</text>
    <text x="495" y="757" class="label" fill="#555">• Static/global objects</text>
  </g>

  <!-- Step 8: Method Chaining -->
  <g class="step" id="step8" data-narration="Method chaining uses return by reference beautifully. Each method returns star-this, allowing sequential calls on the same object. Like cout uses the insertion operator.">
    <rect x="20" y="780" width="760" height="95" rx="8" ry="8" fill="white" filter="url(#shadow)" stroke="#388e3c" stroke-width="0.5"/>
    <text x="40" y="798" class="heading" font-size="11" fill="#388e3c">⛓️ Method Chaining with return *this</text>
    <rect x="35" y="806" width="370" height="60" rx="6" ry="6" fill="#263238"/>
    <text x="45" y="820" class="code-text" fill="#80cbc4">Money&amp; add(int r, int p) {</text>
    <text x="55" y="832" class="code-text" fill="#fff59d">  rupees += r; paise += p;</text>
    <text x="55" y="844" class="code-text" fill="#ef9a9a">  return *this;</text>
    <text x="55" y="856" class="code-text" fill="#80cbc4">}</text>
    <!-- Chain visualization -->
    <rect x="425" y="806" width="95" height="28" rx="14" ry="14" fill="#e8f5e9" stroke="#388e3c" stroke-width="1"/>
    <text x="472" y="824" text-anchor="middle" class="code-text" fill="#1b5e20">m.add(25,75)</text>
    <line x1="524" y1="820" x2="540" y2="820" stroke="#388e3c" stroke-width="1.5" marker-end="url(#arrowGreen)"/>
    <rect x="545" y="806" width="95" height="28" rx="14" ry="14" fill="#fff3e0" stroke="#ff9800" stroke-width="1"/>
    <text x="592" y="824" text-anchor="middle" class="code-text" fill="#e65100">.sub(50,100)</text>
    <line x1="644" y1="820" x2="660" y2="820" stroke="#ff9800" stroke-width="1.5" marker-end="url(#arrow)"/>
    <rect x="665" y="806" width="90" height="28" rx="14" ry="14" fill="#e3f2fd" stroke="#1976d2" stroke-width="1"/>
    <text x="710" y="824" text-anchor="middle" class="code-text" fill="#0d47a1">.add(10,25)</text>
    <text x="425" y="855" class="label" fill="#555">Each call returns same object → enables chaining!</text>
    <text x="425" y="868" class="label" fill="#9c27b0" font-weight="bold">Also used: cout &lt;&lt; a &lt;&lt; b &lt;&lt; endl;</text>
  </g>

  <!-- Step 9: Dangling Reference Warning -->
  <g class="step" id="step9" data-narration="Critical warning! Never return a reference to a local variable. When the function ends, the local is destroyed, leaving a dangling reference. This causes undefined behavior.">
    <rect x="20" y="885" width="760" height="95" rx="8" ry="8" fill="url(#redGrad)" filter="url(#shadow)" stroke="#f44336" stroke-width="1.5"/>
    <text x="40" y="903" class="heading" font-size="12" fill="#f44336">⚠️ DANGER: Dangling Reference — Never Do This!</text>
    <rect x="35" y="912" width="340" height="58" rx="6" ry="6" fill="#263238"/>
    <text x="45" y="926" class="code-text" fill="#ef9a9a">int&amp; badFunction() {</text>
    <text x="55" y="938" class="code-text" fill="#fff59d">  int local = 42;     // stack variable</text>
    <text x="55" y="950" class="code-text" fill="#ef9a9a">  return local;       // ❌ DANGLING!</text>
    <text x="45" y="962" class="code-text" fill="#ef9a9a">}</text>
    <!-- Destruction diagram -->
    <rect x="400" y="912" width="360" height="58" rx="6" ry="6" fill="white" stroke="#f44336" stroke-width="1"/>
    <rect x="415" y="922" width="80" height="22" rx="4" ry="4" fill="#ffcdd2"/>
    <text x="455" y="937" text-anchor="middle" class="label" fill="#c62828">local=42</text>
    <line x1="500" y1="933" x2="530" y2="933" stroke="#f44336" stroke-width="2" marker-end="url(#arrowRed)"/>
    <text x="545" y="930" class="label" fill="#f44336" font-weight="bold">Function exits →</text>
    <rect x="640" y="922" width="80" height="22" rx="4" ry="4" fill="#ffcdd2" stroke="#f44336" stroke-width="1" stroke-dasharray="4,2"/>
    <text x="680" y="937" text-anchor="middle" class="label" fill="#c62828">DESTROYED</text>
    <line x1="460" y1="948" x2="460" y2="965" stroke="#f44336" stroke-width="1"/>
    <text x="415" y="963" class="label" fill="#c62828" font-weight="bold">🔴 Undefined Behavior — university Exam Favorite Question!</text>
  </g>

  <!-- Step 10: Return by Pointer -->
  <g class="step" id="step10" data-narration="Return by pointer uses dynamic memory allocation with new. The caller receives a memory address and must manage the object's lifetime. Essential for factory patterns.">
    <rect x="20" y="990" width="760" height="95" rx="8" ry="8" fill="url(#orangeGrad)" filter="url(#shadow)" stroke="#ff9800" stroke-width="1"/>
    <text x="40" y="1008" class="heading" font-size="12" fill="#e65100">🏭 Return by Pointer — Dynamic Objects</text>
    <rect x="35" y="1018" width="180" height="58" rx="6" ry="6" fill="white" stroke="#ff9800" stroke-width="1"/>
    <text x="125" y="1033" text-anchor="middle" class="heading" font-size="10" fill="#e65100">Function (new)</text>
    <rect x="50" y="1040" width="100" height="26" rx="4" ry="4" fill="#ffe0b2"/>
    <text x="100" y="1057" text-anchor="middle" class="code-text" fill="#bf360c">HEAP obj</text>
    <line x1="220" y1="1050" x2="310" y2="1050" stroke="#ff9800" stroke-width="2" marker-end="url(#arrow)" stroke-dasharray="200" stroke-dashoffset="200">
      <animate attributeName="stroke-dashoffset" from="200" to="0" dur="0.8s" fill="freeze"/>
    </line>
    <text x="265" y="1042" text-anchor="middle" class="label" fill="#e65100" font-weight="bold">ptr →</text>
    <rect x="315" y="1018" width="180" height="58" rx="6" ry="6" fill="white" stroke="#1976d2" stroke-width="1"/>
    <text x="405" y="1033" text-anchor="middle" class="heading" font-size="10" fill="#1976d2">Caller</text>
    <rect x="330" y="1040" width="120" height="26" rx="4" ry="4" fill="#bbdefb"/>
    <text x="390" y="1057" text-anchor="middle" class="code-text" fill="#0d47a1">Shape* ptr</text>
    <!-- Responsibility -->
    <rect x="520" y="1015" width="240" height="62" rx="6" ry="6" fill="white" stroke="#f44336" stroke-width="1"/>
    <text x="535" y="1031" class="label" fill="#e65100" font-weight="bold">⚡ Caller's Responsibility:</text>
    <text x="535" y="1045" class="label" fill="#555">• Must call delete ptr;</text>
    <text x="535" y="1059" class="label" fill="#555">• Or use smart pointers</text>
    <text x="535" y="1073" class="label" fill="#388e3c">• unique_ptr recommended</text>
  </g>

  <!-- Step 11: Factory Pattern -->
  <g class="step" id="step11" data-narration="The factory pattern uses return by pointer for polymorphism. A base class pointer can point to any derived object, decided at runtime. Essential for design patterns.">
    <rect x="20" y="1095" width="760" height="100" rx="8" ry="8" fill="white" filter="url(#shadow)" stroke="#ff9800" stroke-width="0.5"/>
    <text x="40" y="1113" class="heading" font-size="11" fill="#e65100">🏗️ Factory Pattern — Polymorphic Returns</text>
    <rect x="35" y="1122" width="290" height="64" rx="6" ry="6" fill="#263238"/>
    <text x="45" y="1136" class="code-text" fill="#80cbc4">Shape* createShape(int type) {</text>
    <text x="55" y="1148" class="code-text" fill="#fff59d">  if(type==1) return new Circle();</text>
    <text x="55" y="1160" class="code-text" fill="#fff59d">  if(type==2) return new Rect();</text>
    <text x="55" y="1172" class="code-text" fill="#ef9a9a">  return nullptr;</text>
    <text x="45" y="1184" class="code-text" fill="#80cbc4">}</text>
    <!-- Polymorphism tree -->
    <rect x="360" y="1122" width="100" height="26" rx="6" ry="6" fill="#f3e5f5" stroke="#9c27b0" stroke-width="1.5"/>
    <text x="410" y="1139" text-anchor="middle" class="heading" font-size="10" fill="#9c27b0">Shape*</text>
    <line x1="380" y1="1150" x2="360" y2="1165" stroke="#9c27b0" stroke-width="1.5"/>
    <line x1="440" y1="1150" x2="460" y2="1165" stroke="#9c27b0" stroke-width="1.5"/>
    <rect x="340" y="1167" width="70" height="22" rx="4" ry="4" fill="#e3f2fd" stroke="#1976d2" stroke-width="1"/>
    <text x="375" y="1182" text-anchor="middle" class="label" fill="#1976d2">Circle</text>
    <rect x="430" y="1167" width="70" height="22" rx="4" ry="4" fill="#e8f5e9" stroke="#388e3c" stroke-width="1"/>
    <text x="465" y="1182" text-anchor="middle" class="label" fill="#388e3c">Rect</text>
    <!-- Smart pointer note -->
    <rect x="530" y="1130" width="230" height="55" rx="6" ry="6" fill="#e8f5e9" stroke="#388e3c" stroke-width="1"/>
    <text x="545" y="1147" class="label" fill="#388e3c" font-weight="bold">💡 Modern C++ Preferred:</text>
    <text x="545" y="1161" class="code-text" fill="#1b5e20">unique_ptr&lt;Shape&gt;</text>
    <text x="545" y="1175" class="code-text" fill="#1b5e20">  createShape(int type);</text>
  </g>

  <!-- Step 12: Const Reference -->
  <g class="step" id="step12" data-narration="Returning a const reference provides efficient read-only access to internal data. No copy is made, and the caller cannot modify the original. Perfect for getter functions.">
    <rect x="20" y="1205" width="760" height="85" rx="8" ry="8" fill="url(#purpleGrad)" filter="url(#shadow)" stroke="#9c27b0" stroke-width="1"/>
    <text x="40" y="1223" class="heading" font-size="12" fill="#9c27b0">🔒 Returning const Reference — Safe Read-Only Access</text>
    <rect x="35" y="1232" width="330" height="48" rx="6" ry="6" fill="#263238"/>
    <text x="45" y="1246" class="code-text" fill="#80cbc4">class MyString {</text>
    <text x="55" y="1258" class="code-text" fill="#fff59d">  const string&amp; getString() const</text>
    <text x="65" y="1270" class="code-text" fill="#ef9a9a">    { return data; }  // no copy!</text>
    <text x="45" y="1280" class="code-text" fill="#80cbc4">};</text>
    <rect x="390" y="1232" width="175" height="48" rx="6" ry="6" fill="white" stroke="#388e3c" stroke-width="1"/>
    <text x="400" y="1248" class="label" fill="#388e3c" font-weight="bold">✅ Benefits:</text>
    <text x="400" y="1262" class="label" fill="#555">• Zero-cost (no copy)</text>
    <text x="400" y="1276" class="label" fill="#555">• Read-only protection</text>
    <rect x="585" y="1232" width="175" height="48" rx="6" ry="6" fill="white" stroke="#f44336" stroke-width="1"/>
    <text x="595" y="1248" class="label" fill="#f44336" font-weight="bold">⚠️ Don't return const&amp;</text>
    <text x="595" y="1262" class="label" fill="#555">to local variables!</text>
    <text x="595" y="1276" class="label" fill="#c62828">Same dangling risk.</text>
  </g>

  <!-- Step 13: Comparison Table -->
  <g class="step" id="step13" data-narration="Here's your exam cheat sheet! Compare all three methods side by side. Remember: value is safest, reference is fastest for existing objects, pointer enables polymorphism.">
    <rect x="20" y="1300" width="760" height="120" rx="8" ry="8" fill="white" filter="url(#shadow)" stroke="#1976d2" stroke-width="1"/>
    <text x="400" y="1318" text-anchor="middle" class="heading" font-size="13" fill="#1976d2">📊 Comparison — Safety vs Performance vs Control</text>
    <!-- Table header -->
    <rect x="35" y="1328" width="140" height="22" rx="4" ry="4" fill="#1976d2"/>
    <text x="105" y="1343" text-anchor="middle" class="label" fill="white" font-weight="bold">Criteria</text>
    <rect x="180" y="1328" width="190" height="22" rx="4" ry="4" fill="#1976d2"/>
    <text x="275" y="1343" text-anchor="middle" class="label" fill="white" font-weight="bold">By Value</text>
    <rect x="375" y="1328" width="190" height="22" rx="4" ry="4" fill="#388e3c"/>
    <text x="470" y="1343" text-anchor="middle" class="label" fill="white" font-weight="bold">By Reference</text>
    <rect x="570" y="1328" width="190" height="22" rx="4" ry="4" fill="#ff9800"/>
    <text x="665" y="1343" text-anchor="middle" class="label" fill="white" font-weight="bold">By Pointer</text>
    <!-- Row 1 -->
    <text x="105" y="1366" text-anchor="middle" class="label" fill="#333" font-weight="bold">Safety</text>
    <text x="275" y="1366" text-anchor="middle" class="label" fill="#388e3c">⭐⭐⭐ Safest</text>
    <text x="470" y="1366" text-anchor="middle" class="label" fill="#ff9800">⭐⭐ Moderate</text>
    <text x="665" y="1366" text-anchor="middle" class="label" fill="#f44336">⭐ Riskiest</text>
    <!-- Row 2 -->
    <text x="105" y="1382" text-anchor="middle" class="label" fill="#333" font-weight="bold">Speed</text>
    <text x="275" y="1382" text-anchor="middle" class="label" fill="#ff9800">Copy cost (RVO helps)</text>
    <text x="470" y="1382" text-anchor="middle" class="label" fill="#388e3c">No copy — fast</text>
    <text x="665" y="1382" text-anchor="middle" class="label" fill="#388e3c">No copy — fast</text>
    <!-- Row 3 -->
    <text x="105" y="1398" text-anchor="middle" class="label" fill="#333" font-weight="bold">Use Case</text>
    <text x="275" y="1398" text-anchor="middle" class="label" fill="#555">Local/temp objects</text>
    <text x="470" y="1398" text-anchor="middle" class="label" fill="#555">Method chaining</text>
    <text x="665" y="1398" text-anchor="middle" class="label" fill="#555">Factory/Polymorphism</text>
    <!-- Row 4 -->
    <text x="105" y="1414" text-anchor="middle" class="label" fill="#333" font-weight="bold">Memory</text>
    <text x="275" y="1414" text-anchor="middle" class="label" fill="#555">Auto-managed</text>
    <text x="470" y="1414" text-anchor="middle" class="label" fill="#555">Object must persist</text>
    <text x="665" y="1414" text-anchor="middle" class="label" fill="#555">delete required</text>
  </g>

  <!-- Step 14: Summary -->
  <g class="step" id="step14" data-narration="To summarize: use value for safety, reference for chaining and existing objects, pointer for polymorphism. Avoid dangling references. Prefer smart pointers in modern C plus plus.">
    <rect x="20" y="1430" width="760" height="155" rx="10" ry="10" fill="url(#titleGrad)" filter="url(#shadow)"/>
    <text x="400" y="1450" text-anchor="middle" class="heading" font-size="14" fill="white">🎓 Summary &amp; university Exam Tips</text>
    <!-- Key rules -->
    <rect x="35" y="1462" width="355" height="112" rx="8" ry="8" fill="rgba(255,255,255,0.95)"/>
    <text x="50" y="1480" class="heading" font-size="10" fill="#1976d2">Golden Rules:</text>
    <text x="50" y="1496" class="label" fill="#333">1️⃣ By Value = safest, use for local objects</text>
    <text x="50" y="1510" class="label" fill="#333">2️⃣ By Reference = for *this &amp; persistent data</text>
    <text x="50" y="1524" class="label" fill="#333">3️⃣ By Pointer = for polymorphism &amp; factories</text>
    <text x="50" y="1538" class="label" fill="#f44336" font-weight="bold">4️⃣ NEVER return ref to local variable!</text>
    <text x="50" y="1552" class="label" fill="#388e3c">5️⃣ RVO/NRVO eliminates copy overhead</text>
    <text x="50" y="1566" class="label" fill="#9c27b0">6️⃣ Use smart pointers in modern C++</text>
    <!-- Safety hierarchy -->
    <rect x="410" y="1462" width="350" height="112" rx="8" ry="8" fill="rgba(255,255,255,0.95)"/>
    <text x="425" y="1480" class="heading" font-size="10" fill="#9c27b0">Safety Hierarchy (Remember This!):</text>
    <rect x="430" y="1490" width="200" height="24" rx="12" ry="12" fill="#e8f5e9" stroke="#388e3c" stroke-width="1.5"/>
    <text x="530" y="1506" text-anchor="middle" class="heading" font-size="10" fill="#388e3c">Value 🛡️ SAFEST</text>
    <rect x="460" y="1520" width="160" height="24" rx="12" ry="12" fill="#fff3e0" stroke="#ff9800" stroke-width="1.5"/>
    <text x="540" y="1536" text-anchor="middle" class="heading" font-size="10" fill="#e65100">Reference ⚡ FAST</text>
    <rect x="490" y="1550" width="120" height="24" rx="12" ry="12" fill="#ffebee" stroke="#f44336" stroke-width="1.5"/>
    <text x="550" y="1566" text-anchor="middle" class="heading" font-size="10" fill="#f44336">Pointer 🎯 FLEX</text>
    <line x1="430" y1="1515" x2="460" y2="1530" stroke="#ff9800" stroke-width="1"/>
    <line x1="460" y1="1545" x2="490" y2="1560" stroke="#f44336" stroke-width="1"/>
  </g>
</svg>