<svg width="420" height="400" data-topic-id="operations-on-processes" xmlns="http://www.w3.org/2000/svg">
  <defs>
    <linearGradient id="pastel-gradient" x1="0%" y1="0%" x2="100%" y2="0%">
      <stop offset="0%" stop-color="#C7B8EA" stop-opacity="1"/>
      <stop offset="100%" stop-color="#C5CAE9" stop-opacity="1"/>
    </linearGradient>
  </defs>
  <title>Operations on Processes</title>
  <rect x="10" y="10" width="400" height="350" fill="url(#pastel-gradient)"/>
  <g transform="translate(15, 20)">
    <rect x="0" y="0" width="100" height="20" fill="#2F4F7F"/>
    <text x="10" y="5" fill="#fff" font-size="16" font-family="Arial, sans-serif" text-anchor="start">Process Creation</text>
    <rect x="110" y="0" width="100" height="20" fill="#2F4F7F"/>
    <text x="120" y="5" fill="#fff" font-size="16" font-family="Arial, sans-serif" text-anchor="start">Process Termination</text>
    <rect x="220" y="0" width="100" height="20" fill="#2F4F7F"/>
    <text x="230" y="5" fill="#fff" font-size="16" font-family="Arial, sans-serif" text-anchor="start">Scheduling</text>
    <rect x="320" y="0" width="100" height="20" fill="#2F4F7F"/>
    <text x="330" y="5" fill="#fff" font-size="16" font-family="Arial, sans-serif" text-anchor="start">Communication</text>
  </g>
  <animateTransform attributeName="transform" type="translate" from="0 0" to="0 50" begin="0s" dur="2s" repeatCount="indefinite"/>
  <animateTransform attributeName="transform" type="translate" from="0 50" to="0 0" begin="2s" dur="2s" repeatCount="indefinite"/>
  <g transform="translate(15, 20)">
    <rect x="0" y="0" width="100" height="20" fill="#2F4F7F"/>
    <text x="10" y="5" fill="#fff" font-size="16" font-family="Arial, sans-serif" text-anchor="start">Process Creation Steps</text>
    <rect x="110" y="0" width="100" height="20" fill="#2F4F7F"/>
    <text x="120" y="5" fill="#fff" font-size="16" font-family="Arial, sans-serif" text-anchor="start">Process Creation Example</text>
    <rect x="220" y="0" width="100" height="20" fill="#2F4F7F"/>
    <text x="230" y="5" fill="#fff" font-size="16" font-family="Arial, sans-serif" text-anchor="start">Process Termination Steps</text>
    <rect x="320" y="0" width="100" height="20" fill="#2F4F7F"/>
    <text x="330" y="5" fill="#fff" font-size="16" font-family="Arial, sans-serif" text-anchor="start">Process Termination Example</text>
    <rect x="0" y="50" width="400" height="20" fill="#2F4F7F"/>
    <text x="10" y="55" fill="#fff" font-size="16" font-family="Arial, sans-serif" text-anchor="start">Scheduling Steps</text>
    <rect x="110" y="50" width="400" height="20" fill="#2F4F7F"/>
    <text x="120" y="55" fill="#fff" font-size="16" font-family="Arial, sans-serif" text-anchor="start">Scheduling Example</text>
    <rect x="220" y="50" width="400" height="20" fill="#2F4F7F"/>
    <text x="230" y="55" fill="#fff" font-size="16" font-family="Arial, sans-serif" text-anchor="start">Communication Steps</text>
    <rect x="320" y="50" width="400" height="20" fill="#2F4F7F"/>
    <text x="330" y="55" fill="#fff" font-size="16" font-family="Arial, sans-serif" text-anchor="start">Communication Example</text>
  </g>
  <g transform="translate(15, 20)">
    <rect x="0" y="0" width="100" height="20" fill="#2F4F7F"/>
    <text x="10" y="5" fill="#fff" font-size="16" font-family="Arial, sans-serif" text-anchor="start">Process Creation</text>
    <rect x="110" y="0" width="100" height="20" fill="#2F4F7F"/>
    <text x="120" y="5" fill="#fff" font-size="16" font-family="Arial, sans-serif" text-anchor="start">Process Termination</text>
    <rect x="220" y="0" width="100" height="20" fill="#2F4F7F"/>
    <text x="230" y="5" fill="#fff" font-size="16" font-family="Arial, sans-serif" text-anchor="start">Scheduling</text>
    <rect x="320" y="0" width="100" height="20" fill="#2F4F7F"/>
    <text x="330" y="5" fill="#fff" font-size="16" font-family="Arial, sans-serif" text-anchor="start">Communication</text>
    <animateTransform attributeName="transform" type="translate" from="0 70" to="0 80" begin="0s" dur="2s" repeatCount="indefinite"/>
    <animateTransform attributeName="transform" type="translate" from="0 80" to="0 70" begin="2s" dur="2s" repeatCount="indefinite"/>
  </g>
  <g transform="translate(15, 20)">
    <rect x="0" y="0" width="100" height="20" fill="#2F4F7F"/>
    <text x="10" y="5" fill="#fff" font-size="16" font-family="Arial, sans-serif" text-anchor="start">Process Creation</text>
    <rect x="110" y="0" width="100" height="20" fill="#2F4F7F"/>
    <text x="120" y="5" fill="#fff" font-size="16" font-family="Arial, sans-serif" text-anchor="start">Process Termination</text>
    <rect x="220" y="0" width="100" height="20" fill="#2F4F7F"/>
    <text x="230" y="5" fill="#fff" font-size="16" font-family="Arial, sans-serif" text-anchor="start">Scheduling</text>
    <rect x="320" y="0" width="100" height="20" fill="#2F4F7F"/>
    <text x="330" y="5" fill="#fff" font-size="16" font-family="Arial, sans-serif" text-anchor="start">Communication</text>
    <rect x="0" y="100" width="400" height="20" fill="#2F4F7F"/>
    <text x="10" y="105" fill="#fff" font-size="16" font-family="Arial, sans-serif" text-anchor="start">Process Creation Steps</text>
    <rect x="110" y="100" width="400" height="20" fill="#2F4F7F"/>
    <text x="120" y="105" fill="#fff" font-size="16" font-family="Arial, sans-serif" text-anchor="start">Process Creation Example</text>
    <rect x="220" y="100" width="400" height="20" fill="#2F4F7F"/>
    <text x="230" y="105" fill="#fff" font-size="16" font-family="Arial, sans-serif" text-anchor="start">Process Termination Steps</text>
    <rect x="320" y="100" width="400" height="20" fill="#2F4F7F"/>
    <text x="330" y="105" fill="#fff" font-size="16" font-family="Arial, sans-serif" text-anchor="start">Process Termination Example</text>
    <rect x="0" y="200" width="400" height="20" fill="#2F4F7F"/>
    <text x="10" y="205" fill="#fff" font-size="16" font-family="Arial, sans-serif" text-anchor="start">Scheduling Steps</text>
    <rect x="110" y="200" width="400" height="20" fill="#2F4F7F"/>
    <text x="120" y="205" fill="#fff" font-size="16" font-family="Arial, sans-serif" text-anchor="start">Scheduling Example</text>
    <rect x="220" y="200" width="400" height="20" fill="#2F4F7F"/>
    <text x="230" y="205" fill="#fff" font-size="16" font-family="Arial, sans-serif" text-anchor="start">Communication Steps</text>
    <rect x="320" y="200" width="400" height="20" fill="#2F4F7F"/>
    <text x="330" y="205" fill="#fff" font-size="16" font-family="Arial, sans-serif" text-anchor="start">Communication Example</text>
  </g>
  <g transform="translate(15, 20)">
    <rect x="0" y="0" width="100" height="20" fill="#2F4F7F"/>
    <text x="10" y="5" fill="#fff" font-size="16" font-family="Arial, sans-serif" text-anchor="start">Process Creation</text>
    <rect x="110" y="0" width="100" height="20" fill="#2F4F7F"/>
    <text x="120" y="5" fill="#fff" font-size="16" font-family="Arial, sans-serif" text-anchor="start">Process Termination</text>
    <rect x="220" y="0" width="100" height="20" fill="#2F4F7F"/>
    <text x="230" y="5" fill="#fff" font-size="16" font-family="Arial, sans-serif" text-anchor="start">Scheduling</text>
    <rect x="320" y="0" width="100" height="20" fill="#2F4F7F"/>
    <text x="330" y="5" fill="#fff" font-size="16" font-family="Arial, sans-serif" text-anchor="start">Communication</text>
    <animateTransform attributeName="transform" type="translate" from="0 70" to="0 80" begin="0s" dur="2s" repeatCount="indefinite"/>
    <animateTransform attributeName="transform" type="translate" from="0 80" to="0 70" begin="2s" dur="2s" repeatCount="indefinite"/>
    <g transform="translate(15, 20)">
      <rect x="0" y="0" width="100" height="20" fill="#2F4F7F"/>
      <text x="10" y="5" fill="#fff" font-size="16" font-family="Arial, sans-serif" text-anchor="start">Process Creation</text>
      <rect x="110" y="0" width="100" height="20" fill="#2F4F7F"/>
      <text x="120" y="5" fill="#fff" font-size="16" font-family="Arial, sans-serif" text-anchor="start">Process Termination</text>
      <rect x="220" y="0" width="100" height="20" fill="#2F4F7F"/>
      <text x="230" y="5" fill="#fff" font-size="16" font-family="Arial, sans-serif" text-anchor="start">Scheduling</text>
      <rect x="320" y="0" width="100" height="20" fill="#2F4F7F"/>
      <text x="330" y="5" fill="#fff" font-size="16" font-family="Arial, sans-serif" text-anchor="start">Communication</text>
      <rect x="0" y="100" width="400" height="20" fill="#2F4F7F"/>
      <text x="10" y="105" fill="#fff" font-size="16" font-family="Arial, sans-serif" text-anchor="start">Process Creation Steps</text>
      <rect x="110" y="100" width="400" height="20" fill="#2F4F7F"/>
      <text x="120" y="105" fill="#fff" font-size="16" font-family="Arial, sans-serif" text-anchor="start">Process Creation Example</text>
      <rect x="220" y="100" width="400" height="20" fill="#2F4F7F"/>
      <text x="230" y="105" fill="#fff" font-size="16" font-family="Arial, sans-serif" text-anchor="start">Process Termination Steps</text>
      <rect x="320" y="100" width="400" height="20" fill="#2F4F7F"/>
      <text x="330" y="105" fill="#fff" font-size="16" font-family="Arial, sans-serif" text-anchor="start">Process Termination Example</text>
      <rect x="0" y="200" width="400" height="20" fill="#2F4F7F"/>
      <text x="10" y="205" fill="#fff" font-size="16" font-family="Arial, sans-serif" text-anchor="start">Scheduling Steps</text>
      <rect x="110" y="200" width="400" height="20" fill="#2F4F7F"/>
      <text x="120" y="205" fill="#fff" font-size="16" font-family="Arial, sans-serif" text-anchor="start">Scheduling Example</text>
      <rect x="220" y="200" width="400" height="20" fill="#2F4F7F"/>
      <text x="230" y="205" fill="#fff" font-size="16" font-family="Arial, sans-serif" text-anchor="start">Communication Steps</text>
      <rect x="320" y="200" width="400" height="20" fill="#2F4F7F"/>
      <text x="330" y="205" fill="#fff" font-size="16" font-family="Arial, sans-serif" text-anchor="start">Communication Example</text>
    </g>
  </g>
  <g transform="translate(15, 20)">
    <rect x="0" y="0" width="100" height="20" fill="#2F4F7F"/>
    <text x="10" y="5" fill="#fff" font-size="16" font-family="Arial, sans-serif" text-anchor="start">Process Creation</text>
    <rect x="110" y="0" width="100" height="20" fill="#2F4F7F"/>
    <text x="120" y="5" fill="#fff" font-size="16" font-family="Arial, sans-serif" text-anchor="start">Process Termination</text>
    <rect x="220" y="0" width="100" height="20" fill="#2F4F7F"/>
    <text x="230" y="5" fill="#fff" font-size="16" font-family="Arial, sans-serif" text-anchor="start">Scheduling</text>
    <rect x="320" y="0" width="100" height="20" fill="#2F4F7F"/>
    <text x="330" y="5" fill="#fff" font-size="16" font-family="Arial, sans-serif" text-anchor="start">Communication</text>
    <rect x="0" y="100" width="400" height="20" fill="#2F4F7F"/>
    <text x="10" y="105" fill="#fff" font-size="16" font-family="Arial, sans-serif" text-anchor="start">Process Creation Steps</text>
    <rect x="110" y="100" width="400" height="20" fill="#2F4F7F"/>
    <text x="120" y="105" fill="#fff" font-size="16" font-family="Arial, sans-serif" text-anchor="start">Process Creation Example</text>
    <rect x="220" y="100" width="400" height="20" fill="#2F4F7F"/>
    <text x="230" y="105" fill="#fff" font-size="16" font-family="Arial, sans-serif" text-anchor="start">Process Termination Steps</text>
    <rect x="320" y="100" width="400" height="20" fill="#2F4F7F"/>
    <text x="330" y="105" fill="#fff" font-size="16" font-family="Arial, sans-serif" text-anchor="start">Process Termination Example</text>
    <rect x="0" y="200" width="400" height="20" fill="#2F4F7F"/>
    <text x="10" y="205" fill="#fff" font-size="16" font-family="Arial, sans-serif" text-anchor="start">Scheduling Steps</text>
    <rect x="110" y="200" width="400" height="20" fill="#2F4F7F"/>
    <text x="120" y="205" fill="#fff" font-size="16" font-family="Arial, sans-serif" text-anchor="start">Scheduling Example</text>
    <rect x="220" y="200" width="400" height="20" fill="#2F4F7F"/>
    <text x="230" y="205" fill="#fff" font-size="16" font-family="Arial, sans-serif" text-anchor="start">Communication Steps</text>
    <rect x="320" y="200" width="400" height="20" fill="#2F4F7F"/>
    <text x="330" y="205" fill="#fff" font-size="16" font-family="Arial, sans-serif" text-anchor="start">Communication Example</text>
    <animateTransform attributeName="transform" type="translate" from="0 70" to="0 80" begin="0s" dur="2s" repeatCount="indefinite"/>
    <animateTransform attributeName="transform" type="translate" from="0 80" to="0 70" begin="2s" dur="2s" repeatCount="indefinite"/>
    <g transform="translate(15, 20)">
      <rect x="0" y="0" width="100" height="20" fill="#2F4F7F"/>
      <text x="10" y="5" fill="#fff" font-size="16" font-family="Arial, sans-serif" text-anchor="start">Process Creation</text>
      <rect x="110" y="0" width="100" height="20" fill="#2F4F7F"/>
      <text x="120" y="5" fill="#fff" font-size="16" font-family="Arial, sans-serif" text-anchor="start">Process Termination</text>
      <rect x="220" y="0" width="100" height="20" fill="#2F4F7F"/>
      <text x="230" y="5" fill="#fff" font-size="16" font-family="Arial, sans-serif" text-anchor="start">Scheduling</text>
      <rect x="320" y="0" width="100" height="20" fill="#2F4F7F"/>
      <text x="330" y="5" fill="#fff" font-size="16" font-family="Arial, sans-serif" text-anchor="start">Communication</text>
      <rect x="0" y="100" width="400" height="20" fill="#2F4F7F"/>
      <text x="10" y="105" fill="#fff" font-size="16" font-family="Arial, sans-serif" text-anchor="start">Process Creation Steps</text>
      <rect x="110" y="100" width="400" height="20" fill="#2F4F7F"/>
      <text x="120" y="105" fill="#fff" font-size="16" font-family="Arial, sans-serif" text-anchor="start">Process Creation Example</text>
      <rect x="220" y="100" width="400" height="20" fill="#2F4F7F"/>
      <text x="230" y="105" fill="#fff" font-size="16" font-family="Arial, sans-serif" text-anchor="start">Process Termination Steps</text>
      <rect x="320" y="100" width="400" height="20" fill="#2F4F7F"/>
      <text x="330" y="105" fill="#fff" font-size="16" font-family="Arial, sans-serif" text-anchor="start">Process Termination Example</text>
      <rect x="0" y="200" width="400" height="20" fill="#2F4F7F"/>
      <text x="10" y="205" fill="#fff" font-size="16" font-family="Arial, sans-serif" text-anchor="start">Scheduling Steps</text>
      <rect x="110" y="200" width="400" height="20" fill="#2F4F7F"/>
      <text x="120" y="205" fill="#fff" font-size="16" font-family="Arial, sans-serif" text-anchor="start">Scheduling Example</text>
      <rect x="220" y="200" width="400" height="20" fill="#2F4F7F"/>
      <text x="230" y="205" fill="#fff" font-size="16" font-family="Arial, sans-serif" text-anchor="start">Communication Steps</text>
      <rect x="320" y="200" width="400" height="20" fill="#2F4F7F"/>
      <text x="330" y="205" fill="#fff" font-size="16" font-family="Arial, sans-serif" text-anchor="start">Communication Example</text>
    </g>
  </g>
  <rect x="0" y="0" width="420" height="40" fill="#2F4F7F"/>
  <text x="10" y="15" fill="#fff" font-size="18" font-family="Arial, sans-serif" text-anchor="start">Operations on Processes</text>
  <rect x="0" y="360" width="420" height="40" fill="#2F4F7F"/>
  <text x="10" y="365" fill="#fff" font-size="18" font-family="Arial, sans-serif" text-anchor="start">Operations on Processes</text>
</svg>