<svg width="420" height="400" data-topic-id="Trees-Insertion-Traversals-Searching-Copying-A-Tre">
  <defs>
    <linearGradient id="pastel-gradient" x1="0%" y1="0%" x2="100%" y2="0%">
      <stop offset="0%" stop-color="#C9E4CA" stop-opacity="1"/>
      <stop offset="50%" stop-color="#B2FFFC" stop-opacity="1"/>
      <stop offset="100%" stop-color="#C9E4CA" stop-opacity="1"/>
    </linearGradient>
  </defs>

  <title>Trees: Insertion-Traversals-Searching-Copying a Tree</title>
  <metadata>
    <meta name="description" content="Animated educational diagram for Trees: Insertion-Traversals-Searching-Copying a Tree"/>
  </metadata>

  <style>
    * {
      fill: none;
      stroke: #3B5998;
      stroke-width: 2;
    }
    text {
      font-size: 14px;
      font-family: Arial, sans-serif;
    }
  </style>

  <g transform="translate(10, 10)">
    <rect x="10" y="10" width="400" height="380" fill="url(#pastel-gradient)"/>
    <rect x="10" y="20" width="200" height="20" fill="#87CEEB"/>
    <text x="20" y="40" text-anchor="middle" font-size="18px" font-family="Arial, sans-serif">Trees</text>
    <text x="20" y="60" text-anchor="start" font-size="14px" font-family="Arial, sans-serif">Data Structure</text>
  </g>

  <g transform="translate(250, 10)">
    <rect x="10" y="10" width="100" height="20" fill="#87CEEB"/>
    <text x="20" y="30" text-anchor="start" font-size="14px" font-family="Arial, sans-serif">Node</text>
    <text x="20" y="50" text-anchor="start" font-size="14px" font-family="Arial, sans-serif">Value</text>
    <text x="20" y="70" text-anchor="start" font-size="14px" font-family="Arial, sans-serif">Child</text>
  </g>

  <g transform="translate(250, 130)">
    <rect x="10" y="10" width="100" height="20" fill="#87CEEB"/>
    <text x="20" y="30" text-anchor="start" font-size="14px" font-family="Arial, sans-serif">Root</text>
    <text x="20" y="50" text-anchor="start" font-size="14px" font-family="Arial, sans-serif">Topmost</text>
  </g>

  <g transform="translate(250, 240)">
    <rect x="10" y="10" width="100" height="20" fill="#87CEEB"/>
    <text x="20" y="30" text-anchor="start" font-size="14px" font-family="Arial, sans-serif">Leaf</text>
    <text x="20" y="50" text-anchor="start" font-size="14px" font-family="Arial, sans-serif">No Child</text>
  </g>

  <g transform="translate(250, 350)">
    <rect x="10" y="10" width="100" height="20" fill="#87CEEB"/>
    <text x="20" y="30" text-anchor="start" font-size="14px" font-family="Arial, sans-serif">Parent</text>
    <text x="20" y="50" text-anchor="start" font-size="14px" font-family="Arial, sans-serif">Has Child</text>
  </g>

  <g transform="translate(470, 10)">
    <rect x="10" y="10" width="200" height="20" fill="#FFC107"/>
    <text x="20" y="30" text-anchor="start" font-size="14px" font-family="Arial, sans-serif">Insertion</text>
    <text x="20" y="50" text-anchor="start" font-size="14px" font-family="Arial, sans-serif">Add Node</text>
  </g>

  <g transform="translate(470, 130)">
    <rect x="10" y="10" width="200" height="20" fill="#FFC107"/>
    <text x="20" y="30" text-anchor="start" font-size="14px" font-family="Arial, sans-serif">Search</text>
    <text x="20" y="50" text-anchor="start" font-size="14px" font-family="Arial, sans-serif">Find Node</text>
  </g>

  <g transform="translate(470, 240)">
    <rect x="10" y="10" width="200" height="20" fill="#FFC107"/>
    <text x="20" y="30" text-anchor="start" font-size="14px" font-family="Arial, sans-serif">Copying</text>
    <text x="20" y="50" text-anchor="start" font-size="14px" font-family="Arial, sans-serif">Copy Tree</text>
  </g>

  <g transform="translate(470, 350)">
    <rect x="10" y="10" width="200" height="20" fill="#87CEEB"/>
    <text x="20" y="30" text-anchor="start" font-size="14px" font-family="Arial, sans-serif">Full Binary Tree</text>
    <text x="20" y="50" text-anchor="start" font-size="14px" font-family="Arial, sans-serif">Every Node</text>
  </g>

  <g transform="translate(470, 450)">
    <rect x="10" y="10" width="200" height="20" fill="#87CEEB"/>
    <text x="20" y="30" text-anchor="start" font-size="14px" font-family="Arial, sans-serif">Empty Binary Tree</text>
    <text x="20" y="50" text-anchor="start" font-size="14px" font-family="Arial, sans-serif">No Nodes</text>
  </g>

  <g transform="translate(10, 380)">
    <rect x="10" y="10" width="400" height="20" fill="#87CEEB"/>
    <text x="20" y="30" text-anchor="start" font-size="14px" font-family="Arial, sans-serif">Connections</text>
    <text x="20" y="50" text-anchor="start" font-size="14px" font-family="Arial, sans-serif">Arrow Markers</text>
  </g>

  <g transform="translate(10, 400)">
    <rect x="10" y="10" width="400" height="20" fill="#3B5998"/>
    <text x="20" y="30" text-anchor="middle" font-size="18px" font-family="Arial, sans-serif">Copying a Tree</text>
  </g>
</svg>