<svg width="420" height="400" data-topic-id="default-function-arguments">
  <defs>
    <style>
      text {
        font-family: Arial, sans-serif;
        font-size: 16px;
        color: #333;
      }
    </style>
  </defs>
  <rect x="0" y="0" width="420" height="400" fill="#87CEEB" />
  <path d="M 0 100 L 420 100" stroke="#3498db" stroke-width="4" fill="none" />
  <rect x="50" y="50" width="320" height="300" transform="rotate(45 -140 100)" fill="#f7f7f7" />
  <text x="50" y="50" text-anchor="middle" fill="#2ecc71">Default Function Arguments</text>
  <rect x="50" y="150" width="320" height="150" transform="rotate(45 -200 150)" fill="#2ecc71" />
  <path d="M 80 170 L 80 190" stroke="#1abc9c" stroke-width="2" fill="none" />
  <text x="80" y="170" text-anchor="middle" fill="#2ecc71">What are Default Function Arguments?</text>
  <rect x="50" y="250" width="320" height="150" transform="rotate(45 -140 250)" fill="#2ecc71" />
  <path d="M 80 270 L 80 280" stroke="#1abc9c" stroke-width="2" fill="none" />
  <text x="80" y="270" text-anchor="middle" fill="#2ecc71">Why are Default Function Arguments Useful?</text>
  <rect x="50" y="350" width="320" height="150" transform="rotate(45 -200 350)" fill="#2ecc71" />
  <path d="M 80 370 L 80 380" stroke="#1abc9c" stroke-width="2" fill="none" />
  <text x="80" y="370" text-anchor="middle" fill="#2ecc71">Declaring Default Function Arguments</text>
  <rect x="50" y="450" width="320" height="50" fill="#2ecc71" />
  <path d="M 120 460 L 360 460" stroke="#3498db" stroke-width="4" fill="none" />
  <text x="180" y="460" text-anchor="middle" fill="#2ecc71">Key Concepts</text>
  <g transform="rotate(45 -140 100)">
    <path d="M 0 100 L 420 100" stroke="#3498db" stroke-width="4" fill="none" />
    <path d="M 80 170 L 80 190" stroke="#1abc9c" stroke-width="2" fill="none" />
    <animate transform="rotate(45 -200 250)" begin="0s" dur="2s" repeatCount="indefinite" />
    <animate transform="rotate(45 -140 350)" begin="2s" dur="2s" repeatCount="indefinite" />
    <animate transform="rotate(45 -200 450)" begin="4s" dur="2s" repeatCount="indefinite" />
  </g>
</svg>