<svg width="420" height="400" data-topic-id="71-73" xmlns="http://www.w3.org/2000/svg" xmlns:xlink="http://www.w3.org/1999/xlink" viewBox="0 0 420 400" style="overflow:visible;">
  <title>Data Communications</title>
  <rect x="10" y="10" width="400" height="350" style="fill:linear-gradient(to bottom, #87CEEB, #4682B4)"/>
  <g transform="translate(20, 10)">
    <rect x="0" y="0" width="100" height="20" style="fill:rgba(0,128,255,0.2)"/>
    <text x="5" y="5" font-size="12" font-family="Arial" fill="#fff">Data</text>
  </g>
  <g transform="translate(150, 10)">
    <rect x="0" y="0" width="150" height="20" style="fill:rgba(0,128,255,0.2)"/>
    <text x="5" y="5" font-size="12" font-family="Arial" fill="#fff">Communication</text>
  </g>
  <g transform="translate(320, 10)">
    <rect x="0" y="0" width="100" height="20" style="fill:rgba(0,128,255,0.2)"/>
    <text x="5" y="5" font-size="12" font-family="Arial" fill="#fff">Networks</text>
  </g>
  <g transform="translate(20, 50)">
    <rect x="0" y="0" width="100" height="30" style="fill:rgba(255,165,0,0.2)"/>
    <text x="5" y="5" font-size="14" font-family="Arial" fill="#fff">Wired</text>
    <animateTransform attributeName="transform" dur="2s" begin="0s" type="translate" from="0,50" to="0,70" repeatCount="indefinite"/>
  </g>
  <g transform="translate(150, 50)">
    <rect x="0" y="0" width="150" height="30" style="fill:rgba(255,165,0,0.2)"/>
    <text x="5" y="5" font-size="14" font-family="Arial" fill="#fff">Wireless</text>
    <animateTransform attributeName="transform" dur="2s" begin="2s" type="translate" from="0,50" to="0,70" repeatCount="indefinite"/>
  </g>
  <g transform="translate(320, 50)">
    <rect x="0" y="0" width="100" height="30" style="fill:rgba(255,165,0,0.2)"/>
    <text x="5" y="5" font-size="14" font-family="Arial" fill="#fff">LANs</text>
    <animateTransform attributeName="transform" dur="2s" begin="4s" type="translate" from="0,50" to="0,70" repeatCount="indefinite"/>
  </g>
  <g transform="translate(20, 100)">
    <rect x="0" y="0" width="100" height="40" style="fill:rgba(0,128,255,0.2)"/>
    <text x="5" y="5" font-size="14" font-family="Arial" fill="#fff">Transmission</text>
    <animateTransform attributeName="transform" dur="2s" begin="0s" type="translate" from="0,120" to="0,140" repeatCount="indefinite"/>
  </g>
  <g transform="translate(150, 100)">
    <rect x="0" y="0" width="150" height="40" style="fill:rgba(0,128,255,0.2)"/>
    <text x="5" y="5" font-size="14" font-family="Arial" fill="#fff">Reception</text>
    <animateTransform attributeName="transform" dur="2s" begin="2s" type="translate" from="0,120" to="0,140" repeatCount="indefinite"/>
  </g>
  <g transform="translate(320, 100)">
    <rect x="0" y="0" width="100" height="40" style="fill:rgba(0,128,255,0.2)"/>
    <text x="5" y="5" font-size="14" font-family="Arial" fill="#fff">Networks</text>
    <animateTransform attributeName="transform" dur="2s" begin="4s" type="translate" from="0,120" to="0,140" repeatCount="indefinite"/>
  </g>
  <g transform="translate(20, 150)">
    <rect x="0" y="0" width="150" height="30" style="fill:rgba(0,128,255,0.2)"/>
    <text x="5" y="5" font-size="14" font-family="Arial" fill="#fff">Examples</text>
    <animateTransform attributeName="transform" dur="2s" begin="0s" type="translate" from="0,170" to="0,190" repeatCount="indefinite"/>
  </g>
  <g transform="translate(150, 150)">
    <rect x="0" y="0" width="100" height="30" style="fill:rgba(0,128,255,0.2)"/>
    <text x="5" y="5" font-size="14" font-family="Arial" fill="#fff">Email</text>
    <animateTransform attributeName="transform" dur="2s" begin="2s" type="translate" from="0,170" to="0,190" repeatCount="indefinite"/>
  </g>
  <g transform="translate(320, 150)">
    <rect x="0" y="0" width="100" height="30" style="fill:rgba(0,128,255,0.2)"/>
    <text x="5" y="5" font-size="14" font-family="Arial" fill="#fff">Wi-Fi</text>
    <animateTransform attributeName="transform" dur="2s" begin="4s" type="translate" from="0,170" to="0,190" repeatCount="indefinite"/>
  </g>
  <g transform="translate(20, 200)">
    <rect x="0" y="0" width="100" height="30" style="fill:rgba(255,165,0,0.2)"/>
    <text x="5" y="5" font-size="14" font-family="Arial" fill="#fff">Wired</text>
    <animateTransform attributeName="transform" dur="2s" begin="0s" type="translate" from="0,220" to="0,240" repeatCount="indefinite"/>
  </g>
  <g transform="translate(150, 200)">
    <rect x="0" y="0" width="150" height="30" style="fill:rgba(255,165,0,0.2)"/>
    <text x="5" y="5" font-size="14" font-family="Arial" fill="#fff">Ethernet</text>
    <animateTransform attributeName="transform" dur="2s" begin="2s" type="translate" from="0,220" to="0,240" repeatCount="indefinite"/>
  </g>
  <g transform="translate(320, 200)">
    <rect x="0" y="0" width="100" height="30" style="fill:rgba(255,165,0,0.2)"/>
    <text x="5" y="5" font-size="14" font-family="Arial" fill="#fff">Coaxial</text>
    <animateTransform attributeName="transform" dur="2s" begin="4s" type="translate" from="0,220" to="0,240" repeatCount="indefinite"/>
  </g>
  <g transform="translate(20, 250)">
    <rect x="0" y="0" width="150" height="40" style="fill:rgba(0,128,255,0.2)"/>
    <text x="5" y="5" font-size="14" font-family="Arial" fill="#fff">Local Area Networks</text>
    <animateTransform attributeName="transform" dur="2s" begin="0s" type="translate" from="0,270" to="0,290" repeatCount="indefinite"/>
  </g>
  <g transform="translate(150, 250)">
    <rect x="0" y="0" width="100" height="40" style="fill:rgba(0,128,255,0.2)"/>
    <text x="5" y="5" font-size="14" font-family="Arial" fill="#fff">LANs</text>
    <animateTransform attributeName="transform" dur="2s" begin="2s" type="translate" from="0,270" to="0,290" repeatCount="indefinite"/>
  </g>
  <g transform="translate(320, 250)">
    <rect x="0" y="0" width="100" height="40" style="fill:rgba(0,128,255,0.2)"/>
    <text x="5" y="5" font-size="14" font-family="Arial" fill="#fff">Network Topology</text>
    <animateTransform attributeName="transform" dur="2s" begin="4s" type="translate" from="0,270" to="0,290" repeatCount="indefinite"/>
  </g>
  <g transform="translate(20, 300)">
    <rect x="0" y="0" width="100" height="30" style="fill:rgba(0,128,255,0.2)"/>
    <text x="5" y="5" font-size="14" font-family="Arial" fill="#fff">Security</text>
    <animateTransform attributeName="transform" dur="2s" begin="0s" type="translate" from="0,320" to="0,340" repeatCount="indefinite"/>
  </g>
  <g transform="translate(150, 300)">
    <rect x="0" y="0" width="150" height="30" style="fill:rgba(0,128,255,0.2)"/>
    <text x="5" y="5" font-size="14" font-family="Arial" fill="#fff">Firewalls</text>
    <animateTransform attributeName="transform" dur="2s" begin="2s" type="translate" from="0,320" to="0,340" repeatCount="indefinite"/>
  </g>
  <g transform="translate(320, 300)">
    <rect x="0" y="0" width="100" height="30" style="fill:rgba(0,128,255,0.2)"/>
    <text x="5" y="5" font-size="14" font-family="Arial" fill="#fff">Encryption</text>
    <animateTransform attributeName="transform" dur="2s" begin="4s" type="translate" from="0,320" to="0,340" repeatCount="indefinite"/>
  </g>
  <g transform="translate(20, 350)">
    <rect x="0" y="0" width="150" height="20" style="fill:rgba(0,128,255,0.2)"/>
    <text x="5" y="5" font-size="12" font-family="Arial" fill="#fff">Conclusion</text>
  </g>
  <g transform="translate(150, 350)">
    <rect x="0" y="0" width="100" height="20" style="fill:rgba(0,128,255,0.2)"/>
    <text x="5" y="5" font-size="12" font-family="Arial" fill="#fff">Data Communications</text>
  </g>
  <g transform="translate(320, 350)">
    <rect x="0" y="0" width="100" height="20" style="fill:rgba(0,128,255,0.2)"/>
    <text x="5" y="5" font-size="12" font-family="Arial" fill="#fff">Is Crucial</text>
  </g>
  <g transform="translate(20, 400)">
    <text x="50" y="360" font-size="14" font-family="Arial" fill="#fff">Data Communications</text>
  </g>
</svg>