<svg width="420" height="400" data-topic-id="81-to-85">
    <defs>
        <linearGradient id="pastel-gradient" x1="0%" y1="0%" x2="100%" y2="0%">
            <stop offset="0%" stop-color="#C7B8EA" stop-opacity="1"/>
            <stop offset="100%" stop-color="#A1C9F2" stop-opacity="1"/>
        </linearGradient>
        <style>
            .section {
                background-color: #C7B8EA;
                padding: 20px;
                margin-bottom: 20px;
                border-radius: 10px;
                box-shadow: 0 4px 8px rgba(0,0,0,0.1);
            }
            .section:last-child {
                border-bottom: 2px solid #A1C9F2;
            }
            .icon {
                fill: #3B5998;
            }
            .arrow {
                stroke: #3B5998;
                stroke-width: 2;
            }
        </style>
    </defs>
    <rect x="10" y="10" width="400" height="360" fill="url(#pastel-gradient"/>>
    <title>Eighty-One to Eighty-Five</title>
    <rect x="10" y="40" width="400" height="20" fill="#3B5998"/>>
    <g transform="translate(15, 50)">
        <text data-narration="Introduction to Arrays" x="0" y="0" font-size="18" font-family="Arial, sans-serif">Introduction to Arrays</text>
        <rect x="0" y="20" width="10" height="10" fill="#fff"/>>
        <text x="15" y="25" class="icon" fill="#fff">i</text>
        <text data-narration="Definition" x="30" y="0" font-size="18" font-family="Arial, sans-serif">Definition</text>
        <rect x="0" y="20" width="10" height="10" fill="#fff"/>>
        <text x="15" y="25" class="icon" fill="#fff">i</text>
        <rect x="30" y="20" width="100" height="10" style="background-color: #A1C9F2;"/>>
        <text data-narration="Example" x="140" y="0" font-size="18" font-family="Arial, sans-serif">Example</text>
        <rect x="0" y="20" width="10" height="10" fill="#fff"/>>
        <text x="15" y="25" class="icon" fill="#fff">i</text>
        <rect x="140" y="20" width="100" height="10" style="background-color: #A1C9F2;"/>>
        <text data-narration="Operations on One-Dimensional Arrays" x="260" y="0" font-size="18" font-family="Arial, sans-serif">Operations on One-Dimensional Arrays</text>
        <rect x="0" y="20" width="10" height="10" fill="#fff"/>>
        <text x="15" y="25" class="icon" fill="#fff">i</text>
        <animate transform="rotate(360 15 25)" begin="1000ms"/>>
        <animate transform="rotate(360 15 25)" begin="1500ms"/>>
        <animate transform="rotate(360 15 25)" begin="2000ms"/>>
        <rect x="260" y="20" width="100" height="10" style="background-color: #A1C9F2;"/>>
        <text data-narration="Two-Dimensional Arrays" x="380" y="0" font-size="18" font-family="Arial, sans-serif">Two-Dimensional Arrays</text>
        <rect x="0" y="20" width="10" height="10" fill="#fff"/>>
        <text x="15" y="25" class="icon" fill="#fff">i</text>
        <rect x="380" y="20" width="100" height="10" style="background-color: #A1C9F2;"/>>
        <text data-narration="Operations on Two-Dimensional Arrays" x="500" y="0" font-size="18" font-family="Arial, sans-serif">Operations on Two-Dimensional Arrays</text>
        <rect x="0" y="20" width="10" height="10" fill="#fff"/>>
        <text x="15" y="25" class="icon" fill="#fff">i</text>
        <animate transform="rotate(360 15 25)" begin="2500ms"/>>
        <animate transform="rotate(360 15 25)" begin="3000ms"/>>
        <animate transform="rotate(360 15 25)" begin="3500ms"/>>
        <g transform="translate(10, 380)">
            <text data-narration="Key Concepts" x="0" y="0" font-size="18" font-family="Arial, sans-serif">Key Concepts</text>
            <rect x="0" y="20" width="10" height="10" fill="#fff"/>>
            <text x="15" y="25" class="icon" fill="#fff">i</text>
            <rect x="0" y="40" width="100" height="10" style="background-color: #A1C9F2;"/>>
            <text data-narration="Memory Allocation" x="140" y="0" font-size="18" font-family="Arial, sans-serif">Memory Allocation</text>
            <rect x="0" y="20" width="10" height="10" fill="#fff"/>>
            <text x="15" y="25" class="icon" fill="#fff">i</text>
            <rect x="140" y="20" width="100" height="10" style="background-color: #A1C9F2;"/>>
            <text data-narration="Bounds Checking" x="260" y="0" font-size="18" font-family="Arial, sans-serif">Bounds Checking</text>
            <rect x="0" y="20" width="10" height="10" fill="#fff"/>>
            <text x="15" y="25" class="icon" fill="#fff">i</text>
            <rect x="260" y="20" width="100" height="10" style="background-color: #A1C9F2;"/>>
            <animate transform="rotate(360 15 25)" begin="4000ms"/>>
            <animate transform="rotate(360 15 25)" begin="4500ms"/>>
            <animate transform="rotate(360 15 25)" begin="5000ms"/>>
            <g transform="translate(10, 420)">
                <text>Footer</text>
            </g>
        </g>
    </rect>
</svg>