<svg width="420" height="400" data-topic-id="probability-distributions-review-of-basic-probability-theory">
    <defs>
        <linearGradient id="gradient-background" x1="0%" y1="0%" x2="100%" y2="0%">
            <stop offset="0%" stop-color="#66CCCC" stop-opacity="1"/>
            <stop offset="100%" stop-color="#44A0E6" stop-opacity="1"/>
        </linearGradient>
    </defs>
    <rect fill="url(#gradient-background)" width="100%" height="100%"/>
    <text x="50%" y="20%" text-anchor="middle" font-size="24" font-family="Arial" fill="#333333">
        Probability Distributions Review
    </text>
    <rect x="50%" y="70%" width="300" height="200" fill="#FFFFFF" rx="10"/>
    <text x="50%" y="80%" text-anchor="middle" font-size="18" font-family="Arial" fill="#333333" data-narration="Probability Axioms">
        Probability Axioms
    </text>
    <rect x="50%" y="120%" width="250" height="80" fill="#FFFFFF" rx="10"/>
    <text x="50%" y="130%" text-anchor="middle" font-size="18" font-family="Arial" fill="#333333" data-narration="Axiom 1: Probability is a number between 0 and 1"/>
    <text x="50%" y="170%" text-anchor="middle" font-size="18" font-family="Arial" fill="#333333" data-narration="Axiom 2: Probability is normalized"/>
    <text x="50%" y="210%" text-anchor="middle" font-size="18" font-family="Arial" fill="#333333" data-narration="Axiom 3: Countable additivity"/>
    <rect x="50%" y="260%" width="250" height="80" fill="#FFFFFF" rx="10"/>
    <text x="50%" y="270%" text-anchor="middle" font-size="18" font-family="Arial" fill="#333333" data-narration="Expected Value">
        Expected Value
    </text>
    <rect x="50%" y="320%" width="240" height="60" fill="#FFFFFF" rx="10"/>
    <text x="50%" y="330%" text-anchor="middle" font-size="18" font-family="Arial" fill="#333333" data-narration="Variance">
        Variance
    </text>
    <rect x="50%" y="380%" width="300" height="60" fill="#FFFFFF" rx="10"/>
    <text x="50%" y="390%" text-anchor="middle" font-size="18" font-family="Arial" fill="#333333" data-narration="Common Probability Distributions" />
    <rect x="50%" y="450%" width="280" height="80" fill="#FFFFFF" rx="10"/>
    <text x="50%" y="460%" text-anchor="middle" font-size="18" font-family="Arial" fill="#333333" data-narration="Uniform Distribution">
        Uniform Distribution
    </text>
    <rect x="50%" y="520%" width="250" height="80" fill="#FFFFFF" rx="10"/>
    <text x="50%" y="530%" text-anchor="middle" font-size="18" font-family="Arial" fill="#333333" data-narration="Normal Distribution (Gaussian Distribution)">
        Normal Distribution (Gaussian Distribution)
    </text>
    <rect x="50%" y="590%" width="300" height="80" fill="#FFFFFF" rx="10"/>
    <text x="50%" y="600%" text-anchor="middle" font-size="18" font-family="Arial" fill="#333333" data-narration="Binomial Distribution">
        Binomial Distribution
    </text>
    <rect x="50%" y="660%" width="280" height="80" fill="#FFFFFF" rx="10"/>
    <text x="50%" y="670%" text-anchor="middle" font-size="18" font-family="Arial" fill="#333333" data-narration="Arrow markers for connections" />
    <rect x="50%" y="730%" width="420" height="40" fill="#FFFFFF" rx="10"/>
    <text x="50%" y="740%" text-anchor="middle" font-size="18" font-family="Arial" fill="#333333" data-narration="Title at top and footer at bottom">
        Title at top and footer at bottom
    </text>
    <animate transform="rotate(360 190 20)" begin="0s" dur="10s" repeat="indefinite"/>
    <animate transform="rotate(360 190 20)" begin="5s" dur="5s" repeat="indefinite"/>
    <animate transform="rotate(360 190 20)" begin="10s" dur="5s" repeat="indefinite"/>
</svg>