<svg width="420" height="400" viewBox="0 0 420 400" xmlns="http://www.w3.org/2000/svg" data-topic-id="introduction-to-artificial-intelligence-text-book-1-chapter-1">
  <defs>
    <linearGradient id="gradient" x1="0%" y1="0%" x2="100%" y2="0%">
      <stop offset="0%" stop-color="#c7b8ea" stop-opacity="1"/>
      <stop offset="100%" stop-color="#6495ed" stop-opacity="1"/>
    </linearGradient>
  </defs>
  <rect x="0" y="0" width="420" height="400" fill="url(#gradient)"/>
  <g transform="translate(20, 20)">
    <rect x="0" y="0" width="100" height="50" fill="#fff" rx="5"/>
    <text x="10" y="10" font-size="24" font-family="Arial" fill="#333" text-anchor="start">Text Book 1 Ch 1</text>
  </g>
  <g transform="translate(130, 20)">
    <rect x="0" y="0" width="150" height="50" fill="#fff" rx="5"/>
    <text x="10" y="10" font-size="18" font-family="Arial" fill="#333" text-anchor="start">What is Artificial Intelligence?</text>
  </g>
  <g transform="translate(280, 20)">
    <rect x="0" y="0" width="150" height="50" fill="#fff" rx="5"/>
    <text x="10" y="10" font-size="18" font-family="Arial" fill="#333" text-anchor="start">Key Characteristics of AI</text>
  </g>
  <g transform="translate(20, 100)">
    <rect x="0" y="0" width="150" height="50" fill="#fff" rx="5"/>
    <text x="10" y="10" font-size="18" font-family="Arial" fill="#333" text-anchor="start">Introduction to AI</text>
    <animateTransform attributeName="transform" type="translate" from="0 100" to="0 150" dur="1s" begin="0s" repeatCount="indefinite"/>
  </g>
  <g transform="translate(280, 100)">
    <rect x="0" y="0" width="150" height="50" fill="#fff" rx="5"/>
    <text x="10" y="10" font-size="18" font-family="Arial" fill="#333" text-anchor="start">Types of Problems</text>
    <animateTransform attributeName="transform" type="translate" from="150 100" to="150 150" dur="1s" begin="0s" repeatCount="indefinite"/>
  </g>
  <g transform="translate(20, 250)">
    <rect x="0" y="0" width="150" height="50" fill="#fff" rx="5"/>
    <text x="10" y="10" font-size="18" font-family="Arial" fill="#333" text-anchor="start">Search Methods</text>
    <animateTransform attributeName="transform" type="translate" from="0 250" to="0 300" dur="1s" begin="0s" repeatCount="indefinite"/>
  </g>
  <g transform="translate(280, 250)">
    <rect x="0" y="0" width="150" height="50" fill="#fff" rx="5"/>
    <text x="10" y="10" font-size="18" font-family="Arial" fill="#333" text-anchor="start">Types of Search Methods</text>
    <animateTransform attributeName="transform" type="translate" from="150 250" to="150 300" dur="1s" begin="0s" repeatCount="indefinite"/>
  </g>
  <g transform="translate(20, 400)">
    <rect x="0" y="0" width="150" height="50" fill="#fff" rx="5"/>
    <text x="10" y="10" font-size="18" font-family="Arial" fill="#333" text-anchor="start">Conclusion</text>
  </g>
  <g transform="translate(280, 400)">
    <rect x="0" y="0" width="150" height="50" fill="#fff" rx="5"/>
    <text x="10" y="10" font-size="18" font-family="Arial" fill="#333" text-anchor="start">References</text>
  </g>
  <g transform="translate(20, 350)">
    <line x1="20" y1="20" x2="50" y2="80" stroke="#f44336" stroke-width="2" />
    <line x1="20" y1="20" x2="50" y2="80" stroke="#f44336" stroke-width="2" />
    <line x1="300" y1="20" x2="300" y2="80" stroke="#f44336" stroke-width="2" />
    <line x1="300" y1="20" x2="300" y2="80" stroke="#f44336" stroke-width="2" />
  </g>
  <g transform="translate(280, 350)">
    <line x1="280" y1="20" x2="310" y2="80" stroke="#f44336" stroke-width="2" />
    <line x1="280" y1="20" x2="310" y2="80" stroke="#f44336" stroke-width="2" />
    <line x1="320" y1="20" x2="350" y2="80" stroke="#f44336" stroke-width="2" />
    <line x1="320" y1="20" x2="350" y2="80" stroke="#f44336" stroke-width="2" />
  </g>
</svg>