<svg width="420" height="400" data-topic-id="structural-representations" xmlns="http://www.w3.org/2000/svg" xmlns:xlink="http://www.w3.org/1999/xlink">
  <!-- Gradient background -->
  <defs>
    <linearGradient id="background-gradient" x1="0%" y1="0%" x2="100%" y2="0%">
      <stop offset="0%" stop-color="#C7E5F5" stop-opacity="1"/>
      <stop offset="100%" stop-color="#E0E5F6" stop-opacity="1"/>
    </linearGradient>
  </defs>
  <rect x="0" y="0" width="420" height="400" fill="url(#background-gradient)" rx="10"/>
  
  <!-- Title section -->
  <section data-narration="Introduction" style="text-align: center; margin-top: 20px;">
    <h2>Structural Representations</h2>
    <p>Finite automata provide a way to describe the internal structure of a system, which is essential for understanding its behavior and properties.</p>
  </section>
  
  <!-- Transition Diagrams section -->
  <section data-narration="Transition Diagrams" style="margin-top: 40px;">
    <h3>Transition Diagrams</h3>
    <svg width="200" height="200" style="border: 1px solid #ccc; margin: 10px auto;">
      <path d="M50,50 l-50,0 c-12.523,0-22.947,-12.423-22.947,-22.947l0-50c0-12.523,12.423-22.947,22.947-22.947l50,0 l50,50 c12.523,0,22.947,12.423,22.947,22.947l0,50z"/>
      <path d="M150,50 l-50,0 c-12.523,0-22.947,-12.423-22.947,-22.947l0-50c0-12.523,12.423-22.947,22.947-22.947l50,0 l50,50 c12.523,0,22.947,12.423,22.947,22.947l0,50z"/>
      <path d="M50,100 l0,50 c-12.523,12.523-22.947,22.947-22.947,22.947l0,50c0,12.523,12.423,22.947,22.947,22.947l50,0 l50,-50 c12.523,0,22.947,-12.423,22.947,-22.947l0,-50z"/>
      <path d="M150,100 l0,50 c-12.523,12.523-22.947,22.947-22.947,22.947l0,50c0,12.523,12.423,22.947,22.947,22.947l50,0 l50,-50 c12.523,0,22.947,-12.423,22.947,-22.947l0,-50z"/>
    </svg>