<svg viewBox="0 0 800 2000" xmlns="http://www.w3.org/2000/svg">
  <defs>
    <linearGradient id="blueGrad" x1="0%" y1="0%" x2="100%" y2="100%">
      <stop offset="0%" style="stop-color:#e3f2fd"/>
      <stop offset="100%" style="stop-color:#bbdefb"/>
    </linearGradient>
    <linearGradient id="greenGrad" x1="0%" y1="0%" x2="100%" y2="100%">
      <stop offset="0%" style="stop-color:#e8f5e9"/>
      <stop offset="100%" style="stop-color:#c8e6c9"/>
    </linearGradient>
    <linearGradient id="orangeGrad" x1="0%" y1="0%" x2="100%" y2="100%">
      <stop offset="0%" style="stop-color:#fff3e0"/>
      <stop offset="100%" style="stop-color:#ffe0b2"/>
    </linearGradient>
    <linearGradient id="purpleGrad" x1="0%" y1="0%" x2="100%" y2="100%">
      <stop offset="0%" style="stop-color:#f3e5f5"/>
      <stop offset="100%" style="stop-color:#e1bee7"/>
    </linearGradient>
    <linearGradient id="redGrad" x1="0%" y1="0%" x2="100%" y2="100%">
      <stop offset="0%" style="stop-color:#ffebee"/>
      <stop offset="100%" style="stop-color:#ffcdd2"/>
    </linearGradient>
    <filter id="shadow" x="-10%" y="-10%" width="120%" height="120%">
      <feDropShadow dx="2" dy="2" stdDeviation="3" flood-opacity="0.15"/>
    </filter>
    <marker id="arrowBlue" markerWidth="10" markerHeight="10" refX="9" refY="3" orient="auto">
      <path d="M0,0 L0,6 L9,3 z" fill="#1976d2"/>
    </marker>
    <marker id="arrowGreen" markerWidth="10" markerHeight="10" refX="9" refY="3" orient="auto">
      <path d="M0,0 L0,6 L9,3 z" fill="#388e3c"/>
    </marker>
  </defs>
  
  <style>
    @keyframes fadeInSlide {
      from { opacity: 0; transform: translateY(20px); }
      to { opacity: 1; transform: translateY(0); }
    }
    @keyframes scaleIn {
      from { opacity: 0; transform: scale(0.85); }
      to { opacity: 1; transform: scale(1); }
    }
    @keyframes textReveal {
      from { opacity: 0; transform: translateX(-10px); }
      to { opacity: 1; transform: translateX(0); }
    }
    @keyframes drawLine {
      from { stroke-dashoffset: 200; }
      to { stroke-dashoffset: 0; }
    }
    @keyframes pulse {
      0%, 100% { transform: scale(1); }
      50% { transform: scale(1.02); }
    }
    .step { animation: fadeInSlide 0.6s ease-out forwards; }
    .step rect { animation: scaleIn 0.5s cubic-bezier(0.34, 1.56, 0.64, 1) forwards; }
    .step text { animation: textReveal 0.4s ease-out 0.2s backwards; }
    .code-text { font-family: 'Courier New', monospace; font-size: 10px; }
    .title-text { font-size: 14px; font-weight: bold; }
    .body-text { font-size: 10px; }
    .label-text { font-size: 8px; }
  </style>
  
  <!-- Background -->
  <rect width="800" height="2000" fill="#f8f9fa"/>

  <!-- SECTION 1: INTRODUCTION -->
  
  <g class="step" id="step0" data-narration="Welcome to learning C Looping Structures for 8051 Microcontrollers. These loops are essential for embedded systems programming.">
    <rect x="20" y="10" width="760" height="50" rx="10" fill="url(#blueGrad)" filter="url(#shadow)"/>
    <text x="400" y="40" text-anchor="middle" font-size="18" fill="#1565c0" font-weight="bold">C Looping Structures for 8051 Microcontrollers</text>
  </g>

  <g class="step" id="step1" data-narration="Loops allow code blocks to execute repeatedly based on conditions. In 8051, they create delays, scan keypads, and read sensors continuously.">
    <rect x="20" y="70" width="760" height="85" rx="10" fill="url(#greenGrad)" filter="url(#shadow)"/>
    <text x="40" y="95" font-size="13" fill="#2e7d32" font-weight="bold">Why Loops Matter in 8051</text>
    <rect x="40" y="110" width="220" height="35" rx="5" fill="#ffffff" stroke="#388e3c" stroke-width="1"/>
    <text x="50" y="125" class="body-text" fill="#333">• Generate time delays</text>
    <text x="50" y="138" class="body-text" fill="#333">• Poll peripheral devices</text>
    <rect x="270" y="110" width="220" height="35" rx="5" fill="#ffffff" stroke="#388e3c" stroke-width="1"/>
    <text x="280" y="125" class="body-text" fill="#333">• Scan keypads</text>
    <text x="280" y="138" class="body-text" fill="#333">• Multiplex displays</text>
    <rect x="500" y="110" width="260" height="35" rx="5" fill="#ffffff" stroke="#388e3c" stroke-width="1"/>
    <text x="510" y="125" class="body-text" fill="#333">• Read sensors continuously</text>
    <text x="510" y="138" class="body-text" fill="#333">• Implement communication protocols</text>
  </g>

  <g class="step" id="step2" data-narration="There are three main loop types in C: for loops for known iterations, while loops for condition-based execution, and do-while loops that execute at least once.">
    <rect x="20" y="165" width="760" height="85" rx="10" fill="url(#orangeGrad)" filter="url(#shadow)"/>
    <text x="40" y="190" font-size="13" fill="#e65100" font-weight="bold">Three Loop Types in C</text>
    <rect x="40" y="210" width="230" height="30" rx="8" fill="#fff8e1" stroke="#ff9800" stroke-width="1"/>
    <text x="155" y="230" text-anchor="middle" font-size="11" fill="#e65100" font-weight="bold">for Loop</text>
    <text x="155" y="242" text-anchor="middle" font-size="9" fill="#666">Known iterations</text>
    <rect x="285" y="210" width="230" height="30" rx="8" fill="#fff8e1" stroke="#ff9800" stroke-width="1"/>
    <text x="400" y="230" text-anchor="middle" font-size="11" fill="#e65100" font-weight="bold">while Loop</text>
    <text x="400" y="242" text-anchor="middle" font-size="9" fill="#666">Pre-test condition</text>
    <rect x="530" y="210" width="230" height="30" rx="8" fill="#fff8e1" stroke="#ff9800" stroke-width="1"/>
    <text x="645" y="230" text-anchor="middle" font-size="11" fill="#e65100" font-weight="bold">do-while Loop</text>
    <text x="645" y="242" text-anchor="middle" font-size="9" fill="#666">Post-test, executes once</text>
  </g>

  <!-- SECTION 2: DEEP DIVE -->

  <g class="step" id="step3" data-narration="The for loop provides compact syntax with initialization, condition checking, and increment/decrement in one statement.">
    <rect x="20" y="260" width="760" height="95" rx="10" fill="url(#blueGrad)" filter="url(#shadow)"/>
    <text x="40" y="285" font-size="13" fill="#1565c0" font-weight="bold">The for Loop - Syntax</text>
    <rect x="40" y="305" width="350" height="40" rx="8" fill="#263238" stroke="#455a64"/>
    <text x="50" y="325" class="code-text" fill="#80cbc4">for</text>
    <text x="85" y="325" class="code-text" fill="#ffcc80">(</text>
    <text x="100" y="325" class="code-text" fill="#a5d6a7">initialization</text>
    <text x="185" y="325" class="code-text" fill="#ffcc80">;</text>
    <text x="200" y="325" class="code-text" fill="#a5d6a7">condition</text>
    <text x="265" y="325" class="code-text" fill="#ffcc80">;</text>
    <text x="280" y="325" class="code-text" fill="#a5d6a7">increment</text>
    <text x="350" y="325" class="code-text" fill="#ffcc80">)</text>
    <rect x="410" y="305" width="360" height="40" rx="8" fill="#eceff1" stroke="#90a4ae"/>
    <text x="425" y="322" class="body-text" fill="#333">for(i=0; i&lt;10; i++)</text>
    <text x="425" y="338" class="label-text" fill="#666">{ // body }</text>
    <rect x="40" y="355" width="350" height="1" fill="#90caf9"/>
    <line x1="40" y1="355" x2="390" y2="355" stroke="#90caf9" stroke-width="1" stroke-dasharray="5,5">
      <animate attributeName="stroke-dashoffset" from="350" to="0" dur="1s" fill="freeze"/>
    </line>
  </g>

  <g class="step" id="step4" data-narration="In 8051, use unsigned char for loop counters since it's 8-bit efficient. The compiler uses DJNZ assembly instruction for countdown loops.">
    <rect x="20" y="365" width="760" height="95" rx="10" fill="url(#blueGrad)" filter="url(#shadow)"/>
    <text x="40" y="390" font-size="13" fill="#1565c0" font-weight="bold">for Loop Example - 8051 Context</text>
    <rect x="40" y="410" width="355" height="40" rx="8" fill="#263238" stroke="#455a64"/>
    <text x="50" y="430" class="code-text" fill="#80cbc4">unsigned char</text>
    <text x="145" y="430" class="code-text" fill="#ffcc80">i</text>
    <text x="160" y="430" class="code-text" fill="#ffffff">;</text>
    <text x="180" y="430" class="code-text" fill="#80cbc4">for</text>
    <text x="215" y="430" class="code-text" fill="#ffcc80">(</text>
    <text x="230" y="430" class="code-text" fill="#a5d6a7">i=0; i&lt;10; i++</text>
    <text x="320" y="430" class="code-text" fill="#ffcc80">)</text>
    <text x="50" y="448" class="code-text" fill="#ffcc80">    P1 = i;</text>
    <rect x="410" y="410" width="360" height="40" rx="8" fill="#e8eaf6" stroke="#5c6bc0"/>
    <text x="425" y="430" class="label-text" fill="#333" font-weight="bold">8051 Optimization Tip:</text>
    <text x="425" y="445" class="body-text" fill="#333">Use unsigned char for max efficiency</text>
    <rect x="40" y="460" width="730" height="1" fill="#90caf9"/>
  </g>

  <g class="step" id="step5" data-narration="The while loop checks condition before execution - if false initially, the body never runs. Essential for polling hardware flags.">
    <rect x="20" y="470" width="760" height="95" rx="10" fill="url(#greenGrad)" filter="url(#shadow)"/>
    <text x="40" y="495" font-size="13" fill="#2e7d32" font-weight="bold">The while Loop - Pre-test Loop</text>
    <rect x="40" y="515" width="340" height="40" rx="8" fill="#263238" stroke="#455a64"/>
    <text x="50" y="535" class="code-text" fill="#80cbc4">while</text>
    <text x="105" y="535" class="code-text" fill="#ffcc80">(</text>
    <text x="120" y="535" class="code-text" fill="#a5d6a7">condition</text>
    <text x="200" y="535" class="code-text" fill="#ffcc80">)</text>
    <text x="220" y="535" class="code-text" fill="#ffcc80">{</text>
    <text x="250" y="535" class="code-text" fill="#a5d6a7">// body</text>
    <text x="310" y="535" class="code-text" fill="#ffcc80">}</text>
    <rect x="400" y="515" width="370" height="40" rx="8" fill="#e0f2f1" stroke="#26a69a"/>
    <text x="415" y="535" class="label-text" fill="#00695c" font-weight="bold">Key Characteristic:</text>
    <text x="415" y="550" class="body-text" fill="#00695c">Condition checked FIRST - may not execute</text>
    <path d="M 50 555 L 380 555" stroke="#4caf50" stroke-width="2" stroke-dasharray="330" marker-end="url(#arrowGreen)">
      <animate attributeName="stroke-dashoffset" from="330" to="0" dur="1s" fill="freeze"/>
    </path>
  </g>

  <g class="step" id="step6" data-narration="Every 8051 program uses while(1) as the infinite super loop - the backbone structure for continuous embedded system operation.">
    <rect x="20" y="575" width="760" height="95" rx="10" fill="url(#greenGrad)" filter="url(#shadow)"/>
    <text x="40" y="600" font-size="13" fill="#2e7d32" font-weight="bold">The Super Loop - while(1) in 8051</text>
    <rect x="40" y="620" width="355" height="40" rx="8" fill="#263238" stroke="#455a64"/>
    <text x="50" y="640" class="code-text" fill="#80cbc4">void</text>
    <text x="85" y="640" class="code-text" fill="#ffcc80">main</text>
    <text x="130" y="640" class="code-text" fill="#ffcc80">(</text>
    <text x="145" y="640" class="code-text" fill="#80cbc4">void</text>
    <text x="175" y="640" class="code-text" fill="#ffcc80">)</text>
    <text x="195" y="640" class="code-text" fill="#ffcc80">{</text>
    <text x="50" y="658" class="code-text" fill="#80cbc4">    while</text>
    <text x="115" y="658" class="code-text" fill="#ffcc80">(</text>
    <text x="130" y="658" class="code-text" fill="#ce93d8">1</text>
    <text x="145" y="658" class="code-text" fill="#ffcc80">)</text>
    <text x="170" y="658" class="code-text" fill="#ffcc80">{</text>
    <text x="200" y="658" class="code-text" fill="#a5d6a7">// code</text>
    <text x="270" y="658" class="code-text" fill="#ffcc80">}</text>
    <rect x="410" y="620" width="360" height="40" rx="8" fill="#fff9c4" stroke="#f9a825"/>
    <text x="425" y="640" class="label-text" fill="#f57f17" font-weight="bold">🔑 university EXAM POINT:</text>
    <text x="425" y="655" class="body-text" fill="#f57f17">Every 8051 program needs while(1) super loop!</text>
    <rect x="40" y="670" width="730" height="1" fill="#81c784"/>
  </g>

  <g class="step" id="step7" data-narration="The do-while loop executes the body at least once, then checks the condition. Useful when reading ports before deciding to continue.">
    <rect x="20" y="680" width="760" height="95" rx="10" fill="url(#orangeGrad)" filter="url(#shadow)"/>
    <text x="40" y="705" font-size="13" fill="#e65100" font-weight="bold">The do-while Loop - Post-test Loop</text>
    <rect x="40" y="725" width="350" height="40" rx="8" fill="#263238" stroke="#455a64"/>
    <text x="50" y="745" class="code-text" fill="#ffcc80">do</text>
    <text x="80" y="745" class="code-text" fill="#ffcc80">{</text>
    <text x="110" y="745" class="code-text" fill="#a5d6a7">// body</text>
    <text x="200" y="745" class="code-text" fill="#ffcc80">}</text>
    <text x="220" y="745" class="code-text" fill="#80cbc4">while</text>
    <text x="275" y="745" class="code-text" fill="#ffcc80">(</text>
    <text x="290" y="745" class="code-text" fill="#a5d6a7">condition</text>
    <text x="370" y="745" class="code-text" fill="#ffcc80">);</text>
    <rect x="410" y="725" width="360" height="40" rx="8" fill="#fce4ec" stroke="#ec407a"/>
    <text x="425" y="745" class="label-text" fill="#ad1457" font-weight="bold">Important:</text>
    <text x="485" y="745" class="label-text" fill="#ad1457">Semicolon REQUIRED after while(condition)</text>
    <rect x="40" y="770" width="730" height="1" fill="#ffcc80"/>
  </g>

  <g class="step" id="step8" data-narration="The key difference: while checks first (may skip), do-while checks after (runs at least once). Choose based on application needs.">
    <rect x="20" y="785" width="760" height="95" rx="10" fill="url(#purpleGrad)" filter="url(#shadow)"/>
    <text x="40" y="810" font-size="13" fill="#7b1fa2" font-weight="bold">while vs do-while - Key Difference</text>
    <rect x="40" y="830" width="345" height="40" rx="8" fill="#e8eaf6" stroke="#5c6bc0"/>
    <text x="50" y="850" class="body-text" fill="#333" font-weight="bold">while loop:</text>
    <text x="140" y="850" class="body-text" fill="#333">Checks condition FIRST</text>
    <text x="140" y="865" class="label-text" fill="#666">→ May NOT execute body</text>
    <rect x="400" y="830" width="370" height="40" rx="8" fill="#f3e5f5" stroke="#ab47bc"/>
    <text x="410" y="850" class="body-text" fill="#333" font-weight="bold">do-while loop:</text>
    <text x="530" y="850" class="body-text" fill="#333">Checks condition AFTER</text>
    <text x="530" y="865" class="label-text" fill="#666">→ ALWAYS executes body at least once</text>
    <rect x="40" y="875" width="730" height="1" fill="#ce93d8"/>
  </g>

  <g class="step" id="step9" data-narration="Nested loops multiply iteration counts for longer delays. A single 8-bit loop maxes at 256; nested loops reach 256×256 = 65,025 iterations.">
    <rect x="20" y="890" width="760" height="100" rx="10" fill="url(#redGrad)" filter="url(#shadow)"/>
    <text x="40" y="915" font-size="13" fill="#c62828" font-weight="bold">Nested Loops for Time Delays</text>
    <rect x="40" y="935" width="355" height="45" rx="8" fill="#263238" stroke="#455a64"/>
    <text x="50" y="955" class="code-text" fill="#80cbc4">void</text>
    <text x="85" y="955" class="code-text" fill="#ffcc80">delay</text>
    <text x="130" y="955" class="code-text" fill="#ffcc80">(</text>
    <text x="145" y="955" class="code-text" fill="#80cbc4">void</text>
    <text x="175" y="955" class="code-text" fill="#ffcc80">)</text>
    <text x="50" y="973" class="code-text" fill="#ffcc80">{</text>
    <text x="70" y="973" class="code-text" fill="#80cbc4">    unsigned char</text>
    <text x="175" y="973" class="code-text" fill="#ffcc80">i, j</text>
    <text x="210" y="973" class="code-text" fill="#ffffff">;</text>
    <text x="70" y="991" class="code-text" fill="#80cbc4">    for</text>
    <text x="110" y="991" class="code-text" fill="#ffcc80">(</text>
    <text x="125" y="991" class="code-text" fill="#a5d6a7">i=0; i&lt;255; i++</text>
    <text x="230" y="991" class="code-text" fill="#ffcc80">)</text>
    <text x="150" y="991" class="code-text" fill="#80cbc4">for</text>
    <text x="250" y="991" class="code-text" fill="#ffcc80">(</text>
    <text x="265" y="991" class="code-text" fill="#a5d6a7">j=0; j&lt;255; j++</text>
    <text x="370" y="991" class="code-text" fill="#ffcc80">);</text>
    <rect x="410" y="935" width="360" height="45" rx="8" fill="#ffebee" stroke="#ef5350"/>
    <text x="425" y="955" class="body-text" fill="#c62828" font-weight="bold">Total Iterations:</text>
    <text x="425" y="972" class="code-text" fill="#c62828">255 × 255 = 65,025</text>
    <text x="600" y="972" class="label-text" fill="#666">max for nested 8-bit</text>
    <rect x="40" y="985" width="730" height="1" fill="#ef9a9a"/>
  </g>

  <g class="step" id="step10" data-narration="For 11.0592MHz crystal, one machine cycle = 1.085 µs. Delay ≈ iterations × machine cycles × cycle time. Compiler affects efficiency.">
    <rect x="20" y="1000" width="760" height="95" rx="10" fill="url(#blueGrad)" filter="url(#shadow)"/>
    <text x="40" y="1025" font-size="13" fill="#1565c0" font-weight="bold">Time Delay Calculation</text>
    <rect x="40" y="1045" width="230" height="40" rx="8" fill="#e3f2fd" stroke="#1976d2"/>
    <text x="55" y="1063" class="body-text" fill="#1565c0" font-weight="bold">Machine Cycle Time</text>
    <text x="55" y="1078" class="code-text" fill="#333">= 12 / 11.0592MHz</text>
    <text x="180" y="1078" class="label-text" fill="#666">≈ 1.085µs</text>
    <rect x="280" y="1045" width="240" height="40" rx="8" fill="#e3f2fd" stroke="#1976d2"/>
    <text x="295" y="1063" class="body-text" fill="#1565c0" font-weight="bold">Delay Formula</text>
    <text x="295" y="1078" class="code-text" fill="#333">= iterations × cycles × 1.085µs</text>
    <rect x="530" y="1045" width="240" height="40" rx="8" fill="#e8eaf6" stroke="#3f51b5"/>
    <text x="545" y="1070" class="body-text" fill="#1a237e">For 65,025 iterations</text>
    <text x="545" y="1085" class="label-text" fill="#333">≈ 65ms (approximate)</text>
    <rect x="40" y="1095" width="730" height="1" fill="#90caf9"/>
  </g>

  <g class="step" id="step11" data-narration="Always prefer unsigned char (8-bit) for loop counters - it generates most efficient code. unsigned int is slower but allows up to 65,535 iterations.">
    <rect x="20" y="1105" width="760" height="100" rx="10" fill="url(#greenGrad)" filter="url(#shadow)"/>
    <text x="40" y="1130" font-size="13" fill="#2e7d32" font-weight="bold">Data Type Selection for Loop Counters</text>
    <rect x="40" y="1150" width="235" height="45" rx="8" fill="#c8e6c9" stroke="#4caf50"/>
    <text x="55" y="1170" class="body-text" fill="#2e7d32" font-weight="bold">unsigned char</text>
    <text x="55" y="1185" class="label-text" fill="#333">8-bit, max 255</text>
    <text x="160" y="1185" class="label-text" fill="#4caf50">★ MOST EFFICIENT</text>
    <rect x="285" y="1150" width="235" height="45" rx="8" fill="#fff9c4" stroke="#ffc107"/>
    <text x="300" y="1170" class="body-text" fill="#f57f17" font-weight="bold">unsigned int</text>
    <text x="300" y="1185" class="label-text" fill="#333">16-bit, max 65,535</text>
    <text x="430" y="1185" class="label-text" fill="#f9a825">Slower on 8051</text>
    <rect x="530" y="1150" width="240" height="45" rx="8" fill="#ffccbc" stroke="#ff5722"/>
    <text x="545" y="1170" class="body-text" fill="#bf360c" font-weight="bold">unsigned long</text>
    <text x="545" y="1185" class="label-text" fill="#333">32-bit, huge range</text>
    <text x="670" y="1185" class="label-text" fill="#d84315">✗ AVOID on 8051</text>
    <rect x="40" y="1205" width="730" height="1" fill="#81c784"/>
  </g>

  <g class="step" id="step12" data-narration="Break exits loop immediately; continue skips to next iteration. These control statements manage loop flow in embedded applications.">
    <rect x="20" y="1215" width="760" height="90" rx="10" fill="url(#orangeGrad)" filter="url(#shadow)"/>
    <text x="40" y="1240" font-size="13" fill="#e65100" font-weight="bold">Loop Control: break and continue</text>
    <rect x="40" y="1260" width="345" height="35" rx="8" fill="#263238" stroke="#455a64"/>
    <text x="50" y="1280" class="code-text" fill="#80cbc4">if</text>
    <text x="80" y="1280" class="code-text" fill="#ffcc80">(</text>
    <text x="95" y="1280" class="code-text" fill="#a5d6a7">condition</text>
    <text x="170" y="1280" class="code-text" fill="#ffcc80">)</text>
    <text x="190" y="1280" class="code-text" fill="#ce93d8">break</text>
    <text x="250" y="1280" class="code-text" fill="#666">// Exit loop</text>
    <rect x="400" y="1260" width="345" height="35" rx="8" fill="#263238" stroke="#455a64"/>
    <text x="410" y="1280" class="code-text" fill="#80cbc4">if</text>
    <text x="440" y="1280" class="code-text" fill="#ffcc80">(</text>
    <text x="455" y="1280" class="code-text" fill="#a5d6a7">condition</text>
    <text x="530" y="1280" class="code-text" fill="#ffcc80">)</text>
    <text x="550" y="1280" class="code-text" fill="#ce93d8">continue</text>
    <text x="630" y="1280" class="code-text" fill="#666">// Skip iteration</text>
    <rect x="40" y="1300" width="355" height="1" fill="#ffcc80"/>
    <rect x="400" y="1300" width="355" height="1" fill="#ffcc80"/>
  </g>

  <g class="step" id="step13" data-narration="Example: Toggle Port 1 LED with nested delay. The while(1) super loop continuously alternates between 0x55 and 0xAA patterns.">
    <rect x="20" y="1315" width="760" height="105" rx="10" fill="url(#purpleGrad)" filter="url(#shadow)"/>
    <text x="40" y="1340" font-size="13" fill="#7b1fa2" font-weight="bold">Example 1: LED Toggling with Delay</text>
    <rect x="40" y="1360" width="355" height="50" rx="8" fill="#263238" stroke="#455a64"/>
    <text x="50" y="1380" class="code-text" fill="#80cbc4">void</text>
    <text x="85" y="1380" class="code-text" fill="#ffcc80">main</text>
    <text x="130" y="1380" class="code-text" fill="#ffcc80">(</text>
    <text x="145" y="1380" class="code-text" fill="#80cbc4">void</text>
    <text x="175" y="1380" class="code-text" fill="#ffcc80">) {</text>
    <text x="50" y="1398" class="code-text" fill="#80cbc4">    while</text>
    <text x="115" y="1398" class="code-text" fill="#ffcc80">(</text>
    <text x="130" y="1398" class="code-text" fill="#ce93d8">1</text>
    <text x="145" y="1398" class="code-text" fill="#ffcc80=">)</text>
    <text x="170" y="1398" class="code-text" fill="#ffcc80">{</text>
    <text x="195" y="1398" class="code-text" fill="#a5d6a7">P1=0x55; delay();</text>
    <text x="50" y="1416" class="code-text" fill="#a5d6a7">        P1=0xAA; delay();</text>
    <text x="130" y="1416" class="code-text" fill="#ffcc80">}</text>
    <text x="145" y="1416" class="code-text" fill="#ffcc80">}</text>
    <rect x="410" y="1360" width="355" height="50" rx="8" fill="#f3e5f5" stroke="#ab47bc"/>
    <text x="425" y="1385" class="label-text" fill="#7b1fa2" font-weight="bold">Output:</text>
    <text x="425" y="1400" class="body-text" fill="#333">P1 toggles 01010101 ↔ 10101010</text>
    <text x="425" y="1416" class="label-text" fill="#666">continuously with delay between</text>
  </g>

  <g class="step" id="step14" data-narration="Example: Count 0-9 on Port 2 using nested while loops. The inner loop counts, outer loop repeats forever.">
    <rect x="20" y="1430" width="760" height="95" rx="10" fill="url(#redGrad)" filter="url(#shadow)"/>
    <text x="40" y="1455" font-size="13" fill="#c62828" font-weight="bold">Example 2: Counting on Port Using While</text>
    <rect x="40" y="1475" width="355" height="40" rx="8" fill="#263238" stroke="#455a64"/>
    <text x="50" y="1495" class="code-text" fill="#80cbc4">unsigned char</text>
    <text x="155" y="1495" class="code-text" fill="#ffcc80">count</text>
    <text x="175" y="1495" class="code-text" fill="#ffffff">=</text>
    <text x="190" y="1495" class="code-text" fill="#a5d6a7">0</text>
    <text x="205" y="1495" class="code-text" fill="#ffffff">;</text>
    <text x="225" y="1495" class="code-text" fill="#80cbc4">while</text>
    <text x="280" y="1495" class="code-text" fill="#ffcc80">(</text>
    <text x="295" y="1495" class="code-text" fill="#a5d6a7">count &lt; 10</text>
    <text x="370" y="1495" class="code-text" fill="#ffcc80=">)</text>
    <text x="50" y="1513" class="code-text" fill="#a5d6a7">    P2 = count++;</text>
    <rect x="410" y="1475" width="360" height="40" rx="8" fill="#ffebee" stroke="#ef5350"/>
    <text x="425" y="1495" class="label-text" fill="#c62828" font-weight="bold">Result:</text>
    <text x="480" y="1495" class="body-text" fill="#333">Sends 0,1,2,3...9 to Port 2</text>
    <text x="425" y="1513" class="label-text" fill="#666">Then repeats from 0 continuously</text>
  </g>

  <g class="step" id="step15" data-narration="Example: do-while waits for switch press. It reads input at least once before checking condition - perfect for initial port read.">
    <rect x="20" y="1535" width="760" height="95" rx="10" fill="url(#blueGrad)" filter="url(#shadow)"/>
    <text x="40" y="1560" font-size="13" fill="#1565c0" font-weight="bold">Example 3: do-while for Input Wait</text>
    <rect x="40" y="1580" width="355" height="40" rx="8" fill="#263238" stroke="#455a64"/>
    <text x="50" y="1600" class="code-text" fill="#80cbc4">do</text>
    <text x="80" y="1600" class="code-text" fill="#ffcc80">{</text>
    <text x="110" y="1600" class="code-text" fill="#666">// wait</text>
    <text x="180" y="1600" class="code-text" fill="#ffcc80">}</text>
    <text x="200" y="1600" class="code-text" fill="#80cbc4">while</text>
    <text x="265" y="1600" class="code-text" fill="#ffcc80">(</text>
    <text x="280" y="1600" class="code-text" fill="#a5d6a7">SW == 1</text>
    <text x="350" y="1600" class="code-text" fill="#ffcc80">);</text>
    <rect x="410" y="1580" width="360" height="40" rx="8" fill="#e3f2fd" stroke="#42a5f5"/>
    <text x="425" y="1600" class="body-text" fill="#1565c0" font-weight="bold">Application:</text>
    <text x="530" y="1600" class="body-text" fill="#333">Wait for switch press</text>
    <text x="425" y="1618" class="label-text" fill="#666">Reads switch at least once before check</text>
  </g>

  <!-- SECTION 3: SUMMARY -->

  <g class="step" id="step16" data-narration="Key formulas: nested loop iterations = outer × inner. Machine cycle = 12/crystal_freq. Delay depends on iterations, cycles, and crystal.">
    <rect x="20" y="1640" width="760" height="90" rx="10" fill="url(#greenGrad)" filter="url(#shadow)"/>
    <text x="40" y="1665" font-size="13" fill="#2e7d32" font-weight="bold">Key Formulas and Concepts</text>
    <rect x="40" y="1685" width="345" height="35" rx="8" fill="#c8e6c9" stroke="#4caf50"/>
    <text x="55" y="1705" class="body-text" fill="#2e7d32" font-weight="bold">Nested Loop Iterations:</text>
    <text x="230" y="1705" class="code-text" fill="#333">outer × inner</text>
    <rect x="400" y="1685" width="370" height="35" rx="8" fill="#c8e6c9" stroke="#4caf50"/>
    <text x="415" y="1705" class="body-text" fill="#2e7d32" font-weight="bold">Machine Cycle:</text>
    <text x="550" y="1705" class="code-text" fill="#333">12 / Crystal_Freq</text>
    <rect x="40" y="1725" width="730" height="1" fill="#81c784"/>
  </g>

  <g class="step" id="step17" data-narration="Common mistakes: using int instead of char for counters, forgetting semicolon after do-while, missing while(1) super loop, confusing while with do-while.">
    <rect x="20" y="1740" width="760" height="90" rx="10" fill="url(#redGrad)" filter="url(#shadow)"/>
    <text x="40" y="1765" font-size="13" fill="#c62828" font-weight="bold">Common Mistakes to Avoid</text>
    <rect x="40" y="1785" width="235" height="35" rx="8" fill="#ffcdd2" stroke="#ef5350"/>
    <text x="50" y="1805" class="label-text" fill="#c62828" font-weight="bold">✗ int instead of char</text>
    <text x="180" y="1805" class="label-text" fill="#666">wastes memory</text>
    <rect x="285" y="1785" width="235" height="35" rx="8" fill="#ffcdd2" stroke="#ef5350"/>
    <text x="295" y="1805" class="label-text" fill="#c62828" font-weight="bold">✗ Missing ; after do-while</text>
    <text x="490" y="1805" class="label-text" fill="#666">syntax error</text>
    <rect x="530" y="1785" width="240" height="35" rx="8" fill="#ffcdd2" stroke="#ef5350"/>
    <text x="540" y="1805" class="label-text" fill="#c62828" font-weight="bold">✗ No while(1)</text>
    <text x="680" y="1805" class="label-text" fill="#666">program crashes</text>
    <rect x="40" y="1830" width="730" height="1" fill="#ef9a9a"/>
  </g>

  <g class="step" id="step18" data-narration="university Exam Tips: Always use unsigned char for loop counters, remember super loop pattern, know nested loop delay calculations, and differentiate while vs do-while.">
    <rect x="20" y="1840" width="760" height="85" rx="10" fill="url(#orangeGrad)" filter="url(#shadow)"/>
    <text x="40" y="1865" font-size="13" fill="#e65100" font-weight="bold">university Exam Tips</text>
    <rect x="40" y="1885" width="180" height="30" rx="6" fill="#ffe0b2" stroke="#ff9800"/>
    <text x="130" y="1905" text-anchor="middle" class="label-text" fill="#e65100">Use unsigned char</text>
    <rect x="230" y="1885" width="180" height="30" rx="6" fill="#ffe0b2" stroke="#ff9800"/>
    <text x="320" y="1905" text-anchor="middle" class="label-text" fill="#e65100">while(1) super loop</text>
    <rect x="420" y="1885" width="180" height="30" rx="6" fill="#ffe0b2" stroke="#ff9800"/>
    <text x="510" y="1905" text-anchor="middle" class="label-text" fill="#e65100">Nested loop delays</text>
    <rect x="610" y="1885" width="180" height="30" rx="6" fill="#ffe0b2" stroke="#ff9800"/>
    <text x="700" y="1905" text-anchor="middle" class="label-text" fill="#e65100">while vs do-while</text>
    <text x="400" y="1935" text-anchor="middle" class="body-text" fill="#e65100" font-weight="bold">Practice writing complete 8051 C programs with all three loop types!</text>
  </g>
  
  <g class="step" id="step19" data-narration="Congratulations! You now understand C looping structures for 8051 microcontrollers including for, while, do-while, nested loops, and delay generation.">
    <rect x="20" y="1935" width="760" height="50" rx="10" fill="url(#blueGrad)" filter="url(#shadow)"/>
    <text x="400" y="1965" text-anchor="middle" font-size="14" fill="#1565c0" font-weight="bold">✓ Topic Complete: C Looping Structures for 8051</text>
  </g>
</svg>