<svg width="420" height="400" data-topic-id="rmsprop-and-adam" xmlns="http://www.w3.org/2000/svg">
  <title>RMSprop and Adam: Advanced Optimization Techniques</title>
  <defs>
    <linearGradient id="gradient" x1="0%" y1="0%" x2="0%" y2="100%">
      <stop offset="0%" stop-color="#3498db"/>
      <stop offset="100%" stop-color="#2ecc71"/>
    </linearGradient>
  </defs>
  <rect x="10" y="10" width="400" height="380" fill="none" rx="10"/>
  <rect x="10" y="50" width="400" height="30" fill="#f1c40f" rx="5"/>
  <rect x="10" y="90" width="400" height="30" fill="#2ecc71" rx="5"/>
  <rect x="10" y="130" width="400" height="30" fill="#e74c3c" rx="5"/>
  <rect x="10" y="170" width="400" height="30" fill="#1abc9c" rx="5"/>
  <g fill="none" stroke="#333" stroke-width="1">
    <path d="M 15 10 L 15 40" stroke-linecap="round" stroke-linejoin="round"/>
    <path d="M 15 10 V 50" stroke-linecap="round" stroke-linejoin="round"/>
    <path d="M 15 50 H 395" stroke-linecap="round" stroke-linejoin="round"/>
    <path d="M 15 50 V 90" stroke-linecap="round" stroke-linejoin="round"/>
    <path d="M 15 90 H 395" stroke-linecap="round" stroke-linejoin="round"/>
    <path d="M 15 90 V 130" stroke-linecap="round" stroke-linejoin="round"/>
    <path d="M 15 130 H 395" stroke-linecap="round" stroke-linejoin="round"/>
    <path d="M 15 130 V 170" stroke-linecap="round" stroke-linejoin="round"/>
    <path d="M 15 170 H 395" stroke-linecap="round" stroke-linejoin="round"/>
    <path d="M 15 170 V 210" stroke-linecap="round" stroke-linejoin="round"/>
    <path d="M 15 210 H 395" stroke-linecap="round" stroke-linejoin="round"/>
    <path d="M 15 210 V 250" stroke-linecap="round" stroke-linejoin="round"/>
    <path d="M 15 250 H 395" stroke-linecap="round" stroke-linejoin="round"/>
    <path d="M 15 250 V 290" stroke-linecap="round" stroke-linejoin="round"/>
    <path d="M 15 290 H 395" stroke-linecap="round" stroke-linejoin="round"/>
    <path d="M 15 290 V 330" stroke-linecap="round" stroke-linejoin="round"/>
    <path d="M 15 330 H 395" stroke-linecap="round" stroke-linejoin="round"/>
    <path d="M 15 50 L 395 50" stroke-linecap="round" stroke-linejoin="round"/>
    <path d="M 15 90 L 395 90" stroke-linecap="round" stroke-linejoin="round"/>
    <path d="M 15 130 L 395 130" stroke-linecap="round" stroke-linejoin="round"/>
    <path d="M 15 170 L 395 170" stroke-linecap="round" stroke-linejoin="round"/>
    <path d="M 15 210 L 395 210" stroke-linecap="round" stroke-linejoin="round"/>
    <path d="M 15 250 L 395 250" stroke-linecap="round" stroke-linejoin="round"/>
    <path d="M 15 290 L 395 290" stroke-linecap="round" stroke-linejoin="round"/>
  </g>
  <g fill="#f1c40f" transform="translate(10, 70) rotate(45) scale(1.2)">
    <rect x="0" y="0" width="200" height="150" fill="none" rx="10"/>
    <text x="50" y="20" font-size="18" text-anchor="middle" fill="#fff">Optimization</text>
    <animateTransform attributeName="transform" type="rotate" from="0 200 150" to="45 200 150" dur="2s" begin="0s"/>
  </g>
  <g fill="#2ecc71" transform="translate(10, 230) rotate(45) scale(1.2)">
    <rect x="0" y="0" width="200" height="150" fill="none" rx="10"/>
    <text x="50" y="20" font-size="18" text-anchor="middle" fill="#fff">RMSprop</text>
    <animateTransform attributeName="transform" type="rotate" from="0 200 150" to="90 200 150" dur="2s" begin="2s"/>
  </g>
  <g fill="#e74c3c" transform="translate(10, 250) rotate(45) scale(1.2)">
    <rect x="0" y="0" width="200" height="150" fill="none" rx="10"/>
    <text x="50" y="20" font-size="18" text-anchor="middle" fill="#fff">Adam</text>
    <animateTransform attributeName="transform" type="rotate" from="0 200 150" to="180 200 150" dur="2s" begin="4s"/>
  </g>
  <g fill="#1abc9c" transform="translate(10, 270) rotate(45) scale(1.2)">
    <rect x="0" y="0" width="200" height="150" fill="none" rx="10"/>
    <text x="50" y="20" font-size="18" text-anchor="middle" fill="#fff">Stochastic Gradient Descent</text>
    <animateTransform attributeName="transform" type="rotate" from="0 200 150" to="270 200 150" dur="2s" begin="6s"/>
  </g>
  <g fill="#f1c40f" transform="translate(10, 300)">
    <rect x="0" y="0" width="400" height="100" fill="none" rx="10"/>
    <rect x="10" y="10" width="200" height="80" fill="#3498db" rx="5"/>
    <rect x="220" y="10" width="200" height="80" fill="#2ecc71" rx="5"/>
    <rect x="430" y="10" width="200" height="80" fill="#e74c3c" rx="5"/>
    <rect x="10" y="90" width="200" height="80" fill="#1abc9c" rx="5"/>
    <text x="50" y="50" font-size="18" text-anchor="middle" fill="#fff">Learning Rate</text>
    <text x="50" y="120" font-size="18" text-anchor="middle" fill="#fff">Gradient</text>
    <text x="50" y="190" font-size="18" text-anchor="middle" fill="#fff">Moving Average</text>
  </g>
  <g fill="#2ecc71" transform="translate(10, 350)">
    <rect x="0" y="0" width="400" height="100" fill="none" rx="10"/>
    <rect x="10" y="10" width="200" height="80" fill="#3498db" rx="5"/>
    <rect x="220" y="10" width="200" height="80" fill="#2ecc71" rx="5"/>
    <rect x="430" y="10" width="200" height="80" fill="#e74c3c" rx="5"/>
    <rect x="10" y="90" width="200" height="80" fill="#1abc9c" rx="5"/>
    <text x="50" y="50" font-size="18" text-anchor="middle" fill="#fff">Momentum</text>
    <text x="50" y="120" font-size="18" text-anchor="middle" fill="#fff">Epsilon</text>
    <text x="50" y="190" font-size="18" text-anchor="middle" fill="#fff">Grad Mean</text>
  </g>
  <g fill="#e74c3c" transform="translate(10, 400)">
    <rect x="0" y="0" width="400" height="100" fill="none" rx="10"/>
    <rect x="10" y="10" width="200" height="80" fill="#3498db" rx="5"/>
    <rect x="220" y="10" width="200" height="80" fill="#2ecc71" rx="5"/>
    <rect x="430" y="10" width="200" height="80" fill="#1abc9c" rx="5"/>
    <rect x="10" y="90" width="200" height="80" fill="#e74c3c" rx="5"/>
    <text x="50" y="50" font-size="18" text-anchor="middle" fill="#fff">Gradient Sum</text>
    <text x="50" y="120" font-size="18" text-anchor="middle" fill="#fff">Learning Rate</text>
    <text x="50" y="190" font-size="18" text-anchor="middle" fill="#fff">Update</text>
  </g>
  <g fill="#1abc9c" transform="translate(10, 450)">
    <rect x="0" y="0" width="400" height="100" fill="none" rx="10"/>
    <rect x="10" y="10" width="200" height="80" fill="#3498db" rx="5"/>
    <rect x="220" y="10" width="200" height="80" fill="#2ecc71" rx="5"/>
    <rect x="430" y="10" width="200" height="80" fill="#e74c3c" rx="5"/>
    <rect x="10" y="90" width="200" height="80" fill="#1abc9c" rx="5"/>
    <text x="50" y="50" font-size="18" text-anchor="middle" fill="#fff">Stochastic Gradient Descent</text>
    <text x="50" y="120" font-size="18" text-anchor="middle" fill="#fff">Gradient Descent</text>
    <text x="50" y="190" font-size="18" text-anchor="middle" fill="#fff">Optimization</text>
  </g>
</svg>