<svg width="420" height="400" data-topic-id="textbook-2-chap-5-51-54">
  <defs>
    <linearGradient id="pastel-gradient" x1="0%" y1="0%" x2="100%" y2="0%">
      <stop offset="0%" stop-color="#eee" stop-opacity="1"/>
      <stop offset="100%" stop-color="#c7f0ff" stop-opacity="1"/>
    </linearGradient>
    <linearGradient id="dark-gradient" x1="0%" y1="0%" x2="100%" y2="0%">
      <stop offset="0%" stop-color="#2f4f7f" stop-opacity="1"/>
      <stop offset="100%" stop-color="#3b5998" stop-opacity="1"/>
    </linearGradient>
  </defs>

  <title>Textbook 2 Chap 5 51-54</title>

  <g transform="translate(20, 20)">
    <rect x="0" y="0" width="400" height="380" fill="url(#pastel-gradient)"/>
    <text x="20" y="40" font-size="24" font-family="Arial" fill="#fff">Textbook 2 Chap 5 51-54</text>
  </g>

  <g transform="translate(20, 80)">
    <section data-narration="5.1 Image Degradation Models">
      <rect x="0" y="0" width="400" height="120" fill="#fff" rx="10"/>
      <text x="20" y="30" font-size="18" font-family="Arial" fill="#333">Image Degradation</text>
      <text x="20" y="60" font-size="18" font-family="Arial" fill="#333">Introduction</text>
      <animateTransform attributeName="transform" type="translate" from="0,0" to="0,120" dur="2s" begin="-0.5s"/>
    </section>

    <g transform="translate(20, 200)">
      <section data-narration="5.1.1 Types of Image Degradation">
        <rect x="0" y="0" width="400" height="120" fill="#fff" rx="10"/>
        <text x="20" y="30" font-size="18" font-family="Arial" fill="#333">Types of Image Degradation</text>
        <text x="20" y="60" font-size="18" font-family="Arial" fill="#333">Additive Noise</text>
        <rect x="150" y="30" width="150" height="60" fill="#fff" rx="10"/>
        <text x="150" y="60" font-size="18" font-family="Arial" fill="#333">Multiplicative Noise</text>
        <rect x="300" y="30" width="150" height="60" fill="#fff" rx="10"/>
        <text x="300" y="60" font-size="18" font-family="Arial" fill="#333">Blur</text>
        <animateTransform attributeName="transform" type="translate" from="0,0" to="0,120" dur="2s" begin="-0.5s"/>
      </section>

      <g transform="translate(20, 350)">
        <section data-narration="5.2 Image Restoration Techniques">
          <rect x="0" y="0" width="400" height="120" fill="#fff" rx="10"/>
          <text x="20" y="30" font-size="18" font-family="Arial" fill="#333">Image Restoration</text>
          <text x="20" y="60" font-size="18" font-family="Arial" fill="#333">Techniques</text>
          <rect x="150" y="30" width="150" height="60" fill="#fff" rx="10"/>
          <text x="150" y="60" font-size="18" font-family="Arial" fill="#333">Gaussian Filter</text>
          <rect x="300" y="30" width="150" height="60" fill="#fff" rx="10"/>
          <text x="300" y="60" font-size="18" font-family="Arial" fill="#333">Rayleigh Noise Model</text>
          <animateTransform attributeName="transform" type="translate" from="0,0" to="0,120" dur="2s" begin="-0.5s"/>
        </section>
      </g>

      <g transform="translate(20, 500)">
        <section data-narration="5.2.1 Filtering Techniques">
          <rect x="0" y="0" width="400" height="120" fill="#fff" rx="10"/>
          <text x="20" y="30" font-size="18" font-family="Arial" fill="#333">Filtering Techniques</text>
          <rect x="150" y="30" width="150" height="60" fill="#fff" rx="10"/>
          <text x="150" y="60" font-size="18" font-family="Arial" fill="#333">Gaussian Filter</text>
          <rect x="300" y="30" width="150" height="60" fill="#fff" rx="10"/>
          <text x="300" y="60" font-size="18" font-family="Arial" fill="#333">Rayleigh Noise Model</text>
          <animateTransform attributeName="transform" type="translate" from="0,0" to="0,120" dur="2s" begin="-0.5s"/>
        </section>
      </g>

      <g transform="translate(20, 650)">
        <section data-narration="5.2.2 Image Restoration">
          <rect x="0" y="0" width="400" height="120" fill="#fff" rx="10"/>
          <text x="20" y="30" font-size="18" font-family="Arial" fill="#333">Image Restoration</text>
          <text x="20" y="60" font-size="18" font-family="Arial" fill="#333">Techniques</text>
          <rect x="150" y="30" width="150" height="60" fill="#fff" rx="10"/>
          <text x="150" y="60" font-size="18" font-family="Arial" fill="#333">Gaussian Filter</text>
          <rect x="300" y="30" width="150" height="60" fill="#fff" rx="10"/>
          <text x="300" y="60" font-size="18" font-family="Arial" fill="#333">Rayleigh Noise Model</text>
          <animateTransform attributeName="transform" type="translate" from="0,0" to="0,120" dur="2s" begin="-0.5s"/>
        </section>
      </g>

      <g transform="translate(20, 800)">
        <section data-narration="5.2.3 Image Processing">
          <rect x="0" y="0" width="400" height="120" fill="#fff" rx="10"/>
          <text x="20" y="30" font-size="18" font-family="Arial" fill="#333">Image Processing</text>
          <text x="20" y="60" font-size="18" font-family="Arial" fill="#333">Techniques</text>
          <rect x="150" y="30" width="150" height="60" fill="#fff" rx="10"/>
          <text x="150" y="60" font-size="18" font-family="Arial" fill="#333">Gaussian Filter</text>
          <rect x="300" y="30" width="150" height="60" fill="#fff" rx="10"/>
          <text x="300" y="60" font-size="18" font-family="Arial" fill="#333">Rayleigh Noise Model</text>
          <animateTransform attributeName="transform" type="translate" from="0,0" to="0,120" dur="2s" begin="-0.5s"/>
        </section>
      </g>

      <g transform="translate(20, 960)">
        <section data-narration="5.2.4 Image Enhancement">
          <rect x="0" y="0" width="400" height="120" fill="#fff" rx="10"/>
          <text x="20" y="30" font-size="18" font-family="Arial" fill="#333">Image Enhancement</text>
          <text x="20" y="60" font-size="18" font-family="Arial" fill="#333">Techniques</text>
          <rect x="150" y="30" width="150" height="60" fill="#fff" rx="10"/>
          <text x="150" y="60" font-size="18" font-family="Arial" fill="#333">Gaussian Filter</text>
          <rect x="300" y="30" width="150" height="60" fill="#fff" rx="10"/>
          <text x="300" y="60" font-size="18" font-family="Arial" fill="#333">Rayleigh Noise Model</text>
          <animateTransform attributeName="transform" type="translate" from="0,0" to="0,120" dur="2s" begin="-0.5s"/>
        </section>
      </g>

      <g transform="translate(20, 1100)">
        <section data-narration="5.2.5 Image Denoising">
          <rect x="0" y="0" width="400" height="120" fill="#fff" rx="10"/>
          <text x="20" y="30" font-size="18" font-family="Arial" fill="#333">Image Denoising</text>
          <text x="20" y="60" font-size="18" font-family="Arial" fill="#333">Techniques</text>
          <rect x="150" y="30" width="150" height="60" fill="#fff" rx="10"/>
          <text x="150" y="60" font-size="18" font-family="Arial" fill="#333">Gaussian Filter</text>
          <rect x="300" y="30" width="150" height="60" fill="#fff" rx="10"/>
          <text x="300" y="60" font-size="18" font-family="Arial" fill="#333">Rayleigh Noise Model</text>
          <animateTransform attributeName="transform" type="translate" from="0,0" to="0,120" dur="2s" begin="-0.5s"/>
        </section>
      </g>

      <g transform="translate(20, 1280)">
        <section data-narration="5.2.6 Image Sharpening">
          <rect x="0" y="0" width="400" height="120" fill="#fff" rx="10"/>
          <text x="20" y="30" font-size="18" font-family="Arial" fill="#333">Image Sharpening</text>
          <text x="20" y="60" font-size="18" font-family="Arial" fill="#333">Techniques</text>
          <rect x="150" y="30" width="150" height="60" fill="#fff" rx="10"/>
          <text x="150" y="60" font-size="18" font-family="Arial" fill="#333">Gaussian Filter</text>
          <rect x="300" y="30" width="150" height="60" fill="#fff" rx="10"/>
          <text x="300" y="60" font-size="18" font-family="Arial" fill="#333">Rayleigh Noise Model</text>
          <animateTransform attributeName="transform" type="translate" from="0,0" to="0,120" dur="2s" begin="-0.5s"/>
        </section>
      </g>

      <g transform="translate(20, 1400)">
        <section data-narration="5.2.7 Image Restoration Algorithms">
          <rect x="0" y="0" width="400" height="120" fill="#fff" rx="10"/>
          <text x="20" y="30" font-size="18" font-family="Arial" fill="#333">Image Restoration Algorithms</text>
          <text x="20" y="60" font-size="18" font-family="Arial" fill="#333">Techniques</text>
          <rect x="150" y="30" width="150" height="60" fill="#fff" rx="10"/>
          <text x="150" y="60" font-size="18" font-family="Arial" fill="#333">Gaussian Filter</text>
          <rect x="300" y="30" width="150" height="60" fill="#fff" rx="10"/>
          <text x="300" y="60" font-size="18" font-family="Arial" fill="#333">Rayleigh Noise Model</text>
          <animateTransform attributeName="transform" type="translate" from="0,0" to="0,120" dur="2s" begin="-0.5s"/>
        </section>
      </g>

      <g transform="translate(20, 1600)">
        <section data-narration="5.2.8 Image Restoration Applications">
          <rect x="0" y="0" width="400" height="120" fill="#fff" rx="10"/>
          <text x="20" y="30" font-size="18" font-family="Arial" fill="#333">Image Restoration Applications</text>
          <text x="20" y="60" font-size="18" font-family="Arial" fill="#333">Techniques</text>
          <rect x="150" y="30" width="150" height="60" fill="#fff" rx="10"/>
          <text x="150" y="60" font-size="18" font-family="Arial" fill="#333">Gaussian Filter</text>
          <rect x="300" y="30" width="150" height="60" fill="#fff" rx="10"/>
          <text x="300" y="60" font-size="18" font-family="Arial" fill="#333">Rayleigh Noise Model</text>
          <animateTransform attributeName="transform" type="translate" from="0,0" to="0,120" dur="2s" begin="-0.5s"/>
        </section>
      </g>

      <footer>
        <g transform="translate(20, 1800)">
          <text x="20" y="1800" font-size="18" font-family="Arial" fill="#333">Copyright 2023</text>
        </g>
      </footer>
    </g>
  </svg>