<svg width="420" height="400" data-topic-id="big-data-analytics-what-is-big-data-analytics-class" xmlns="http://www.w3.org/2000/svg">
  <style>
    body {
      font-family: Arial, sans-serif;
    }
  </style>
  <g transform="translate(10, 10)">
    <rect fill="#ADD8E6" width="400" height="370" rx="10" />
    <linearGradient id="grad" x1="0%" y1="0%" x2="100%" y2="0%">
      <stop offset="0%" stop-color="#ADD8E6" />
      <stop offset="100%" stop-color="#C5E1F5" />
    </linearGradient>
    <rect fill="url(#grad)" width="400" height="370" rx="10" />
  </g>
  <g>
    <rect x="10" y="10" width="100" height="20" fill="#56B3FA" rx="5" />
    <text x="10" y="25" font-size="14" font-family="Arial" fill="#000">What is Big Data Analytics?</text>
  </g>
  <g data-narration="Definition of Big Data Analytics" transform="translate(120, 10)">
    <rect x="10" y="10" width="100" height="20" fill="#66CCCC" rx="5" />
    <text x="10" y="25" font-size="14" font-family="Arial" fill="#000">Big Data Analytics is the process of examining data sets that are very large and complex, in order to extract insights and knowledge.</text>
  </g>
  <g data-narration="Evolution of Big Data Analytics" transform="translate(120, 40)">
    <rect x="10" y="10" width="100" height="20" fill="#CCFF99" rx="5" />
    <text x="10" y="25" font-size="14" font-family="Arial" fill="#000">The evolution of Big Data Analytics can be described as follows:</text>
  </g>
  <g data-narration="1950s-1980s: Data analysis was a manual process that involved looking at small to moderate-sized datasets." transform="translate(120, 70)">
    <rect x="10" y="10" width="100" height="20" fill="#66FF00" rx="5" />
    <text x="10" y="25" font-size="14" font-family="Arial" fill="#000">1950s-1980s: Data analysis was a manual process that involved looking at small to moderate-sized datasets.</text>
  </g>
  <g data-narration="1990s-2000s: Data analysis became more automated with the introduction of statistical packages and data visualization tools." transform="translate(120, 100)">
    <rect x="10" y="10" width="100" height="20" fill="#FF99CC" rx="5" />
    <text x="10" y="25" font-size="14" font-family="Arial" fill="#000">1990s-2000s: Data analysis became more automated with the introduction of statistical packages and data visualization tools.</text>
  </g>
  <g data-narration="2010s: The rise of social media, mobile devices, and the Internet of Things (IoT) led to an explosion in data generation." transform="translate(120, 130)">
    <rect x="10" y="10" width="100" height="20" fill="#66FF00" rx="5" />
    <text x="10" y="25" font-size="14" font-family="Arial" fill="#000">2010s: The rise of social media, mobile devices, and the Internet of Things (IoT) led to an explosion in data generation.</text>
  </g>
  <g data-narration="Present Day: Big Data Analytics is a global phenomenon that involves analyzing large amounts of complex data from multiple sources." transform="translate(120, 160)">
    <rect x="10" y="10" width="100" height="20" fill="#66CCCC" rx="5" />
    <text x="10" y="25" font-size="14" font-family="Arial" fill="#000">Present Day: Big Data Analytics is a global phenomenon that involves analyzing large amounts of complex data from multiple sources.</text>
  </g>
  <g data-narration="Characteristics of Big Data Analytics" transform="translate(220, 10)">
    <rect x="10" y="10" width="100" height="20" fill="#66FF00" rx="5" />
    <text x="10" y="25" font-size="14" font-family="Arial" fill="#000">Characteristics of Big Data Analytics:</text>
  </g>
  <g data-narration="Volume: Large amounts of data." transform="translate(250, 40)">
    <rect x="10" y="10" width="100" height="20" fill="#FF99CC" rx="5" />
    <text x="10" y="25" font-size="14" font-family="Arial" fill="#000">Volume: Large amounts of data.</text>
  </g>
  <g data-narration="Velocity: Data is generated rapidly." transform="translate(250, 70)">
    <rect x="10" y="10" width="100" height="20" fill="#66FF00" rx="5" />
    <text x="10" y="25" font-size="14" font-family="Arial" fill="#000">Velocity: Data is generated rapidly.</text>
  </g>
  <g data-narration="Variety: Data comes from multiple sources." transform="translate(250, 100)">
    <rect x="10" y="10" width="100" height="20" fill="#66CCCC" rx="5" />
    <text x="10" y="25" font-size="14" font-family="Arial" fill="#000">Variety: Data comes from multiple sources.</text>
  </g>
  <g data-narration="Veracity: Data may be noisy or inaccurate." transform="translate(250, 130)">
    <rect x="10" y="10" width="100" height="20" fill="#FF99CC" rx="5" />
    <text x="10" y="25" font-size="14" font-family="Arial" fill="#000">Veracity: Data may be noisy or inaccurate.</text>
  </g>
  <g data-narration="Value: Insights and knowledge can be extracted from the data." transform="translate(250, 160)">
    <rect x="10" y="10" width="100" height="20" fill="#66FF00" rx="5" />
    <text x="10" y="25" font-size="14" font-family="Arial" fill="#000">Value: Insights and knowledge can be extracted from the data.</text>
  </g>
  <g data-narration="Example of Big Data Analytics" transform="translate(220, 20)">
    <rect x="10" y="10" width="100" height="20" fill="#56B3FA" rx="5" />
    <text x="10" y="25" font-size="14" font-family="Arial" fill="#000">Example of Big Data Analytics:</text>
  </g>
  <g data-narration="Example 1: A retailer uses Big Data Analytics to analyze customer purchase behavior, find trends, and optimize marketing strategies." transform="translate(220, 50)">
    <rect x="10" y="10" width="100" height="20" fill="#66CCCC" rx="5" />
    <text x="10" y="25" font-size="14" font-family="Arial" fill="#000">Example 1: A retailer uses Big Data Analytics to analyze customer purchase behavior, find trends, and optimize marketing strategies.</text>
  </g>
  <g data-narration="Example 2: A healthcare organization uses Big Data Analytics to analyze medical records, identify patterns, and improve patient outcomes." transform="translate(220, 90)">
    <rect x="10" y="10" width="100" height="20" fill="#CCFF99" rx="5" />
    <text x="10" y="25" font-size="14" font-family="Arial" fill="#000">Example 2: A healthcare organization uses Big Data Analytics to analyze medical records, identify patterns, and improve patient outcomes.</text>
  </g>
  <g data-narration="Classification of Analytics" transform="translate(220, 130)">
    <rect x="10" y="10" width="100" height="20" fill="#56B3FA" rx="5" />
    <text x="10" y="25" font-size="14" font-family="Arial" fill="#000">Classification of Analytics:</text>
  </g>
  <g data-narration="Descriptive Analytics: Involves analyzing historical data to understand what happened." transform="translate(250, 160)">
    <rect x="10" y="10" width="100" height="20" fill="#66FF00" rx="5" />
    <text x="10" y="25" font-size="14" font-family="Arial" fill="#000">Descriptive Analytics: Involves analyzing historical data to understand what happened.</text>
  </g>
  <g data-narration="Diagnostic Analytics: Involves analyzing data to identify trends and patterns." transform="translate(250, 190)">
    <rect x="10" y="10" width="100" height="20" fill="#CCFF99" rx="5" />
    <text x="10" y="25" font-size="14" font-family="Arial" fill="#000">Diagnostic Analytics: Involves analyzing data to identify trends and patterns.</text>
  </g>
  <g data-narration="Predictive Analytics: Involves analyzing data to predict future events." transform="translate(250, 220)">
    <rect x="10" y="10" width="100" height="20" fill="#FF99CC" rx="5" />
    <text x="10" y="25" font-size="14" font-family="Arial" fill="#000">Predictive Analytics: Involves analyzing data to predict future events.</text>
  </g>
  <g data-narration="Arrow markers for connections" transform="translate(10, 370)">
    <rect x="10" y="10" width="400" height="20" fill="#56B3FA" rx="5" />
    <text x="10" y="25" font-size="14" font-family="Arial" fill="#000">Arrow markers for connections</text>
  </g>
  <g data-narration="Title" transform="translate(10, 10)">
    <rect x="10" y="10" width="400" height="20" fill="#56B3FA" rx="5" />
    <text x="10" y="25" font-size="24" font-family="Arial" fill="#000">Big Data Analytics: What is Big Data Analytics?</text>
  </g>
  <g data-narration="Footer" transform="translate(10, 380)">
    <rect x="10" y="10" width="400" height="20" fill="#56B3FA" rx="5" />
    <text x="10" y="25" font-size="14" font-family="Arial" fill="#000">Data Topic ID: big-data-analytics-what-is-big-data-analytics-class</text>
  </g>
  <animate xmlns="http://www.w3.org/2000/svg" dur="10s" repeatCount="indefinite">
    <animateTransform attributeName="transform" type="translate" from="0 0" to="420 0" />
  </animate>
</svg>