<svg width="420" height="400" data-topic-id="interprocess-communication-multi-threaded-programming">
  <defs>
    <linearGradient id="gradient" x1="0%" y1="0%" x2="100%" y2="0%">
      <stop offset="0%" stop-color="#66CCCC" stop-opacity="1"/>
      <stop offset="100%" stop-color="#33CCCC" stop-opacity="1"/>
    </linearGradient>
  </defs>
  <rect fill="url(#gradient)" width="100%" height="100%"/>
  <title>Interprocess Communication Multi-threaded Programming</title>
  <g transform="translate(10, 20)">
    <rect width="200" height="50" fill="#FFFFFF" rx="5" data-narration="Definition of Interprocess Communication"/>
    <text x="10" y="20" font-size="18" font-family="Arial" fill="#000000">Definition of Interprocess Communication</text>
    <rect width="200" height="50" fill="#FFFFFF" rx="5" data-narration="Types of Interprocess Communication"/>
    <text x="10" y="70" font-size="18" font-family="Arial" fill="#000000">Types of Interprocess Communication</text>
    <rect width="200" height="50" fill="#FFFFFF" rx="5" data-narration="Advantages of Interprocess Communication"/>
    <text x="10" y="120" font-size="18" font-family="Arial" fill="#000000">Advantages of Interprocess Communication</text>
    <rect width="200" height="50" fill="#FFFFFF" rx="5" data-narration="Disadvantages of Interprocess Communication"/>
    <text x="10" y="170" font-size="18" font-family="Arial" fill="#000000">Disadvantages of Interprocess Communication</text>
    <rect width="200" height="50" fill="#FFFFFF" rx="5" data-narration="Key Concepts in Interprocess Communication"/>
    <text x="10" y="220" font-size="18" font-family="Arial" fill="#000000">Key Concepts in Interprocess Communication</text>
    <rect width="200" height="50" fill="#FFFFFF" rx="5" data-narration="Example of Interprocess Communication"/>
    <text x="10" y="270" font-size="18" font-family="Arial" fill="#000000">Example of Interprocess Communication</text>
    <rect width="200" height="50" fill="#FFFFFF" rx="5" data-narration="Multi-threaded Programming Overview"/>
    <text x="10" y="320" font-size="18" font-family="Arial" fill="#000000">Multi-threaded Programming Overview</text>
    <g transform="translate(50, 350)">
      <rect width="100" height="20" fill="#FF9900" rx="5" data-narration="Benefits of Multi-threaded Programming"/>
      <text x="10" y="350" font-size="18" font-family="Arial" fill="#000000">Benefits of Multi-threaded Programming</text>
      <rect width="100" height="20" fill="#FF9900" rx="5" data-narration="Challenges of Multi-threaded Programming"/>
      <text x="10" y="400" font-size="18" font-family="Arial" fill="#000000">Challenges of Multi-threaded Programming</text>
    </g>
    <path d="M 50, 100 L 300, 100 L 300, 200 L 50, 200 Z" fill="#33CCCC" stroke="#000000" stroke-width="2"/>
    <path d="M 150, 150 L 250, 150 L 250, 250 L 150, 250 Z" fill="#66CCCC" stroke="#000000" stroke-width="2"/>
    <path d="M 200, 100 L 200, 200 L 300, 100 Z" fill="#33CCCC" stroke="#000000" stroke-width="2"/>
    <path d="M 200, 150 L 200, 250 L 300, 150 Z" fill="#66CCCC" stroke="#000000" stroke-width="2"/>
    <g transform="translate(10, 100)">
      <line x1="20" y1="120" x2="180" y2="120" stroke="#000000" stroke-width="2"/>
      <line x1="20" y1="120" x2="20" y2="120" stroke="#000000" stroke-width="2"/>
      <line x1="180" y1="120" x2="180" y2="120" stroke="#000000" stroke-width="2"/>
      <text x="10" y="100" font-size="18" font-family="Arial" fill="#000000">Interprocess Communication</text>
      <text x="10" y="150" font-size="18" font-family="Arial" fill="#000000">Multi-threaded Programming</text>
      <text x="10" y="200" font-size="18" font-family="Arial" fill="#000000">Benefits</text>
    </g>
    <g transform="translate(10, 250)">
      <line x1="20" y1="270" x2="180" y2="270" stroke="#000000" stroke-width="2"/>
      <line x1="20" y1="270" x2="20" y2="270" stroke="#000000" stroke-width="2"/>
      <line x1="180" y1="270" x2="180" y2="270" stroke="#000000" stroke-width="2"/>
      <text x="10" y="250" font-size="18" font-family="Arial" fill="#000000">Challenges</text>
      <text x="10" y="290" font-size="18" font-family="Arial" fill="#000000">Benefits</text>
    </g>
  </g>
  <footer>Footer</footer>
</svg>