<svg width="420" height="400" data-topic-id="4-1-Process-Management">
  <desc>Chapter 4: 4.1 Process Management</desc>
  <title>Process Management</title>
  <footer>Chapter 4: 4.1 Process Management</footer>
  <g id="root">
    <rect x="0" y="0" width="420" height="400" fill="#66CCCC" rx="10"/>
    <linearGradient id="grad" x1="0%" y1="0%" x2="100%" y2="100%">
      <stop offset="0%" stop-color="#ADD8E6"/>
      <stop offset="100%" stop-color="#66CCCC"/>
    </linearGradient>
    <rect x="0" y="0" width="420" height="400" fill="url(#grad)"/>
    <g transform="translate(10, 10)">
      <rect x="0" y="0" width="300" height="50" fill="#FFFFFF" rx="5"/>
      <text x="10" y="20" font-size="18" font-family="Arial" fill="#2F4F7F">Process Concept</text>
      <rect x="0" y="60" width="300" height="100" fill="#FFFFFF" rx="5"/>
      <text x="10" y="80" font-size="18" font-family="Arial" fill="#2F4F7F" data-narration="A process is the basic execution unit of an operating system. It is a program in execution, running on a particular CPU, and executing a specific sequence of instructions. A process has its own memory space, CPU time, and system resources."
        id="text-1"
        x="10"
        y="80"
        text-anchor="start"
        fill="#2F4F7F"
        font-size="18"
        font-family="Arial"/>
      <rect x="0" y="200" width="300" height="50" fill="#FFFFFF" rx="5"/>
      <text x="10" y="220" font-size="18" font-family="Arial" fill="#2F4F7F" data-narration="Characteristics of Processes"
        id="text-2"
        x="10"
        y="220"
        text-anchor="start"
        fill="#2F4F7F"
        font-size="18"
        font-family="Arial"/>
      <rect x="0" y="270" width="300" height="50" fill="#FFFFFF" rx="5"/>
      <text x="10" y="290" font-size="18" font-family="Arial" fill="#2F4F7F" data-narration="Types of Processes
        id="text-3"
        x="10"
        y="290"
        text-anchor="start"
        fill="#2F4F7F"
        font-size="18"
        font-family="Arial"/>
      <rect x="0" y="340" width="300" height="50" fill="#FFFFFF" rx="5"/>
      <text x="10" y="360" font-size="18" font-family="Arial" fill="#2F4F7F" data-narration="Process Scheduling
        id="text-4"
        x="10"
        y="360"
        text-anchor="start"
        fill="#2F4F7F"
        font-size="18"
        font-family="Arial"/>
      <rect x="0" y="410" width="300" height="50" fill="#FFFFFF" rx="5"/>
      <text x="10" y="430" font-size="18" font-family="Arial" fill="#2F4F7F" data-narration="Process Scheduling Algorithms
        id="text-5"
        x="10"
        y="430"
        text-anchor="start"
        fill="#2F4F7F"
        font-size="18"
        font-family="Arial"/>
      <rect x="0" y="480" width="300" height="50" fill="#FFFFFF" rx="5"/>
      <text x="10" y="500" font-size="18" font-family="Arial" fill="#2F4F7F" data-narration="Operations on Processes
        id="text-6"
        x="10"
        y="500"
        text-anchor="start"
        fill="#2F4F7F"
        font-size="18"
        font-family="Arial"/>
      <path d="M 50 250 L 350 250" stroke="#33CCFF" stroke-width="2" fill="none" id="line-1"/>
      <path d="M 50 270 L 350 270" stroke="#33CCFF" stroke-width="2" fill="none" id="line-2"/>
      <path d="M 50 300 L 350 300" stroke="#33CCFF" stroke-width="2" fill="none" id="line-3"/>
      <path d="M 50 330 L 350 330" stroke="#33CCFF" stroke-width="2" fill="none" id="line-4"/>
      <path d="M 50 350 L 350 350" stroke="#33CCFF" stroke-width="2" fill="none" id="line-5"/>
      <animateTransform attributeName="transform" type="translate" from="0,0" to="420,0" begin="0s" dur="2s" repeatCount="indefinite"/>
    </g>
  </g>
</svg>