<svg width="420" height="400" data-topic-id="apply-the-foil-algorithm-first-order-inductive-lea" xmlns="http://www.w3.org/2000/svg" xmlns:xlink="http://www.w3.org/1999/xlink" viewBox="0 0 420 400">
  <defs>
    <style>
      .gradient {
        clip-path: polygon(50% 0%, 100% 0%, 100% 100%, 50% 100%, 0% 100%, 0% 0%);
        background: linear-gradient(to bottom, #66CCCC, #33CCFF, #0CC7F2, #0097F8, #0099FF);
      }
    </style>
  </defs>
  <rect x="0" y="0" width="100%" height="100%" class="gradient" />
  <g transform="translate(20, 20)">
    <text class="title" x="10" y="10" text-anchor="middle" font-size="24">Apply the FOIL Algorithm</text>
    <rect x="10" y="50" width="300" height="50" class="section" data-narration="Introduction">
      <animate attributeName="opacity" from="1" to="0" dur="1500" begin="200" repeatCount="indefinite" />
    </rect>
    <rect x="10" y="120" width="300" height="50" class="section" data-narration="What is FOIL?">
      <animate attributeName="opacity" from="1" to="0" dur="1500" begin="400" repeatCount="indefinite" />
    </rect>
    <rect x="10" y="190" width="300" height="50" class="section" data-narration="How FOIL Works">
      <animate attributeName="opacity" from="1" to="0" dur="1500" begin="600" repeatCount="indefinite" />
    </rect>
    <rect x="10" y="260" width="300" height="50" class="section" data-narration="Key Concepts">
      <animate attributeName="opacity" from="1" to="0" dur="1500" begin="800" repeatCount="indefinite" />
    </rect>
    <rect x="10" y="330" width="300" height="50" class="section" data-narration="Example">
      <animate attributeName="opacity" from="1" to="0" dur="1500" begin="1000" repeatCount="indefinite" />
    </rect>
    <rect x="10" y="400" width="300" height="50" class="footer">
      <text x="10" y="410" text-anchor="middle" font-size="18">Additional Resources:</text>
    </rect>
    <line x1="10" y1="420" x2="130" y2="420" style="stroke:indigo; stroke-width:2" />
    <line x1="160" y1="420" x2="290" y2="420" style="stroke:teal; stroke-width:2" />
    <line x1="10" y1="380" x2="10" y2="420" style="stroke:orange; stroke-width:2" />
    <line x1="130" y1="380" x2="130" y2="420" style="stroke:orange; stroke-width:2" />
    <line x1="160" y1="380" x2="290" y2="420" style="stroke:orange; stroke-width:2" />
    <line x1="10" y1="350" x2="10" y2="380" style="stroke:indigo; stroke-width:2" />
    <line x1="130" y1="350" x2="130" y2="380" style="stroke:indigo; stroke-width:2" />
    <line x1="160" y1="350" x2="290" y2="380" style="stroke:indigo; stroke-width:2" />
    <line x1="10" y1="320" x2="160" y2="350" style="stroke:teal; stroke-width:2" />
    <line x1="130" y1="320" x2="290" y2="350" style="stroke:teal; stroke-width:2" />
    <line x1="10" y1="290" x2="130" y2="320" style="stroke:orange; stroke-width:2" />
    <line x1="130" y1="290" x2="290" y2="320" style="stroke:orange; stroke-width:2" />
    <line x1="160" y1="290" x2="290" y2="320" style="stroke:orange; stroke-width:2" />
    <line x1="10" y1="260" x2="10" y2="290" style="stroke:indigo; stroke-width:2" />
    <line x1="130" y1="260" x2="130" y2="290" style="stroke:indigo; stroke-width:2" />
    <line x1="160" y1="260" x2="290" y2="290" style="stroke:indigo; stroke-width:2" />
    <line x1="10" y1="230" x2="160" y2="260" style="stroke:teal; stroke-width:2" />
    <line x1="130" y1="230" x2="290" y2="260" style="stroke:teal; stroke-width:2" />
    <line x1="10" y1="200" x2="130" y2="230" style="stroke:orange; stroke-width:2" />
    <line x1="130" y1="200" x2="290" y2="230" style="stroke:orange; stroke-width:2" />
    <line x1="160" y1="200" x2="290" y2="230" style="stroke:orange; stroke-width:2" />
    <line x1="10" y1="170" x2="10" y2="200" style="stroke:indigo; stroke-width:2" />
    <line x1="130" y1="170" x2="130" y2="200" style="stroke:indigo; stroke-width:2" />
    <line x1="160" y1="170" x2="290" y2="200" style="stroke:indigo; stroke-width:2" />
    <line x1="10" y1="140" x2="160" y2="170" style="stroke:teal; stroke-width:2" />
    <line x1="130" y1="140" x2="290" y2="170" style="stroke:teal; stroke-width:2" />
    <line x1="10" y1="110" x2="130" y2="140" style="stroke:orange; stroke-width:2" />
    <line x1="130" y1="110" x2="290" y2="140" style="stroke:orange; stroke-width:2" />
    <line x1="160" y1="110" x2="290" y2="140" style="stroke:orange; stroke-width:2" />
    <rect x="10" y="100" width="300" height="50" class="section" data-narration="Attributes and Values">
      <animate attributeName="opacity" from="1" to="0" dur="1500" begin="1200" repeatCount="indefinite" />
    </rect>
    <rect x="10" y="170" width="300" height="50" class="section" data-narration="Decision Trees">
      <animate attributeName="opacity" from="1" to="0" dur="1500" begin="1500" repeatCount="indefinite" />
    </rect>
    <rect x="10" y="240" width="300" height="50" class="section" data-narration="Rule Pruning">
      <animate attributeName="opacity" from="1" to="0" dur="1500" begin="1800" repeatCount="indefinite" />
    </rect>
    <rect x="10" y="310" width="300" height="50" class="section" data-narration="Rule Validation">
      <animate attributeName="opacity" from="1" to="0" dur="1500" begin="2100" repeatCount="indefinite" />
    </rect>
    <rect x="10" y="380" width="300" height="50" class="footer">
      <text x="10" y="390" text-anchor="middle" font-size="18">Additional Resources:</text>
    </rect>
  </g>
</svg>