<svg xmlns="http://www.w3.org/2000/svg" viewBox="0 0 800 1700">
  <defs>
    <!-- Gradients -->
    <linearGradient id="blueGrad" x1="0%" y1="0%" x2="100%" y2="100%">
      <stop offset="0%" style="stop-color:#e3f2fd"/>
      <stop offset="100%" style="stop-color:#bbdefb"/>
    </linearGradient>
    <linearGradient id="greenGrad" x1="0%" y1="0%" x2="100%" y2="100%">
      <stop offset="0%" style="stop-color:#e8f5e9"/>
      <stop offset="100%" style="stop-color:#c8e6c9"/>
    </linearGradient>
    <linearGradient id="orangeGrad" x1="0%" y1="0%" x2="100%" y2="100%">
      <stop offset="0%" style="stop-color:#fff3e0"/>
      <stop offset="100%" style="stop-color:#ffe0b2"/>
    </linearGradient>
    <linearGradient id="purpleGrad" x1="0%" y1="0%" x2="100%" y2="100%">
      <stop offset="0%" style="stop-color:#f3e5f5"/>
      <stop offset="100%" style="stop-color:#e1bee7"/>
    </linearGradient>
    <linearGradient id="redGrad" x1="0%" y1="0%" x2="100%" y2="100%">
      <stop offset="0%" style="stop-color:#ffebee"/>
      <stop offset="100%" style="stop-color:#ffcdd2"/>
    </linearGradient>
    <linearGradient id="titleGrad" x1="0%" y1="0%" x2="100%" y2="0%">
      <stop offset="0%" style="stop-color:#1976d2"/>
      <stop offset="100%" style="stop-color:#1565c0"/>
    </linearGradient>
    
    <!-- Shadow filter -->
    <filter id="shadow" x="-20%" y="-20%" width="140%" height="140%">
      <feDropShadow dx="2" dy="2" stdDeviation="3" flood-opacity="0.2"/>
    </filter>
    
    <!-- Arrow marker -->
    <marker id="arrowBlue" markerWidth="10" markerHeight="10" refX="9" refY="3" orient="auto">
      <path d="M0,0 L0,6 L9,3 z" fill="#1976d2"/>
    </marker>
  </defs>
  
  <style>
    @keyframes fadeInSlide {
      from { opacity: 0; transform: translateY(20px); }
      to { opacity: 1; transform: translateY(0); }
    }
    @keyframes scaleIn {
      from { opacity: 0; transform: scale(0.85); }
      to { opacity: 1; transform: scale(1); }
    }
    @keyframes textReveal {
      from { opacity: 0; transform: translateX(-10px); }
      to { opacity: 1; transform: translateX(0); }
    }
    @keyframes pulse {
      0%, 100% { transform: scale(1); }
      50% { transform: scale(1.03); }
    }
    @keyframes drawLine {
      from { stroke-dashoffset: 300; }
      to { stroke-dashoffset: 0; }
    }
    @keyframes fillIn {
      from { opacity: 0; }
      to { opacity: 1; }
    }
    .step { animation: fadeInSlide 0.6s ease-out; }
    .step rect {
      animation: scaleIn 0.5s cubic-bezier(0.34, 1.56, 0.64, 1);
      transform-origin: center;
    }
    .step text { animation: textReveal 0.4s ease-out 0.2s backwards; }
    .title-text { font-size: 22px; font-weight: bold; fill: white; }
    .subtitle-text { font-size: 14px; fill: #666; }
    .body-text { font-size: 11px; fill: #333; }
    .label-text { font-size: 10px; fill: #555; }
    .formula-text { font-size: 12px; fill: #1976d2; font-family: monospace; }
    .highlight { fill: #f44336; font-weight: bold; }
    .cell { stroke: #fff; stroke-width: 1; }
    .grid-line { stroke: #ddd; stroke-width: 1; }
    .title-box { fill: url(#titleGrad); }
    .content-box-blue { fill: url(#blueGrad); }
    .content-box-green { fill: url(#greenGrad); }
    .content-box-orange { fill: url(#orangeGrad); }
    .content-box-purple { fill: url(#purpleGrad); }
    .content-box-red { fill: url(#redGrad); }
  </style>

  <!-- Background -->
  <rect width="800" height="1700" fill="#f8f9fa"/>

  <!-- SECTION 1: INTRODUCTION -->
  
  <!-- Step 0: Title -->
  <g class="step" id="step0" data-narration="Welcome to Latin-Square Design, a powerful experimental design that controls two nuisance variables simultaneously.">
    <rect x="10" y="10" width="780" height="50" rx="10" class="title-box" filter="url(#shadow)"/>
    <text x="400" y="42" text-anchor="middle" class="title-text">Latin-Square Design</text>
    <text x="400" y="55" text-anchor="middle" class="subtitle-text">BCS301 Mathematics for Computer Science</text>
  </g>

  <!-- Step 1: Definition -->
  <g class="step" id="step1" data-narration="A Latin-square design arranges treatments in a square grid where each treatment appears exactly once in each row and column.">
    <rect x="10" y="70" width="780" height="85" rx="8" class="content-box-blue" filter="url(#shadow)"/>
    <text x="25" y="90" font-size="12" font-weight="bold" fill="#1976d2">What is Latin-Square Design?</text>
    <text x="25" y="108" font-size="11" fill="#333">A special experimental design that controls for TWO sources of extraneous variation</text>
    <text x="25" y="125" font-size="11" fill="#333">(nuisance variables) while testing the effect of a single treatment factor.</text>
    <rect x="450" y="85" width="320" height="55" rx="5" fill="#fff" stroke="#1976d2" stroke-width="2"/>
    <text x="610" y="108" text-anchor="middle" font-size="10" fill="#1976d2">Key Properties:</text>
    <text x="610" y="125" text-anchor="middle" font-size="10" fill="#333">p × p grid with p treatments</text>
    <text x="610" y="137" text-anchor="middle" font-size="10" fill="#333">Each treatment appears once per row and column</text>
  </g>

  <!-- Step 2: When to Use -->
  <g class="step" id="step2" data-narration="Use Latin-Square Design when you have exactly three factors at equal levels and want to control two blocking variables.">
    <rect x="10" y="165" width="780" height="85" rx="8" class="content-box-green" filter="url(#shadow)"/>
    <text x="25" y="185" font-size="12" font-weight="bold" fill="#388e3c">When to Use Latin-Square Design</text>
    <circle cx="50" cy="215" r="4" fill="#388e3c"/>
    <text x="65" y="219" font-size="10" fill="#333">Two nuisance factors (blocking variables) affect the response</text>
    <circle cx="50" cy="235" r="4" fill="#388e3c"/>
    <text x="65" y="239" font-size="10" fill="#333">Number of treatment levels equals number of blocking factor levels</text>
    <circle cx="50" cy="255" r="4" fill="#388e3c"/>
    <text x="65" y="259" font-size="10" fill="#333">Example: Testing 4 fertilizers, controlling for field location (rows) and time (columns)</text>
    <!-- Visual example icon -->
    <rect x="600" y="195" width="170" height="40" rx="5" fill="#fff" stroke="#388e3c"/>
    <text x="685" y="215" text-anchor="middle" font-size="9" fill="#333">p × p = Rows × Columns</text>
    <text x="685" y="230" text-anchor="middle" font-size="9" fill="#333">= Treatments</text>
  </g>

  <!-- SECTION 2: DEEP DIVE -->

  <!-- Step 3: Layout Construction 4x4 -->
  <g class="step" id="step3" data-narration="Here's a 4×4 Latin Square example. Notice how treatment A appears exactly once in each row and column.">
    <rect x="10" y="260" width="780" height="95" rx="8" class="content-box-orange" filter="url(#shadow)"/>
    <text x="25" y="280" font-size="12" font-weight="bold" fill="#f57c00">Layout Construction: 4 × 4 Latin Square</text>
    <!-- Grid -->
    <g transform="translate(30, 295)">
      <!-- Header -->
      <text x="35" y="0" font-size="8" text-anchor="middle" fill="#666">C1</text>
      <text x="70" y="0" font-size="8" text-anchor="middle" fill="#666">C2</text>
      <text x="105" y="0" font-size="8" text-anchor="middle" fill="#666">C3</text>
      <text x="140" y="0" font-size="8" text-anchor="middle" fill="#666">C4</text>
      <!-- Row 1 -->
      <text x="0" y="20" font-size="8" fill="#666">R1</text>
      <rect x="25" y="10" width="30" height="20" fill="#e3f2fd" class="cell"/>
      <text x="40" y="24" text-anchor="middle" font-size="10" fill="#1976d2" font-weight="bold">A</text>
      <rect x="60" y="10" width="30" height="20" fill="#e8f5e9" class="cell"/>
      <text x="75" y="24" text-anchor="middle" font-size="10" fill="#388e3c" font-weight="bold">B</text>
      <rect x="95" y="10" width="30" height="20" fill="#fff3e0" class="cell"/>
      <text x="110" y="24" text-anchor="middle" font-size="10" fill="#f57c00" font-weight="bold">C</text>
      <rect x="130" y="10" width="30" height="20" fill="#fce4ec" class="cell"/>
      <text x="145" y="24" text-anchor="middle" font-size="10" fill="#e91e63" font-weight="bold">D</text>
      <!-- Row 2 -->
      <text x="0" y="45" font-size="8" fill="#666">R2</text>
      <rect x="25" y="35" width="30" height="20" fill="#e8f5e9" class="cell"/>
      <text x="40" y="49" text-anchor="middle" font-size="10" fill="#388e3c" font-weight="bold">B</text>
      <rect x="60" y="35" width="30" height="20" fill="#fff3e0" class="cell"/>
      <text x="75" y="49" text-anchor="middle" font-size="10" fill="#f57c00" font-weight="bold">C</text>
      <rect x="95" y="35" width="30" height="20" fill="#fce4ec" class="cell"/>
      <text x="110" y="49" text-anchor="middle" font-size="10" fill="#e91e63" font-weight="bold">D</text>
      <rect x="130" y="35" width="30" height="20" fill="#e3f2fd" class="cell"/>
      <text x="145" y="49" text-anchor="middle" font-size="10" fill="#1976d2" font-weight="bold">A</text>
      <!-- Row 3 -->
      <text x="0" y="70" font-size="8" fill="#666">R3</text>
      <rect x="25" y="60" width="30" height="20" fill="#fff3e0" class="cell"/>
      <text x="40" y="74" text-anchor="middle" font-size="10" fill="#f57c00" font-weight="bold">C</text>
      <rect x="60" y="60" width="30" height="20" fill="#fce4ec" class="cell"/>
      <text x="75" y="74" text-anchor="middle" font-size="10" fill="#e91e63" font-weight="bold">D</text>
      <rect x="95" y="60" width="30" height="20" fill="#e3f2fd" class="cell"/>
      <text x="110" y="74" text-anchor="middle" font-size="10" fill="#1976d2" font-weight="bold">A</text>
      <rect x="130" y="60" width="30" height="20" fill="#e8f5e9" class="cell"/>
      <text x="145" y="74" text-anchor="middle" font-size="10" fill="#388e3c" font-weight="bold">B</text>
      <!-- Row 4 -->
      <text x="0" y="95" font-size="8" fill="#666">R4</text>
      <rect x="25" y="85" width="30" height="20" fill="#fce4ec" class="cell"/>
      <text x="40" y="99" text-anchor="middle" font-size="10" fill="#e91e63" font-weight="bold">D</text>
      <rect x="60" y="85" width="30" height="20" fill="#e3f2fd" class="cell"/>
      <text x="75" y="99" text-anchor="middle" font-size="10" fill="#1976d2" font-weight="bold">A</text>
      <rect x="95" y="85" width="30" height="20" fill="#e8f5e9" class="cell"/>
      <text x="110" y="99" text-anchor="middle" font-size="10" fill="#388e3c" font-weight="bold">B</text>
      <rect x="130" y="85" width="30" height="20" fill="#fff3e0" class="cell"/>
      <text x="145" y="99" text-anchor="middle" font-size="10" fill="#f57c00" font-weight="bold">C</text>
    </g>
    <!-- Explanation -->
    <text x="230" y="310" font-size="10" fill="#333">Each row has A,B,C,D exactly once</text>
    <text x="230" y="328" font-size="10" fill="#333">Each column has A,B,C,D exactly once</text>
    <text x="230" y="346" font-size="10" fill="#f57c00" font-weight="bold">This balance removes row and column effects!</text>
  </g>

  <!-- Step 4: 3x3 Example -->
  <g class="step" id="step4" data-narration="A 3×3 Latin Square follows the same principle. The cyclic pattern A→B→C, B→C→A, C→A→B creates the balance.">
    <rect x="10" y="365" width="780" height="75" rx="8" class="content-box-purple" filter="url(#shadow)"/>
    <text x="25" y="385" font-size="12" font-weight="bold" fill="#7b1fa2">Layout Construction: 3 × 3 Latin Square</text>
    <!-- 3x3 Grid -->
    <g transform="translate(30, 400)">
      <text x="20" y="0" font-size="8" text-anchor="middle" fill="#666">C1</text>
      <text x="50" y="0" font-size="8" text-anchor="middle" fill="#666">C2</text>
      <text x="80" y="0" font-size="8" text-anchor="middle" fill="#666">C3</text>
      <!-- Row 1 -->
      <text x="0" y="18" font-size="8" fill="#666">R1</text>
      <rect x="15" y="8" width="25" height="18" fill="#e3f2fd" class="cell"/>
      <text x="27" y="20" text-anchor="middle" font-size="9" fill="#1976d2" font-weight="bold">A</text>
      <rect x="42" y="8" width="25" height="18" fill="#e8f5e9" class="cell"/>
      <text x="54" y="20" text-anchor="middle" font-size="9" fill="#388e3c" font-weight="bold">B</text>
      <rect x="69" y="8" width="25" height="18" fill="#fff3e0" class="cell"/>
      <text x="81" y="20" text-anchor="middle" font-size="9" fill="#f57c00" font-weight="bold">C</text>
      <!-- Row 2 -->
      <text x="0" y="40" font-size="8" fill="#666">R2</text>
      <rect x="15" y="30" width="25" height="18" fill="#e8f5e9" class="cell"/>
      <text x="27" y="42" text-anchor="middle" font-size="9" fill="#388e3c" font-weight="bold">B</text>
      <rect x="42" y="30" width="25" height="18" fill="#fff3e0" class="cell"/>
      <text x="54" y="42" text-anchor="middle" font-size="9" fill="#f57c00" font-weight="bold">C</text>
      <rect x="69" y="30" width="25" height="18" fill="#e3f2fd" class="cell"/>
      <text x="81" y="42" text-anchor="middle" font-size="9" fill="#1976d2" font-weight="bold">A</text>
      <!-- Row 3 -->
      <text x="0" y="62" font-size="8" fill="#666">R3</text>
      <rect x="15" y="52" width="25" height="18" fill="#fff3e0" class="cell"/>
      <text x="27" y="64" text-anchor="middle" font-size="9" fill="#f57c00" font-weight="bold">C</text>
      <rect x="42" y="52" width="25" height="18" fill="#e3f2fd" class="cell"/>
      <text x="54" y="64" text-anchor="middle" font-size="9" fill="#1976d2" font-weight="bold">A</text>
      <rect x="69" y="52" width="25" height="18" fill="#e8f5e9" class="cell"/>
      <text x="81" y="64" text-anchor="middle" font-size="9" fill="#388e3c" font-weight="bold">B</text>
    </g>
    <text x="150" y="415" font-size="10" fill="#333">Pattern: Each treatment shifts one position to the right in each successive row.</text>
  </g>

  <!-- Step 5: Statistical Model -->
  <g class="step" id="step5" data-narration="The statistical model decomposes each observation into overall mean, row effect, column effect, treatment effect, and error.">
    <rect x="10" y="450" width="780" height="85" rx="8" class="content-box-blue" filter="url(#shadow)"/>
    <text x="25" y="470" font-size="12" font-weight="bold" fill="#1976d2">Statistical Model</text>
    <text x="25" y="495" font-size="11" fill="#333">x<tspan baseline-shift="sub" font-size="8">ij(k)</tspan> = μ + α<tspan baseline-shift="sub" font-size="8">i</tspan> + β<tspan baseline-shift="sub" font-size="8">j</tspan> + τ<tspan baseline-shift="sub" font-size="8">k</tspan> + e<tspan baseline-shift="sub" font-size="8">ij(k)</tspan></text>
    <!-- Model components -->
    <rect x="25" y="505" width="140" height="20" rx="3" fill="#e3f2fd"/>
    <text x="95" y="519" text-anchor="middle" font-size="9" fill="#1976d2">μ = overall mean</text>
    <rect x="175" y="505" width="120" height="20" rx="3" fill="#e8f5e9"/>
    <text x="235" y="519" text-anchor="middle" font-size="9" fill="#388e3c">α<tspan baseline-shift="sub" font-size="7">i</tspan> = row effect</text>
    <rect x="305" y="505" width="140" height="20" rx="3" fill="#fff3e0"/>
    <text x="375" y="519" text-anchor="middle" font-size="9" fill="#f57c00">β<tspan baseline-shift="sub" font-size="7">j</tspan> = column effect</text>
    <rect x="455" y="505" width="150" height="20" rx="3" fill="#fce4ec"/>
    <text x="530" y="519" text-anchor="middle" font-size="9" fill="#e91e63">τ<tspan baseline-shift="sub" font-size="7">k</tspan> = treatment effect</text>
    <rect x="615" y="505" width="155" height="20" rx="3" fill="#f3e5f5"/>
    <text x="692" y="519" text-anchor="middle" font-size="9" fill="#9c27b0">e<tspan baseline-shift="sub" font-size="7">ij(k)</tspan> = random error</text>
  </g>

  <!-- Step 6: Hypotheses -->
  <g class="step" id="step6" data-narration="We test null hypotheses that all effects are zero. For treatments, at least one treatment effect differs from zero if rejected.">
    <rect x="10" y="545" width="780" height="85" rx="8" class="content-box-green" filter="url(#shadow)"/>
    <text x="25" y="565" font-size="12" font-weight="bold" fill="#388e3c">Hypotheses</text>
    <!-- Treatments -->
    <text x="25" y="590" font-size="10" fill="#333" font-weight="bold">For Treatments (Primary Test):</text>
    <text x="35" y="608" font-size="10" fill="#1976d2">H<tspan baseline-shift="sub" font-size="8">0</tspan>: τ<tspan baseline-shift="sub" font-size="8">1</tspan> = τ<tspan baseline-shift="sub" font-size="8">2</tspan> = ... = τ<tspan baseline-shift="sub" font-size="8">p</tspan> = 0 (no treatment effect)</text>
    <text x="35" y="623" font-size="10" fill="#f44336">H<tspan baseline-shift="sub" font-size="8">1</tspan>: At least one τ<tspan baseline-shift="sub" font-size="8">k</tspan> ≠ 0</text>
    <!-- Rows/Columns -->
    <text x="400" y="590" font-size="10" fill="#333" font-weight="bold">For Rows/Columns (Optional):</text>
    <text x="410" y="608" font-size="10" fill="#1976d2">H<tspan baseline-shift="sub" font-size="8">0</tspan>: α<tspan baseline-shift="sub" font-size="8">1</tspan>=...=α<tspan baseline-shift="sub" font-size="8">p</tspan>=0 (rows)</text>
    <text x="410" y="623" font-size="10" fill="#1976d2">H<tspan baseline-shift="sub" font-size="8">0</tspan>: β<tspan baseline-shift="sub" font-size="8">1</tspan>=...=β<tspan baseline-shift="sub" font-size="8">p</tspan>=0 (columns)</text>
  </g>

  <!-- Step 7: Sum of Squares -->
  <g class="step" id="step7" data-narration="Total variation splits into four components: rows, columns, treatments, and error. This partitioning is fundamental to ANOVA.">
    <rect x="10" y="640" width="780" height="75" rx="8" class="content-box-orange" filter="url(#shadow)"/>
    <text x="25" y="660" font-size="12" font-weight="bold" fill="#f57c00">Sum of Squares Partitioning</text>
    <text x="25" y="690" font-size="14" fill="#333">SST = SSR + SSC + SST<tspan baseline-shift="sub" font-size="9">r</tspan> + SSE</text>
    <!-- Components -->
    <rect x="200" y="705" width="80" height="18" rx="3" fill="#e3f2fd"/>
    <text x="240" y="717" text-anchor="middle" font-size="9" fill="#1976d2">SSR = Row SS</text>
    <rect x="290" y="705" width="80" height="18" rx="3" fill="#e8f5e9"/>
    <text x="330" y="717" text-anchor="middle" font-size="9" fill="#388e3c">SSC = Col SS</text>
    <rect x="380" y="705" width="90" height="18" rx="3" fill="#fff3e0"/>
    <text x="425" y="717" text-anchor="middle" font-size="9" fill="#f57c00">SSTr = Trt SS</text>
    <rect x="480" y="705" width="70" height="18" rx="3" fill="#f3e5f5"/>
    <text x="515" y="717" text-anchor="middle" font-size="9" fill="#9c27b0">SSE = Error</text>
  </g>

  <!-- Step 8: Correction Factor -->
  <g class="step" id="step8" data-narration="The correction factor simplifies calculations. CF equals grand total squared divided by total observations.">
    <rect x="10" y="725" width="780" height="75" rx="8" class="content-box-purple" filter="url(#shadow)"/>
    <text x="25" y="745" font-size="12" font-weight="bold" fill="#7b1fa2">Correction Factor Method</text>
    <text x="25" y="772" font-size="11" fill="#333">CF = G<tspan baseline-shift="sup" font-size="8">2</tspan> / N  &nbsp;&nbsp; where G = Grand Total, N = p<tspan baseline-shift="sup" font-size="8">2</tspan></text>
    <!-- Formulas -->
    <text x="25" y="792" font-size="10" fill="#333">SST = Σx² - CF</text>
    <text x="200" y="792" font-size="10" fill="#333">SSR = (ΣRow Totals²)/p - CF</text>
    <text x="420" y="792" font-size="10" fill="#333">SSC = (ΣCol Totals²)/p - CF</text>
    <text x="620" y="792" font-size="10" fill="#333">SSTr = (ΣTrt Totals²)/p - CF</text>
  </g>

  <!-- Step 9: Degrees of Freedom -->
  <g class="step" id="step9" data-narration="Degrees of freedom follow specific formulas. Remember: error df equals (p-1)(p-2), a key exam formula.">
    <rect x="10" y="810" width="780" height="75" rx="8" class="content-box-red" filter="url(#shadow)"/>
    <text x="25" y="830" font-size="12" font-weight="bold" fill="#d32f2f">Degrees of Freedom</text>
    <!-- Table -->
    <g transform="translate(30, 850)">
      <rect x="0" y="0" width="180" height="20" fill="#e3f2fd"/>
      <text x="90" y="14" text-anchor="middle" font-size="9" fill="#1976d2" font-weight="bold">Rows</text>
      <rect x="180" y="0" width="180" height="20" fill="#e8f5e9"/>
      <text x="270" y="14" text-anchor="middle" font-size="9" fill="#388e3c" font-weight="bold">Columns</text>
      <rect x="360" y="0" width="180" height="20" fill="#fff3e0"/>
      <text x="450" y="14" text-anchor="middle" font-size="9" fill="#f57c00" font-weight="bold">Treatments</text>
      <rect x="540" y="0" width="180" height="20" fill="#f3e5f5"/>
      <text x="630" y="14" text-anchor="middle" font-size="9" fill="#9c27b0" font-weight="bold">Error</text>
      <!-- Values -->
      <rect x="0" y="20" width="180" height="20" fill="#e3f2fd"/>
      <text x="90" y="34" text-anchor="middle" font-size="10" fill="#333">p - 1</text>
      <rect x="180" y="20" width="180" height="20" fill="#e8f5e9"/>
      <text x="270" y="34" text-anchor="middle" font-size="10" fill="#333">p - 1</text>
      <rect x="360" y="20" width="180" height="20" fill="#fff3e0"/>
      <text x="450" y="34" text-anchor="middle" font-size="10" fill="#333">p - 1</text>
      <rect x="540" y="20" width="180" height="20" fill="#f3e5f5"/>
      <text x="630" y="34" text-anchor="middle" font-size="10" fill="#333" font-weight="bold">(p-1)(p-2)</text>
    </g>
    <text x="320" y="905" font-size="10" fill="#d32f2f" font-weight="bold">KEY EXAM FORMULA: Error df = (p-1)(p-2)</text>
  </g>

  <!-- Step 10: Mean Squares and F -->
  <g class="step" id="step10" data-narration="Mean squares divide SS by respective degrees of freedom. F-statistic for treatments equals treatment MS divided by error MS.">
    <rect x="10" y="895" width="780" height="65" rx="8" class="content-box-blue" filter="url(#shadow)"/>
    <text x="25" y="915" font-size="12" font-weight="bold" fill="#1976d2">Mean Squares and F-Statistics</text>
    <text x="25" y="942" font-size="10" fill="#333">MSR = SSR/(p-1) &nbsp;&nbsp; MSC = SSC/(p-1) &nbsp;&nbsp; MSTr = SSTr/(p-1) &nbsp;&nbsp; MSE = SSE/[(p-1)(p-2)]</text>
    <text x="180" y="960" font-size="11" fill="#f57c00" font-weight="bold">F_Treatments = MSTr / MSE &nbsp;&nbsp; (Primary test)</text>
  </g>

  <!-- Step 11: ANOVA Table -->
  <g class="step" id="step11" data-narration="The ANOVA table summarizes all calculations: sources, sum of squares, degrees of freedom, mean squares, and F-values.">
    <rect x="10" y="970" width="780" height="75" rx="8" class="content-box-green" filter="url(#shadow)"/>
    <text x="25" y="990" font-size="12" font-weight="bold" fill="#388e3c">ANOVA Table</text>
    <!-- Table header -->
    <g transform="translate(30, 1010)">
      <rect x="0" y="0" width="120" height="16" fill="#1976d2"/>
      <text x="60" y="11" text-anchor="middle" font-size="8" fill="white" font-weight="bold">Source</text>
      <rect x="120" y="0" width="100" height="16" fill="#1976d2"/>
      <text x="170" y="11" text-anchor="middle" font-size="8" fill="white" font-weight="bold">SS</text>
      <rect x="220" y="0" width="60" height="16" fill="#1976d2"/>
      <text x="250" y="11" text-anchor="middle" font-size="8" fill="white" font-weight="bold">df</text>
      <rect x="280" y="0" width="60" height="16" fill="#1976d2"/>
      <text x="310" y="11" text-anchor="middle" font-size="8" fill="white" font-weight="bold">MS</text>
      <rect x="340" y="0" width="60" height="16" fill="#1976d2"/>
      <text x="370" y="11" text-anchor="middle" font-size="8" fill="white" font-weight="bold">F</text>
      <!-- Rows -->
      <rect x="0" y="16" width="120" height="14" fill="#e3f2fd"/>
      <text x="10" y="26" font-size="8" fill="#333">Rows</text>
      <rect x="120" y="16" width="100" height="14" fill="#e3f2fd"/>
      <text x="170" y="26" text-anchor="middle" font-size="8" fill="#333">SSR</text>
      <rect x="220" y="16" width="60" height="14" fill="#e3f2fd"/>
      <text x="250" y="26" text-anchor="middle" font-size="8" fill="#333">p-1</text>
      <rect x="280" y="16" width="60" height="14" fill="#e3f2fd"/>
      <text x="310" y="26" text-anchor="middle" font-size="8" fill="#333">MSR</text>
      <rect x="340" y="16" width="60" height="14" fill="#e3f2fd"/>
      <text x="370" y="26" text-anchor="middle" font-size="8" fill="#333">MSR/MSE</text>
      
      <rect x="0" y="30" width="120" height="14" fill="#e8f5e9"/>
      <text x="10" y="40" font-size="8" fill="#333">Columns</text>
      <rect x="120" y="30" width="100" height="14" fill="#e8f5e9"/>
      <text x="170" y="40" text-anchor="middle" font-size="8" fill="#333">SSC</text>
      <rect x="220" y="30" width="60" height="14" fill="#e8f5e9"/>
      <text x="250" y="40" text-anchor="middle" font-size="8" fill="#333">p-1</text>
      <rect x="280" y="30" width="60" height="14" fill="#e8f5e9"/>
      <text x="310" y="40" text-anchor="middle" font-size="8" fill="#333">MSC</text>
      <rect x="340" y="30" width="60" height="14" fill="#e8f5e9"/>
      <text x="370" y="40" text-anchor="middle" font-size="8" fill="#333">MSC/MSE</text>
      
      <rect x="0" y="44" width="120" height="14" fill="#fff3e0"/>
      <text x="10" y="54" font-size="8" fill="#333">Treatments</text>
      <rect x="120" y="44" width="100" height="14" fill="#fff3e0"/>
      <text x="170" y="54" text-anchor="middle" font-size="8" fill="#333">SSTr</text>
      <rect x="220" y="44" width="60" height="14" fill="#fff3e0"/>
      <text x="250" y="54" text-anchor="middle" font-size="8" fill="#333">p-1</text>
      <rect x="280" y="44" width="60" height="14" fill="#fff3e0"/>
      <text x="310" y="54" text-anchor="middle" font-size="8" fill="#333">MSTr</text>
      <rect x="340" y="44" width="60" height="14" fill="#fff3e0"/>
      <text x="370" y="54" text-anchor="middle" font-size="8" fill="#333">MSTr/MSE</text>
      
      <rect x="0" y="58" width="120" height="14" fill="#f3e5f5"/>
      <text x="10" y="68" font-size="8" fill="#333">Error</text>
      <rect x="120" y="58" width="100" height="14" fill="#f3e5f5"/>
      <text x="170" y="68" text-anchor="middle" font-size="8" fill="#333">SSE</text>
      <rect x="220" y="58" width="60" height="14" fill="#f3e5f5"/>
      <text x="250" y="68" text-anchor="middle" font-size="8" fill="#333">(p-1)(p-2)</text>
      <rect x="280" y="58" width="60" height="14" fill="#f3e5f5"/>
      <text x="310" y="68" text-anchor="middle" font-size="8" fill="#333">MSE</text>
      <rect x="340" y="58" width="60" height="14" fill="#f3e5f5"/>
    </g>
  </g>

  <!-- Step 12: Worked Example - Data -->
  <g class="step" id="step12" data-narration="Let's work through a complete 4×4 example. Here are the observed values for each treatment in the Latin square layout.">
    <rect x="10" y="1055" width="780" height="85" rx="8" class="content-box-orange" filter="url(#shadow)"/>
    <text x="25" y="1075" font-size="12" font-weight="bold" fill="#f57c00">Worked Example: 4×4 Latin Square Data</text>
    <!-- Data grid -->
    <g transform="translate(30, 1095)">
      <text x="20" y="0" font-size="8" text-anchor="middle" fill="#666">C1</text>
      <text x="60" y="0" font-size="8" text-anchor="middle" fill="#666">C2</text>
      <text x="100" y="0" font-size="8" text-anchor="middle" fill="#666">C3</text>
      <text x="140" y="0" font-size="8" text-anchor="middle" fill="#666">C4</text>
      <text x="180" y="0" font-size="8" text-anchor="middle" fill="#666">Row Total</text>
      
      <text x="0" y="20" font-size="8" fill="#666">R1</text>
      <rect x="15" y="10" width="35" height="18" fill="#e3f2fd" class="cell"/>
      <text x="32" y="23" text-anchor="middle" font-size="9" fill="#333">12(A)</text>
      <rect x="52" y="10" width="35" height="18" fill="#e8f5e9" class="cell"/>
      <text x="69" y="23" text-anchor="middle" font-size="9" fill="#333">15(B)</text>
      <rect x="89" y="10" width="35" height="18" fill="#fff3e0" class="cell"/>
      <text x="106" y="23" text-anchor="middle" font-size="9" fill="#333">20(C)</text>
      <rect x="126" y="10" width="35" height="18" fill="#fce4ec" class="cell"/>
      <text x="143" y="23" text-anchor="middle" font-size="9" fill="#333">18(D)</text>
      <rect x="165" y="10" width="40" height="18" fill="#eee"/>
      <text x="185" y="23" text-anchor="middle" font-size="9" fill="#333" font-weight="bold">65</text>
      
      <text x="0" y="42" font-size="8" fill="#666">R2</text>
      <rect x="15" y="32" width="35" height="18" fill="#e8f5e9" class="cell"/>
      <text x="32" y="45" text-anchor="middle" font-size="9" fill="#333">17(B)</text>
      <rect x="52" y="32" width="35" height="18" fill="#fff3e0" class="cell"/>
      <text x="69" y="45" text-anchor="middle" font-size="9" fill="#333">22(C)</text>
      <rect x="89" y="32" width="35" height="18" fill="#fce4ec" class="cell"/>
      <text x="106" y="45" text-anchor="middle" font-size="9" fill="#333">14(D)</text>
      <rect x="126" y="32" width="35" height="18" fill="#e3f2fd" class="cell"/>
      <text x="143" y="45" text-anchor="middle" font-size="9" fill="#333">10(A)</text>
      <rect x="165" y="32" width="40" height="18" fill="#eee"/>
      <text x="185" y="45" text-anchor="middle" font-size="9" fill="#333" font-weight="bold">63</text>
      
      <text x="0" y="64" font-size="8" fill="#666">R3</text>
      <rect x="15" y="54" width="35" height="18" fill="#fff3e0" class="cell"/>
      <text x="32" y="67" text-anchor="middle" font-size="9" fill="#333">24(C)</text>
      <rect x="52" y="54" width="35" height="18" fill="#fce4ec" class="cell"/>
      <text x="69" y="67" text-anchor="middle" font-size="9" fill="#333">16(D)</text>
      <rect x="89" y="54" width="35" height="18" fill="#e3f2fd" class="cell"/>
      <text x="106" y="67" text-anchor="middle" font-size="9" fill="#333">8(A)</text>
      <rect x="126" y="54" width="35" height="18" fill="#e8f5e9" class="cell"/>
      <text x="143" y="67" text-anchor="middle" font-size="9" fill="#333">19(B)</text>
      <rect x="165" y="54" width="40" height="18" fill="#eee"/>
      <text x="185" y="67" text-anchor="middle" font-size="9" fill="#333" font-weight="bold">67</text>
      
      <text x="0" y="86" font-size="8" fill="#666">R4</text>
      <rect x="15" y="76" width="35" height="18" fill="#fce4ec" class="cell"/>
      <text x="32" y="89" text-anchor="middle" font-size="9" fill="#333">13(D)</text>
      <rect x="52" y="76" width="35" height="18" fill="#e3f2fd" class="cell"/>
      <text x="69" y="89" text-anchor="middle" font-size="9" fill="#333">9(A)</text>
      <rect x="89" y="76" width="35" height="18" fill="#e8f5e9" class="cell"/>
      <text x="106" y="89" text-anchor="middle" font-size="9" fill="#333">21(B)</text>
      <rect x="126" y="76" width="35" height="18" fill="#fff3e0" class="cell"/>
      <text x="143" y="89" text-anchor="middle" font-size="9" fill="#333">25(C)</text>
      <rect x="165" y="76" width="40" height="18" fill="#eee"/>
      <text x="185" y="89" text-anchor="middle" font-size="9" fill="#333" font-weight="bold">68</text>
    </g>
    <text x="550" y="1120" font-size="10" fill="#333">Grand Total G = 263</text>
    <text x="550" y="1138" font-size="10" fill="#333">N = 16, p = 4</text>
  </g>

  <!-- Step 13: Calculations Part 1 -->
  <g class="step" id="step13" data-narration="We compute totals for each treatment: A=39, B=72, C=91, D=61. Then calculate correction factor and sum of squares.">
    <rect x="10" y="1150" width="780" height="85" rx="8" class="content-box-purple" filter="url(#shadow)"/>
    <text x="25" y="1170" font-size="12" font-weight="bold" fill="#7b1fa2">Worked Example: Calculations - Part 1</text>
    <!-- Treatment totals -->
    <text x="25" y="1195" font-size="10" fill="#333">Treatment Totals:</text>
    <rect x="25" y="1202" width="50" height="22" rx="3" fill="#e3f2fd"/>
    <text x="50" y="1218" text-anchor="middle" font-size="10" fill="#1976d2">A: 39</text>
    <rect x="80" y="1202" width="50" height="22" rx="3" fill="#e8f5e9"/>
    <text x="105" y="1218" text-anchor="middle" font-size="10" fill="#388e3c">B: 72</text>
    <rect x="135" y="1202" width="50" height="22" rx="3" fill="#fff3e0"/>
    <text x="160" y="1218" text-anchor="middle" font-size="10" fill="#f57c00">C: 91</text>
    <rect x="190" y="1202" width="50" height="22" rx="3" fill="#fce4ec"/>
  </g>
</svg>