<svg viewBox="0 0 800 1380" xmlns="http://www.w3.org/2000/svg">
  <defs>
    <!-- Gradients -->
    <linearGradient id="titleGrad" x1="0%" y1="0%" x2="100%" y2="0%">
      <stop offset="0%" style="stop-color:#1565c0"/>
      <stop offset="100%" style="stop-color:#42a5f5"/>
    </linearGradient>
    <linearGradient id="blueGrad" x1="0%" y1="0%" x2="0%" y2="100%">
      <stop offset="0%" style="stop-color:#e3f2fd"/>
      <stop offset="100%" style="stop-color:#bbdefb"/>
    </linearGradient>
    <linearGradient id="greenGrad" x1="0%" y1="0%" x2="0%" y2="100%">
      <stop offset="0%" style="stop-color:#e8f5e9"/>
      <stop offset="100%" style="stop-color:#c8e6c9"/>
    </linearGradient>
    <linearGradient id="orangeGrad" x1="0%" y1="0%" x2="0%" y2="100%">
      <stop offset="0%" style="stop-color:#fff3e0"/>
      <stop offset="100%" style="stop-color:#ffe0b2"/>
    </linearGradient>
    <linearGradient id="purpleGrad" x1="0%" y1="0%" x2="0%" y2="100%">
      <stop offset="0%" style="stop-color:#f3e5f5"/>
      <stop offset="100%" style="stop-color:#e1bee7"/>
    </linearGradient>
    <linearGradient id="redGrad" x1="0%" y1="0%" x2="0%" y2="100%">
      <stop offset="0%" style="stop-color:#ffebee"/>
      <stop offset="100%" style="stop-color:#ffcdd2"/>
    </linearGradient>
    <linearGradient id="tealGrad" x1="0%" y1="0%" x2="0%" y2="100%">
      <stop offset="0%" style="stop-color:#e0f2f1"/>
      <stop offset="100%" style="stop-color:#b2dfdb"/>
    </linearGradient>
    <!-- Arrow marker -->
    <marker id="arrowBlue" markerWidth="10" markerHeight="10" refX="9" refY="3" orient="auto" markerUnits="strokeWidth">
      <path d="M0,0 L0,6 L9,3 z" fill="#1976d2"/>
    </marker>
    <!-- Filters -->
    <filter id="shadow" x="-20%" y="-20%" width="140%" height="140%">
      <feDropShadow dx="2" dy="2" stdDeviation="3" flood-color="#0003"/>
    </filter>
  </defs>
  
  <!-- Background -->
  <rect width="800" height="1380" fill="#f8f9fa"/>
  
  <style>
    @keyframes fadeInSlide {
      from { opacity: 0; transform: translateY(20px); }
      to { opacity: 1; transform: translateY(0); }
    }
    @keyframes scaleIn {
      from { opacity: 0; transform: scale(0.85); }
      to { opacity: 1; transform: scale(1); }
    }
    @keyframes textReveal {
      from { opacity: 0; transform: translateX(-10px); }
      to { opacity: 1; transform: translateX(0); }
    }
    @keyframes pulse {
      0%, 100% { transform: scale(1); }
      50% { transform: scale(1.03); }
    }
    @keyframes drawLine {
      from { stroke-dashoffset: 300; }
      to { stroke-dashoffset: 0; }
    }
    @keyframes clockPulse {
      0%, 100% { opacity: 0.3; }
      50% { opacity: 1; }
    }
    .step { animation: fadeInSlide 0.6s ease-out; }
    .step rect { animation: scaleIn 0.5s cubic-bezier(0.34, 1.56, 0.64, 1); transform-origin: center; }
    .step text { animation: textReveal 0.4s ease-out 0.2s backwards; }
    .clock-line { animation: drawLine 2s linear infinite; stroke-dasharray: 300; }
    .pulse-anim { animation: pulse 1s ease-in-out infinite; }
  </style>

  <!-- Step 0: Title -->
  <g class="step" id="step0" data-narration="Welcome to Sequential Circuits. Today we explore how digital systems remember past events and make decisions based on history.">
    <rect x="0" y="0" width="800" height="50" fill="url(#titleGrad)"/>
    <text x="400" y="32" text-anchor="middle" font-size="24" font-weight="bold" fill="white">Sequential Circuits - The Memory of Digital Systems</text>
    <rect x="200" y="40" width="400" height="3" fill="#fff" opacity="0.6">
      <animate attributeName="width" from="0" to="400" dur="1s" fill="freeze"/>
    </rect>
  </g>

  <!-- Step 1: Introduction - Combinational vs Sequential -->
  <g class="step" id="step1" data-narration="Unlike combinational circuits with no memory, sequential circuits remember past inputs, enabling complex digital behavior like counting.">
    <rect x="20" y="60" width="760" height="85" rx="10" fill="url(#blueGrad)" filter="url(#shadow)"/>
    <text x="400" y="85" text-anchor="middle" font-size="14" font-weight="bold" fill="#1565c0">Why Sequential Circuits Matter</text>
    <!-- Comparison boxes -->
    <rect x="40" y="100" width="340" height="35" rx="5" fill="#ffebee" stroke="#ef5350"/>
    <text x="210" y="120" text-anchor="middle" font-size="11" fill="#c62828">COMBINATIONAL: Output = f(Inputs)</text>
    <text x="210" y="133" text-anchor="middle" font-size="9" fill="#ef5350">No memory • Instant response</text>
    
    <rect x="420" y="100" width="340" height="35" rx="5" fill="#e8f5e9" stroke="#66bb6a"/>
    <text x="590" y="120" text-anchor="middle" font-size="11" fill="#2e7d32">SEQUENTIAL: Output = f(Inputs, State)</text>
    <text x="590" y="133" text-anchor="middle" font-size="9" fill="#66bb6a">Has memory • Remembers history</text>
    <!-- Arrow -->
    <path d="M380 117 L420 117" stroke="#1976d2" stroke-width="2" marker-end="url(#arrowBlue)"/>
  </g>

  <!-- Step 2: Basic Structure Diagram -->
  <g class="step" id="step2" data-narration="A sequential circuit has two main parts: combinational logic for processing and flip-flops for storing the present state.">
    <rect x="20" y="160" width="760" height="90" rx="10" fill="url(#greenGrad)" filter="url(#shadow)"/>
    <text x="400" y="185" text-anchor="middle" font-size="14" font-weight="bold" fill="#2e7d32">Basic Sequential Circuit Structure</text>
    
    <!-- Block diagram -->
    <rect x="50" y="205" width="120" height="30" rx="5" fill="#fff9c4" stroke="#f9a825" stroke-width="2"/>
    <text x="110" y="225" text-anchor="middle" font-size="11" fill="#f57f17">External Inputs</text>
    
    <rect x="340" y="205" width="120" height="30" rx="5" fill="#e1bee7" stroke="#8e24aa" stroke-width="2"/>
    <text x="400" y="225" text-anchor="middle" font-size="11" fill="#6a1b9a">Combinational</text>
    <text x="400" y="238" text-anchor="middle" font-size="9" fill="#6a1b9a">Logic Circuit</text>
    
    <rect x="630" y="205" width="120" height="30" rx="5" fill="#b3e5fc" stroke="#0288d1" stroke-width="2"/>
    <text x="690" y="225" text-anchor="middle" font-size="11" fill="#01579b">Outputs</text>
    
    <rect x="480" y="205" width="130" height="30" rx="5" fill="#ffccbc" stroke="#d84315" stroke-width="2"/>
    <text x="545" y="220" text-anchor="middle" font-size="10" fill="#bf360c">Memory Elements</text>
    <text x="545" y="232" text-anchor="middle" font-size="9" fill="#bf360c">(Flip-Flops)</text>
    
    <!-- Connecting lines -->
    <path d="M170 220 L340 220" stroke="#f9a825" stroke-width="2" marker-end="url(#arrowBlue)"/>
    <path d="M460 220 L480 220" stroke="#8e24aa" stroke-width="2" marker-end="url(#arrowBlue)"/>
    <path d="M610 220 L630 220" stroke="#0288d1" stroke-width="2" marker-end="url(#arrowBlue)"/>
    <path d="M545 235 L545 255 L400 255 L400 235" stroke="#d84315" stroke-width="1.5" fill="none" marker-end="url(#arrowBlue)"/>
  </g>

  <!-- Step 3: Flip-Flops Overview -->
  <g class="step" id="step3" data-narration="Flip-flops are bistable memory devices that store one bit. They are the fundamental building blocks of all sequential circuits.">
    <rect x="20" y="265" width="760" height="95" rx="10" fill="url(#purpleGrad)" filter="url(#shadow)"/>
    <text x="400" y="290" text-anchor="middle" font-size="14" font-weight="bold" fill="#7b1fa2">Flip-Flops: The Fundamental Memory Unit</text>
    <text x="400" y="308" text-anchor="middle" font-size="10" fill="#6a1b9a">A flip-flop stores 1 bit (0 or 1) and changes state based on clock and inputs</text>
    
    <!-- Four flip-flop type boxes -->
    <rect x="40" y="320" width="165" height="30" rx="5" fill="#fff" stroke="#e91e63"/>
    <text x="122" y="340" text-anchor="middle" font-size="11" font-weight="bold" fill="#c2185b">SR Flip-Flop</text>
    <text x="122" y="352" text-anchor="middle" font-size="8" fill="#e91e63">Set-Reset</text>
    
    <rect x="220" y="320" width="165" height="30" rx="5" fill="#fff" stroke="#ff9800"/>
    <text x="302" y="340" text-anchor="middle" font-size="11" font-weight="bold" fill="#ef6c00">JK Flip-Flop</text>
    <text x="302" y="352" text-anchor="middle" font-size="8" fill="#ff9800">Toggle on J=K=1</text>
    
    <rect x="400" y="320" width="165" height="30" rx="5" fill="#fff" stroke="#2196f3"/>
    <text x="482" y="340" text-anchor="middle" font-size="11" font-weight="bold" fill="#1565c0">D Flip-Flop</text>
    <text x="482" y="352" text-anchor="middle" font-size="8" fill="#2196f3">Data/Delay (Most used)</text>
    
    <rect x="580" y="320" width="180" height="30" rx="5" fill="#fff" stroke="#4caf50"/>
    <text x="670" y="340" text-anchor="middle" font-size="11" font-weight="bold" fill="#2e7d32">T Flip-Flop</text>
    <text x="670" y="352" text-anchor="middle" font-size="8" fill="#4caf50">Toggle (T=1)</text>
  </g>

  <!-- Step 4: SR Flip-Flop Detail -->
  <g class="step" id="step4" data-narration="The SR flip-flop is the simplest type. S sets Q to 1, R resets Q to 0. But S=R=1 is forbidden—it creates invalid state.">
    <rect x="20" y="375" width="370" height="90" rx="10" fill="url(#redGrad)" filter="url(#shadow)"/>
    <text x="205" y="400" text-anchor="middle" font-size="13" font-weight="bold" fill="#c62828">SR Flip-Flop</text>
    
    <!-- Symbol -->
    <rect x="40" y="415" width="100" height="40" rx="5" fill="white" stroke="#e91e63" stroke-width="2"/>
    <text x="90" y="435" text-anchor="middle" font-size="10" fill="#c2185b">Q</text>
    <text x="90" y="450" text-anchor="middle" font-size="9" fill="#e91e63" font-style="italic">SR</text>
    
    <!-- Truth table -->
    <rect x="155" y="415" width="220" height="40" rx="5" fill="white" stroke="#e91e63"/>
    <text x="265" y="428" text-anchor="middle" font-size="9" fill="#333">S R → Q</text>
    <text x="175" y="443" text-anchor="middle" font-size="8" fill="#4caf50">0 0: No change</text>
    <text x="215" y="443" text-anchor="middle" font-size="8" fill="#2196f3">0 1: Q=0</text>
    <text x="260" y="443" text-anchor="middle" font-size="8" fill="#2196f3">1 0: Q=1</text>
    <text x="315" y="443" text-anchor="middle" font-size="8" fill="#f44336">1 1: Invalid!</text>
  </g>

  <!-- Step 5: JK Flip-Flop Detail -->
  <g class="step" id="step5" data-narration="The JK flip-flop solves the SR invalid state problem. When J=K=1, it toggles—Q becomes NOT Q, enabling counting behavior.">
    <rect x="405" y="375" width="375" height="90" rx="10" fill="url(#orangeGrad)" filter="url(#shadow)"/>
    <text x="592" y="400" text-anchor="middle" font-size="13" font-weight="bold" fill="#ef6c00">JK Flip-Flop</text>
    
    <!-- Symbol -->
    <rect x="425" y="415" width="100" height="40" rx="5" fill="white" stroke="#ff9800" stroke-width="2"/>
    <text x="475" y="435" text-anchor="middle" font-size="10" fill="#ef6c00">Q</text>
    <text x="475" y="450" text-anchor="middle" font-size="9" fill="#ff9800" font-style="italic">JK</text>
    
    <!-- Truth table -->
    <rect x="540" y="415" width="225" height="40" rx="5" fill="white" stroke="#ff9800"/>
    <text x="652" y="428" text-anchor="middle" font-size="9" fill="#333">J K → Q(next)</text>
    <text x="555" y="443" text-anchor="middle" font-size="8" fill="#4caf50">0 0: No change</text>
    <text x="595" y="443" text-anchor="middle" font-size="8" fill="#2196f3">0 1: Q=0 (Reset)</text>
    <text x="650" y="443" text-anchor="middle" font-size="8" fill="#2196f3">1 0: Q=1 (Set)</text>
    <text x="710" y="443" text-anchor="middle" font-size="8" fill="#9c27b0">1 1: Toggle!</text>
  </g>

  <!-- Step 6: D Flip-Flop Detail -->
  <g class="step" id="step6" data-narration="The D flip-flop is the most widely used. The output Q simply copies the D input at each clock pulse—simple and reliable.">
    <rect x="20" y="480" width="370" height="90" rx="10" fill="url(#tealGrad)" filter="url(#shadow)"/>
    <text x="205" y="505" text-anchor="middle" font-size="13" font-weight="bold" fill="#00796b">D Flip-Flop (Data/Delay)</text>
    
    <!-- Symbol -->
    <rect x="40" y="525" width="100" height="35" rx="5" fill="white" stroke="#00acc1" stroke-width="2"/>
    <text x="90" y="548" text-anchor="middle" font-size="10" fill="#00838f">Q</text>
    <text x="70" y="540" text-anchor="middle" font-size="8" fill="#00acc1">D</text>
    
    <!-- Equation -->
    <rect x="155" y="525" width="220" height="35" rx="5" fill="white" stroke="#00acc1"/>
    <text x="265" y="545" text-anchor="middle" font-size="10" fill="#00695c">Q(next) = D</text>
    <text x="265" y="558" text-anchor="middle" font-size="8" fill="#00acc1">Output equals input on clock edge</text>
    
    <!-- Use case -->
    <text x="40" y="580" font-size="9" fill="#00695c">✓ Most popular • ✓ Edge-triggered • ✓ No invalid states</text>
  </g>

  <!-- Step 7: T Flip-Flop Detail -->
  <g class="step" id="step7" data-narration="The T flip-flop has one input T. When T=1, it toggles on each clock pulse. When T=0, it holds its current state.">
    <rect x="405" y="480" width="375" height="90" rx="10" fill="url(#greenGrad)" filter="url(#shadow)"/>
    <text x="592" y="505" text-anchor="middle" font-size="13" font-weight="bold" fill="#2e7d32">T Flip-Flop (Toggle)</text>
    
    <!-- Symbol -->
    <rect x="425" y="525" width="100" height="35" rx="5" fill="white" stroke="#4caf50" stroke-width="2"/>
    <text x="475" y="548" text-anchor="middle" font-size="10" fill="#2e7d32">Q</text>
    <text x="455" y="540" text-anchor="middle" font-size="8" fill="#4caf50">T</text>
    
    <!-- Truth table -->
    <rect x="540" y="525" width="225" height="35" rx="5" fill="white" stroke="#4caf50"/>
    <text x="652" y="542" text-anchor="middle" font-size="9" fill="#333">T → Q(next)</text>
    <text x="570" y="557" text-anchor="middle" font-size="8" fill="#2e7d32">T=0: Q (hold)</text>
    <text x="640" y="557" text-anchor="middle" font-size="8" fill="#9c27b0">T=1: Q' (toggle)</text>
    
    <!-- Application -->
    <text x="425" y="580" font-size="9" fill="#2e7d32">Perfect for: Counters and frequency dividers</text>
  </g>

  <!-- Step 8: Clock Signal -->
  <g class="step" id="step8" data-narration="Synchronous sequential circuits use a clock—a square wave that triggers state changes at rising or falling edges, ensuring orderly operation.">
    <rect x="20" y="585" width="760" height="95" rx="10" fill="url(#blueGrad)" filter="url(#shadow)"/>
    <text x="400" y="610" text-anchor="middle" font-size="14" font-weight="bold" fill="#1565c0">Clock Signal &amp; Synchronization</text>
    
    <!-- Clock waveform -->
    <rect x="40" y="630" width="300" height="40" rx="5" fill="white" stroke="#1976d2"/>
    <!-- Clock path animation -->
    <path d="M50 670 L90 670 L90 650 L130 650 L130 670 L170 670 L170 650 L210 650 L210 670 L250 670 L250 650 L290 650 L290 670 L330 670" 
          stroke="#1976d2" stroke-width="2" fill="none" marker-end="url(#arrowBlue)">
      <animate attributeName="stroke-dasharray" from="0,500" to="500,0" dur="2s" fill="freeze"/>
    </path>
    
    <!-- Labels -->
    <text x="60" y="688" font-size="8" fill="#1565c0">0</text>
    <text x="95" y="648" font-size="8" fill="#1565c0">1</text>
    <text x="130" y="688" font-size="8" fill="#1565c0">0</text>
    <text x="170" y="648" font-size="8" fill="#1565c0">1</text>
    <text x="210" y="688" font-size="8" fill="#1565c0">0</text>
    <text x="250" y="648" font-size="8" fill="#1565c0">1</text>
    
    <!-- Edge trigger indicators -->
    <circle cx="90" cy="650" r="4" fill="#f44336">
      <animate attributeName="r" values="2;6;2" dur="1s" repeatCount="indefinite"/>
    </circle>
    <circle cx="170" cy="650" r="4" fill="#f44336">
      <animate attributeName="r" values="2;6;2" dur="1s" repeatCount="indefinite"/>
    </circle>
    <circle cx="250" cy="650" r="4" fill="#f44336">
      <animate attributeName="r" values="2;6;2" dur="1s" repeatCount="indefinite"/>
    </circle>
    
    <!-- Synchronous vs Asynchronous -->
    <rect x="360" y="630" width="400" height="40" rx="5" fill="white" stroke="#1565c0"/>
    <text x="560" y="648" text-anchor="middle" font-size="10" fill="#333">SYNCHRONOUS (Clocked)</text>
    <text x="560" y="662" text-anchor="middle" font-size="9" fill="#1565c0">State changes at clock edges • Predictable • Most common</text>
  </g>

  <!-- Step 9: Moore vs Mealy -->
  <g class="step" id="step9" data-narration="In Moore machines, output depends only on state. In Mealy machines, output depends on both state and inputs—more flexible but complex.">
    <rect x="20" y="695" width="760" height="100" rx="10" fill="url(#purpleGrad)" filter="url(#shadow)"/>
    <text x="400" y="720" text-anchor="middle" font-size="14" font-weight="bold" fill="#7b1fa2">Moore vs Mealy Machine</text>
    
    <!-- Moore box -->
    <rect x="40" y="735" width="340" height="50" rx="8" fill="white" stroke="#9c27b0"/>
    <text x="210" y="755" text-anchor="middle" font-size="12" font-weight="bold" fill="#6a1b9a">MOORE MACHINE</text>
    <text x="210" y="770" text-anchor="middle" font-size="10" fill="#333">Output = f(Present State)</text>
    <text x="210" y="783" text-anchor="middle" font-size="8" fill="#7b1fa2">Outputs stable throughout clock cycle</text>
    
    <!-- Mealy box -->
    <rect x="420" y="735" width="340" height="50" rx="8" fill="white" stroke="#e91e63"/>
    <text x="590" y="755" text-anchor="middle" font-size="12" font-weight="bold" fill="#c2185b">MEALY MACHINE</text>
    <text x="590" y="770" text-anchor="middle" font-size="10" fill="#333">Output = f(Present State, Inputs)</text>
    <text x="590" y="783" text-anchor="middle" font-size="8" fill="#e91e63">Outputs can change between clock pulses</text>
    
    <!-- Comparison arrow -->
    <path d="M380 760 L420 760" stroke="#7b1fa2" stroke-width="2" marker-end="url(#arrowBlue)"/>
  </g>

  <!-- Step 10: 2-Bit Counter Example -->
  <g class="step" id="step10" data-narration="A 2-bit counter cycles through states 00→01→10→11→00. T0 always toggles, T1 toggles when Q0=1—simple but powerful!">
    <rect x="20" y="810" width="760" height="115" rx="10" fill="url(#orangeGrad)" filter="url(#shadow)"/>
    <text x="400" y="835" text-anchor="middle" font-size="14" font-weight="bold" fill="#ef6c00">Example: 2-Bit Synchronous Counter</text>
    <text x="400" y="852" text-anchor="middle" font-size="10" fill="#e65100">Cycles: 00 → 01 → 10 → 11 → 00 → ...</text>
    
    <!-- State diagram circles -->
    <circle cx="80" cy="890" r="25" fill="white" stroke="#ff9800" stroke-width="2"/>
    <text x="80" y="886" text-anchor="middle" font-size="12" font-weight="bold" fill="#e65100">00</text>
    
    <circle cx="180" cy="890" r="25" fill="white" stroke="#ff9800" stroke-width="2"/>
    <text x="180" y="886" text-anchor="middle" font-size="12" font-weight="bold" fill="#e65100">01</text>
    
    <circle cx="280" cy="890" r="25" fill="white" stroke="#ff9800" stroke-width="2"/>
    <text x="280" y="886" text-anchor="middle" font-size="12" font-weight="bold" fill="#e65100">10</text>
    
    <circle cx="380" cy="890" r="25" fill="white" stroke="#ff9800" stroke-width="2"/>
    <text x="380" y="886" text-anchor="middle" font-size="12" font-weight="bold" fill="#e65100">11</text>
    
    <!-- State transition arrows -->
    <path d="M105 890 Q140 860 155 890" stroke="#ff9800" stroke-width="2" fill="none" marker-end="url(#arrowBlue)"/>
    <path d="M205 890 Q240 860 255 890" stroke="#ff9800" stroke-width="2" fill="none" marker-end="url(#arrowBlue)"/>
    <path d="M305 890 Q340 860 355 890" stroke="#ff9800" stroke-width="2" fill="none" marker-end="url(#arrowBlue)"/>
    <path d="M380 915 Q230 945 80 915" stroke="#ff9800" stroke-width="2" fill="none" marker-end="url(#arrowBlue)"/>
    
    <!-- Flip-flop equations -->
    <rect x="420" y="865" width="345" height="50" rx="5" fill="white" stroke="#ff9800"/>
    <text x="592" y="883" text-anchor="middle" font-size="11" fill="#e65100">T Flip-Flop Input Equations:</text>
    <text x="460" y="902" font-size="10" fill="#333">T₀ = 1 (always toggle)</text>
    <text x="560" y="902" font-size="10" fill="#333">T₁ = Q₀ (toggle when Q₀=1)</text>
  </g>

  <!-- Step 11: Timing Diagram -->
  <g class="step" id="step11" data-narration="This timing diagram shows how the counter works: Clock triggers, Q0 toggles every cycle, Q1 toggles when Q0 was 1 previously.">
    <rect x="20" y="940" width="760" height="95" rx="10" fill="url(#tealGrad)" filter="url(#shadow)"/>
    <text x="400" y="965" text-anchor="middle" font-size="14" font-weight="bold" fill="#00796b">Timing Diagram: How the Counter Operates</text>
    
    <!-- Waveforms -->
    <line x1="40" y1="1000" x2="740" y2="1000" stroke="#90a4ae" stroke-width="1"/>
    <text x="30" y="1003" font-size="9" fill="#546e7a" font-weight="bold">CLK</text>
    <!-- Clock wave -->
    <path d="M40 1000 L60 1000 L60 985 L80 985 L80 1000 L100 1000 L100 985 L120 985 L120 1000 L140 1000 L140 985 L160 985 L160 1000 L180 1000 L180 985 L200 985 L200 1000 L220 1000" 
          stroke="#1976d2" stroke-width="2" fill="none">
      <animate attributeName="opacity" values="0.3;1;0.3" dur="0.5s" repeatCount="4"/>
    </path>
    
    <line x1="40" y1="1025" x2="740" y2="1025" stroke="#90a4ae" stroke-width="1"/>
    <text x="30" y="1028" font-size="9" fill="#546e7a" font-weight="bold">Q₀</text>
    <path d="M40 1025 L60 1025 L60 1005 L100 1005 L100 1025 L140 1025 L140 1005 L180 1005 L180 1025 L220 1025" 
          stroke="#4caf50" stroke-width="2" fill="none">
      <animate attributeName="stroke-dasharray" from="0,200" to="200,0" dur="2s" fill="freeze"/>
    </path>
    
    <line x1="40" y1="1050" x2="740" y2="1050" stroke="#90a4ae" stroke-width="1"/>
    <text x="30" y="1053" font-size="9" fill="#546e7a" font-weight="bold">Q₁</text>
  </g>
</svg>