<svg width="420" height="400" xmlns="http://www.w3.org/2000/svg" xmlns:xlink="http://www.w3.org/1999/xlink" viewBox="0 0 420 400" xml:space="preserve">
  <rect x="0" y="0" width="420" height="400" fill="#C9E4CA" rx="10"/>
  <path d="M 10, 20 L 410, 20" stroke="#3498DB" stroke-width="4" fill="none"/>
  <path d="M 10, 20 L 10, 380" stroke="#3498DB" stroke-width="4" fill="none"/>
  <path d="M 10, 380 L 410, 380" stroke="#3498DB" stroke-width="4" fill="none"/>
  <path d="M 10, 20 L 10, 100" stroke="#3498DB" stroke-width="4" fill="none"/>
  <path d="M 10, 100 L 410, 100" stroke="#3498DB" stroke-width="4" fill="none"/>
  <path d="M 10, 20 L 10, 140" stroke="#3498DB" stroke-width="4" fill="none"/>
  <path d="M 10, 140 L 410, 140" stroke="#3498DB" stroke-width="4" fill="none"/>
  <path d="M 10, 20 L 10, 180" stroke="#3498DB" stroke-width="4" fill="none"/>
  <path d="M 10, 180 L 410, 180" stroke="#3498DB" stroke-width="4" fill="none"/>
  <path d="M 10, 20 L 10, 220" stroke="#3498DB" stroke-width="4" fill="none"/>
  <path d="M 10, 220 L 410, 220" stroke="#3498DB" stroke-width="4" fill="none"/>
  <path d="M 10, 20 L 10, 260" stroke="#3498DB" stroke-width="4" fill="none"/>
  <path d="M 10, 260 L 410, 260" stroke="#3498DB" stroke-width="4" fill="none"/>
  <path d="M 10, 20 L 10, 300" stroke="#3498DB" stroke-width="4" fill="none"/>
  <path d="M 10, 300 L 410, 300" stroke="#3498DB" stroke-width="4" fill="none"/>
  <path d="M 10, 20 L 10, 340" stroke="#3498DB" stroke-width="4" fill="none"/>
  <path d="M 10, 340 L 410, 340" stroke="#3498DB" stroke-width="4" fill="none"/>
  <path d="M 10, 380 L 10, 400" stroke="#3498DB" stroke-width="4" fill="none"/>
  <path d="M 10, 380 L 410, 380" stroke="#3498DB" stroke-width="4" fill="none"/>
  <path d="M 10, 400 L 410, 400" stroke="#3498DB" stroke-width="4" fill="none"/>
  <path d="M 10, 20 L 410, 20" stroke="#3498DB" stroke-width="4" fill="none"/>
  <path d="M 10, 360 L 410, 360" stroke="#3498DB" stroke-width="4" fill="none"/>
  <rect x="10" y="10" width="400" height="380" fill="#F9F9F9" rx="10"/>
  <rect x="10" y="10" width="400" height="30" fill="#F9F9F9" rx="10"/>
  <rect x="10" y="380" width="400" height="30" fill="#F9F9F9" rx="10"/>
  <text x="20" y="50" font-size="24" font-family="Arial, sans-serif" fill="#666666">Requirements Engineering</text>
  <text x="20" y="90" font-size="18" font-family="Arial, sans-serif" fill="#666666">Chapter 7: 71-73</text>
  <text x="20" y="130" font-size="18" font-family="Arial, sans-serif" fill="#666666">Requirements Gathering</text>
  <rect x="10" y="160" width="400" height="30" fill="#F9F9F9" rx="10"/>
  <rect x="10" y="210" width="400" height="30" fill="#F9F9F9" rx="10"/>
  <rect x="10" y="260" width="400" height="30" fill="#F9F9F9" rx="10"/>
  <rect x="10" y="310" width="400" height="30" fill="#F9F9F9" rx="10"/>
  <rect x="10" y="360" width="400" height="30" fill="#F9F9F9" rx="10"/>
  <rect x="10" y="410" width="400" height="30" fill="#F9F9F9" rx="10"/>
  <path d="M 20, 20 L 20, 90" stroke="#3498DB" stroke-width="4" fill="none"/>
  <path d="M 80, 20 L 80, 90" stroke="#3498DB" stroke-width="4" fill="none"/>
  <path d="M 140, 20 L 140, 90" stroke="#3498DB" stroke-width="4" fill="none"/>
  <path d="M 200, 20 L 200, 90" stroke="#3498DB" stroke-width="4" fill="none"/>
  <path d="M 260, 20 L 260, 90" stroke="#3498DB" stroke-width="4" fill="none"/>
  <path d="M 320, 20 L 320, 90" stroke="#3498DB" stroke-width="4" fill="none"/>
  <path d="M 380, 20 L 380, 90" stroke="#3498DB" stroke-width="4" fill="none"/>
  <circle cx="20" cy="20" r="10" fill="#3498DB"/>
  <circle cx="80" cy="20" r="10" fill="#3498DB"/>
  <circle cx="140" cy="20" r="10" fill="#3498DB"/>
  <circle cx="200" cy="20" r="10" fill="#3498DB"/>
  <circle cx="260" cy="20" r="10" fill="#3498DB"/>
  <circle cx="320" cy="20" r="10" fill="#3498DB"/>
  <circle cx="380" cy="20" r="10" fill="#3498DB"/>
  <rect x="10" y="120" width="400" height="30" fill="#F9F9F9" rx="10"/>
  <rect x="10" y="170" width="400" height="30" fill="#F9F9F9" rx="10"/>
  <rect x="10" y="220" width="400" height="30" fill="#F9F9F9" rx="10"/>
  <rect x="10" y="270" width="400" height="30" fill="#F9F9F9" rx="10"/>
  <rect x="10" y="320" width="400" height="30" fill="#F9F9F9" rx="10"/>
  <rect x="10" y="370" width="400" height="30" fill="#F9F9F9" rx="10"/>
  <rect x="10" y="420" width="400" height="30" fill="#F9F9F9" rx="10"/>
  <path d="M 20, 180 L 20, 250" stroke="#3498DB" stroke-width="4" fill="none"/>
  <path d="M 80, 180 L 80, 250" stroke="#3498DB" stroke-width="4" fill="none"/>
  <path d="M 140, 180 L 140, 250" stroke="#3498DB" stroke-width="4" fill="none"/>
  <path d="M 200, 180 L 200, 250" stroke="#3498DB" stroke-width="4" fill="none"/>
  <path d="M 260, 180 L 260, 250" stroke="#3498DB" stroke-width="4" fill="none"/>
  <path d="M 320, 180 L 320, 250" stroke="#3498DB" stroke-width="4" fill="none"/>
  <path d="M 380, 180 L 380, 250" stroke="#3498DB" stroke-width="4" fill="none"/>
  <circle cx="20" cy="180" r="10" fill="#3498DB"/>
  <circle cx="80" cy="180" r="10" fill="#3498DB"/>
  <circle cx="140" cy="180" r="10" fill="#3498DB"/>
  <circle cx="200" cy="180" r="10" fill="#3498DB"/>
  <circle cx="260" cy="180" r="10" fill="#3498DB"/>
  <circle cx="320" cy="180" r="10" fill="#3498DB"/>
  <circle cx="380" cy="180" r="10" fill="#3498DB"/>
  <rect x="10" y="210" width="400" height="30" fill="#F9F9F9" rx="10"/>
  <rect x="10" y="260" width="400" height="30" fill="#F9F9F9" rx="10"/>
  <rect x="10" y="310" width="400" height="30" fill="#F9F9F9" rx="10"/>
  <rect x="10" y="360" width="400" height="30" fill="#F9F9F9" rx="10"/>
  <rect x="10" y="410" width="400" height="30" fill="#F9F9F9" rx="10"/>
  <path d="M 20, 260 L 20, 330" stroke="#3498DB" stroke-width="4" fill="none"/>
  <path d="M 80, 260 L 80, 330" stroke="#3498DB" stroke-width="4" fill="none"/>
  <path d="M 140, 260 L 140, 330" stroke="#3498DB" stroke-width="4" fill="none"/>
  <path d="M 200, 260 L 200, 330" stroke="#3498DB" stroke-width="4" fill="none"/>
  <path d="M 260, 260 L 260, 330" stroke="#3498DB" stroke-width="4" fill="none"/>
  <path d="M 320, 260 L 320, 330" stroke="#3498DB" stroke-width="4" fill="none"/>
  <path d="M 380, 260 L 380, 330" stroke="#3498DB" stroke-width="4" fill="none"/>
  <circle cx="20" cy="260" r="10" fill="#3498DB"/>
  <circle cx="80" cy="260" r="10" fill="#3498DB"/>
  <circle cx="140" cy="260" r="10" fill="#3498DB"/>
  <circle cx="200" cy="260" r="10" fill="#3498DB"/>
  <circle cx="260" cy="260" r="10" fill="#3498DB"/>
  <circle cx="320" cy="260" r="10" fill="#3498DB"/>
  <circle cx="380" cy="260" r="10" fill="#3498DB"/>
  <rect x="10" y="290" width="400" height="30" fill="#F9F9F9" rx="10"/>
  <rect x="10" y="340" width="400" height="30" fill="#F9F9F9" rx="10"/>
  <rect x="10" y="390" width="400" height="30" fill="#F9F9F9" rx="10"/>
  <rect x="10" y="440" width="400" height="30" fill="#F9F9F9" rx="10"/>
  <path d="M 20, 330 L 20, 400" stroke="#3498DB" stroke-width="4" fill="none"/>
  <path d="M 80, 330 L 80, 400" stroke="#3498DB" stroke-width="4" fill="none"/>
  <path d="M 140, 330 L 140, 400" stroke="#3498DB" stroke-width="4" fill="none"/>
  <path d="M 200, 330 L 200, 400" stroke="#3498DB" stroke-width="4" fill="none"/>
  <path d="M 260, 330 L 260, 400" stroke="#3498DB" stroke-width="4" fill="none"/>
  <path d="M 320, 330 L 320, 400" stroke="#3498DB" stroke-width="4" fill="none"/>
  <path d="M 380, 330 L 380, 400" stroke="#3498DB" stroke-width="4" fill="none"/>
  <circle cx="20" cy="330" r="10" fill="#3498DB"/>
  <circle cx="80" cy="330" r="10" fill="#3498DB"/>
  <circle cx="140" cy="330" r="10" fill="#3498DB"/>
  <circle cx="200" cy="330" r="10" fill="#3498DB"/>
  <circle cx="260" cy="330" r="10" fill="#3498DB"/>
  <circle cx="320" cy="330" r="10" fill="#3498DB"/>
  <circle cx="380" cy="330" r="10" fill="#3498DB"/>
  <rect x="10" y="360" width="400" height="30" fill="#F9F9F9" rx="10"/>
  <rect x="10" y="410" width="400" height="30" fill="#F9F9F9" rx="10"/>
  <path d="M 20, 400 L 20, 470" stroke="#3498DB" stroke-width="4" fill="none"/>
  <path d="M 80, 400 L 80, 470" stroke="#3498DB" stroke-width="4" fill="none"/>
  <path d="M 140, 400 L 140, 470" stroke="#3498DB" stroke-width="4" fill="none"/>
  <path d="M 200, 400 L 200, 470" stroke="#3498DB" stroke-width="4" fill="none"/>
  <path d="M 260, 400 L 260, 470" stroke="#3498DB" stroke-width="4" fill="none"/>
  <path d="M 320, 400 L 320, 470" stroke="#3498DB" stroke-width="4" fill="none"/>
  <path d="M 380, 400 L 380, 470" stroke="#3498DB" stroke-width="4" fill="none"/>
  <circle cx="20" cy="400" r="10" fill="#3498DB"/>
  <circle cx="80" cy="400" r="10" fill="#3498DB"/>
  <circle cx="140" cy="400" r="10" fill="#3498DB"/>
  <circle cx="200" cy="400" r="10" fill="#3498DB"/>
  <circle cx="260" cy="400" r="10" fill="#3498DB"/>
  <circle cx="320" cy="400" r="10" fill="#3498DB"/>
  <circle cx="380" cy="400" r="10" fill="#3498DB"/>
  <rect x="10" y="430" width="400" height="30" fill="#F9F9F9" rx="10"/>
  <rect x="10" y="480" width="400" height="30" fill="#F9F9F9" rx="10"/>
  <path d="M 20, 450 L 20, 520" stroke="#3498DB" stroke-width="4" fill="none"/>
  <path d="M 80, 450 L 80, 520" stroke="#3498DB" stroke-width="4" fill="none"/>
  <path d="M 140, 450 L 140, 520" stroke="#3498DB" stroke-width="4" fill="none"/>
  <path d="M 200, 450 L 200, 520" stroke="#3498DB" stroke-width="4" fill="none"/>
  <path d="M 260, 450 L 260, 520" stroke="#3498DB" stroke-width="4" fill="none"/>
  <path d="M 320, 450 L 320, 520" stroke="#3498DB" stroke-width="4" fill="none"/>
  <path d="M 380, 450 L 380, 520" stroke="#3498DB" stroke-width="4" fill="none"/>
  <circle cx="20" cy="450" r="10" fill="#3498DB"/>
  <circle cx="80" cy="450" r="10" fill="#3498DB"/>
  <circle cx="140" cy="450" r="10" fill="#3498DB"/>
  <circle cx="200" cy="450" r="10" fill="#3498DB"/>
  <circle cx="260" cy="450" r="10" fill="#3498DB"/>
  <circle cx="320" cy="450" r="10" fill="#3498DB"/>
  <circle cx="380" cy="450" r="10" fill="#3498DB"/>
  <text x="10" y="10" font-size="36" font-family="Arial, sans-serif" fill="#3498DB">Chapter 7: Requirements Engineering</text>
  <text x="10" y="60" font-size="24" font-family="Arial, sans-serif" fill="#666666">Chapter 7: 71-73</text>
  <text x="10" y="100" font-size="18" font-family="Arial, sans-serif" fill="#666666">Introduction to Requirements Engineering</text>
  <text x="10" y="130" font-size="18" font-family="Arial, sans-serif" fill="#666666">Definition of Requirements Engineering</text>
  <text x="10" y="160" font-size="18" font-family="Arial, sans-serif" fill="#666666">Importance of Requirements Engineering</text>
  <text x="10" y="190" font-size="18" font-family="Arial, sans-serif" fill="#666666">Types of Requirements</text>
  <rect x="10" y="220" width="400" height="30" fill="#F9F9F9" rx="10"/>
  <text x="10" y="260" font-size="18" font-family="Arial, sans-serif" fill="#333333">Functional Requirements</text>
  <text x="10" y="290" font-size="18" font-family="Arial, sans-serif" fill="#333333">Non-Functional Requirements</text>
  <text x="10" y="320" font-size="18" font-family="Arial, sans-serif" fill="#333333">Usability Requirements</text>
  <text x="10" y="350" font-size="18" font-family="Arial, sans-serif" fill="#333333">Environmental Requirements</text>
  <text x="10" y="380" font-size="18" font-family="Arial, sans-serif" fill="#333333">Requirements Engineering Process</text>
  <rect x="10" y="410" width="400" height="30" fill="#F9F9F9" rx="10"/>
  <text x="10" y="450" font-size="18" font-family="Arial, sans-serif" fill="#333333">Planning</text>
  <text x="10" y="480" font-size="18" font-family="Arial, sans-serif" fill="#333333">Stakeholder Analysis</text>
  <text x="10" y="510" font-size="18" font-family="Arial, sans-serif" fill="#333333">Requirements Gathering</text>
  <text x="10" y="540" font-size="18" font-family="Arial, sans-serif" fill="#333333">Requirements Analysis</text>
  <text x="10" y="570" font-size="18" font-family="Arial, sans-serif" fill="#333333">Requirements Definition</text>
  <text x="10" y="600" font-size="18" font-family="Arial, sans-serif" fill="#333333">Requirements Documentation</text>
  <text x="10" y="630" font-size="18" font-family="Arial, sans-serif" fill="#333333">Requirements Maintenance</text>
  <rect x="10" y="660" width="400" height="30" fill="#F9F9F9" rx="10"/>
  <text x="10" y="700" font-size="18" font-family="Arial, sans-serif" fill="#333333">Requirements Gathering Techniques</text>
  <rect x="10" y="730" width="400" height="30" fill="#F9F9F9" rx="10"/>
  <text x="10" y="770" font-size="18" font-family="Arial, sans-serif" fill="#333333">Interviews</text>
  <rect x="10" y="810" width="400" height="30" fill="#F9F9F9" rx="10"/>
  <text x="10" y="850" font-size="18" font-family="Arial, sans-serif" fill="#333333">Surveys</text>
  <rect x="10" y="890" width="400" height="30" fill="#F9F9F9" rx="10"/>
  <text x="10" y="930" font-size="18" font-family="Arial, sans-serif" fill="#333333">Observation</text>
</svg>