<svg xmlns="http://www.w3.org/2000/svg" viewBox="0 0 800 1580">
  <defs>
    <!-- Gradients -->
    <linearGradient id="blueGrad" x1="0%" y1="0%" x2="100%" y2="100%">
      <stop offset="0%" style="stop-color:#e3f2fd"/>
      <stop offset="100%" style="stop-color:#bbdefb"/>
    </linearGradient>
    <linearGradient id="greenGrad" x1="0%" y1="0%" x2="100%" y2="100%">
      <stop offset="0%" style="stop-color:#e8f5e9"/>
      <stop offset="100%" style="stop-color:#c8e6c9"/>
    </linearGradient>
    <linearGradient id="orangeGrad" x1="0%" y1="0%" x2="100%" y2="100%">
      <stop offset="0%" style="stop-color:#fff3e0"/>
      <stop offset="100%" style="stop-color:#ffe0b2"/>
    </linearGradient>
    <linearGradient id="purpleGrad" x1="0%" y1="0%" x2="100%" y2="100%">
      <stop offset="0%" style="stop-color:#f3e5f5"/>
      <stop offset="100%" style="stop-color:#e1bee7"/>
    </linearGradient>
    <linearGradient id="redGrad" x1="0%" y1="0%" x2="100%" y2="100%">
      <stop offset="0%" style="stop-color:#ffebee"/>
      <stop offset="100%" style="stop-color:#ffcdd2"/>
    </linearGradient>
    <linearGradient id="sparkGrad" x1="0%" y1="0%" x2="100%" y2="0%">
      <stop offset="0%" style="stop-color:#ff6b6b"/>
      <stop offset="50%" style="stop-color:#feca57"/>
      <stop offset="100%" style="stop-color:#48dbfb"/>
    </linearGradient>
    
    <!-- Arrow Marker -->
    <marker id="arrowBlue" markerWidth="10" markerHeight="10" refX="9" refY="3" orient="auto" markerUnits="strokeWidth">
      <path d="M0,0 L0,6 L9,3 z" fill="#1976d2"/>
    </marker>
    <marker id="arrowOrange" markerWidth="10" markerHeight="10" refX="9" refY="3" orient="auto" markerUnits="strokeWidth">
      <path d="M0,0 L0,6 L9,3 z" fill="#ff9800"/>
    </marker>
    
    <!-- Shadow Filter -->
    <filter id="shadow" x="-20%" y="-20%" width="140%" height="140%">
      <feDropShadow dx="2" dy="2" stdDeviation="3" flood-opacity="0.15"/>
    </filter>
  </defs>
  
  <style>
    @keyframes fadeInSlide {
      from { opacity: 0; transform: translateY(20px); }
      to { opacity: 1; transform: translateY(0); }
    }
    @keyframes scaleIn {
      from { opacity: 0; transform: scale(0.85); }
      to { opacity: 1; transform: scale(1); }
    }
    @keyframes textReveal {
      from { opacity: 0; transform: translateX(-10px); }
      to { opacity: 1; transform: translateX(0); }
    }
    @keyframes pulse {
      0%, 100% { transform: scale(1); }
      50% { transform: scale(1.03); }
    }
    @keyframes drawLine {
      from { stroke-dashoffset: 300; }
      to { stroke-dashoffset: 0; }
    }
    @keyframes fillIn {
      from { opacity: 0; }
      to { opacity: 1; }
    }
    .step { animation: fadeInSlide 0.6s ease-out; }
    .step rect { animation: scaleIn 0.5s cubic-bezier(0.34, 1.56, 0.64, 1); transform-origin: center; }
    .step text { animation: textReveal 0.4s ease-out 0.2s backwards; }
    .title { font-size: 16px; font-weight: bold; fill: #333; }
    .subtitle { font-size: 12px; fill: #666; }
    .body-text { font-size: 10px; fill: #444; }
    .code-text { font-size: 8px; font-family: monospace; fill: #555; }
    .label { font-size: 9px; font-weight: bold; fill: #333; }
    .highlight { fill: #1976d2; }
    .animated-line {
      stroke-dasharray: 300;
      stroke-dashoffset: 300;
      animation: drawLine 1s ease-out forwards;
    }
  </style>
  
  <!-- Background -->
  <rect width="800" height="1580" fill="#f8f9fa"/>
  
  <!-- Step 0: Title -->
  <g class="step" id="step0" data-narration="Apache Spark is a unified analytics engine providing 10-100x faster processing than MapReduce through in-memory computing.">
    <rect x="0" y="0" width="800" height="50" fill="url(#sparkGrad)" rx="0"/>
    <text x="400" y="32" text-anchor="middle" class="title" fill="white" font-size="22">Apache Spark</text>
  </g>
  
  <!-- Step 1: What is Spark -->
  <g class="step" id="step1" data-narration="Apache Spark provides unified batch and stream processing with high-level APIs in Python, Scala, Java, and R for large-scale data analytics.">
    <rect x="20" y="60" width="760" height="90" fill="url(#blueGrad)" rx="10" filter="url(#shadow)"/>
    <text x="40" y="85" class="title">What is Apache Spark?</text>
    <text x="40" y="105" class="body-text">Unified analytics engine for large-scale data processing</text>
    <text x="40" y="120" class="body-text">• 10-100x faster than MapReduce through in-memory computing</text>
    <text x="40" y="135" class="body-text">• Supports batch, streaming, ML, and graph analytics</text>
    <!-- Spark logo circle -->
    <circle cx="700" cy="105" r="25" fill="#ff6b6b" opacity="0.2">
      <animate attributeName="r" values="25;28;25" dur="2s" repeatCount="indefinite"/>
    </circle>
    <text x="700" y="110" text-anchor="middle" fill="#ff6b6b" font-size="24" font-weight="bold">SP</text>
  </g>
  
  <!-- Step 2: Key Characteristics -->
  <g class="step" id="step2" data-narration="Spark offers in-memory computing, a unified platform, ease of use with high-level APIs, fault tolerance through RDD lineage, and massive scalability.">
    <rect x="20" y="160" width="760" height="90" fill="url(#greenGrad)" rx="10" filter="url(#shadow)"/>
    <text x="40" y="185" class="title">Key Characteristics</text>
    <rect x="40" y="200" width="140" height="40" fill="white" rx="5"/>
    <text x="50" y="215" class="label">In-Memory</text>
    <text x="50" y="230" class="body-text">10-100x faster</text>
    
    <rect x="190" y="200" width="140" height="40" fill="white" rx="5"/>
    <text x="200" y="215" class="label">Unified Platform</text>
    <text x="200" y="230" class="body-text">Batch + Stream + ML</text>
    
    <rect x="340" y="200" width="140" height="40" fill="white" rx="5"/>
    <text x="350" y="215" class="label">Easy APIs</text>
    <text x="350" y="230" class="body-text">Python, Scala, Java</text>
    
    <rect x="490" y="200" width="140" height="40" fill="white" rx="5"/>
    <text x="500" y="215" class="label">Fault Tolerant</text>
    <text x="500" y="230" class="body-text">RDD Lineage</text>
    
    <rect x="640" y="200" width="140" height="40" fill="white" rx="5"/>
    <text x="650" y="215" class="label">Scalable</text>
    <text x="650" y="230" class="body-text">1 to 10K+ nodes</text>
  </g>
  
  <!-- Step 3: Spark Architecture -->
  <g class="step" id="step3" data-narration="Spark architecture consists of a Driver Program with SparkContext that connects to a Cluster Manager, coordinating Executors on Worker Nodes.">
    <rect x="20" y="260" width="760" height="115" fill="url(#orangeGrad)" rx="10" filter="url(#shadow)"/>
    <text x="40" y="285" class="title">Spark Architecture</text>
    
    <!-- Driver -->
    <rect x="320" y="300" width="160" height="60" fill="white" rx="8"/>
    <text x="400" y="320" text-anchor="middle" class="label">Driver Program</text>
    <rect x="350" y="328" width="100" height="24" fill="#e3f2fd" rx="4"/>
    <text x="400" y="344" text-anchor="middle" class="body-text" font-size="9">SparkContext</text>
    
    <!-- Cluster Manager -->
    <rect x="50" y="300" width="120" height="45" fill="white" rx="8"/>
    <text x="110" y="320" text-anchor="middle" class="label">Cluster Manager</text>
    <text x="110" y="335" text-anchor="middle" class="body-text" font-size="8">(YARN/Mesos)</text>
    
    <!-- Connecting lines -->
    <path d="M170 322 L345 322" stroke="#ff9800" stroke-width="2" marker-end="url(#arrowOrange)" class="animated-line"/>
    
    <!-- Worker Nodes -->
    <rect x="50" y="365" width="200" height="60" fill="white" rx="8"/>
    <text x="150" y="385" text-anchor="middle" class="label">Worker Node 1</text>
    <rect x="60" y="395" width="80" height="22" fill="#e8f5e9" rx="4"/>
    <text x="100" y="409" text-anchor="middle" class="body-text" font-size="8">Executor</text>
    <rect x="150" y="395" width="80" height="22" fill="#e8f5e9" rx="4"/>
    <text x="190" y="409" text-anchor="middle" class="body-text" font-size="8">Task</text>
    
    <rect x="270" y="365" width="200" height="60" fill="white" rx="8"/>
    <text x="370" y="385" text-anchor="middle" class="label">Worker Node 2</text>
    <rect x="280" y="395" width="80" height="22" fill="#e8f5e9" rx="4"/>
    <text x="320" y="409" text-anchor="middle" class="body-text" font-size="8">Executor</text>
    <rect x="370" y="395" width="80" height="22" fill="#e8f5e9" rx="4"/>
    <text x="410" y="409" text-anchor="middle" class="body-text" font-size="8">Task</text>
    
    <!-- Driver to Workers -->
    <path d="M400 360 L150 365" stroke="#ff9800" stroke-width="1.5" class="animated-line" style="animation-delay: 0.2s"/>
    <path d="M400 360 L370 365" stroke="#ff9800" stroke-width="1.5" class="animated-line" style="animation-delay: 0.3s"/>
  </g>
  
  <!-- Step 4: Driver & SparkContext -->
  <g class="step" id="step4" data-narration="The Driver Program creates SparkContext, the entry point that connects to cluster manager and transforms user code into parallel tasks.">
    <rect x="20" y="385" width="760" height="90" fill="url(#purpleGrad)" rx="10" filter="url(#shadow)"/>
    <text x="40" y="410" class="title">Driver Program &amp; SparkContext</text>
    
    <!-- Flow diagram -->
    <rect x="40" y="425" width="160" height="40" fill="white" rx="8"/>
    <text x="120" y="445" text-anchor="middle" class="label">User Code</text>
    <text x="120" y="458" text-anchor="middle" class="body-text" font-size="8">Python/Scala/Java</text>
    
    <path d="M200 445 L260 445" stroke="#9c27b0" stroke-width="2" marker-end="url(#arrowOrange)"/>
    
    <rect x="270" y="425" width="160" height="40" fill="white" rx="8"/>
    <text x="350" y="445" text-anchor="middle" class="label">SparkContext</text>
    <text x="350" y="458" text-anchor="middle" class="body-text" font-size="8">Entry Point</text>
    
    <path d="M430 445 L490 445" stroke="#9c27b0" stroke-width="2" marker-end="url(#arrowOrange)"/>
    
    <rect x="500" y="425" width="160" height="40" fill="white" rx="8"/>
    <text x="580" y="445" text-anchor="middle" class="label">DAG Scheduler</text>
    <text x="580" y="458" text-anchor="middle" class="body-text" font-size="8">Task Scheduling</text>
    
    <path d="M660 445 L720 445" stroke="#9c27b0" stroke-width="2" marker-end="url(#arrowOrange)"/>
    
    <rect x="580" y="425" width="160" height="40" fill="white" rx="8" x="730"/>
  </g>
  
  <!-- Step 5: Cluster Manager & Workers -->
  <g class="step" id="step5" data-narration="Cluster Managers like YARN, Mesos, or Kubernetes allocate resources. Worker Nodes run Executors that process tasks and store cached data.">
    <rect x="20" y="485" width="760" height="90" fill="url(#redGrad)" rx="10" filter="url(#shadow)"/>
    <text x="40" y="510" class="title">Cluster Manager &amp; Worker Nodes</text>
    
    <!-- Cluster Manager Options -->
    <rect x="40" y="525" width="180" height="40" fill="white" rx="5"/>
    <text x="130" y="545" text-anchor="middle" class="label">Cluster Manager</text>
    <text x="130" y="558" text-anchor="middle" class="body-text" font-size="8">YARN | Mesos | K8s | Standalone</text>
    
    <path d="M220 545 L290 545" stroke="#f44336" stroke-width="2" marker-end="url(#arrowOrange)"/>
    
    <!-- Worker Node -->
    <rect x="300" y="520" width="220" height="45" fill="white" rx="8"/>
    <text x="410" y="540" text-anchor="middle" class="label">Worker Node</text>
    <text x="410" y="555" text-anchor="middle" class="body-text" font-size="8">Executes Tasks | Stores Data</text>
    
    <path d="M520 545 L590 545" stroke="#f44336" stroke-width="2" marker-end="url(#arrowOrange)"/>
    
    <!-- Executor -->
    <rect x="600" y="525" width="150" height="40" fill="white" rx="5"/>
    <text x="675" y="545" text-anchor="middle" class="label">Executor</text>
    <text x="675" y="558" text-anchor="middle" class="body-text" font-size="8">Runs Tasks in Threads</text>
  </g>
  
  <!-- Step 6: RDD Basics -->
  <g class="step" id="step6" data-narration="RDDs (Resilient Distributed Datasets) are immutable, distributed collections that provide fault tolerance through lineage-based recovery.">
    <rect x="20" y="585" width="760" height="105" fill="url(#blueGrad)" rx="10" filter="url(#shadow)"/>
    <text x="40" y="610" class="title">RDD - Resilient Distributed Dataset</text>
    
    <!-- RDD Definition -->
    <text x="40" y="635" class="body-text">Core abstraction in Spark - immutable, distributed collection of objects</text>
    
    <!-- Three Properties -->
    <rect x="40" y="650" width="230" height="30" fill="white" rx="5"/>
    <text x="55" y="665" class="label" fill="#388e3c">R - Resilient</text>
    <text x="150" y="665" class="body-text">Fault-tolerant via lineage</text>
    
    <rect x="280" y="650" width="230" height="30" fill="white" rx="5"/>
    <text x="295" y="665" class="label" fill="#1976d2">D - Distributed</text>
    <text x="400" y="665" class="body-text">Partitioned across cluster</text>
    
    <rect x="520" y="650" width="230" height="30" fill="white" rx="5"/>
    <text x="535" y="665" class="label" fill="#ff9800">D - Dataset</text>
    <text x="640" y="665" class="body-text">Collection of objects</text>
    
    <!-- Visual representation -->
    <rect x="200" y="685" width="400" height="45" fill="white" rx="8" stroke="#1976d2" stroke-width="1"/>
    <text x="400" y="705" text-anchor="middle" class="body-text">Partition 1</text>
    <text x="400" y="720" text-anchor="middle" class="body-text">[1, 2, 3] | [4, 5] | [6, 7, 8]</text>
    <text x="400" y="732" text-anchor="middle" class="body-text" fill="#666" font-size="8">Distributed across worker nodes</text>
  </g>
  
  <!-- Step 7: Transformations -->
  <g class="step" id="step7" data-narration="Transformations are lazy operations like map, filter, and flatMap that create new RDDs without immediate execution, building the computation DAG.">
    <rect x="20" y="700" width="760" height="90" fill="url(#greenGrad)" rx="10" filter="url(#shadow)"/>
    <text x="40" y="725" class="title">Transformations (Lazy)</text>
    <text x="40" y="745" class="body-text">Create new RDD - not executed immediately - builds DAG</text>
    
    <!-- Examples -->
    <rect x="40" y="755" width="140" height="25" fill="white" rx="5"/>
    <text x="50" y="770" class="code-text">map(x => x * 2)</text>
    
    <rect x="190" y="755" width="140" height="25" fill="white" rx="5"/>
    <text x="200" y="770" class="code-text">filter(x > 10)</text>
    
    <rect x="340" y="755" width="140" height="25" fill="white" rx="5"/>
    <text x="350" y="770" class="code-text">flatMap(_.split)</text>
    
    <rect x="490" y="755" width="140" height="25" fill="white" rx="5"/>
    <text x="500" y="770" class="code-text">union(rdd2)</text>
    
    <rect x="640" y="755" width="140" height="25" fill="white" rx="5"/>
    <text x="650" y="770" class="code-text">distinct()</text>
  </g>
  
  <!-- Step 8: Actions -->
  <g class="step" id="step8" data-narration="Actions are eager operations like count, collect, and reduce that trigger execution of the entire DAG, returning results to the driver.">
    <rect x="20" y="800" width="760" height="90" fill="url(#orangeGrad)" rx="10" filter="url(#shadow)"/>
    <text x="40" y="825" class="title">Actions (Eager)</text>
    <text x="40" y="845" class="body-text">Trigger computation - execute transformations in DAG - return results</text>
    
    <!-- Examples -->
    <rect x="40" y="855" width="140" height="25" fill="white" rx="5"/>
    <text x="50" y="870" class="code-text">count()</text>
    <text x="170" y="870" class="body-text" fill="#666" font-size="8">→ 42</text>
    
    <rect x="190" y="855" width="140" height="25" fill="white" rx="5"/>
    <text x="200" y="870" class="code-text">collect()</text>
    <text x="320" y="870" class="body-text" fill="#666" font-size="8">→ Array</text>
    
    <rect x="340" y="855" width="140" height="25" fill="white" rx="5"/>
    <text x="350" y="870" class="code-text">reduce(func)</text>
    <text x="470" y="870" class="body-text" fill="#666" font-size="8">→ Single value</text>
    
    <rect x="490" y="855" width="140" height="25" fill="white" rx="5"/>
    <text x="500" y="870" class="code-text">take(10)</text>
    <text x="620" y="870" class="body-text" fill="#666" font-size="8">→ First 10</text>
    
    <rect x="640" y="855" width="140" height="25" fill="white" rx="5"/>
    <text x="650" y="870" class="code-text">saveAsTextFile()</text>
  </g>
  
  <!-- Step 9: Lazy Evaluation & DAG -->
  <g class="step" id="step9" data-narration="Spark uses lazy evaluation - transformations build a DAG of operations, and only when an action is called does Spark execute the entire plan.">
    <rect x="20" y="900" width="760" height="100" fill="url(#purpleGrad)" rx="10" filter="url(#shadow)"/>
    <text x="40" y="925" class="title">Lazy Evaluation &amp; DAG</text>
    <text x="40" y="945" class="body-text">Transformations build DAG | Actions trigger execution</text>
    
    <!-- DAG Visual -->
    <rect x="60" y="955" width="80" height="35" fill="white" rx="5" stroke="#9c27b0"/>
    <text x="100" y="970" text-anchor="middle" class="body-text" font-size="8">textFile</text>
    <text x="100" y="982" text-anchor="middle" class="body-text" font-size="8">"data.txt"</text>
    
    <path d="M140 972 L180 972" stroke="#9c27b0" stroke-width="1.5" marker-end="url(#arrowOrange)"/>
    
    <rect x="190" y="955" width="80" height="35" fill="white" rx="5" stroke="#9c27b0"/>
    <text x="230" y="970" text-anchor="middle" class="body-text" font-size="8">filter</text>
    <text x="230" y="982" text-anchor="middle" class="body-text" font-size="8">"ERROR"</text>
    
    <path d="M270 972 L310 972" stroke="#9c27b0" stroke-width="1.5" marker-end="url(#arrowOrange)"/>
    
    <rect x="320" y="955" width="80" height="35" fill="white" rx="5" stroke="#9c27b0"/>
    <text x="360" y="970" text-anchor="middle" class="body-text" font-size="8">map</text>
    <text x="360" y="982" text-anchor="middle" class="body-text" font-size="8">split()</text>
    
    <path d="M400 972 L440 972" stroke="#9c27b0" stroke-width="1.5" marker-end="url(#arrowOrange)"/>
    
    <rect x="450" y="955" width="80" height="35" fill="#ff9800" rx="5"/>
    <text x="490" y="970" text-anchor="middle" class="label" fill="white">ACTION</text>
    <text x="490" y="982" text-anchor="middle" class="body-text" fill="white" font-size="8">count()</text>
    
    <!-- Arrow down showing execution -->
    <path d="M490 990 L490 1015" stroke="#ff9800" stroke-width="2"/>
    <text x="490" y="1028" text-anchor="middle" class="body-text" fill="#ff9800">Execution triggered!</text>
  </g>
  
  <!-- Step 10: Spark SQL & DataFrames -->
  <g class="step" id="step10" data-narration="Spark SQL provides structured data handling through DataFrames with schema, enabling SQL queries on distributed data for IoT analytics.">
    <rect x="20" y="1010" width="760" height="100" fill="url(#blueGrad)" rx="10" filter="url(#shadow)"/>
    <text x="40" y="1035" class="title">Spark SQL &amp; DataFrames</text>
    <text x="40" y="1055" class="body-text">Higher-level abstraction with schema - SQL queries on structured data</text>
    
    <!-- Schema -->
    <rect x="40" y="1065" width="300" height="35" fill="white" rx="5"/>
    <text x="50" y="1080" class="body-text" font-size="9">root</text>
    <text x="70" y="1095" class="code-text" font-size="8">|-- sensor_id: string</text>
    <text x="70" y="1105" class="code-text" font-size="8">|-- temperature: double</text>
    <text x="70" y="1115" class="code-text" font-size="8">|-- timestamp: timestamp</text>
    
    <!-- Operations -->
    <rect x="360" y="1065" width="180" height="35" fill="white" rx="5"/>
    <text x="370" y="1080" class="label">DataFrame Operations</text>
    <text x="370" y="1095" class="body-text" font-size="8">select() | filter() | groupBy() | agg()</text>
    
    <!-- SQL Query -->
    <rect x="550" y="1065" width="210" height="35" fill="white" rx="5"/>
    <text x="560" y="1080" class="label">SQL Query</text>
    <text x="560" y="1095" class="body-text" font-size="8">SELECT sensor_id, AVG(temp)</text>
    <text x="560" y="1105" class="body-text" font-size="8">FROM sensors GROUP BY sensor_id</text>
  </g>
  
  <!-- Step 11: Spark Streaming -->
  <g class="step" id="step11" data-narration="Spark Streaming divides input streams into micro-batches called DStreams, each processed as an RDD for near real-time analytics.">
    <rect x="20" y="1120" width="760" height="100" fill="url(#greenGrad)" rx="10" filter="url(#shadow)"/>
    <text x="40" y="1145" class="title">Spark Streaming - Micro-Batch Processing</text>
    <text x="40" y="1165" class="body-text">DStreams divide stream into micro-batches - each processed as RDD</text>
    
    <!-- Stream visualization -->
    <rect x="50" y="1175" width="120" height="35" fill="white" rx="5"/>
    <text x="110" y="1190" text-anchor="middle" class="body-text" font-size="8">Input Stream</text>
    <text x="110" y="1203" text-anchor="middle" class="body-text" font-size="8">Sensor Data</text>
    
    <path d="M170 1192 L210 1192" stroke="#388e3c" stroke-width="2" marker-end="url(#arrowOrange)"/>
    
    <!-- Micro-batches -->
    <rect x="220" y="1175" width="60" height="35" fill="#e8f5e9" rx="5" stroke="#388e3c"/>
    <text x="250" y="1190" text-anchor="middle" class="body-text" font-size="7">Batch 1</text>
    <text x="250" y="1203" text-anchor="middle" class="body-text" font-size="7">RDD</text>
    
    <rect x="285" y="1175" width="60" height="35" fill="#e8f5e9" rx="5" stroke="#388e3c"/>
    <text x="315" y="1190" text-anchor="middle" class="body-text" font-size="7">Batch 2</text>
    <text x="315" y="1203" text-anchor="middle" class="body-text" font-size="7">RDD</text>
    
    <rect x="350" y="1175" width="60" height="35" fill="#e8f5e9" rx="5" stroke="#388e3c"/>
    <text x="380" y="1190" text-anchor="middle" class="body-text" font-size="7">Batch 3</text>
    <text x="380" y="1203" text-anchor="middle" class="body-text" font-size="7">RDD</text>
    
    <text x="430" y="1195" class="body-text" fill="#666">... continuous</text>
    
    <!-- Processing -->
    <path d="M500 1192 L550 1192" stroke="#388e3c" stroke-width="2" marker-end="url(#arrowOrange)"/>
    
    <rect x="560" y="1175" width="190" height="35" fill="#388e3c" rx="5"/>
    <text x="655" y="1190" text-anchor="middle" class="label" fill="white">Processing</text>
    <text x="655" y="1205" text-anchor="middle" class="body-text" fill="white" font-size="8">map | reduceByKey | window</text>
  </g>
  
  <!-- Step 12: MLlib -->
  <g class="step" id="step12" data-narration="MLlib provides scalable machine learning algorithms for classification, regression, clustering, and collaborative filtering for IoT predictive analytics.">
    <rect x="20" y="1230" width="760" height="90" fill="url(#redGrad)" rx="10" filter="url(#shadow)"/>
    <text x="40" y="1255" class="title">MLlib - Machine Learning Library</text>
    <text x="40" y="1275" class="body-text">Scalable ML algorithms for predictive IoT analytics</text>
    
    <!-- ML Categories -->
    <rect x="40" y="1285" width="170" height="25" fill="white" rx="5"/>
    <text x="55" y="1300" class="label">Classification</text>
    <text x="130" y="1300" class="body-text" font-size="8">LogReg, DecisionTree</text>
    
    <rect x="220" y="1285" width="170" height="25" fill="white" rx="5"/>
    <text x="235" y="1300" class="label">Regression</text>
    <text x="310" y="1300" class="body-text" font-size="8">LinearReg, RF</text>
    
    <rect x="400" y="1285" width="170" height="25" fill="white" rx="5"/>
    <text x="415" y="1300" class="label">Clustering</text>
    <text x="490" y="1300" class="body-text" font-size="8">K-means, GMM</text>
    
    <rect x="580" y="1285" width="180" height="25" fill="white" rx="5"/>
    <text x="595" y="1300" class="label">Recommender</text>
    <text x="670" y="1300" class="body-text" font-size="8">ALS</text>
  </g>
  
  <!-- Step 13: Key Takeaways -->
  <g class="step" id="step13" data-narration="Key points: Spark is 10-100x faster than MapReduce through in-memory computing with unified batch and stream processing capabilities.">
    <rect x="20" y="1330" width="760" height="100" fill="url(#sparkGrad)" rx="10" filter="url(#shadow)"/>
    <text x="40" y="1355" class="title" fill="white">Key Takeaways</text>
    
    <!-- Takeaways -->
    <rect x="40" y="1370" width="350" height="50" fill="white" rx="8" opacity="0.9"/>
    <text x="55" y="1388" class="label" fill="#ff6b6b">10-100x Faster</text>
    <text x="55" y="1405" class="body-text">In-memory computing vs MapReduce disk-based</text>
    <text x="55" y="1418" class="body-text">Avoids repeated disk I/O for iterative jobs</text>
    
    <rect x="400" y="1370" width="350" height="50" fill="white" rx="8" opacity="0.9"/>
    <text x="415" y="1388" class="label" fill="#48dbfb">Unified Platform</text>
    <text x="415" y="1405" class="body-text">Batch + Stream + ML + Graph in one framework</text>
    <text x="415" y="1418" class="body-text">Same code for batch and real-time processing</text>
  </g>
  
  <!-- Step 14: Summary Comparison -->
  <g class="step" id="step14" data-narration="Spark outperforms MapReduce in speed, memory usage, iterative jobs, interactive queries, and ease of use while providing unified processing.">
    <rect x="20" y="1440" width="760" height="80" fill="url(#blueGrad)" rx="10" filter="url(#shadow)"/>
    <text x="40" y="1465" class="title">Spark vs MapReduce Summary</text>
    
    <!-- Comparison Table -->
    <rect x="40" y="1475" width="720" height="35" fill="white" rx="5"/>
    <text x="60" y="1492" class="label">Aspect</text>
    <text x="200" y="1492" class="label">Spark</text>
    <text x="400" y="1492" class="label">MapReduce</text>
    <text x="600" y="1492" class="label">IoT Benefit</text>
    
    <rect x="40" y="1505" width="720" height="8" fill="#e0e0e0"/>
    
    <text x="60" y="1513" class="body-text" font-size="8">Speed</text>
    <text x="200" y="1513" class="body-text" font-size="8" fill="#388e3c">10-100x faster</text>
    <text x="400" y="1513" class="body-text" font-size="8" fill="#f44336">Baseline</text>
    <text x="600" y="1513" class="body-text" font-size="8">Real-time insights</text>
  </g>
</svg>