<svg width="420" height="400" data-topic-id="atomic-commit-protocols- concurrency-control-in-distributed-transactions">
  <title>Atomic Commit Protocols Concurrency Control in Distributed Transactions</title>
  <defs>
    <linearGradient id="pastel-gradient" x1="0%" y1="0%" x2="100%" y2="0%">
      <stop offset="0%" stop-color="#ACCBEA" stop-opacity="1" />
      <stop offset="100%" stop-color="#B0C4DE" stop-opacity="1" />
    </linearGradient>
  </defs>
  <rect x="10" y="10" width="400" height="380" fill="url(#pastel-gradient)" stroke="#4E5166" stroke-width="2" rx="10" />
  <g transform="translate(10, 20)">
    <rect x="0" y="0" width="100" height="30" fill="#E5E5EA" rx="5" />
    <rect x="0" y="30" width="100" height="30" fill="#F7F7F7" rx="5" />
    <rect x="0" y="60" width="100" height="30" fill="#E5E5EA" rx="5" />
    <rect x="0" y="90" width="100" height="30" fill="#F7F7F7" rx="5" />
    <rect x="0" y="120" width="100" height="30" fill="#E5E5EA" rx="5" />
    <rect x="0" y="150" width="100" height="30" fill="#F7F7F7" rx="5" />
  </g>
  <g transform="translate(130, 50)">
    <text x="50" y="50" font-size="18" font-family="Arial" font-weight="bold" text-anchor="middle">Two-Phase Commit (2PC)</text>
    <animateTransform attributeName="transform" type="translate" from="0,0" to="0,50" dur="1s" begin="0s" />
    <g>
      <rect x="0" y="0" width="60" height="20" fill="#34A85A" rx="5" />
      <text x="10" y="10" font-size="12" font-family="Arial" font-weight="normal" text-anchor="start">Prepare Phase</text>
      <animateTransform attributeName="transform" type="translate" from="0,0" to="0,20" dur="1s" begin="0s" />
    </g>
    <g>
      <rect x="70" y="0" width="60" height="20" fill="#34A85A" rx="5" />
      <text x="80" y="10" font-size="12" font-family="Arial" font-weight="normal" text-anchor="start">Commit Phase</text>
      <animateTransform attributeName="transform" type="translate" from="0,0" to="0,20" dur="1s" begin="1s" />
    </g>
  </g>
  <g transform="translate(260, 50)">
    <text x="50" y="50" font-size="18" font-family="Arial" font-weight="bold" text-anchor="middle">Three-Phase Commit (3PC)</text>
    <animateTransform attributeName="transform" type="translate" from="0,0" to="0,50" dur="1s" begin="1s" />
    <g>
      <rect x="0" y="0" width="60" height="20" fill="#34A85A" rx="5" />
      <text x="10" y="10" font-size="12" font-family="Arial" font-weight="normal" text-anchor="start">Preparation Phase</text>
      <animateTransform attributeName="transform" type="translate" from="0,0" to="0,20" dur="1s" begin="1s" />
    </g>
    <g>
      <rect x="70" y="0" width="60" height="20" fill="#34A85A" rx="5" />
      <text x="80" y="10" font-size="12" font-family="Arial" font-weight="normal" text-anchor="start">Commit Phase</text>
      <animateTransform attributeName="transform" type="translate" from="0,0" to="0,20" dur="1s" begin="2s" />
    </g>
    <g>
      <rect x="130" y="0" width="60" height="20" fill="#34A85A" rx="5" />
      <text x="140" y="10" font-size="12" font-family="Arial" font-weight="normal" text-anchor="start">Abort Phase</text>
      <animateTransform attributeName="transform" type="translate" from="0,0" to="0,20" dur="1s" begin="3s" />
    </g>
  </g>
  <g transform="translate(10, 220)">
    <rect x="0" y="0" width="100" height="30" fill="#E5E5EA" rx="5" />
    <rect x="0" y="30" width="100" height="30" fill="#F7F7F7" rx="5" />
    <rect x="0" y="60" width="100" height="30" fill="#E5E5EA" rx="5" />
    <rect x="0" y="90" width="100" height="30" fill="#F7F7F7" rx="5" />
    <rect x="0" y="120" width="100" height="30" fill="#E5E5EA" rx="5" />
    <rect x="0" y="150" width="100" height="30" fill="#F7F7F7" rx="5" />
  </g>
  <g transform="translate(130, 220)">
    <rect x="0" y="0" width="100" height="30" fill="#E5E5EA" rx="5" />
    <rect x="0" y="30" width="100" height="30" fill="#F7F7F7" rx="5" />
    <rect x="0" y="60" width="100" height="30" fill="#E5E5EA" rx="5" />
    <rect x="0" y="90" width="100" height="30" fill="#F7F7F7" rx="5" />
    <rect x="0" y="120" width="100" height="30" fill="#E5E5EA" rx="5" />
    <rect x="0" y="150" width="100" height="30" fill="#F7F7F7" rx="5" />
  </g>
  <g transform="translate(260, 220)">
    <rect x="0" y="0" width="100" height="30" fill="#E5E5EA" rx="5" />
    <rect x="0" y="30" width="100" height="30" fill="#F7F7F7" rx="5" />
    <rect x="0" y="60" width="100" height="30" fill="#E5E5EA" rx="5" />
    <rect x="0" y="90" width="100" height="30" fill="#F7F7F7" rx="5" />
    <rect x="0" y="120" width="100" height="30" fill="#E5E5EA" rx="5" />
    <rect x="0" y="150" width="100" height="30" fill="#F7F7F7" rx="5" />
  </g>
  <g transform="translate(10, 280)">
    <rect x="0" y="0" width="100" height="30" fill="#E5E5EA" rx="5" />
    <rect x="0" y="30" width="100" height="30" fill="#F7F7F7" rx="5" />
    <rect x="0" y="60" width="100" height="30" fill="#E5E5EA" rx="5" />
    <rect x="0" y="90" width="100" height="30" fill="#F7F7F7" rx="5" />
    <rect x="0" y="120" width="100" height="30" fill="#E5E5EA" rx="5" />
    <rect x="0" y="150" width="100" height="30" fill="#F7F7F7" rx="5" />
  </g>
  <g transform="translate(130, 280)">
    <rect x="0" y="0" width="100" height="30" fill="#E5E5EA" rx="5" />
    <rect x="0" y="30" width="100" height="30" fill="#F7F7F7" rx="5" />
    <rect x="0" y="60" width="100" height="30" fill="#E5E5EA" rx="5" />
    <rect x="0" y="90" width="100" height="30" fill="#F7F7F7" rx="5" />
    <rect x="0" y="120" width="100" height="30" fill="#E5E5EA" rx="5" />
    <rect x="0" y="150" width="100" height="30" fill="#F7F7F7" rx="5" />
  </g>
  <g transform="translate(260, 280)">
    <rect x="0" y="0" width="100" height="30" fill="#E5E5EA" rx="5" />
    <rect x="0" y="30" width="100" height="30" fill="#F7F7F7" rx="5" />
    <rect x="0" y="60" width="100" height="30" fill="#E5E5EA" rx="5" />
    <rect x="0" y="90" width="100" height="30" fill="#F7F7F7" rx="5" />
    <rect x="0" y="120" width="100" height="30" fill="#E5E5EA" rx="5" />
    <rect x="0" y="150" width="100" height="30" fill="#F7F7F7" rx="5" />
  </g>
  <g transform="translate(10, 340)">
    <text x="50" y="350" font-size="18" font-family="Arial" font-weight="bold" text-anchor="middle">Concurrency Control in Distributed Transactions</text>
    <animateTransform attributeName="transform" type="translate" from="0,0" to="0,50" dur="1s" begin="4s" />
  </g>
  <g transform="translate(130, 340)">
    <text x="50" y="350" font-size="18" font-family="Arial" font-weight="bold" text-anchor="middle">Definition</text>
    <animateTransform attributeName="transform" type="translate" from="0,0" to="0,50" dur="1s" begin="5s" />
    <g>
      <rect x="0" y="0" width="60" height="20" fill="#34A85A" rx="5" />
      <text x="10" y="10" font-size="12" font-family="Arial" font-weight="normal" text-anchor="start">Concurrency Control</text>
      <animateTransform attributeName="transform" type="translate" from="0,0" to="0,20" dur="1s" begin="5s" />
    </g>
  </g>
  <g transform="translate(260, 340)">
    <text x="50" y="350" font-size="18" font-family="Arial" font-weight="bold" text-anchor="middle">Types</text>
    <animateTransform attributeName="transform" type="translate" from="0,0" to="0,50" dur="1s" begin="6s" />
    <g>
      <rect x="0" y="0" width="60" height="20" fill="#34A85A" rx="5" />
      <text x="10" y="10" font-size="12" font-family="Arial" font-weight="normal" text-anchor="start">Synchronization</text>
      <animateTransform attributeName="transform" type="translate" from="0,0" to="0,20" dur="1s" begin="6s" />
    </g>
  </g>
  <g transform="translate(10, 390)">
    <text x="50" y="400" font-size="18" font-family="Arial" font-weight="bold" text-anchor="middle">Footer</text>
  </g>
</svg>