<svg viewBox="0 0 800 2000" xmlns="http://www.w3.org/2000/svg">
  <defs>
    <!-- Gradients -->
    <linearGradient id="titleGrad" x1="0%" y1="0%" x2="100%" y2="0%">
      <stop offset="0%" style="stop-color:#1565c0"/>
      <stop offset="100%" style="stop-color:#42a5f5"/>
    </linearGradient>
    <linearGradient id="blueGrad" x1="0%" y1="0%" x2="0%" y2="100%">
      <stop offset="0%" style="stop-color:#e3f2fd"/>
      <stop offset="100%" style="stop-color:#bbdefb"/>
    </linearGradient>
    <linearGradient id="greenGrad" x1="0%" y1="0%" x2="0%" y2="100%">
      <stop offset="0%" style="stop-color:#e8f5e9"/>
      <stop offset="100%" style="stop-color:#c8e6c9"/>
    </linearGradient>
    <linearGradient id="orangeGrad" x1="0%" y1="0%" x2="0%" y2="100%">
      <stop offset="0%" style="stop-color:#fff3e0"/>
      <stop offset="100%" style="stop-color:#ffe0b2"/>
    </linearGradient>
    <linearGradient id="purpleGrad" x1="0%" y1="0%" x2="0%" y2="100%">
      <stop offset="0%" style="stop-color:#f3e5f5"/>
      <stop offset="100%" style="stop-color:#e1bee7"/>
    </linearGradient>
    <linearGradient id="redGrad" x1="0%" y1="0%" x2="0%" y2="100%">
      <stop offset="0%" style="stop-color:#ffebee"/>
      <stop offset="100%" style="stop-color:#ffcdd2"/>
    </linearGradient>
    <linearGradient id="tealGrad" x1="0%" y1="0%" x2="0%" y2="100%">
      <stop offset="0%" style="stop-color:#e0f2f1"/>
      <stop offset="100%" style="stop-color:#b2dfdb"/>
    </linearGradient>
    <linearGradient id="amberGrad" x1="0%" y1="0%" x2="0%" y2="100%">
      <stop offset="0%" style="stop-color:#fff8e1"/>
      <stop offset="100%" style="stop-color:#ffecb3"/>
    </linearGradient>
    
    <!-- Arrow marker -->
    <marker id="arrowBlue" markerWidth="10" markerHeight="10" refX="9" refY="3" orient="auto">
      <path d="M0,0 L0,6 L9,3 z" fill="#1976d2"/>
    </marker>
    <marker id="arrowGreen" markerWidth="10" markerHeight="10" refX="9" refY="3" orient="auto">
      <path d="M0,0 L0,6 L9,3 z" fill="#388e3c"/>
    </marker>
    <marker id="arrowOrange" markerWidth="10" markerHeight="10" refX="9" refY="3" orient="auto">
      <path d="M0,0 L0,6 L9,3 z" fill="#ff9800"/>
    </marker>
    
    <!-- Shadow filter -->
    <filter id="shadow" x="-20%" y="-20%" width="140%" height="140%">
      <feDropShadow dx="2" dy="2" stdDeviation="3" flood-opacity="0.2"/>
    </filter>
  </defs>
  
  <style>
    @keyframes fadeInSlide {
      from { opacity: 0; transform: translateY(20px); }
      to { opacity: 1; transform: translateY(0); }
    }
    @keyframes scaleIn {
      from { opacity: 0; transform: scale(0.85); }
      to { opacity: 1; transform: scale(1); }
    }
    @keyframes textReveal {
      from { opacity: 0; transform: translateX(-10px); }
      to { opacity: 1; transform: translateX(0); }
    }
    @keyframes pulse {
      0%, 100% { transform: scale(1); }
      50% { transform: scale(1.03); }
    }
    .step { animation: fadeInSlide 0.6s ease-out; }
    .step rect { animation: scaleIn 0.5s cubic-bezier(0.34, 1.56, 0.64, 1); transform-origin: center; }
    .step text { animation: textReveal 0.4s ease-out 0.2s backwards; }
    .highlight { animation: pulse 2s infinite; }
  </style>

  <!-- Background -->
  <rect width="800" height="2000" fill="#f8f9fa"/>

  <!-- STEP 0: Title -->
  <g class="step" id="step0" data-narration="Welcome to our exploration of cache memory architecture, a fundamental concept in modern computing systems.">
    <rect x="50" y="10" width="700" height="45" rx="10" fill="url(#titleGrad)" filter="url(#shadow)"/>
    <text x="400" y="40" text-anchor="middle" font-size="22" font-weight="bold" fill="white">Basic Architecture of Cache Memory</text>
    <text x="400" y="60" text-anchor="middle" font-size="12" fill="#666">BCS402 - Microcontrollers | university 2022 Scheme</text>
  </g>

  <!-- STEP 1: Introduction - Why Cache? -->
  <g class="step" id="step1" data-narration="Cache memory bridges the speed gap between fast processors and slower main memory, dramatically improving system performance.">
    <rect x="30" y="65" width="740" height="85" rx="8" fill="url(#blueGrad)" filter="url(#shadow)"/>
    <text x="50" y="90" font-size="14" font-weight="bold" fill="#1976d2">Why Cache Memory?</text>
    <text x="50" y="110" font-size="11" fill="#333">Processors are much faster than memory. Cache acts as a high-speed buffer storing frequently accessed data.</text>
    <text x="50" y="130" font-size="11" fill="#333">This bridging technique solves the memory wall problem without expensive memory upgrades.</text>
    <rect x="480" y="90" width="50" height="25" rx="4" fill="#388e3c"/>
    <text x="505" y="108" text-anchor="middle" font-size="9" fill="white">CPU</text>
    <rect x="540" y="90" width="65" height="25" rx="4" fill="#ff9800"/>
    <text x="572" y="108" text-anchor="middle" font-size="9" fill="white">Cache</text>
    <rect x="615" y="90" width="50" height="25" rx="4" fill="#f44336"/>
    <text x="640" y="108" text-anchor="middle" font-size="9" fill="white">RAM</text>
  </g>

  <!-- STEP 2: Memory Hierarchy -->
  <g class="step" id="step2" data-narration="The memory hierarchy arranges different memory types by speed and size, with fastest at top and slowest at bottom.">
    <rect x="30" y="160" width="740" height="80" rx="8" fill="url(#greenGrad)" filter="url(#shadow)"/>
    <text x="50" y="185" font-size="14" font-weight="bold" fill="#388e3c">Memory Hierarchy</text>
    <polygon points="700,195 760,195 730,220" fill="#c62828"/>
    <text x="730" y="212" text-anchor="middle" font-size="8" fill="white">Disk</text>
    <polygon points="630,200 770,200 700,230" fill="#ff9800"/>
    <text x="700" y="218" text-anchor="middle" font-size="8" fill="white">RAM</text>
    <polygon points="500,205 770,205 635,245" fill="#1976d2"/>
    <text x="635" y="232" text-anchor="middle" font-size="8" fill="white">Cache</text>
    <polygon points="380,215 770,215 575,265" fill="#7b1fa2"/>
    <text x="575" y="252" text-anchor="middle" font-size="8" fill="white">Registers</text>
    <text x="70" y="205" font-size="9" fill="#666">Fastest</text>
    <text x="70" y="265" font-size="9" fill="#666">Slowest</text>
  </g>

  <!-- STEP 3: Cache Mapping Techniques Overview -->
  <g class="step" id="step3" data-narration="Three primary cache mapping techniques determine how main memory blocks are placed in cache lines.">
    <rect x="30" y="250" width="740" height="80" rx="8" fill="url(#orangeGrad)" filter="url(#shadow)"/>
    <text x="50" y="275" font-size="14" font-weight="bold" fill="#e65100">Cache Mapping Techniques</text>
    <text x="50" y="295" font-size="11" fill="#333">Main memory blocks can be mapped to cache lines using three different approaches:</text>
    <rect x="50" y="305" width="220" height="20" rx="4" fill="#e3f2fd" stroke="#1976d2"/>
    <text x="160" y="320" text-anchor="middle" font-size="10" fill="#1976d2">Direct-Mapped</text>
    <rect x="290" y="305" width="220" height="20" rx="4" fill="#e8f5e9" stroke="#388e3c"/>
    <text x="400" y="320" text-anchor="middle" font-size="10" fill="#388e3c">Fully Associative</text>
    <rect x="530" y="305" width="220" height="20" rx="4" fill="#f3e5f5" stroke="#9c27b0"/>
    <text x="640" y="320" text-anchor="middle" font-size="10" fill="#9c27b0">Set-Associative</text>
  </g>

  <!-- STEP 4: Direct-Mapped Cache -->
  <g class="step" id="step4" data-narration="In direct-mapped cache, each memory block has only ONE possible cache line location determined by modulo operation.">
    <rect x="30" y="340" width="740" height="90" rx="8" fill="url(#blueGrad)" filter="url(#shadow)"/>
    <text x="50" y="365" font-size="14" font-weight="bold" fill="#1976d2">Direct-Mapped Cache</text>
    <text x="50" y="385" font-size="11" fill="#333">Each memory block maps to exactly ONE cache line using:</text>
    <text x="50" y="405" font-size="11" font-family="monospace" fill="#d32f2f">Cache Line = (Block Address) mod (Number of Lines)</text>
    <rect x="300" y="380" width="180" height="40" rx="4" fill="white" stroke="#1976d2"/>
    <text x="390" y="400" text-anchor="middle" font-size="9" fill="#666">Cache Memory</text>
    <line x1="320" y1="405" x2="320" y2="420" stroke="#1976d2" stroke-width="1" stroke-dasharray="2,2"/>
    <line x1="350" y1="405" x2="350" y2="420" stroke="#1976d2" stroke-width="1" stroke-dasharray="2,2"/>
    <line x1="380" y1="405" x2="380" y2="420" stroke="#1976d2" stroke-width="1" stroke-dasharray="2,2"/>
    <line x1="410" y1="405" x2="410" y2="420" stroke="#1976d2" stroke-width="1" stroke-dasharray="2,2"/>
    <line x1="440" y1="405" x2="440" y2="420" stroke="#1976d2" stroke-width="1" stroke-dasharray="2,2"/>
    <text x="530" y="400" font-size="9" fill="#e65100">Block 52 → Line 52 only!</text>
    <text x="530" y="420" font-size="9" fill="#666">Pro: Simple | Con: Conflicts</text>
  </g>

  <!-- STEP 5: Fully Associative Cache -->
  <g class="step" id="step5" data-narration="In fully associative cache, any memory block can be placed in ANY cache line, offering maximum flexibility.">
    <rect x="30" y="440" width="740" height="85" rx="8" fill="url(#greenGrad)" filter="url(#shadow)"/>
    <text x="50" y="465" font-size="14" font-weight="bold" fill="#388e3c">Fully Associative Cache</text>
    <text x="50" y="485" font-size="11" fill="#333">Any memory block can be placed in ANY cache line - maximum flexibility.</text>
    <rect x="280" y="465" width="220" height="50" rx="4" fill="white" stroke="#388e3c"/>
    <text x="390" y="480" text-anchor="middle" font-size="9" fill="#666">Cache Lines</text>
    <rect x="290" y="492" width="35" height="18" rx="2" fill="#388e3c"/>
    <rect x="330" y="492" width="35" height="18" rx="2" fill="#ff9800"/>
    <rect x="370" y="492" width="35" height="18" rx="2" fill="#1976d2"/>
    <rect x="410" y="492" width="35" height="18" rx="2" fill="#9c27b0"/>
    <text x="530" y="480" font-size="9" fill="#2e7d32">Block can go to ANY line!</text>
    <text x="530" y="510" font-size="9" fill="#666">Pro: Best hit rate | Con: Expensive</text>
  </g>

  <!-- STEP 6: Set-Associative Cache -->
  <g class="step" id="step6" data-narration="Set-associative cache divides cache into sets with multiple ways, balancing flexibility and hardware cost.">
    <rect x="30" y="535" width="740" height="85" rx="8" fill="url(#purpleGrad)" filter="url(#shadow)"/>
    <text x="50" y="560" font-size="14" font-weight="bold" fill="#9c27b0">Set-Associative Cache</text>
    <text x="50" y="580" font-size="11" fill="#333">Combines benefits: cache divided into sets, each with multiple ways.</text>
    <text x="50" y="600" font-size="10" font-family="monospace" fill="#7b1fa2">Set Index = (Block Address) mod (Number of Sets)</text>
    <rect x="250" y="555" width="180" height="50" rx="4" fill="white" stroke="#9c27b0"/>
    <text x="260" y="570" font-size="9" fill="#666">Set 0:</text>
    <rect x="300" y="565" width="30" height="18" rx="2" fill="#e1bee7"/>
    <rect x="335" y="565" width="30" height="18" rx="2" fill="#e1bee7"/>
    <rect x="370" y="565" width="30" height="18" rx="2" fill="#e1bee7"/>
    <text x="530" y="575" font-size="9" fill="#7b1fa2">4-Way: Can use any of 4 ways</text>
    <text x="530" y="600" font-size="9" fill="#666">Most common in microcontrollers</text>
  </g>

  <!-- STEP 7: Cache Structure -->
  <g class="step" id="step7" data-narration="A cache line contains data, tag address bits, valid bit, and optionally a dirty bit for write-back policies.">
    <rect x="30" y="630" width="740" height="75" rx="8" fill="url(#tealGrad)" filter="url(#shadow)"/>
    <text x="50" y="655" font-size="14" font-weight="bold" fill="#00796b">Cache Line Structure</text>
    <rect x="50" y="670" width="140" height="28" rx="4" fill="#00796b"/>
    <text x="120" y="688" text-anchor="middle" font-size="10" fill="white">Valid</text>
    <rect x="200" y="670" width="140" height="28" rx="4" fill="#ff9800"/>
    <text x="270" y="688" text-anchor="middle" font-size="10" fill="white">Tag</text>
    <rect x="350" y="670" width="140" height="28" rx="4" fill="#4caf50"/>
    <text x="420" y="688" text-anchor="middle" font-size="10" fill="white">Data</text>
    <rect x="500" y="670" width="140" height="28" rx="4" fill="#f44336"/>
    <text x="570" y="688" text-anchor="middle" font-size="10" fill="white">Dirty</text>
    <text x="650" y="688" font-size="10" fill="#333">Formula: Lines × Size</text>
  </g>

  <!-- STEP 8: Locality of Reference -->
  <g class="step" id="step8" data-narration="Cache exploits temporal locality (reusing recent items) and spatial locality (accessing nearby items) for effectiveness.">
    <rect x="30" y="715" width="740" height="75" rx="8" fill="url(#amberGrad)" filter="url(#shadow)"/>
    <text x="50" y="740" font-size="14" font-weight="bold" fill="#f57f17">Locality of Reference</text>
    <rect x="50" y="755" width="330" height="25" rx="4" fill="#fff8e1" stroke="#f57f17"/>
    <text x="70" y="772" font-size="10" font-weight="bold" fill="#f57f17">Temporal:</text>
    <text x="140" y="772" font-size="10" fill="#333">Recently accessed items will be accessed again</text>
    <rect x="400" y="755" width="330" height="25" rx="4" fill="#fff8e1" stroke="#f57f17"/>
    <text x="420" y="772" font-size="10" font-weight="bold" fill="#f57f17">Spatial:</text>
    <text x="490" y="772" font-size="10" fill="#333">Items near accessed items will be accessed</text>
  </g>

  <!-- STEP 9: Write Policies -->
  <g class="step" id="step9" data-narration="Write-through updates both cache and memory on every write; write-back delays memory update until eviction.">
    <rect x="30" y="800" width="740" height="75" rx="8" fill="url(#redGrad)" filter="url(#shadow)"/>
    <text x="50" y="825" font-size="14" font-weight="bold" fill="#c62828">Cache Write Policies</text>
    <rect x="50" y="845" width="280" height="25" rx="4" fill="white" stroke="#1976d2"/>
    <text x="190" y="862" text-anchor="middle" font-size="10" font-weight="bold" fill="#1976d2">Write-Through</text>
    <text x="340" y="862" font-size="9" fill="#666">Cache + Memory</text>
    <rect x="350" y="845" width="280" height="25" rx="4" fill="white" stroke="#ff9800"/>
    <text x="490" y="862" text-anchor="middle" font-size="10" font-weight="bold" fill="#ff9800">Write-Back</text>
    <text x="640" y="862" font-size="9" fill="#666">Cache only (on evict)</text>
  </g>

  <!-- STEP 10: Cache Miss Types -->
  <g class="step" id="step10" data-narration="Three cache miss types: compulsory (first access), capacity (cache too small), and conflict (mapping collisions).">
    <rect x="30" y="885" width="740" height="75" rx="8" fill="url(#orangeGrad)" filter="url(#shadow)"/>
    <text x="50" y="910" font-size="14" font-weight="bold" fill="#e65100">Types of Cache Misses</text>
    <rect x="50" y="925" width="210" height="28" rx="4" fill="#e3f2fd" stroke="#1976d2"/>
    <text x="155" y="944" text-anchor="middle" font-size="10" font-weight="bold" fill="#1976d2">Compulsory</text>
    <rect x="270" y="925" width="210" height="28" rx="4" fill="#ffebee" stroke="#f44336"/>
    <text x="375" y="944" text-anchor="middle" font-size="10" font-weight="bold" fill="#f44336">Capacity</text>
    <rect x="490" y="925" width="210" height="28" rx="4" fill="#fff3e0" stroke="#ff9800"/>
    <text x="595" y="944" text-anchor="middle" font-size="10" font-weight="bold" fill="#ff9800">Conflict</text>
  </g>

  <!-- STEP 11: Replacement Policies -->
  <g class="step" id="step11" data-narration="When cache is full, replacement policies decide which block to evict: LRU, FIFO, or Random selection.">
    <rect x="30" y="970" width="740" height="70" rx="8" fill="url(#greenGrad)" filter="url(#shadow)"/>
    <text x="50" y="995" font-size="14" font-weight="bold" fill="#388e3c">Replacement Policies</text>
    <rect x="50" y="1010" width="200" height="25" rx="4" fill="#c8e6c9" stroke="#388e3c"/>
    <text x="150" y="1027" text-anchor="middle" font-size="10" font-weight="bold" fill="#2e7d32">LRU</text>
    <text x="260" y="1027" font-size="9" fill="#333">Least Recently Used</text>
    <rect x="320" y="1010" width="200" height="25" rx="4" fill="#c8e6c9" stroke="#388e3c"/>
    <text x="420" y="1027" text-anchor="middle" font-size="10" font-weight="bold" fill="#2e7d32">FIFO</text>
    <text x="530" y="1027" font-size="9" fill="#333">First In First Out</text>
    <rect x="590" y="1010" width="150" height="25" rx="4" fill="#c8e6c9" stroke="#388e3c"/>
    <text x="665" y="1027" text-anchor="middle" font-size="10" font-weight="bold" fill="#2e7d32">Random</text>
  </g>

  <!-- STEP 12: AMAT Formula -->
  <g class="step" id="step12" data-narration="Average Memory Access Time (AMAT) formula combines hit time and miss penalty based on hit rate.">
    <rect x="30" y="1050" width="740" height="75" rx="8" fill="url(#blueGrad)" filter="url(#shadow)"/>
    <text x="50" y="1075" font-size="14" font-weight="bold" fill="#1976d2">AMAT Formula</text>
    <text x="50" y="1095" font-size="11" font-family="monospace" fill="#d32f2f">AMAT = Hit Time + (Miss Rate × Miss Penalty)</text>
    <rect x="280" y="1060" width="200" height="50" rx="4" fill="white" stroke="#1976d2"/>
    <text x="380" y="1078" text-anchor="middle" font-size="10" fill="#1976d2">Example: Hit Rate 95%</text>
    <text x="380" y="1095" font-size="9" fill="#333">Hit Time=2, Miss Penalty=20</text>
    <text x="380" y="1110" font-size="10" fill="#d32f2f">AMAT = 2 + 0.05×20 = 3</text>
    <rect x="500" y="1065" width="150" height="40" rx="4" fill="#e3f2fd"/>
    <rect x="510" y="1075" width="60" height="10" fill="#388e3c"/>
    <text x="540" y="1093" font-size="8" fill="#333">Hit 95%</text>
    <rect x="510" y="1088" width="10" height="10" fill="#f44336"/>
    <text x="540" y="1105" font-size="8" fill="#333">Miss 5%</text>
  </g>

  <!-- STEP 13: Example Problem 1 -->
  <g class="step" id="step13" data-narration="Solve direct-mapped: 64 lines, 16 bytes/line. Find cache index for address 0x1234.">
    <rect x="30" y="1135" width="740" height="75" rx="8" fill="url(#tealGrad)" filter="url(#shadow)"/>
    <text x="50" y="1160" font-size="14" font-weight="bold" fill="#00796b">Example 1: Direct-Mapped</text>
    <text x="50" y="1180" font-size="10" fill="#333">64 lines, 16 bytes/line. Address 0x1234</text>
    <rect x="50" y="1190" width="350" height="15" rx="2" fill="white"/>
    <text x="60" y="1202" font-size="9" fill="#333">Offset bits = log₂(16) = 4 bits</text>
    <rect x="410" y="1190" width="350" height="15" rx="2" fill="white"/>
    <text x="420" y="1202" font-size="9" fill="#333">Index bits = log₂(64) = 6 bits</text>
    <text x="50" y="1218" font-size="10" fill="#00796b">0x1234 = 0001 0010 0011 0100 | Last 6 bits = 110100 = 52</text>
  </g>

  <!-- STEP 14: Example Problem 2 -->
  <g class="step" id="step14" data-narration="Set-associative: 4-way cache, 256KB total, 64-byte lines. Find number of sets.">
    <rect x="30" y="1220" width="740" height="70" rx="8" fill="url(#purpleGrad)" filter="url(#shadow)"/>
    <text x="50" y="1245" font-size="14" font-weight="bold" fill="#9c27b0">Example 2: Set-Associative</text>
    <text x="50" y="1265" font-size="10" fill="#333">4-way, 256KB cache, 64-byte lines. Find sets.</text>
    <text x="50" y="1280" font-size="10" fill="#333">Total Lines = 256KB / 64B = 4096 lines</text>
    <text x="350" y="1280" font-size="11" fill="#9c27b0">Sets = 4096 / 4 = 1024 (2¹⁰)</text>
  </g>

  <!-- STEP 15: Important Formulas -->
  <g class="step" id="step15" data-narration="Key formulas: cache size calculation, AMAT, address decomposition, and mapping formulas.">
    <rect x="30" y="1300" width="740" height="70" rx="8" fill="url(#orangeGrad)" filter="url(#shadow)"/>
    <text x="50" y="1325" font-size="14" font-weight="bold" fill="#e65100">Important Formulas</text>
    <rect x="50" y="1340" width="165" height="25" rx="4" fill="white"/>
    <text x="132" y="1358" text-anchor="middle" font-size="10" fill="#333">Cache Size = Lines × LineSize</text>
    <rect x="225" y="1340" width="165" height="25" rx="4" fill="white"/>
    <text x="307" y="1358" text-anchor="middle" font-size="10" fill="#333">AMAT = Hit + Miss×Penalty</text>
    <rect x="400" y="1340" width="165" height="25" rx="4" fill="white"/>
    <text x="482" y="1358" text-anchor="middle" font-size="10" fill="#333">Direct: Index = Block mod Lines</text>
    <rect x="575" y="1340" width="165" height="25" rx="4" fill="white"/>
    <text x="657" y="1358" text-anchor="middle" font-size="10" fill="#333">Miss Rate = 1 - Hit Rate</text>
  </g>

  <!-- STEP 16: university Exam Tips -->
  <g class="step" id="step16" data-narration="Exam tips: memorize mapping techniques, know cache size formula, master address decomposition, and remember AMAT.">
    <rect x="30" y="1380" width="740" height="75" rx="8" fill="url(#blueGrad)" filter="url(#shadow)"/>
    <text x="50" y="1405" font-size="14" font-weight="bold" fill="#1976d2">university Exam Tips</text>
    <text x="50" y="1425" font-size="10" fill="#333">1. Memorize three mapping techniques and trade-offs</text>
    <text x="50" y="1440" font-size="10" fill="#333">2. Remember: Cache Size = Lines × Line Size</text>
    <text x="50" y="1455" font-size="10" fill="#333">3. Master address decomposition - tag, index, offset</text>
    <text x="50" y="1470" font-size="10" fill="#333">4. Know write-through vs write-back policies</text>
  </g>

  <!-- STEP 17: Common Mistakes -->
  <g class="step" id="step17" data-narration="Avoid mistakes: don't confuse lines with sets, remember offset bits don't join tag comparison.">
    <rect x="30" y="1465" width="740" height="65" rx="8" fill="url(#redGrad)" filter="url(#shadow)"/>
    <text x="50" y="1490" font-size="14" font-weight="bold" fill="#c62828">Common Mistakes</text>
    <text x="50" y="1510" font-size="10" fill="#333">✗ Confusing cache lines with sets - a line is one location</text>
    <text x="50" y="1525" font-size="10" fill="#333">✗ Offset bits don't participate in tag comparison</text>
    <text x="400" y="1510" font-size="10" fill="#333">✗ Hit rate + Miss rate = 1 (complements)</text>
  </g>

  <!-- STEP 18: Revision Tips -->
  <g class="step" id="step18" data-narration="Effective revision: practice address decomposition, draw mapping diagrams, review AMAT calculations.">
    <rect x="30" y="1540" width="740" height="60" rx="8" fill="url(#greenGrad)" filter="url(#shadow)"/>
    <text x="50" y="1565" font-size="14" font-weight="bold" fill="#388e3c">Revision Tips</text>
    <text x="50" y="1585" font-size="10" fill="#333">1. Practice address decomposition - identify tag, index, offset bits</text>
    <text x="50" y="1600" font-size="10" fill="#333">2. Draw diagrams for all three mapping techniques</text>
    <text x="400" y="1585" font-size="10" fill="#333">3. Review AMAT calculations (frequently asked)</text>
  </g>

  <!-- STEP 19: Summary -->
  <g class="step" id="step19" data-narration="In summary: cache memory uses mapping techniques to store frequently accessed data, exploiting locality for improved performance.">
    <rect x="30" y="1610" width="740" height="60" rx="8" fill="url(#titleGrad)" filter="url(#shadow)"/>
    <text x="400" y="1640" text-anchor="middle" font-size="16" font-weight="bold" fill="white">Summary: Cache optimizes memory access through mapping and locality</text>
  </g>
</svg>