<svg viewBox="0 0 800 1700" xmlns="http://www.w3.org/2000/svg">
  <defs>
    <linearGradient id="blueGrad" x1="0%" y1="0%" x2="100%" y2="100%">
      <stop offset="0%" stop-color="#e3f2fd"/>
      <stop offset="100%" stop-color="#bbdefb"/>
    </linearGradient>
    <linearGradient id="greenGrad" x1="0%" y1="0%" x2="100%" y2="100%">
      <stop offset="0%" stop-color="#e8f5e9"/>
      <stop offset="100%" stop-color="#c8e6c9"/>
    </linearGradient>
    <linearGradient id="orangeGrad" x1="0%" y1="0%" x2="100%" y2="100%">
      <stop offset="0%" stop-color="#fff3e0"/>
      <stop offset="100%" stop-color="#ffe0b2"/>
    </linearGradient>
    <linearGradient id="purpleGrad" x1="0%" y1="0%" x2="100%" y2="100%">
      <stop offset="0%" stop-color="#f3e5f5"/>
      <stop offset="100%" stop-color="#e1bee7"/>
    </linearGradient>
    <linearGradient id="redGrad" x1="0%" y1="0%" x2="100%" y2="100%">
      <stop offset="0%" stop-color="#ffebee"/>
      <stop offset="100%" stop-color="#ffcdd2"/>
    </linearGradient>
    <linearGradient id="titleGrad" x1="0%" y1="0%" x2="100%" y2="0%">
      <stop offset="0%" stop-color="#1976d2"/>
      <stop offset="100%" stop-color="#1565c0"/>
    </linearGradient>
    <filter id="shadow" x="-10%" y="-10%" width="120%" height="120%">
      <feDropShadow dx="2" dy="2" stdDeviation="3" flood-opacity="0.2"/>
    </filter>
    <marker id="arrowBlue" markerWidth="10" markerHeight="10" refX="9" refY="3" orient="auto" markerUnits="strokeWidth">
      <path d="M0,0 L0,6 L9,3 z" fill="#1976d2"/>
    </marker>
    <marker id="arrowGreen" markerWidth="10" markerHeight="10" refX="9" refY="3" orient="auto" markerUnits="strokeWidth">
      <path d="M0,0 L0,6 L9,3 z" fill="#388e3c"/>
    </marker>
    <marker id="arrowOrange" markerWidth="10" markerHeight="10" refX="9" refY="3" orient="auto" markerUnits="strokeWidth">
      <path d="M0,0 L0,6 L9,3 z" fill="#ff9800"/>
    </marker>
  </defs>
  
  <style>
    @keyframes fadeInSlide {
      from { opacity: 0; transform: translateY(20px); }
      to { opacity: 1; transform: translateY(0); }
    }
    @keyframes scaleIn {
      from { opacity: 0; transform: scale(0.85); }
      to { opacity: 1; transform: scale(1); }
    }
    @keyframes textReveal {
      from { opacity: 0; transform: translateX(-10px); }
      to { opacity: 1; transform: translateX(0); }
    }
    @keyframes pulse {
      0%, 100% { transform: scale(1); }
      50% { transform: scale(1.03); }
    }
    @keyframes drawLine {
      from { stroke-dashoffset: 300; }
      to { stroke-dashoffset: 0; }
    }
    @keyframes fillIn {
      from { opacity: 0; }
      to { opacity: 1; }
    }
    .step { animation: fadeInSlide 0.6s ease-out; }
    .step rect {
      animation: scaleIn 0.5s cubic-bezier(0.34, 1.56, 0.64, 1);
      transform-origin: center;
    }
    .step text { animation: textReveal 0.4s ease-out 0.2s backwards; }
    .title-text { font-size: 22px; font-weight: bold; fill: white; }
    .subtitle-text { font-size: 14px; fill: #546e7a; }
    .body-text { font-size: 11px; fill: #37474f; }
    .label-text { font-size: 10px; fill: #78909c; }
    .formula-text { font-size: 12px; fill: #263238; font-family: monospace; }
    .highlight { fill: #1976d2; font-weight: bold; }
    .highlight-green { fill: #388e3c; font-weight: bold; }
    .highlight-orange { fill: #ff9800; font-weight: bold; }
    .highlight-red { fill: #f44336; font-weight: bold; }
    .draw-line {
      stroke-dasharray: 300;
      stroke-dashoffset: 300;
      animation: drawLine 1.5s ease-out forwards;
    }
  </style>
  
  <!-- Background -->
  <rect width="800" height="1700" fill="#f8f9fa"/>
  
  <!-- SECTION 1: INTRODUCTION -->
  
  <!-- Step 0: Title -->
  <g class="step" id="step0" data-narration="Welcome to Merge Sort, an efficient O(n log n) divide-and-conquer sorting algorithm invented by John von Neumann in 1945.">
    <rect x="50" y="15" width="700" height="50" rx="10" fill="url(#titleGrad)" filter="url(#shadow)"/>
    <text x="400" y="45" text-anchor="middle" class="title-text">MERGE SORT ALGORITHM</text>
    <text x="400" y="62" text-anchor="middle" font-size="12" fill="#e3f2fd">BCS401 - Analysis and Design of Algorithms</text>
  </g>
  
  <!-- Step 1: Why Merge Sort -->
  <g class="step" id="step1" data-narration="Merge Sort guarantees consistent O(n log n) performance for best, average, and worst cases, unlike Quick Sort which can degrade.">
    <rect x="50" y="80" width="700" height="95" rx="10" fill="url(#blueGrad)" filter="url(#shadow)"/>
    <text x="70" y="105" class="subtitle-text" font-weight="bold">Why Merge Sort?</text>
    <rect x="70" y="120" width="180" height="40" rx="5" fill="#1976d2" opacity="0.1"/>
    <text x="160" y="140" text-anchor="middle" class="formula-text" fill="#1976d2">Time: O(n log n)</text>
    <text x="160" y="155" text-anchor="middle" class="label-text">ALL cases</text>
    <rect x="270" y="120" width="180" height="40" rx="5" fill="#388e3c" opacity="0.1"/>
    <text x="360" y="140" text-anchor="middle" class="formula-text" fill="#388e3c">Space: O(n)</text>
    <text x="360" y="155" text-anchor="middle" class="label-text">Auxiliary</text>
    <rect x="470" y="120" width="180" height="40" rx="5" fill="#ff9800" opacity="0.1"/>
    <text x="560" y="140" text-anchor="middle" class="formula-text" fill="#ff9800">Stable</text>
    <text x="560" y="155" text-anchor="middle" class="label-text">Equal order preserved</text>
  </g>
  
  <!-- Step 2: Divide and Conquer Preview -->
  <g class="step" id="step2" data-narration="Merge Sort uses divide-and-conquer: split the array in half, sort each half recursively, then merge sorted results.">
    <rect x="50" y="190" width="700" height="95" rx="10" fill="url(#greenGrad)" filter="url(#shadow)"/>
    <text x="70" y="215" class="subtitle-text" font-weight="bold">Divide and Conquer Paradigm</text>
    <!-- Three boxes showing the process -->
    <rect x="80" y="230" width="180" height="40" rx="8" fill="#c8e6c9" stroke="#388e3c" stroke-width="2"/>
    <text x="170" y="255" text-anchor="middle" class="body-text" fill="#2e7d32">DIVIDE: Split in half</text>
    <path d="M270,250 L310,250" stroke="#388e3c" stroke-width="2" marker-end="url(#arrowGreen)"/>
    
    <rect x="320" y="230" width="180" height="40" rx="8" fill="#c8e6c9" stroke="#388e3c" stroke-width="2"/>
    <text x="410" y="255" text-anchor="middle" class="body-text" fill="#2e7d32">CONQUER: Sort recursively</text>
    <path d="M510,250 L550,250" stroke="#388e3c" stroke-width="2" marker-end="url(#arrowGreen)"/>
    
    <rect x="560" y="230" width="180" height="40" rx="8" fill="#c8e6c9" stroke="#388e3c" stroke-width="2"/>
    <text x="650" y="255" text-anchor="middle" class="body-text" fill="#2e7d32">COMBINE: Merge sorted</text>
  </g>
  
  <!-- SECTION 2: DEEP DIVE -->
  
  <!-- Step 3: Algorithm Steps -->
  <g class="step" id="step3" data-narration="The MERGE_SORT function uses recursion with parameters A (array), p (start), q (middle), and r (end index).">
    <rect x="50" y="300" width="700" height="95" rx="10" fill="url(#orangeGrad)" filter="url(#shadow)"/>
    <text x="70" y="325" class="subtitle-text" font-weight="bold">Algorithm: MERGE_SORT(A, p, r)</text>
    <rect x="70" y="340" width="660" height="45" rx="8" fill="#fff" stroke="#ff9800" stroke-width="1"/>
    <text x="80" y="358" class="formula-text" fill="#e65100">if</text>
    <text x="100" y="358" class="formula-text" fill="#ff9800">p &lt; r</text>
    <text x="145" y="358" class="formula-text" fill="#e65100">then:</text>
    <text x="80" y="375" class="formula-text" fill="#e65100">q = ⌊(p + r) / 2⌋</text>
    <text x="280" y="375" class="formula-text" fill="#e65100">MERGE_SORT(A, p, q)</text>
    <text x="460" y="375" class="formula-text" fill="#e65100">MERGE_SORT(A, q+1, r)</text>
    <text x="620" y="375" class="formula-text" fill="#e65100">MERGE(A, p, q, r)</text>
  </g>
  
  <!-- Step 4: The Merge Function -->
  <g class="step" id="step4" data-narration="The MERGE function combines two sorted subarrays A[p..q] and A[q+1..r] into one sorted array using sentinel values.">
    <rect x="50" y="410" data-narration="The MERGE function combines two sorted subarrays using sentinel ∞ values to simplify boundary checks during comparison.">
    <rect x="50" y="410" width="700" height="110" rx="10" fill="url(#purpleGrad)" filter="url(#shadow)"/>
    <text x="70" y="435" class="subtitle-text" font-weight="bold">The MERGE Function - Heart of Merge Sort</text>
    <rect x="70" y="450" width="660" height="60" rx="8" fill="#fff" stroke="#9c27b0" stroke-width="1"/>
    <text x="80" y="468" class="formula-text" fill="#7b1fa2">n1 = q-p+1, n2 = r-q</text>
    <text x="80" y="482" class="formula-text" fill="#7b1fa2">Create L[1..n1+1], R[1..n2+1]</text>
    <text x="80" y="496" class="formula-text" fill="#7b1fa2">L[n1+1] = ∞, R[n2+1] = ∞ (sentinels)</text>
    <text x="400" y="512" class="body-text" fill="#4a148c">Then compare and copy smallest to A[k]</text>
  </g>
  
  <!-- Step 5: Example Array Setup -->
  <g class="step" id="step5" data-narration="Let's trace Merge Sort on array [38, 27, 43, 3, 9, 82, 10]. First, we divide the array into two halves at the middle.">
    <rect x="50" y="535" width="700" height="100" rx="10" fill="url(#blueGrad)" filter="url(#shadow)"/>
    <text x="70" y="560" class="subtitle-text" font-weight="bold">Example: Sorting [38, 27, 43, 3, 9, 82, 10]</text>
    
    <!-- Original array -->
    <rect x="80" y="575" width="50" height="30" rx="4" fill="#1976d2"/>
    <text x="105" y="594" text-anchor="middle" fill="white" font-size="11">38</text>
    <rect x="135" y="575" width="50" height="30" rx="4" fill="#1976d2"/>
    <text x="160" y="594" text-anchor="middle" fill="white" font-size="11">27</text>
    <rect x="190" y="575" width="50" height="30" rx="4" fill="#1976d2"/>
    <text x="215" y="594" text-anchor="middle" fill="white" font-size="11">43</text>
    <rect x="245" y="575" width="50" height="30" rx="4" fill="#1976d2"/>
    <text x="270" y="594" text-anchor="middle" fill="white" font-size="11">3</text>
    <rect x="300" y="575" width="50" height="30" rx="4" fill="#388e3c"/>
    <text x="325" y="594" text-anchor="middle" fill="white" font-size="11">9</text>
    <rect x="355" y="575" width="50" height="30" rx="4" fill="#388e3c"/>
    <text x="380" y="594" text-anchor="middle" fill="white" font-size="11">82</text>
    <rect x="410" y="575" width="50" height="30" rx="4" fill="#388e3c"/>
    <text x="435" y="594" text-anchor="middle" fill="white" font-size="11">10</text>
    
    <!-- Labels -->
    <text x="165" y="620" text-anchor="middle" class="label-text">Left Half (indices 0-3)</text>
    <text x="375" y="620" text-anchor="middle" class="label-text">Right Half (indices 4-6)</text>
    
    <!-- Arrow down -->
    <path d="M400,635 L400,650" stroke="#1976d2" stroke-width="2" marker-end="url(#arrowBlue)"/>
  </g>
  
  <!-- Step 6: Division Tree -->
  <g class="step" id="step6" data-narration="Continue dividing each half recursively until each subarray contains a single element, which is trivially sorted.">
    <rect x="50" y="655" width="700" height="110" rx="10" fill="url(#greenGrad)" filter="url(#shadow)"/>
    <text x="70" y="680" class="subtitle-text" font-weight="bold">Phase 1: Divide (Recursive Breakdown)</text>
    
    <!-- Level 0 -->
    <rect x="300" y="700" width="200" height="25" rx="4" fill="#bbdefb" stroke="#1976d2"/>
    <text x="400" y="716" text-anchor="middle" class="body-text">38,27,43,3,9,82,10</text>
    
    <!-- Level 1 -->
    <rect x="170" y="735" width="110" height="25" rx="4" fill="#bbdefb" stroke="#1976d2"/>
    <text x="225" y="751" text-anchor="middle" class="body-text">38,27,43,3</text>
    <rect x="520" y="735" width="110" height="25" rx="4" fill="#c8e6c9" stroke="#388e3c"/>
    <text x="575" y="751" text-anchor="middle" class="body-text">9,82,10</text>
    
    <!-- Connectors -->
    <path d="M350,725 L225,735" stroke="#1976d2" stroke-width="1"/>
    <path d="M450,725 L575,735" stroke="#388e3c" stroke-width="1"/>
    
    <!-- Level 2 -->
    <rect x="100" y="770" width="80" height="25" rx="4" fill="#bbdefb" stroke="#1976d2"/>
    <text x="140" y="786" text-anchor="middle" class="body-text">38,27</text>
    <rect x="250" y="770" width="80" height="25" rx="4" fill="#bbdefb" stroke="#1976d2"/>
    <text x="290" y="786" text-anchor="middle" class="body-text">43,3</text>
    <rect x="480" y="770" width="80" height="25" rx="4" fill="#c8e6c9" stroke="#388e3c"/>
    <text x="520" y="786" text-anchor="middle" class="body-text">9,82</text>
    <rect x="600" y="770" width="80" height="25" rx="4" fill="#c8e6c9" stroke="#388e3c"/>
    <text x="640" y="786" text-anchor="middle" class="body-text">10</text>
    
    <path d="M195,760 L140,770" stroke="#1976d2" stroke-width="1"/>
    <path d="M255,760 L290,770" stroke="#1976d2" stroke-width="1"/>
    <path d="M530,760 L520,770" stroke="#388e3c" stroke-width="1"/>
    <path d="M590,760 L640,770" stroke="#388e3c" stroke-width="1"/>
    
    <!-- Level 3 - single elements -->
    <text x="100" y="810" text-anchor="middle" class="label-text" fill="#1976d2">38</text>
    <text x="140" y="810" text-anchor="middle" class="label-text" fill="#1976d2">27</text>
    <text x="180" y="810" text-anchor="middle" class="label-text" fill="#1976d2">43</text>
    <text x="220" y="810" text-anchor="middle" class="label-text" fill="#1976d2">3</text>
    <text x="480" y="810" text-anchor="middle" class="label-text" fill="#388e3c">9</text>
    <text x="520" y="810" text-anchor="middle" class="label-text" fill="#388e3c">82</text>
    <text x="640" y="810" text-anchor="middle" class="label-text" fill="#388e3c">10</text>
  </g>
  
  <!-- Step 7: Merge Phase - First Level -->
  <g class="step" id="step7" data-narration="Now we merge: compare elements from two subarrays and place the smaller one first. [38,27] merges to [27,38].">
    <rect x="50" y="780" width="700" height="100" rx="10" fill="url(#orangeGrad)" filter="url(#shadow)"/>
    <text x="70" y="805" class="subtitle-text" font-weight="bold">Phase 2: Merge - Level by Level</text>
    
    <!-- Merging 38,27 -->
    <rect x="70" y="825" width="60" height="35" rx="4" fill="#ff9800"/>
    <text x="100" y="842" text-anchor="middle" fill="white" font-weight="bold">38</text>
    <rect x="135" y="825" width="60" height="35" rx="4" fill="#ff9800"/>
    <text x="165" y="842" text-anchor="middle" fill="white" font-weight="bold">27</text>
    <path d="M200,842 L240,842" stroke="#ff9800" stroke-width="2" marker-end="url(#arrowOrange)"/>
    <rect x="250" y="825" width="80" height="35" rx="4" fill="#4caf50"/>
    <text x="290" y="842" text-anchor="middle" fill="white" font-weight="bold">27,38</text>
    
    <!-- Merging 43,3 -->
    <rect x="350" y="825" width="60" height="35" rx="4" fill="#ff9800"/>
    <text x="380" y="842" text-anchor="middle" fill="white" font-weight="bold">43</text>
    <rect x="415" y="825" width="60" height="35" rx="4" fill="#ff9800"/>
    <text x="445" y="842" text-anchor="middle" fill="white" font-weight="bold">3</text>
    <path d="M480,842 L520,842" stroke="#ff9800" stroke-width="2" marker-end="url(#arrowOrange)"/>
    <rect x="530" y="825" width="80" height="35" rx="4" fill="#4caf50"/>
    <text x="570" y="842" text-anchor="middle" fill="white" font-weight="bold">3,43</text>
    
    <!-- Merging 9,82 -->
    <rect x="350" y="870" width="60" height="35" rx="4" fill="#ff9800"/>
    <text x="380" y="887" text-anchor="middle" fill="white" font-weight="bold">9</text>
    <rect x="415" y="870" width="60" height="35" rx="4" fill="#ff9800"/>
    <text x="445" y="887" text-anchor="middle" fill="white" font-weight="bold">82</text>
    <path d="M480,887 L520,887" stroke="#ff9800" stroke-width="2" marker-end="url(#arrowOrange)"/>
    <rect x="530" y="870" width="80" height="35" rx="4" fill="#4caf50"/>
    <text x="570" y="887" text-anchor="middle" fill="white" font-weight="bold">9,82</text>
    
    <text x="400" y="920" text-anchor="middle" class="label-text" fill="#e65100">Single elements merge into sorted pairs</text>
  </g>
  
  <!-- Step 8: Merge Phase - Second Level -->
  <g class="step" id="step8" data-narration="Continue merging sorted pairs: [27,38] and [3,43] merge to [3,27,38,43]. Similarly for the right half.">
    <rect x="50" y="895" width="700" height="100" rx="10" fill="url(#purpleGrad)" filter="url(#shadow)"/>
    <text x="70" y="920" class="subtitle-text" font-weight="bold">Phase 2: Merge - Second Level</text>
    
    <!-- Merging [27,38] and [3,43] -->
    <rect x="70" y="940" width="120" height="35" rx="4" fill="#9c27b0"/>
    <text x="130" y="957" text-anchor="middle" fill="white" font-weight="bold">27,38</text>
    <rect x="200" y="940" width="120" height="35" rx="4" fill="#9c27b0"/>
    <text x="260" y="957" text-anchor="middle" fill="white" font-weight="bold">3,43</text>
    <path d="M330,957 L370,957" stroke="#9c27b0" stroke-width="2" marker-end="url(#arrowBlue)"/>
    <rect x="380" y="940" width="130" height="35" rx="4" fill="#1976d2"/>
    <text x="445" y="957" text-anchor="middle" fill="white" font-weight="bold">3,27,38,43</text>
    
    <!-- Merging [9,82] and [10] -->
    <rect x="520" y="940" width="80" height="35" rx="4" fill="#9c27b0"/>
    <text x="560" y="957" text-anchor="middle" fill="white" font-weight="bold">9,82</text>
    <rect x="610" y="940" width="60" height="35" rx="4" fill="#9c27b0"/>
    <text x="640" y="957" text-anchor="middle" fill="white" font-weight="bold">10</text>
    <path d="M680,957 L700,957" stroke="#9c27b0" stroke-width="2" marker-end="url(#arrowBlue)"/>
    <rect x="70" y="985" width="100" height="35" rx="4" fill="#388e3c"/>
    <text x="120" y="1002" text-anchor="middle" fill="white" font-weight="bold">9,10,82</text>
    
    <text x="400" y="1035" text-anchor="middle" class="label-text" fill="#4a148c">Left sorted: [3,27,38,43] | Right sorted: [9,10,82]</text>
  </g>
  
  <!-- Step 9: Final Merge -->
  <g class="step" id="step9" data-narration="Final merge combines [3,27,38,43] and [9,10,82] to produce the completely sorted array [3,9,10,27,38,43,82].">
    <rect x="50" y="1010" width="700" height="95" rx="10" fill="url(#greenGrad)" filter="url(#shadow)"/>
    <text x="70" y="1035" class="subtitle-text" font-weight="bold">Phase 3: Final Merge - Complete Sorted Array</text>
    
    <!-- Final merge -->
    <rect x="70" y="1055" width="160" height="35" rx="4" fill="#388e3c"/>
    <text x="150" y="1072" text-anchor="middle" fill="white" font-weight="bold">3,27,38,43</text>
    <rect x="240" y="1055" width="130" height="35" rx="4" fill="#388e3c"/>
    <text x="305" y="1072" text-anchor="middle" fill="white" font-weight="bold">9,10,82</text>
    <path d="M380,1072 L420,1072" stroke="#388e3c" stroke-width="3" marker-end="url(#arrowGreen)"/>
    
    <!-- Result -->
    <rect x="430" y="1055" width="300" height="35" rx="4" fill="#2e7d32" stroke="#1b5e20" stroke-width="2"/>
    <text x="580" y="1072" text-anchor="middle" fill="white" font-size="14" font-weight="bold">3, 9, 10, 27, 38, 43, 82</text>
    
    <text x="400" y="1105" text-anchor="middle" class="label-text" fill="#1b5e20">✓ Array completely sorted!</text>
  </g>
  
  <!-- Step 10: Time Complexity Analysis -->
  <g class="step" id="step10" data-narration="Time complexity is derived from recurrence: T(n) = 2T(n/2) + O(n). Two subproblems of half size plus merge cost.">
    <rect x="50" y="1120" width="700" height="95" rx="10" fill="url(#redGrad)" filter="url(#shadow)"/>
    <text x="70" y="1145" class="subtitle-text" font-weight="bold">Time Complexity Analysis</text>
    
    <rect x="70" y="1160" width="300" height="45" rx="8" fill="#fff" stroke="#f44336"/>
    <text x="220" y="1178" text-anchor="middle" class="formula-text" fill="#c62828">Recurrence: T(n) = 2T(n/2) + Θ(n)</text>
    <text x="220" y="1195" text-anchor="middle" class="body-text" fill="#f44336">Divide: 2 subproblems | Merge: O(n)</text>
    
    <!-- Recursion tree visualization -->
    <rect x="390" y="1160" width="180" height="45" rx="8" fill="#ffcdd2"/>
    <text x="480" y="1178" text-anchor="middle" class="formula-text">T(n)</text>
    <text x="480" y="1195" text-anchor="middle" class="body-text">Level 0: n</text>
    <path d="M490,1165 L510,1165" stroke="#f44336" stroke-width="1"/>
    <path d="M510,1165 L530,1160" stroke="#f44336" stroke-width="1"/>
    <path d="M510,1165 L530,1170" stroke="#f44336" stroke-width="1"/>
  </g>
  
  <!-- Step 11: Master Theorem -->
  <g class="step" id="step11" data-narration="Using Master Theorem: a=2, b=2, f(n)=n. Since n^log₂² = n¹ = n, we have Case 2 giving Θ(n log n).">
    <rect x="50" y="1230" width="700" height="110" rx="10" fill="url(#blueGrad)" filter="url(#shadow)"/>
    <text x="70" y="1255" class="subtitle-text" font-weight="bold">Master Theorem Application</text>
    
    <!-- Master theorem boxes -->
    <rect x="70" y="1270" width="140" height="60" rx="8" fill="#e3f2fd" stroke="#1976d2"/>
    <text x="140" y="1290" text-anchor="middle" class="highlight">Parameters</text>
    <text x="140" y="1305" text-anchor="middle" class="body-text">a = 2, b = 2</text>
    <text x="140" y="1320" text-anchor="middle" class="body-text">f(n) = n</text>
    
    <rect x="230" y="1270" width="150" height="60" rx="8" fill="#e3f2fd" stroke="#1976d2"/>
    <text x="305" y="1290" text-anchor="middle" class="highlight">n^(log₂²)</text>
    <text x="305" y="1305" text-anchor="middle" class="body-text">= n¹ = n</text>
    <text x="305" y="1320" text-anchor="middle" class="body-text">Case 2</text>
    
    <rect x="400" y="1270" width="150" height="60" rx="8" fill="#c8e6c9" stroke="#388e3c"/>
    <text x="475" y="1290" text-anchor="middle" class="highlight-green">Result</text>
    <text x="475" y="1310" text-anchor="middle" class="formula-text" fill="#2e7d32">Θ(n log n)</text>
    <text x="475" y="1325" text-anchor="middle" class="label-text">ALL cases!</text>
    
    <!-- Complexity table -->
    <rect x="570" y="1270" width="170" height="60" rx="8" fill="#fff3e0" stroke="#ff9800"/>
    <text x="655" y="1290" text-anchor="middle" class="highlight-orange">Complexity</text>
    <text x="655" y="1308" text-anchor="middle" class="body-text">Best: O(n log n)</text>
    <text x="655" y="1323" text-anchor="middle" class="body-text">Avg/Worst: O(n log n)</text>
  </g>
  
  <!-- Step 12: Space and Stability -->
  <g class="step" id="step12" data-narration="Merge Sort requires O(n) auxiliary space for temporary arrays during merging and is stable, preserving equal element order.">
    <rect x="50" y="1355" width="700" height="95" rx="10" fill="url(#orangeGrad)" filter="url(#shadow)"/>
    <text x="70" y="1380" class="subtitle-text" font-weight="bold">Space Complexity &amp; Stability</text>
    
    <!-- Space -->
    <rect x="70" y="1400" width="280" height="40" rx="8" fill="#ffe0b2" stroke="#ff9800"/>
    <text x="210" y="1420" text-anchor="middle" class="formula-text" fill="#e65100">Space: O(n)</text>
    <text x="210" y="1435" text-anchor="middle" class="label-text">Auxiliary space for L[] and R[] arrays</text>
    
    <!-- Stability -->
    <rect x="370" y="1400" width="180" height="40" rx="8" fill="#c8e6c9" stroke="#388e3c"/>
    <text x="460" y="1420" text-anchor="middle" class="formula-text" fill="#2e7d32">STABLE</text>
    <text x="460" y="1435" text-anchor="middle" class="label-text">Equal elements maintain order</text>
    
    <!-- Note -->
    <rect x="570" y="1400" width="170" height="40" rx="8" fill="#ffcdd2" stroke="#f44336"/>
    <text x="655" y="1420" text-anchor="middle" class="formula-text" fill="#c62828">Trade-off</text>
    <text x="655" y="1435" text-anchor="middle" class="label-text">O(n) space vs O(n log n) guarantee</text>
  </g>
  
  <!-- SECTION 3: SUMMARY -->
  
  <!-- Step 13: Key Formulas Summary -->
  <g class="step" id="step13" data-narration="Key takeaways: T(n) = 2T(n/2) + Θ(n) solves to Θ(n log n). Merge Sort is stable with O(n) space.">
    <rect x="50" y="1465" width="700" height="100" rx="10" fill="url(#purpleGrad)" filter="url(#shadow)"/>
    <text x="70" y="1490" class="subtitle-text" font-weight="bold" fill="#4a148c">Key Formulas Summary</text>
    
    <rect x="70" y="1505" width="200" height="50" rx="8" fill="#f3e5f5" stroke="#9c27b0"/>
    <text x="170" y="1525" text-anchor="middle" class="formula-text" fill="#7b1fa2">T(n) = 2T(n/2) + Θ(n)</text>
    <text x="170" y="1545" text-anchor="middle" class="label-text">Recurrence Relation</text>
    
    <rect x="290" y="1505" width="200" height="50" rx="8" fill="#e3f2fd" stroke="#1976d2"/>
    <text x="390" y="1525" text-anchor="middle" class="formula-text" fill="#1565c0">Θ(n log n)</text>
    <text x="390" y="1545" text-anchor="middle" class="label-text">Time Complexity</text>
    
    <rect x="510" y="1505" width="120" height="50" rx="8" fill="#e8f5e9" stroke="#388e3c"/>
    <text x="570" y="1525" text-anchor="middle" class="formula-text" fill="#2e7d32">O(n)</text>
    <text x="570" y="1545" text-anchor="middle" class="label-text">Space</text>
    
    <rect x="650" y="1505" width="90" height="50" rx="8" fill="#fff3e0" stroke="#ff9800"/>
    <text x="695" y="1525" text-anchor="middle" class="formula-text" fill="#e65100">Stable</text>
    <text x="695" y="1545" text-anchor="middle" class="label-text">Yes</text>
  </g>
  
  <!-- Step 14: Exam Tips -->
  <g class="step" id="step14" data-narration="Exam tips: Remember the recurrence relation, master theorem, O(n) space, and stability. Don't confuse with Quick Sort's pivot approach.">
    <rect x="50" y="1580" width="700" height="100" rx="10" fill="url(#titleGrad)" filter="url(#shadow)"/>
    <text x="400" y="1605" text-anchor="middle" class="title-text" fill="white" font-size="16">Exam Tips &amp; Key Differences</text>
    
    <rect x="70" y="1620" width="330" height="50" rx="8" fill="rgba(255,255,255,0.2)"/>
    <text x="235" y="1640" text-anchor="middle" fill="white" class="body-text">vs Quick Sort</text>
    <text x="235" y="1658" text-anchor="middle" fill="white" class="label-text">Merge: midpoint | Quick: pivot element</text>
    
    <rect x="420" y="1620" width="310" height="50" rx="8" fill="rgba(255,255,255,0.2)"/>
    <text x="575" y="1640" text-anchor="middle" fill="white" class="body-text">Remember</text>
    <text x="575" y="1658" text-anchor="middle" fill="white" class="label-text">Base case: single element is sorted</text>
  </g>
</svg>