<svg width="420" height="400" data-topic-id="information-photometric-image-formation">
  <defs>
    <linearGradient id="pastel-background" x1="0%" y1="0%" x2="100%" y2="0%">
      <stop offset="0%" stop-color="#C7B8EA" stop-opacity="1" />
      <stop offset="100%" stop-color="#A1C9F2" stop-opacity="1" />
    </linearGradient>
  </defs>
  <rect x="10" y="20" width="400" height="350" fill="url(#pastel-background)" opacity="0.5" />
  <text x="20" y="30" font-size="36" font-family="Arial" font-weight="bold" text-anchor="start" fill="#3498DB">
    Photometric Image Formation
  </text>
  <g transform="translate(10, 60)">
    <rect x="0" y="0" width="200" height="100" fill="#F7F7F7" rx="10" />
    <text x="10" y="10" font-size="24" font-family="Arial" font-weight="bold" text-anchor="start" fill="#2ECC71">
      Light Sources and Illumination
    </text>
    <animateTransform attributeName="transform" type="translate" from="0 20" to="0 80" begin="0s" dur="2s" repeatCount="indefinite" />
    <rect x="30" y="30" width="40" height="40" fill="#3498DB" rx="10" />
    <rect x="60" y="30" width="40" height="40" fill="#E74C3C" rx="10" />
    <rect x="90" y="30" width="40" height="40" fill="#2ECC71" rx="10" />
    <rect x="120" y="30" width="40" height="40" fill="#F1C40F" rx="10" />
  </g>
  <g transform="translate(220, 60)">
    <rect x="0" y="0" width="200" height="100" fill="#F7F7F7" rx="10" />
    <text x="10" y="10" font-size="24" font-family="Arial" font-weight="bold" text-anchor="start" fill="#2ECC71">
      Surface Reflection Models
    </text>
    <animateTransform attributeName="transform" type="translate" from="0 20" to="0 80" begin="2s" dur="2s" repeatCount="indefinite" />
    <rect x="30" y="30" width="40" height="40" fill="#3498DB" rx="10" />
    <rect x="60" y="30" width="40" height="40" fill="#E74C3C" rx="10" />
    <rect x="90" y="30" width="40" height="40" fill="#2ECC71" rx="10" />
    <rect x="120" y="30" width="40" height="40" fill="#F1C40F" rx="10" />
  </g>
  <g transform="translate(420, 60)">
    <rect x="0" y="0" width="200" height="100" fill="#F7F7F7" rx="10" />
    <text x="10" y="10" font-size="24" font-family="Arial" font-weight="bold" text-anchor="start" fill="#2ECC71">
      Photometric Image Formation Math
    </text>
    <animateTransform attributeName="transform" type="translate" from="0 20" to="0 80" begin="4s" dur="2s" repeatCount="indefinite" />
    <rect x="30" y="30" width="40" height="40" fill="#3498DB" rx="10" />
    <rect x="60" y="30" width="40" height="40" fill="#E74C3C" rx="10" />
    <rect x="90" y="30" width="40" height="40" fill="#2ECC71" rx="10" />
    <rect x="120" y="30" width="40" height="40" fill="#F1C40F" rx="10" />
  </g>
  <g transform="translate(220, 260)">
    <rect x="0" y="0" width="200" height="100" fill="#F7F7F7" rx="10" />
    <text x="10" y="10" font-size="24" font-family="Arial" font-weight="bold" text-anchor="start" fill="#2ECC71">
      Real-World Applications
    </text>
    <animateTransform attributeName="transform" type="translate" from="0 20" to="0 80" begin="6s" dur="2s" repeatCount="indefinite" />
    <rect x="30" y="30" width="40" height="40" fill="#3498DB" rx="10" />
    <rect x="60" y="30" width="40" height="40" fill="#E74C3C" rx="10" />
    <rect x="90" y="30" width="40" height="40" fill="#2ECC71" rx="10" />
    <rect x="120" y="30" width="40" height="40" fill="#F1C40F" rx="10" />
  </g>
  <g transform="translate(420, 260)">
    <rect x="0" y="0" width="200" height="100" fill="#F7F7F7" rx="10" />
    <text x="10" y="10" font-size="24" font-family="Arial" font-weight="bold" text-anchor="start" fill="#2ECC71">
      Conclusion
    </text>
    <animateTransform attributeName="transform" type="translate" from="0 20" to="0 80" begin="8s" dur="2s" repeatCount="indefinite" />
    <rect x="30" y="30" width="40" height="40" fill="#3498DB" rx="10" />
    <rect x="60" y="30" width="40" height="40" fill="#E74C3C" rx="10" />
    <rect x="90" y="30" width="40" height="40" fill="#2ECC71" rx="10" />
    <rect x="120" y="30" width="40" height="40" fill="#F1C40F" rx="10" />
  </g>
  <path d="M 10 370 L 10 380 L 100 380 L 100 370 Z" stroke="#3498DB" stroke-width="2" fill="none" />
  <path d="M 10 380 L 10 390 L 100 390 L 100 380 Z" stroke="#E74C3C" stroke-width="2" fill="none" />
  <path d="M 10 390 L 10 400 L 100 400 L 100 390 Z" stroke="#2ECC71" stroke-width="2" fill="none" />
  <path d="M 10 400 L 10 410 L 100 410 L 100 400 Z" stroke="#F1C40F" stroke-width="2" fill="none" />
</svg>