<svg width="420" height="400" data-topic-id="special-purpose-systems" xmlns="http://www.w3.org/2000/svg" xmlns:xlink="http://www.w3.org/1999/xlink" xlink:href="#">
  <defs>
    <linearGradient id="pastel-gradient" x1="0%" y1="0%" x2="100%" y2="0%">
      <stop offset="0%" stop-color="#C7B8EA" stop-opacity="1" />
      <stop offset="100%" stop-color="#C5CAE9" stop-opacity="1" />
    </linearGradient>
  </defs>
  <rect x="10" y="10" width="400" height="380" fill="url(#pastel-gradient)" rx="10" />
  <title>Special Purpose Systems</title>
  <g transform="translate(20, 20)">
    <text x="10" y="50" font-size="24" font-family="Arial, sans-serif" font-weight="bold" text-anchor="start">Special Purpose Systems</text>
    <rect x="60" y="80" width="300" height="200" fill="#F7F7F7" rx="10">
      <animateTransform attributeName="transform" type="rotate" from="0 300 200" to="360 300 200" dur="10s" repeatCount="indefinite" />
      <text x="120" y="120" font-size="16" font-family="Arial, sans-serif" text-anchor="middle">Characteristics</text>
      <rect x="120" y="150" width="180" height="50" fill="#E5E5E5" rx="5" />
      <text x="160" y="170" font-size="16" font-family="Arial, sans-serif" text-anchor="middle" data-narration="Single Functionality">Single Functionality</text>
      <rect x="120" y="200" width="180" height="50" fill="#E5E5E5" rx="5" />
      <text x="160" y="220" font-size="16" font-family="Arial, sans-serif" text-anchor="middle" data-narration="Customization">Customization</text>
      <rect x="120" y="250" width="180" height="50" fill="#E5E5E5" rx="5" />
      <text x="160" y="270" font-size="16" font-family="Arial, sans-serif" text-anchor="middle" data-narration="Limited Scalability">Limited Scalability</text>
      <rect x="120" y="300" width="180" height="50" fill="#E5E5E5" rx="5" />
      <text x="160" y="320" font-size="16" font-family="Arial, sans-serif" text-anchor="middle" data-narration="High Performance Requirements">High Performance Requirements</text>
    </rect>
    <rect x="60" y="330" width="300" height="150" fill="#F7F7F7" rx="10">
      <animateTransform attributeName="transform" type="rotate" from="0 300 150" to="360 300 150" dur="10s" repeatCount="indefinite" />
      <text x="120" y="170" font-size="16" font-family="Arial, sans-serif" text-anchor="middle">Advantages</text>
      <rect x="120" y="200" width="180" height="50" fill="#E5E5E5" rx="5" />
      <text x="160" y="220" font-size="16" font-family="Arial, sans-serif" text-anchor="middle" data-narration="Cost-Effective">Cost-Effective</text>
      <rect x="120" y="250" width="180" height="50" fill="#E5E5E5" rx="5" />
      <text x="160" y="270" font-size="16" font-family="Arial, sans-serif" text-anchor="middle" data-narration="Improved Performance">Improved Performance</text>
      <rect x="120" y="300" width="180" height="50" fill="#E5E5E5" rx="5" />
      <text x="160" y="320" font-size="16" font-family="Arial, sans-serif" text-anchor="middle" data-narration="Security">Security</text>
    </rect>
    <rect x="60" y="450" width="300" height="150" fill="#F7F7F7" rx="10">
      <animateTransform attributeName="transform" type="rotate" from="0 300 200" to="360 300 200" dur="10s" repeatCount="indefinite" />
      <text x="120" y="470" font-size="16" font-family="Arial, sans-serif" text-anchor="middle">Disadvantages</text>
      <rect x="120" y="500" width="180" height="50" fill="#E5E5E5" rx="5" />
      <text x="160" y="520" font-size="16" font-family="Arial, sans-serif" text-anchor="middle" data-narration="Limited Applicability">Limited Applicability</text>
      <rect x="120" y="550" width="180" height="50" fill="#E5E5E5" rx="5" />
      <text x="160" y="570" font-size="16" font-family="Arial, sans-serif" text-anchor="middle" data-narration="Limited Scalability">Limited Scalability</text>
      <rect x="120" y="600" width="180" height="50" fill="#E5E5E5" rx="5" />
      <text x="160" y="620" font-size="16" font-family="Arial, sans-serif" text-anchor="middle" data-narration="Maintenance and Upgrades">Maintenance and Upgrades</text>
    </rect>
    <rect x="60" y="650" width="300" height="100" fill="#F7F7F7" rx="10">
      <animateTransform attributeName="transform" type="rotate" from="0 300 100" to="360 300 100" dur="10s" repeatCount="indefinite" />
      <text x="120" y="670" font-size="16" font-family="Arial, sans-serif" text-anchor="middle">Examples</text>
      <rect x="120" y="700" width="180" height="50" fill="#E5E5E5" rx="5" />
      <text x="160" y="720" font-size="16" font-family="Arial, sans-serif" text-anchor="middle" data-narration="Point of Sale (POS) Systems">Point of Sale (POS) Systems</text>
    </rect>
  </g>
  <footer>Drawn with SVG.js</footer>
</svg>