<svg width="420" height="400" data-topic-id="threading-issues">
  <defs>
    <linearGradient id="gradient" x1="0%" y1="0%" x2="100%" y2="0%">
      <stop offset="0%" stop-color="#C7B8EA" stop-opacity="1" />
      <stop offset="100%" stop-color="#8BC34A" stop-opacity="1" />
    </linearGradient>
  </defs>

  <title>Threading Issues</title>

  <rect fill="url(#gradient)" x="10" y="10" width="400" height="120" rx="10" data-narration="Introduction to Threading Issues" />

  <animate transform="translate(0, 120)" begin="0s" dur="1s" fill="freeze" />
  <rect fill="none" x="20" y="140" width="360" height="80" rx="10" data-narration="Types of Threading Issues" />
  <animate transform="translate(0, 220)" begin="1s" dur="1s" fill="freeze" />
  <rect fill="none" x="20" y="260" width="360" height="80" rx="10" data-narration="Deadlock" />
  <animate transform="translate(0, 360)" begin="2s" dur="1s" fill="freeze" />
  <rect fill="none" x="20" y="400" width="360" height="80" rx="10" data-narration="Livelock" />
  <animate transform="translate(0, 480)" begin="3s" dur="1s" fill="freeze" />
  <rect fill="none" x="20" y="520" width="360" height="80" rx="10" data-narration="Starvation" />
  <animate transform="translate(0, 620)" begin="4s" dur="1s" fill="freeze" />
  <rect fill="none" x="20" y="660" width="360" height="80" rx="10" data-narration="Prioritization and Scheduling" />
  <animate transform="translate(0, 800)" begin="5s" dur="1s" fill="freeze" />
  <rect fill="none" x="20" y="840" width="360" height="80" rx="10" data-narration="Example of Threading Issues" />
  <animate transform="translate(0, 980)" begin="6s" dur="1s" fill="freeze" />

  <rect fill="none" x="10" y="10" width="400" height="40" rx="10" data-narration="Table of Contents" />
  <text x="20" y="30" font-size="16" font-family="Arial" fill="#3498db">Table of Contents</text>
  <rect fill="none" x="10" y="60" width="400" height="40" rx="10" data-narration="Introduction" />
  <text x="20" y="80" font-size="16" font-family="Arial" fill="#3498db">Introduction</text>
  <rect fill="none" x="10" y="100" width="400" height="40" rx="10" data-narration="Types of Threading Issues" />
  <text x="20" y="120" font-size="16" font-family="Arial" fill="#3498db">Types of Threading Issues</text>
  <rect fill="none" x="10" y="130" width="400" height="40" rx="10" data-narration="Deadlock" />
  <text x="20" y="150" font-size="16" font-family="Arial" fill="#3498db">Deadlock</text>
  <rect fill="none" x="10" y="170" width="400" height="40" rx="10" data-narration="Livelock" />
  <text x="20" y="190" font-size="16" font-family="Arial" fill="#3498db">Livelock</text>
  <rect fill="none" x="10" y="210" width="400" height="40" rx="10" data-narration="Starvation" />
  <text x="20" y="230" font-size="16" font-family="Arial" fill="#3498db">Starvation</text>
  <rect fill="none" x="10" y="250" width="400" height="40" rx="10" data-narration="Prioritization and Scheduling" />
  <text x="20" y="270" font-size="16" font-family="Arial" fill="#3498db">Prioritization and Scheduling</text>
  <rect fill="none" x="10" y="290" width="400" height="40" rx="10" data-narration="Example of Threading Issues" />
  <text x="20" y="310" font-size="16" font-family="Arial" fill="#3498db">Example of Threading Issues</text>

  <rect fill="none" x="10" y="340" width="400" height="40" rx="10" data-narration="Get Started" />
  <text x="20" y="360" font-size="16" font-family="Arial" fill="#3498db">Get Started</text>

  <rect fill="none" x="10" y="390" width="400" height="40" rx="10" data-narration="Learn More" />
  <text x="20" y="410" font-size="16" font-family="Arial" fill="#3498db">Learn More</text>

  <text x="20" y="440" font-size="16" font-family="Arial" fill="#3498db">Threading Issues</text>
  <text x="20" y="460" font-size="16" font-family="Arial" fill="#3498db">Specialization of Threading Issues</text>
  <text x="20" y="480" font-size="16" font-family="Arial" fill="#3498db">Threading Issues</text>
  <text x="20" y="500" font-size="16" font-family="Arial" fill="#3498db">Threading Issues</text>
  <text x="20" y="520" font-size="16" font-family="Arial" fill="#3498db">Threading Issues</text>
  <text x="20" y="540" font-size="16" font-family="Arial" fill="#3498db">Threading Issues</text>
  <text x="20" y="560" font-size="16" font-family="Arial" fill="#3498db">Threading Issues</text>
  <text x="20" y="580" font-size="16" font-family="Arial" fill="#3498db">Threading Issues</text>
  <text x="20" y="600" font-size="16" font-family="Arial" fill="#3498db">Threading Issues</text>
  <text x="20" y="620" font-size="16" font-family="Arial" fill="#3498db">Threading Issues</text>
  <text x="20" y="640" font-size="16" font-family="Arial" fill="#3498db">Threading Issues</text>
  <text x="20" y="660" font-size="16" font-family="Arial" fill="#3498db">Threading Issues</text>
  <text x="20" y="680" font-size="16" font-family="Arial" fill="#3498db">Threading Issues</text>
  <text x="20" y="700" font-size="16" font-family="Arial" fill="#3498db">Threading Issues</text>
  <text x="20" y="720" font-size="16" font-family="Arial" fill="#3498db">Threading Issues</text>
  <text x="20" y="740" font-size="16" font-family="Arial" fill="#3498db">Threading Issues</text>
  <text x="20" y="760" font-size="16" font-family="Arial" fill="#3498db">Threading Issues</text>
  <text x="20" y="780" font-size="16" font-family="Arial" fill="#3498db">Threading Issues</text>
  <text x="20" y="800" font-size="16" font-family="Arial" fill="#3498db">Threading Issues</text>

  <g>
    <path fill="none" stroke="#3498db" stroke-width="2" d="M 20, 100 L 20, 140" data-narration="Deadlock" />
    <path fill="none" stroke="#3498db" stroke-width="2" d="M 20, 140 L 20, 180" data-narration="Livelock" />
    <path fill="none" stroke="#3498db" stroke-width="2" d="M 20, 180 L 20, 220" data-narration="Starvation" />
    <path fill="none" stroke="#3498db" stroke-width="2" d="M 20, 220 L 20, 260" data-narration="Prioritization and Scheduling" />
  </g>

  <g>
    <path fill="none" stroke="#3498db" stroke-width="2" d="M 20, 300 L 20, 340" data-narration="Deadlock" />
    <path fill="none" stroke="#3498db" stroke-width="2" d="M 20, 340 L 20, 380" data-narration="Livelock" />
    <path fill="none" stroke="#3498db" stroke-width="2" d="M 20, 380 L 20, 420" data-narration="Starvation" />
    <path fill="none" stroke="#3498db" stroke-width="2" d="M 20, 420 L 20, 460" data-narration="Prioritization and Scheduling" />
  </g>

  <g>
    <path fill="none" stroke="#3498db" stroke-width="2" d="M 20, 400 L 20, 440" data-narration="Deadlock" />
    <path fill="none" stroke="#3498db" stroke-width="2" d="M 20, 440 L 20, 480" data-narration="Livelock" />
    <path fill="none" stroke="#3498db" stroke-width="2" d="M 20, 480 L 20, 520" data-narration="Starvation" />
    <path fill="none" stroke="#3498db" stroke-width="2" d="M 20, 520 L 20, 560" data-narration="Prioritization and Scheduling" />
  </g>

  <g>
    <path fill="none" stroke="#3498db" stroke-width="2" d="M 20, 500 L 20, 540" data-narration="Deadlock" />
    <path fill="none" stroke="#3498db" stroke-width="2" d="M 20, 540 L 20, 580" data-narration="Livelock" />
    <path fill="none" stroke="#3498db" stroke-width="2" d="M 20, 580 L 20, 620" data-narration="Starvation" />
    <path fill="none" stroke="#3498db" stroke-width="2" d="M 20, 620 L 20, 660" data-narration="Prioritization and Scheduling" />
  </g>

  <g>
    <path fill="none" stroke="#3498db" stroke-width="2" d="M 20, 480 L 20, 510" data-narration="Deadlock" />
    <path fill="none" stroke="#3498db" stroke-width="2" d="M 20, 510 L 20, 550" data-narration="Livelock" />
    <path fill="none" stroke="#3498db" stroke-width="2" d="M 20, 550 L 20, 590" data-narration="Starvation" />
    <path fill="none" stroke="#3498db" stroke-width="2" d="M 20, 590 L 20, 630" data-narration="Prioritization and Scheduling" />
  </g>

  <g>
    <path fill="none" stroke="#3498db" stroke-width="2" d="M 20, 440 L 20, 470" data-narration="Deadlock" />
    <path fill="none" stroke="#3498db" stroke-width="2" d="M 20, 470 L 20, 510" data-narration="Livelock" />
    <path fill="none" stroke="#3498db" stroke-width="2" d="M 20, 510 L 20, 550" data-narration="Starvation" />
    <path fill="none" stroke="#3498db" stroke-width="2" d="M 20, 550 L 20, 590" data-narration="Prioritization and Scheduling" />
  </g>

  <g>
    <path fill="none" stroke="#3498db" stroke-width="2" d="M 20, 380 L 20, 410" data-narration="Deadlock" />
    <path fill="none" stroke="#3498db" stroke-width="2" d="M 20, 410 L 20, 450" data-narration="Livelock" />
    <path fill="none" stroke="#3498db" stroke-width="2" d="M 20, 450 L 20, 490" data-narration="Starvation" />
    <path fill="none" stroke="#3498db" stroke-width="2" d="M 20, 490 L 20, 530" data-narration="Prioritization and Scheduling" />
  </g>

  <g>
    <path fill="none" stroke="#3498db" stroke-width="2" d="M 20, 340 L 20, 370" data-narration="Deadlock" />
    <path fill="none" stroke="#3498db" stroke-width="2" d="M 20, 370 L 20, 410" data-narration="Livelock" />
    <path fill="none" stroke="#3498db" stroke-width="2" d="M 20, 410 L 20, 450" data-narration="Starvation" />
    <path fill="none" stroke="#3498db" stroke-width="2" d="M 20, 450 L 20, 490" data-narration="Prioritization and Scheduling" />
  </g>

  <g>
    <path fill="none" stroke="#3498db" stroke-width="2" d="M 20, 300 L 20, 330" data-narration="Deadlock" />
    <path fill="none" stroke="#3498db" stroke-width="2" d="M 20, 330 L 20, 360" data-narration="Livelock" />
    <path fill="none" stroke="#3498db" stroke-width="2" d="M 20, 360 L 20, 400" data-narration="Starvation" />
    <path fill="none" stroke="#3498db" stroke-width="2" d="M 20, 400 L 20, 440" data-narration="Prioritization and Scheduling" />
  </g>

</svg>