<svg width="420" height="400" data-topic-id="infrastructure-as-the-foundation-for-data-warehousing">
  <defs>
    <style>
      .section {
        margin-bottom: 20px;
      }
    </style>
  </defs>
  <title>Infrastructure as the Foundation for Data Warehousing</title>
  <footer>
    <text x="50%" y="50%" font-size="24" font-family="Arial, sans-serif" fill="#666">Data Warehousing</text>
  </footer>
  <rect x="0" y="0" width="420" height="400" fill="#C7E5F5" opacity="0.9" />
  <rect x="0" y="0" width="100%" height="50%" fill="#87CEEB" />
  <rect x="0" y="50%" width="100%" height="50%" fill="#FFC080" />
  <rect x="0" y="100%" width="100%" height="50%" fill="#4B0082" />
  <rect x="0" y="150%" width="100%" height="50%" fill="#00875A" />
  <rect x="0" y="200%" width="100%" height="50%" fill="#FF9900" />
  <path d="M 10 10 H 40 L 60 10 L 90 40 L 10 60 L 10 100 Z" fill="#666" />
  <g transform="translate(10 10)">
    <text data-narration="Hardware Components" font-size="24" font-family="Arial, sans-serif" fill="#666">Hardware Components</text>
    <rect x="0" y="0" width="200" height="40" fill="#F2F2F2" rx="10" />
    <rect x="0" y="50" width="200" height="40" fill="#F2F2F2" rx="10" />
    <rect x="0" y="100" width="200" height="40" fill="#F2F2F2" rx="10" />
    <animateTransform attributeName="transform" type="rotate" from="0 200 200" to="360 200 200" dur="10s" begin="0s" repeatCount="indefinite" />
  </g>
  <g transform="translate(220 10)">
    <text data-narration="Operating Systems" font-size="24" font-family="Arial, sans-serif" fill="#666">Operating Systems</text>
    <rect x="0" y="0" width="200" height="40" fill="#F2F2F2" rx="10" />
    <rect x="0" y="50" width="200" height="40" fill="#F2F2F2" rx="10" />
    <rect x="0" y="100" width="200" height="40" fill="#F2F2F2" rx="10" />
    <animateTransform attributeName="transform" type="rotate" from="0 200 200" to="360 200 200" dur="10s" begin="10s" repeatCount="indefinite" />
  </g>
  <g transform="translate(440 10)">
    <text data-narration="Database Software" font-size="24" font-family="Arial, sans-serif" fill="#666">Database Software</text>
    <rect x="0" y="0" width="200" height="40" fill="#F2F2F2" rx="10" />
    <rect x="0" y="50" width="200" height="40" fill="#F2F2F2" rx="10" />
    <rect x="0" y="100" width="200" height="40" fill="#F2F2F2" rx="10" />
    <animateTransform attributeName="transform" type="rotate" from="0 200 200" to="360 200 200" dur="10s" begin="20s" repeatCount="indefinite" />
  </g>
  <g transform="translate(220 220)">
    <path data-narration="Arrow to Server" d="M 150 200 L 300 200" fill="#666" stroke="#666" stroke-width="2" />
    <text x="220" y="240" font-size="18" font-family="Arial, sans-serif" fill="#666">Servers</text>
  </g>
  <g transform="translate(440 220)">
    <path data-narration="Arrow to Storage Devices" d="M 280 200 L 320 200" fill="#666" stroke="#666" stroke-width="2" />
    <text x="360" y="240" font-size="18" font-family="Arial, sans-serif" fill="#666">Storage Devices</text>
  </g>
  <g transform="translate(220 380)">
    <path data-narration="Arrow to Network Equipment" d="M 150 350 L 300 350" fill="#666" stroke="#666" stroke-width="2" />
    <text x="220" y="370" font-size="18" font-family="Arial, sans-serif" fill="#666">Network Equipment</text>
  </g>
  <g transform="translate(440 380)">
    <path data-narration="Arrow to Power Supplies" d="M 280 350 L 320 350" fill="#666" stroke="#666" stroke-width="2" />
    <text x="360" y="370" font-size="18" font-family="Arial, sans-serif" fill="#666">Power Supplies</text>
  </g>
  <g transform="translate(220 450)">
    <path data-narration="Arrow to Unix" d="M 150 420 L 300 420" fill="#666" stroke="#666" stroke-width="2" />
    <text x="220" y="460" font-size="18" font-family="Arial, sans-serif" fill="#666">Unix</text>
  </g>
  <g transform="translate(440 450)">
    <path data-narration="Arrow to Linux" d="M 280 420 L 320 420" fill="#666" stroke="#666" stroke-width="2" />
    <text x="360" y="460" font-size="18" font-family="Arial, sans-serif" fill="#666">Linux</text>
  </g>
  <g transform="translate(220 520)">
    <path data-narration="Arrow to Windows" d="M 150 480 L 300 480" fill="#666" stroke="#666" stroke-width="2" />
    <text x="220" y="540" font-size="18" font-family="Arial, sans-serif" fill="#666">Windows</text>
  </g>
</svg>