<svg xmlns="http://www.w3.org/2000/svg" viewBox="0 0 800 1800" style="font-family: 'Segoe UI', Arial, sans-serif;">
  <defs>
    <linearGradient id="bgGradient" x1="0%" y1="0%" x2="0%" y2="100%">
      <stop offset="0%" style="stop-color:#f8f9fa"/>
      <stop offset="100%" style="stop-color:#e9ecef"/>
    </linearGradient>
    <linearGradient id="blueGradient" x1="0%" y1="0%" x2="100%" y2="100%">
      <stop offset="0%" style="stop-color:#e3f2fd"/>
      <stop offset="100%" style="stop-color:#bbdefb"/>
    </linearGradient>
    <linearGradient id="greenGradient" x1="0%" y1="0%" x2="100%" y2="100%">
      <stop offset="0%" style="stop-color:#e8f5e9"/>
      <stop offset="100%" style="stop-color:#c8e6c9"/>
    </linearGradient>
    <linearGradient id="orangeGradient" x1="0%" y1="0%" x2="100%" y2="100%">
      <stop offset="0%" style="stop-color:#fff3e0"/>
      <stop offset="100%" style="stop-color:#ffe0b2"/>
    </linearGradient>
    <linearGradient id="purpleGradient" x1="0%" y1="0%" x2="100%" y2="100%">
      <stop offset="0%" style="stop-color:#f3e5f5"/>
      <stop offset="100%" style="stop-color:#e1bee7"/>
    </linearGradient>
    <linearGradient id="redGradient" x1="0%" y1="0%" x2="100%" y2="100%">
      <stop offset="0%" style="stop-color:#ffebee"/>
      <stop offset="100%" style="stop-color:#ffcdd2"/>
    </linearGradient>
    <filter id="shadow" x="-20%" y="-20%" width="140%" height="140%">
      <feDropShadow dx="2" dy="3" stdDeviation="3" flood-opacity="0.15"/>
    </filter>
    <marker id="arrowBlue" markerWidth="10" markerHeight="10" refX="9" refY="3" orient="auto">
      <path d="M0,0 L0,6 L9,3 z" fill="#1976d2"/>
    </marker>
    <marker id="arrowGreen" markerWidth="10" markerHeight="10" refX="9" refY="3" orient="auto">
      <path d="M0,0 L0,6 L9,3 z" fill="#388e3c"/>
    </marker>
  </defs>
  
  <rect x="0" y="0" width="800" height="1800" fill="#f8f9fa"/>
  <rect x="0" y="0" width="800" height="1800" fill="url(#bgGradient)" opacity="0.5"/>
  
  <style>
    @keyframes fadeInSlide {
      from { opacity: 0; transform: translateY(20px); }
      to { opacity: 1; transform: translateY(0); }
    }
    @keyframes scaleIn {
      from { opacity: 0; transform: scale(0.85); }
      to { opacity: 1; transform: scale(1); }
    }
    @keyframes textReveal {
      from { opacity: 0; transform: translateX(-10px); }
      to { opacity: 1; transform: translateX(0); }
    }
    @keyframes pulse {
      0%, 100% { transform: scale(1); }
      50% { transform: scale(1.03); }
    }
    @keyframes drawLine {
      from { stroke-dashoffset: 500; }
      to { stroke-dashoffset: 0; }
    }
    @keyframes fillIn {
      from { opacity: 0; }
      to { opacity: 1; }
    }
    .step { animation: fadeInSlide 0.6s ease-out; }
    .step rect {
      animation: scaleIn 0.5s cubic-bezier(0.34, 1.56, 0.64, 1);
      transform-origin: center;
    }
    .step text { animation: textReveal 0.4s ease-out 0.2s backwards; }
    .formula { font-family: 'Courier New', monospace; font-size: 11px; }
    .highlight { animation: pulse 2s infinite; }
    .draw-line {
      stroke-dasharray: 500;
      stroke-dashoffset: 500;
      animation: drawLine 1.5s ease-out forwards;
    }
    .fade-in {
      animation: fillIn 0.8s ease-out forwards;
    }
  </style>

  <!-- Step 0: Title -->
  <g class="step" id="step0" data-narration="Welcome to Top-Down Parsing - a fundamental technique in compiler design for analyzing input strings.">
    <rect x="100" y="10" width="600" height="50" rx="12" fill="url(#blueGradient)" filter="url(#shadow)"/>
    <text x="400" y="42" text-anchor="middle" font-size="22" font-weight="bold" fill="#1565c0">Top-Down Parsing</text>
    <text x="400" y="58" text-anchor="middle" font-size="11" fill="#1976d2">Building parse trees from start symbol to terminals</text>
  </g>

  <!-- Step 1: What is Top-Down Parsing -->
  <g class="step" id="step1" data-narration="Top-down parsing builds the parse tree from the root (start symbol) downward, matching input symbols at each step.">
    <rect x="50" y="75" width="700" height="85" rx="10" fill="white" filter="url(#shadow)"/>
    <text x="70" y="95" font-size="13" font-weight="bold" fill="#333">What is Top-Down Parsing?</text>
    <text x="70" y="115" font-size="11" fill="#555">• Constructs parse tree from root (start symbol) to leaves (terminals)</text>
    <text x="70" y="130" font-size="11" fill="#555">• Begins with start symbol, applies production rules to match input</text>
    <text x="70" y="145" font-size="11" fill="#555">• Intuitive method forming basis for predictive parsing in compilers</text>
    <g transform="translate(480, 95)">
      <ellipse cx="30" cy="15" rx="25" ry="12" fill="#e3f2fd" stroke="#1976d2" stroke-width="1.5"/>
      <text x="30" y="18" text-anchor="middle" font-size="9" fill="#1565c0">S</text>
      <line x1="30" y1="27" x2="15" y2="45" stroke="#1976d2" stroke-width="1.5"/>
      <line x1="30" y1="27" x2="45" y2="45" stroke="#1976d2" stroke-width="1.5"/>
      <ellipse cx="15" cy="50" rx="20" ry="10" fill="#e8f5e9" stroke="#388e3c" stroke-width="1.5"/>
      <ellipse cx="45" cy="50" rx="20" ry="10" fill="#fff3e0" stroke="#ff9800" stroke-width="1.5"/>
      <text x="15" y="53" text-anchor="middle" font-size="8" fill="#2e7d32">A</text>
      <text x="45" y="53" text-anchor="middle" font-size="8" fill="#ef6c00">B</text>
      <text x="0" y="75" font-size="9" fill="#666" style="font-style:italic">Parse Tree builds downward</text>
    </g>
  </g>

  <!-- Step 2: Two Approaches -->
  <g class="step" id="step2" data-narration="There are two main approaches: Recursive Descent uses procedures for each non-terminal, while LL(1) uses predictive tables.">
    <rect x="50" y="170" width="340" height="85" rx="10" fill="url(#greenGradient)" filter="url(#shadow)"/>
    <text x="70" y="190" font-size="13" font-weight="bold" fill="#2e7d32">Recursive Descent</text>
    <text x="70" y="208" font-size="10" fill="#388e3c">• Set of recursive procedures</text>
    <text x="70" y="222" font-size="10" fill="#388e3c">• One procedure per non-terminal</text>
    <text x="70" y="236" font-size="10" fill="#388e3c">• May require backtracking</text>
    
    <rect x="410" y="170" width="340" height="85" rx="10" fill="url(#orangeGradient)" filter="url(#shadow)"/>
    <text x="430" y="190" font-size="13" font-weight="bold" fill="#ef6c00">LL(1) Parsing</text>
    <text x="430" y="208" font-size="10" fill="#ff9800">• Predictive parsing table</text>
    <text x="430" y="222" font-size="10" fill="#ff9800">• Stack-based approach</text>
    <text x="430" y="236" font-size="10" fill="#ff9800">• No backtracking - efficient!</text>
  </g>

  <!-- Step 3: Left Recursion Problem -->
  <g class="step" id="step3" data-narration="Left recursion occurs when a production starts with the same non-terminal, causing infinite recursion in parsers.">
    <rect x="50" y="270" width="700" height="95" rx="10" fill="url(#redGradient)" filter="url(#shadow)"/>
    <text x="70" y="295" font-size="13" font-weight="bold" fill="#c62828">Problem: Left Recursion</text>
    <text x="70" y="318" font-size="11" fill="#d32f2f">A production of form A → A causes infinite recursion</text>
    <text x="70" y="338" font-size="12" fill="#333" class="formula">Example: E → E + T | T</text>
    <text x="70" y="355" font-size="10" fill="#666">"E expands to E+T, which expands to E+T+T, and so on... infinite loop!"</text>
    <path d="M520,295 Q600,295 600,330 Q600,365 520,365" fill="none" stroke="#f44336" stroke-width="2" stroke-dasharray="5,3" class="draw-line"/>
    <text x="560" y="340" text-anchor="middle" font-size="20" fill="#f44336">∞</text>
  </g>

  <!-- Step 4: Left Recursion Elimination -->
  <g class="step" id="step4" data-narration="To eliminate left recursion, we transform A → A| into A → and A' → A'| using a new non-terminal.">
    <rect x="50" y="380" width="700" height="105" rx="10" fill="url(#greenGradient)" filter="url(#shadow)"/>
    <text x="70" y="405" font-size="13" font-weight="bold" fill="#2e7d32">Elimination of Left Recursion</text>
    <text x="70" y="425" font-size="11" fill="#388e3c">Original: A → A | A | ... | A | | ... | </text>
    <text x="70" y="445" font-size="12" font-weight="bold" fill="#1565c0">Transformed:</text>
    <text x="70" y="462" font-size="11" fill="#333">A → A' | A' | ... | A'</text>
    <text x="70" y="478" font-size="11" fill="#333">A' → A' | A' | ... | A' | ε</text>
    
    <rect x="420" y="420" width="300" height="55" rx="8" fill="#e8f5e9" stroke="#388e3c" stroke-width="1"/>
    <text x="435" y="442" font-size="10" fill="#333">For E → E+T | T:</text>
    <text x="435" y="460" font-size="10" fill="#2e7d32">E → T E'  and  E' → +T E' | ε</text>
  </g>

  <!-- Step 5: Left Factoring -->
  <g class="step" id="step5" data-narration="Left factoring removes common prefixes from productions by introducing a new non-terminal to factor out shared parts.">
    <rect x="50" y="500" width="700" height="100" rx="10" fill="url(#purpleGradient)" filter="url(#shadow)"/>
    <text x="70" y="525" font-size="13" font-weight="bold" fill="#7b1fa2">Left Factoring</text>
    <text x="70" y="548" font-size="11" fill="#6a1b9a">When two productions share a common prefix, factor them out</text>
    
    <rect x="70" y="560" width="320" height="30" rx="6" fill="white" stroke="#9c27b0"/>
    <text x="85" y="578" font-size="10" fill="#333">Original: stmt → if expr then stmt else stmt</text>
    
    <path d="M410,575 L450,575" stroke="#9c27b0" stroke-width="2" marker-end="url(#arrowBlue)"/>
    
    <rect x="460" y="560" width="270" height="30" rx="6" fill="white" stroke="#9c27b0"/>
    <text x="475" y="578" font-size="10" fill="#333">stmt → if expr then stmt rest</text>
    <text x="475" y="590" font-size="9" fill="#666">rest → else stmt | ε</text>
  </g>

  <!-- Step 6: FIRST Sets Definition -->
  <g class="step" id="step6" data-narration="FIRST() contains all terminals that can appear as the first symbol of strings derived from - essential for predictive parsing.">
    <rect x="50" y="615" width="700" height="95" rx="10" fill="url(#blueGradient)" filter="url(#shadow)"/>
    <text x="70" y="640" font-size="13" font-weight="bold" fill="#1565c0">FIRST Sets - Definition</text>
    <text x="70" y="665" font-size="11" fill="#333">FIRST() = { terminals that can be first symbol of strings derived from }</text>
    
    <rect x="70" y="680" width="660" height="22" rx="5" fill="#e3f2fd" stroke="#1976d2"/>
    <text x="80" y="695" font-size="10" fill="#333">Rules: 1) X terminal → {X}  2) X→ε → add ε  3) X→YY... → include FIRST(Y)-{}, then FIRST(Y) if ε∈FIRST(Y), and so on</text>
  </g>

  <!-- Step 7: FIRST Sets Example -->
  <g class="step" id="step7" data-narration="Let's compute FIRST sets for grammar E→TE', E'→+TE'|ε, T→FT', T'→*FT'|ε, F→(E)|id.">
    <rect x="50" y="725" width="700" height="95" rx="10" fill="url(#blueGradient)" filter="url(#shadow)"/>
    <text x="70" y="750" font-size="13" font-weight="bold" fill="#1565c0">FIRST Sets - Example Computation</text>
    
    <g transform="translate(70, 770)">
      <text x="0" y="0" font-size="10" fill="#333">FIRST(F) = {(, id}</text>
      <text x="0" y="15" font-size="10" fill="#333">FIRST(T') = {*, ε}</text>
      <text x="0" y="30" font-size="10" fill="#333">FIRST(T) = FIRST(F) = {(, id}</text>
      <text x="280" y="0" font-size="10" fill="#333">FIRST(E') = {+, ε}</text>
      <text x="280" y="15" font-size="10" fill="#333">FIRST(E) = FIRST(T) = {(, id}</text>
    </g>
  </g>

  <!-- Step 8: FOLLOW Sets Definition -->
  <g class="step" id="step8" data-narration="FOLLOW(A) is the set of terminals that can appear immediately after non-terminal A in any sentential form.">
    <rect x="50" y="835" width="700" height="95" rx="10" fill="url(#orangeGradient)" filter="url(#shadow)"/>
    <text x="70" y="860" font-size="13" font-weight="bold" fill="#ef6c00">FOLLOW Sets - Definition</text>
    <text x="70" y="885" font-size="11" fill="#333">FOLLOW(A) = { terminals that can appear immediately after A in sentential forms }</text>
    
    <rect x="70" y="900" width="660" height="22" rx="5" fill="#fff3e0" stroke="#ff9800"/>
    <text x="80" y="915" font-size="10" fill="#333">Rules: 1) Add $ to FOLLOW(S)  2) A→B → add FIRST()-{ε} to FOLLOW(B)  3) A→B or A→B with ε∈FIRST() → add FOLLOW(A) to FOLLOW(B)</text>
  </g>

  <!-- Step 9: FOLLOW Sets Example -->
  <g class="step" id="step9" data-narration="Using the same grammar, we compute FOLLOW sets by applying rules - start symbol gets $ in FOLLOW.">
    <rect x="50" y="945" width="700" height="95" rx="10" fill="url(#orangeGradient)" filter="url(#shadow)"/>
    <text x="70" y="970" font-size="13" font-weight="bold" fill="#ef6c00">FOLLOW Sets - Example Computation</text>
    
    <g transform="translate(70, 990)">
      <text x="0" y="0" font-size="10" fill="#333">FOLLOW(E) = {$, )}</text>
      <text x="0" y="15" font-size="10" fill="#333">FOLLOW(E') = FOLLOW(E) = {$, )}</text>
      <text x="0" y="30" font-size="10" fill="#333">FOLLOW(T) = FIRST(E')-{ε} ∪ FOLLOW(E) = {+, $, )}</text>
      <text x="320" y="0" font-size="10" fill="#333">FOLLOW(T') = FOLLOW(T) = {+, $, )}</text>
      <text x="320" y="15" font-size="10" fill="#333">FOLLOW(F) = FIRST(T')-{ε} ∪ FOLLOW(T) = {*, +, $, )}</text>
    </g>
  </g>

  <!-- Step 10: LL(1) Grammar Conditions -->
  <g class="step" id="step10" data-narration="A grammar is LL(1) if: no ambiguity, no left recursion, and alternatives have disjoint FIRST sets.">
    <rect x="50" y="1055" width="700" height="95" rx="10" fill="url(#purpleGradient)" filter="url(#shadow)"/>
    <text x="70" y="1080" font-size="13" font-weight="bold" fill="#7b1fa2">LL(1) Grammar Conditions</text>
    <text x="70" y="1105" font-size="11" fill="#333">A grammar is LL(1) if ALL conditions hold:</text>
    
    <rect x="70" y="1115" width="220" height="28" rx="5" fill="#f3e5f5" stroke="#9c27b0"/>
    <text x="80" y="1132" font-size="10" fill="#333">1) No ambiguity</text>
    
    <rect x="300" y="1115" width="200" height="28" rx="5" fill="#f3e5f5" stroke="#9c27b0"/>
    <text x="310" y="1132" font-size="10" fill="#333">2) No left recursion</text>
    
    <rect x="510" y="1115" width="220" height="28" rx="5" fill="#f3e5f5" stroke="#9c27b0"/>
    <text x="520" y="1132" font-size="10" fill="#333">3) FIRST() ∩ FIRST() = empty</text>
    <text x="520" y="1145" font-size="9" fill="#666">If ε∈FIRST(): FIRST() ∩ FOLLOW(A) = empty</text>
  </g>

  <!-- Step 11: LL(1) Parsing Table Construction -->
  <g class="step" id="step11" data-narration="To build LL(1) parsing table: for each production A, add to M[A,a] for terminals a in FIRST(), and if in FIRST(), add to M[A,b] for b in FOLLOW(A).">
    <rect x="50" y="1165" width="700" height="95" rx="10" fill="url(#greenGradient)" filter="url(#shadow)"/>
    <text x="70" y="1190" font-size="13" font-weight="bold" fill="#2e7d32">LL(1) Parsing Table Construction</text>
    <text x="70" y="1215" font-size="11" fill="#333">For each production A → :</text>
    
    <rect x="70" y="1225" width="320" height="28" rx="5" fill="#e8f5e9" stroke="#388e3c"/>
    <text x="80" y="1242" font-size="10" fill="#333">1) For each a ∈ FIRST(): add A→ to M[A,a]</text>
    
    <rect x="400" y="1225" width="330" height="28" rx="5" fill="#e8f5e9" stroke="#388e3c"/>
    <text x="410" y="1242" font-size="10" fill="#333">2) If ε ∈ FIRST(): for b ∈ FOLLOW(A), add to M[A,b]</text>
    
    <text x="70" y="1262" font-size="10" fill="#666">No multiple entries → Grammar is LL(1)</text>
  </g>

  <!-- Step 12: Predictive Parsing Algorithm -->
  <g class="step" id="step12" data-narration="The predictive parser uses a stack: pop terminals to match input, pop non-terminals and push production RHS reversed using the parsing table.">
    <rect x="50" y="1275" width="700" height="95" rx="10" fill="url(#redGradient)" filter="url(#shadow)"/>
    <text x="70" y="1300" font-size="13" font-weight="bold" fill="#c62828">Predictive Parsing Algorithm</text>
    
    <rect x="70" y="1315" width="140" height="48" rx="5" fill="#ffebee" stroke="#f44336"/>
    <text x="80" y="1330" font-size="9" fill="#333">Initialize:</text>
    <text x="80" y="1343" font-size="9" fill="#333">Stack: $S</text>
    <text x="80" y="1356" font-size="9" fill="#333">Input: w$</text>
    
    <text x="230" y="1325" font-size="10" fill="#333">While stack is not empty:</text>
    <text x="230" y="1340" font-size="9" fill="#333">• X = top, a = current input</text>
    <text x="230" y="1355" font-size="9" fill="#333">• If X = terminal: match or error</text>
    <text x="230" y="1370" font-size="9" fill="#333">• If X = non-terminal: use M[X,a]</text>
    
    <rect x="420" y="1315" width="310" height="48" rx="5" fill="#e8f5e9" stroke="#388e3c"/>
    <text x="430" y="1330" font-size="9" fill="#333">Key operations:</text>
    <text x="430" y="1345" font-size="9" fill="#333">Match: pop terminal, advance input</text>
    <text x="430" y="1360" font-size="9" fill="#333">Expand: pop X, push reversed</text>
  </g>

  <!-- Step 13: Parsing Table Example -->
  <g class="step" id="step13" data-narration="Here's the complete LL(1) parsing table for our example grammar - each cell shows which production to apply.">
    <rect x="50" y="1385" width="700" height="85" rx="10" fill="url(#blueGradient)" filter="url(#shadow)"/>
    <text x="70" y="1410" font-size="13" font-weight="bold" fill="#1565c0">LL(1) Parsing Table</text>
    
    <g transform="translate(70, 1425)">
      <rect x="0" y="0" width="70" height="20" fill="#1976d2" rx="3"/>
      <text x="35" y="14" text-anchor="middle" font-size="8" fill="white">Non-Term</text>
      <rect x="70" y="0" width="60" height="20" fill="#1976d2" rx="3"/>
      <text x="100" y="14" text-anchor="middle" font-size="8" fill="white">id</text>
      <rect x="130" y="0" width="60" height="20" fill="#1976d2" rx="3"/>
      <text x="160" y="14" text-anchor="middle" font-size="8" fill="white">(</text>
      <rect x="190" y="0" width="60" height="20" fill="#1976d2" rx="3"/>
      <text x="220" y="14" text-anchor="middle" font-size="8" fill="white">)</text>
      <rect x="250" y="0" width="60" height="20" fill="#1976d2" rx="3"/>
      <text x="280" y="14" text-anchor="middle" font-size="8" fill="white">+</text>
      <rect x="310" y="0" width="60" height="20" fill="#1976d2" rx="3"/>
      <text x="340" y="14" text-anchor="middle" font-size="8" fill="white">*</text>
      <rect x="370" y="0" width="60" height="20" fill="#1976d2" rx="3"/>
      <text x="400" y="14" text-anchor="middle" font-size="8" fill="white">$</text>
      
      <rect x="0" y="20" width="70" height="18" fill="#e3f2fd" rx="2"/>
      <text x="35" y="33" text-anchor="middle" font-size="8" fill="#1565c0">E</text>
      <rect x="70" y="20" width="60" height="18" fill="white" rx="2"/>
      <text x="100" y="33" text-anchor="middle" font-size="7" fill="#333">TE'</text>
      <rect x="130" y="20" width="60" height="18" fill="white" rx="2"/>
      <text x="160" y="33" text-anchor="middle" font-size="7" fill="#333">TE'</text>
      
      <rect x="0" y="38" width="70" height="18" fill="#e3f2fd" rx="2"/>
      <text x="35" y="51" text-anchor="middle" font-size="8" fill="#1565c0">E'</text>
      <rect x="190" y="38" width="60" height="18" fill="white" rx="2"/>
      <text x="220" y="51" text-anchor="middle" font-size="7" fill="#333">ε</text>
      <rect x="250" y="38" width="60" height="18" fill="white" rx="2"/>
      <text x="280" y="51" text-anchor="middle" font-size="7" fill="#333">+TE'</text>
      <rect x="370" y="38" width="60" height="18" fill="white" rx="2"/>
      <text x="400" y="51" text-anchor="middle" font-size="7" fill="#333">ε</text>
      
      <rect x="0" y="56" width="70" height="18" fill="#e3f2fd" rx="2"/>
      <text x="35" y="69" text-anchor="middle" font-size="8" fill="#1565c0">T</text>
      <rect x="70" y="56" width="60" height="18" fill="white" rx="2"/>
      <text x="100" y="69" text-anchor="middle" font-size="7" fill="#333">FT'</text>
      <rect x="130" y="56" width="60" height="18" fill="white" rx="2"/>
      <text x="160" y="69" text-anchor="middle" font-size="7" fill="#333">FT'</text>
      
      <rect x="0" y="74" width="70" height="18" fill="#e3f2fd" rx="2"/>
      <text x="35" y="87" text-anchor="middle" font-size="8" fill="#1565c0">T'</text>
      <rect x="190" y="74" width="60" height="18" fill="white" rx="2"/>
      <text x="220" y="87" text-anchor="middle" font-size="7" fill="#333">ε</text>
      <rect x="250" y="74" width="60" height="18" fill="white" rx="2"/>
      <text x="280" y="87" text-anchor="middle" font-size="7" fill="#333">ε</text>
      <rect x="310" y="74" width="60" height="18" fill="white" rx="2"/>
      <text x="340" y="87" text-anchor="middle" font-size="7" fill="#333">*FT'</text>
      <rect x="370" y="74" width="60" height="18" fill="white" rx="2"/>
      <text x="400" y="87" text-anchor="middle" font-size="7" fill="#333">ε</text>
      
      <rect x="0" y="92" width="70" height="18" fill="#e3f2fd" rx="2"/>
      <text x="35" y="105" text-anchor="middle" font-size="8" fill="#1565c0">F</text>
      <rect x="70" y="92" width="60" height="18" fill="white" rx="2"/>
      <text x="100" y="105" text-anchor="middle" font-size="7" fill="#333">id</text>
      <rect x="130" y="92" width="60" height="18" fill="white" rx="2"/>
      <text x="160" y="105" text-anchor="middle" font-size="7" fill="#333">(E)</text>
    </g>
  </g>

  <!-- Step 14: Parsing Trace Example -->
  <g class="step" id="step14" data-narration="Let's trace parsing for input id+id*id: watch how the stack changes and productions are applied step by step.">
    <rect x="50" y="1485" width="700" height="85" rx="10" fill="url(#greenGradient)" filter="url(#shadow)"/>
    <text x="70" y="1510" font-size="13" font-weight="bold" fill="#2e7d32">Parsing Trace: Input = id+id*id$</text>
    
    <g transform="translate(70, 1525)">
      <text x="0" y="0" font-size="9" fill="#333">Step 1: $E → TE' → FT' → id (match) → ε → +TE' → ε → accept</text>
      <text x="0" y="14" font-size="9" fill="#333">| Stack | Input | Action</text>
      <text x="0" y="28" font-size="8" fill="#666">| $E | id+id*id$ | E→TE'</text>
      <text x="0" y="42" font-size="8" fill="#666">| $E'T | id+id*id$ | T→FT'</text>
      <text x="180" y="28" font-size="8" fill="#666">| $E'T'id | +id*id$ | match id</text>
      <text x="180" y="42" font-size="8" fill="#666">| $E'T' | +id*id$ | T'→ε</text>
      <text x="360" y="28" font-size="8" fill="#666">| $E' | +id*id$ | E'→+TE'</text>
      <text x="360" y="42" font-size="8" fill="#666">| $E'T+ | id*id$ | match +</text>
      <text x="540" y="28" font-size="8" fill="#666">| $E'T'F | id*id$ | ... T→FT', F→id</text>
    </g>
  </g>

  <!-- Step 15: Key Formulas Summary -->
  <g class="step" id="step15" data-narration="Key formulas to remember: left recursion elimination, left factoring transformation, FIRST and FOLLOW computation rules.">
    <rect x="50" y="1585" width="700" height="95" rx="10" fill="url(#purpleGradient)" filter="url(#shadow)"/>
    <text x="70" y="1610" font-size="13" font-weight="bold" fill="#7b1fa2">Key Formulas Summary</text>
    
    <rect x="70" y="1625" width="210" height="48" rx="5" fill="#f3e5f5" stroke="#9c27b0"/>
    <text x="80" y="1640" font-size="9" fill="#333">Left Recursion:</text>
    <text x="80" y="1655" font-size="9" fill="#333">A→A| → A→A', A'→A'|ε</text>
    
    <rect x="290" y="1625" width="210" height="48" rx="5" fill="#f3e5f5" stroke="#9c27b0"/>
    <text x="300" y="1640" font-size="9" fill="#333">Left Factoring:</text>
    <text x="300" y="1655" font-size="9" fill="#333">A→| → A→A', A'→|</text>
    
    <rect x="510" y="1625" width="220" height="48" rx="5" fill="#f3e5f5" stroke="#9c27b0"/>
    <text x="520" y="1640" font-size="9" fill="#333">LL(1) Table Entry:</text>
    <text x="520" y="1655" font-size="9" fill="#333">M[A,a] = A→ if a∈FIRST()</text>
    <text x="520" y="1668" font-size="9" fill="#333">or if ε∈FIRST() and a∈FOLLOW(A)</text>
  </g>

  <!-- Step 16: Exam Tips -->
  <g class="step" id="step16" data-narration="Remember: LL(1) means Left-to-right scan, Leftmost derivation, One symbol lookahead. Always eliminate left recursion first!">
    <rect x="50" y="1695" width="700" height="80" rx="10" fill="url(#orangeGradient)" filter="url(#shadow)"/>
    <text x="70" y="1720" font-size="13" font-weight="bold" fill="#ef6c00">Exam Tips for university</text>
    
    <text x="70" y="1745" font-size="10" fill="#333">• LL(1): L=Left-to-right, L=Leftmost derivation, 1=One symbol lookahead</text>
    <text x="70" y="1760" font-size="10" fill="#333">• Always remove LEFT RECURSION first before building parsing table</text>
    <text x="70" y="1775" font-size="10" fill="#333">• Compute FIRST sets before FOLLOW sets • Check LL(1) conditions before table construction</text>
  </g>

  <g>
    <circle cx="50" cy="30" r="8" fill="#1976d2" opacity="0.8">
      <animate attributeName="r" values="8;10;8" dur="2s" repeatCount="indefinite"/>
    </circle>
    <circle cx="750" cy="30" r="8" fill="#388e3c" opacity="0.8">
      <animate attributeName="r" values="8;10;8" dur="2s" repeatCount="indefinite" begin="0.5s"/>
    </circle>
  </g>
</svg>