<svg xmlns="http://www.w3.org/2000/svg" viewBox="0 0 800 1550">
  <defs>
    <linearGradient id="bgGrad" x1="0%" y1="0%" x2="0%" y2="100%">
      <stop offset="0%" stop-color="#f8f9fa"/>
      <stop offset="100%" stop-color="#e9ecef"/>
    </linearGradient>
    <linearGradient id="blueGrad" x1="0%" y1="0%" x2="100%" y2="100%">
      <stop offset="0%" stop-color="#e3f2fd"/>
      <stop offset="100%" stop-color="#bbdefb"/>
    </linearGradient>
    <linearGradient id="greenGrad" x1="0%" y1="0%" x2="100%" y2="100%">
      <stop offset="0%" stop-color="#e8f5e9"/>
      <stop offset="100%" stop-color="#c8e6c9"/>
    </linearGradient>
    <linearGradient id="orangeGrad" x1="0%" y1="0%" x2="100%" y2="100%">
      <stop offset="0%" stop-color="#fff3e0"/>
      <stop offset="100%" stop-color="#ffe0b2"/>
    </linearGradient>
    <linearGradient id="purpleGrad" x1="0%" y1="0%" x2="100%" y2="100%">
      <stop offset="0%" stop-color="#f3e5f5"/>
      <stop offset="100%" stop-color="#e1bee7"/>
    </linearGradient>
    <filter id="shadow" x="-20%" y="-20%" width="140%" height="140%">
      <feDropShadow dx="2" dy="3" stdDeviation="3" flood-opacity="0.15"/>
    </filter>
    <marker id="arrowBlue" markerWidth="10" markerHeight="10" refX="9" refY="3" orient="auto">
      <path d="M0,0 L0,6 L9,3 z" fill="#1976d2"/>
    </marker>
    <marker id="arrowGreen" markerWidth="10" markerHeight="10" refX="9" refY="3" orient="auto">
      <path d="M0,0 L0,6 L9,3 z" fill="#388e3c"/>
    </marker>
    <style>
      @keyframes fadeInSlide {
        from { opacity: 0; transform: translateY(20px); }
        to { opacity: 1; transform: translateY(0); }
      }
      @keyframes scaleIn {
        from { opacity: 0; transform: scale(0.85); }
        to { opacity: 1; transform: scale(1); }
      }
      @keyframes textReveal {
        from { opacity: 0; transform: translateX(-10px); }
        to { opacity: 1; transform: translateX(0); }
      }
      @keyframes pulse {
        0%, 100% { transform: scale(1); }
        50% { transform: scale(1.03); }
      }
      @keyframes drawLine {
        from { stroke-dashoffset: 200; }
        to { stroke-dashoffset: 0; }
      }
      @keyframes cellFill {
        from { opacity: 0; }
        to { opacity: 1; }
      }
      .step { animation: fadeInSlide 0.6s ease-out; }
      .step rect { animation: scaleIn 0.5s cubic-bezier(0.34, 1.56, 0.64, 1); transform-origin: center; }
      .step text { animation: textReveal 0.4s ease-out 0.2s backwards; }
      .kmap-cell { transition: all 0.3s ease; }
      .kmap-cell:hover { transform: scale(1.05); }
      .group-highlight { animation: pulse 1.5s ease-in-out infinite; }
    </style>
  </defs>
  
  <rect x="0" y="0" width="800" height="1550" fill="#f8f9fa"/>
  
  <!-- Title Section -->
  <g class="step" id="step0" data-narration="Welcome to learning the Karnaugh Map method, a powerful graphical technique for simplifying Boolean expressions in digital design.">
    <rect x="20" y="10" width="760" height="45" rx="10" fill="#1976d2" filter="url(#shadow)"/>
    <text x="400" y="42" text-anchor="middle" font-size="22" font-weight="bold" fill="white">The Map Method (Karnaugh Map)</text>
  </g>

  <!-- Step 1: Why K-Maps Matter -->
  <g class="step" id="step1" data-narration="K-Maps simplify Boolean expressions visually, reducing gates for cheaper, faster, and more efficient digital circuits.">
    <rect x="20" y="65" width="760" height="85" rx="8" fill="url(#orangeGrad)" filter="url(#shadow)"/>
    <text x="50" y="90" font-size="14" font-weight="bold" fill="#e65100">Why K-Maps Matter</text>
    <text x="50" y="115" font-size="11" fill="#5d4037">Boolean algebra simplification can be cumbersome for 3+ variables.</text>
    <text x="50" y="132" font-size="11" fill="#5d4037">K-Maps transform minimization into pattern recognition:</text>
    <rect x="250" y="105" width="120" height="35" rx="5" fill="#fff" stroke="#4caf50" stroke-width="2"/>
    <text x="310" y="122" text-anchor="middle" font-size="12" fill="#2e7d32">Fewer Gates</text>
    <rect x="380" y="105" width="120" height="35" rx="5" fill="#fff" stroke="#2196f3" stroke-width="2"/>
    <text x="440" y="122" text-anchor="middle" font-size="12" fill="#1565c0">Lower Cost</text>
    <rect x="510" y="105" width="120" height="35" rx="5" fill="#fff" stroke="#9c27b0" stroke-width="2"/>
    <text x="570" y="122" text-anchor="middle" font-size="12" fill="#6a1b9a">Faster Speed</text>
    <rect x="640" y="105" width="120" height="35" rx="5" fill="#fff" stroke="#ff9800" stroke-width="2"/>
    <text x="700" y="122" text-anchor="middle" font-size="12" fill="#e65100">Less Power</text>
  </g>

  <!-- Step 2: What is a K-Map -->
  <g class="step" id="step2" data-narration="A K-Map is a grid representing a truth table where each cell shows a minterm, and adjacent cells differ by only one variable.">
    <rect x="20" y="160" width="760" height="90" rx="8" fill="url(#blueGrad)" filter="url(#shadow)"/>
    <text x="50" y="190" font-size="14" font-weight="bold" fill="#0d47a1">What is a Karnaugh Map?</text>
    <text x="50" y="215" font-size="11" fill="#1565c0">A diagrammatic representation of a truth table - a grid where each cell = unique minterm.</text>
    <text x="50" y="235" font-size="11" fill="#1565c0">Key insight: Adjacent cells differ by only ONE variable → can be combined!</text>
    <!-- Small 2x2 K-Map visualization -->
    <rect x="450" y="175" width="140" height="65" rx="5" fill="#fff" stroke="#1976d2" stroke-width="2"/>
    <text x="470" y="192" font-size="9" fill="#0d47a1">AB\</text>
    <text x="510" y="192" font-size="9" fill="#0d47a1">00</text>
    <text x="550" y="192" font-size="9" fill="#0d47a1">01</text>
    <text x="590" y="192" font-size="9" fill="#0d47a1">11</text>
    <text x="630" y="192" font-size="9" fill="#0d47a1">10</text>
    <text x="458" y="215" font-size="9" fill="#0d47a1">0</text>
    <text x="458" y="240" font-size="9" fill="#0d47a1">1</text>
    <rect x="480" y="200" width="30" height="20" fill="#e3f2fd" stroke="#1976d2"/>
    <text x="495" y="214" text-anchor="middle" font-size="8" fill="#1565c0">m0</text>
    <rect x="520" y="200" width="30" height="20" fill="#e3f2fd" stroke="#1976d2"/>
    <rect x="560" y="200" width="30" height="20" fill="#e3f2fd" stroke="#1976d2"/>
    <text x="575" y="214" text-anchor="middle" font-size="8" fill="#1565c0">m2</text>
    <rect x="480" y="225" width="30" height="20" fill="#e3f2fd" stroke="#1976d2"/>
    <rect x="520" y="225" width="30" height="20" fill="#e3f2fd" stroke="#1976d2"/>
    <rect x="560" y="225" width="30" height="20" fill="#e3f2fd" stroke="#1976d2"/>
    <rect x="600" y="225" width="30" height="20" fill="#e3f2fd" stroke="#1976d2"/>
    <text x="615" y="239" text-anchor="middle" font-size="8" fill="#1565c0">m6</text>
    <rect x="640" y="200" width="30" height="20" fill="#e3f2fd" stroke="#1976d2"/>
    <rect x="640" y="225" width="30" height="20" fill="#e3f2fd" stroke="#1976d2"/>
    <!-- Adjacency arrows -->
    <path d="M540 195 L540 185" stroke="#f44336" stroke-width="2" marker-end="url(#arrowBlue)">
      <animate attributeName="d" from="M540 200 L540 200" to="M540 185" dur="0.5s" fill="freeze"/>
    </path>
    <text x="540" y="178" text-anchor="middle" font-size="7" fill="#f44336">adjacent</text>
  </g>

  <!-- Step 3: K-Map Structures -->
  <g class="step" id="step3" data-narration="K-Map size depends on variables: 2-variable has 4 cells, 3-variable has 8 cells, and 4-variable has 16 cells in a grid.">
    <rect x="20" y="260" width="760" height="100" rx="8" fill="url(#purpleGrad)" filter="url(#shadow)"/>
    <text x="50" y="290" font-size="14" font-weight="bold" fill="#6a1b9a">K-Map Structures by Variable Count</text>
    <!-- 2-variable -->
    <rect x="45" y="310" width="100" height="40" rx="4" fill="#fff" stroke="#9c27b0" stroke-width="2"/>
    <text x="95" y="332" text-anchor="middle" font-size="10" fill="#6a1b9a">2-Var: 2x2</text>
    <text x="95" y="345" text-anchor="middle" font-size="9" fill="#7b1fa2">(4 cells)</text>
    <!-- 3-variable -->
    <rect x="160" y="310" width="180" height="40" rx="4" fill="#fff" stroke="#9c27b0" stroke-width="2"/>
    <text x="250" y="332" text-anchor="middle" font-size="10" fill="#6a1b9a">3-Var: 2x4</text>
    <text x="250" y="345" text-anchor="middle" font-size="9" fill="#7b1fa2">(8 cells)</text>
    <!-- 4-variable -->
    <rect x="355" y="310" width="200" height="40" rx="4" fill="#fff" stroke="#9c27b0" stroke-width="2"/>
    <text x="455" y="332" text-anchor="middle" font-size="10" fill="#6a1b9a">4-Var: 4x4</text>
    <text x="455" y="345" text-anchor="middle" font-size="9" fill="#7b1fa2">(16 cells)</text>
    <!-- 5-variable (conceptual) -->
    <rect x="570" y="310" width="180" height="40" rx="4" fill="#fff" stroke="#9c27b0" stroke-width="2" stroke-dasharray="5,3"/>
    <text x="660" y="332" text-anchor="middle" font-size="10" fill="#6a1b9a">5-Var: 4x8</text>
    <text x="660" y="345" text-anchor="middle" font-size="9" fill="#7b1fa2">(32 cells)</text>
    <text x="50" y="365" font-size="10" fill="#6a1b9a">For 5+ variables, use two 4x4 maps or Quine-McCluskey method.</text>
  </g>

  <!-- Step 4: Gray Code -->
  <g class="step" id="step4" data-narration="Gray code sequences ensure only one bit changes between adjacent cells, making logical adjacency match physical adjacency.">
    <rect x="20" y="370" width="760" height="90" rx="8" fill="url(#greenGrad)" filter="url(#shadow)"/>
    <text x="50" y="400" font-size="14" font-weight="bold" fill="#1b5e20">Gray Code - The Key to Adjacency</text>
    <text x="50" y="425" font-size="11" fill="#2e7d32">Headers follow Gray code: only ONE bit changes between adjacent positions.</text>
    <!-- Row headers -->
    <text x="180" y="420" font-size="10" fill="#1b5e20">Row (AB):</text>
    <rect x="230" y="408" width="35" height="20" fill="#fff" stroke="#388e3c"/>
    <text x="247" y="422" text-anchor="middle" font-size="9" fill="#1b5e20">00</text>
    <rect x="265" y="408" width="35" height="20" fill="#fff" stroke="#388e3c"/>
    <text x="282" y="422" text-anchor="middle" font-size="9" fill="#1b5e20">01</text>
    <rect x="300" y="408" width="35" height="20" fill="#fff" stroke="#388e3c"/>
    <text x="317" y="422" text-anchor="middle" font-size="9" fill="#1b5e20">11</text>
    <rect x="335" y="408" width="35" height="20" fill="#fff" stroke="#388e3c"/>
    <text x="352" y="422" text-anchor="middle" font-size="9" fill="#1b5e20">10</text>
    <!-- Show bit changes -->
    <path d="M250 430 L250 440 L280 440" stroke="#f44336" stroke-width="1.5" fill="none" marker-end="url(#arrowGreen)"/>
    <text x="265" y="455" text-anchor="middle" font-size="8" fill="#c62828">A changes</text>
    <path d="M295 430 L295 440" stroke="#2196f3" stroke-width="1.5" fill="none" marker-end="url(#arrowGreen)"/>
    <text x="295" y="455" text-anchor="middle" font-size="8" fill="#1565c0">B changes</text>
    <path d="M340 430 L340 440 L350 440" stroke="#f44336" stroke-width="1.5" fill="none" marker-end="url(#arrowGreen)"/>
    <text x="345" y="455" text-anchor="middle" font-size="8" fill="#c62828">A changes</text>
  </g>

  <!-- Step 5: Adjacency Explanation -->
  <g class="step" id="step5" data-narration="Adjacent cells include side-by-side, top-bottom neighbors, and wrap-around edges - all can be grouped to eliminate a variable.">
    <rect x="20" y="470" width="760" height="90" rx="8" fill="url(#blueGrad)" filter="url(#shadow)"/>
    <text x="50" y="500" font-size="14" font-weight="bold" fill="#0d47a1">Adjacency Rules</text>
    <text x="50" y="525" font-size="11" fill="#1565c0">Three types of adjacency enable grouping:</text>
    <!-- Type 1: Horizontal -->
    <rect x="50" y="540" width="80" height="15" fill="#4caf50" rx="2"/>
    <rect x="130" y="540" width="80" height="15" fill="#4caf50" rx="2"/>
    <text x="130" y="570" text-anchor="middle" font-size="9" fill="#2e7d32">Side-by-side</text>
    <!-- Type 2: Vertical -->
    <rect x="250" y="540" width="30" height="15" fill="#2196f3" rx="2"/>
    <rect x="250" y="555" width="30" height="15" fill="#2196f3" rx="2"/>
    <text x="265" y="585" text-anchor="middle" font-size="9" fill="#1565c0">Top-bottom</text>
    <!-- Type 3: Wrap around -->
    <rect x="350" y="540" width="30" height="15" fill="#ff9800" rx="2"/>
    <rect x="500" y="540" width="30" height="15" fill="#ff9800" rx="2"/>
    <path d="M380 547 L495 547" stroke="#e65100" stroke-width="2" stroke-dasharray="4,2" marker-end="url(#arrowBlue)"/>
    <text x="420" y="570" text-anchor="middle" font-size="9" fill="#e65100">Wrap-around</text>
    <text x="50" y="590" font-size="10" fill="#0d47a1">Example: m0 wraps to m8 (vertical) and m2 (horizontal)</text>
  </g>

  <!-- Step 6: Process Step 1 - Plotting -->
  <g class="step" id="step6" data-narration="Step 1: Plot the function by placing 1s in cells corresponding to minterms, leaving others as 0s or don't cares.">
    <rect x="20" y="570" width="760" height="95" rx="8" fill="url(#orangeGrad)" filter="url(#shadow)"/>
    <text x="50" y="600" font-size="14" font-weight="bold" fill="#e65100">Process Step 1: Plot the Function</text>
    <text x="50" y="625" font-size="11" fill="#5d4037">Given: F(A,B,C,D) = Sigma m(0,2,5,7,8,10,13,15)</text>
    <text x="50" y="645" font-size="11" fill="#5d4037">Place 1 in each minterm cell:</text>
    <!-- 4x4 K-Map -->
    <rect x="350" y="590" width="220" height="65" rx="4" fill="#fff" stroke="#ff9800" stroke-width="2"/>
    <text x="375" y="605" font-size="8" fill="#e65100">AB\CD</text>
    <text x="420" y="605" font-size="8" fill="#e65100">00</text>
    <text x="470" y="605" font-size="8" fill="#e65100">01</text>
    <text x="520" y="605" font-size="8" fill="#e65100">11</text>
    <text x="570" y="605" font-size="8" fill="#e65100">10</text>
    <text x="355" y="625" font-size="8" fill="#e65100">00</text>
    <text x="355" y="655" font-size="8" fill="#e65100">01</text>
    <!-- Cells with 1s -->
    <rect x="390" y="615" width="25" height="15" fill="#4caf50">
      <animate attributeName="opacity" from="0" to="1" dur="0.3s" fill="freeze"/>
    </rect>
    <text x="402" y="626" text-anchor="middle" font-size="8" fill="white">1</text>
    <rect x="490" y="615" width="25" height="15" fill="#4caf50">
      <animate attributeName="opacity" from="0" to="1" dur="0.3s" fill="freeze"/>
    </rect>
    <text x="502" y="626" text-anchor="middle" font-size="8" fill="white">1</text>
    <rect x="540" y="615" width="25" height="15" fill="#4caf50">
      <animate attributeName="opacity" from="0" to="1" dur="0.3s" fill="freeze"/>
    </rect>
    <rect x="440" y="645" width="25" height="15" fill="#4caf50">
      <animate attributeName="opacity" from="0" to="1" dur="0.3s" fill="freeze"/>
    </rect>
    <rect x="540" y="645" width="25" height="15" fill="#4caf50">
      <animate attributeName="opacity" from="0" to="1" dur="0.3s" fill="freeze"/>
    </rect>
    <rect x="390" y="675" width="25" height="15" fill="#4caf50">
      <animate attributeName="opacity" from="0" to="1" dur="0.3s" fill="freeze"/>
    </rect>
    <rect x="490" y="675" width="25" height="15" fill="#4caf50">
      <animate attributeName="opacity" from="0" to="1" dur="0.3s" fill="freeze"/>
    </rect>
    <rect x="540" y="675" width="25" height="15" fill="#4caf50">
      <animate attributeName="opacity" from="0" to="1" dur="0.3s" fill="freeze"/>
    </rect>
  </g>

  <!-- Step 7: Grouping Rules -->
  <g class="step" id="step7" data-narration="Group 1s in power-of-2 rectangles, make groups as large as possible, cover all 1s, and use wrap-around for larger groups.">
    <rect x="20" y="675" width="760" height="95" rx="8" fill="url(#greenGrad)" filter="url(#shadow)"/>
    <text x="50" y="705" font-size="14" font-weight="bold" fill="#1b5e20">Process Step 2: Group the 1s</text>
    <text x="50" y="730" font-size="11" fill="#2e7d32">Grouping Rules:</text>
    <!-- Rule cards -->
    <rect x="50" y="745" width="140" height="20" rx="4" fill="#fff" stroke="#388e3c"/>
    <text x="120" y="759" text-anchor="middle" font-size="9" fill="#1b5e20">Power of 2: 1,2,4,8,16</text>
    <rect x="200" y="745" width="140" height="20" rx="4" fill="#fff" stroke="#388e3c"/>
    <text x="270" y="759" text-anchor="middle" font-size="9" fill="#1b5e20">Groups as large as possible</text>
    <rect x="350" y="745" width="100" height="20" rx="4" fill="#fff" stroke="#388e3c"/>
    <text x="400" y="759" text-anchor="middle" font-size="9" fill="#1b5e20">Every 1 covered</text>
    <rect x="460" y="745" width="100" height="20" rx="4" fill="#fff" stroke="#388e3c"/>
    <text x="510" y="759" text-anchor="middle" font-size="9" fill="#1b5e20">Wrap around</text>
    <rect x="570" y="745" width="100" height="20" rx="4" fill="#fff" stroke="#388e3c"/>
    <text x="620" y="759" text-anchor="middle" font-size="9" fill="#1b5e20">Can overlap</text>
    <!-- Visual example -->
    <text x="50" y="770" font-size="10" fill="#1b5e20">Example groups:</text>
    <rect x="180" y="760" width="25" height="15" fill="#2196f3" rx="2"/>
    <rect x="205" y="760" width="25" height="15" fill="#2196f3" rx="2"/>
    <text x="205" y="790" text-anchor="middle" font-size="8" fill="#1565c0">Pair</text>
    <rect x="280" y="745" width="25" height="15" fill="#9c27b0" rx="2"/>
    <rect x="305" y="745" width="25" height="15" fill="#9c27b0" rx="2"/>
    <rect x="330" y="745" width="25" height="15" fill="#9c27b0" rx="2"/>
    <rect x="355" y="745" width="25" height="15" fill="#9c27b0" rx="2"/>
    <text x="305" y="790" text-anchor="middle" font-size="8" fill="#6a1b9a">Quad</text>
  </g>

  <!-- Step 8: Finding Product Terms -->
  <g class="step" id="step8" data-narration="For each group, identify variables that stay constant - 1 means variable, 0 means complement. Variables that change are eliminated.">
    <rect x="20" y="780" width="760" height="95" rx="8" fill="url(#purpleGrad)" filter="url(#shadow)"/>
    <text x="50" y="810" font-size="14" font-weight="bold" fill="#6a1b9a">Process Step 3: Find Product Terms</text>
    <text x="50" y="835" font-size="11" fill="#6a1b9a">For each group, find variables that remain CONSTANT:</text>
    <!-- Constant = 1 -->
    <rect x="50" y="850" width="200" height="20" rx="4" fill="#fff" stroke="#7b1fa2"/>
    <text x="150" y="864" text-anchor="middle" font-size="10" fill="#4a148c">Constant 1 - Variable appears</text>
    <!-- Constant = 0 -->
    <rect x="260" y="850" width="200" height="20" rx="4" fill="#fff" stroke="#7b1fa2"/>
    <text x="360" y="864" text-anchor="middle" font-size="10" fill="#4a148c">Constant 0 - Complement appears</text>
    <!-- Changes -->
    <rect x="470" y="850" width="200" height="20" rx="4" fill="#fff" stroke="#c62828"/>
    <text x="570" y="864" text-anchor="middle" font-size="10" fill="#b71c1c">Changes - Eliminated</text>
    <!-- Example -->
    <text x="50" y="885" font-size="11" fill="#6a1b9a">Example: Group of 4 cells (m0,m2,m4,m6) in 3-var K-Map:</text>
    <rect x="350" y="875" width="180" height="25" rx="4" fill="#e8f5e9" stroke="#2e7d32"/>
    <text x="440" y="892" text-anchor="middle" font-size="11" fill="#1b5e20">A: 0,1 X | B: 0,0 YES | C: 0,1 X</text>
    <text x="440" y="908" text-anchor="middle" font-size="10" fill="#2e7d32">Product Term: B</text>
  </g>

  <!-- Step 9: Form Simplified Expression -->
  <g class="step" id="step9" data-narration="The final simplified expression is the OR sum of all product terms found from each group - this is the minimized SOP form.">
    <rect x="20" y="885" width="760" height="80" rx="8" fill="url(#blueGrad)" filter="url(#shadow)"/>
    <text x="50" y="915" font-size="14" font-weight="bold" fill="#0d47a1">Process Step 4: Form Simplified Expression</text>
    <text x="50" y="940" font-size="11" fill="#1565c0">Final Expression = OR (sum) of all product terms:</text>
    <rect x="50" y="955" width="700" height="35" rx="6" fill="#e3f2fd" stroke="#1976d2" stroke-width="2"/>
    <text x="400" y="975" text-anchor="middle" font-size="16" fill="#0d47a1">F = Product1 + Product2 + Product3 + ...</text>
  </g>

  <!-- Step 10: Example Setup -->
  <g class="step" id="step10" data-narration="Lets minimize F(A,B,C) = Sigma m(0,2,3,4,6) - a 3-variable function with 5 minterms.">
    <rect x="20" y="975" width="760" height="80" rx="8" fill="url(#orangeGrad)" filter="url(#shadow)"/>
    <text x="50" y="1005" font-size="14" font-weight="bold" fill="#e65100">Example: Minimize F(A,B,C) = Sigma m(0,2,3,4,6)</text>
    <text x="50" y="1030" font-size="11" fill="#5d4037">3-variable K-Map with minterms: 0, 2, 3, 4, 6</text>
  </g>

  <!-- Step 11: Plotting the 1s -->
  <g class="step" id="step11" data-narration="We place 1s in cells for minterms 0,2,3,4,6. Notice m1, m5, m7 are empty (0s).">
    <rect x="20" y="1065" width="760" height="80" rx="8" fill="url(#greenGrad)" filter="url(#shadow)"/>
    <text x="50" y="1095" font-size="14" font-weight="bold" fill="#1b5e20">Step 1: Plot the Function</text>
    <!-- 3-var K-Map with 1s -->
    <rect x="50" y="1115" width="250" height="55" rx="4" fill="#fff" stroke="#4caf50" stroke-width="2"/>
    <text x="80" y="1130" font-size="8" fill="#1b5e20">A\BC</text>
    <text x="130" y="1130" font-size="8" fill="#1b5e20">00</text>
    <text x="180" y="1130" font-size="8" fill="#1b5e20">01</text>
    <text x="230" y="1130" font-size="8" fill="#1b5e20">11</text>
    <text x="280" y="1130" font-size="8" fill="#1b5e20">10</text>
    <text x="55" y="1150" font-size="8" fill="#1b5e20">0</text>
    <text x="55" y="1180" font-size="8" fill="#1b5e20">1</text>
    <!-- Row 0 -->
    <rect x="105" y="1138" width="35" height="20" fill="#4caf50">
      <animate attributeName="opacity" from="0" to="1" dur="0.4s" fill="freeze"/>
    </rect>
    <text x="122" y="1152" text-anchor="middle" font-size="9" fill="white">1</text>
    <rect x="155" y="1138" width="35" height="20" fill="#fff"/>
    <text x="172" y="1152" text-anchor="middle" font-size="9" fill="#ccc">0</text>
    <rect x="205" y="1138" width="35" height="20" fill="#4caf50">
      <animate attributeName="opacity" from="0" to="1" dur="0.5s" fill="freeze"/>
    </rect>
    <text x="222" y="1152" text-anchor="middle" font-size="9" fill="white">1</text>
    <rect x="255" y="1138" width="35" height="20" fill="#4caf50">
      <animate attributeName="opacity" from="0" to="1" dur="0.6s" fill="freeze"/>
    </rect>
    <text x="272" y="1152" text-anchor="middle" font-size="9" fill="white">1</text>
    <!-- Row 1 -->
    <rect x="105" y="1173" width="35" height="20" fill="#4caf50">
      <animate attributeName="opacity" from="0" to="1" dur="0.7s" fill="freeze"/>
    </rect>
    <text x="122" y="1187" text-anchor="middle" font-size="9" fill="white">1</text>
    <rect x="155" y="1173" width="35" height="20" fill="#fff"/>
    <rect x="205" y="1173" width="35" height="20" fill="#fff"/>
    <rect x="255" y="1173" width="35" height="20" fill="#4caf50">
      <animate attributeName="opacity" from="0" to="1" dur="0.8s" fill="freeze"/>
    </rect>
    <text x="272" y="1187" text-anchor="middle" font-size="9" fill="white">1</text>
  </g>

  <!-- Step 12: Grouping Visualization -->
  <g class="step" id="step12" data-narration="We form two groups: Blue group (4 corners, wraps around) gives B, Red group gives A and B.">
    <rect x="20" y="1155" width="760" height="100" rx="8" fill="url(#purpleGrad)" filter="url(#shadow)"/>
    <text x="50" y="1185" font-size="14" font-weight="bold" fill="#6a1b9a">Step 2: Group the 1s</text>
    <!-- K-Map with groups -->
    <rect x="50" y="1205" width="250" height="55" rx="4" fill="#fff" stroke="#9c27b0" stroke-width="2"/>
    <text x="80" y="1220" font-size="8" fill="#6a1b9a">A\BC</text>
    <text x="130" y="1220" font-size="8" fill="#6a1b9a">00</text>
    <text x="180" y="1220" font-size="8" fill="#6a1b9a">01</text>
    <text x="230" y="1220" font-size="8" fill="#6a1b9a">11</text>
    <text x="280" y="1220" font-size="8" fill="#6a1b9a">10</text>
    <text x="55" y="1240" font-size="8" fill="#6a1b9a">0</text>
    <text x="55" y="1270" font-size="8" fill="#6a1b9a">1</text>
    <!-- Blue group (4 corners - wrap around) -->
    <rect x="105" y="1228" width="35" height="20" fill="#2196f3" opacity="0.6" rx="2" class="group-highlight"/>
    <rect x="255" y="1228" width="35" height="20" fill="#2196f3" opacity="0.6" rx="2" class="group-highlight"/>
    <rect x="105" y="1263" width="35" height="20" fill="#2196f3" opacity="0.6" rx="2" class="group-highlight"/>
    <rect x="255" y="1263" width="35" height="20" fill="#2196f3" opacity="0.6" rx="2" class="group-highlight"/>
    <!-- 1s -->
    <text x="122" y="1242" text-anchor="middle" font-size="9" fill="white">1</text>
    <text x="272" y="1242" text-anchor="middle" font-size="9" fill="white">1</text>
    <text x="122" y="1277" text-anchor="middle" font-size="9" fill="white">1</text>
    <text x="272" y="1277" text-anchor="middle" font-size="9" fill="white">1</text>
    <!-- Red group -->
    <rect x="205" y="1228" width="85" height="20" fill="#f44336" opacity="0.5" rx="2" class="group-highlight"/>
    <text x="222" y="1242" text-anchor="middle" font-size="9" fill="white">1</text>
    <text x="272" y="1242" text-anchor="middle" font-size="9" fill="white">1</text>
    <!-- Labels -->
    <text x="350" y="1235" font-size="10" fill="#1565c0" font-weight="bold">Group 1 (Blue):</text>
    <text x="350" y="1250" font-size="9" fill="#6a1b9a">m0,m2,m4,m6</text>
    <text x="350" y="1265" font-size="9" fill="#1565c0">4 corners - wraps around!</text>
    <text x="480" y="1235" font-size="10" fill="#c62828" font-weight="bold">Group 2 (Red):</text>
    <text x="480" y="1250" font-size="9" fill="#6a1b9a">m2,m3 (top row)</text>
    <text x="600" y="1240" font-size="10" fill="#1b5e20">B + AB</text>
  </g>

  <!-- Step 13: Final Solution -->
  <g class="step" id="step13" data-narration="The simplified expression is F = B + AB. Using Boolean algebra, this further simplifies to B + A, final answer.">
    <rect x="20" y="1265" width="760" height="85" rx="8" fill="url(#blueGrad)" filter="url(#shadow)"/>
    <text x="50" y="1295" font-size="14" font-weight="bold" fill="#0d47a1">Final Answer</text>
    <text x="50" y="1320" font-size="11" fill="#1565c0">From Blue group: B remains constant (0), so term = B</text>
    <text x="50" y="1338" font-size="11" fill="#1565c0">From Red group: A=0, B=1, C changes - term = AB</text>
    <rect x="350" y="1305" width="350" height="40" rx="8" fill="#1976d2">
      <animate attributeName="opacity" from="0" to="1" dur="0.8s" fill="freeze"/>
    </rect>
    <text x="525" y="1330" text-anchor="middle" font-size="20" font-weight="bold" fill="white">F = B + AB</text>
    <text x="50" y="1360" font-size="10" fill="#0d47a1">Optional simplification: B + AB = B + A (by absorption)</text>
  </g>

  <!-- Step 14: Summary - Key Points -->
  <g class="step" id="step14" data-narration="K-Maps provide visual, efficient minimization for up to 6 variables using adjacency, grouping rules, and wrap-around properties.">
    <rect x="20" y="1360" width="760" height="130" rx="8" fill="url(#greenGrad)" filter="url(#shadow)"/>
    <text x="50" y="1390" font-size="16" font-weight="bold" fill="#1b5e20">Key Points Summary</text>
    <!-- Summary cards -->
    <rect x="50" y="1410" width="170" height="35" rx="5" fill="#fff" stroke="#4caf50"/>
    <text x="135" y="1428" text-anchor="middle" font-size="11" fill="#1b5e20">Visual and Intuitive</text>
    <rect x="230" y="1410" width="170" height="35" rx="5" fill="#fff" stroke="#2196f3"/>
    <text x="315" y="1428" text-anchor="middle" font-size="11" fill="#1565c0">Adjacency is Key</text>
    <rect x="410" y="1410" width="170" height="35" rx="5" fill="#fff" stroke="#9c27b0"/>
    <text x="495" y="1428" text-anchor="middle" font-size="11" fill="#6a1b9a">Power of 2 Groups</text>
    <rect x="590" y="1410" width="170" height="35" rx="5" fill="#fff" stroke="#ff9800"/>
    <text x="675" y="1428" text-anchor="middle" font-size="11" fill="#e65100">Wrap Around</text>
    <!-- Bottom row -->
    <rect x="50" y="1455" width="250" height="25" rx="5" fill="#fff" stroke="#4caf50"/>
    <text x="175" y="1472" text-anchor="middle" font-size="10" fill="#1b5e20">Dont Care Conditions (X)</text>
    <rect x="310" y="1455" width="220" height="25" rx="5" fill="#fff" stroke="#f44336"/>
    <text x="420" y="1472" text-anchor="middle" font-size="10" fill="#b71c1c">Limit: 5-6 variables max</text>
    <rect x="540" y="1455" width="220" height="25" rx="5" fill="#fff" stroke="#1976d2"/>
    <text x="650" y="1472" text-anchor="middle" font-size="10" fill="#0d47a1">For larger: Quine-McCluskey</text>
  </g>
</svg>