<svg viewBox="0 0 800 600" xmlns="http://www.w3.org/2000/svg">
  <defs>
    <style>
      .step { opacity: 0; }
      .step.active { opacity: 1; transition: opacity 0.5s; }
      text { font-family: Arial, sans-serif; }
      .title { font-size: 24px; font-weight: bold; fill: #2C3E50; }
      .label { font-size: 16px; fill: #34495E; }
      .sublabel { font-size: 14px; fill: #7F8C8D; }
    </style>
  </defs>

  <g class="step" data-step="1" data-narration="A bigram is a sequence of two consecutive words used in natural language processing to model word relationships.">
    <text x="400" y="50" class="title" text-anchor="middle">Bigram Model in NLP</text>
    <rect x="300" y="150" width="200" height="80" fill="#E8F4FF" stroke="#4A90E2" stroke-width="2" rx="5"/>
    <text x="400" y="195" class="label" text-anchor="middle">Input Text</text>
  </g>

  <g class="step" data-step="2" data-narration="First, the input text is tokenized into individual words by splitting on whitespace and punctuation.">
    <rect x="300" y="280" width="200" height="80" fill="#E8F8EE" stroke="#50C878" stroke-width="2" rx="5"/>
    <text x="400" y="325" class="label" text-anchor="middle">Tokenization</text>
    <path d="M 400 230 L 400 280" stroke="#2E5C8A" stroke-width="2" marker-end="url(#arrowhead)"/>
  </g>

  <g class="step" data-step="3" data-narration="The tokenized words are then processed to extract all consecutive word pairs, forming bigrams.">
    <rect x="150" y="410" width="150" height="60" fill="#FDF2E7" stroke="#E67E22" stroke-width="2" rx="5"/>
    <text x="225" y="445" class="label" text-anchor="middle">Bigram 1</text>
    <rect x="325" y="410" width="150" height="60" fill="#FDF2E7" stroke="#E67E22" stroke-width="2" rx="5"/>
    <text x="400" y="445" class="label" text-anchor="middle">Bigram 2</text>
    <rect x="500" y="410" width="150" height="60" fill="#FDF2E7" stroke="#E67E22" stroke-width="2" rx="5"/>
    <text x="575" y="445" class="label" text-anchor="middle">Bigram 3</text>
    <path d="M 400 360 L 225 410" stroke="#2E7D4F" stroke-width="2"/>
    <path d="M 400 360 L 400 410" stroke="#2E7D4F" stroke-width="2"/>
    <path d="M 400 360 L 575 410" stroke="#2E7D4F" stroke-width="2"/>
  </g>

  <g class="step" data-step="4" data-narration="Each bigram is counted to determine its frequency in the corpus, creating a probability distribution.">
    <rect x="100" y="510" width="100" height="40" fill="#E8F4FF" stroke="#4A90E2" stroke-width="2" rx="3"/>
    <text x="150" y="535" class="sublabel" text-anchor="middle">Count: 5</text>
    <rect x="250" y="510" width="100" height="40" fill="#E8F4FF" stroke="#4A90E2" stroke-width="2" rx="3"/>
    <text x="300" y="535" class="sublabel" text-anchor="middle">Count: 8</text>
    <rect x="400" y="510" width="100" height="40" fill="#E8F4FF" stroke="#4A90E2" stroke-width="2" rx="3"/>
    <text x="450" y="535" class="sublabel" text-anchor="middle">Count: 3</text>
    <rect x="550" y="510" width="100" height="40" fill="#E8F4FF" stroke="#4A90E2" stroke-width="2" rx="3"/>
    <text x="600" y="535" class="sublabel" text-anchor="middle">Count: 6</text>
  </g>

  <g class="step" data-step="5" data-narration="The resulting bigram model can predict the next word given the current word, useful for text generation and language modeling.">
    <rect x="250" y="100" width="300" height="120" fill="none" stroke="#9B59B6" stroke-width="3" stroke-dasharray="5,5" rx="10"/>
    <text x="400" y="80" class="label" text-anchor="middle" fill="#9B59B6">Bigram Language Model</text>
  </g>

  <defs>
    <marker id="arrowhead" markerWidth="10" markerHeight="10" refX="9" refY="3" orient="auto">
      <polygon points="0 0, 10 3, 0 6" fill="#2E5C8A"/>
    </marker>
  </defs>
</svg>