<svg width="420" height="400" viewBox="0 0 420 400" xmlns="http://www.w3.org/2000/svg">
  <title>Estimates For The Parameters</title>
  <desc>Animated Educational Diagram for State of the Art in AI</desc>
  <defs>
    <linearGradient id="gradient" x1="0%" y1="0%" x2="100%" y2="0%">
      <stop offset="0%" stop-color="#3498db" stop-opacity="1"/>
      <stop offset="100%" stop-color="#2ecc71" stop-opacity="1"/>
    </linearGradient>
    <style>
      .section {
        position: relative;
        padding: 20px;
        background: linear-gradient(to bottom, #2ecc71, #3498db);
        border-radius: 10px;
        box-shadow: 0 2px 4px rgba(0,0,0,0.1);
        margin-bottom: 20px;
      }
      .section-data {
        position: absolute;
        top: 50%;
        left: 50%;
        transform: translate(-50%, -50%);
        font-size: 18px;
        font-weight: bold;
        color: #fff;
      }
      .section-data::before {
        content: "";
        position: absolute;
        top: 100%;
        left: 50%;
        transform: translateX(-50%);
        border-width: 10px;
        border-style: solid;
        border-color: #fff transparent transparent transparent;
        border-radius: 50%;
      }
      .animate {
        animation: animate 5s linear infinite;
      }
      @keyframes animate {
        0% {
          transform: scale(1);
        }
        50% {
          transform: scale(1.2);
        }
        100% {
          transform: scale(1);
        }
      }
    </style>
  </defs>
  <g>
    <rect width="100%" height="120" fill="#2ecc71" rx="10"/>
    <rect x="0" y="140" width="100%" height="60" fill="#3498db" rx="10"/>
    <rect x="0" y="210" width="100%" height="100" fill="#f1c40f" rx="10"/>
    <rect x="0" y="310" width="100%" height="90" fill="#2ecc71" rx="10"/>
    <rect x="0" y="400" width="100%" height="20" fill="#3498db" rx="10"/>
  </g>
  <g>
    <rect x="10" y="140" width="400" height="60" fill="#fff" rx="10"/>
    <rect x="10" y="140" width="20" height="40" fill="#f1c40f" rx="10"/>
    <rect x="40" y="140" width="20" height="40" fill="#3498db" rx="10"/>
    <rect x="80" y="140" width="20" height="40" fill="#2ecc71" rx="10"/>
    <rect x="120" y="140" width="20" height="40" fill="#3498db" rx="10"/>
    <rect x="160" y="140" width="20" height="40" fill="#2ecc71" rx="10"/>
    <rect x="200" y="140" width="20" height="40" fill="#3498db" rx="10"/>
    <rect x="240" y="140" width="20" height="40" fill="#2ecc71" rx="10"/>
    <rect x="280" y="140" width="20" height="40" fill="#3498db" rx="10"/>
    <rect x="320" y="140" width="20" height="40" fill="#2ecc71" rx="10"/>
  </g>
  <g>
    <rect x="10" y="310" width="400" height="90" fill="#fff" rx="10"/>
    <rect x="10" y="310" width="20" height="40" fill="#f1c40f" rx="10"/>
    <rect x="40" y="310" width="20" height="40" fill="#3498db" rx="10"/>
    <rect x="80" y="310" width="20" height="40" fill="#2ecc71" rx="10"/>
    <rect x="120" y="310" width="20" height="40" fill="#3498db" rx="10"/>
    <rect x="160" y="310" width="20" height="40" fill="#2ecc71" rx="10"/>
    <rect x="200" y="310" width="20" height="40" fill="#3498db" rx="10"/>
    <rect x="240" y="310" width="20" height="40" fill="#2ecc71" rx="10"/>
    <rect x="280" y="310" width="20" height="40" fill="#3498db" rx="10"/>
    <rect x="320" y="310" width="20" height="40" fill="#2ecc71" rx="10"/>
  </g>
  <g>
    <rect x="10" y="400" width="400" height="20" fill="#fff" rx="10"/>
    <rect x="10" y="400" width="20" height="20" fill="#f1c40f" rx="10"/>
    <rect x="40" y="400" width="20" height="20" fill="#3498db" rx="10"/>
    <rect x="80" y="400" width="20" height="20" fill="#2ecc71" rx="10"/>
    <rect x="120" y="400" width="20" height="20" fill="#3498db" rx="10"/>
    <rect x="160" y="400" width="20" height="20" fill="#2ecc71" rx="10"/>
    <rect x="200" y="400" width="20" height="20" fill="#3498db" rx="10"/>
    <rect x="240" y="400" width="20" height="20" fill="#2ecc71" rx="10"/>
    <rect x="280" y="400" width="20" height="20" fill="#3498db" rx="10"/>
  </g>
  <g data-topic-id="state-of-the-art-in-ai">
    <rect x="10" y="140" width="100%" height="60" fill="#3498db" rx="10" data-narration="What is State of the Art in AI?"/>
    <rect x="10" y="210" width="100%" height="100" fill="#f1c40f" rx="10" data-narration="Definition and Key Domains of AI"/>
    <rect x="10" y="310" width="100%" height="90" fill="#2ecc71" rx="10" data-narration="Challenges Ahead in AI Research"/>
    <rect x="10" y="400" width="100%" height="20" fill="#3498db" rx="10" data-narration="Establishing State of the Art"/>
    <rect x="10" y="140" width="20" height="40" fill="#f1c40f" rx="10" data-narration="A Research Team Develops a New Model or Technique"/>
    <rect x="40" y="140" width="20" height="40" fill="#3498db" rx="10" data-narration="They Evaluate it on a Public Benchmark Dataset"/>
    <rect x="80" y="140" width="20" height="40" fill="#2ecc71" rx="10" data-narration="If it Outperforms All Previous Models, it Claims the Title of State of the Art"/>
    <rect x="120" y="140" width="20" height="40" fill="#3498db" rx="10" data-narration="This New SOTA Result is Published, and the Cycle Begins Again"/>
  </g>
  <g data-topic-id="estimates-for-the-parameters">
    <rect x="10" y="140" width="100%" height="60" fill="#2ecc71" rx="10" data-narration="Estimates for the Parameters in State of the Art AI"/>
    <rect x="10" y="210" width="100%" height="100" fill="#f1c40f" rx="10" data-narration="Metrics for Evaluating AI Performance"/>
    <rect x="10" y="310" width="100%" height="90" fill="#3498db" rx="10" data-narration="Task-Specific Metrics and Win Rate"/>
    <rect x="10" y="400" width="100%" height="20" fill="#2ecc71" rx="10" data-narration="Establishing SOTA using Metrics"/>
    <rect x="10" y="140" width="20" height="40" fill="#f1c40f" rx="10" data-narration="Accuracy as a Metric for Performance"/>
    <rect x="40" y="140" width="20" height="40" fill="#3498db" rx="10" data-narration="Precision and Recall for Information Retrieval"/>
    <rect x="80" y="140" width="20" height="40" fill="#2ecc71" rx="10" data-narration="F1-Score for Object Detection"/>
    <rect x="120" y="140" width="20" height="40" fill="#3498db" rx="10" data-narration="BLEU Score for Machine Translation"/>
  </g>
  <g>
    <rect x="10" y="140" width="400" height="60" fill="#fff" rx="10"/>
    <rect x="10" y="140" width="100%" height="20" fill="#3498db" rx="10" data-narration="State of the Art in AI"/>
    <rect x="10" y="210" width="100%" height="100" fill="#f1c40f" rx="10" data-narration="Key Domains of AI Research"/>
    <rect x="10" y="310" width="100%" height="90" fill="#2ecc71" rx="10" data-narration="Establishing SOTA using Metrics and Performance Evaluation"/>
    <rect x="10" y="400" width="100%" height="20" fill="#3498db" rx="10" data-narration="Conclusion and Future Directions"/>
    <rect x="10" y="140" width="20" height="40" fill="#f1c40f" rx="10" data-narration="A SOTA Result is Published"/>
    <rect x="40" y="140" width="20" height="40" fill="#3498db" rx="10" data-narration="The Cycle Begins Again"/>
    <rect x="80" y="140" width="20" height="40" fill="#2ecc71" rx="10" data-narration="Establishing SOTA using Metrics and Performance Evaluation"/>
    <rect x="120" y="140" width="20" height="40" fill="#3498db" rx="10" data-narration="The Most Advanced Capabilities and Performance Benchmarks"/>
  </g>
  <animate transform="scale(1)" fill="freeze" begin="0s" dur="5s" repeatCount="indefinite"/>
  <animate transform="scale(1.2)" fill="freeze" begin="2s" dur="5s" repeatCount="indefinite"/>
  <animate transform="scale(1)" fill="freeze" begin="4s" dur="5s" repeatCount="indefinite"/>
</svg>