<svg viewBox="0 0 800 1600" xmlns="http://www.w3.org/2000/svg">
  <defs>
    <!-- Gradients -->
    <linearGradient id="blueGrad" x1="0%" y1="0%" x2="100%" y2="100%">
      <stop offset="0%" style="stop-color:#e3f2fd"/>
      <stop offset="100%" style="stop-color:#bbdefb"/>
    </linearGradient>
    <linearGradient id="greenGrad" x1="0%" y1="0%" x2="100%" y2="100%">
      <stop offset="0%" style="stop-color:#e8f5e9"/>
      <stop offset="100%" style="stop-color:#c8e6c9"/>
    </linearGradient>
    <linearGradient id="orangeGrad" x1="0%" y1="0%" x2="100%" y2="100%">
      <stop offset="0%" style="stop-color:#fff3e0"/>
      <stop offset="100%" style="stop-color:#ffe0b2"/>
    </linearGradient>
    <linearGradient id="redGrad" x1="0%" y1="0%" x2="100%" y2="100%">
      <stop offset="0%" style="stop-color:#ffebee"/>
      <stop offset="100%" style="stop-color:#ffcdd2"/>
    </linearGradient>
    <linearGradient id="purpleGrad" x1="0%" y1="0%" x2="100%" y2="100%">
      <stop offset="0%" style="stop-color:#f3e5f5"/>
      <stop offset="100%" style="stop-color:#e1bee7"/>
    </linearGradient>
    <linearGradient id="titleGrad" x1="0%" y1="0%" x2="100%" y2="0%">
      <stop offset="0%" style="stop-color:#1976d2"/>
      <stop offset="100%" style="stop-color:#1565c0"/>
    </linearGradient>
    
    <!-- Arrow marker -->
    <marker id="arrowBlue" markerWidth="10" markerHeight="10" refX="9" refY="3" orient="auto">
      <path d="M0,0 L0,6 L9,3 z" fill="#1976d2"/>
    </marker>
    <marker id="arrowGreen" markerWidth="10" markerHeight="10" refX="9" refY="3" orient="auto">
      <path d="M0,0 L0,6 L9,3 z" fill="#388e3c"/>
    </marker>
    <marker id="arrowOrange" markerWidth="10" markerHeight="10" refX="9" refY="3" orient="auto">
      <path d="M0,0 L0,6 L9,3 z" fill="#ff9800"/>
    </marker>
    
    <!-- Shadow filter -->
    <filter id="shadow" x="-20%" y="-20%" width="140%" height="140%">
      <feDropShadow dx="2" dy="2" stdDeviation="3" flood-opacity="0.2"/>
    </filter>
  </defs>
  
  <style>
    @keyframes fadeInSlide {
      from { opacity: 0; transform: translateY(20px); }
      to { opacity: 1; transform: translateY(0); }
    }
    @keyframes scaleIn {
      from { opacity: 0; transform: scale(0.85); }
      to { opacity: 1; transform: scale(1); }
    }
    @keyframes textReveal {
      from { opacity: 0; transform: translateX(-10px); }
      to { opacity: 1; transform: translateX(0); }
    }
    @keyframes pulse {
      0%, 100% { transform: scale(1); }
      50% { transform: scale(1.03); }
    }
    @keyframes drawLine {
      from { stroke-dashoffset: 500; }
      to { stroke-dashoffset: 0; }
    }
    @keyframes fillIn {
      from { opacity: 0; }
      to { opacity: 1; }
    }
    .step { animation: fadeInSlide 0.6s ease-out; }
    .step rect {
      animation: scaleIn 0.5s cubic-bezier(0.34, 1.56, 0.64, 1);
      transform-origin: center;
    }
    .step text { animation: textReveal 0.4s ease-out 0.2s backwards; }
    .animated-line {
      stroke-dasharray: 500;
      stroke-dashoffset: 500;
      animation: drawLine 1.5s ease-out forwards;
    }
    .delay-1 { animation-delay: 0.3s; }
    .delay-2 { animation-delay: 0.6s; }
    .delay-3 { animation-delay: 0.9s; }
    .delay-4 { animation-delay: 1.2s; }
  </style>
  
  <!-- Background -->
  <rect width="800" height="1600" fill="#f8f9fa"/>
  
  <!-- STEP 0: Title -->
  <g class="step" id="step0" data-narration="Welcome to our exploration of pipelining, a fundamental technique for improving processor performance through instruction overlap.">
    <rect x="0" y="0" width="800" height="55" fill="url(#titleGrad)"/>
    <text x="400" y="35" text-anchor="middle" font-size="24" font-weight="bold" fill="white">PIPELINING IN COMPUTER ORGANIZATION</text>
    <text x="400" y="48" text-anchor="middle" font-size="11" fill="#e3f2fd">Overlapping Instruction Execution for High Performance</text>
  </g>
  
  <!-- STEP 1: Introduction - What is Pipelining -->
  <g class="step" id="step1" data-narration="Pipelining is like an assembly line where different stages work concurrently, processing multiple instructions simultaneously.">
    <rect x="20" y="65" width="760" height="85" rx="10" fill="url(#blueGrad)" filter="url(#shadow)"/>
    <text x="40" y="85" font-size="14" font-weight="bold" fill="#1976d2">WHAT IS PIPELING?</text>
    <text x="40" y="105" font-size="11" fill="#424242">A technique inspired by assembly lines where multiple instructions are in</text>
    <text x="40" y="120" font-size="11" fill="#424242">different stages of execution simultaneously, improving throughput.</text>
    <!-- Factory analogy icon -->
    <rect x="680" y="75" width="80" height="65" rx="5" fill="white" stroke="#1976d2" stroke-width="2"/>
    <rect x="690" y="95" width="15" height="35" fill="#1976d2"/>
    <rect x="710" y="105" width="15" height="25" fill="#1976d2"/>
    <rect x="730" y="85" width="15" height="45" fill="#1976d2"/>
    <rect x="690" y="88" width="55" height="3" fill="#1565c0"/>
    <rect x="690" y="98" width="55" height="3" fill="#1565c0"/>
    <rect x="690" y="108" width="55" height="3" fill="#1565c0"/>
    <rect x="690" y="118" width="55" height="3" fill="#1565c0"/>
    <rect x="690" y="128" width="55" height="3" fill="#1565c0"/>
  </g>
  
  <!-- STEP 2: Why Pipelining Matters -->
  <g class="step" id="step2" data-narration="Without pipelining, processors waste hardware resources since only one stage executes at a time, leading to inefficiency.">
    <rect x="20" y="160" width="760" height="85" rx="10" fill="url(#orangeGrad)" filter="url(#shadow)"/>
    <text x="40" y="180" font-size="14" font-weight="bold" fill="#f57c00">WHY PIPELINING MATTERS</text>
    <text x="40" y="200" font-size="11" fill="#424242">Sequential execution wastes hardware - stages sit idle while waiting for</text>
    <text x="40" y="215" font-size="11" fill="#424242">previous instructions to complete. Pipelining keeps all stages busy!</text>
    <!-- Sequential vs Pipelined comparison -->
    <rect x="450" y="175" width="150" height="55" rx="5" fill="white" stroke="#ff9800" stroke-width="2"/>
    <text x="525" y="192" text-anchor="middle" font-size="10" fill="#ff9800" font-weight="bold">SEQUENTIAL</text>
    <rect x="465" y="200" width="20" height="20" rx="2" fill="#ff9800" opacity="0.3"/>
    <rect x="495" y="200" width="20" height="20" rx="2" fill="#ff9800" opacity="0.3"/>
    <rect x="525" y="200" width="20" height="20" rx="2" fill="#ff9800" opacity="0.3"/>
    <rect x="555" y="200" width="20" height="20" rx="2" fill="#ff9800" opacity="0.3"/>
    <rect x="585" y="200" width="20" height="20" rx="2" fill="#ff9800" opacity="0.3"/>
    
    <rect x="610" y="175" width="150" height="55" rx="5" fill="white" stroke="#388e3c" stroke-width="2"/>
    <text x="685" y="192" text-anchor="middle" font-size="10" fill="#388e3c" font-weight="bold">PIPELINED</text>
    <rect x="625" y="200" width="20" height="20" rx="2" fill="#388e3c"/>
    <rect x="655" y="200" width="20" height="20" rx="2" fill="#388e3c"/>
    <rect x="685" y="200" width="20" height="20" rx="2" fill="#388e3c"/>
    <rect x="715" y="200" width="20" height="20" rx="2" fill="#388e3c"/>
    <rect x="745" y="200" width="20" height="20" rx="2" fill="#388e3c"/>
  </g>
  
  <!-- STEP 3: The Five Stages -->
  <g class="step" id="step3" data-narration="The 5-stage pipeline divides instruction execution into Fetch, Decode, Execute, Memory access, and Write-back stages.">
    <rect x="20" y="255" width="760" height="100" rx="10" fill="url(#greenGrad)" filter="url(#shadow)"/>
    <text x="40" y="275" font-size="14" font-weight="bold" fill="#388e3c">THE 5-STAGE PIPELINE</text>
    
    <!-- Five stage boxes -->
    <rect x="50" y="290" width="120" height="55" rx="5" fill="white" stroke="#388e3c" stroke-width="2"/>
    <text x="110" y="310" text-anchor="middle" font-size="11" font-weight="bold" fill="#388e3c">IF</text>
    <text x="110" y="328" text-anchor="middle" font-size="9" fill="#424242">Instruction</text>
    <text x="110" y="340" text-anchor="middle" font-size="9" fill="#424242">Fetch</text>
    
    <rect x="185" y="290" width="120" height="55" rx="5" fill="white" stroke="#388e3c" stroke-width="2"/>
    <text x="245" y="310" text-anchor="middle" font-size="11" font-weight="bold" fill="#388e3c">ID</text>
    <text x="245" y="328" text-anchor="middle" font-size="9" fill="#424242">Decode</text>
    
    <rect x="320" y="290" width="120" height="55" rx="5" fill="white" stroke="#388e3c" stroke-width="2"/>
    <text x="380" y="310" text-anchor="middle" font-size="11" font-weight="bold" fill="#388e3c">EX</text>
    <text x="380" y="328" text-anchor="middle" font-size="9" fill="#424242">Execute</text>
    
    <rect x="455" y="290" width="120" height="55" rx="5" fill="white" stroke="#388e3c" stroke-width="2"/>
    <text x="515" y="310" text-anchor="middle" font-size="11" font-weight="bold" fill="#388e3c">MEM</text>
    <text x="515" y="328" text-anchor="middle" font-size="9" fill="#424242">Memory</text>
    
    <rect x="590" y="290" width="120" height="55" rx="5" fill="white" stroke="#388e3c" stroke-width="2"/>
    <text x="650" y="310" text-anchor="middle" font-size="11" font-weight="bold" fill="#388e3c">WB</text>
    <text x="650" y="328" text-anchor="middle" font-size="9" fill="#424242">Write Back</text>
    
    <!-- Arrows between stages -->
    <line x1="170" y1="317" x2="185" y2="317" stroke="#388e3c" stroke-width="2" marker-end="url(#arrowGreen)"/>
    <line x1="305" y1="317" x2="320" y2="317" stroke="#388e3c" stroke-width="2" marker-end="url(#arrowGreen)"/>
    <line x1="440" y1="317" x2="455" y2="317" stroke="#388e3c" stroke-width="2" marker-end="url(#arrowGreen)"/>
    <line x1="575" y1="317" x2="590" y2="317" stroke="#388e3c" stroke-width="2" marker-end="url(#arrowGreen)"/>
  </g>
  
  <!-- STEP 4: Pipeline Registers -->
  <g class="step" id="step4" data-narration="Pipeline registers between stages hold intermediate results, ensuring each stage works independently on different instructions.">
    <rect x="20" y="365" width="760" height="100" rx="10" fill="url(#purpleGrad)" filter="url(#shadow)"/>
    <text x="40" y="385" font-size="14" font-weight="bold" fill="#9c27b0">PIPELINE REGISTERS</text>
    <text x="40" y="405" font-size="11" fill="#424242">Registers between stages hold data and control signals as instructions move through the pipeline.</text>
    
    <!-- Pipeline with registers -->
    <rect x="50" y="420" width="100" height="35" rx="3" fill="white" stroke="#9c27b0" stroke-width="2"/>
    <text x="100" y="442" text-anchor="middle" font-size="10" fill="#9c27b0">Stage 1</text>
    
    <rect x="165" y="425" width="30" height="25" rx="2" fill="#9c27b0"/>
    <text x="180" y="441" text-anchor="middle" font-size="7" fill="white">REG</text>
    
    <rect x="210" y="420" width="100" height="35" rx="3" fill="white" stroke="#9c27b0" stroke-width="2"/>
    <text x="260" y="442" text-anchor="middle" font-size="10" fill="#9c27b0">Stage 2</text>
    
    <rect x="325" y="425" width="30" height="25" rx="2" fill="#9c27b0"/>
    <text x="340" y="441" text-anchor="middle" font-size="7" fill="white">REG</text>
    
    <rect x="370" y="420" width="100" height="35" rx="3" fill="white" stroke="#9c27b0" stroke-width="2"/>
    <text x="420" y="442" text-anchor="middle" font-size="10" fill="#9c27b0">Stage 3</text>
    
    <rect x="485" y="425" width="30" height="25" rx="2" fill="#9c27b0"/>
    <text x="500" y="441" text-anchor="middle" font-size="7" fill="white">REG</text>
    
    <rect x="530" y="420" width="100" height="35" rx="3" fill="white" stroke="#9c27b0" stroke-width="2"/>
    <text x="580" y="442" text-anchor="middle" font-size="10" fill="#9c27b0">Stage 4</text>
    
    <rect x="645" y="425" width="30" height="25" rx="2" fill="#9c27b0"/>
    <text x="660" y="441" text-anchor="middle" font-size="7" fill="white">REG</text>
    
    <rect x="690" y="420" width="60" height="35" rx="3" fill="white" stroke="#9c27b0" stroke-width="2"/>
    <text x="720" y="442" text-anchor="middle" font-size="10" fill="#9c27b0">WB</text>
    
    <text x="720" y="468" text-anchor="middle" font-size="9" fill="#7b1fa2">Clock cycles</text>
  </g>
  
  <!-- STEP 5: Execution Timeline -->
  <g class="step" id="step5" data-narration="This timeline shows three instructions overlapping in the pipeline, completing in 7 cycles instead of 15 sequential cycles.">
    <rect x="20" y="475" width="760" height="100" rx="10" fill="url(#blueGrad)" filter="url(#shadow)"/>
    <text x="40" y="495" font-size="14" font-weight="bold" fill="#1976d2">EXECUTION TIMELINE (3 INSTRUCTIONS)</text>
    
    <!-- Timeline header -->
    <text x="60" y="518" font-size="9" fill="#1976d2">Cycle:</text>
    <text x="110" y="518" font-size="8" fill="#424242">1</text>
    <text x="150" y="518" font-size="8" fill="#424242">2</text>
    <text x="190" y="518" font-size="8" fill="#424242">3</text>
    <text x="230" y="518" font-size="8" fill="#424242">4</text>
    <text x="270" y="518" font-size="8" fill="#424242">5</text>
    <text x="310" y="518" font-size="8" fill="#424242">6</text>
    <text x="350" y="518" font-size="8" fill="#424242">7</text>
    
    <!-- Instruction rows -->
    <text x="40" y="538" font-size="9" fill="#1976d2">I1:ADD</text>
    <rect x="100" y="525" width="35" height="18" fill="#1976d2" rx="2"/>
    <rect x="140" y="525" width="35" height="18" fill="#1976d2" rx="2"/>
    <rect x="180" y="525" width="35" height="18" fill="#1976d2" rx="2"/>
    <rect x="220" y="525" width="35" height="18" fill="#1976d2" rx="2"/>
    <rect x="260" y="525" width="35" height="18" fill="#1976d2" rx="2"/>
    <text x="298" y="538" font-size="8" fill="#424242">WB</text>
    
    <text x="40" y="558" font-size="9" fill="#388e3c">I2:LD</text>
    <rect x="100" y="545" width="35" height="18" fill="#388e3c" rx="2" opacity="0.3"/>
    <rect x="140" y="545" width="35" height="18" fill="#388e3c" rx="2"/>
    <rect x="180" y="545" width="35" height="18" fill="#388e3c" rx="2"/>
    <rect x="220" y="545" width="35" height="18" fill="#388e3c" rx="2"/>
    <rect x="260" y="545" width="35" height="18" fill="#388e3c" rx="2"/>
    <rect x="300" y="545" width="35" height="18" fill="#388e3c" rx="2"/>
    <text x="338" y="558" font-size="8" fill="#424242">WB</text>
    
    <text x="40" y="578" font-size="9" fill="#ff9800">I3:SUB</text>
    <rect x="100" y="565" width="35" height="18" fill="#ff9800" rx="2" opacity="0.3"/>
    <rect x="140" y="565" width="35" height="18" fill="#ff9800" rx="2" opacity="0.3"/>
    <rect x="180" y="565" width="35" height="18" fill="#ff9800" rx="2"/>
    <rect x="220" y="565" width="35" height="18" fill="#ff9800" rx="2"/>
    <rect x="260" y="565" width="35" height="18" fill="#ff9800" rx="2"/>
    <rect x="300" y="565" width="35" height="18" fill="#ff9800" rx="2"/>
    <rect x="340" y="565" width="35" height="18" fill="#ff9800" rx="2"/>
    
    <!-- Legend -->
    <rect x="450" y="545" width="12" height="12" fill="#e3f2fd" stroke="#1976d2"/>
    <text x="468" y="555" font-size="8" fill="#424242">IF</text>
    <rect x="500" y="545" width="12" height="12" fill="#e3f2fd" stroke="#388e3c"/>
    <text x="518" y="555" font-size="8" fill="#424242">ID</text>
    <rect x="550" y="545" width="12" height="12" fill="#e3f2fd" stroke="#ff9800"/>
    <text x="568" y="555" font-size="8" fill="#424242">EX</text>
    <rect x="600" y="545" width="12" height="12" fill="#e3f2fd" stroke="#f44336"/>
    <text x="618" y="555" font-size="8" fill="#424242">MEM</text>
    <rect x="650" y="545" width="12" height="12" fill="#e3f2fd" stroke="#9c27b0"/>
    <text x="668" y="555" font-size="8" fill="#424242">WB</text>
    
    <text x="580" y="575" font-size="10" fill="#424242">Sequential: 15 cycles | Pipelined: 7 cycles</text>
  </g>
  
  <!-- STEP 6: Performance Formulas -->
  <g class="step" id="step6" data-narration="The ideal speedup equals the number of pipeline stages. For a 5-stage pipeline, maximum speedup is 5x.">
    <rect x="20" y="585" width="760" height="100" rx="10" fill="url(#greenGrad)" filter="url(#shadow)"/>
    <text x="40" y="605" font-size="14" font-weight="bold" fill="#388e3c">PIPELINE PERFORMANCE FORMULAS</text>
    
    <!-- Non-pipelined -->
    <rect x="40" y="620" width="330" height="55" rx="5" fill="white" stroke="#388e3c" stroke-width="1"/>
    <text x="50" y="638" font-size="10" font-weight="bold" fill="#388e3c">Non-Pipelined Time</text>
    <text x="50" y="656" font-size="11" fill="#424242">T</text>
    <text x="65" y="656" font-size="9" fill="#424242">sequential</text>
    <text x="165" y="656" font-size="11" fill="#424242">=</text>
    <text x="180" y="656" font-size="11" fill="#1565c0">n × CPI × τ</text>
    <text x="270" y="656" font-size="9" fill="#616161">(CPI=5)</text>
    
    <!-- Pipelined -->
    <rect x="390" y="620" width="380" height="55" rx="5" fill="white" stroke="#1976d2" stroke-width="1"/>
    <text x="400" y="638" font-size="10" font-weight="bold" fill="#1976d2">Pipelined Time (Ideal)</text>
    <text x="400" y="656" font-size="11" fill="#424242">T</text>
    <text x="425" y="656" font-size="9" fill="#424242">pipelined</text>
    <text x="500" y="656" font-size="11" fill="#424242">=</text>
    <text x="515" y="656" font-size="11" fill="#1565c0">(k + n - 1) × τ</text>
    <text x="620" y="656" font-size="9" fill="#616161">(k=5, CPI=1)</text>
    
    <!-- Speedup formula -->
    <rect x="40" y="685" width="730" height="25" rx="3" fill="url(#blueGrad)"/>
    <text x="205" y="702" font-size="12" fill="#1565c0" font-weight="bold">IDEAL SPEEDUP = k (number of stages)</text>
  </g>
  
  <!-- STEP 7: Pipeline Hazards - Overview -->
  <g class="step" id="step7" data-narration="Real pipelines face hazards that cause stalls. There are three main types: structural, data, and control hazards.">
    <rect x="20" y="695" width="760" height="110" rx="10" fill="url(#redGrad)" filter="url(#shadow)"/>
    <text x="40" y="715" font-size="14" font-weight="bold" fill="#f44336">PIPELINE HAZARDS - Types Overview</text>
    <text x="40" y="735" font-size="11" fill="#424242">Hazards prevent instructions from executing in their designated cycle, causing stalls (bubbles) in the pipeline.</text>
    
    <!-- Three hazard types -->
    <rect x="50" y="750" width="220" height="45" rx="5" fill="white" stroke="#f44336" stroke-width="2"/>
    <text x="160" y="770" text-anchor="middle" font-size="11" font-weight="bold" fill="#f44336">STRUCTURAL</text>
    <text x="160" y="786" text-anchor="middle" font-size="9" fill="#424242">Hardware resource conflict</text>
    
    <rect x="290" y="750" width="220" height="45" rx="5" fill="white" stroke="#ff9800" stroke-width="2"/>
    <text x="400" y="770" text-anchor="middle" font-size="11" font-weight="bold" fill="#ff9800">DATA</text>
    <text x="400" y="786" text-anchor="middle" font-size="9" fill="#424242">Instruction dependency</text>
    
    <rect x="530" y="750" width="230" height="45" rx="5" fill="white" stroke="#9c27b0" stroke-width="2"/>
    <text x="645" y="770" text-anchor="middle" font-size="11" font-weight="bold" fill="#9c27b0">CONTROL</text>
    <text x="645" y="786" text-anchor="middle" font-size="9" fill="#424242">Branch/jump uncertainty</text>
  </g>
  
  <!-- STEP 8: Structural Hazards -->
  <g class="step" id="step8" data-narration="Structural hazards occur when hardware can't support all pipeline combinations. Solution: Harvard architecture with separate I-cache and D-cache.">
    <rect x="20" y="815" width="760" height="110" rx="10" fill="url(#redGrad)" filter="url(#shadow)"/>
    <text x="40" y="835" font-size="14" font-weight="bold" fill="#f44336">STRUCTURAL HAZARDS</text>
    <text x="40" y="855" font-size="11" fill="#424242">Example: Single memory for both instructions and data causes conflict when</text>
    <text x="40" y="870" font-size="11" fill="#424242">LOAD is in MEM stage and next instruction needs to fetch from IF stage.</text>
    
    <!-- Problem illustration -->
    <rect x="50" y="885" width="300" height="30" rx="3" fill="white" stroke="#f44336" stroke-width="1"/>
    <text x="200" y="906" text-anchor="middle" font-size="10" fill="#f44336">PROBLEM: Memory Conflict</text>
    <text x="60" y="903" font-size="9" fill="#424242">Cycle 4: LOAD in MEM</text>
    <text x="200" y="903" font-size="9" fill="#f44336" font-weight="bold">NEXT instruction in IF</text>
    <text x="300" y="903" font-size="9" fill="#f44336">← CONFLICT!</text>
    
    <!-- Solution -->
    <rect x="370" y="885" width="390" height="30" rx="3" fill="white" stroke="#388e3c" stroke-width="1"/>
    <text x="565" y="906" text-anchor="middle" font-size="10" fill="#388e3c">SOLUTION: Harvard Architecture</text>
    <text x="390" y="903" font-size="9" fill="#424242">Separate Instruction Cache (I-Cache)</text>
    <text x="620" y="903" font-size="9" fill="#424242">Separate Data Cache (D-Cache)</text>
    
    <!-- Cache icons -->
    <rect x="405" y="912" width="40" height="25" rx="2" fill="#e3f2fd" stroke="#1976d2"/>
    <text x="425" y="930" text-anchor="middle" font-size="8" fill="#1976d2">I$</text>
    <rect x="530" y="912" width="40" height="25" rx="2" fill="#e8f5e9" stroke="#388e3c"/>
    <text x="550" y="930" text-anchor="middle" font-size="8" fill="#388e3c">D$</text>
  </g>
  
  <!-- STEP 9: Data Hazards -->
  <g class="step" id="step9" data-narration="Data hazards occur when instructions depend on results not yet written. Forwarding routes results directly from EX/MEM stage.">
    <rect x="20" y="935" width="760" height="110" rx="10" fill="url(#orangeGrad)" filter="url(#shadow)"/>
    <text x="40" y="955" font-size="14" font-weight="bold" fill="#f57c00">DATA HAZARDS</text>
    <text x="40" y="975" font-size="11" fill="#424242">Example: ADD R1,R2,R3 then SUB R4,R1,R5 - SUB needs R1 value that ADD</text>
    <text x="40" y="990" font-size="11" fill="#424242">writes in WB stage, but SUB needs it in EX stage.</text>
    
    <!-- Without forwarding -->
    <rect x="50" y="1005" width="340" height="30" rx="3" fill="white" stroke="#f44336" stroke-width="1"/>
    <text x="220" y="1026" text-anchor="middle" font-size="10" fill="#f44336">WITHOUT FORWARDING (Stall)</text>
    <rect x="60" y="1012" width="60" height="16" rx="2" fill="#1976d2"/>
    <text x="90" y="1023" font-size="8" fill="white">ADD R1</text>
    <rect x="130" y="1012" width="60" height="16" rx="2" fill="#388e3c"/>
    <text x="160" y="1023" font-size="8" fill="white">SUB R4,R1</text>
    <rect x="200" y="1012" width="20" height="16" rx="2" fill="#f44336" opacity="0.7"/>
    <text x="210" y="1023" font-size="7" fill="#f44336">STALL</text>
    
    <!-- With forwarding -->
    <rect x="410" y="1005" width="350" height="30" rx="3" fill="white" stroke="#388e3c" stroke-width="1"/>
    <text x="585" y="1026" text-anchor="middle" font-size="10" fill="#388e3c">WITH FORWARDING (No Stall)</text>
    <rect x="420" y="1012" width="60" height="16" rx="2" fill="#1976d2"/>
    <text x="450" y="1023" font-size="8" fill="white">ADD R1</text>
    <rect x="490" y="1012" width="60" height="16" rx="2" fill="#388e3c"/>
    <text x="520" y="1023" font-size="8" fill="white">SUB R4,R1</text>
    <!-- Forwarding arrow -->
    <path d="M500 1012 Q 510 1000, 520 1012" stroke="#388e3c" stroke-width="1.5" fill="none" marker-end="url(#arrowGreen)"/>
    <text x="560" y="1023" font-size="7" fill="#388e3c">Forward</text>
  </g>
  
  <!-- STEP 10: Control Hazards -->
  <g class="step" id="step10" data-narration="Control hazards arise from branches changing the PC. The solution is branch prediction to speculatively fill the pipeline.">
    <rect x="20" y="1055" width="760" height="110" rx="10" fill="url(#purpleGrad)" filter="url(#shadow)"/>
    <text x="40" y="1075" font-size="14" font-weight="bold" fill="#9c27b0">CONTROL HAZARDS</text>
    <text x="40" y="1095" font-size="11" fill="#424242">Branches change PC, but outcome is known only in EX stage. Instructions</text>
    <text x="40" y="1110" font-size="11" fill="#424242">fetched after branch may be wrong and must be discarded.</text>
    
    <!-- Branch timeline -->
    <text x="50" y="1130" font-size="10" fill="#9c27b0">Branch Instruction:</text>
    <rect x="160" y="1118" width="40" height="18" rx="2" fill="#9c27b0"/>
    <text x="180" y="1132" text-anchor="middle" font-size="8" fill="white">IF</text>
    <rect x="205" y="1118" width="40" height="18" rx="2" fill="#9c27b0"/>
    <text x="225" y="1132" text-anchor="middle" font-size="8" fill="white">ID</text>
    <rect x="250" y="1118" width="40" height="18" rx="2" fill="#f44336"/>
    <text x="270" y="1132" text-anchor="middle" font-size="8" fill="white">EX</text>
    <text x="300" y="1132" font-size="8" fill="#f44336">(branch resolved)</text>
    
    <!-- Wrong path instructions -->
    <text x="50" y="1155" font-size="10" fill="#f44336">Fetched in wrong path:</text>
    <rect x="200" y="1143" width="40" height="18" rx="2" fill="#f44336" opacity="0.5"/>
    <rect x="245" y="1143" width="40" height="18" rx="2" fill="#f44336" opacity="0.5"/>
    <text x="295" y="1157" font-size="8" fill="#f44336">← Must flush!</text>
    
    <!-- Solution -->
    <rect x="400" y="1125" width="360" height="45" rx="5" fill="white" stroke="#388e3c" stroke-width="1"/>
    <text x="580" y="1145" text-anchor="middle" font-size="10" font-weight="bold" fill="#388e3c">SOLUTION: Branch Prediction</text>
    <text x="420" y="1163" font-size="9" fill="#424242">• Predict branch direction (taken/not taken)</text>
    <text x="620" y="1163" font-size="9" fill="#424242">• Speculatively fetch next instructions</text>
  </g>
  
  <!-- STEP 11: Summary of Solutions -->
  <g class="step" id="step11" data-narration="Each hazard type has specific solutions: separate caches for structural, forwarding for data, and branch prediction for control hazards.">
    <rect x="20" y="1175" width="760" height="100" rx="10" fill="url(#greenGrad)" filter="url(#shadow)"/>
    <text x="40" y="1195" font-size="14" font-weight="bold" fill="#388e3c">HAZARD SOLUTIONS SUMMARY</text>
    
    <!-- Solutions table -->
    <rect x="50" y="1210" width="200" height="55" rx="5" fill="white" stroke="#f44336" stroke-width="1"/>
    <text x="150" y="1230" text-anchor="middle" font-size="10" font-weight="bold" fill="#f44336">STRUCTURAL</text>
    <text x="150" y="1248" text-anchor="middle" font-size="9" fill="#424242">Separate I$ and D$</text>
    <text x="150" y="1260" text-anchor="middle" font-size="8" fill="#616161">(Harvard Architecture)</text>
    
    <rect x="270" y="1210" width="200" height="55" rx="5" fill="white" stroke="#ff9800" stroke-width="1"/>
    <text x="370" y="1230" text-anchor="middle" font-size="10" font-weight="bold" fill="#ff9800">DATA</text>
    <text x="370" y="1248" text-anchor="middle" font-size="9" fill="#424242">Forwarding / Bypassing</text>
    <text x="370" y="1260" text-anchor="middle" font-size="8" fill="#616161">(Route results from EX/MEM)</text>
    
    <rect x="490" y="1210" width="200" height="55" rx="5" fill="white" stroke="#9c27b0" stroke-width="1"/>
    <text x="590" y="1230" text-anchor="middle" font-size="10" font-weight="bold" fill="#9c27b0">CONTROL</text>
    <text x="590" y="1248" text-anchor="middle" font-size="9" fill="#424242">Branch Prediction</text>
    <text x="590" y="1260" text-anchor="middle" font-size="8" fill="#616161">(Static or Dynamic)</text>
  </g>
  
  <!-- STEP 12: Key Takeaways -->
  <g class="step" id="step12" data-narration="Pipelining increases throughput by overlapping instructions, achieving near-ideal CPI of 1 with k-stage pipeline and k times speedup.">
    <rect x="20" y="1285" width="760" height="95" rx="10" fill="url(#blueGrad)" filter="url(#shadow)"/>
    <text x="40" y="1305" font-size="14" font-weight="bold" fill="#1976d2">KEY TAKEAWAYS</text>
    
    <rect x="50" y="1320" width="340" height="50" rx="5" fill="white" stroke="#1976d2" stroke-width="1"/>
    <text x="220" y="1340" text-anchor="middle" font-size="10" font-weight="bold" fill="#1976d2">THROUGHPUT FOCUS</text>
    <text x="60" y="1358" font-size="9" fill="#424242">Pipelining increases instruction throughput, not individual</text>
    <text x="150" y="1370" font-size="9" fill="#424242">instruction latency. Ideal CPI → 1.</text>
    
    <rect x="410" y="1320" width="350" height="50" rx="5" fill="white" stroke="#388e3c" stroke-width="1"/>
    <text x="585" y="1340" text-anchor="middle" font-size="10" font-weight="bold" fill="#388e3c">IDEAL SPEEDUP = k</text>
    <text x="430" y="1358" font-size="9" fill="#424242">For k-stage pipeline, maximum speedup equals k.</text>
    <text x="480" y="1370" font-size="9" fill="#424242">Real speedup is lower due to hazards.</text>
  </g>
  
  <!-- STEP 13: Real-World Applications -->
  <g class="step" id="step13" data-narration="Pipelining is used in all modern CPUs from smartphones to supercomputers, forming the foundation of high-performance computing.">
    <rect x="20" y="1390" width="760" height="85" rx="10" fill="url(#purpleGrad)" filter="url(#shadow)"/>
    <text x="40" y="1410" font-size="14" font-weight="bold" fill="#9c27b0">REAL-WORLD APPLICATIONS</text>
    <text x="40" y="1430" font-size="11" fill="#424242">Pipelining is the foundation of all modern processors. Modern CPUs use advanced</text>
    <text x="40" y="1445" font-size="11" fill="#424242">pipelining with 10+ stages, superscalar execution, and out-of-order processing.</text>
    
    <!-- Applications icons -->
    <rect x="420" y="1425" width="60" height="40" rx="5" fill="white" stroke="#9c27b0"/>
    <text x="450" y="1445" text-anchor="middle" font-size="20" fill="#9c27b0">📱</text>
    <text x="450" y="1462" text-anchor="middle" font-size="8" fill="#616161">Mobile</text>
    
    <rect x="500" y="1425" width="60" height="40" rx="5" fill="white" stroke="#1976d2"/>
    <text x="530" y="1445" text-anchor="middle" font-size="20" fill="#1976d2">💻</text>
    <text x="530" y="1462" text-anchor="middle" font-size="8" fill="#616161">Desktop</text>
    
    <rect x="580" y="1425" width="60" height="40" rx="5" fill="white" stroke="#388e3c"/>
    <text x="610" y="1445" text-anchor="middle" font-size="20" fill="#388e3c">🖥️</text>
    <text x="610" y="1462" text-anchor="middle" font-size="8" fill="#616161">Server</text>
    
    <rect x="660" y="1425" width="60" height="40" rx="5" fill="white" stroke="#ff9800"/>
    <text x="690" y="1445" text-anchor="middle" font-size="20" fill="#ff9800">🎮</text>
    <text x="690" y="1462" text-anchor="middle" font-size="8" fill="#616161">GPU</text>
  </g>
  
  <!-- STEP 14: Conclusion -->
  <g class="step" id="step14" data-narration="This concludes our pipelining module. Understanding these concepts is essential for grasping modern processor design and performance optimization.">
    <rect x="20" y="1485" width="760" height="75" rx="10" fill="url(#titleGrad)" filter="url(#shadow)"/>
    <text x="400" y="1515" text-anchor="middle" font-size="16" font-weight="bold" fill="white">🎉 MODULE COMPLETE</text>
    <text x="400" y="1540" text-anchor="middle" font-size="11" fill="#e3f2fd">Master pipelining to understand modern high-performance processors!</text>
  </g>
</svg>