<svg xmlns="http://www.w3.org/2000/svg" viewBox="0 0 800 1100">
  <defs>
    <linearGradient id="titleGradient" x1="0%" y1="0%" x2="100%" y2="0%">
      <stop offset="0%" stop-color="#1565c0"/>
      <stop offset="100%" stop-color="#42a5f5"/>
    </linearGradient>
    <linearGradient id="blueGradient" x1="0%" y1="0%" x2="0%" y2="100%">
      <stop offset="0%" stop-color="#e3f2fd"/>
      <stop offset="100%" stop-color="#bbdefb"/>
    </linearGradient>
    <linearGradient id="greenGradient" x1="0%" y1="0%" x2="0%" y2="100%">
      <stop offset="0%" stop-color="#e8f5e9"/>
      <stop offset="100%" stop-color="#c8e6c9"/>
    </linearGradient>
    <linearGradient id="orangeGradient" x1="0%" y1="0%" x2="0%" y2="100%">
      <stop offset="0%" stop-color="#fff3e0"/>
      <stop offset="100%" stop-color="#ffe0b2"/>
    </linearGradient>
    <linearGradient id="purpleGradient" x1="0%" y1="0%" x2="0%" y2="100%">
      <stop offset="0%" stop-color="#f3e5f5"/>
      <stop offset="100%" stop-color="#e1bee7"/>
    </linearGradient>
    <linearGradient id="redGradient" x1="0%" y1="0%" x2="0%" y2="100%">
      <stop offset="0%" stop-color="#ffebee"/>
      <stop offset="100%" stop-color="#ffcdd2"/>
    </linearGradient>
    <filter id="shadow" x="-10%" y="-10%" width="120%" height="120%">
      <feDropShadow dx="2" dy="2" stdDeviation="3" flood-opacity="0.2"/>
    </filter>
    <marker id="arrowBlue" markerWidth="10" markerHeight="10" refX="9" refY="3" orient="auto">
      <path d="M0,0 L0,6 L9,3 z" fill="#1976d2"/>
    </marker>
    <marker id="arrowGreen" markerWidth="10" markerHeight="10" refX="9" refY="3" orient="auto">
      <path d="M0,0 L0,6 L9,3 z" fill="#388e3c"/>
    </marker>
  </defs>
  
  <style>
    @keyframes fadeInSlide {
      from { opacity: 0; transform: translateY(20px); }
      to { opacity: 1; transform: translateY(0); }
    }
    @keyframes scaleIn {
      from { opacity: 0; transform: scale(0.85); }
      to { opacity: 1; transform: scale(1); }
    }
    @keyframes textReveal {
      from { opacity: 0; transform: translateX(-10px); }
      to { opacity: 1; transform: translateX(0); }
    }
    @keyframes drawLine {
      from { stroke-dashoffset: 500; }
      to { stroke-dashoffset: 0; }
    }
    @keyframes pulse {
      0%, 100% { transform: scale(1); }
      50% { transform: scale(1.02); }
    }
    @keyframes growHeight {
      from { transform: scaleY(0); }
      to { transform: scaleY(1); }
    }
    .step { animation: fadeInSlide 0.6s ease-out; }
    .step rect {
      animation: scaleIn 0.5s cubic-bezier(0.34, 1.56, 0.64, 1);
      transform-origin: center;
    }
    .step text { animation: textReveal 0.4s ease-out 0.2s backwards; }
    .draw-anim { stroke-dasharray: 500; stroke-dashoffset: 500; animation: drawLine 1.5s ease-out forwards; }
    .pulse-anim { animation: pulse 2s ease-in-out infinite; }
  </style>
  
  <rect width="800" height="1100" fill="#f8f9fa"/>
  
  <!-- Title -->
  <g class="step" id="step0" data-narration="Welcome! We explore the fundamental trade-off between memory speed, size, and cost that shapes modern computer architecture.">
    <rect x="10" y="10" width="780" height="40" rx="8" fill="url(#titleGradient)" filter="url(#shadow)"/>
    <text x="400" y="36" text-anchor="middle" font-size="18" font-weight="bold" fill="white">Speed, Size and Cost of Memory Systems</text>
  </g>
  
  <!-- Step 1: Introduction - The Problem -->
  <g class="step" id="step1" data-narration="Computers need memory that is fast, large, and cheap. No single technology achieves all three, creating a fundamental design challenge.">
    <rect x="20" y="60" width="760" height="85" rx="8" fill="url(#blueGradient)" filter="url(#shadow)"/>
    <text x="40" y="85" font-size="13" font-weight="bold" fill="#1565c0">The Core Problem</text>
    <text x="40" y="105" font-size="10" fill="#424242">A computer system requires memory that is simultaneously:</text>
    <g transform="translate(50, 118)">
      <circle cx="5" cy="0" r="4" fill="#1976d2"/>
      <text x="15" y="3" font-size="9" fill="#424242">Fast (to keep up with processor)</text>
    </g>
    <g transform="translate(280, 118)">
      <circle cx="5" cy="0" r="4" fill="#388e3c"/>
      <text x="15" y="3" font-size="9" fill="#424242">Large (to hold programs and data)</text>
    </g>
    <g transform="translate(530, 118)">
      <circle cx="5" cy="0" r="4" fill="#ff9800"/>
      <text x="15" y="3" font-size="9" fill="#424242">Inexpensive (cost-effective)</text>
    </g>
    <text x="700" y="130" font-size="10" font-weight="bold" fill="#f44336">Impossible!</text>
  </g>
  
  <!-- Step 2: Speed-Size-Cost Trade-off Table -->
  <g class="step" id="step2" data-narration="This table shows how memory technologies trade speed for size and cost. Faster memory costs more per bit and comes in smaller capacities.">
    <rect x="20" y="155" width="760" height="90" rx="8" fill="url(#orangeGradient)" filter="url(#shadow)"/>
    <text x="40" y="180" font-size="13" font-weight="bold" fill="#e65100">Speed – Size – Cost Trade-off</text>
    
    <!-- Table header -->
    <rect x="40" y="195" width="160" height="18" rx="3" fill="#ffcc80"/>
    <text x="120" y="208" text-anchor="middle" font-size="9" font-weight="bold" fill="#e65100">SRAM (Fast)</text>
    <rect x="210" y="195" width="160" height="18" rx="3" fill="#ffe0b2"/>
    <text x="290" y="208" text-anchor="middle" font-size="9" font-weight="bold" fill="#e65100">DRAM (Medium)</text>
    <rect x="380" y="195" width="180" height="18" rx="3" fill="#d7ccc8"/>
    <text x="470" y="208" text-anchor="middle" font-size="9" font-weight="bold" fill="#5d4037">Storage (Slow)</text>
    
    <!-- Row 1: Speed -->
    <text x="45" y="225" font-size="8" fill="#5d4037">Access Time:</text>
    <text x="120" y="225" font-size="8" font-weight="bold" fill="#1976d2">1-10 ns</text>
    <text x="290" y="225" font-size="8" font-weight="bold" fill="#f57c00">50-100 ns</text>
    <text x="500" y="225" font-size="8" font-weight="bold" fill="#5d4037">μs to ms</text>
    
    <!-- Row 2: Size -->
    <text x="45" y="238" font-size="8" fill="#5d4037">Capacity:</text>
    <text x="120" y="238" font-size="8" font-weight="bold" fill="#1976d2">KB - few MB</text>
    <text x="290" y="238" font-size="8" font-weight="bold" fill="#f57c00">GB</text>
    <text x="500" y="238" font-size="8" font-weight="bold" fill="#5d4037">TB</text>
    
    <!-- Row 3: Cost -->
    <text x="45" y="251" font-size="8" fill="#5d4037">Cost/Bit:</text>
    <text x="120" y="251" font-size="8" font-weight="bold" fill="#f44336">Highest</text>
    <text x="290" y="251" font-size="8" font-weight="bold" fill="#ff9800">Medium</text>
    <text x="500" y="251" font-size="8" font-weight="bold" fill="#388e3c">Lowest</text>
  </g>
  
  <!-- Step 3: SRAM vs DRAM Comparison -->
  <g class="step" id="step3" data-narration="SRAM uses flip-flops (6 transistors per bit) with no refresh needed, while DRAM uses 1 transistor + 1 capacitor requiring periodic refresh.">
    <rect x="20" y="255" width="360" height="90" rx="8" fill="url(#greenGradient)" filter="url(#shadow)"/>
    <text x="40" y="280" font-size="13" font-weight="bold" fill="#2e7d32">SRAM (Static RAM)</text>
    <text x="40" y="300" font-size="9" fill="#424242">• Uses flip-flops: 6 transistors/bit</text>
    <text x="40" y="315" font-size="9" fill="#424242">• No refresh needed</text>
    <text x="40" y="330" font-size="9" fill="#424242">• Access time: 1-10 ns</text>
    <text x="40" y="345" font-size="9" fill="#424242">• Used for: Cache (L1, L2, L3)</text>
    <rect x="320" y="275" width="40" height="10" rx="2" fill="#4caf50" opacity="0.3">
      <animate attributeName="opacity" values="0.3;0.8;0.3" dur="2s" repeatCount="indefinite"/>
    </rect>
    
    <rect x="390" y="255" width="390" height="90" rx="8" fill="url(#purpleGradient)" filter="url(#shadow)"/>
    <text x="410" y="280" font-size="13" font-weight="bold" fill="#7b1fa2">DRAM (Dynamic RAM)</text>
    <text x="410" y="300" font-size="9" fill="#424242">• Uses: 1 transistor + 1 capacitor/bit</text>
    <text x="410" y="315" font-size="9" fill="#424242">• Requires periodic refresh</text>
    <text x="410" y="330" font-size="9" fill="#424242">• Access time: 50-100 ns</text>
    <text x="410" y="345" font-size="9" fill="#424242">• Used for: Main Memory (RAM)</text>
    <rect x="680" y="275" width="40" height="10" rx="2" fill="#9c27b0" opacity="0.3">
      <animate attributeName="opacity" values="0.3;0.8;0.3" dur="2s" repeatCount="indefinite" begin="1s"/>
    </rect>
  </g>
  
  <!-- Step 4: Memory Hierarchy Visual -->
  <g class="step" id="step4" data-narration="The memory hierarchy arranges memory levels from fastest/smallest (registers) to slowest/largest (secondary storage) to optimize performance.">
    <rect x="20" y="355" width="760" height="100" rx="8" fill="url(#redGradient)" filter="url(#shadow)"/>
    <text x="40" y="380" font-size="13" font-weight="bold" fill="#c62828">Memory Hierarchy</text>
    
    <!-- Pyramid representation -->
    <g transform="translate(50, 395)">
      <!-- Level 1: Registers -->
      <rect x="300" y="0" width="80" height="16" rx="3" fill="#1565c0"/>
      <text x="340" y="12" text-anchor="middle" font-size="7" fill="white">Registers</text>
      
      <!-- Level 2: Cache -->
      <rect x="260" y="20" width="160" height="16" rx="3" fill="#42a5f5"/>
      <text x="340" y="32" text-anchor="middle" font-size="7" fill="white">L1/L2/L3 Cache (SRAM)</text>
      
      <!-- Level 3: Main Memory -->
      <rect x="180" y="40" width="320" height="18" rx="3" fill="#ff9800"/>
      <text x="340" y="54" text-anchor="middle" font-size="8" fill="white">Main Memory (DRAM)</text>
      
      <!-- Level 4: Secondary Storage -->
      <rect x="80" y="62" width="520" height="20" rx="3" fill="#4caf50"/>
      <text x="340" y="77" text-anchor="middle" font-size="9" fill="white">Secondary Storage (SSD/HDD)</text>
      
      <!-- Arrow -->
      <path d="M340,88 L340,98" stroke="#424242" stroke-width="2" marker-end="url(#arrowGreen)" class="draw-anim"/>
    </g>
    
    <!-- Speed indicator -->
    <text x="600" y="410" font-size="9" font-weight="bold" fill="#1565c0">Fast ← Speed → Slow</text>
    <rect x="600" y="420" width="150" height="8" rx="2" fill="linear-gradient(to right, #1565c0, #ff9800, #4caf50)"/>
    <text x="600" y="445" font-size="9" font-weight="bold" fill="#4caf50">Small ← Size → Large</text>
    <rect x="600" y="455" width="150" height="8" rx="2" fill="linear-gradient(to right, #1565c0, #ff9800, #4caf50)"/>
  </g>
  
  <!-- Step 5: Memory Hierarchy Table -->
  <g class="step" id="step5" data-narration="Each hierarchy level has distinct characteristics: registers are under 1ns, cache is 1-20ns, DRAM is 50-100ns, and storage is microseconds to milliseconds.">
    <rect x="20" y="465" width="760" height="110" rx="8" fill="url(#blueGradient)" filter="url(#shadow)"/>
    <text x="40" y="490" font-size="13" font-weight="bold" fill="#1565c0">Detailed Memory Hierarchy</text>
    
    <!-- Table -->
    <rect x="40" y="505" width="100" height="14" rx="2" fill="#90caf9"/>
    <text x="90" y="515" text-anchor="middle" font-size="7" font-weight="bold" fill="#1565c0">Level</text>
    <rect x="150" y="505" width="120" height="14" rx="2" fill="#90caf9"/>
    <text x="210" y="515" text-anchor="middle" font-size="7" font-weight="bold" fill="#1565c0">Technology</text>
    <rect x="280" y="505" width="120" height="14" rx="2" fill="#90caf9"/>
    <text x="340" y="515" text-anchor="middle" font-size="7" font-weight="bold" fill="#1565c0">Access Time</text>
    <rect x="410" y="505" width="140" height="14" rx="2" fill="#90caf9"/>
    <text x="480" y="515" text-anchor="middle" font-size="7" font-weight="bold" fill="#1565c0">Typical Size</text>
    <rect x="560" y="505" width="100" height="14" rx="2" fill="#90caf9"/>
    <text x="610" y="515" text-anchor="middle" font-size="7" font-weight="bold" fill="#1565c0">Cost/Bit</text>
    
    <!-- Row 1 -->
    <rect x="40" y="522" width="100" height="12" rx="2" fill="#e3f2fd"/>
    <text x="90" y="531" text-anchor="middle" font-size="7" fill="#424242">Registers</text>
    <rect x="150" y="522" width="120" height="12" rx="2" fill="#e3f2fd"/>
    <text x="210" y="531" text-anchor="middle" font-size="7" fill="#424242">Flip-flops</text>
    <rect x="280" y="522" width="120" height="12" rx="2" fill="#e3f2fd"/>
    <text x="340" y="531" text-anchor="middle" font-size="7" fill="#424242">&lt; 1 ns</text>
    <rect x="410" y="522" width="140" height="12" rx="2" fill="#e3f2fd"/>
    <text x="480" y="531" text-anchor="middle" font-size="7" fill="#424242">&lt; 1 KB</text>
    <rect x="560" y="522" width="100" height="12" rx="2" fill="#ffcdd2"/>
    <text x="610" y="531" text-anchor="middle" font-size="7" fill="#f44336">Highest</text>
    
    <!-- Row 2 -->
    <rect x="40" y="537" width="100" height="12" rx="2" fill="#e3f2fd"/>
    <text x="90" y="546" text-anchor="middle" font-size="7" fill="#424242">L1 Cache</text>
    <rect x="150" y="537" width="120" height="12" rx="2" fill="#e3f2fd"/>
    <text x="210" y="546" text-anchor="middle" font-size="7" fill="#424242">SRAM</text>
    <rect x="280" y="537" width="120" height="12" rx="2" fill="#e3f2fd"/>
    <text x="340" y="546" text-anchor="middle" font-size="7" fill="#424242">1-2 ns</text>
    <rect x="410" y="537" width="140" height="12" rx="2" fill="#e3f2fd"/>
    <text x="480" y="546" text-anchor="middle" font-size="7" fill="#424242">32-64 KB</text>
    <rect x="560" y="537" width="100" height="12" rx="2" fill="#ffcdd2"/>
    <text x="610" y="546" text-anchor="middle" font-size="7" fill="#e57373">Very High</text>
    
    <!-- Row 3 -->
    <rect x="40" y="552" width="100" height="12" rx="2" fill="#e3f2fd"/>
    <text x="90" y="561" text-anchor="middle" font-size="7" fill="#424242">Main Memory</text>
    <rect x="150" y="552" width="120" height="12" rx="2" fill="#e3f2fd"/>
    <text x="210" y="561" text-anchor="middle" font-size="7" fill="#424242">DRAM</text>
    <rect x="280" y="552" width="120" height="12" rx="2" fill="#e3f2fd"/>
    <text x="340" y="561" text-anchor="middle" font-size="7" fill="#424242">50-100 ns</text>
    <rect x="410" y="552" width="140" height="12" rx="2" fill="#e3f2fd"/>
    <text x="480" y="561" text-anchor="middle" font-size="7" fill="#424242">4-64 GB</text>
    <rect x="560" y="552" width="100" height="12" rx="2" fill="#ffe0b2"/>
    <text x="610" y="561" text-anchor="middle" font-size="7" fill="#f57c00">Medium</text>
  </g>
  
  <!-- Step 6: Principle of Locality -->
  <g class="step" id="step6" data-narration="Programs exhibit locality: recently accessed data is likely accessed again (temporal), and nearby data will be accessed soon (spatial).">
    <rect x="20" y="585" width="760" height="90" rx="8" fill="url(#orangeGradient)" filter="url(#shadow)"/>
    <text x="40" y="610" font-size="13" font-weight="bold" fill="#e65100">Principle of Locality</text>
    <text x="40" y="630" font-size="10" fill="#424242">The memory hierarchy works because programs exhibit:</text>
    
    <!-- Temporal Locality -->
    <rect x="50" y="645" width="330" height="25" rx="5" fill="#fff8e1"/>
    <rect x="55" y="650" width="30" height="15" rx="3" fill="#ffb300"/>
    <text x="95" y="662" font-size="10" font-weight="bold" fill="#f57c00">Temporal Locality</text>
    <text x="95" y="675" font-size="8" fill="#424242">Recently accessed items likely accessed again</text>
    <text x="300" y="662" font-size="8" fill="#424242">Example: loop variables</text>
    
    <!-- Spatial Locality -->
    <rect x="400" y="645" width="330" height="25" rx="5" fill="#e8f5e9"/>
    <rect x="405" y="650" width="30" height="15" rx="3" fill="#4caf50"/>
    <text x="445" y="662" font-size="10" font-weight="bold" fill="#2e7d32">Spatial Locality</text>
    <text x="445" y="675" font-size="8" fill="#424242">Nearby locations likely accessed soon</text>
    <text x="620" y="662" font-size="8" fill="#424242">Example: array traversal</text>
  </g>
  
  <!-- Step 7: Cache Hit/Miss -->
  <g class="step" id="step7" data-narration="Cache memory stores frequently accessed data. A hit means data found in cache (fast); a miss requires fetching from slower main memory.">
    <rect x="20" y="685" width="760" height="90" rx="8" fill="url(#purpleGradient)" filter="url(#shadow)"/>
    <text x="40" y="710" font-size="13" font-weight="bold" fill="#7b1fa2">Cache Memory: Hit vs Miss</text>
    
    <!-- Hit -->
    <rect x="50" y="725" width="240" height="45" rx="8" fill="#c8e6c9"/>
    <text x="170" y="745" text-anchor="middle" font-size="12" font-weight="bold" fill="#2e7d32">Cache Hit</text>
    <text x="170" y="762" text-anchor="middle" font-size="9" fill="#424242">Data found in cache</text>
    <text x="170" y="776" text-anchor="middle" font-size="8" fill="#388e3c">→ Fast access!</text>
    
    <!-- Arrow -->
    <path d="M310,747 L360,747" stroke="#7b1fa2" stroke-width="2" marker-end="url(#arrowBlue)" class="draw-anim"/>
    
    <!-- Miss -->
    <rect x="380" y="725" width="240" height="45" rx="8" fill="#ffcdd2"/>
    <text x="500" y="745" text-anchor="middle" font-size="12" font-weight="bold" fill="#c62828">Cache Miss</text>
    <text x="500" y="762" text-anchor="middle" font-size="9" fill="#424242">Not in cache - fetch from RAM</text>
    <text x="500" y="776" text-anchor="middle" font-size="8" fill="#f44336">→ Slower access</text>
    
    <!-- Hit Rate Box -->
    <rect x="650" y="725" width="110" height="45" rx="8" fill="#e3f2fd"/>
    <text x="705" y="745" text-anchor="middle" font-size="10" font-weight="bold" fill="#1565c0">Hit Rate (h)</text>
    <text x="705" y="762" text-anchor="middle" font-size="12" fill="#1976d2">90-98%</text>
    <text x="705" y="776" text-anchor="middle" font-size="7" fill="#424242">typical</text>
  </g>
  
  <!-- Step 8: AMAT Formula -->
  <g class="step" id="step8" data-narration="Average Memory Access Time (AMAT) combines cache and memory access times weighted by hit rate to measure effective memory speed.">
    <rect x="20" y="785" width="760" height="95" rx="8" fill="url(#blueGradient)" filter="url(#shadow)"/>
    <text x="40" y="810" font-size="13" font-weight="bold" fill="#1565c0">Average Memory Access Time (AMAT)</text>
    
    <!-- Formula -->
    <text x="60" y="840" font-size="14" fill="#1565c0" font-weight="bold">AMAT = h × T</text>
    <text x="95" y="840" font-size="10" fill="#424242" font-style="italic">cache</text>
    <text x="125" y="840" font-size="14" fill="#1565c0" font-weight="bold">+ (1-h) × T</text>
    <text x="190" y="840" font-size="10" fill="#424242" font-style="italic">memory</text>
    
    <!-- Example -->
    <rect x="50" y="855" width="300" height="20" rx="4" fill="#e8f5e9"/>
    <text x="200" y="870" text-anchor="middle" font-size="10" fill="#2e7d32">Example: h=95%, T</text>
    <text x="245" y="870" font-size="8" fill="#424242" font-style="italic">cache</text>
    <text x="275" y="870" text-anchor="middle" font-size="10" fill="#2e7d32">=5ns, T</text>
    <text x="300" y="870" font-size="8" fill="#424242" font-style="italic">memory</text>
    <text x="330" y="870" text-anchor="middle" font-size="10" fill="#2e7d32">=60ns</text>
    
    <!-- Calculation -->
    <text x="400" y="840" font-size="11" fill="#424242">AMAT = 0.95×5 + 0.05×60</text>
    <text x="400" y="858" font-size="12" font-weight="bold" fill="#1565c0">= 4.75 + 3.0 = 7.75 ns</text>
    
    <!-- Interpretation -->
    <rect x="600" y="825" width="160" height="50" rx="6" fill="#fff8e1"/>
    <text x="680" y="845" text-anchor="middle" font-size="10" font-weight="bold" fill="#f57c00">Result</text>
    <text x="680" y="862" text-anchor="middle" font-size="11" fill="#424242">Much closer to</text>
    <text x="680" y="878" text-anchor="middle" font-size="11" font-weight="bold" fill="#1565c0">cache speed!</text>
  </g>
  
  <!-- Step 9: Cost Calculation -->
  <g class="step" id="step9" data-narration="The average cost per bit of a hierarchical system is dominated by cheap large memory, while performance is dominated by fast cache memory.">
    <rect x="20" y="890" width="760" height="90" rx="8" fill="url(#greenGradient)" filter="url(#shadow)"/>
    <text x="40" y="915" font-size="13" font-weight="bold" fill="#2e7d32">Cost of Hierarchical Memory</text>
    
    <!-- Formula -->
    <text x="60" y="945" font-size="12" fill="#2e7d32" font-weight="bold">Average Cost =</text>
    <text x="160" y="945" font-size="12" fill="#424242">(C</text>
    <text x="168" y="945" font-size="8" fill="#424242" baseline-shift="sub">1</text>
    <text x="175" y="945" font-size="12" fill="#424242">×S</text>
    <text x="183" y="945" font-size="8" fill="#424242" baseline-shift="sub">1</text>
    <text x="190" y="945" font-size="12" fill="#424242">+ C</text>
    <text x="200" y="945" font-size="8" fill="#424242" baseline-shift="sub">2</text>
    <text x="205" y="945" font-size="12" fill="#424242">×S</text>
    <text x="213" y="945" font-size="8" fill="#424242" baseline-shift="sub">2</text>
    <text x="220" y="945" font-size="12" fill="#424242">) / (S</text>
    <text x="235" y="945" font-size="8" fill="#424242" baseline-shift="sub">1</text>
    <text x="240" y="945" font-size="12" fill="#424242">+ S</text>
    <text x="252" y="945" font-size="8" fill="#424242" baseline-shift="sub">2</text>
    <text x="258" y="945" font-size="12" fill="#424242">)</text>
    
    <!-- Visual -->
    <rect x="400" y="925" width="170" height="50" rx="6" fill="#e8f5e9"/>
    <text x="485" y="945" text-anchor="middle" font-size="9" fill="#424242">Since S</text>
    <text x="495" y="945" font-size="6" fill="#424242" baseline-shift="sub">2</text>
    <text x="498" y="945" text-anchor="middle" font-size="9" fill="#424242">>> S</text>
    <text x="510" y="945" font-size="6" fill="#424242" baseline-shift="sub">1</text>
    <text x="485" y="960" text-anchor="middle" font-size="9" font-weight="bold" fill="#2e7d32">Cost ≈ C</text>
    <text x="505" y="960" font-size="6" fill="#2e7d32" baseline-shift="sub">2</text>
    <text x="485" y="975" text-anchor="middle" font-size="9" font-weight="bold" fill="#1565c0">Performance ≈ Cache</text>
    
    <!-- Best of both worlds -->
    <rect x="600" y="925" width="165" height="50" rx="6" fill="#e3f2fd"/>
    <text x="682" y="948" text-anchor="middle" font-size="11" font-weight="bold" fill="#1565c0">Best of Both Worlds!</text>
    <text x="682" y="965" text-anchor="middle" font-size="9" fill="#424242">Fast like cache</text>
    <text x="682" y="978" text-anchor="middle" font-size="9" fill="#424242">Cheap like DRAM</text>
  </g>
  
  <!-- Step 10: Key Points Summary -->
  <g class="step" id="step10" data-narration="In summary: faster memory costs more per bit and is smaller; SRAM is for cache, DRAM for main memory; hierarchy with locality achieves 90-98% hit rates.">
    <rect x="20" y="990" width="760" height="90" rx="8" fill="url(#titleGradient)" filter="url(#shadow)"/>
    <text x="400" y="1015" text-anchor="middle" font-size="14" font-weight="bold" fill="white">Key Takeaways</text>
    
    <!-- Points -->
    <g transform="translate(40, 1035)">
      <circle cx="8" cy="0" r="6" fill="white" opacity="0.8"/>
      <text x="20" y="3" font-size="9" fill="white">Speed, size, cost are inversely related</text>
    </g>
    <g transform="translate(280, 1035)">
      <circle cx="8" cy="0" r="6" fill="white" opacity="0.8"/>
      <text x="20" y="3" font-size="9" fill="white">SRAM for cache, DRAM for main memory</text>
    </g>
    <g transform="translate(520, 1035)">
      <circle cx="8" cy="0" r="6" fill="white" opacity="0.8"/>
      <text x="20" y="3" font-size="9" fill="white">Hierarchy achieves fast + cheap</text>
    </g>
    
    <g transform="translate(120, 1055)">
      <circle cx="8" cy="0" r="6" fill="white" opacity="0.8"/>
      <text x="20" y="3" font-size="9" fill="white">Locality ensures 90-98% hit rate</text>
    </g>
    <g transform="translate(380, 1055)">
      <circle cx="8" cy="0" r="6" fill="white" opacity="0.8"/>
      <text x="20" y="3" font-size="9" fill="white">AMAT measures effective memory speed</text>
    </g>
  </g>
</svg>