<svg width="420" height="400" data-topic-id="principles-that-guide-practice-software-engineering">
  <title>Principles That Guide Practice Software Engineering</title>
  <rect x="10" y="10" width="400" height="100" fill="#66CCCC" rx="10" />
  <text x="20" y="130" font-size="24" font-family="Arial" fill="#FFFFFF" text-anchor="middle">Introduction</text>
  <rect x="20" y="150" width="360" height="100" fill="#C9E4CA" rx="10" />
  <text x="20" y="180" font-size="18" font-family="Arial" fill="#000000" text-anchor="start">Definition of Software Engineering Knowledge</text>
  <rect x="20" y="210" width="340" height="70" fill="#E6F7FF" rx="10" />
  <text x="20" y="230" font-size="18" font-family="Arial" fill="#000000" text-anchor="start">Software Engineering Knowledge refers to the collective body of knowledge, experience, and expertise that software engineers acquire through their education, training, and professional practice.</text>
  <rect x="20" y="280" width="340" height="70" fill="#E6F7FF" rx="10" />
  <text x="20" y="300" font-size="18" font-family="Arial" fill="#000000" text-anchor="start">
    <animate begin="0s" duration="2s" repeatCount="indefinite">
      <animateTransform transform="rotate(360deg)" begin="0s" duration="0s" repeatCount="indefinite" />
    </animate>
  </text>
  <rect x="20" y="320" width="340" height="70" fill="#E6F7FF" rx="10" />
  <text x="20" y="340" font-size="18" font-family="Arial" fill="#000000" text-anchor="start">
    <animate begin="0.5s" duration="1.5s" repeatCount="indefinite">
      <animateTransform transform="rotate(360deg)" begin="0.5s" duration="0s" repeatCount="indefinite" />
    </animate>
  </text>
  <rect x="20" y="360" width="340" height="70" fill="#E6F7FF" rx="10" />
  <text x="20" y="380" font-size="18" font-family="Arial" fill="#000000" text-anchor="start">
    <animate begin="1s" duration="2s" repeatCount="indefinite">
      <animateTransform transform="rotate(360deg)" begin="1s" duration="0s" repeatCount="indefinite" />
    </animate>
  </text>
  <rect x="20" y="390" width="340" height="70" fill="#E6F7FF" rx="10" />
  <text x="20" y="410" font-size="18" font-family="Arial" fill="#000000" text-anchor="start">
    <animate begin="1.5s" duration="2s" repeatCount="indefinite">
      <animateTransform transform="rotate(360deg)" begin="1.5s" duration="0s" repeatCount="indefinite" />
    </animate>
  </text>
  <rect x="20" y="420" width="340" height="100" fill="#C9E4CA" rx="10" />
  <rect x="20" y="530" width="400" height="100" fill="#66CCCC" rx="10" />
  <rect x="20" y="640" width="340" height="70" fill="#E6F7FF" rx="10" />
  <text x="20" y="660" font-size="18" font-family="Arial" fill="#000000" text-anchor="start">
    <animate begin="0s" duration="0s" repeatCount="indefinite">
      <animateTransform transform="rotate(360deg)" begin="0s" duration="0s" repeatCount="indefinite" />
    </animate>
  </text>
  <rect x="20" y="680" width="340" height="70" fill="#E6F7FF" rx="10" />
  <text x="20" y="700" font-size="18" font-family="Arial" fill="#000000" text-anchor="start">
    <animate begin="1s" duration="0s" repeatCount="indefinite">
      <animateTransform transform="rotate(360deg)" begin="1s" duration="0s" repeatCount="indefinite" />
    </animate>
  </text>
  <rect x="20" y="720" width="340" height="70" fill="#E6F7FF" rx="10" />
  <text x="20" y="740" font-size="18" font-family="Arial" fill="#000000" text-anchor="start">
    <animate begin="2s" duration="0s" repeatCount="indefinite">
      <animateTransform transform="rotate(360deg)" begin="2s" duration="0s" repeatCount="indefinite" />
    </animate>
  </text>
  <rect x="20" y="760" width="340" height="70" fill="#E6F7FF" rx="10" />
  <text x="20" y="780" font-size="18" font-family="Arial" fill="#000000" text-anchor="start">
    <animate begin="3s" duration="0s" repeatCount="indefinite">
      <animateTransform transform="rotate(360deg)" begin="3s" duration="0s" repeatCount="indefinite" />
    </animate>
  </text>
  <rect x="20" y="790" width="340" height="100" fill="#C9E4CA" rx="10" />
  <rect x="20" y="890" width="400" height="100" fill="#66CCCC" rx="10" />
  <rect x="20" y="990" width="340" height="70" fill="#E6F7FF" rx="10" />
  <text x="20" y="1010" font-size="18" font-family="Arial" fill="#000000" text-anchor="start">
    <animate begin="0s" duration="0s" repeatCount="indefinite">
      <animateTransform transform="rotate(360deg)" begin="0s" duration="0s" repeatCount="indefinite" />
    </animate>
  </text>
  <rect x="20" y="1030" width="340" height="70" fill="#E6F7FF" rx="10" />
  <text x="20" y="1050" font-size="18" font-family="Arial" fill="#000000" text-anchor="start">
    <animate begin="1s" duration="0s" repeatCount="indefinite">
      <animateTransform transform="rotate(360deg)" begin="1s" duration="0s" repeatCount="indefinite" />
    </animate>
  </text>
  <rect x="20" y="1060" width="340" height="70" fill="#E6F7FF" rx="10" />
  <text x="20" y="1080" font-size="18" font-family="Arial" fill="#000000" text-anchor="start">
    <animate begin="2s" duration="0s" repeatCount="indefinite">
      <animateTransform transform="rotate(360deg)" begin="2s" duration="0s" repeatCount="indefinite" />
    </animate>
  </text>
  <rect x="20" y="1090" width="340" height="70" fill="#E6F7FF" rx="10" />
  <text x="20" y="1110" font-size="18" font-family="Arial" fill="#000000" text-anchor="start">
    <animate begin="3s" duration="0s" repeatCount="indefinite">
      <animateTransform transform="rotate(360deg)" begin="3s" duration="0s" repeatCount="indefinite" />
    </animate>
  </text>
  <rect x="20" y="1120" width="340" height="100" fill="#C9E4CA" rx="10" />
  <rect x="20" y="1220" width="400" height="100" fill="#66CCCC" rx="10" />
  <rect x="20" y="1320" width="340" height="70" fill="#E6F7FF" rx="10" />
  <text x="20" y="1340" font-size="18" font-family="Arial" fill="#000000" text-anchor="start">
    <animate begin="0s" duration="0s" repeatCount="indefinite">
      <animateTransform transform="rotate(360deg)" begin="0s" duration="0s" repeatCount="indefinite" />
    </animate>
  </text>
  <rect x="20" y="1360" width="340" height="70" fill="#E6F7FF" rx="10" />
  <text x="20" y="1380" font-size="18" font-family="Arial" fill="#000000" text-anchor="start">
    <animate begin="1s" duration="0s" repeatCount="indefinite">
      <animateTransform transform="rotate(360deg)" begin="1s" duration="0s" repeatCount="indefinite" />
    </animate>
  </text>
  <rect x="20" y="1390" width="340" height="70" fill="#E6F7FF" rx="10" />
  <text x="20" y="1410" font-size="18" font-family="Arial" fill="#000000" text-anchor="start">
    <animate begin="2s" duration="0s" repeatCount="indefinite">
      <animateTransform transform="rotate(360deg)" begin="2s" duration="0s" repeatCount="indefinite" />
    </animate>
  </text>
  <rect x="20" y="1420" width="340" height="70" fill="#E6F7FF" rx="10" />
  <text x="20" y="1440" font-size="18" font-family="Arial" fill="#000000" text-anchor="start">
    <animate begin="3s" duration="0s" repeatCount="indefinite">
      <animateTransform transform="rotate(360deg)" begin="3s" duration="0s" repeatCount="indefinite" />
    </animate>
  </text>
  <rect x="20" y="1450" width="340" height="100" fill="#C9E4CA" rx="10" />
  <rect x="20" y="1550" width="400" height="100" fill="#66CCCC" rx="10" />
  <rect x="20" y="1650" width="340" height="70" fill="#E6F7FF" rx="10" />
  <text x="20" y="1670" font-size="18" font-family="Arial" fill="#000000" text-anchor="start">
    <animate begin="0s" duration="0s" repeatCount="indefinite">
      <animateTransform transform="rotate(360deg)" begin="0s" duration="0s" repeatCount="indefinite" />
    </animate>
  </text>
  <rect x="20" y="1690" width="340" height="70" fill="#E6F7FF" rx="10" />
  <text x="20" y="1710" font-size="18" font-family="Arial" fill="#000000" text-anchor="start">
    <animate begin="1s" duration="0s" repeatCount="indefinite">
      <animateTransform transform="rotate(360deg)" begin="1s" duration="0s" repeatCount="indefinite" />
    </animate>
  </text>
  <rect x="20" y="1720" width="340" height="70" fill="#E6F7FF" rx="10" />
  <text x="20" y="1740" font-size="18" font-family="Arial" fill="#000000" text-anchor="start">
    <animate begin="2s" duration="0s" repeatCount="indefinite">
      <animateTransform transform="rotate(360deg)" begin="2s" duration="0s" repeatCount="indefinite" />
    </animate>
  </text>
  <rect x="20" y="1750" width="340" height="70" fill="#E6F7FF" rx="10" />
  <text x="20" y="1770" font-size="18" font-family="Arial" fill="#000000" text-anchor="start">
    <animate begin="3s" duration="0s" repeatCount="indefinite">
      <animateTransform transform="rotate(360deg)" begin="3s" duration="0s" repeatCount="indefinite" />
    </animate>
  </text>
  <rect x="20" y="1780" width="340" height="100" fill="#C9E4CA" rx="10" />
  <rect x="20" y="1880" width="400" height="100" fill="#66CCCC" rx="10" />
  <rect x="20" y="1980" width="340" height="70" fill="#E6F7FF" rx="10" />
  <text x="20" y="2000" font-size="18" font-family="Arial" fill="#000000" text-anchor="start">
    <animate begin="0s" duration="0s" repeatCount="indefinite">
      <animateTransform transform="rotate(360deg)" begin="0s" duration="0s" repeatCount="indefinite" />
    </animate>
  </text>
  <rect x="20" y="2020" width="340" height="70" fill="#E6F7FF" rx="10" />
  <text x="20" y="2040" font-size="18" font-family="Arial" fill="#000000" text-anchor="start">
    <animate begin="1s" duration="0s" repeatCount="indefinite">
      <animateTransform transform="rotate(360deg)" begin="1s" duration="0s" repeatCount="indefinite" />
    </animate>
  </text>
  <rect x="20" y="2050" width="340" height="70" fill="#E6F7FF" rx="10" />
  <text x="20" y="2070" font-size="18" font-family="Arial" fill="#000000" text-anchor="start">
    <animate begin="2s" duration="0s" repeatCount="indefinite">
      <animateTransform transform="rotate(360deg)" begin="2s" duration="0s" repeatCount="indefinite" />
    </animate>
  </text>
  <rect x="20" y="2080" width="340" height="70" fill="#E6F7FF" rx="10" />
  <text x="20" y="2100" font-size="18" font-family="Arial" fill="#000000" text-anchor="start">
    <animate begin="3s" duration="0s" repeatCount="indefinite">
      <animateTransform transform="rotate(360deg)" begin="3s" duration="0s" repeatCount="indefinite" />
    </animate>
  </text>
  <rect x="20" y="2110" width="340" height="100" fill="#C9E4CA" rx="10" />
  <rect x="20" y="2210" width="400" height="100" fill="#66CCCC" rx="10" />
  <rect x="20" y="2310" width="340" height="70" fill="#E6F7FF" rx="10" />
  <text x="20" y="2330" font-size="18" font-family="Arial" fill="#000000" text-anchor="start">
    <animate begin="0s" duration="0s" repeatCount="indefinite">
      <animateTransform transform="rotate(360deg)" begin="0s" duration="0s" repeatCount="indefinite" />
    </animate>
  </text>
  <rect x="20" y="2350" width="340" height="70" fill="#E6F7FF" rx="10" />
  <text x="20" y="2370" font-size="18" font-family="Arial" fill="#000000" text-anchor="start">
    <animate begin="1s" duration="0s" repeatCount="indefinite">
      <animateTransform transform="rotate(360deg)" begin="1s" duration="0s" repeatCount="indefinite" />
    </animate>
  </text>
  <rect x="20" y="2380" width="340" height="70" fill="#E6F7FF" rx="10" />
  <text x="20" y="2400" font-size="18" font-family="Arial" fill="#000000" text-anchor="start">
    <animate begin="2s" duration="0s" repeatCount="indefinite">
      <animateTransform transform="rotate(360deg)" begin="2s" duration="0s" repeatCount="indefinite" />
    </animate>
  </text>
  <rect x="20" y="2410" width="340" height="70" fill="#E6F7FF" rx="10" />
  <text x="20" y="2430" font-size="18" font-family="Arial" fill="#000000" text-anchor="start">
    <animate begin="3s" duration="0s" repeatCount="indefinite">
      <animateTransform transform="rotate(360deg)" begin="3s" duration="0s" repeatCount="indefinite" />
    </animate>
  </text>
  <rect x="20" y="2440" width="340" height="100" fill="#C9E4CA" rx="10" />
  <rect x="20" y="2540" width="400" height="100" fill="#66CCCC" rx="10" />
  <rect x="20" y="2640" width="340" height="70" fill="#E6F7FF" rx="10" />
  <text x="20" y="2660" font-size="18" font-family="Arial" fill="#000000" text-anchor="start">
    <animate begin="0s" duration="0s" repeatCount="indefinite">
      <animateTransform transform="rotate(360deg)" begin="0s" duration="0s" repeatCount="indefinite" />
    </animate>
  </text>
  <rect x="20" y="2680" width="340" height="70" fill="#E6F7FF" rx="10" />
  <text x="20" y="2700" font-size="18" font-family="Arial" fill="#000000" text-anchor="start">
    <animate begin="1s" duration="0s" repeatCount="indefinite">
      <animateTransform transform="rotate(360deg)" begin="1s" duration="0s" repeatCount="indefinite" />
    </animate>
  </text>
  <rect x="20" y="2710" width="340" height="70" fill="#E6F7FF" rx="10" />
  <text x="20" y="2730" font-size="18" font-family="Arial" fill="#000000" text-anchor="start">
    <animate begin="2s" duration="0s" repeatCount="indefinite">
      <animateTransform transform="rotate(360deg)" begin="2s" duration="0s" repeatCount="indefinite" />
    </animate>
  </text>
  <rect x="20" y="2740" width="340" height="70" fill="#E6F7FF" rx="10" />
  <text x="20" y="2760" font-size="18" font-family="Arial" fill="#000000" text-anchor="start">
    <animate begin="3s" duration="0s" repeatCount="indefinite">
      <animateTransform transform="rotate(360deg)" begin="3s" duration="0s" repeatCount="indefinite" />
    </animate>
  </text>
  <rect x="20" y="2770" width="340" height="100" fill="#C9E4CA" rx="10" />
  <rect x="20" y="2870" width="400" height="100" fill="#66CCCC" rx="10" />
  <rect x="20" y="2970" width="340" height="70" fill="#E6F7FF" rx="10" />
  <text x="20" y="2990" font-size="18" font-family="Arial" fill="#000000" text-anchor="start">
    <animate begin="0s" duration="0s" repeatCount="indefinite">
      <animateTransform transform="rotate(360deg)" begin="0s" duration="0s" repeatCount="indefinite" />
    </animate>
  </text>
  <rect x="20" y="3010" width="340" height="70" fill="#E6F7FF" rx="10" />
  <text x="20" y="3030" font-size="18" font-family="Arial" fill="#000000" text-anchor="start">
    <animate begin="1s" duration="0s" repeatCount="indefinite">
      <animateTransform transform="rotate(360deg)" begin="1s" duration="0s" repeatCount="indefinite" />
    </animate>
  </text>
  <rect x="20" y="3040" width="340" height="70" fill="#E6F7FF" rx="10" />
  <text x="20" y="3060" font-size="18" font-family="Arial" fill="#000000" text-anchor="start">
    <animate begin="2s" duration="0s" repeatCount="indefinite">
      <animateTransform transform="rotate(360deg)" begin="2s" duration="0s" repeatCount="indefinite" />
    </animate>
  </text>
  <rect x="20" y="3070" width="340" height="70" fill="#E6F7FF" rx="10" />
  <text x="20" y="3090" font-size="18" font-family="Arial" fill="#000000" text-anchor="start">
    <animate begin="3s" duration="0s" repeatCount="indefinite">
      <animateTransform transform="rotate(360deg)" begin="3s" duration="0s" repeatCount="indefinite" />
    </animate>
  </text>
</svg>