<svg xmlns="http://www.w3.org/2000/svg" viewBox="0 0 800 1020">
  <defs>
    <linearGradient id="bgGrad" x1="0%" y1="0%" x2="100%" y2="100%">
      <stop offset="0%" stop-color="#f8f9fa"/>
      <stop offset="100%" stop-color="#e9ecef"/>
    </linearGradient>
    <linearGradient id="blueGrad" x1="0%" y1="0%" x2="0%" y2="100%">
      <stop offset="0%" stop-color="#42a5f5"/>
      <stop offset="100%" stop-color="#1976d2"/>
    </linearGradient>
    <linearGradient id="greenGrad" x1="0%" y1="0%" x2="0%" y2="100%">
      <stop offset="0%" stop-color="#66bb6a"/>
      <stop offset="100%" stop-color="#388e3c"/>
    </linearGradient>
    <linearGradient id="orangeGrad" x1="0%" y1="0%" x2="0%" y2="100%">
      <stop offset="0%" stop-color="#ff9800"/>
      <stop offset="100%" stop-color="#f57c00"/>
    </linearGradient>
    <linearGradient id="purpleGrad" x1="0%" y1="0%" x2="0%" y2="100%">
      <stop offset="0%" stop-color="#ab47bc"/>
      <stop offset="100%" stop-color="#7b1fa2"/>
    </linearGradient>
    <linearGradient id="redGrad" x1="0%" y1="0%" x2="0%" y2="100%">
      <stop offset="0%" stop-color="#ef5350"/>
      <stop offset="100%" stop-color="#c62828"/>
    </linearGradient>
    <linearGradient id="tealGrad" x1="0%" y1="0%" x2="0%" y2="100%">
      <stop offset="0%" stop-color="#26a69a"/>
      <stop offset="100%" stop-color="#00796b"/>
    </linearGradient>
    <linearGradient id="indigoGrad" x1="0%" y1="0%" x2="0%" y2="100%">
      <stop offset="0%" stop-color="#5c6bc0"/>
      <stop offset="100%" stop-color="#303f9f"/>
    </linearGradient>
    <filter id="shadow" x="-20%" y="-20%" width="140%" height="140%">
      <feDropShadow dx="2" dy="3" stdDeviation="3" flood-opacity="0.15"/>
    </filter>
    <marker id="arrowBlue" markerWidth="10" markerHeight="10" refX="9" refY="3" orient="auto">
      <path d="M0,0 L0,6 L9,3 z" fill="#1976d2"/>
    </marker>
    <marker id="arrowGreen" markerWidth="10" markerHeight="10" refX="9" refY="3" orient="auto">
      <path d="M0,0 L0,6 L9,3 z" fill="#388e3c"/>
    </marker>
  </defs>
  
  <style>
    @keyframes fadeInSlide {
      from { opacity: 0; transform: translateY(20px); }
      to { opacity: 1; transform: translateY(0); }
    }
    @keyframes scaleIn {
      from { opacity: 0; transform: scale(0.85); }
      to { opacity: 1; transform: scale(1); }
    }
    @keyframes textReveal {
      from { opacity: 0; transform: translateX(-10px); }
      to { opacity: 1; transform: translateX(0); }
    }
    @keyframes drawLine {
      from { stroke-dashoffset: 500; }
      to { stroke-dashoffset: 0; }
    }
    @keyframes pulse {
      0%, 100% { transform: scale(1); }
      50% { transform: scale(1.03); }
    }
    @keyframes buildUp {
      from { opacity: 0; transform: translateY(10px); }
      to { opacity: 1; transform: translateY(0); }
    }
    .step { animation: fadeInSlide 0.6s ease-out; }
    .step rect {
      animation: scaleIn 0.5s cubic-bezier(0.34, 1.56, 0.64, 1);
      transform-origin: center;
    }
    .step text { animation: textReveal 0.4s ease-out 0.2s backwards; }
    .draw-anim { stroke-dasharray: 500; stroke-dashoffset: 500; animation: drawLine 1.5s ease-out forwards; }
    .build-anim { opacity: 0; animation: buildUp 0.5s ease-out forwards; }
  </style>
  
  <rect x="0" y="0" width="800" height="1020" fill="#f8f9fa"/>
  
  <!-- Step 0: Title -->
  <g class="step" id="step0" data-narration="Welcome to the History of Database Applications. We will explore six decades of evolution from simple file systems to modern cloud databases.">
    <rect x="40" y="10" width="720" height="45" rx="10" fill="url(#blueGrad)" filter="url(#shadow)"/>
    <text x="400" y="42" text-anchor="middle" font-size="20" font-weight="bold" fill="white">History of Database Applications</text>
    <text x="400" y="62" text-anchor="middle" font-size="11" fill="#666">2022 Scheme - CSE Branch</text>
  </g>
  
  <!-- Step 1: Why Evolution Matters -->
  <g class="step" id="step1" data-narration="Understanding database history helps us appreciate why modern DBMS architectures exist and their design rationale for current applications.">
    <rect x="40" y="70" width="720" height="80" rx="8" fill="white" filter="url(#shadow)"/>
    <rect x="40" y="70" width="8" height="80" rx="4" fill="url(#orangeGrad)"/>
    <text x="60" y="92" font-size="13" font-weight="bold" fill="#333">Why This History Matters</text>
    <text x="60" y="112" font-size="10" fill="#555">Database evolution spans over 60 years, driven by the need for better data</text>
    <text x="60" y="126" font-size="10" fill="#555">management, efficiency, and handling increasingly complex business requirements.</text>
    <circle cx="700" cy="110" r="25" fill="#fff3e0">
      <animate attributeName="r" values="25;27;25" dur="2s" repeatCount="indefinite"/>
    </circle>
    <text x="700" y="115" text-anchor="middle" font-size="24" fill="#ff9800">?</text>
  </g>
  
  <!-- Step 2: File Processing Systems Problems -->
  <g class="step" id="step2" data-narration="Early file processing systems suffered from five major problems: data redundancy, program-data dependence, lack of security, no concurrent access, and integrity issues.">
    <rect x="40" y="160" width="720" height="95" rx="8" fill="white" filter="url(#shadow)"/>
    <rect x="40" y="160" width="8" height="95" rx="4" fill="url(#redGrad)"/>
    <text x="60" y="182" font-size="13" font-weight="bold" fill="#333">Era of File Processing Systems (1950s-1960s)</text>
    <text x="60" y="200" font-size="10" fill="#555">Limitations that drove the evolution to DBMS:</text>
    <rect x="60" y="210" width="130" height="18" rx="4" fill="#ffebee"/>
    <text x="65" y="223" font-size="9" fill="#c62828">Data Redundancy</text>
    <rect x="200" y="210" width="140" height="18" rx="4" fill="#ffebee"/>
    <text x="205" y="223" font-size="9" fill="#c62828">Program-Data Dependence</text>
    <rect x="350" y="210" width="110" height="18" rx="4" fill="#ffebee"/>
    <text x="355" y="223" font-size="9" fill="#c62828">Lack of Security</text>
    <rect x="470" y="210" width="130" height="18" rx="4" fill="#ffebee"/>
    <text x="475" y="223" font-size="9" fill="#c62828">No Concurrent Access</text>
    <rect x="610" y="210" width="130" height="18" rx="4" fill="#ffebee"/>
    <text x="615" y="223" font-size="9" fill="#c62828">Integrity Problems</text>
    <rect x="60" y="235" width="680" height="12" rx="3" fill="#f5f5f5"/>
    <text x="70" y="244" font-size="8" fill="#666">Sequential file access • Magnetic tapes • Batch processing</text>
  </g>
  
  <!-- Step 3: Hierarchical Model -->
  <g class="step" id="step3" data-narration="The Hierarchical Model (1966) organized data in tree structures with parent-child relationships, pioneered by IBM's Information Management System.">
    <rect x="40" y="265" width="720" height="100" rx="8" fill="white" filter="url(#shadow)"/>
    <rect x="40" y="265" width="8" height="100" rx="4" fill="url(#greenGrad)"/>
    <text x="60" y="287" font-size="13" font-weight="bold" fill="#333">Hierarchical Database Model (1966)</text>
    <text x="60" y="305" font-size="10" fill="#555">IBM's IMS - Tree structure with one-to-many relationships</text>
    <ellipse cx="200" cy="335" rx="35" ry="15" fill="#e8f5e9" stroke="#388e3c" stroke-width="2"/>
    <text x="200" y="339" text-anchor="middle" font-size="9" fill="#2e7d32">Company</text>
    <line x1="200" y1="350" x2="150" y2="375" stroke="#388e3c" stroke-width="2" class="draw-anim"/>
    <line x1="200" y1="350" x2="250" y2="375" stroke="#388e3c" stroke-width="2"/>
    <ellipse cx="150" cy="385" rx="30" ry="14" fill="#e8f5e9" stroke="#388e3c" stroke-width="1.5"/>
    <text x="150" y="389" text-anchor="middle" font-size="8" fill="#2e7d32">Dept-A</text>
    <ellipse cx="250" cy="385" rx="30" ry="14" fill="#e8f5e9" stroke="#388e3c" stroke-width="1.5"/>
    <text x="250" y="389" text-anchor="middle" font-size="8" fill="#2e7d32">Dept-B</text>
    <line x1="150" y1="399" x2="120" y2="420" stroke="#388e3c" stroke-width="1.5"/>
    <line x1="150" y1="399" x2="180" y2="420" stroke="#388e3c" stroke-width="1.5"/>
    <ellipse cx="120" cy="430" rx="22" ry="12" fill="#c8e6c9" stroke="#388e3c" stroke-width="1"/>
    <text x="120" y="434" text-anchor="middle" font-size="7" fill="#2e7d32">Emp1</text>
    <ellipse cx="180" cy="430" rx="22" ry="12" fill="#c8e6c9" stroke="#388e3c" stroke-width="1"/>
    <text x="180" y="434" text-anchor="middle" font-size="7" fill="#2e7d32">Emp2</text>
    <text x="480" y="310" font-size="10" fill="#555" font-weight="bold">Key Characteristics:</text>
    <text x="480" y="328" font-size="9" fill="#555">• Tree structure with root node</text>
    <text x="480" y="342" font-size="9" fill="#555">• One-to-many relationships</text>
    <text x="480" y="356" font-size="9" fill="#555">• Sequential primary access</text>
  </g>
  
  <!-- Step 4: Network Model -->
  <g class="step" id="step4" data-narration="The Network Model (1969) by CODASYL allowed many-to-many relationships through a graph structure, improving on hierarchical limitations.">
    <rect x="40" y="375" width="720" height="95" rx="8" fill="white" filter="url(#shadow)"/>
    <rect x="40" y="375" width="8" height="95" rx="4" fill="url(#purpleGrad)"/>
    <text x="60" y="397" font-size="13" font-weight="bold" fill="#333">Network Database Model (1969)</text>
    <text x="60" y="415" font-size="10" fill="#555">CODASYL - Graph structure supporting many-to-many relationships</text>
    <ellipse cx="160" cy="440" rx="28" ry="14" fill="#f3e5f5" stroke="#9c27b0" stroke-width="2"/>
    <text x="160" y="444" text-anchor="middle" font-size="8" fill="#7b1fa2">Project-A</text>
    <ellipse cx="280" cy="440" rx="28" ry="14" fill="#f3e5f5" stroke="#9c27b0" stroke-width="2"/>
    <text x="280" y="444" text-anchor="middle" font-size="8" fill="#7b1fa2">Project-B</text>
    <ellipse cx="400" cy="440" rx="28" ry="14" fill="#f3e5f5" stroke="#9c27b0" stroke-width="2"/>
    <text x="400" y="444" text-anchor="middle" font-size="8" fill="#7b1fa2">Employee-1</text>
    <line x1="180" y1="440" x2="260" y2="440" stroke="#9c27b0" stroke-width="1.5" class="draw-anim"/>
    <line x1="330" y1="440" x2="380" y2="440" stroke="#9c27b0" stroke-width="1.5"/>
    <line x1="400" y1="426" x2="400" y2="400" stroke="#9c27b0" stroke-width="1.5" stroke-dasharray="4"/>
    <line x1="400" y1="454" x2="400" y2="475" stroke="#9c27b0" stroke-width="1.5" stroke-dasharray="4"/>
    <ellipse cx="400" cy="390" rx="22" ry="12" fill="#ede7f6" stroke="#9c27b0" stroke-width="1"/>
    <text x="400" y="394" text-anchor="middle" font-size="7" fill="#7b1fa2">Dept-X</text>
    <ellipse cx="400" cy="485" rx="25" ry="12" fill="#ede7f6" stroke="#9c27b0" stroke-width="1"/>
    <text x="400" y="489" text-anchor="middle" font-size="7" fill="#7b1fa2">Employee-2</text>
    <text x="520" y="400" font-size="10" fill="#555" font-weight="bold">Advantages:</text>
    <text x="520" y="418" font-size="9" fill="#555">• Many-to-many relationships</text>
    <text x="520" y="432" font-size="9" fill="#555">• Complex data modeling</text>
    <text x="520" y="446" font-size="9" fill="#555">• Better data independence</text>
  </g>
  
  <!-- Step 5: Relational Model -->
  <g class="step" id="step5" data-narration="Edgar F. Codd proposed the Relational Model in 1970, revolutionizing databases with tables, primary keys, foreign keys, and SQL based on set theory.">
    <rect x="40" y="480" width="720" height="115" rx="8" fill="white" filter="url(#shadow)"/>
    <rect x="40" y="480" width="8" height="115" rx="4" fill="url(#blueGrad)"/>
    <text x="60" y="502" font-size="13" font-weight="bold" fill="#333">Relational Database Model (1970)</text>
    <text x="60" y="520" font-size="10" fill="#555">E.F. Codd's revolutionary paper - Mathematical foundation based on set theory</text>
    <rect x="60" y="532" width="200" height="55" rx="4" fill="#e3f2fd" stroke="#1976d2" stroke-width="1.5"/>
    <line x1="60" y1="550" x2="260" y2="550" stroke="#1976d2" stroke-width="1"/>
    <text x="70" y="547" font-size="8" fill="#0d47a1" font-weight="bold">EMPLOYEES</text>
    <text x="70" y="565" font-size="8" fill="#1565c0">ID</text>
    <text x="110" y="565" font-size="8" fill="#1565c0">Name</text>
    <text x="160" y="565" font-size="8" fill="#1565c0">DeptID</text>
    <text x="70" y="578" font-size="7" fill="#333">101</text>
    <text x="110" y="578" font-size="7" fill="#333">John</text>
    <text x="160" y="578" font-size="7" fill="#333">D1</text>
    <rect x="280" y="532" width="150" height="55" rx="4" fill="#e3f2fd" stroke="#1976d2" stroke-width="1.5"/>
    <line x1="280" y1="550" x2="430" y2="550" stroke="#1976d2" stroke-width="1"/>
    <text x="290" y="547" font-size="8" fill="#0d47a1" font-weight="bold">DEPARTMENTS</text>
    <text x="300" y="565" font-size="8" fill="#1565c0">DeptID</text>
    <text x="360" y="565" font-size="8" fill="#1565c0">Name</text>
    <text x="300" y="578" font-size="7" fill="#333">D1</text>
    <text x="360" y="578" font-size="7" fill="#333">IT</text>
    <path d="M260 560 L275 560" stroke="#1976d2" stroke-width="2" marker-end="url(#arrowBlue)"/>
    <text x="310" y="600" font-size="9" fill="#1976d2" font-weight="bold">Foreign Key</text>
    <rect x="450" y="532" width="300" height="55" rx="4" fill="#263238"/>
    <text x="465" y="552" font-size="9" fill="#80cbc4">SELECT * FROM employees</text>
    <text x="465" y="568" font-size="9" fill="#80cbc4">WHERE dept_id = 'D1';</text>
    <text x="60" y="600" font-size="10" fill="#555" font-weight="bold">Why Revolutionary:</text>
    <text x="60" y="615" font-size="9" fill="#555">• Data independence • Declarative SQL • Set-based operations</text>
    <text x="60" y="588" font-size="9" fill="#555">• ACID properties • Logical data independence</text>
  </g>
  
  <!-- Step 6: Object-Oriented Model -->
  <g class="step" id="step6" data-narration="Object-Oriented databases emerged in the 1980s to handle complex objects with encapsulation, inheritance, and unique object identifiers.">
    <rect x="40" y="605" width="720" height="90" rx="8" fill="white" filter="url(#shadow)"/>
    <rect x="40" y="605" width="8" height="90" rx="4" fill="url(#tealGrad)"/>
    <text x="60" y="627" font-size="13" font-weight="bold" fill="#333">Object-Oriented Database Model (1980s)</text>
    <text x="60" y="645" font-size="10" fill="#555">Combining OOP benefits with database capabilities for complex data types</text>
    <rect x="60" y="655" width="150" height="32" rx="4" fill="#e0f2f1" stroke="#00796b" stroke-width="1.5"/>
    <text x="70" y="670" font-size="9" fill="#004d40" font-weight="bold">Encapsulation</text>
    <text x="70" y="682" font-size="7" fill="#00695c">Data + Methods together</text>
    <rect x="220" y="655" width="150" height="32" rx="4" fill="#e0f2f1" stroke="#00796b" stroke-width="1.5"/>
    <text x="230" y="670" font-size="9" fill="#004d40" font-weight="bold">Inheritance</text>
    <text x="230" y="682" font-size="7" fill="#00695c">Object hierarchies</text>
    <rect x="380" y="655" width="150" height="32" rx="4" fill="#e0f2f1" stroke="#00796b" stroke-width="1.5"/>
    <text x="390" y="670" font-size="9" fill="#004d40" font-weight="bold">Complex Data Types</text>
    <text x="390" y="682" font-size="7" fill="#00695c">Multimedia, CAD data</text>
    <rect x="540" y="655" width="150" height="32" rx="4" fill="#e0f2f1" stroke="#00796b" stroke-width="1.5"/>
    <text x="550" y="670" font-size="9" fill="#004d40" font-weight="bold">Object Identity</text>
    <text x="550" y="682" font-size="7" fill="#00695c">Unique OIDs</text>
    <text x="700" y="670" font-size="8" fill="#666">Ex: ObjectStore, Versant</text>
  </g>
  
  <!-- Step 7: NoSQL Databases -->
  <g class="step" id="step7" data-narration="NoSQL databases emerged in 2000s to handle massive unstructured data with horizontal scalability, flexible schemas, and high availability.">
    <rect x="40" y="705" width="720" height="110" rx="8" fill="white" filter="url(#shadow)"/>
    <rect x="40" y="705" width="8" height="110" rx="4" fill="url(#indigoGrad)"/>
    <text x="60" y="727" font-size="13" font-weight="bold" fill="#333">NoSQL Databases (2000s)</text>
    <text x="60" y="745" font-size="10" fill="#555">Not Only SQL - Addressing scalability and unstructured data challenges</text>
    <g>
      <rect x="60" y="757" width="165" height="50" rx="6" fill="#e8eaf6" stroke="#303f9f" stroke-width="1.5"/>
      <text x="70" y="773" font-size="10" fill="#1a237e" font-weight="bold">Document Stores</text>
      <text x="70" y="788" font-size="8" fill="#3949ab">MongoDB, CouchDB</text>
      <text x="70" y="800" font-size="7" fill="#5c6bc0">Flexible JSON documents</text>
    </g>
    <g>
      <rect x="235" y="757" width="165" height="50" rx="6" fill="#e8eaf6" stroke="#303f9f" stroke-width="1.5"/>
      <text x="245" y="773" font-size="10" fill="#1a237e" font-weight="bold">Key-Value Stores</text>
      <text x="245" y="788" font-size="8" fill="#3949ab">Redis, DynamoDB</text>
      <text x="245" y="800" font-size="7" fill="#5c6bc0">Simple key-value pairs</text>
    </g>
    <g>
      <rect x="410" y="757" width="165" height="50" rx="6" fill="#e8eaf6" stroke="#303f9f" stroke-width="1.5"/>
      <text x="420" y="773" font-size="10" fill="#1a237e" font-weight="bold">Column Stores</text>
      <text x="420" y="788" font-size="8" fill="#3949ab">Cassandra, HBase</text>
      <text x="420" y="800" font-size="7" fill="#5c6bc0">Wide-column storage</text>
    </g>
    <g>
      <rect x="585" y="757" width="165" height="50" rx="6" fill="#e8eaf6" stroke="#303f9f" stroke-width="1.5"/>
      <text x="595" y="773" font-size="10" fill="#1a237e" font-weight="bold">Graph Databases</text>
      <text x="595" y="788" font-size="8" fill="#3949ab">Neo4j</text>
      <text x="595" y="800" font-size="7" fill="#5c6bc0">Relationships &amp; connections</text>
    </g>
    <text x="60" y="820" font-size="9" fill="#555" font-weight="bold">Key Traits: Horizontal scalability • Flexible schema • CAP theorem trade-offs • Eventual consistency</text>
  </g>
  
  <!-- Step 8: Modern Trends -->
  <g class="step" id="step8" data-narration="Modern trends include NewSQL combining SQL benefits with NoSQL scalability, cloud databases, and multi-model databases supporting diverse data types.">
    <rect x="40" y="825" width="720" height="85" rx="8" fill="white" filter="url(#shadow)"/>
    <rect x="40" y="825" width="8" height="85" rx="4" fill="url(#orangeGrad)"/>
    <text x="60" y="847" font-size="13" font-weight="bold" fill="#333">Modern &amp; Emerging Trends</text>
    <text x="60" y="865" font-size="10" fill="#555">Current database landscape - Cloud, NewSQL, and Multi-model approaches</text>
    <rect x="60" y="877" width="170" height="26" rx="5" fill="#fff3e0" stroke="#f57c00" stroke-width="1.5"/>
    <text x="70" y="893" font-size="9" fill="#e65100" font-weight="bold">NewSQL</text>
    <text x="135" y="893" font-size="7" fill="#f57c00">Spanner, CockroachDB</text>
    <rect x="240" y="877" width="170" height="26" rx="5" fill="#fff3e0" stroke="#f57c00" stroke-width="1.5"/>
    <text x="250" y="893" font-size="9" fill="#e65100" font-weight="bold">Cloud DBaaS</text>
    <text x="320" y="893" font-size="7" fill="#f57c00">AWS, Azure, GCP</text>
    <rect x="420" y="877" width="170" height="26" rx="5" fill="#fff3e0" stroke="#f57c00" stroke-width="1.5"/>
    <text x="430" y="893" font-size="9" fill="#e65100" font-weight="bold">Multi-model</text>
    <text x="500" y="893" font-size="7" fill="#f57c00">ArangoDB, Cosmos</text>
    <rect x="600" y="877" width="150" height="26" rx="5" fill="#fff3e0" stroke="#f57c00" stroke-width="1.5"/>
    <text x="610" y="893" font-size="9" fill="#e65100" font-weight="bold">Time-series</text>
    <text x="670" y="893" font-size="7" fill="#f57c00">InfluxDB</text>
  </g>
  
  <!-- Step 9: Summary -->
  <g class="step" id="step9" data-narration="In summary, database evolution progressed through file systems, hierarchical, network, relational, object-oriented, and NoSQL models to meet changing data needs.">
    <rect x="40" y="920" width="720" height="85" rx="8" fill="url(#blueGrad)" filter="url(#shadow)"/>
    <text x="400" y="945" text-anchor="middle" font-size="14" font-weight="bold" fill="white">Key Takeaways</text>
    <text x="100" y="965" font-size="9" fill="white">1960s: File Systems → Hierarchical → Network</text>
    <text x="340" y="965" font-size="9" fill="white">1970: Relational (Codd's revolution)</text>
    <text x="570" y="965" font-size="9" fill="white">1980s: OODBMS → 2000s: NoSQL</text>
    <text x="400" y="985" text-anchor="middle" font-size="10" fill="#bbdefb">Remember: Each evolution solved limitations of previous systems</text>
  </g>
</svg>