<svg width="420" height="400" data-topic-id="restoration-in-the-presence-of-noise-only">
  <defs>
    <linearGradient id="gradient" x1="0%" y1="0%" x2="100%" y2="0%">
      <stop offset="0%" stop-color="#C7B8EA" stop-opacity="1"/>
      <stop offset="100%" stop-color="#5F8EEF" stop-opacity="1"/>
    </linearGradient>
  </defs>
  <rect fill="url(#gradient)" width="100%" height="100%"/>
  <g id="group-1" transform="translate(0, 0)">
    <title>Introduction to Restoration in the Presence of Noise Only</title>
    <g id="group-2" transform="translate(20, 50)">
      <rect width="80" height="30" fill="#F7F7F7"/>
      <text x="10" y="15" font-size="18" font-family="Open Sans, sans-serif" text-anchor="middle">What is Restoration in the Presence of Noise Only?</text>
    </g>
    <g id="group-3" transform="translate(20, 100)">
      <rect width="80" height="30" fill="#F7F7F7"/>
      <text x="10" y="15" font-size="18" font-family="Open Sans, sans-serif" text-anchor="middle">Noise Types</text>
      <rect x="40" y="30" width="20" height="20" fill="#FFC6C9"/>
      <text x="60" y="35" font-size="14" font-family="Open Sans, sans-serif" text-anchor="middle">Gaussian Noise</text>
      <rect x="80" y="30" width="20" height="20" fill="#B2FFFC"/>
      <text x="100" y="35" font-size="14" font-family="Open Sans, sans-serif" text-anchor="middle">Salt and Pepper Noise</text>
      <rect x="120" y="30" width="20" height="20" fill="#FF99CC"/>
      <text x="140" y="35" font-size="14" font-family="Open Sans, sans-serif" text-anchor="middle">Impulsive Noise</text>
    </g>
    <g id="group-4" transform="translate(20, 200)">
      <rect width="80" height="30" fill="#F7F7F7"/>
      <text x="10" y="15" font-size="18" font-family="Open Sans, sans-serif" text-anchor="middle">Image Degradation Models</text>
      <rect x="40" y="30" width="20" height="20" fill="#FFC6C9"/>
      <text x="60" y="35" font-size="14" font-family="Open Sans, sans-serif" text-anchor="middle">Additive Noise Model</text>
      <rect x="80" y="30" width="20" height="20" fill="#B2FFFC"/>
      <text x="100" y="35" font-size="14" font-family="Open Sans, sans-serif" text-anchor="middle">Multiplicative Noise Model</text>
      <rect x="120" y="30" width="20" height="20" fill="#FF99CC"/>
      <text x="140" y="35" font-size="14" font-family="Open Sans, sans-serif" text-anchor="middle">Non-Stationary Noise Model</text>
    </g>
    <g id="group-5" transform="translate(20, 300)">
      <rect width="80" height="30" fill="#F7F7F7"/>
      <text x="10" y="15" font-size="18" font-family="Open Sans, sans-serif" text-anchor="middle">Restoration Techniques</text>
      <rect x="40" y="30" width="20" height="20" fill="#FFC6C9"/>
      <text x="60" y="35" font-size="14" font-family="Open Sans, sans-serif" text-anchor="middle">Filtering</text>
      <rect x="80" y="30" width="20" height="20" fill="#B2FFFC"/>
      <text x="100" y="35" font-size="14" font-family="Open Sans, sans-serif" text-anchor="middle">De-noising using Machine Learning</text>
      <rect x="120" y="30" width="20" height="20" fill="#FF99CC"/>
      <text x="140" y="35" font-size="14" font-family="Open Sans, sans-serif" text-anchor="middle">Optical Flow</text>
    </g>
    <g id="group-6" transform="translate(20, 400)">
      <rect width="80" height="30" fill="#F7F7F7"/>
      <text x="10" y="15" font-size="18" font-family="Open Sans, sans-serif" text-anchor="middle">MSE based De-noising</text>
      <rect x="40" y="30" width="20" height="20" fill="#FFC6C9"/>
      <text x="60" y="35" font-size="14" font-family="Open Sans, sans-serif" text-anchor="middle">Definition</text>
      <rect x="80" y="30" width="20" height="20" fill="#B2FFFC"/>
      <text x="100" y="35" font-size="14" font-family="Open Sans, sans-serif" text-anchor="middle">Advantage</text>
      <rect x="120" y="30" width="20" height="20" fill="#FF99CC"/>
      <text x="140" y="35" font-size="14" font-family="Open Sans, sans-serif" text-anchor="middle">Conclusion</text>
      <animate transform="translate(140, 350)" begin="0s" dur="2s" repeatCount="indefinite"/>
      <animate transform="translate(140, 450)" begin="2s" dur="2s" repeatCount="indefinite"/>
      <animate transform="translate(140, 550)" begin="4s" dur="2s" repeatCount="indefinite"/>
      <animate transform="translate(140, 650)" begin="6s" dur="2s" repeatCount="indefinite"/>
      <animate transform="translate(140, 350)" begin="8s" dur="2s" repeatCount="indefinite"/>
      <animate transform="translate(140, 450)" begin="10s" dur="2s" repeatCount="indefinite"/>
      <animate transform="translate(140, 550)" begin="12s" dur="2s" repeatCount="indefinite"/>
      <animate transform="translate(140, 650)" begin="14s" dur="2s" repeatCount="indefinite"/>
    </g>
    <g id="footer" transform="translate(20, 520)">
      <rect width="80" height="30" fill="#F7F7F7"/>
      <text x="10" y="15" font-size="18" font-family="Open Sans, sans-serif" text-anchor="middle">Restoration in the Presence of Noise Only</text>
    </g>
  </g>
</svg>