<svg width="420" height="400" data-topic-id="web-security-consideration">
  <defs>
    <linearGradient id="gradient" x1="0%" y1="0%" x2="100%" y2="0%">
      <stop offset="0%" stop-color="#66CCCC" stop-opacity="1" />
      <stop offset="100%" stop-color="#33CCCC" stop-opacity="1" />
    </linearGradient>
  </defs>
  <rect x="0" y="0" width="420" height="400" fill="url(#gradient)" />
  <g id="title">
    <text x="50%" y="20%" font-size="24" font-family="Arial" font-weight="bold" text-anchor="middle" fill="#333333">Web Security Consideration</text>
  </g>
  <g id="footer">
    <text x="50%" y="380%" font-size="18" font-family="Arial" text-anchor="middle" fill="#333333">Learn more about web security</text>
  </g>
  <g id="sections">
    <g id="section1">
      <rect x="20" y="100" width="380" height="150" fill="#FFFFFF" rx="10" />
      <text x="50%" y="120%" font-size="16" font-family="Arial" text-anchor="middle" fill="#333333" data-narration="What is Web Security?">
        <tspan x="50%" y="120%" dx="0" dy="0">Web security refers to the practice of protecting websites, web applications, and users from cyber threats.</tspan>
        <tspan x="50%" y="140%" dx="0" dy="0">It involves implementing security measures to prevent unauthorized access, data breaches, and other malicious activities.</tspan>
      </text>
      <animateTransform attributeName="transform" type="translate" begin="0s" dur="2s" repeatCount="indefinite" />
    </g>
    <g id="section2">
      <rect x="20" y="270" width="380" height="150" fill="#FFFFFF" rx="10" />
      <text x="50%" y="290%" font-size="16" font-family="Arial" text-anchor="middle" fill="#333333" data-narration="Types of Web Security Threats">
        <tspan x="50%" y="290%" dx="0" dy="0">Web security threats can be categorized into two main types:</tspan>
        <tspan x="50%" y="310%" dx="0" dy="0">1. <span style="color:#FF9900">Malware</span> attacks, which involve injecting malicious code into websites or web applications.</tspan>
        <tspan x="50%" y="330%" dx="0" dy="0">2. <span style="color:#FF9900">SQL injection</span> attacks, which involve injecting malicious SQL code into databases.</tspan>
      </text>
      <animateTransform attributeName="transform" type="translate" begin="2s" dur="2s" repeatCount="indefinite" />
    </g>
    <g id="section3">
      <rect x="20" y="100" width="380" height="150" fill="#FFFFFF" rx="10" />
      <rect x="20" y="270" width="380" height="150" fill="#FFFFFF" rx="10" />
      <text x="50%" y="120%" font-size="16" font-family="Arial" text-anchor="middle" fill="#333333" data-narration="Best Practices for Web Security">
        <tspan x="50%" y="120%" dx="0" dy="0">To ensure web security, follow these best practices:</tspan>
        <tspan x="50%" y="140%" dx="0" dy="0">1. <span style="color:#66CCCC">Use HTTPS</span> to encrypt data transmitted between the user's browser and the server.</tspan>
        <tspan x="50%" y="160%" dx="0" dy="0">2. <span style="color:#66CCCC">Keep software up-to-date</span> to patch security vulnerabilities.</tspan>
        <tspan x="50%" y="180%" dx="0" dy="0">3. <span style="color:#66CCCC">Use strong passwords</span> and enable two-factor authentication.</tspan>
      </text>
    </g>
    <g id="section4">
      <rect x="20" y="100" width="380" height="150" fill="#FFFFFF" rx="10" />
      <rect x="20" y="270" width="380" height="150" fill="#FFFFFF" rx="10" />
      <rect x="20" y="440" width="380" height="150" fill="#FFFFFF" rx="10" />
      <text x="50%" y="120%" font-size="16" font-family="Arial" text-anchor="middle" fill="#333333" data-narration="Common Web Security Mistakes">
        <tspan x="50%" y="120%" dx="0" dy="0">Common web security mistakes include:</tspan>
        <tspan x="50%" y="140%" dx="0" dy="0">1. <span style="color:#FF9900">Using weak passwords</span> or reusing passwords across multiple sites.</tspan>
        <tspan x="50%" y="160%" dx="0" dy="0">2. <span style="color:#FF9900">Failing to update software</span> or plugins.</tspan>
        <tspan x="50%" y="180%" dx="0" dy="0">3. <span style="color:#FF9900">Not using HTTPS</span> to encrypt data.</tspan>
      </text>
    </g>
    <g id="section5">
      <rect x="20" y="100" width="380" height="150" fill="#FFFFFF" rx="10" />
      <rect x="20" y="270" width="380" height="150" fill="#FFFFFF" rx="10" />
      <rect x="20" y="440" width="380" height="150" fill="#FFFFFF" rx="10" />
      <text x="50%" y="120%" font-size="16" font-family="Arial" text-anchor="middle" fill="#333333" data-narration="Web Security Tools and Resources">
        <tspan x="50%" y="120%" dx="0" dy="0">Use these web security tools and resources to stay ahead of threats:</tspan>
        <tspan x="50%" y="140%" dx="0" dy="0">1. <span style="color:#66CCCC">Web application firewalls</span> to protect against common web attacks.</tspan>
        <tspan x="50%" y="160%" dx="0" dy="0">2. <span style="color:#66CCCC">Penetration testing</span> tools to identify vulnerabilities.</tspan>
        <tspan x="50%" y="180%" dx="0" dy="0">3. <span style="color:#66CCCC">Security information and event management</span> systems to monitor and respond to threats.</tspan>
      </text>
    </g>
  </g>
  <g id="connections">
    <line x1="20" y1="100" x2="380" y2="100" stroke="#666666" stroke-width="2" />
    <line x1="20" y1="270" x2="380" y2="270" stroke="#666666" stroke-width="2" />
    <line x1="20" y1="440" x2="380" y2="440" stroke="#666666" stroke-width="2" />
    <line x1="20" y1="100" x2="20" y2="270" stroke="#666666" stroke-width="2" arrowhead="close" />
    <line x1="20" y1="100" x2="20" y2="440" stroke="#666666" stroke-width="2" arrowhead="close" />
    <line x1="20" y1="270" x2="20" y2="440" stroke="#666666" stroke-width="2" arrowhead="close" />
    <line x1="380" y1="100" x2="380" y2="270" stroke="#666666" stroke-width="2" arrowhead="close" />
    <line x1="380" y1="100" x2="380" y2="440" stroke="#666666" stroke-width="2" arrowhead="close" />
    <line x1="380" y1="270" x2="380" y2="440" stroke="#666666" stroke-width="2" arrowhead="close" />
  </g>
  <g id="arrow-markers">
    <circle cx="20" cy="100" r="5" fill="#666666" />
    <circle cx="20" cy="270" r="5" fill="#666666" />
    <circle cx="20" cy="440" r="5" fill="#666666" />
    <circle cx="380" cy="100" r="5" fill="#666666" />
    <circle cx="380" cy="270" r="5" fill="#666666" />
    <circle cx="380" cy="440" r="5" fill="#666666" />
  </g>
</svg>