<svg width="420" height="400" data-topic-id="chapter-4-sections-41">
  <defs>
    <style>
      .path {
        fill: none;
        stroke: #007bff;
        stroke-width: 2;
      }
    </style>
  </defs>
  <rect x="0" y="0" width="100%" height="100%" style="fill: #6495ed; opacity: 0.9;" />
  <path d="M 50 50 Q 150 50 150 250" class="path" />
  <g id="tsp-tour" transform="translate(50, 50)">
    <path d="M 50 50 Q 150 50 150 250" class="path" />
    <circle cx="150" cy="230" r="10" />
    <text x="180" y="260" text-anchor="middle" font-size="16" fill="#007bff">City E</text>
    <path d="M 50 50 Q 150 50 150 250" class="path" />
    <circle cx="150" cy="180" r="10" />
    <text x="180" y="200" text-anchor="middle" font-size="16" fill="#007bff">City D</text>
    <path d="M 50 50 Q 150 50 150 250" class="path" />
    <circle cx="150" cy="130" r="10" />
    <text x="180" y="150" text-anchor="middle" font-size="16" fill="#007bff">City C</text>
    <path d="M 50 50 Q 150 50 150 250" class="path" />
    <circle cx="150" cy="80" r="10" />
    <text x="180" y="100" text-anchor="middle" font-size="16" fill="#007bff">City B</text>
    <path d="M 50 50 Q 150 50 150 250" class="path" />
    <circle cx="150" cy="50" r="10" />
    <text x="180" y="70" text-anchor="middle" font-size="16" fill="#007bff">City A</text>
    <animateTransform attributeName="transform" type="translate" from="0 50" to="420 50" dur="4s" repeatCount="indefinite" />
    <animateTransform attributeName="transform" type="rotate" from="0 150 250" to="360 150 250" dur="4s" repeatCount="indefinite" />
    <animateTransform attributeName="transform" type="scale" from="1 1" to="2 2" dur="4s" repeatCount="indefinite" />
  </g>
  <g id="tsp-tour-2" transform="translate(50 50)">
    <path d="M 50 50 Q 150 50 150 250" class="path" />
    <circle cx="150" cy="230" r="10" />
    <text x="180" y="260" text-anchor="middle" font-size="16" fill="#007bff">City E</text>
    <path d="M 50 50 Q 150 50 150 250" class="path" />
    <circle cx="150" cy="180" r="10" />
    <text x="180" y="200" text-anchor="middle" font-size="16" fill="#007bff">City D</text>
    <path d="M 50 50 Q 150 50 150 250" class="path" />
    <circle cx="150" cy="130" r="10" />
    <text x="180" y="150" text-anchor="middle" font-size="16" fill="#007bff">City C</text>
    <path d="M 50 50 Q 150 50 150 250" class="path" />
    <circle cx="150" cy="80" r="10" />
    <text x="180" y="100" text-anchor="middle" font-size="16" fill="#007bff">City B</text>
    <path d="M 50 50 Q 150 50 150 250" class="path" />
    <circle cx="150" cy="50" r="10" />
    <text x="180" y="70" text-anchor="middle" font-size="16" fill="#007bff">City A</text>
    <animateTransform attributeName="transform" type="translate" from="0 50" to="420 50" dur="4s" repeatCount="indefinite" />
    <animateTransform attributeName="transform" type="rotate" from="0 150 250" to="360 150 250" dur="4s" repeatCount="indefinite" />
    <animateTransform attributeName="transform" type="scale" from="1 1" to="2 2" dur="4s" repeatCount="indefinite" />
  </g>
  <g id="tsp-tour-3" transform="translate(50 50)">
    <path d="M 50 50 Q 150 50 150 250" class="path" />
    <circle cx="150" cy="230" r="10" />
    <text x="180" y="260" text-anchor="middle" font-size="16" fill="#007bff">City E</text>
    <path d="M 50 50 Q 150 50 150 250" class="path" />
    <circle cx="150" cy="180" r="10" />
    <text x="180" y="200" text-anchor="middle" font-size="16" fill="#007bff">City D</text>
    <path d="M 50 50 Q 150 50 150 250" class="path" />
    <circle cx="150" cy="130" r="10" />
    <text x="180" y="150" text-anchor="middle" font-size="16" fill="#007bff">City C</text>
    <path d="M 50 50 Q 150 50 150 250" class="path" />
    <circle cx="150" cy="80" r="10" />
    <text x="180" y="100" text-anchor="middle" font-size="16" fill="#007bff">City B</text>
    <path d="M 50 50 Q 150 50 150 250" class="path" />
    <circle cx="150" cy="50" r="10" />
    <text x="180" y="70" text-anchor="middle" font-size="16" fill="#007bff">City A</text>
    <animateTransform attributeName="transform" type="translate" from="0 50" to="420 50" dur="4s" repeatCount="indefinite" />
    <animateTransform attributeName="transform" type="rotate" from="0 150 250" to="360 150 250" dur="4s" repeatCount="indefinite" />
    <animateTransform attributeName="transform" type="scale" from="1 1" to="1 2" dur="4s" repeatCount="indefinite" />
  </g>
  <g id="tsp-tour-4" transform="translate(50 50)">
    <path d="M 50 50 Q 150 50 150 250" class="path" />
    <circle cx="150" cy="230" r="10" />
    <text x="180" y="260" text-anchor="middle" font-size="16" fill="#007bff">City E</text>
    <path d="M 50 50 Q 150 50 150 250" class="path" />
    <circle cx="150" cy="180" r="10" />
    <text x="180" y="200" text-anchor="middle" font-size="16" fill="#007bff">City D</text>
    <path d="M 50 50 Q 150 50 150 250" class="path" />
    <circle cx="150" cy="130" r="10" />
    <text x="180" y="150" text-anchor="middle" font-size="16" fill="#007bff">City C</text>
    <path d="M 50 50 Q 150 50 150 250" class="path" />
    <circle cx="150" cy="80" r="10" />
    <text x="180" y="100" text-anchor="middle" font-size="16" fill="#007bff">City B</text>
    <path d="M 50 50 Q 150 50 150 250" class="path" />
    <circle cx="150" cy="50" r="10" />
    <text x="180" y="70" text-anchor="middle" font-size="16" fill="#007bff">City A</text>
    <animateTransform attributeName="transform" type="translate" from="0 50" to="420 50" dur="4s" repeatCount="indefinite" />
    <animateTransform attributeName="transform" type="rotate" from="0 150 250" to="360 150 250" dur="4s" repeatCount="indefinite" />
    <animateTransform attributeName="transform" type="scale" from="1 1" to="2 1" dur="4s" repeatCount="indefinite" />
  </g>
  <g id="tsp-tour-5" transform="translate(50 50)">
    <path d="M 50 50 Q 150 50 150 250" class="path" />
    <circle cx="150" cy="230" r="10" />
    <text x="180" y="260" text-anchor="middle" font-size="16" fill="#007bff">City E</text>
    <path d="M 50 50 Q 150 50 150 250" class="path" />
    <circle cx="150" cy="180" r="10" />
    <text x="180" y="200" text-anchor="middle" font-size="16" fill="#007bff">City D</text>
    <path d="M 50 50 Q 150 50 150 250" class="path" />
    <circle cx="150" cy="130" r="10" />
    <text x="180" y="150" text-anchor="middle" font-size="16" fill="#007bff">City C</text>
    <path d="M 50 50 Q 150 50 150 250" class="path" />
    <circle cx="150" cy="80" r="10" />
    <text x="180" y="100" text-anchor="middle" font-size="16" fill="#007bff">City B</text>
    <path d="M 50 50 Q 150 50 150 250" class="path" />
    <circle cx="150" cy="50" r="10" />
    <text x="180" y="70" text-anchor="middle" font-size="16" fill="#007bff">City A</text>
    <animateTransform attributeName="transform" type="translate" from="0 50" to="420 50" dur="4s" repeatCount="indefinite" />
    <animateTransform attributeName="transform" type="rotate" from="0 150 250" to="360 150 250" dur="4s" repeatCount="indefinite" />
    <animateTransform attributeName="transform" type="scale" from="1 1" to="1 2" dur="4s" repeatCount="indefinite" />
  </g>
  <g id="tsp-tour-6" transform="translate(50 50)">
    <path d="M 50 50 Q 150 50 150 250" class="path" />
    <circle cx="150" cy="230" r="10" />
    <text x="180" y="260" text-anchor="middle" font-size="16" fill="#007bff">City E</text>
    <path d="M 50 50 Q 150 50 150 250" class="path" />
    <circle cx="150" cy="180" r="10" />
    <text x="180" y="200" text-anchor="middle" font-size="16" fill="#007bff">City D</text>
    <path d="M 50 50 Q 150 50 150 250" class="path" />
    <circle cx="150" cy="130" r="10" />
    <text x="180" y="150" text-anchor="middle" font-size="16" fill="#007bff">City C</text>
    <path d="M 50 50 Q 150 50 150 250" class="path" />
    <circle cx="150" cy="80" r="10" />
    <text x="180" y="100" text-anchor="middle" font-size="16" fill="#007bff">City B</text>
    <path d="M 50 50 Q 150 50 150 250" class="path" />
    <circle cx="150" cy="50" r="10" />
    <text x="180" y="70" text-anchor="middle" font-size="16" fill="#007bff">City A</text>
    <animateTransform attributeName="transform" type="translate" from="0 50" to="420 50" dur="4s" repeatCount="indefinite" />
    <animateTransform attributeName="transform" type="rotate" from="0 150 250" to="360 150 250" dur="4s" repeatCount="indefinite" />
    <animateTransform attributeName="transform" type="scale" from="1 1" to="1 2" dur="4s" repeatCount="indefinite" />
  </g>
  <!-- data-narration -->
  <text x="50" y="50" font-size="24" fill="#007bff">Exhaustive Search</text>
  <text x="50" y="100" font-size="24" fill="#007bff">Travelling Salesman Problem (TSP)</text>
  <text x="50" y="150" font-size="24" fill="#007bff">Optimal Solution Found</text>
  <text x="50" y="200" font-size="24" fill="#007bff">Minimum Distance: 85</text>
  <text x="50" y="250" font-size="24" fill="#007bff">Best Tour: A -> B -> C -> D -> E -> A</text>
  <!-- data-topic-id -->
  <text x="50" y="300" font-size="24" fill="#007bff">Chapter 4: Analysis & Design of Algorithms</text>
  <text x="50" y="350" font-size="24" fill="#007bff">Section 41: Exhaustive Search</text>
  <!-- title -->
  <text x="50" y="20" font-size="48" fill="#007bff">Chapter 4: Analysis & Design of Algorithms</text>
  <!-- footer -->
  <text x="50" y="380" font-size="24" fill="#007bff">Copyright 2023</text>
</svg>