<svg xmlns="http://www.w3.org/2000/svg" viewBox="0 0 800 1450">
  <defs>
    <linearGradient id="bgGrad" x1="0%" y1="0%" x2="0%" y2="100%">
      <stop offset="0%" style="stop-color:#f8f9fa"/>
      <stop offset="100%" style="stop-color:#e9ecef"/>
    </linearGradient>
    <linearGradient id="blueGrad" x1="0%" y1="0%" x2="100%" y2="100%">
      <stop offset="0%" style="stop-color:#1976d2"/>
      <stop offset="100%" style="stop-color:#1565c0"/>
    </linearGradient>
    <linearGradient id="greenGrad" x1="0%" y1="0%" x2="100%" y2="100%">
      <stop offset="0%" style="stop-color:#388e3c"/>
      <stop offset="100%" style="stop-color:#2e7d32"/>
    </linearGradient>
    <linearGradient id="orangeGrad" x1="0%" y1="0%" x2="100%" y2="100%">
      <stop offset="0%" style="stop-color:#ff9800"/>
      <stop offset="100%" style="stop-color:#f57c00"/>
    </linearGradient>
    <linearGradient id="purpleGrad" x1="0%" y1="0%" x2="100%" y2="100%">
      <stop offset="0%" style="stop-color:#7b1fa2"/>
      <stop offset="100%" style="stop-color:#6a1b9a"/>
    </linearGradient>
    <filter id="shadow" x="-20%" y="-20%" width="140%" height="140%">
      <feDropShadow dx="2" dy="3" stdDeviation="3" flood-opacity="0.2"/>
    </filter>
    <marker id="arrowBlue" markerWidth="10" markerHeight="10" refX="9" refY="3" orient="auto">
      <path d="M0,0 L0,6 L9,3 z" fill="#1976d2"/>
    </marker>
    <marker id="arrowGreen" markerWidth="10" markerHeight="10" refX="9" refY="3" orient="auto">
      <path d="M0,0 L0,6 L9,3 z" fill="#388e3c"/>
    </marker>
  </defs>
  
  <style>
    @keyframes fadeInSlide {
      from { opacity: 0; transform: translateY(20px); }
      to { opacity: 1; transform: translateY(0); }
    }
    @keyframes scaleIn {
      from { opacity: 0; transform: scale(0.85); }
      to { opacity: 1; transform: scale(1); }
    }
    @keyframes textReveal {
      from { opacity: 0; transform: translateX(-10px); }
      to { opacity: 1; transform: translateX(0); }
    }
    @keyframes drawLine {
      from { stroke-dashoffset: 500; }
      to { stroke-dashoffset: 0; }
    }
    @keyframes pulse {
      0%, 100% { transform: scale(1); }
      50% { transform: scale(1.05); }
    }
    .step { animation: fadeInSlide 0.6s ease-out; }
    .step rect {
      animation: scaleIn 0.5s cubic-bezier(0.34, 1.56, 0.64, 1);
      transform-origin: center;
    }
    .step text { animation: textReveal 0.4s ease-out 0.2s backwards; }
    .node { animation: scaleIn 0.4s ease-out backwards; }
    .edge { stroke-dasharray: 500; animation: drawLine 1s ease-out forwards; }
  </style>
  
  <rect x="0" y="0" width="800" height="1450" fill="#f8f9fa"/>
  <rect x="0" y="0" width="800" height="1450" fill="url(#bgGrad)"/>
  
  <!-- Step 0: Title -->
  <g class="step" id="step0" data-narration="Welcome to Prim's Algorithm, a greedy algorithm for finding the Minimum Spanning Tree in weighted graphs.">
    <rect x="20" y="20" width="760" height="50" rx="10" fill="url(#blueGrad)" filter="url(#shadow)"/>
    <text x="400" y="52" text-anchor="middle" font-size="22" font-weight="bold" fill="white">Prim's Algorithm - Finding the Minimum Spanning Tree</text>
    <text x="400" y="75" text-anchor="middle" font-size="12" fill="#1565c0">CSE | Greedy Approach | Graph Theory</text>
  </g>
  
  <!-- Step 1: Spanning Tree Definition -->
  <g class="step" id="step1" data-narration="A spanning tree connects all vertices without cycles using exactly n-1 edges. The MST has minimum total weight.">
    <rect x="20" y="85" width="760" height="90" rx="8" fill="#e3f2fd" filter="url(#shadow)"/>
    <text x="40" y="105" font-size="14" font-weight="bold" fill="#1976d2">Spanning Tree &amp; MST</text>
    <rect x="40" y="115" width="220" height="50" rx="6" fill="white"/>
    <text x="50" y="132" font-size="11" fill="#333">• Connects all n vertices</text>
    <text x="50" y="148" font-size="11" fill="#333">• Exactly n-1 edges</text>
    <text x="50" y="164" font-size="11" fill="#333">• No cycles allowed</text>
    <rect x="270" y="115" width="220" height="50" rx="6" fill="#e8f5e9"/>
    <text x="280" y="132" font-size="11" font-weight="bold" fill="#388e3c">Minimum Spanning Tree</text>
    <text x="280" y="148" font-size="11" fill="#333">• Minimum total edge weight</text>
    <text x="280" y="164" font-size="11" fill="#333">• Unique if weights distinct</text>
    <rect x="500" y="115" width="265" height="50" rx="6" fill="#fff3e0"/>
    <text x="510" y="132" font-size="11" font-weight="bold" fill="#f57c00">Formula</text>
    <text x="510" y="152" font-size="13" fill="#333">MST Weight = Σ edge weights</text>
    <text x="650" y="152" font-size="11" fill="#666">(in final tree)</text>
  </g>
  
  <!-- Step 2: Greedy Strategy -->
  <g class="step" id="step2" data-narration="Prim's uses a greedy strategy: at each step, select the minimum weight edge connecting MST to a new vertex.">
    <rect x="20" y="190" width="760" height="90" rx="8" fill="#f3e5f5" filter="url(#shadow)"/>
    <text x="40" y="210" font-size="14" font-weight="bold" fill="#7b1fa2">Greedy Strategy in Prim's Algorithm</text>
    <rect x="40" y="225" width="160" height="45" rx="6" fill="white"/>
    <text x="50" y="242" font-size="10" fill="#333">1. Start from any</text>
    <text x="50" y="257" font-size="10" fill="#333">   arbitrary vertex</text>
    <path d="M205 247 L225 247" stroke="#7b1fa2" stroke-width="2" marker-end="url(#arrowBlue)"/>
    <rect x="230" y="225" width="160" height="45" rx="6" fill="white"/>
    <text x="240" y="242" font-size="10" fill="#333">2. Maintain vertex set</text>
    <text x="240" y="257" font-size="10" fill="#333">   (in MST &amp; outside)</text>
    <path d="M395 247 L415 247" stroke="#7b1fa2" stroke-width="2" marker-end="url(#arrowBlue)"/>
    <rect x="420" y="225" width="160" height="45" rx="6" fill="white"/>
    <text x="430" y="242" font-size="10" fill="#333">3. Pick minimum edge</text>
    <text x="430" y="257" font-size="10" fill="#333">   crossing the cut</text>
    <path d="M585 247 L605 247" stroke="#7b1fa2" stroke-width="2" marker-end="url(#arrowBlue)"/>
    <rect x="610" y="225" width="155" height="45" rx="6" fill="#e8f5e9"/>
    <text x="620" y="242" font-size="10" fill="#333">4. Add vertex to MST</text>
    <text x="620" y="257" font-size="10" fill="#333">   repeat until complete</text>
  </g>
  
  <!-- Step 3: Algorithm Steps -->
  <g class="step" id="step3" data-narration="The algorithm initializes with a starting vertex, then repeatedly extracts the minimum edge to grow the MST.">
    <rect x="20" y="295" width="760" height="100" rx="8" fill="#fff3e0" filter="url(#shadow)"/>
    <text x="40" y="315" font-size="14" font-weight="bold" fill="#f57c00">Algorithm Steps</text>
    <rect x="40" y="330" width="175" height="55" rx="6" fill="white"/>
    <text x="50" y="347" font-size="10" fill="#1976d2" font-weight="bold">Step 1:</text>
    <text x="50" y="362" font-size="10" fill="#333">Initialize MST with</text>
    <text x="50" y="377" font-size="10" fill="#333">arbitrary start vertex</text>
    <rect x="225" y="330" width="175" height="55" rx="6" fill="white"/>
    <text x="235" y="347" font-size="10" fill="#1976d2" font-weight="bold">Step 2:</text>
    <text x="235" y="362" font-size="10" fill="#333">Create priority queue</text>
    <text x="235" y="377" font-size="10" fill="#333">with all edges from start</text>
    <rect x="410" y="330" width="175" height="55" rx="6" fill="white"/>
    <text x="420" y="347" font-size="10" fill="#1976d2" font-weight="bold">Step 3:</text>
    <text x="420" y="362" font-size="10" fill="#333">Extract minimum edge</text>
    <text x="420" y="377" font-size="10" fill="#333">from priority queue</text>
    <rect x="595" y="330" width="170" height="55" rx="6" fill="#e8f5e9"/>
    <text x="605" y="347" font-size="10" fill="#388e3c" font-weight="bold">Step 4:</text>
    <text x="605" y="362" font-size="10" fill="#333">If vertex not in MST,</text>
    <text x="605" y="377" font-size="10" fill="#333">add edge to MST</text>
  </g>
  
  <!-- Step 4: Time Complexity -->
  <g class="step" id="step4" data-narration="Time complexity varies by data structure: O(V²) with arrays, O(E log V) with binary heap, O(E + V log V) with Fibonacci heap.">
    <rect x="20" y="410" width="760" height="90" rx="8" fill="#e3f2fd" filter="url(#shadow)"/>
    <text x="40" y="430" font-size="14" font-weight="bold" fill="#1976d2">Time &amp; Space Complexity</text>
    <rect x="40" y="445" width="230" height="45" rx="6" fill="white"/>
    <text x="50" y="462" font-size="11" fill="#333">Array Implementation:</text>
    <text x="160" y="462" font-size="12" font-weight="bold" fill="#1976d2">O(V²)</text>
    <rect x="280" y="445" width="230" height="45" rx="6" fill="white"/>
    <text x="290" y="462" font-size="11" fill="#333">Binary Min-Heap:</text>
    <text x="410" y="462" font-size="12" font-weight="bold" fill="#388e3c">O(E log V)</text>
    <rect x="520" y="445" width="245" height="45" rx="6" fill="white"/>
    <text x="530" y="462" font-size="11" fill="#333">Fibonacci Heap:</text>
    <text x="660" y="462" font-size="12" font-weight="bold" fill="#f57c00">O(E + V log V)</text>
    <rect x="40" y="495" width="230" height="30" rx="6" fill="#fff3e0"/>
    <text x="50" y="512" font-size="11" fill="#333">Space Complexity:</text>
    <text x="160" y="512" font-size="12" font-weight="bold" fill="#7b1fa2">O(V + E)</text>
  </g>
  
  <!-- Step 5: Cut Property -->
  <g class="step" id="step5" data-narration="The cut property proves correctness: the minimum weight edge crossing any cut belongs to some MST, guaranteeing optimality.">
    <rect x="20" y="515" width="760" height="85" rx="8" fill="#f3e5f5" filter="url(#shadow)"/>
    <text x="40" y="535" font-size="14" font-weight="bold" fill="#7b1fa2">Cut Property - The Key to Correctness</text>
    <rect x="40" y="550" width="350" height="40" rx="6" fill="white"/>
    <text x="50" y="567" font-size="11" fill="#333">For any cut partitioning vertices into two sets,</text>
    <text x="50" y="582" font-size="11" fill="#333">the minimum weight edge crossing the cut is in some MST.</text>
    <rect x="405" y="550" width="360" height="40" rx="6" fill="#e8f5e9"/>
    <text x="415" y="567" font-size="11" font-weight="bold" fill="#388e3c">Why Greedy Works:</text>
    <text x="415" y="582" font-size="11" fill="#333">Making locally optimal choices leads to global optimum!</text>
  </g>
  
  <!-- Step 6: Example Graph -->
  <g class="step" id="step6" data-narration="Consider this graph with vertices A through E and weighted edges. Let's trace Prim's algorithm step by step.">
    <rect x="20" y="615" width="760" height="110" rx="8" fill="#e3f2fd" filter="url(#shadow)"/>
    <text x="40" y="635" font-size="14" font-weight="bold" fill="#1976d2">Example Graph with 5 Vertices</text>
    
    <!-- Graph nodes -->
    <g class="node" style="animation-delay: 0.1s">
      <circle cx="100" cy="685" r="20" fill="#1976d2"/>
      <text x="100" y="690" text-anchor="middle" font-size="12" font-weight="bold" fill="white">A</text>
    </g>
    <g class="node" style="animation-delay: 0.2s">
      <circle cx="250" cy="650" r="20" fill="#1976d2"/>
      <text x="250" y="655" text-anchor="middle" font-size="12" font-weight="bold" fill="white">B</text>
    </g>
    <g class="node" style="animation-delay: 0.3s">
      <circle cx="200" cy="720" r="20" fill="#1976d2"/>
      <text x="200" y="725" text-anchor="middle" font-size="12" font-weight="bold" fill="white">C</text>
    </g>
    <g class="node" style="animation-delay: 0.4s">
      <circle cx="80" cy="760" r="20" fill="#1976d2"/>
      <text x="80" y="765" text-anchor="middle" font-size="12" font-weight="bold" fill="white">D</text>
    </g>
    <g class="node" style="animation-delay: 0.5s">
      <circle cx="220" cy="785" r="20" fill="#1976d2"/>
      <text x="220" y="790" text-anchor="middle" font-size="12" font-weight="bold" fill="white">E</text>
    </g>
    
    <!-- Edges -->
    <line class="edge" x1="100" y1="685" x2="250" y2="650" stroke="#666" stroke-width="2" style="animation-delay: 0.6s"/>
    <text x="165" y="660" font-size="10" fill="#333" font-weight="bold">10</text>
    <line class="edge" x1="100" y1="685" x2="200" y2="720" stroke="#666" stroke-width="2" style="animation-delay: 0.7s"/>
    <text x="140" y="715" font-size="10" fill="#333" font-weight="bold">4</text>
    <line class="edge" x1="100" y1="685" x2="80" y2="760" stroke="#666" stroke-width="2" style="animation-delay: 0.8s"/>
    <text x="80" y="735" font-size="10" fill="#333" font-weight="bold">2</text>
    <line class="edge" x1="250" y1="650" x2="200" y2="720" stroke="#666" stroke-width="2" style="animation-delay: 0.9s"/>
    <text x="235" y="678" font-size="10" fill="#333" font-weight="bold">6</text>
    <line class="edge" x1="200" y1="720" x2="80" y2="760" stroke="#666" stroke-width="2" style="animation-delay: 1.0s"/>
    <text x="130" y="752" font-size="10" fill="#333" font-weight="bold">5</text>
    <line class="edge" x1="80" y1="760" x2="220" y2="785" stroke="#666" stroke-width="2" style="animation-delay: 1.1s"/>
    <text x="140" y="785" font-size="10" fill="#333" font-weight="bold">1</text>
    <line class="edge" x1="220" y1="785" x2="200" y2="720" stroke="#666" stroke-width="2" style="animation-delay: 1.2s"/>
    <text x="220" y="755" font-size="10" fill="#333" font-weight="bold">3</text>
    <line class="edge" x1="220" y1="785" x2="250" y2="650" stroke="#666" stroke-width="2" style="animation-delay: 1.3s"/>
    <text x="245" y="730" font-size="10" fill="#333" font-weight="bold">3</text>
    
    <rect x="550" y="640" width="215" height="75" rx="6" fill="#fff3e0"/>
    <text x="560" y="660" font-size="11" font-weight="bold" fill="#f57c00">Edge Weights:</text>
    <text x="560" y="678" font-size="10" fill="#333">A-B(10) A-C(4) A-D(2)</text>
    <text x="560" y="693" font-size="10" fill="#333">B-C(6) D-E(1) E-C(3)</text>
    <text x="560" y="708" font-size="10" fill="#333">E-B(3) C-D(5)</text>
  </g>
  
  <!-- Step 7: Execution Step 1-2 -->
  <g class="step" id="step7" data-narration="Step 1: Start from vertex A. Add its edges to priority queue. Step 2: Pick minimum edge A-D(2), add D to MST.">
    <rect x="20" y="740" width="760" height="95" rx="8" fill="#e8f5e9" filter="url(#shadow)"/>
    <text x="40" y="760" font-size="14" font-weight="bold" fill="#388e3c">Execution: Steps 1-2</text>
    
    <!-- Highlight A -->
    <circle cx="100" cy="800" r="22" fill="#388e3c" stroke="#2e7d32" stroke-width="3"/>
    <text x="100" y="805" text-anchor="middle" font-size="12" font-weight="bold" fill="white">A</text>
    
    <!-- Edge A-D highlighted -->
    <line x1="100" y1="798" x2="80" y2="855" stroke="#388e3c" stroke-width="4"/>
    <text x="80" y="840" font-size="10" fill="#388e3c" font-weight="bold">2</text>
    
    <rect x="280" y="755" width="200" height="70" rx="6" fill="white"/>
    <text x="290" y="775" font-size="11" font-weight="bold" fill="#1976d2">Step 1: Start at A</text>
    <text x="290" y="792" font-size="10" fill="#333">PQ: A-D(2), A-C(4), A-B(10)</text>
    <text x="290" y="807" font-size="10" fill="#333">MST: {A}</text>
    <text x="290" y="822" font-size="10" fill="#333">Weight: 0</text>
    
    <rect x="495" y="755" width="270" height="70" rx="6" fill="#e8f5e9"/>
    <text x="505" y="775" font-size="11" font-weight="bold" fill="#388e3c">Step 2: Pick A-D(2)</text>
    <text x="505" y="792" font-size="10" fill="#333">Added D to MST</text>
    <text x="505" y="807" font-size="10" fill="#333">New edges: D-E(1), D-C(5)</text>
    <text x="505" y="822" font-size="10" fill="#333">MST Weight: 2</text>
  </g>
  
  <!-- Step 8: Execution Step 3-4 -->
  <g class="step" id="step8" data-narration="Step 3: Pick minimum edge D-E(1), add E to MST. Step 4: Pick E-B(3), add B to MST (or E-C).">
    <rect x="20" y="850" width="760" height="95" rx="8" fill="#e3f2fd" filter="url(#shadow)"/>
    <text x="40" y="870" font-size="14" font-weight="bold" fill="#1976d2">Execution: Steps 3-4</text>
    
    <!-- Highlight A, D -->
    <circle cx="100" cy="910" r="22" fill="#388e3c"/>
    <circle cx="80" cy="965" r="22" fill="#388e3c"/>
    <text x="100" y="915" text-anchor="middle" font-size="12" font-weight="bold" fill="white">A</text>
    <text x="80" y="970" text-anchor="middle" font-size="12" font-weight="bold" fill="white">D</text>
    
    <!-- Edge D-E highlighted -->
    <line x1="85" y1="963" x2="220" y2="968" stroke="#1976d2" stroke-width="4"/>
    <text x="145" y="978" font-size="10" fill="#1976d2" font-weight="bold">1</text>
    
    <!-- Edge E-B highlighted -->
    <line x1="230" y1="968" x2="250" y2="905" stroke="#1976d2" stroke-width="4"/>
    <text x="250" y="940" font-size="10" fill="#1976d2" font-weight="bold">3</text>
    
    <rect x="280" y="865" width="200" height="70" rx="6" fill="white"/>
    <text x="290" y="885" font-size="11" font-weight="bold" fill="#1976d2">Step 3: Pick D-E(1)</text>
    <text x="290" y="902" font-size="10" fill="#333">Added E to MST</text>
    <text x="290" y="917" font-size="10" fill="#333">New edges: E-B(3), E-C(3)</text>
    <text x="290" y="932" font-size="10" fill="#333">MST Weight: 3</text>
    
    <rect x="495" y="865" width="270" height="70" rx="6" fill="#e3f2fd"/>
    <text x="505" y="885" font-size="11" font-weight="bold" fill="#1976d2">Step 4: Pick E-B(3)</text>
    <text x="505" y="902" font-size="10" fill="#333">Added B to MST</text>
    <text x="505" y="917" font-size="10" fill="#333">New edge: B-C(6)</text>
    <text x="505" y="932" font-size="10" fill="#333">MST Weight: 6</text>
  </g>
  
  <!-- Step 9: Final MST -->
  <g class="step" id="step9" data-narration="Step 5: Pick E-C(3), include C. All vertices now in MST. Final MST weight equals 2+1+3+3 = 9.">
    <rect x="20" y="960" width="760" height="95" rx="8" fill="#fff3e0" filter="url(#shadow)"/>
    <text x="40" y="980" font-size="14" font-weight="bold" fill="#f57c00">Execution: Step 5 - Complete MST</text>
    
    <!-- All nodes in MST - highlight -->
    <circle cx="100" cy="1020" r="22" fill="#388e3c"/>
    <circle cx="250" cy="985" r="22" fill="#388e3c"/>
    <circle cx="200" cy="1055" r="22" fill="#388e3c"/>
    <circle cx="80" cy="1080" r="22" fill="#388e3c"/>
    <circle cx="220" cy="1105" r="22" fill="#388e3c"/>
    
    <text x="100" y="1025" text-anchor="middle" font-size="12" font-weight="bold" fill="white">A</text>
    <text x="250" y="990" text-anchor="middle" font-size="12" font-weight="bold" fill="white">B</text>
    <text x="200" y="1060" text-anchor="middle" font-size="12" font-weight="bold" fill="white">C</text>
    <text x="80" y="1085" text-anchor="middle" font-size="12" font-weight="bold" fill="white">D</text>
    <text x="220" y="1110" text-anchor="middle" font-size="12" font-weight="bold" fill="white">E</text>
    
    <!-- MST Edges -->
    <line x1="100" y1="1018" x2="80" y2="1075" stroke="#388e3c" stroke-width="4"/>
    <text x="80" y="1055" font-size="10" fill="#388e3c" font-weight="bold">2</text>
    <line x1="85" y1="1078" x2="218" y2="1100" stroke="#388e3c" stroke-width="4"/>
    <text x="145" y="1100" font-size="10" fill="#388e3c" font-weight="bold">1</text>
    <line x1="228" y1="1103" x2="250" y2="995" stroke="#388e3c" stroke-width="4"/>
    <text x="250" y="1055" font-size="10" fill="#388e3c" font-weight="bold">3</text>
    <line x1="225" y1="1103" x2="200" y2="1057" stroke="#388e3c" stroke-width="4"/>
    <text x="222" y="1085" font-size="10" fill="#388e3c" font-weight="bold">3</text>
    
    <rect x="500" y="995" width="265" height="50" rx="6" fill="#e8f5e9"/>
    <text x="510" y="1015" font-size="12" font-weight="bold" fill="#388e3c">Final MST Weight = 2 + 1 + 3 + 3 = 9</text>
    <text x="510" y="1035" font-size="10" fill="#333">Edges: A-D, D-E, E-B, E-C</text>
  </g>
  
  <!-- Step 10: Prim's vs Kruskal's -->
  <g class="step" id="step10" data-narration="Prim's grows a single tree like BFS, while Kruskal's merges forests. Both find MST but differ in approach and data structures.">
    <rect x="20" y="1070" width="760" height="85" rx="8" fill="#f3e5f5" filter="url(#shadow)"/>
    <text x="40" y="1090" font-size="14" font-weight="bold" fill="#7b1fa2">Prim's vs Kruskal's Algorithm</text>
    
    <rect x="40" y="1105" width="345" height="40" rx="6" fill="white"/>
    <text x="50" y="1122" font-size="11" font-weight="bold" fill="#1976d2">Prim's Algorithm:</text>
    <text x="50" y="1138" font-size="10" fill="#333">Grows ONE tree | Like BFS | Uses cut property</text>
    
    <rect x="405" y="1105" width="360" height="40" rx="6" fill="white"/>
    <text x="415" y="1122" font-size="11" font-weight="bold" fill="#f57c00">Kruskal's Algorithm:</text>
    <text x="415" y="1138" font-size="10" fill="#333">Merges FORESTS | Sorts edges | Uses Union-Find</text>
  </g>
  
  <!-- Step 11: Comparison with Dijkstra's -->
  <g class="step" id="step11" data-narration="Both Prim's and Dijkstra's use priority queues with similar implementations, but differ in their distance calculations.">
    <rect x="20" y="1170" width="760" height="80" rx="8" fill="#e3f2fd" filter="url(#shadow)"/>
    <text x="40" y="1190" font-size="14" font-weight="bold" fill="#1976d2">Comparison with Dijkstra's Algorithm</text>
    
    <rect x="40" y="1205" width="350" height="35" rx="6" fill="white"/>
    <text x="50" y="1222" font-size="11" fill="#333">Prim's: Selects minimum edge weight directly</text>
    <text x="50" y="1235" font-size="10" fill="#666">(accumulated path cost)</text>
    
    <rect x="405" y="1205" width="360" height="35" rx="6" fill="white"/>
    <text x="415" y="1222" font-size="11" fill="#333">Dijkstra's: Accumulates shortest path distances</text>
    <text x="415" y="1235" font-size="10" fill="#666">(cumulative cost from source)</text>
  </g>
  
  <!-- Step 12: Applications -->
  <g class="step" id="step12" data-narration="Prim's algorithm applies to network design: telecommunications, electrical grids, road networks, and water distribution systems.">
    <rect x="20" y="1265" width="760" height="80" rx="8" fill="#e8f5e9" filter="url(#shadow)"/>
    <text x="40" y="1285" font-size="14" font-weight="bold" fill="#388e3c">Real-World Applications</text>
    
    <rect x="40" y="1300" width="175" height="35" rx="6" fill="white"/>
    <text x="50" y="1318" font-size="10" fill="#333">📡 Telecom Networks</text>
    
    <rect x="225" y="1300" width="175" height="35" rx="6" fill="white"/>
    <text x="235" y="1318" font-size="10" fill="#333">⚡ Electrical Grids</text>
    
    <rect x="410" y="1300" width="175" height="35" rx="6" fill="white"/>
    <text x="420" y="1318" font-size="10" fill="#333">🛣️ Road Networks</text>
    
    <rect x="595" y="1300" width="170" height="35" rx="6" fill="white"/>
    <text x="605" y="1318" font-size="10" fill="#333">💧 Water Distribution</text>
  </g>
  
  <!-- Step 13: Summary -->
  <g class="step" id="step13" data-narration="Key takeaways: Prim's finds MST using greedy approach, O(V²) to O(E+V log V) complexity, and the cut property ensures correctness.">
    <rect x="20" y="1360" width="760" height="75" rx="8" fill="url(#blueGrad)" filter="url(#shadow)"/>
    <text x="400" y="1382" text-anchor="middle" font-size="14" font-weight="bold" fill="white">Summary - Key Points to Remember</text>
    <text x="400" y="1402" text-anchor="middle" font-size="10" fill="white">• Greedy algorithm for MST • Cut property ensures correctness • O(V²) with arrays, O(E log V) with heap • Starts from any vertex • Builds single connected tree</text>
  </g>
</svg>