<svg width="420" height="400" data-topic-id="files-and-dictionaries-mkdir-and-rmdir-functions">
  <rect x="0" y="0" width="420" height="400" fill="#87CEEB" rx="10"/>
  <title>Files and Dictionaries: mkdir and rmdir functions</title>
  <defs>
    <linearGradient id="pastel-gradient" x1="0%" y1="0%" x2="100%" y2="0%">
      <stop offset="0%" stop-color="#C9E4CA"/>
      <stop offset="100%" stop-color="#E6DAC3"/>
    </linearGradient>
  </defs>
  <g transform="translate(10, 10)">
    <rect width="400" height="100" fill="#87CEEB" rx="10"/>
    <text x="10" y="15" font-size="18" font-family="Arial" fill="#000">Files and Dictionaries</text>
    <rect x="20" y="150" width="360" height="100" fill="#87CEEB" rx="10"/>
    <text x="20" y="160" font-size="18" font-family="Arial" fill="#000">mkdir Function</text>
    <rect x="20" y="220" width="360" height="100" fill="#87CEEB" rx="10"/>
    <text x="20" y="230" font-size="18" font-family="Arial" fill="#000">rmdir Function</text>
    <rect x="20" y="290" width="360" height="100" fill="#87CEEB" rx="10"/>
    <text x="20" y="300" font-size="18" font-family="Arial" fill="#000">Key Concepts</text>
    <animate attributeName="opacity" begin="0s" dur="2s" repeatCount="indefinite"/>
    <animate attributeName=" laten" begin="0s" dur="2s" repeatCount="indefinite"/>
  </g>
  <g transform="translate(20, 100)">
    <rect width="200" height="150" fill="#C9E4CA" rx="10"/>
    <text x="10" y="10" font-size="12" font-family="Arial" fill="#000">Directory</text>
    <rect x="10" y="50" width="180" height="50" fill="#C9E4CA" rx="10"/>
    <text x="10" y="60" font-size="12" font-family="Arial" fill="#000">File System</text>
    <rect x="10" y="110" width="180" height="50" fill="#C9E4CA" rx="10"/>
    <text x="10" y="120" font-size="12" font-family="Arial" fill="#000">Permissions</text>
    <animate attributeName="opacity" begin="0.5s" dur="1.5s" repeatCount="indefinite"/>
  </g>
  <g transform="translate(20, 200)">
    <rect width="200" height="150" fill="#E6DAC3" rx="10"/>
    <text x="10" y="10" font-size="12" font-family="Arial" fill="#000">mkdir Function</text>
    <rect x="10" y="50" width="180" height="50" fill="#E6DAC3" rx="10"/>
    <text x="10" y="60" font-size="12" font-family="Arial" fill="#000">Creates a new directory</text>
    <rect x="10" y="110" width="180" height="50" fill="#E6DAC3" rx="10"/>
    <text x="10" y="120" font-size="12" font-family="Arial" fill="#000">If it does not exist, it creates it</text>
    <rect x="10" y="170" width="180" height="50" fill="#E6DAC3" rx="10"/>
    <text x="10" y="180" font-size="12" font-family="Arial" fill="#000">If it already exists, it does nothing</text>
    <animate attributeName="opacity" begin="1.5s" dur="1.5s" repeatCount="indefinite"/>
  </g>
  <g transform="translate(20, 300)">
    <rect width="200" height="150" fill="#C9E4CA" rx="10"/>
    <text x="10" y="10" font-size="12" font-family="Arial" fill="#000">rmdir Function</text>
    <rect x="10" y="50" width="180" height="50" fill="#C9E4CA" rx="10"/>
    <text x="10" y="60" font-size="12" font-family="Arial" fill="#000">Removes an empty directory</text>
    <rect x="10" y="110" width="180" height="50" fill="#C9E4CA" rx="10"/>
    <text x="10" y="120" font-size="12" font-family="Arial" fill="#000">If it is not empty, it does nothing</text>
    <rect x="10" y="170" width="180" height="50" fill="#C9E4CA" rx="10"/>
    <text x="10" y="180" font-size="12" font-family="Arial" fill="#000">If it does not exist, it does nothing</text>
    <animate attributeName="opacity" begin="3s" dur="1.5s" repeatCount="indefinite"/>
  </g>
  <g transform="translate(20, 400)">
    <rect width="360" height="100" fill="#87CEEB" rx="10"/>
    <text x="0" y="10" font-size="18" font-family="Arial" fill="#000">Key Concepts</text>
    <rect x="0" y="60" width="340" height="100" fill="#87CEEB" rx="10"/>
    <text x="0" y="70" font-size="18" font-family="Arial" fill="#000">Directory</text>
    <rect x="10" y="110" width="330" height="50" fill="#87CEEB" rx="10"/>
    <text x="10" y="120" font-size="18" font-family="Arial" fill="#000">File System</text>
    <rect x="10" y="170" width="330" height="50" fill="#87CEEB" rx="10"/>
    <text x="10" y="180" font-size="18" font-family="Arial" fill="#000">Permissions</text>
    <animate attributeName="opacity" begin="4s" dur="1.5s" repeatCount="indefinite"/>
  </g>
  <g transform="translate(20, 500)">
    <rect width="360" height="100" fill="#E6DAC3" rx="10"/>
    <text x="0" y="10" font-size="18" font-family="Arial" fill="#000">Key Concepts</text>
    <rect x="0" y="60" width="340" height="100" fill="#E6DAC3" rx="10"/>
    <text x="0" y="70" font-size="18" font-family="Arial" fill="#000">Directory</text>
    <rect x="10" y="110" width="330" height="50" fill="#E6DAC3" rx="10"/>
    <text x="10" y="120" font-size="18" font-family="Arial" fill="#000">File System</text>
    <rect x="10" y="170" width="330" height="50" fill="#E6DAC3" rx="10"/>
    <text x="10" y="180" font-size="18" font-family="Arial" fill="#000">Permissions</text>
    <animate attributeName="opacity" begin="5.5s" dur="1.5s" repeatCount="indefinite"/>
  </g>
</svg>