<svg viewBox="0 0 800 1400" xmlns="http://www.w3.org/2000/svg">
  <defs>
    <linearGradient id="bgGrad" x1="0%" y1="0%" x2="100%" y2="100%">
      <stop offset="0%" stop-color="#f8f9fa"/>
      <stop offset="100%" stop-color="#e9ecef"/>
    </linearGradient>
    <linearGradient id="blueGrad" x1="0%" y1="0%" x2="100%" y2="100%">
      <stop offset="0%" stop-color="#e3f2fd"/>
      <stop offset="100%" stop-color="#bbdefb"/>
    </linearGradient>
    <linearGradient id="greenGrad" x1="0%" y1="0%" x2="100%" y2="100%">
      <stop offset="0%" stop-color="#e8f5e9"/>
      <stop offset="100%" stop-color="#c8e6c9"/>
    </linearGradient>
    <linearGradient id="orangeGrad" x1="0%" y1="0%" x2="100%" y2="100%">
      <stop offset="0%" stop-color="#fff3e0"/>
      <stop offset="100%" stop-color="#ffe0b2"/>
    </linearGradient>
    <linearGradient id="purpleGrad" x1="0%" y1="0%" x2="100%" y2="100%">
      <stop offset="0%" stop-color="#f3e5f5"/>
      <stop offset="100%" stop-color="#e1bee7"/>
    </linearGradient>
    <filter id="shadow" x="-20%" y="-20%" width="140%" height="140%">
      <feDropShadow dx="2" dy="3" stdDeviation="3" flood-color="#000" flood-opacity="0.15"/>
    </filter>
    <marker id="arrowBlue" markerWidth="10" markerHeight="10" refX="9" refY="3" orient="auto">
      <path d="M0,0 L0,6 L9,3 z" fill="#1976d2"/>
    </marker>
    <marker id="arrowGreen" markerWidth="10" markerHeight="10" refX="9" refY="3" orient="auto">
      <path d="M0,0 L0,6 L9,3 z" fill="#388e3c"/>
    </marker>
    <marker id="arrowOrange" markerWidth="10" markerHeight="10" refX="9" refY="3" orient="auto">
      <path d="M0,0 L0,6 L9,3 z" fill="#ff9800"/>
    </marker>
  </defs>
  
  <style>
    @keyframes fadeInSlide {
      from { opacity: 0; transform: translateY(20px); }
      to { opacity: 1; transform: translateY(0); }
    }
    @keyframes scaleIn {
      from { opacity: 0; transform: scale(0.85); }
      to { opacity: 1; transform: scale(1); }
    }
    @keyframes textReveal {
      from { opacity: 0; transform: translateX(-10px); }
      to { opacity: 1; transform: translateX(0); }
    }
    @keyframes pulse {
      0%, 100% { transform: scale(1); }
      50% { transform: scale(1.03); }
    }
    @keyframes drawLine {
      from { stroke-dashoffset: 500; }
      to { stroke-dashoffset: 0; }
    }
    @keyframes matrixAppear {
      0% { opacity: 0; }
      100% { opacity: 1; }
    }
    .step { animation: fadeInSlide 0.6s ease-out; }
    .step rect {
      animation: scaleIn 0.5s cubic-bezier(0.34, 1.56, 0.64, 1);
      transform-origin: center;
    }
    .step text { animation: textReveal 0.4s ease-out 0.2s backwards; }
    .matrix-cell { font-family: 'Courier New', monospace; }
    .formula { font-family: 'Times New Roman', serif; font-style: italic; }
    .drawn-line {
      stroke-dasharray: 500;
      stroke-dashoffset: 500;
      animation: drawLine 1.5s ease-out forwards;
    }
  </style>

  <rect x="0" y="0" width="800" height="1400" fill="url(#bgGrad)"/>

  <g class="step" id="step0" data-narration="Welcome to Stochastic Matrices - a fundamental concept for modeling random processes in computer science and probability theory.">
    <rect x="150" y="10" width="500" height="45" rx="10" fill="url(#blueGrad)" filter="url(#shadow)"/>
    <text x="400" y="42" text-anchor="middle" font-size="22" font-weight="bold" fill="#1565c0">Stochastic Matrices</text>
    <text x="400" y="62" text-anchor="middle" font-size="12" fill="#546e7a">Foundations of Markov Chains and Probability Theory</text>
  </g>

  <g class="step" id="step1" data-narration="Stochastic matrices model random processes that evolve over time, from Google PageRank to weather prediction and AI systems.">
    <rect x="40" y="75" width="720" height="85" rx="8" fill="white" filter="url(#shadow)"/>
    <text x="60" y="95" font-size="14" font-weight="bold" fill="#1976d2">Why Do We Need Stochastic Matrices?</text>
    <text x="60" y="118" font-size="11" fill="#455a64">They model systems that transition between states randomly over time - essential for:</text>
    <rect x="60" y="128" width="80" height="22" rx="4" fill="#e3f2fd"/>
    <text x="100" y="144" text-anchor="middle" font-size="10" fill="#1976d2">PageRank</text>
    <rect x="150" y="128" width="80" height="22" rx="4" fill="#e8f5e9"/>
    <text x="190" y="144" text-anchor="middle" font-size="10" fill="#388e3c">Queue Theory</text>
    <rect x="240" y="128" width="80" height="22" rx="4" fill="#fff3e0"/>
    <text x="280" y="144" text-anchor="middle" font-size="10" fill="#ff9800">Game AI</text>
    <rect x="330" y="128" width="90" height="22" rx="4" fill="#f3e5f5"/>
    <text x="375" y="144" text-anchor="middle" font-size="10" fill="#9c27b0">Speech Recog.</text>
    <path d="M480 105 L510 105" stroke="#1976d2" stroke-width="2" marker-end="url(#arrowBlue)"/>
    <text x="520" y="109" font-size="11" fill="#37474f">Markov Chains</text>
  </g>

  <g class="step" id="step2" data-narration="A stochastic matrix is a square matrix where all entries are probabilities between 0 and 1, and each row sums to exactly 1.">
    <rect x="40" y="175" width="720" height="85" rx="8" fill="white" filter="url(#shadow)"/>
    <text x="60" y="195" font-size="14" font-weight="bold" fill="#1976d2">Definition: Stochastic Matrix</text>
    <text x="60" y="218" font-size="11" fill="#455a64">A square matrix P = [pij] is stochastic if:</text>
    <rect x="60" y="228" width="320" height="24" rx="4" fill="#e8f5e9"/>
    <text x="70" y="245" font-size="12" fill="#2e7d32" class="formula">1. Non-negativity: 0 &lt;= pij &lt;= 1</text>
    <rect x="400" y="228" width="340" height="24" rx="4" fill="#e3f2fd"/>
    <text x="410" y="245" font-size="12" fill="#1565c0" class="formula">2. Row Sum: Sum(j) pij = 1 for all i</text>
  </g>

  <g class="step" id="step3" data-narration="Each row represents a probability distribution - from state i, the system must transition to some state j with total probability 1.">
    <rect x="40" y="275" width="720" height="85" rx="8" fill="white" filter="url(#shadow)"/>
    <text x="60" y="295" font-size="14" font-weight="bold" fill="#1976d2">Visual Interpretation</text>
    <text x="60" y="318" font-size="11" fill="#455a64">Entry pij = Probability of transitioning from state i to state j in one step</text>
    <rect x="100" y="330" width="180" height="20" rx="3" fill="#e3f2fd" stroke="#1976d2" stroke-width="1"/>
    <text x="190" y="344" text-anchor="middle" font-size="10" fill="#1565c0" class="matrix-cell">p11</text>
    <text x="230" y="344" text-anchor="middle" font-size="10" fill="#1565c0" class="matrix-cell">p12</text>
    <text x="270" y="344" text-anchor="middle" font-size="10" fill="#1565c0" class="matrix-cell">...</text>
    <rect x="100" y="350" width="180" height="20" rx="3" fill="#e8f5e9" stroke="#388e3c" stroke-width="1"/>
    <text x="190" y="364" text-anchor="middle" font-size="10" fill="#2e7d32" class="matrix-cell">p21</text>
    <text x="230" y="364" text-anchor="middle" font-size="10" fill="#2e7d32" class="matrix-cell">p22</text>
    <text x="270" y="364" text-anchor="middle" font-size="10" fill="#2e7d32" class="matrix-cell">...</text>
    <path d="M310 345 L350 345" stroke="#ff9800" stroke-width="2" marker-end="url(#arrowOrange)"/>
    <text x="360" y="349" font-size="11" fill="#ef6c00">= 1</text>
    <text x="100" y="325" font-size="9" fill="#78909c">Row i:</text>
  </g>

  <g class="step" id="step4" data-narration="A state vector is a column vector where each entry represents the probability of being in that corresponding state.">
    <rect x="40" y="375" width="720" height="85" rx="8" fill="white" filter="url(#shadow)"/>
    <text x="60" y="395" font-size="14" font-weight="bold" fill="#9c27b0">State Vectors (Probability Vectors)</text>
    <text x="60" y="418" font-size="11" fill="#455a64">A column vector representing probability distribution over all states:</text>
    <text x="180" y="430" font-size="14" fill="#7b1fa2" class="formula">x =</text>
    <rect x="200" y="412" width="50" height="40" rx="4" fill="#f3e5f5" stroke="#9c27b0" stroke-width="1"/>
    <text x="225" y="428" text-anchor="middle" font-size="11" fill="#7b1fa2" class="matrix-cell">x1</text>
    <text x="225" y="444" text-anchor="middle" font-size="11" fill="#7b1fa2" class="matrix-cell">x2</text>
    <text x="280" y="430" font-size="12" fill="#455a64">where xi &gt;= 0 and</text>
    <text x="370" y="430" font-size="14" fill="#7b1fa2" class="formula">Sigma xi = 1</text>
    <rect x="480" y="418" width="260" height="32" rx="4" fill="#fff3e0"/>
    <text x="495" y="435" font-size="10" fill="#e65100">Example: [0.8, 0.2]T</text>
    <text x="600" y="435" font-size="10" fill="#455a64">= 80% state1, 20% state2</text>
  </g>

  <g class="step" id="step5" data-narration="The future state vector is found by multiplying the current state vector by the stochastic matrix - this is the engine of Markov chains.">
    <rect x="40" y="475" width="720" height="85" rx="8" fill="white" filter="url(#shadow)"/>
    <text x="60" y="495" font-size="14" font-weight="bold" fill="#388e3c">State Evolution: The Core Equation</text>
    <text x="60" y="518" font-size="11" fill="#455a64">To find the next state, multiply the current state vector by the transition matrix:</text>
    <rect x="80" y="528" width="200" height="24" rx="4" fill="#e8f5e9"/>
    <text x="90" y="545" font-size="14" fill="#2e7d32" class="formula">x(k+1) = P * x(k)</text>
    <path d="M300 540 L340 540" stroke="#388e3c" stroke-width="2" marker-end="url(#arrowGreen)"/>
    <text x="360" y="530" font-size="10" fill="#455a64">Given x(k), compute x(k+1) by</text>
    <text x="360" y="545" font-size="10" fill="#455a64">matrix-vector multiplication</text>
    <rect x="550" y="528" width="190" height="24" rx="4" fill="#e3f2fd"/>
    <text x="560" y="545" font-size="11" fill="#1565c0">P times sunny equals tomorrow</text>
  </g>

  <g class="step" id="step6" data-narration="Let us explore a weather model with Sunny and Rainy states to see how stochastic matrices work in practice.">
    <rect x="40" y="575" width="720" height="85" rx="8" fill="white" filter="url(#shadow)"/>
    <text x="60" y="595" font-size="14" font-weight="bold" fill="#ff9800">Example: Weather Model</text>
    <text x="60" y="618" font-size="11" fill="#455a64">Two states: Sunny (S) and Rainy (R). Transition rules:</text>
    <rect x="60" y="628" width="140" height="24" rx="4" fill="#fff8e1"/>
    <text x="70" y="645" font-size="11" fill="#f57f17">If Sunny today:</text>
    <text x="160" y="645" font-size="10" fill="#455a64">80% Sunny, 20% Rainy tomorrow</text>
    <rect x="250" y="628" width="140" height="24" rx="4" fill="#e3f2fd"/>
    <text x="260" y="645" font-size="11" fill="#1976d2">If Rainy today:</text>
    <text x="350" y="645" font-size="10" fill="#455a64">60% Sunny, 40% Rainy tomorrow</text>
  </g>

  <g class="step" id="step7" data-narration="The transition matrix P captures all weather transition probabilities - rows sum to 1, confirming it is a valid stochastic matrix.">
    <rect x="40" y="675" width="720" height="85" rx="8" fill="white" filter="url(#shadow)"/>
    <text x="60" y="695" font-size="14" font-weight="bold" fill="#ff9800">Transition Matrix P</text>
    <text x="130" y="720" font-size="11" fill="#455a64" font-weight="bold">From To</text>
    <text x="230" y="720" font-size="11" fill="#f57f17" font-weight="bold">S</text>
    <text x="300" y="720" font-size="11" fill="#1976d2" font-weight="bold">R</text>
    <rect x="180" y="728" width="60" height="25" rx="4" fill="#fff8e1"/>
    <text x="210" y="746" text-anchor="middle" font-size="12" fill="#f57f17" font-weight="bold">S</text>
    <rect x="250" y="728" width="60" height="25" rx="4" fill="#fff8e1" stroke="#f57f17" stroke-width="2"/>
    <text x="280" y="746" text-anchor="middle" font-size="12" fill="#f57f17">0.8</text>
    <rect x="320" y="728" width="60" height="25" rx="4" fill="#e3f2fd" stroke="#1976d2" stroke-width="2"/>
    <text x="350" y="746" text-anchor="middle" font-size="12" fill="#1976d2">0.2</text>
    <rect x="180" y="758" width="60" height="25" rx="4" fill="#e3f2fd"/>
    <text x="210" y="776" text-anchor="middle" font-size="12" fill="#1976d2" font-weight="bold">R</text>
    <rect x="250" y="758" width="60" height="25" rx="4" fill="#fff8e1" stroke="#f57f17" stroke-width="2"/>
    <text x="280" y="776" text-anchor="middle" font-size="12" fill="#f57f17">0.6</text>
    <rect x="320" y="758" width="60" height="25" rx="4" fill="#e3f2fd" stroke="#1976d2" stroke-width="2"/>
    <text x="350" y="776" text-anchor="middle" font-size="12" fill="#1976d2">0.4</text>
    <path d="M400 748 L430 748" stroke="#4caf50" stroke-width="2" marker-end="url(#arrowGreen)"/>
    <text x="440" y="752" font-size="11" fill="#2e7d32">Row 1: 0.8+0.2=1</text>
    <path d="M400 778 L430 778" stroke="#4caf50" stroke-width="2" marker-end="url(#arrowGreen)"/>
    <text x="440" y="782" font-size="11" fill="#2e7d32">Row 2: 0.6+0.4=1</text>
  </g>

  <g class="step" id="step8" data-narration="Starting from sunny weather (x0 = (1,0)), we multiply by P to find tomorrow weather distribution: x1 = (0.8, 0.2).">
    <rect x="40" y="775" width="720" height="85" rx="8" fill="white" filter="url(#shadow)"/>
    <text x="60" y="795" font-size="14" font-weight="bold" fill="#ff9800">Step 1: Today State leads to Tomorrow</text>
    <text x="60" y="818" font-size="11" fill="#455a64">If today is Sunny (100%), find tomorrow probability distribution:</text>
    <text x="100" y="842" font-size="12" fill="#455a64">x0 =</text>
    <rect x="135" y="828" width="40" height="30" rx="3" fill="#fff8e1"/>
    <text x="155" y="843" text-anchor="middle" font-size="11" fill="#f57f17">1</text>
    <text x="155" y="854" text-anchor="middle" font-size="11" fill="#1976d2">0</text>
    <text x="190" y="843" font-size="14" fill="#455a64">x</text>
    <rect x="210" y="828" width="80" height="30" rx="3" fill="#e8f5e9" stroke="#388e3c"/>
    <text x="230" y="840" text-anchor="middle" font-size="9" fill="#2e7d32">0.8 0.2</text>
    <text x="230" y="852" text-anchor="middle" font-size="9" fill="#2e7d32">0.6 0.4</text>
    <text x="310" y="843" font-size="14" fill="#455a64">=</text>
    <text x="340" y="842" font-size="12" fill="#455a64">x1 =</text>
    <rect x="375" y="828" width="40" height="30" rx="3" fill="#e3f2fd" stroke="#1976d2"/>
    <text x="395" y="843" text-anchor="middle" font-size="11" fill="#1565c0">0.8</text>
    <text x="395" y="854" text-anchor="middle" font-size="11" fill="#1565c0">0.2</text>
    <rect x="450" y="832" width="290" height="24" rx="4" fill="#fff3e0"/>
    <text x="460" y="847" font-size="10" fill="#e65100">Tomorrow: 80% Sunny, 20% Rainy</text>
  </g>

  <g class="step" id="step9" data-narration="To find probabilities after 2 days, we compute P squared. The entry (P2)11 = 0.76 gives probability of being sunny after 2 days.">
    <rect x="40" y="875" width="720" height="85" rx="8" fill="white" filter="url(#shadow)"/>
    <text x="60" y="895" font-size="14" font-weight="bold" fill="#ff9800">Step 2: Two-Step Transition (P squared)</text>
    <text x="60" y="918" font-size="11" fill="#455a64">Compute P squared to find probabilities after 2 days:</text>
    <text x="80" y="945" font-size="12" fill="#455a64">P squared = P x P =</text>
    <rect x="180" y="930" width="150" height="30" rx="3" fill="#e8f5e9" stroke="#388e3c"/>
    <text x="205" y="942" text-anchor="middle" font-size="10" fill="#2e7d32">0.8*0.8+0.2*0.6</text>
    <text x="255" y="942" text-anchor="middle" font-size="10" fill="#2e7d32">0.8*0.2+0.2*0.4</text>
    <text x="205" y="954" text-anchor="middle" font-size="10" fill="#2e7d32">0.6*0.8+0.4*0.6</text>
    <text x="255" y="954" text-anchor="middle" font-size="10" fill="#2e7d32">0.6*0.2+0.4*0.4</text>
    <text x="350" y="948" font-size="14" fill="#455a64">=</text>
    <rect x="370" y="930" width="100" height="30" rx="3" fill="#f3e5f5" stroke="#9c27b0" stroke-width="2"/>
    <text x="395" y="942" text-anchor="middle" font-size="11" fill="#7b1fa2">0.76</text>
    <text x="420" y="942" text-anchor="middle" font-size="11" fill="#7b1fa2">0.24</text>
    <text x="395" y="954" text-anchor="middle" font-size="11" fill="#7b1fa2">0.72</text>
    <text x="420" y="954" text-anchor="middle" font-size="11" fill="#7b1fa2">0.28</text>
    <rect x="368" y="928" width="48" height="16" rx="2" fill="none" stroke="#f44336" stroke-width="2">
      <animate attributeName="opacity" values="1;0.5;1" dur="1.5s" repeatCount="indefinite"/>
    </rect>
    <text x="480" y="942" font-size="10" fill="#f44336">(P squared)11 = 0.76</text>
  </g>

  <g class="step" id="step10" data-narration="Starting from sunny weather, after 2 days there is a 76% chance of sunshine and 24% chance of rain - the system is converging.">
    <rect x="40" y="975" width="720" height="85" rx="8" fill="white" filter="url(#shadow)"/>
    <text x="60" y="995" font-size="14" font-weight="bold" fill="#4caf50">Final Answer</text>
    <text x="60" y="1018" font-size="11" fill="#455a64">x2 = P squared times x0 (starting from Sunny):</text>
    <text x="160" y="1042" font-size="12" fill="#455a64">x2 =</text>
    <rect x="195" y="1028" width="50" height="30" rx="3" fill="#e8f5e9" stroke="#388e3c" stroke-width="2"/>
    <text x="220" y="1043" text-anchor="middle" font-size="12" fill="#2e7d32" font-weight="bold">0.76</text>
    <text x="220" y="1054" text-anchor="middle" font-size="12" fill="#2e7d32" font-weight="bold">0.24</text>
    <rect x="300" y="1033" width="200" height="20" rx="3" fill="#e0e0e0"/>
    <rect x="300" y="1033" width="152" height="20" rx="3" fill="#ff9800">
      <animate attributeName="width" from="0" to="152" dur="1s" fill="freeze"/>
    </rect>
    <text x="310" y="1047" font-size="10" fill="white">76% Sunny</text>
    <text x="420" y="1047" font-size="10" fill="#455a64">24% Rainy</text>
    <rect x="520" y="1028" width="220" height="30" rx="4" fill="#e8f5e9"/>
    <text x="530" y="1043" font-size="11" fill="#2e7d32">After 2 days from sunny:</text>
    <text x="530" y="1054" font-size="10" fill="#455a64">P(S)=0.76, P(R)=0.24</text>
  </g>

  <g class="step" id="step11" data-narration="The power of stochastic matrices: P to the m gives m-step transition probabilities. Higher powers often converge to a steady-state distribution.">
    <rect x="40" y="1075" width="720" height="85" rx="8" fill="white" filter="url(#shadow)"/>
    <text x="60" y="1095" font-size="14" font-weight="bold" fill="#9c27b0">Multi-Step Transitions: P to power m</text>
    <text x="60" y="1118" font-size="11" fill="#455a64">The matrix P raised to power m gives m-step transition probabilities:</text>
    <rect x="60" y="1128" width="250" height="24" rx="4" fill="#f3e5f5"/>
    <text x="70" y="1145" font-size="13" fill="#7b1fa2" class="formula">(P to power m)ij = Probability of going from i to j in m steps</text>
    <text x="340" y="1140" font-size="11" fill="#455a64">P1 = P</text>
    <text x="410" y="1140" font-size="11" fill="#455a64">P2 = PxP</text>
    <text x="490" y="1140" font-size="11" fill="#455a64">P3 = P2xP</text>
    <rect x="560" y="1130" width="180" height="24" rx="4" fill="#fff8e1"/>
    <text x="570" y="1146" font-size="10" fill="#f57f17">As m approaches infinity, P to m approaches Steady State</text>
  </g>

  <g class="step" id="step12" data-narration="Key points: Stochastic matrices have non-negative entries with row sums of 1. State evolution follows x(k+1) = P times x(k).">
    <rect x="40" y="1175" width="720" height="85" rx="8" fill="white" filter="url(#shadow)"/>
    <text x="60" y="1195" font-size="14" font-weight="bold" fill="#1565c0">Key Takeaways</text>
    <rect x="60" y="1208" width="210" height="42" rx="4" fill="#e3f2fd"/>
    <text x="70" y="1223" font-size="11" font-weight="bold" fill="#1976d2">Definition</text>
    <text x="70" y="1238" font-size="10" fill="#455a64">Square matrix with 0&lt;=pij&lt;=1</text>
    <text x="70" y="1248" font-size="10" fill="#455a64">and each row sums to 1</text>
    <rect x="280" y="1208" width="210" height="42" rx="4" fill="#e8f5e9"/>
    <text x="290" y="1223" font-size="11" font-weight="bold" fill="#388e3c">State Evolution</text>
    <text x="290" y="1238" font-size="10" fill="#455a64">x(k+1) = P * x(k)</text>
    <text x="290" y="1248" font-size="10" fill="#455a64">Matrix-vector multiplication</text>
    <rect x="500" y="1208" width="240" height="42" rx="4" fill="#fff3e0"/>
    <text x="510" y="1223" font-size="11" font-weight="bold" fill="#ff9800">Multi-Step</text>
    <text x="510" y="1238" font-size="10" fill="#455a64">P to m gives m-step probabilities</text>
    <text x="510" y="1248" font-size="10" fill="#455a64">Entry (P to m)ij = P(i to j in m steps)</text>
  </g>

  <g class="step" id="step13" data-narration="Stochastic matrices power Google PageRank, network analysis, and machine learning. This concept leads to steady-state distributions in Markov chains.">
    <rect x="40" y="1275" width="720" height="85" rx="8" fill="white" filter="url(#shadow)"/>
    <text x="60" y="1295" font-size="14" font-weight="bold" fill="#7b1fa2">Applications and Next Steps</text>
    <text x="60" y="1318" font-size="11" fill="#455a64">Real-world applications of stochastic matrices:</text>
    <rect x="60" y="1328" width="100" height="24" rx="4" fill="#e3f2fd"/>
    <text x="110" y="1344" text-anchor="middle" font-size="10" fill="#1976d2">Google PageRank</text>
    <rect x="170" y="1328" width="100" height="24" rx="4" fill="#e8f5e9"/>
    <text x="220" y="1344" text-anchor="middle" font-size="10" fill="#388e3c">Network Analysis</text>
    <rect x="280" y="1328" width="100" height="24" rx="4" fill="#fff3e0"/>
    <text x="330" y="1344" text-anchor="middle" font-size="10" fill="#ff9800">Hidden Markov Models</text>
    <rect x="390" y="1328" width="100" height="24" rx="4" fill="#f3e5f5"/>
    <text x="440" y="1344" text-anchor="middle" font-size="10" fill="#9c27b0">Queueing Theory</text>
    <rect x="500" y="1328" width="120" height="24" rx="4" fill="#ffebee"/>
    <text x="560" y="1344" text-anchor="middle" font-size="10" fill="#f44336">Population Genetics</text>
    <rect x="630" y="1328" width="110" height="24" rx="4" fill="#e0e0e0"/>
    <text x="685" y="1344" text-anchor="middle" font-size="9" fill="#616161">to Steady State</text>
  </g>
</svg>