<svg width="420" height="400" xmlns="http://www.w3.org/2000/svg" data-topic-id="critical-section-problem">
<defs>
<linearGradient id="pastel-gradient" x1="0%" y1="0%" x2="100%" y2="0%">
<stop offset="0%" stop-color="#C7B8EA" stop-opacity="1"/>
<stop offset="100%" stop-color="#C5CAE9" stop-opacity="1"/>
</linearGradient>
</defs>

<g transform="translate(0, 100)">
<title>Critical Section Problem</title>

<rect x="0" y="0" width="420" height="150" fill="url(#pastel-gradient)"/>
<rect x="0" y="150" width="420" height="150" fill="#F7F7F7" rx="10" />
 

<g transform="translate(20, 180)">
<g data-narration="Critical Section">
<rect x="0" y="0" width="100" height="20" fill="#FFF" rx="5"/>
<text x="10" y="10" font-size="12" font-family="Arial" fill="#2F4F7F">Critical Section</text>
<animateTransform attributeName="transform" type="scale" from="1 1" to="2 2" dur="500ms" begin="0s" delay="0s"/>
</g>
</g>

<g transform="translate(140, 180)">
<g data-narration="Shared Resource">
<rect x="0" y="0" width="100" height="20" fill="#FFF" rx="5"/>
<text x="10" y="10" font-size="12" font-family="Arial" fill="#2F4F7F">Shared Resource</text>
<animateTransform attributeName="transform" type="scale" from="1 1" to="2 2" dur="500ms" begin="0s" delay="200ms"/>
</g>
</g>

<g transform="translate(260, 180)">
<g data-narration="Mutex">
<rect x="0" y="0" width="100" height="20" fill="#FFF" rx="5"/>
<text x="10" y="10" font-size="12" font-family="Arial" fill="#2F4F7F">Mutex</text>
<animateTransform attributeName="transform" type="scale" from="1 1" to="2 2" dur="500ms" begin="400ms" delay="0s"/>
</g>
</g>

<g transform="translate(380, 180)">
<g data-narration="Semaphore">
<rect x="0" y="0" width="100" height="20" fill="#FFF" rx="5"/>
<text x="10" y="10" font-size="12" font-family="Arial" fill="#2F4F7F">Semaphore</text>
<animateTransform attributeName="transform" type="scale" from="1 1" to="2 2" dur="500ms" begin="600ms" delay="0s"/>
</g>
</g>

<g transform="translate(0, 350)">
<footer>Critical Section Problem</footer>
</g>

<g transform="translate(0, 120)">
<line x1="200" y1="150" x2="200" y2="300" stroke="#2F4F7F" stroke-width="2" stroke-dasharray="3,3" />
<line x1="200" y1="300" x2="200" y2="150" stroke="#2F4F7F" stroke-width="2" stroke-dasharray="3,3" />
<line x1="100" y1="150" x2="300" y2="150" stroke="#2F4F7F" stroke-width="2" stroke-dasharray="3,3" />
<line x1="100" y1="300" x2="300" y2="300" stroke="#2F4F7F" stroke-width="2" stroke-dasharray="3,3" />
<line x1="100" y1="150" x2="100" y2="300" stroke="#2F4F7F" stroke-width="2" stroke-dasharray="3,3" />
<line x1="300" y1="150" x2="300" y2="300" stroke="#2F4F7F" stroke-width="2" stroke-dasharray="3,3" />
</g>

<g transform="translate(140, 240)">
<line x1="350" y1="300" x2="400" y2="300" stroke="#2F4F7F" stroke-width="2" stroke-dasharray="3,3" style="opacity: 0.5"/>
<line x1="350" y1="300" x2="400" y2="300" stroke="#2F4F7F" stroke-width="2" stroke-dasharray="3,3" style="opacity: 0.5"/>
<line x1="400" y1="300" x2="450" y2="300" stroke="#2F4F7F" stroke-width="2" stroke-dasharray="3,3" style="opacity: 0.5"/>
<line x1="400" y1="300" x2="450" y2="300" stroke="#2F4F7F" stroke-width="2" stroke-dasharray="3,3" style="opacity: 0.5"/>
<line x1="350" y1="300" x2="350" y2="300" stroke="#2F4F7F" stroke-width="2" stroke-dasharray="3,3" style="opacity: 0.5"/>
<line x1="400" y1="300" x2="400" y2="300" stroke="#2F4F7F" stroke-width="2" stroke-dasharray="3,3" style="opacity: 0.5"/>
</g>

<g transform="translate(260, 240)">
<line x1="300" y1="300" x2="350" y2="300" stroke="#2F4F7F" stroke-width="2" stroke-dasharray="3,3" style="opacity: 0.5"/>
<line x1="300" y1="300" x2="350" y2="300" stroke="#2F4F7F" stroke-width="2" stroke-dasharray="3,3" style="opacity: 0.5"/>
<line x1="350" y1="300" x2="400" y2="300" stroke="#2F4F7F" stroke-width="2" stroke-dasharray="3,3" style="opacity: 0.5"/>
<line x1="350" y1="300" x2="400" y2="300" stroke="#2F4F7F" stroke-width="2" stroke-dasharray="3,3" style="opacity: 0.5"/>
<line x1="300" y1="300" x2="300" y2="300" stroke="#2F4F7F" stroke-width="2" stroke-dasharray="3,3" style="opacity: 0.5"/>
<line x1="350" y1="300" x2="350" y2="300" stroke="#2F4F7F" stroke-width="2" stroke-dasharray="3,3" style="opacity: 0.5"/>
</g>

<g transform="translate(380, 240)">
<line x1="350" y1="300" x2="350" y2="300" stroke="#2F4F7F" stroke-width="2" stroke-dasharray="3,3" style="opacity: 0.5"/>
<line x1="400" y1="300" x2="400" y2="300" stroke="#2F4F7F" stroke-width="2" stroke-dasharray="3,3" style="opacity: 0.5"/>
<line x1="400" y1="300" x2="450" y2="300" stroke="#2F4F7F" stroke-width="2" stroke-dasharray="3,3" style="opacity: 0.5"/>
<line x1="400" y1="300" x2="450" y2="300" stroke="#2F4F7F" stroke-width="2" stroke-dasharray="3,3" style="opacity: 0.5"/>
<line x1="350" y1="300" x2="350" y2="300" stroke="#2F4F7F" stroke-width="2" stroke-dasharray="3,3" style="opacity: 0.5"/>
<line x1="400" y1="300" x2="400" y2="300" stroke="#2F4F7F" stroke-width="2" stroke-dasharray="3,3" style="opacity: 0.5"/>
</g>

<g transform="translate(140, 180)">
<line x1="50" y1="250" x2="250" y2="250" stroke="#2F4F7F" stroke-width="2" stroke-dasharray="3,3" style="opacity: 0.5"/>
<line x1="50" y1="250" x2="50" y2="250" stroke="#2F4F7F" stroke-width="2" stroke-dasharray="3,3" style="opacity: 0.5"/>
<line x1="250" y1="250" x2="250" y2="250" stroke="#2F4F7F" stroke-width="2" stroke-dasharray="3,3" style="opacity: 0.5"/>
<line x1="250" y1="250" x2="250" y2="250" stroke="#2F4F7F" stroke-width="2" stroke-dasharray="3,3" style="opacity: 0.5"/>
</g>

<g transform="translate(260, 180)">
<line x1="50" y1="250" x2="250" y2="250" stroke="#2F4F7F" stroke-width="2" stroke-dasharray="3,3" style="opacity: 0.5"/>
<line x1="50" y1="250" x2="50" y2="250" stroke="#2F4F7F" stroke-width="2" stroke-dasharray="3,3" style="opacity: 0.5"/>
<line x1="250" y1="250" x2="250" y2="250" stroke="#2F4F7F" stroke-width="2" stroke-dasharray="3,3" style="opacity: 0.5"/>
<line x1="250" y1="250" x2="250" y2="250" stroke="#2F4F7F" stroke-width="2" stroke-dasharray="3,3" style="opacity: 0.5"/>
<line x1="50" y1="250" x2="50" y2="250" stroke="#2F4F7F" stroke-width="2" stroke-dasharray="3,3" style="opacity: 0.5"/>
<line x1="250" y1="250" x2="250" y2="250" stroke="#2F4F7F" stroke-width="2" stroke-dasharray="3,3" style="opacity: 0.5"/>
</g>

<g transform="translate(380, 180)">
<line x1="50" y1="250" x2="250" y2="250" stroke="#2F4F7F" stroke-width="2" stroke-dasharray="3,3" style="opacity: 0.5"/>
<line x1="50" y1="250" x2="50" y2="250" stroke="#2F4F7F" stroke-width="2" stroke-dasharray="3,3" style="opacity: 0.5"/>
<line x1="250" y1="250" x2="250" y2="250" stroke="#2F4F7F" stroke-width="2" stroke-dasharray="3,3" style="opacity: 0.5"/>
<line x1="250" y1="250" x2="250" y2="250" stroke="#2F4F7F" stroke-width="2" stroke-dasharray="3,3" style="opacity: 0.5"/>
<line x1="250" y1="250" x2="250" y2="250" stroke="#2F4F7F" stroke-width="2" stroke-dasharray="3,3" style="opacity: 0.5"/>
<line x1="50" y1="250" x2="50" y2="250" stroke="#2F4F7F" stroke-width="2" stroke-dasharray="3,3" style="opacity: 0.5"/>
<line x1="250" y1="250" x2="250" y2="250" stroke="#2F4F7F" stroke-width="2" stroke-dasharray="3,3" style="opacity: 0.5"/>
</g>

<animateTransform attributeName="transform" type="translate" from="0 0" to="0 -100" dur="1000ms" begin="0s"/>
<animateTransform attributeName="transform" type="translate" from="0 0" to="0 100" dur="1000ms" begin="0s"/>
<animateTransform attributeName="transform" type="translate" from="0 0" to="0 -100" dur="1000ms" begin="0s"/>
<animateTransform attributeName="transform" type="translate" from="0 0" to="0 100" dur="1000ms" begin="0s"/>
</svg>