<svg viewBox="0 0 800 2000" xmlns="http://www.w3.org/2000/svg">
<defs>
  <linearGradient id="titleGrad" x1="0%" y1="0%" x2="100%" y2="100%">
    <stop offset="0%" style="stop-color:#1565c0"/>
    <stop offset="100%" style="stop-color:#42a5f5"/>
  </linearGradient>
  <linearGradient id="greenGrad" x1="0%" y1="0%" x2="100%" y2="100%">
    <stop offset="0%" style="stop-color:#2e7d32"/>
    <stop offset="100%" style="stop-color:#66bb6a"/>
  </linearGradient>
  <linearGradient id="orangeGrad" x1="0%" y1="0%" x2="100%" y2="100%">
    <stop offset="0%" style="stop-color:#e65100"/>
    <stop offset="100%" style="stop-color:#ff9800"/>
  </linearGradient>
  <linearGradient id="purpleGrad" x1="0%" y1="0%" x2="100%" y2="100%">
    <stop offset="0%" style="stop-color:#6a1b9a"/>
    <stop offset="100%" style="stop-color:#ab47bc"/>
  </linearGradient>
  <linearGradient id="redGrad" x1="0%" y1="0%" x2="100%" y2="100%">
    <stop offset="0%" style="stop-color:#c62828"/>
    <stop offset="100%" style="stop-color:#ef5350"/>
  </linearGradient>
  <filter id="shadow" x="-20%" y="-20%" width="140%" height="140%">
    <feDropShadow dx="2" dy="2" stdDeviation="3" flood-opacity="0.2"/>
  </filter>
  <marker id="arrowBlue" markerWidth="10" markerHeight="10" refX="9" refY="3" orient="auto">
    <path d="M0,0 L0,6 L9,3 z" fill="#1976d2"/>
  </marker>
  <marker id="arrowGreen" markerWidth="10" markerHeight="10" refX="9" refY="3" orient="auto">
    <path d="M0,0 L0,6 L9,3 z" fill="#388e3c"/>
  </marker>
</defs>

<style>
  @keyframes fadeInSlide {
    from { opacity: 0; transform: translateY(20px); }
    to { opacity: 1; transform: translateY(0); }
  }
  @keyframes scaleIn {
    from { opacity: 0; transform: scale(0.85); }
    to { opacity: 1; transform: scale(1); }
  }
  @keyframes textReveal {
    from { opacity: 0; transform: translateX(-10px); }
    to { opacity: 1; transform: translateX(0); }
  }
  @keyframes pulse {
    0%, 100% { transform: scale(1); }
    50% { transform: scale(1.03); }
  }
  @keyframes drawLine {
    from { stroke-dashoffset: 200; }
    to { stroke-dashoffset: 0; }
  }
  .step { animation: fadeInSlide 0.6s ease-out; }
  .step rect {
    animation: scaleIn 0.5s cubic-bezier(0.34, 1.56, 0.64, 1);
    transform-origin: center;
  }
  .step text { animation: textReveal 0.4s ease-out 0.2s backwards; }
  .tree-node { animation: scaleIn 0.4s ease-out; transform-origin: center; }
  .highlight { animation: pulse 1.5s infinite; }
</style>

<rect width="800" height="2000" fill="#f8f9fa"/>

<!-- Step 0: Title -->
<g class="step" id="step0" data-narration="Welcome to Balanced Search Trees. We explore AVL, Red-Black, and B-Trees that guarantee efficient O(log n) operations.">
  <rect x="50" y="15" width="700" height="50" rx="12" fill="url(#titleGrad)" filter="url(#shadow)"/>
  <text x="400" y="45" text-anchor="middle" font-size="22" font-weight="bold" fill="white">Balanced Search Trees</text>
  <text x="400" y="65" text-anchor="middle" font-size="12" fill="#e3f2fd">AVL Trees | Red-Black Trees | B-Trees</text>
</g>

<!-- Step 1: The Problem - BST Limitations -->
<g class="step" id="step1" data-narration="Basic binary search trees can become unbalanced, degrading to O(n) complexity when data is sorted.">
  <rect x="30" y="80" width="740" height="85" rx="10" fill="white" filter="url(#shadow)"/>
  <rect x="30" y="80" width="740" height="20" rx="10" fill="#ffebee"/>
  <text x="45" y="94" font-size="11" font-weight="bold" fill="#c62828">THE PROBLEM: Unbalanced BST</text>
  <text x="45" y="115" font-size="10" fill="#424242">Regular BST with sorted data (1,2,3,4,5) becomes a linked list:</text>
  <g class="tree-node" transform="translate(180, 125)">
    <circle cx="0" cy="0" r="12" fill="#1976d2"/>
    <text x="0" y="4" text-anchor="middle" font-size="8" fill="white">1</text>
    <line x1="12" y1="0" x2="35" y2="25" stroke="#424242" stroke-width="1.5"/>
  </g>
  <g class="tree-node" transform="translate(215, 150)">
    <circle cx="0" cy="0" r="12" fill="#1976d2"/>
    <text x="0" y="4" text-anchor="middle" font-size="8" fill="white">2</text>
    <line x1="12" y1="0" x2="35" y2="25" stroke="#424242" stroke-width="1.5"/>
  </g>
  <g class="tree-node" transform="translate(250, 175)">
    <circle cx="0" cy="0" r="12" fill="#1976d2"/>
    <text x="0" y="4" text-anchor="middle" font-size="8" fill="white">3</text>
    <line x1="12" y1="0" x2="35" y2="25" stroke="#424242" stroke-width="1.5"/>
  </g>
  <g class="tree-node" transform="translate(285, 200)">
    <circle cx="0" cy="0" r="12" fill="#1976d2"/>
    <text x="0" y="4" text-anchor="middle" font-size="8" fill="white">4</text>
    <line x1="12" y1="0" x2="35" y2="25" stroke="#424242" stroke-width="1.5"/>
  </g>
  <g class="tree-node" transform="translate(320, 225)">
    <circle cx="0" cy="0" r="12" fill="#1976d2"/>
    <text x="0" y="4" text-anchor="middle" font-size="8" fill="white">5</text>
  </g>
  <text x="450" y="125" font-size="10" fill="#424242">Time Complexity:</text>
  <text x="450" y="140" font-size="14" font-weight="bold" fill="#c62828">O(n) = Linear Search!</text>
  <text x="450" y="155" font-size="10" fill="#424242">We need BALANCED trees for</text>
  <text x="450" y="168" font-size="12" font-weight="bold" fill="#2e7d32">O(log n) = Logarithmic Time</text>
</g>

<!-- Step 2: Solution Overview -->
<g class="step" id="step2" data-narration="Balanced search trees solve this by enforcing balance conditions, guaranteeing O(log n) for all operations.">
  <rect x="30" y="180" width="740" height="85" rx="10" fill="white" filter="url(#shadow)"/>
  <rect x="30" y="180" width="740" height="20" rx="10" fill="#e8f5e9"/>
  <text x="45" y="194" font-size="11" font-weight="bold" fill="#2e7d32">THE SOLUTION: Balanced Search Trees</text>
  <g transform="translate(80, 220)">
    <rect x="0" y="0" width="120" height="35" rx="6" fill="#e3f2fd" stroke="#1976d2" stroke-width="1.5"/>
    <text x="60" y="15" text-anchor="middle" font-size="10" font-weight="bold" fill="#1565c0">AVL Trees</text>
    <text x="60" y="27" text-anchor="middle" font-size="8" fill="#424242">Height diff ≤ 1</text>
  </g>
  <g transform="translate(220, 220)">
    <rect x="0" y="0" width="120" height="35" rx="6" fill="#ffebee" stroke="#f44336" stroke-width="1.5"/>
    <text x="60" y="15" text-anchor="middle" font-size="10" font-weight="bold" fill="#c62828">Red-Black Trees</text>
    <text x="60" y="27" text-anchor="middle" font-size="8" fill="#424242">Color properties</text>
  </g>
  <g transform="translate(360, 220)">
    <rect x="0" y="0" width="120" height="35" rx="6" fill="#f3e5f5" stroke="#9c27b0" stroke-width="1.5"/>
    <text x="60" y="15" text-anchor="middle" font-size="10" font-weight="bold" fill="#7b1fa2">B-Trees</text>
    <text x="60" y="27" text-anchor="middle" font-size="8" fill="#424242">Multi-way search</text>
  </g>
  <text x="550" y="220" font-size="10" fill="#424242">All guarantee:</text>
  <text x="550" y="235" font-size="14" font-weight="bold" fill="#2e7d32">O(log n) Time</text>
  <text x="550" y="250" font-size="10" fill="#424242">Search, Insert, Delete</text>
  <line x1="500" y1="230" x2="540" y2="230" stroke="#388e3c" stroke-width="2" marker-end="url(#arrowGreen)"/>
</g>

<!-- Step 3: AVL Properties -->
<g class="step" id="step3" data-narration="AVL trees maintain balance by ensuring the balance factor (left height minus right height) is -1, 0, or +1 for every node.">
  <rect x="30" y="280" width="740" height="100" rx="10" fill="white" filter="url(#shadow)"/>
  <rect x="30" y="280" width="740" height="20" rx="10" fill="#e3f2fd"/>
  <text x="45" y="294" font-size="11" font-weight="bold" fill="#1565c0">AVL Trees: Properties & Balance Factor</text>
  <text x="45" y="320" font-size="10" fill="#424242">Balance Factor = Height(Left Subtree) - Height(Right Subtree)</text>
  <text x="45" y="335" font-size="11" font-weight="bold" fill="#1565c0">BF must be -1, 0, or +1 for every node</text>
  <g transform="translate(300, 310)">
    <rect x="0" y="30" width="200" height="60" rx="8" fill="#fff3e0" stroke="#ff9800" stroke-width="1.5"/>
    <text x="100" y="50" text-anchor="middle" font-size="10" font-weight="bold" fill="#e65100">AVL Properties</text>
    <text x="100" y="65" text-anchor="middle" font-size="8" fill="#424242">1. Binary Search Tree</text>
    <text x="100" y="78" text-anchor="middle" font-size="8" fill="#424242">2. |BF| ≤ 1 for every node</text>
  </g>
  <g transform="translate(520, 310)">
    <circle cx="30" cy="45" r="25" fill="#e8f5e9" stroke="#388e3c" stroke-width="2"/>
    <text x="30" y="42" text-anchor="middle" font-size="8" fill="#424242">BF=0</text>
    <text x="30" y="52" text-anchor="middle" font-size="8" font-weight="bold" fill="#2e7d32">BALANCED</text>
  </g>
  <g transform="translate(580, 310)">
    <circle cx="30" cy="45" r="25" fill="#e3f2fd" stroke="#1976d2" stroke-width="2"/>
    <text x="30" y="42" text-anchor="middle" font-size="8" fill="#424242">BF=+1</text>
    <text x="30" y="52" text-anchor="middle" font-size="8" font-weight="bold" fill="#1565c0">Left-Heavy</text>
  </g>
  <g transform="translate(640, 310)">
    <circle cx="30" cy="45" r="25" fill="#fce4ec" stroke="#e91e63" stroke-width="2"/>
    <text x="30" y="42" text-anchor="middle" font-size="8" fill="#424242">BF=-1</text>
    <text x="30" y="52" text-anchor="middle" font-size="8" font-weight="bold" fill="#c2185b">Right-Heavy</text>
  </g>
</g>

<!-- Step 4: AVL Rotations Overview -->
<g class="step" id="step4" data-narration="When AVL balance is violated, we perform rotations: LL, RR, LR, and RL to restore balance while preserving BST property.">
  <rect x="30" y="395" width="740" height="95" rx="10" fill="white" filter="url(#shadow)"/>
  <rect x="30" y="395" width="740" height="20" rx="10" fill="#e3f2fd"/>
  <text x="45" y="409" font-size="11" font-weight="bold" fill="#1565c0">AVL Rotations: Four Types</text>
  <g transform="translate(60, 430)">
    <rect x="0" y="0" width="80" height="50" rx="6" fill="#e8f5e9" stroke="#388e3c" stroke-width="1.5"/>
    <text x="40" y="18" text-anchor="middle" font-size="9" font-weight="bold" fill="#2e7d32">LL Case</text>
    <text x="40" y="35" text-anchor="middle" font-size="8" fill="#424242">Right Rotation</text>
  </g>
  <g transform="translate(160, 430)">
    <rect x="0" y="0" width="80" height="50" rx="6" fill="#e3f2fd" stroke="#1976d2" stroke-width="1.5"/>
    <text x="40" y="18" text-anchor="middle" font-size="9" font-weight="bold" fill="#1565c0">RR Case</text>
    <text x="40" y="35" text-anchor="middle" font-size="8" fill="#424242">Left Rotation</text>
  </g>
  <g transform="translate(260, 430)">
    <rect x="0" y="0" width="80" height="50" rx="6" fill="#fff3e0" stroke="#ff9800" stroke-width="1.5"/>
    <text x="40" y="18" text-anchor="middle" font-size="9" font-weight="bold" fill="#e65100">LR Case</text>
    <text x="40" y="35" text-anchor="middle" font-size="8" fill="#424242">Left + Right</text>
  </g>
  <g transform="translate(360, 430)">
    <rect x="0" y="0" width="80" height="50" rx="6" fill="#f3e5f5" stroke="#9c27b0" stroke-width="1.5"/>
    <text x="40" y="18" text-anchor="middle" font-size="9" font-weight="bold" fill="#7b1fa2">RL Case</text>
    <text x="40" y="35" text-anchor="middle" font-size="8" fill="#424242">Right + Left</text>
  </g>
  <text x="480" y="430" font-size="10" fill="#424242">When to use each:</text>
  <text x="480" y="445" font-size="9" fill="#424242">• BF +2 with child +1/0: Right Rot</text>
  <text x="480" y="458" font-size="9" fill="#424242">• BF -2 with child -1/0: Left Rot</text>
  <text x="480" y="471" font-size="9" fill="#424242">• Mixed signs: Double rotation</text>
</g>

<!-- Step 5: AVL Left Rotation (RR Case) -->
<g class="step" id="step5" data-narration="In an RR case (right-heavy with right-heavy child), a single left rotation restores balance by moving the child up.">
  <rect x="30" y="505" width="740" height="105" rx="10" fill="white" filter="url(#shadow)"/>
  <rect x="30" y="505" width="740" height="20" rx="10" fill="#e8f5e9"/>
  <text x="45" y="519" font-size="11" font-weight="bold" fill="#2e7d32">Left Rotation (RR Case)</text>
  <text x="45" y="540" font-size="9" fill="#424242">Before: Insert 30 into tree with 10, 20</text>
  <!-- Before tree -->
  <g transform="translate(100, 570)">
    <circle cx="0" cy="0" r="16" fill="#1976d2"/>
    <text x="0" y="4" text-anchor="middle" font-size="9" fill="white">10</text>
    <line x1="16" y1="0" x2="40" y2="30" stroke="#424242" stroke-width="1.5"/>
    <circle cx="56" cy="30" r="16" fill="#1976d2"/>
    <text x="56" y="34" text-anchor="middle" font-size="9" fill="white">20</text>
    <line x1="72" y1="30" x2="96" y2="60" stroke="#424242" stroke-width="1.5"/>
    <circle cx="96" cy="60" r="16" fill="#1976d2" class="highlight"/>
    <text x="96" y="64" text-anchor="middle" font-size="9" fill="white">30</text>
  </g>
  <text x="250" y="580" font-size="18" fill="#424242">→</text>
  <text x="250" y="600" font-size="18" fill="#424242">→</text>
  <!-- After tree -->
  <g transform="translate(320, 570)">
    <circle cx="40" cy="30" r="16" fill="#1976d2" class="highlight"/>
    <text x="40" y="34" text-anchor="middle" font-size="9" fill="white">20</text>
    <line x1="24" y1="30" x2="0" y2="60" stroke="#424242" stroke-width="1.5"/>
    <circle cx="0" cy="60" r="16" fill="#1976d2"/>
    <text x="0" y="64" text-anchor="middle" font-size="9" fill="white">10</text>
    <line x1="56" y1="30" x2="80" y2="60" stroke="#424242" stroke-width="1.5"/>
    <circle cx="80" cy="60" r="16" fill="#1976d2"/>
    <text x="80" y="64" text-anchor="middle" font-size="9" fill="white">30</text>
  </g>
  <text x="480" y="555" font-size="10" font-weight="bold" fill="#2e7d32">After Left Rotation</text>
  <text x="480" y="572" font-size="9" fill="#424242">1. X's right child becomes</text>
  <text x="480" y="585" font-size="9" fill="#424242">   root's left child</text>
  <text x="480" y="598" font-size="9" fill="#424242">2. Root becomes left child</text>
  <text x="480" y="611" font-size="9" fill="#424242">3. Tree is now balanced</text>
</g>

<!-- Step 6: AVL Right Rotation (LL Case) -->
<g class="step" id="step6" data-narration="In an LL case (left-heavy with left-heavy child), a single right rotation moves the left child up to become the root.">
  <rect x="30" y="625" width="740" height="105" rx="10" fill="white" filter="url(#shadow)"/>
  <rect x="30" y="625" width="740" height="20" rx="10" fill="#e3f2fd"/>
  <text x="45" y="639" font-size="11" font-weight="bold" fill="#1565c0">Right Rotation (LL Case)</text>
  <text x="45" y="660" font-size="9" fill="#424242">Before: Insert 10 into tree with 20, 30</text>
  <!-- Before tree -->
  <g transform="translate(100, 690)">
    <circle cx="40" cy="30" r="16" fill="#1976d2"/>
    <text x="40" y="34" text-anchor="middle" font-size="9" fill="white">20</text>
    <line x1="24" y1="30" x2="0" y2="60" stroke="#424242" stroke-width="1.5"/>
    <circle cx="0" cy="60" r="16" fill="#1976d2" class="highlight"/>
    <text x="0" y="64" text-anchor="middle" font-size="9" fill="white">10</text>
    <line x1="56" y1="30" x2="80" y2="60" stroke="#424242" stroke-width="1.5"/>
    <circle cx="80" cy="60" r="16" fill="#1976d2"/>
    <text x="80" y="64" text-anchor="middle" font-size="9" fill="white">30</text>
  </g>
  <text x="250" y="700" font-size="18" fill="#424242">→</text>
  <text x="250" y="720" font-size="18" fill="#424242">→</text>
  <!-- After tree -->
  <g transform="translate(320, 690)">
    <circle cx="0" cy="0" r="16" fill="#1976d2" class="highlight"/>
    <text x="0" y="4" text-anchor="middle" font-size="9" fill="white">10</text>
    <line x1="16" y1="0" x2="40" y2="30" stroke="#424242" stroke-width="1.5"/>
    <circle cx="56" cy="30" r="16" fill="#1976d2"/>
    <text x="56" y="34" text-anchor="middle" font-size="9" fill="white">20</text>
    <line x1="72" y1="30" x2="96" y2="60" stroke="#424242" stroke-width="1.5"/>
    <circle cx="96" cy="60" r="16" fill="#1976d2"/>
    <text x="96" y="64" text-anchor="middle" font-size="9" fill="white">30</text>
  </g>
  <text x="480" y="675" font-size="10" font-weight="bold" fill="#1565c0">After Right Rotation</text>
  <text x="480" y="692" font-size="9" fill="#424242">1. X's left child becomes</text>
  <text x="480" y="705" font-size="9" fill="#424242">   root's right child</text>
  <text x="480" y="718" font-size="9" fill="#424242">2. Root becomes right child</text>
  <text x="480" y="731" font-size="9" fill="#424242">3. BST property preserved</text>
</g>

<!-- Step 7: AVL LR and RL Rotations -->
<g class="step" id="step7" data-narration="LR and RL are double rotations needed when the child has opposite balance sign. LR rotates left child left, then node right.">
  <rect x="30" y="745" width="740" height="100" rx="10" fill="white" filter="url(#shadow)"/>
  <rect x="30" y="745" width="740" height="20" rx="10" fill="#fff3e0"/>
  <text x="45" y="759" font-size="11" font-weight="bold" fill="#e65100">Double Rotations: LR and RL Cases</text>
  <g transform="translate(60, 785)">
    <rect x="0" y="0" width="160" height="55" rx="6" fill="#fff3e0" stroke="#ff9800"/>
    <text x="80" y="18" text-anchor="middle" font-size="10" font-weight="bold" fill="#e65100">LR Case</text>
    <text x="80" y="35" text-anchor="middle" font-size="8" fill="#424242">Node BF=+2, Child BF=-1</text>
    <text x="80" y="48" text-anchor="middle" font-size="8" fill="#424242">→ Left-Right Rotation</text>
  </g>
  <g transform="translate(240, 785)">
    <rect x="0" y="0" width="160" height="55" rx="6" fill="#f3e5f5" stroke="#9c27b0"/>
    <text x="80" y="18" text-anchor="middle" font-size="10" font-weight="bold" fill="#7b1fa2">RL Case</text>
    <text x="80" y="35" text-anchor="middle" font-size="8" fill="#424242">Node BF=-2, Child BF=+1</text>
    <text x="80" y="48" text-anchor="middle" font-size="8" fill="#424242">→ Right-Left Rotation</text>
  </g>
  <!-- LR Example -->
  <text x="450" y="790" font-size="9" fill="#424242">Insert 35 into tree with 30, 40:</text>
  <g transform="translate(450, 805)">
    <circle cx="20" cy="15" r="10" fill="#1976d2"/>
    <text x="20" y="18" text-anchor="middle" font-size="7" fill="white">30</text>
    <line x1="30" y1="15" x2="50" y2="15" stroke="#424242" stroke-width="1"/>
    <circle cx="60" cy="15" r="10" fill="#1976d2" class="highlight"/>
    <text x="60" y="18" text-anchor="middle" font-size="7" fill="white">40</text>
    <line x1="60" y1="25" x2="40" y2="40" stroke="#424242" stroke-width="1"/>
    <circle cx="40" cy="40" r="10" fill="#1976d2" class="highlight"/>
    <text x="40" y="43" text-anchor="middle" font-size="7" fill="white">35</text>
  </g>
  <text x="610" y="810" font-size="9" fill="#e65100">→ After LR:</text>
  <g transform="translate(610, 825)">
    <circle cx="20" cy="20" r="10" fill="#388e3c" class="highlight"/>
    <text x="20" y="23" text-anchor="middle" font-size="7" fill="white">35</text>
    <line x1="10" y1="20" x2="0" y2="35" stroke="#424242" stroke-width="1"/>
    <circle cx="0" cy="35" r="10" fill="#1976d2"/>
    <text x="0" y="38" text-anchor="middle" font-size="7" fill="white">30</text>
    <line x1="30" y1="20" x2="40" y2="35" stroke="#424242" stroke-width="1"/>
    <circle cx="40" cy="35" r="10" fill="#1976d2"/>
    <text x="40" y="38" text-anchor="middle" font-size="7" fill="white">40</text>
  </g>
</g>

<!-- Step 8: AVL Insertion Example -->
<g class="step" id="step8" data-narration="Let's insert 10, 20, 30 into an empty AVL tree. After inserting 30, the tree becomes right-right unbalanced.">
  <rect x="30" y="860" width="740" height="95" rx="10" fill="white" filter="url(#shadow)"/>
  <rect x="30" y="860" width="740" height="20" rx="10" fill="#e8f5e9"/>
  <text x="45" y="874" font-size="11" font-weight="bold" fill="#2e7d32">Example: AVL Insertion (10, 20, 30)</text>
  <!-- Step 1 -->
  <g transform="translate(80, 910)">
    <circle cx="0" cy="20" r="18" fill="#1976d2"/>
    <text x="0" y="24" text-anchor="middle" font-size="10" fill="white">10</text>
    <text x="0" y="50" text-anchor="middle" font-size="8" fill="#424242">Step 1</text>
  </g>
  <text x="130" y="930" font-size="14" fill="#424242">→</text>
  <!-- Step 2 -->
  <g transform="translate(160, 910)">
    <circle cx="0" cy="0" r="18" fill="#1976d2"/>
    <text x="0" y="4" text-anchor="middle" font-size="10" fill="white">10</text>
    <line x1="18" y1="0" x2="42" y2="30" stroke="#424242" stroke-width="1.5"/>
    <circle cx="60" cy="30" r="18" fill="#1976d2"/>
    <text x="60" y="34" text-anchor="middle" font-size="10" fill="white">20</text>
    <text x="30" y="60" text-anchor="middle" font-size="8" fill="#424242">Step 2: BF=-1</text>
  </g>
  <text x="250" y="930" font-size="14" fill="#424242">→</text>
  <!-- Step 3 before -->
  <g transform="translate(280, 910)">
    <circle cx="0" cy="0" r="18" fill="#1976d2"/>
    <text x="0" y="4" text-anchor="middle" font-size="10" fill="white">10</text>
    <line x1="18" y1="0" x2="42" y2="30" stroke="#424242" stroke-width="1.5"/>
    <circle cx="60" cy="30" r="18" fill="#1976d2"/>
    <text x="60" y="34" text-anchor="middle" font-size="10" fill="white">20</text>
    <line x1="78" y1="30" x2="102" y2="60" stroke="#424242" stroke-width="1.5"/>
    <circle cx="120" cy="60" r="18" fill="#f44336" class="highlight"/>
    <text x="120" y="64" text-anchor="middle" font-size="10" fill="white">30</text>
    <text x="60" y="90" text-anchor="middle" font-size="8" fill="#c62828">Step 3: BF=-2!</text>
  </g>
  <text x="420" y="930" font-size="14" fill="#424242">→</text>
  <!-- After rotation -->
  <g transform="translate(460, 910)">
    <circle cx="30" cy="0" r="18" fill="#388e3c" class="highlight"/>
    <text x="30" y="4" text-anchor="middle" font-size="10" fill="white">20</text>
    <line x1="12" y1="0" x2="0" y2="35" stroke="#424242" stroke-width="1.5"/>
    <circle cx="0" cy="35" r="18" fill="#1976d2"/>
    <text x="0" y="39" text-anchor="middle" font-size="10" fill="white">10</text>
    <line x1="48" y1="0" x2="60" y2="35" stroke="#424242" stroke-width="1.5"/>
    <circle cx="60" cy="35" r="18" fill="#1976d2"/>
    <text x="60" y="39" text-anchor="middle" font-size="10" fill="white">30</text>
    <text x="30" y="65" text-anchor="middle" font-size="8" fill="#2e7d32">Balanced!</text>
  </g>
</g>

<!-- Step 9: Red-Black Properties -->
<g class="step" id="step9" data-narration="Red-Black trees maintain balance through five color properties: root black, leaves black, no red-red, equal black-height.">
  <rect x="30" y="970" width="740" height="100" rx="10" fill="white" filter="url(#shadow)"/>
  <rect x="30" y="970" width="740" height="20" rx="10" fill="#ffebee"/>
  <text x="45" y="984" font-size="11" font-weight="bold" fill="#c62828">Red-Black Trees: Five Properties</text>
  <g transform="translate(60, 1010)">
    <circle cx="10" cy="10" r="6" fill="black"/>
    <text x="25" y="14" font-size="8" fill="#424242">1. Root is always black</text>
  </g>
  <g transform="translate(60, 1030)">
    <circle cx="10" cy="10" r="6" fill="#424242"/>
    <text x="25" y="14" font-size="8" fill="#424242">2. All leaves (NIL) are black</text>
  </g>
  <g transform="translate(300, 1010)">
    <circle cx="10" cy="10" r="6" fill="#f44336"/>
    <circle cx="30" cy="10" r="6" fill="black" stroke="white" stroke-width="1"/>
    <text x="45" y="14" font-size="8" fill="#424242">3. Red node has black children</text>
  </g>
  <g transform="translate(300, 1030)">
    <circle cx="10" cy="10" r="6" fill="#f44336"/>
    <text x="25" y="14" font-size="8" fill="#424242">4. No two consecutive red nodes</text>
  </g>
  <g transform="translate(520, 1010)">
    <rect x="0" y="0" width="90" height="35" rx="4" fill="#fff3e0" stroke="#ff9800"/>
    <text x="45" y="18" text-anchor="middle" font-size="8" fill="#424242">Black-Height</text>
    <text x="45" y="30" text-anchor="middle" font-size="7" fill="#e65100">All paths equal</text>
  </g>
  <text x="520" y="1055" font-size="8" fill="#424242">5. Every node: paths to leaves</text>
  <text x="520" y="1067" font-size="8" fill="#424242">contain same # of black nodes</text>
</g>

<!-- Step 10: Red-Black Insertion Cases -->
<g class="step" id="step10" data-narration="Red-Black insertion has three cases based on uncle color: recolor when uncle is red, rotate when uncle is black.">
  <rect x="30" y="1085" width="740" height="95" rx="10" fill="white" filter="url(#shadow)"/>
  <rect x="30" y="1085" width="740" height="20" rx="10" fill="#ffebee"/>
  <text x="45" y="1099" font-size="11" font-weight="bold" fill="#c62828">Red-Black Insertion: Three Cases</text>
  <g transform="translate(60, 1125)">
    <rect x="0" y="0" width="100" height="50" rx="6" fill="#ffcdd2" stroke="#f44336"/>
    <text x="50" y="18" text-anchor="middle" font-size="9" font-weight="bold" fill="#c62828">Case 1</text>
    <text x="50" y="32" text-anchor="middle" font-size="8" fill="#424242">Uncle is RED</text>
    <text x="50" y="44" text-anchor="middle" font-size="7" fill="#424242">→ Recolor P,U,G</text>
  </g>
  <g transform="translate(180, 1125)">
    <rect x="0" y="0" width="100" height="50" rx="6" fill="#fff9c4" stroke="#fbc02d"/>
    <text x="50" y="18" text-anchor="middle" font-size="9" font-weight="bold" fill="#f57f17">Case 2</text>
    <text x="50" y="32" text-anchor="middle" font-size="8" fill="#424242">Uncle BLACK</text>
    <text x="50" y="44" text-anchor="middle" font-size="7" fill="#424242">Triangle → Rotate</text>
  </g>
  <g transform="translate(300, 1125)">
    <rect x="0" y="0" width="100" height="50" rx="6" fill="#c8e6c9" stroke="#388e3c"/>
    <text x="50" y="18" text-anchor="middle" font-size="9" font-weight="bold" fill="#2e7d32">Case 3</text>
    <text x="50" y="32" text-anchor="middle" font-size="8" fill="#424242">Uncle BLACK</text>
    <text x="50" y="44" text-anchor="middle" font-size="7" fill="#424242">Line → Rotate+Recolor</text>
  </g>
  <text x="450" y="1125" font-size="9" fill="#424242">After any rotation:</text>
  <text x="450" y="1140" font-size="9" fill="#424242">Make sure to color</text>
  <text x="450" y="1155" font-size="9" fill="#424242">root BLACK</text>
  <g transform="translate(430, 1165)">
    <line x1="60" y1="0" x2="60" y2="10" stroke="#388e3c" stroke-width="2" marker-end="url(#arrowGreen)"/>
  </g>
</g>

<!-- Step 11: Red-Black Insertion Example -->
<g class="step" id="step11" data-narration="Let's insert 7, 3, 18, 10 into a Red-Black tree. When inserting 10, we encounter a red-red violation with uncle 3.">
  <rect x="30" y="1195" width="740" height="105" rx="10" fill="white" filter="url(#shadow)"/>
  <rect x="30" y="1195" width="740" height="20" rx="10" fill="#ffebee"/>
  <text x="45" y="1209" font-size="11" font-weight="bold" fill="#c62828">Example: RB Insertion (7, 3, 18, 10)</text>
  <!-- Tree after 7,3,18 -->
  <g transform="translate(80, 1250)">
    <circle cx="0" cy="0" r="14" fill="black"/>
    <text x="0" y="4" text-anchor="middle" font-size="8" fill="white">7</text>
    <line x1="-14" y1="0" x2="-35" y2="25" stroke="#424242" stroke-width="1.5"/>
    <circle cx="-50" cy="25" r="14" fill="#f44336"/>
    <text x="-50" y="29" text-anchor="middle" font-size="8" fill="white">3</text>
    <line x1="14" y1="0" x2="35" y2="25" stroke="#424242" stroke-width="1.5"/>
    <circle cx="50" cy="25" r="14" fill="black"/>
    <text x="50" y="29" text-anchor="middle" font-size="8" fill="white">18</text>
  </g>
  <text x="180" y="1275" font-size="14" fill="#424242">+</text>
  <!-- Insert 10 -->
  <g transform="translate(220, 1250)">
    <circle cx="0" cy="0" r="14" fill="black"/>
    <text x="0" y="4" text-anchor="middle" font-size="8" fill="white">7</text>
    <line x1="-14" y1="0" x2="-35" y2="25" stroke="#424242" stroke-width="1.5"/>
    <circle cx="-50" cy="25" r="14" fill="black"/>
    <text x="-50" y="29" text-anchor="middle" font-size="8" fill="white">3</text>
    <line x1="14" y1="0" x2="35" y2="25" stroke="#424242" stroke-width="1.5"/>
    <circle cx="50" cy="25" r="14" fill="black"/>
    <text x="50" y="29" text-anchor="middle" font-size="8" fill="white">18</text>
    <line x1="50" y1="25" x2="30" y2="50" stroke="#424242" stroke-width="1.5"/>
    <circle cx="20" cy="50" r="14" fill="#f44336" class="highlight"/>
    <text x="20" y="54" text-anchor="middle" font-size="8" fill="white">10</text>
  </g>
  <text x="350" y="1270" font-size="12" fill="#c62828">Red-Red!</text>
  <text x="350" y="1285" font-size="10" fill="#424242">Uncle (3) is red</text>
  <!-- After recolor -->
  <text x="420" y="1255" font-size="14" fill="#424242">→</text>
  <g transform="translate(460, 1250)">
    <circle cx="0" cy="0" r="14" fill="#f44336" class="highlight"/>
    <text x="0" y="4" text-anchor="middle" font-size="8" fill="white">7</text>
    <line x1="-14" y1="0" x2="-35" y2="25" stroke="#424242" stroke-width="1.5"/>
    <circle cx="-50" cy="25" r="14" fill="black"/>
    <text x="-50" y="29" text-anchor="middle" font-size="8" fill="white">3</text>
    <line x1="14" y1="0" x2="35" y2="25" stroke="#424242" stroke-width="1.5"/>
    <circle cx="50" cy="25" r="14" fill="black"/>
    <text x="50" y="29" text-anchor="middle" font-size="8" fill="white">18</text>
    <line x1="50" y1="25" x2="30" y2="50" stroke="#424242" stroke-width="1.5"/>
    <circle cx="20" cy="50" r="14" fill="black"/>
    <text x="20" y="54" text-anchor="middle" font-size="8" fill="white">10</text>
    <line x1="50" y1="25" x2="70" y2="50" stroke="#424242" stroke-width="1.5"/>
    <circle cx="80" cy="50" r="14" fill="black"/>
    <text x="80" y="54" text-anchor="middle" font-size="8" fill="white">18</text>
  </g>
  <text x="560" y="1270" font-size="9" fill="#424242">Case 1:</text>
  <text x="560" y="1283" font-size="9" fill="#424242">Recolor P,U to Black</text>
  <text x="560" y="1296" font-size="9" fill="#424242">G to Red</text>
</g>

<!-- Step 12: AVL vs Red-Black Comparison -->
<g class="step" id="step12" data-narration="AVL trees are more strictly balanced (1.44*log n height) ideal for search-heavy apps. Red-Black allows 2*log n, better for writes.">
  <rect x="30" y="1315" width="740" height="95" rx="10" fill="white" filter="url(#shadow)"/>
  <rect x="30" y="1315" width="740" height="20" rx="10" fill="#f3e5f5"/>
  <text x="45" y="1329" font-size="11" font-weight="bold" fill="#7b1fa2">Comparison: AVL vs Red-Black</text>
  <!-- Table -->
  <g transform="translate(60, 1355)">
    <rect x="0" y="0" width="130" height="45" rx="4" fill="#e8eaf6"/>
    <text x="65" y="15" text-anchor="middle" font-size="8" font-weight="bold" fill="#424242">AVL</text>
    <text x="65" y="30" text-anchor="middle" font-size="7" fill="#424242">Height ≤ 1.44*log n</text>
  </g>
  <g transform="translate(200, 1355)">
    <rect x="0" y="0" width="130" height="45" rx="4" fill="#e8eaf6"/>
  </g>
  </g>
</svg>