<svg width="420" height="400">
  <defs>
    <linearGradient id="gradient" x1="0%" y1="0%" x2="100%" y2="0%">
      <stop offset="0%" stop-color="#87CEEB" stop-opacity="1"/>
      <stop offset="100%" stop-color="#6495ED" stop-opacity="1"/>
    </linearGradient>
  </defs>
  <title>Chapter 14: Clustering Algorithms</title>
  <rect x="10" y="10" width="400" height="20" fill="url(#gradient)" rx="5"/>
  <text x="15" y="35" font-size="24" font-family="Arial, sans-serif" text-anchor="start" fill="#3498DB">Introduction to Clustering</text>
  <rect x="10" y="60" width="400" height="20" fill="#87CEEB" rx="5"/>
  <text x="15" y="85" font-size="18" font-family="Arial, sans-serif" text-anchor="start" fill="#4682B4">Types of Clustering</text>
  <rect x="10" y="110" width="400" height="20" fill="#6495ED" rx="5"/>
  <text x="15" y="135" font-size="18" font-family="Arial, sans-serif" text-anchor="start" fill="#32CD32">Proximity Measures</text>
  <rect x="10" y="160" width="400" height="20" fill="#87CEEB" rx="5"/>
  <text x="15" y="185" font-size="18" font-family="Arial, sans-serif" text-anchor="start" fill="#4682B4">Hierarchical Clustering</text>
  <rect x="10" y="210" width="400" height="20" fill="#6495ED" rx="5"/>
  <text x="15" y="235" font-size="18" font-family="Arial, sans-serif" text-anchor="start" fill="#32CD32">K-Means Clustering</text>
  <rect x="10" y="260" width="400" height="20" fill="#87CEEB" rx="5"/>
  <text x="15" y="285" font-size="18" font-family="Arial, sans-serif" text-anchor="start" fill="#4682B4">DBSCAN Clustering</text>
  <rect x="10" y="310" width="400" height="20" fill="#6495ED" rx="5"/>
  <text x="15" y="335" font-size="18" font-family="Arial, sans-serif" text-anchor="start" fill="#32CD32">Gaussian Mixture Model Clustering</text>
  <rect x="10" y="365" width="400" height="20" fill="#87CEEB" rx="5"/>
  <text x="15" y="390" font-size="18" font-family="Arial, sans-serif" text-anchor="start" fill="#4682B4">Cosine Similarity Clustering</text>
  <rect x="10" y="415" width="400" height="20" fill="#6495ED" rx="5"/>
  <text x="15" y="440" font-size="18" font-family="Arial, sans-serif" text-anchor="start" fill="#32CD32">Euclidean Distance Clustering</text>
  <rect x="10" y="75" width="400" height="20" fill="#87CEEB" rx="5"/>
  <text x="15" y="100" font-size="18" font-family="Arial, sans-serif" text-anchor="start" fill="#4682B4">Manhattan Distance Clustering</text>
  <rect x="10" y="125" width="400" height="20" fill="#6495ED" rx="5"/>
  <text x="15" y="140" font-size="18" font-family="Arial, sans-serif" text-anchor="start" fill="#32CD32">Minkowski Distance Clustering</text>
  <rect x="10" y="165" width="400" height="20" fill="#87CEEB" rx="5"/>
  <text x="15" y="180" font-size="18" font-family="Arial, sans-serif" text-anchor="start" fill="#4682B4">Arrow Marker for Connections</text>
  <rect x="10" y="205" width="400" height="20" fill="#6495ED" rx="5"/>
  <text x="15" y="220" font-size="18" font-family="Arial, sans-serif" text-anchor="start" fill="#32CD32">Smooth Animations</text>
  <rect x="10" y="245" width="400" height="20" fill="#87CEEB" rx="5"/>
  <text x="15" y="260" font-size="18" font-family="Arial, sans-serif" text-anchor="start" fill="#4682B4">Clear Labels and Annotations</text>
  <rect x="10" y="285" width="400" height="20" fill="#6495ED" rx="5"/>
  <text x="15" y="300" font-size="18" font-family="Arial, sans-serif" text-anchor="start" fill="#32CD32">Footer at Bottom</text>
  <rect x="10" y="320" width="400" height="20" fill="#87CEEB" rx="5"/>
  <text x="15" y="335" font-size="18" font-family="Arial, sans-serif" text-anchor="start" fill="#4682B4">Visual Clarity</text>
  <rect x="10" y="365" width="400" height="20" fill="#6495ED" rx="5"/>
  <text x="15" y="380" font-size="18" font-family="Arial, sans-serif" text-anchor="start" fill="#32CD32">Educational</text>
  <rect x="10" y="405" width="400" height="20" fill="#87CEEB" rx="5"/>
  <text x="15" y="420" font-size="18" font-family="Arial, sans-serif" text-anchor="start" fill="#4682B4">Slugified Topic Name</text>
  <text x="10" y="450" font-size="24" font-family="Arial, sans-serif" text-anchor="start" fill="#3498DB">Chapter 14: Clustering Algorithms</text>
</svg>