<svg width="420" height="400" data-topic-id="cloud-security-overview">
  <defs>
    <linearGradient id="pastel-gradient" x1="0%" y1="0%" x2="100%" y2="0%">
      <stop offset="0%" stop-color="#C7B8EA" stop-opacity="1"/>
      <stop offset="50%" stop-color="#A1C9F2" stop-opacity="1"/>
      <stop offset="100%" stop-color="#87CEEB" stop-opacity="1"/>
    </linearGradient>
  </defs>
  <rect x="10" y="10" width="400" height="380" fill="url(#pastel-gradient)"/>
  <title>Cloud Security Overview</title>
  <g transform="translate(20, 20)">
    <section data-narration="Cloud Security Architecture">
      <rect x="0" y="0" width="100" height="100" fill="#2196F3" rx="10"/>
      <rect x="120" y="0" width="100" height="100" fill="#FF9800" rx="10"/>
      <g transform="translate(60, 60)">
        <animate duration="2000" begin="0s" fill="freeze">
          <circle cx="50" cy="50" r="20" fill="#2196F3"/>
        </animate>
        <animate duration="2000" begin="2s" fill="freeze">
          <circle cx="50" cy="50" r="20" fill="#FF9800"/>
        </animate>
        <text x="50" y="80" font-size="16" fill="#fff">Cloud Security Architecture</text>
      </g>
    </section>
    <section data-narration="Security Controls">
      <rect x="0" y="140" width="100" height="100" fill="#87CEEB" rx="10"/>
      <rect x="140" y="140" width="100" height="100" fill="#8BC34A" rx="10"/>
      <g transform="translate(90, 90)">
        <animate duration="2000" begin="0s" fill="freeze">
          <circle cx="50" cy="50" r="20" fill="#87CEEB"/>
        </animate>
        <animate duration="2000" begin="2s" fill="freeze">
          <circle cx="50" cy="50" r="20" fill="#8BC34A"/>
        </animate>
        <text x="50" y="120" font-size="16" fill="#fff">Security Controls</text>
      </g>
    </section>
    <section data-narration="Cloud Security Governance">
      <rect x="0" y="220" width="100" height="100" fill="#2196F3" rx="10"/>
      <rect x="140" y="220" width="100" height="100" fill="#FF9800" rx="10"/>
      <g transform="translate(90, 170)">
        <animate duration="2000" begin="0s" fill="freeze">
          <circle cx="50" cy="50" r="20" fill="#2196F3"/>
        </animate>
        <animate duration="2000" begin="2s" fill="freeze">
          <circle cx="50" cy="50" r="20" fill="#FF9800"/>
        </animate>
        <text x="50" y="200" font-size="16" fill="#fff">Cloud Security Governance</text>
      </g>
    </section>
    <section data-narration="Cloud Security Threats">
      <rect x="0" y="300" width="100" height="100" fill="#8BC34A" rx="10"/>
      <rect x="140" y="300" width="100" height="100" fill="#87CEEB" rx="10"/>
      <g transform="translate(90, 250)">
        <animate duration="2000" begin="0s" fill="freeze">
          <circle cx="50" cy="50" r="20" fill="#8BC34A"/>
        </animate>
        <animate duration="2000" begin="2s" fill="freeze">
          <circle cx="50" cy="50" r="20" fill="#87CEEB"/>
        </animate>
        <text x="50" y="280" font-size="16" fill="#fff">Cloud Security Threats</text>
      </g>
    </section>
    <section data-narration="Insider Threats">
      <rect x="0" y="380" width="100" height="100" fill="#FF9800" rx="10"/>
      <rect x="140" y="380" width="100" height="100" fill="#2196F3" rx="10"/>
      <g transform="translate(90, 330)">
        <animate duration="2000" begin="0s" fill="freeze">
          <circle cx="50" cy="50" r="20" fill="#FF9800"/>
        </animate>
        <animate duration="2000" begin="2s" fill="freeze">
          <circle cx="50" cy="50" r="20" fill="#2196F3"/>
        </animate>
        <text x="50" y="360" font-size="16" fill="#fff">Insider Threats</text>
      </g>
    </section>
    <footer>Cloud Security Overview</footer>
  </g>
</svg>