<svg width="420" height="400" data-topic-id="computation-theory-51">
  <defs>
    <linearGradient id="pastel-gradient" x1="0%" y1="0%" x2="100%" y2="0%">
      <stop offset="0%" stop-color="#C7B8EA" stop-opacity="1"/>
      <stop offset="50%" stop-color="#C9E4CA" stop-opacity="1"/>
      <stop offset="100%" stop-color="#E6F2FF" stop-opacity="1"/>
    </linearGradient>
  </defs>
  <title>Text Book Sections 51</title>
  <rect x="10" y="10" width="400" height="30" fill="url(#pastel-gradient)" rx="5"/>
  <animate xmlns="http://www.w3.org/2000/svg" begin="0s" dur="2s" repeatCount="indefinite">
    <rect x="10" y="40" width="400" height="30" fill="#E6F2FF" rx="5"/>
  </animate>
  <rect x="10" y="70" width="400" height="30" fill="#C9E4CA" rx="5"/>
  <animate xmlns="http://www.w3.org/2000/svg" begin="0.5s" dur="2s" repeatCount="indefinite">
    <rect x="10" y="70" width="400" height="30" fill="#C7B8EA" rx="5"/>
  </animate>
  <rect x="10" y="100" width="400" height="30" fill="#E6F2FF" rx="5"/>
  <animate xmlns="http://www.w3.org/2000/svg" begin="1s" dur="2s" repeatCount="indefinite">
    <rect x="10" y="100" width="400" height="30" fill="#C7B8EA" rx="5"/>
  </animate>
  <rect x="10" y="130" width="400" height="30" fill="#C9E4CA" rx="5"/>
  <animate xmlns="http://www.w3.org/2000/svg" begin="1.5s" dur="2s" repeatCount="indefinite">
    <rect x="10" y="130" width="400" height="30" fill="#E6F2FF" rx="5"/>
  </animate>
  <rect x="10" y="160" width="400" height="30" fill="#C7B8EA" rx="5"/>
  <animate xmlns="http://www.w3.org/2000/svg" begin="2s" dur="2s" repeatCount="indefinite">
    <rect x="10" y="160" width="400" height="30" fill="#C9E4CA" rx="5"/>
  </animate>
  <text x="20" y="20" fill="#333" font-size="16" font-family="Arial, sans-serif">Computation Theory</text>
  <text x="20" y="50" fill="#333" font-size="14" font-family="Arial, sans-serif">Section 51</text>
  <text x="20" y="80" fill="#333" font-size="14" font-family="Arial, sans-serif" data-narration="What is Computation?" >What is Computation?</text>
  <line x1="50" y1="90" x2="350" y2="90" stroke="#333" stroke-width="2"/>
  <text x="50" y="90" fill="#333" font-size="14" font-family="Arial, sans-serif">Input</text>
  <text x="70" y="90" fill="#333" font-size="14" font-family="Arial, sans-serif" data-narration="Input is the data that is fed into the system">Input is the data that is fed into the system</text>
  <line x1="50" y1="90" x2="400" y2="90" stroke="#333" stroke-width="2"/>
  <rect x="50" y="120" width="100" height="30" fill="#C9E4CA" rx="5"/>
  <animate xmlns="http://www.w3.org/2000/svg" begin="0s" dur="2s" repeatCount="indefinite">
    <rect x="50" y="120" width="100" height="30" fill="#E6F2FF" rx="5"/>
  </animate>
  <text x="70" y="120" fill="#333" font-size="14" font-family="Arial, sans-serif" data-narration="Output is the result of the computation">Output is the result of the computation</text>
  <line x1="50" y1="150" x2="400" y2="150" stroke="#333" stroke-width="2"/>
  <rect x="50" y="180" width="100" height="30" fill="#C7B8EA" rx="5"/>
  <animate xmlns="http://www.w3.org/2000/svg" begin="1s" dur="2s" repeatCount="indefinite">
    <rect x="50" y="180" width="100" height="30" fill="#C9E4CA" rx="5"/>
  </animate>
  <text x="70" y="180" fill="#333" font-size="14" font-family="Arial, sans-serif" data-narration="Algorithm is a set of instructions that is used to solve a problem or perform a computation">Algorithm is a set of instructions that is used to solve a problem or perform a computation</text>
  <line x1="50" y1="210" x2="400" y2="210" stroke="#333" stroke-width="2"/>
  <rect x="50" y="240" width="100" height="30" fill="#E6F2FF" rx="5"/>
  <animate xmlns="http://www.w3.org/2000/svg" begin="2s" dur="2s" repeatCount="indefinite">
    <rect x="50" y="240" width="100" height="30" fill="#C7B8EA" rx="5"/>
  </animate>
  <text x="70" y="240" fill="#333" font-size="14" font-family="Arial, sans-serif" data-narration="Computer model is a simplified representation of a computational system">Computer model is a simplified representation of a computational system</text>
  <line x1="50" y1="270" x2="400" y2="270" stroke="#333" stroke-width="2"/>
  <rect x="50" y="300" width="100" height="30" fill="#C9E4CA" rx="5"/>
  <animate xmlns="http://www.w3.org/2000/svg" begin="3s" dur="2s" repeatCount="indefinite">
    <rect x="50" y="300" width="100" height="30" fill="#E6F2FF" rx="5"/>
  </animate>
  <text x="70" y="300" fill="#333" font-size="14" font-family="Arial, sans-serif" data-narration="Turing Machine is a model of computation that is used to describe the behavior of a computational system">Turing Machine is a model of computation that is used to describe the behavior of a computational system</text>
  <line x1="50" y1="330" x2="400" y2="330" stroke="#333" stroke-width="2"/>
  <rect x="50" y="360" width="100" height="30" fill="#C7B8EA" rx="5"/>
  <animate xmlns="http://www.w3.org/2000/svg" begin="4s" dur="2s" repeatCount="indefinite">
    <rect x="50" y="360" width="100" height="30" fill="#C9E4CA" rx="5"/>
  </animate>
  <text x="70" y="360" fill="#333" font-size="14" font-family="Arial, sans-serif" data-narration="State is a point in the computation where the system is in a particular state">State is a point in the computation where the system is in a particular state</text>
  <footer>Text Book Sections 51</footer>
</svg>