<svg width="420" height="400" data-topic-id="8-hours-teaching-learning-process-chalk-and-talk-m" xmlns="http://www.w3.org/2000/svg">
  <rect x="0" y="0" width="100%" height="100%" fill="rgb(73, 109, 153)"/>
  <path d="M 10, 20 L 110, 20" stroke="rgb(0, 0, 255)" stroke-width="2"/>
  <path d="M 10, 200 L 110, 200" stroke="rgb(0, 0, 255)" stroke-width="2"/>
  <title>8 Hours Teaching Learning Process Chalk And Talk M</title>
  <defs>
    <linearGradient id="Gradient" x1="0%" y1="0%" x2="0%" y2="100%">
      <stop offset="0%" stop-color="rgb(73, 109, 153)"/>
      <stop offset="100%" stop-color="rgb(73, 109, 153)"/>
    </linearGradient>
  </defs>
  <rect x="10" y="10" width="90%" height="180" fill="url(#Gradient)"/>
  <path d="M 20, 30 L 20, 150" stroke="rgb(0, 128, 0)" stroke-width="2"/>
  <path d="M 20, 120 L 20, 150" stroke="rgb(0, 128, 0)" stroke-width="2"/>
  <rect x="10" y="10" width="90%" height="20" fill="rgb(255, 165, 0)"/>
  <text x="20" y="40" font-size="16" font-family="Arial" fill="white">Introduction</text>
  <text x="20" y="70" font-size="16" font-family="Arial" fill="white">Advantages</text>
  <text x="20" y="100" font-size="16" font-family="Arial" fill="white">Disadvantages</text>
  <rect x="10" y="150" width="90%" height="20" fill="rgb(0, 128, 0)"/>
  <text x="20" y="170" font-size="16" font-family="Arial" fill="white">Introduction</text>
  <text x="20" y="200" font-size="16" font-family="Arial" fill="white">Advantages</text>
  <text x="20" y="230" font-size="16" font-family="Arial" fill="white">Disadvantages</text>
  <rect x="10" y="280" width="90%" height="20" fill="rgb(255, 165, 0)"/>
  <text x="20" y="300" font-size="16" font-family="Arial" fill="white">Comparison</text>
  <animateTransform attributeName="transform" type="translate" from="0,0" to="0,400" begin="0s" dur="5s" repeatCount="indefinite"/>
  <animateTransform attributeName="transform" type="translate" from="0,0" to="420,0" begin="0s" dur="5s" repeatCount="indefinite"/>
  <defs>
    <marker id="Arrow" markerWidth="10" markerHeight="10" refX="5" refY="5" orient="auto">
      <path d="M 0,0 L 10,0 L 5,5 Z"/>
    </marker>
  </defs>
  <path d="M 10,10 L 420,10" stroke="rgb(0, 0, 255)" stroke-width="2" marker-end="url(#Arrow)"/>
  <path d="M 10,10 L 10,380" stroke="rgb(0, 0, 255)" stroke-width="2" marker-end="url(#Arrow)"/>
  <path d="M 10,10 L 410,10" stroke="rgb(0, 0, 255)" stroke-width="2" marker-end="url(#Arrow)"/>
  <path d="M 10,10 L 10,10" stroke="rgb(0, 0, 255)" stroke-width="2" marker-end="url(#Arrow)"/>
  <path d="M 110,10 L 110,380" stroke="rgb(0, 0, 255)" stroke-width="2" marker-end="url(#Arrow)"/>
  <path d="M 10,10 L 110,10" stroke="rgb(0, 0, 255)" stroke-width="2" marker-end="url(#Arrow)"/>
  <path d="M 110,10 L 410,10" stroke="rgb(0, 0, 255)" stroke-width="2" marker-end="url(#Arrow)"/>
  <path d="M 410,10 L 410,380" stroke="rgb(0, 0, 255)" stroke-width="2" marker-end="url(#Arrow)"/>
  <path d="M 10,380 L 110,380" stroke="rgb(0, 0, 255)" stroke-width="2" marker-end="url(#Arrow)"/>
  <path d="M 10,150 L 110,150" stroke="rgb(0, 0, 255)" stroke-width="2" marker-end="url(#Arrow)"/>
  <path d="M 10,280 L 110,280" stroke="rgb(0, 0, 255)" stroke-width="2" marker-end="url(#Arrow)"/>
  <path d="M 10,210 L 110,210" stroke="rgb(0, 0, 255)" stroke-width="2" marker-end="url(#Arrow)"/>
  <path d="M 10,100 L 110,100" stroke="rgb(0, 0, 255)" stroke-width="2" marker-end="url(#Arrow)"/>
  <path d="M 10,130 L 110,130" stroke="rgb(0, 0, 255)" stroke-width="2" marker-end="url(#Arrow)"/>
  <path d="M 10,240 L 110,240" stroke="rgb(0, 0, 255)" stroke-width="2" marker-end="url(#Arrow)"/>
  <path d="M 10,70 L 110,70" stroke="rgb(0, 128, 0)" stroke-width="2" marker-end="url(#Arrow)"/>
  <path d="M 10,120 L 110,120" stroke="rgb(0, 128, 0)" stroke-width="2" marker-end="url(#Arrow)"/>
  <path d="M 10,160 L 110,160" stroke="rgb(0, 128, 0)" stroke-width="2" marker-end="url(#Arrow)"/>
  <path d="M 10,180 L 110,180" stroke="rgb(0, 128, 0)" stroke-width="2" marker-end="url(#Arrow)"/>
  <path d="M 10,200 L 110,200" stroke="rgb(0, 128, 0)" stroke-width="2" marker-end="url(#Arrow)"/>
  <rect x="10" y="10" width="90%" height="20" fill="rgb(255, 165, 0)"/>
  <text x="20" y="30" font-size="16" font-family="Arial" fill="white">Teaching-Learning Process: Chalk and Talk Method / PowerPoint Presentation</text>
  <text x="20" y="300" font-size="16" font-family="Arial" fill="white">Introduction</text>
  <text x="20" y="320" font-size="16" font-family="Arial" fill="white">Advantages</text>
  <text x="20" y="340" font-size="16" font-family="Arial" fill="white">Disadvantages</text>
  <rect x="10" y="10" width="90%" height="180" fill="rgb(73, 109, 153)"/>
  <animateTransform attributeName="transform" type="translate" from="0,0" to="0,400" begin="0s" dur="5s" repeatCount="indefinite"/>
  <animateTransform attributeName="transform" type="translate" from="0,0" to="0,400" begin="0s" dur="5s" repeatCount="indefinite"/>
  <animateTransform attributeName="transform" type="translate" from="0,0" to="420,0" begin="0s" dur="5s" repeatCount="indefinite"/>
  <animateTransform attributeName="transform" type="translate" from="0,0" to="0,400" begin="0s" dur="5s" repeatCount="indefinite"/>
  <animateTransform attributeName="transform" type="translate" from="0,0" to="0,400" begin="0s" dur="5s" repeatCount="indefinite"/>
  <animateTransform attributeName="transform" type="translate" from="0,0" to="420,0" begin="0s" dur="5s" repeatCount="indefinite"/>
  <animateTransform attributeName="transform" type="translate" from="0,0" to="0,400" begin="0s" dur="5s" repeatCount="indefinite"/>
  <animateTransform attributeName="transform" type="translate" from="0,0" to="420,0" begin="0s" dur="5s" repeatCount="indefinite"/>
</svg>