<svg xmlns="http://www.w3.org/2000/svg" viewBox="0 0 800 1350">
  <defs>
    <!-- Gradients -->
    <linearGradient id="titleGrad" x1="0%" y1="0%" x2="100%" y2="100%">
      <stop offset="0%" style="stop-color:#1565c0"/>
      <stop offset="100%" style="stop-color:#0d47a1"/>
    </linearGradient>
    <linearGradient id="blueGrad" x1="0%" y1="0%" x2="0%" y2="100%">
      <stop offset="0%" style="stop-color:#e3f2fd"/>
      <stop offset="100%" style="stop-color:#bbdefb"/>
    </linearGradient>
    <linearGradient id="greenGrad" x1="0%" y1="0%" x2="0%" y2="100%">
      <stop offset="0%" style="stop-color:#e8f5e9"/>
      <stop offset="100%" style="stop-color:#c8e6c9"/>
    </linearGradient>
    <linearGradient id="orangeGrad" x1="0%" y1="0%" x2="0%" y2="100%">
      <stop offset="0%" style="stop-color:#fff3e0"/>
      <stop offset="100%" style="stop-color:#ffe0b2"/>
    </linearGradient>
    <linearGradient id="purpleGrad" x1="0%" y1="0%" x2="0%" y2="100%">
      <stop offset="0%" style="stop-color:#f3e5f5"/>
      <stop offset="100%" style="stop-color:#e1bee7"/>
    </linearGradient>
    <linearGradient id="redGrad" x1="0%" y1="0%" x2="0%" y2="100%">
      <stop offset="0%" style="stop-color:#ffebee"/>
      <stop offset="100%" style="stop-color:#ffcdd2"/>
    </linearGradient>
    
    <!-- Arrow marker -->
    <marker id="arrowBlue" markerWidth="10" markerHeight="10" refX="9" refY="3" orient="auto">
      <path d="M0,0 L0,6 L9,3 z" fill="#1976d2"/>
    </marker>
    <marker id="arrowGreen" markerWidth="10" markerHeight="10" refX="9" refY="3" orient="auto">
      <path d="M0,0 L0,6 L9,3 z" fill="#388e3c"/>
    </marker>
    
    <!-- Shadow filter -->
    <filter id="shadow" x="-20%" y="-20%" width="140%" height="140%">
      <feDropShadow dx="2" dy="2" stdDeviation="3" flood-opacity="0.15"/>
    </filter>
  </defs>
  
  <style>
    @keyframes fadeInSlide {
      from { opacity: 0; transform: translateY(20px); }
      to { opacity: 1; transform: translateY(0); }
    }
    @keyframes scaleIn {
      from { opacity: 0; transform: scale(0.85); }
      to { opacity: 1; transform: scale(1); }
    }
    @keyframes textReveal {
      from { opacity: 0; transform: translateX(-10px); }
      to { opacity: 1; transform: translateX(0); }
    }
    @keyframes pulse {
      0%, 100% { transform: scale(1); }
      50% { transform: scale(1.03); }
    }
    @keyframes drawLine {
      from { stroke-dashoffset: 200; }
      to { stroke-dashoffset: 0; }
    }
    @keyframes fillIn {
      from { opacity: 0; }
      to { opacity: 1; }
    }
    .step { animation: fadeInSlide 0.6s ease-out; }
    .step rect { animation: scaleIn 0.5s cubic-bezier(0.34, 1.56, 0.64, 1); transform-origin: center; }
    .step text { animation: textReveal 0.4s ease-out 0.2s backwards; }
    .gate { animation: scaleIn 0.4s ease-out 0.3s backwards; }
    .wire { stroke-dasharray: 200; stroke-dashoffset: 200; animation: drawLine 0.8s ease-out forwards; }
    .highlight { animation: pulse 1.5s ease-in-out infinite; }
    text { font-family: 'Segoe UI', Arial, sans-serif; }
  </style>
  
  <!-- Background -->
  <rect width="800" height="1350" fill="#f8f9fa"/>
  
  <!-- Step 0: Title -->
  <g class="step" id="step0" data-narration="Welcome to Binary Adder-Subtractor. This fundamental circuit forms the heart of every computer's arithmetic logic unit.">
    <rect x="100" y="10" width="600" height="45" rx="10" fill="url(#titleGrad)" filter="url(#shadow)"/>
    <text x="400" y="42" text-anchor="middle" fill="white" font-size="20" font-weight="bold">Binary Adder-Subtractor</text>
  </g>
  
  <!-- Step 1: Why It Matters -->
  <g class="step" id="step1" data-narration="Adders are the foundation of CPU arithmetic. Every math operation your computer performs uses these circuits at the hardware level.">
    <rect x="50" y="70" width="700" height="85" rx="8" fill="url(#blueGrad)" filter="url(#shadow)"/>
    <text x="70" y="95" fill="#1565c0" font-size="13" font-weight="bold">Why This Matters:</text>
    <text x="70" y="115" fill="#333" font-size="11">Addition and subtraction are the core operations in every</text>
    <text x="70" y="130" fill="#333" font-size="11">CPU. The ALU uses these circuits for ALL mathematical</text>
    <text x="70" y="145" fill="#333" font-size="11">operations - from simple counters to complex calculations.</text>
    
    <!-- Animated ALU icon -->
    <rect x="620" y="85" width="100" height="55" rx="5" fill="#1565c0" opacity="0.8">
      <animate attributeName="opacity" values="0.8;1;0.8" dur="2s" repeatCount="indefinite"/>
    </rect>
    <text x="670" y="108" text-anchor="middle" fill="white" font-size="10" font-weight="bold">ALU</text>
    <text x="670" y="125" text-anchor="middle" fill="white" font-size="8">Core</text>
  </g>
  
  <!-- Step 2: Learning Objectives -->
  <g class="step" id="step2" data-narration="We will learn to build half adders, full adders, multi-bit adders, and the combined adder-subtractor circuit with overflow detection.">
    <rect x="50" y="170" width="700" height="85" rx="8" fill="url(#greenGrad)" filter="url(#shadow)"/>
    <text x="70" y="195" fill="#2e7d32" font-size="13" font-weight="bold">What We'll Learn:</text>
    <circle cx="85" cy="220" r="6" fill="#388e3c"/>
    <text x="100" y="224" fill="#333" font-size="10">Half Adder: 2-bit addition with Sum and Carry</text>
    <circle cx="85" cy="240" r="6" fill="#388e3c"/>
    <text x="100" y="244" fill="#333" font-size="10">Full Adder: Adding with carry-in from previous stage</text>
    <circle cx="320" cy="220" r="6" fill="#388e3c"/>
    <text x="335" y="224" fill="#333" font-size="10">4-Bit Ripple Carry Adder</text>
    <circle cx="320" cy="240" r="6" fill="#388e3c"/>
    <text x="335" y="244" fill="#333" font-size="10">Adder-Subtractor with Mode Control</text>
    <circle cx="550" cy="230" r="6" fill="#388e3c"/>
    <text x="565" y="234" fill="#333" font-size="10">Overflow Detection</text>
  </g>
  
  <!-- Step 3: Half Adder Introduction -->
  <g class="step" id="step3" data-narration="A half adder adds two single binary bits. It produces a Sum (like digit addition) and a Carry (when 1+1 equals 10 in binary).">
    <rect x="50" y="270" width="700" height="95" rx="8" fill="url(#orangeGrad)" filter="url(#shadow)"/>
    <text x="70" y="295" fill="#e65100" font-size="13" font-weight="bold">Half Adder - Adds Two 1-Bit Numbers</text>
    <text x="70" y="315" fill="#333" font-size="11">Takes two inputs: A and B (each 0 or 1)</text>
    <text x="70" y="330" fill="#333" font-size="11">Produces: Sum (S) and Carry (C)</text>
    
    <!-- Half adder block diagram -->
    <rect x="450" y="285" width="120" height="70" rx="5" fill="#ff9800" stroke="#e65100" stroke-width="2"/>
    <text x="510" y="310" text-anchor="middle" fill="white" font-size="11" font-weight="bold">HALF ADDER</text>
    <text x="460" y="328" fill="white" font-size="9">A ───│</text>
    <text x="460" y="343" fill="white" font-size="9">B ───│</text>
    <text x="540" y="328" fill="white" font-size="9">─── S</text>
    <text x="540" y="343" fill="white" font-size="9">─── C</text>
  </g>
  
  <!-- Step 4: Half Adder Truth Table -->
  <g class="step" id="step4" data-narration="The truth table shows all four possible inputs and their outputs. Notice how Carry is only 1 when both inputs are 1.">
    <rect x="50" y="380" width="700" height="95" rx="8" fill="url(#orangeGrad)" filter="url(#shadow)"/>
    <text x="70" y="405" fill="#e65100" font-size="13" font-weight="bold">Truth Table</text>
    
    <!-- Table -->
    <rect x="150" y="415" width="120" height="55" rx="4" fill="white" stroke="#ff9800" stroke-width="1"/>
    <text x="170" y="432" fill="#e65100" font-size="9" font-weight="bold">A</text>
    <text x="210" y="432" fill="#e65100" font-size="9" font-weight="bold">B</text>
    <text x="170" y="455" fill="#333" font-size="9">0</text>
    <text x="210" y="455" fill="#333" font-size="9">0</text>
    <text x="170" y="445" fill="#333" font-size="9">0</text>
    <text x="210" y="445" fill="#333" font-size="9">1</text>
    <text x="170" y="435" fill="#333" font-size="9">1</text>
    <text x="210" y="435" fill="#333" font-size="9">0</text>
    <text x="170" y="425" fill="#333" font-size="9">1</text>
    <text x="210" y="425" fill="#333" font-size="9">1</text>
    
    <rect x="280" y="415" width="120" height="55" rx="4" fill="white" stroke="#ff9800" stroke-width="1"/>
    <text x="300" y="432" fill="#2e7d32" font-size="9" font-weight="bold">S (Sum)</text>
    <text x="350" y="432" fill="#2e7d32" font-size="9" font-weight="bold">C (Carry)</text>
    <text x="305" y="455" fill="#333" font-size="9">0</text>
    <text x="355" y="455" fill="#333" font-size="9">0</text>
    <text x="305" y="445" fill="#333" font-size="9">1</text>
    <text x="355" y="445" fill="#333" font-size="9">0</text>
    <text x="305" y="435" fill="#333" font-size="9">1</text>
    <text x="355" y="435" fill="#333" font-size="9">0</text>
    <text x="305" y="425" fill="#333" font-size="9">0</text>
    <text x="355" y="425" fill="#333" font-size="9">1</text>
    
    <!-- Boolean expressions -->
    <text x="450" y="425" fill="#e65100" font-size="12" font-weight="bold">S = A ⊕ B (XOR)</text>
    <text x="450" y="445" fill="#e65100" font-size="12" font-weight="bold">C = A · B (AND)</text>
    <text x="450" y="462" fill="#666" font-size="10">Sum = XOR, Carry = AND gate</text>
  </g>
  
  <!-- Step 5: Half Adder Circuit -->
  <g class="step" id="step5" data-narration="The half adder circuit uses an XOR gate for sum and an AND gate for carry. These are the two fundamental building blocks.">
    <rect x="50" y="490" width="700" height="95" rx="8" fill="url(#orangeGrad)" filter="url(#shadow)"/>
    <text x="70" y="515" fill="#e65100" font-size="13" font-weight="bold">Circuit Implementation</text>
    
    <!-- Gate diagram -->
    <rect x="100" y="530" width="80" height="40" rx="4" fill="#1976d2"/>
    <text x="140" y="555" text-anchor="middle" fill="white" font-size="12" font-weight="bold">XOR</text>
    <text x="80" y="545" fill="#333" font-size="10">A</text>
    <text x="80" y="565" fill="#333" font-size="10">B</text>
    <line x1="180" y1="550" x2="240" y2="550" stroke="#333" stroke-width="2" class="wire"/>
    <text x="250" y="555" fill="#2e7d32" font-size="12" font-weight="bold">S</text>
    
    <rect x="300" y="530" width="80" height="40" rx="4" fill="#388e3c"/>
    <text x="340" y="555" text-anchor="middle" fill="white" font-size="12" font-weight="bold">AND</text>
    <line x1="280" y1="545" x2="300" y2="545" stroke="#333" stroke-width="2" class="wire"/>
    <line x1="280" y1="565" x2="300" y2="565" stroke="#333" stroke-width="2" class="wire"/>
    <line x1="380" y1="550" x2="420" y2="550" stroke="#333" stroke-width="2" class="wire"/>
    <text x="430" y="555" fill="#c62828" font-size="12" font-weight="bold">C</text>
    
    <text x="520" y="545" fill="#666" font-size="10">XOR produces Sum</text>
    <text x="520" y="562" fill="#666" font-size="10">AND produces Carry</text>
  </g>
  
  <!-- Step 6: Full Adder Introduction -->
  <g class="step" id="step6" data-narration="A full adder adds THREE bits: A, B, and a carry-in from the previous stage. This allows us to chain adders together.">
    <rect x="50" y="600" width="700" height="95" rx="8" fill="url(#blueGrad)" filter="url(#shadow)"/>
    <text x="70" y="625" fill="#1565c0" font-size="13" font-weight="bold">Full Adder - Adds Three 1-Bit Numbers</text>
    <text x="70" y="645" fill="#333" font-size="11">Takes three inputs: A, B, and Carry-in (Cᵢₙ)</text>
    <text x="70" y="660" fill="#333" font-size="11">Produces: Sum (S) and Carry-out (Cₒᵤₜ)</text>
    <text x="70" y="680" fill="#666" font-size="10">Essential for cascading adders in multi-bit operations</text>
    
    <!-- Full adder block -->
    <rect x="480" y="615" width="150" height="70" rx="5" fill="#1976d2" stroke="#0d47a1" stroke-width="2"/>
    <text x="555" y="640" text-anchor="middle" fill="white" font-size="11" font-weight="bold">FULL ADDER</text>
    <text x="490" y="660" fill="white" font-size="8">A B Cᵢₙ</text>
    <text x="610" y="660" fill="white" font-size="8">S Cₒᵤₜ</text>
  </g>
  
  <!-- Step 7: Full Adder Truth Table -->
  <g class="step" id="step7" data-narration="Eight possible input combinations exist. Notice the pattern: carry-out is 1 when at least two inputs are 1.">
    <rect x="50" y="710" width="700" height="95" rx="8" fill="url(#blueGrad)" filter="url(#shadow)"/>
    <text x="70" y="735" fill="#1565c0" font-size="13" font-weight="bold">Full Adder Truth Table (8 Combinations)</text>
    
    <!-- Table grid -->
    <rect x="80" y="745" width="250" height="55" rx="4" fill="white" stroke="#1976d2" stroke-width="1"/>
    <text x="90" y="760" fill="#1565c0" font-size="8" font-weight="bold">A</text>
    <text x="125" y="760" fill="#1565c0" font-size="8" font-weight="bold">B</text>
    <text x="160" y="760" fill="#1565c0" font-size="8" font-weight="bold">Cᵢₙ</text>
    <text x="210" y="760" fill="#2e7d32" font-size="8" font-weight="bold">S</text>
    <text x="270" y="760" fill="#c62828" font-size="8" font-weight="bold">Cₒᵤₜ</text>
    <text x="90" y="785" fill="#333" font-size="8">0</text>
    <text x="125" y="785" fill="#333" font-size="8">0</text>
    <text x="160" y="785" fill="#333" font-size="8">0</text>
    <text x="210" y="785" fill="#333" font-size="8">0</text>
    <text x="270" y="785" fill="#333" font-size="8">0</text>
    <text x="90" y="775" fill="#333" font-size="8">0</text>
    <text x="125" y="775" fill="#333" font-size="8">0</text>
    <text x="160" y="775" fill="#333" font-size="8">1</text>
    <text x="210" y="775" fill="#333" font-size="8">1</text>
    <text x="270" y="775" fill="#333" font-size="8">0</text>
    <text x="90" y="765" fill="#333" font-size="8">0</text>
    <text x="125" y="765" fill="#333" font-size="8">1</text>
    <text x="160" y="765" fill="#333" font-size="8">0</text>
    <text x="210" y="765" fill="#333" font-size="8">1</text>
    <text x="270" y="765" fill="#333" font-size="8">0</text>
    <text x="90" y="755" fill="#333" font-size="8">0</text>
    <text x="125" y="755" fill="#333" font-size="8">1</text>
    <text x="160" y="755" fill="#333" font-size="8">1</text>
    <text x="210" y="755" fill="#333" font-size="8">0</text>
    <text x="270" y="755" fill="#333" font-size="8">1</text>
    
    <!-- Key insight -->
    <text x="360" y="755" fill="#1565c0" font-size="10" font-weight="bold">Cₒᵤₜ = 1 when ≥2 inputs are 1</text>
    <text x="360" y="775" fill="#333" font-size="10">S = A ⊕ B ⊕ Cᵢₙ (three-input XOR)</text>
  </g>
  
  <!-- Step 8: Full Adder Implementation -->
  <g class="step" id="step8" data-narration="A full adder can be built using two half adders and an OR gate. First half adder adds A and B, second adds result to Cᵢₙ.">
    <rect x="50" y="820" width="700" height="95" rx="8" fill="url(#blueGrad)" filter="url(#shadow)"/>
    <text x="70" y="845" fill="#1565c0" font-size="13" font-weight="bold">Implementation Using Two Half Adders</text>
    
    <!-- Diagram showing two half adders -->
    <rect x="100" y="860" width="100" height="45" rx="4" fill="#ff9800" stroke="#e65100"/>
    <text x="150" y="882" text-anchor="middle" fill="white" font-size="10" font-weight="bold">HA 1</text>
    <text x="150" y="895" text-anchor="middle" fill="white" font-size="8">A⊕B</text>
    <line x1="200" y1="882" x2="250" y2="882" stroke="#333" stroke-width="2"/>
    
    <rect x="260" y="860" width="100" height="45" rx="4" fill="#ff9800" stroke="#e65100"/>
    <text x="310" y="882" text-anchor="middle" fill="white" font-size="10" font-weight="bold">HA 2</text>
    <text x="310" y="895" text-anchor="middle" fill="white" font-size="8">⊕Cᵢₙ</text>
    
    <rect x="400" y="860" width="60" height="45" rx="4" fill="#9c27b0"/>
    <text x="430" y="882" text-anchor="middle" fill="white" font-size="10" font-weight="bold">OR</text>
    
    <text x="110" y="900" fill="#333" font-size="8">A, B</text>
    <text x="270" y="900" fill="#333" font-size="8">S₁, Cᵢₙ</text>
    <text x="320" y="882" x2="360" y2="882" stroke="#333" stroke-width="2"/>
    <text x="460" y="882" fill="#333" font-size="9">→ S</text>
    <text x="460" y="897" fill="#c62828" font-size="9">→ Cₒᵤₜ</text>
    
    <text x="530" y="870" fill="#1565c0" font-size="9">S = (A⊕B) ⊕ Cᵢₙ</text>
    <text x="530" y="888" fill="#c62828" font-size="9">Cₒᵤₜ = C₁ + C₂</text>
  </g>
  
  <!-- Step 9: 4-Bit Ripple Carry Adder -->
  <g class="step" id="step9" data-narration="A 4-bit ripple carry adder chains four full adders. The carry "ripples" through each stage from LSB to MSB.">
    <rect x="50" y="930" width="700" height="105" rx="8" fill="url(#greenGrad)" filter="url(#shadow)"/>
    <text x="70" y="955" fill="#2e7d32" font-size="13" font-weight="bold">4-Bit Ripple Carry Adder</text>
    <text x="70" y="975" fill="#333" font-size="11">Four full adders cascaded, carry propagates from FA₀ → FA₃</text>
    
    <!-- Ripple carry diagram -->
    <rect x="90" y="985" width="60" height="40" rx="4" fill="#1976d2"/>
    <text x="120" y="1008" text-anchor="middle" fill="white" font-size="9" font-weight="bold">FA₀</text>
    <rect x="160" y="985" width="60" height="40" rx="4" fill="#1976d2"/>
    <text x="190" y="1008" text-anchor="middle" fill="white" font-size="9" font-weight="bold">FA₁</text>
    <rect x="230" y="985" width="60" height="40" rx="4" fill="#1976d2"/>
    <text x="260" y="1008" text-anchor="middle" fill="white" font-size="9" font-weight="bold">FA₂</text>
    <rect x="300" y="985" width="60" height="40" rx="4" fill="#1976d2"/>
    <text x="330" y="1008" text-anchor="middle" fill="white" font-size="9" font-weight="bold">FA₃</text>
    
    <!-- Carry arrows -->
    <path d="M145 1005 L155 1005 L160 1000 L160 1015 L155 1010 L145 1010 Z" fill="#388e3c" class="highlight"/>
    <path d="M215 1005 L225 1005 L230 1000 L230 1015 L225 1010 L215 1010 Z" fill="#388e3c" class="highlight"/>
    <path d="M285 1005 L295 1005 L300 1000 L300 1015 L295 1010 L285 1010 Z" fill="#388e3c" class="highlight"/>
    
    <!-- Labels -->
    <text x="95" y="1035" fill="#333" font-size="8">A₀B₀</text>
    <text x="165" y="1035" fill="#333" font-size="8">A₁B₁</text>
    <text x="235" y="1035" fill="#333" font-size="8">A₂B₂</text>
    <text x="305" y="1035" fill="#333" font-size="8">A₃B₃</text>
    <text x="130" y="990" fill="#333" font-size="7">C₀=0</text>
    <text x="370" y="1008" fill="#c62828" font-size="9" font-weight="bold">C₄</text>
    <text x="410" y="1000" fill="#333" font-size="9">Carry propagates through</text>
    <text x="410" y="1015" fill="#666" font-size="8">all stages (slow for large n)</text>
  </g>
  
  <!-- Step 10: Binary Subtractor -->
  <g class="step" id="step10" data-narration="Subtraction uses 2's complement: A - B equals A + (B's complement + 1). We invert B and add 1 through carry-in.">
    <rect x="50" y="1050" width="700" height="85" rx="8" fill="url(#purpleGrad)" filter="url(#shadow)"/>
    <text x="70" y="1075" fill="#7b1fa2" font-size="13" font-weight="bold">Binary Subtractor - Using 2's Complement</text>
    <text x="70" y="1095" fill="#333" font-size="11">A - B = A + (2's complement of B) = A + B' + 1</text>
    <text x="70" y="1112" fill="#666" font-size="10">B' = bit-wise inversion (1's complement), adding 1 via carry-in</text>
    <text x="400" y="1105" fill="#7b1fa2" font-size="11" font-weight="bold">B' + 1 = -(B) in 2's complement</text>
  </g>
  
  <!-- Step 11: 4-Bit Adder-Subtractor -->
  <g class="step" id="step11" data-narration="A unified circuit uses XOR gates and a mode bit M. M=0 adds normally. M=1 inverts B and sets carry-in to 1 for subtraction.">
    <rect x="50" y="1150" width="700" height="95" rx="8" fill="url(#redGrad)" filter="url(#shadow)"/>
    <text x="70" y="1175" fill="#c62828" font-size="13" font-weight="bold">4-Bit Adder-Subtractor Circuit</text>
    <text x="70" y="1195" fill="#333" font-size="11">Mode M controls operation: M=0 → Add (A+B), M=1 → Subtract (A-B)</text>
    
    <!-- Mode control -->
    <rect x="80" y="1210" width="50" height="25" rx="4" fill="#f44336"/>
    <text x="105" y="1227" text-anchor="middle" fill="white" font-size="10" font-weight="bold">M</text>
    <text x="140" y="1227" fill="#333" font-size="9">→ XOR gates</text>
    
    <!-- XOR + FA pairs -->
    <rect x="180" y="1205" width="30" height="25" rx="3" fill="#1976d2"/>
    <text x="195" y="1220" text-anchor="middle" fill="white" font-size="8">⊕</text>
    <rect x="215" y="1205" width="50" height="30" rx="3" fill="#388e3c"/>
    <text x="240" y="1223" text-anchor="middle" fill="white" font-size="8">FA</text>
    
    <rect x="275" y="1205" width="30" height="25" rx="3" fill="#1976d2"/>
    <text x="290" y="1220" text-anchor="middle" fill="white" font-size="8">⊕</text>
    <rect x="310" y="1205" width="50" height="30" rx="3" fill="#388e3c"/>
    <text x="335" y="1223" text-anchor="middle" fill="white" font-size="8">FA</text>
    
    <rect x="370" y="1205" width="30" height="25" rx="3" fill="#1976d2"/>
    <text x="385" y="1220" text-anchor="middle" fill="white" font-size="8">⊕</text>
    <rect x="405" y="1205" width="50" height="30" rx="3" fill="#388e3c"/>
    <text x="430" y="1223" text-anchor="middle" fill="white" font-size="8">FA</text>
    
    <!-- Labels -->
    <text x="180" y="1240" fill="#666" font-size="8">B₀→B₀'</text>
    <text x="220" y="1220" x2="215" y2="1220" stroke="#333" stroke-width="1"/>
    <text x="480" y="1215" fill="#333" font-size="9">When M=0: B passes, C₀=0 (Add)</text>
    <text x="480" y="1230" fill="#333" font-size="9">When M=1: B inverts, C₀=1 (Subtract)</text>
  </g>
  
  <!-- Step 12: Overflow Detection -->
  <g class="step" id="step12" data-narration="Overflow occurs in signed arithmetic when result exceeds range. Detected by XORing the two MSB carries: V = Cₙ ⊕ Cₙ₋₁.">
    <rect x="50" y="1260" width="700" height="75" rx="8" fill="url(#orangeGrad)" filter="url(#shadow)"/>
    <text x="70" y="1285" fill="#e65100" font-size="13" font-weight="bold">Overflow Detection</text>
    <text x="70" y="1305" fill="#333" font-size="11">V = Cₙ ⊕ Cₙ₋₁ (XOR of MSB carry-out and carry-in)</text>
    <text x="70" y="1322" fill="#666" font-size="10">If V=1: overflow occurred (wrong sign in signed arithmetic)</text>
    
    <!-- Example -->
    <rect x="380" y="1285" width="350" height="45" rx="4" fill="white" stroke="#e65100"/>
    <text x="395" y="1303" fill="#c62828" font-size="10" font-weight="bold">Example: 0110 (+6) + 0101 (+5) = 1011 (-5!)</text>
    <text x="395" y="1320" fill="#666" font-size="9">Overflow! Two positives gave negative result</text>
  </g>
</svg>