<svg viewBox="0 0 800 1550" xmlns="http://www.w3.org/2000/svg">
  <defs>
    <linearGradient id="blueGrad" x1="0%" y1="0%" x2="100%" y2="100%">
      <stop offset="0%" style="stop-color:#e3f2fd"/>
      <stop offset="100%" style="stop-color:#bbdefb"/>
    </linearGradient>
    <linearGradient id="greenGrad" x1="0%" y1="0%" x2="100%" y2="100%">
      <stop offset="0%" style="stop-color:#e8f5e9"/>
      <stop offset="100%" style="stop-color:#c8e6c9"/>
    </linearGradient>
    <linearGradient id="orangeGrad" x1="0%" y1="0%" x2="100%" y2="100%">
      <stop offset="0%" style="stop-color:#fff3e0"/>
      <stop offset="100%" style="stop-color:#ffe0b2"/>
    </linearGradient>
    <linearGradient id="purpleGrad" x1="0%" y1="0%" x2="100%" y2="100%">
      <stop offset="0%" style="stop-color:#f3e5f5"/>
      <stop offset="100%" style="stop-color:#e1bee7"/>
    </linearGradient>
    <linearGradient id="redGrad" x1="0%" y1="0%" x2="100%" y2="100%">
      <stop offset="0%" style="stop-color:#ffebee"/>
      <stop offset="100%" style="stop-color:#ffcdd2"/>
    </linearGradient>
    <linearGradient id="titleGrad" x1="0%" y1="0%" x2="100%" y2="0%">
      <stop offset="0%" style="stop-color:#1976d2"/>
      <stop offset="100%" style="stop-color:#1565c0"/>
    </linearGradient>
    <filter id="shadow" x="-20%" y="-20%" width="140%" height="140%">
      <feDropShadow dx="2" dy="2" stdDeviation="3" flood-opacity="0.15"/>
    </filter>
    <marker id="arrowBlue" markerWidth="10" markerHeight="10" refX="9" refY="3" orient="auto" markerUnits="strokeWidth">
      <path d="M0,0 L0,6 L9,3 z" fill="#1976d2"/>
    </marker>
    <marker id="arrowGreen" markerWidth="10" markerHeight="10" refX="9" refY="3" orient="auto" markerUnits="strokeWidth">
      <path d="M0,0 L0,6 L9,3 z" fill="#388e3c"/>
    </marker>
    <marker id="arrowOrange" markerWidth="10" markerHeight="10" refX="9" refY="3" orient="auto" markerUnits="strokeWidth">
      <path d="M0,0 L0,6 L9,3 z" fill="#ff9800"/>
    </marker>
  </defs>
  <style>
    @keyframes fadeInSlide {
      from { opacity: 0; transform: translateY(20px); }
      to { opacity: 1; transform: translateY(0); }
    }
    @keyframes scaleIn {
      from { opacity: 0; transform: scale(0.85); }
      to { opacity: 1; transform: scale(1); }
    }
    @keyframes textReveal {
      from { opacity: 0; transform: translateX(-10px); }
      to { opacity: 1; transform: translateX(0); }
    }
    @keyframes drawLine {
      from { stroke-dashoffset: 500; }
      to { stroke-dashoffset: 0; }
    }
    @keyframes pulse {
      0%, 100% { transform: scale(1); }
      50% { transform: scale(1.03); }
    }
    .step { animation: fadeInSlide 0.6s ease-out; }
    .step rect {
      animation: scaleIn 0.5s cubic-bezier(0.34, 1.56, 0.64, 1);
      transform-origin: center;
    }
    .step text { animation: textReveal 0.4s ease-out 0.2s backwards; }
    .title-text { font-family: 'Segoe UI', Arial, sans-serif; font-weight: 600; }
    .body-text { font-family: 'Segoe UI', Arial, sans-serif; font-size: 11px; }
    .label-text { font-family: 'Segoe UI', Arial, sans-serif; font-size: 9px; }
    .anim-path {
      stroke-dasharray: 500;
      stroke-dashoffset: 500;
      animation: drawLine 1.5s ease-out forwards;
    }
  </style>
  
  <rect width="800" height="1550" fill="#f8f9fa"/>
  
  <!-- Step 0: Title -->
  <g class="step" id="step0" data-narration="Welcome! Today we'll explore Reinforcement Learning within the broader Machine Learning taxonomy.">
    <rect x="0" y="0" width="800" height="50" fill="url(#titleGrad)" rx="0"/>
    <text x="400" y="32" text-anchor="middle" fill="white" font-size="20" class="title-text">Reinforcement Learning in Machine Learning</text>
    <text x="400" y="45" text-anchor="middle" fill="#e3f2fd" font-size="11" class="body-text">Understanding RL's Place in the ML Taxonomy</text>
  </g>

  <!-- Step 1: ML Taxonomy Overview -->
  <g class="step" id="step1" data-narration="Machine learning has three main paradigms. Let's visualize how they fit together in the ML family tree.">
    <rect x="40" y="60" width="720" height="85" fill="white" rx="10" filter="url(#shadow)"/>
    <text x="60" y="85" fill="#333" font-size="14" class="title-text">The Machine Learning Taxonomy</text>
    <rect x="60" y="100" width="200" height="35" fill="url(#blueGrad)" rx="6"/>
    <text x="160" y="118" text-anchor="middle" fill="#1976d2" font-size="11" class="title-text">Supervised Learning</text>
    <rect x="280" y="100" width="200" height="35" fill="url(#greenGrad)" rx="6"/>
    <text x="380" y="118" text-anchor="middle" fill="#388e3c" font-size="11" class="title-text">Unsupervised Learning</text>
    <rect x="500" y="100" width="200" height="35" fill="url(#orangeGrad)" rx="6"/>
    <text x="600" y="118" text-anchor="middle" fill="#ff9800" font-size="11" class="title-text">Reinforcement Learning</text>
    <line x1="160" y1="135" x2="400" y2="135" stroke="#666" stroke-width="1" marker-end="url(#arrowBlue)"/>
    <line x1="440" y1="135" x2="600" y2="135" stroke="#666" stroke-width="1" marker-end="url(#arrowGreen)"/>
    <path d="M200,135 L250,160 L350,160 L400,135" stroke="#666" stroke-width="1" fill="none"/>
    <path d="M400,135 L450,160 L550,160 L600,135" stroke="#666" stroke-width="1" fill="none"/>
  </g>

  <!-- Step 2: What makes RL different -->
  <g class="step" id="step2" data-narration="Unlike other paradigms, RL learns through direct interaction with an environment, receiving rewards or penalties.">
    <rect x="40" y="160" width="720" height="85" fill="white" rx="10" filter="url(#shadow)"/>
    <text x="60" y="185" fill="#333" font-size="14" class="title-text">How Reinforcement Learning Differs</text>
    <circle cx="120" cy="220" r="25" fill="url(#orangeGrad)" stroke="#ff9800" stroke-width="2"/>
    <text x="120" y="215" text-anchor="middle" fill="#e65100" font-size="10" class="title-text">RL</text>
    <text x="120" y="227" text-anchor="middle" fill="#333" font-size="8">Learns via</text>
    <text x="120" y="237" text-anchor="middle" fill="#333" font-size="8">Interaction</text>
    <line x1="150" y1="220" x2="220" y2="220" stroke="#ff9800" stroke-width="2" stroke-dasharray="5,3" marker-end="url(#arrowOrange)"/>
    <rect x="230" y="200" width="140" height="45" fill="url(#blueGrad)" rx="6"/>
    <text x="300" y="218" text-anchor="middle" fill="#1976d2" font-size="10" class="title-text">Supervised</text>
    <text x="300" y="232" text-anchor="middle" fill="#666" font-size="9">Labeled Data</text>
    <rect x="390" y="200" width="140" height="45" fill="url(#greenGrad)" rx="6"/>
    <text x="460" y="218" text-anchor="middle" fill="#388e3c" font-size="10" class="title-text">Unsupervised</text>
    <text x="460" y="232" text-anchor="middle" fill="#666" font-size="9">Unlabeled Data</text>
    <rect x="550" y="200" width="180" height="45" fill="url(#orangeGrad)" rx="6"/>
    <text x="640" y="218" text-anchor="middle" fill="#e65100" font-size="10" class="title-text">Reinforcement</text>
    <text x="640" y="232" text-anchor="middle" fill="#666" font-size="9">Environment Interaction</text>
  </g>

  <!-- Step 3: Supervised Learning -->
  <g class="step" id="step3" data-narration="Supervised learning uses labeled training data to learn a mapping from inputs to outputs, minimizing prediction errors.">
    <rect x="40" y="260" width="720" height="90" fill="white" rx="10" filter="url(#shadow)"/>
    <rect x="50" y="270" width="5" height="70" fill="#1976d2" rx="2"/>
    <text x="65" y="290" fill="#1976d2" font-size="13" class="title-text">1. Supervised Learning</text>
    <rect x="65" y="305" width="680" height="35" fill="url(#blueGrad)" rx="6"/>
    <text x="80" y="322" fill="#333" font-size="10" class="body-text">Training Data: Input-Output Pairs (Labeled)</text>
    <text x="480" y="322" fill="#666" font-size="9" class="label-text">Examples: Classification, Regression</text>
    <line x1="250" y1="322" x2="310" y2="322" stroke="#1976d2" stroke-width="1" marker-end="url(#arrowBlue)"/>
    <rect x="320" y="305" width="140" height="35" fill="#e3f2fd" rx="6" stroke="#1976d2" stroke-width="1"/>
    <text x="390" y="322" text-anchor="middle" fill="#1976d2" font-size="10" class="title-text">Learns Mapping</text>
    <line x1="470" y1="322" x2="530" y2="322" stroke="#1976d2" stroke-width="1" marker-end="url(#arrowBlue)"/>
    <rect x="540" y="305" width="140" height="35" fill="#e3f2fd" rx="6" stroke="#1976d2" stroke-width="1"/>
    <text x="610" y="322" text-anchor="middle" fill="#1976d2" font-size="10" class="title-text">Direct Feedback</text>
  </g>

  <!-- Step 4: Unsupervised Learning -->
  <g class="step" id="step4" data-narration="Unsupervised learning finds hidden patterns in unlabeled data without any feedback, discovering structure autonomously.">
    <rect x="40" y="365" width="720" height="90" fill="white" rx="10" filter="url(#shadow)"/>
    <rect x="50" y="375" width="5" height="70" fill="#388e3c" rx="2"/>
    <text x="65" y="395" fill="#388e3c" font-size="13" class="title-text">2. Unsupervised Learning</text>
    <rect x="65" y="410" width="680" height="35" fill="url(#greenGrad)" rx="6"/>
    <text x="80" y="427" fill="#333" font-size="10" class="body-text">Training Data: Inputs Only (Unlabeled)</text>
    <text x="480" y="427" fill="#666" font-size="9" class="label-text">Examples: Clustering, PCA, Association</text>
    <line x1="260" y1="427" x2="320" y2="427" stroke="#388e3c" stroke-width="1" marker-end="url(#arrowGreen)"/>
    <rect x="330" y="410" width="140" height="35" fill="#e8f5e9" rx="6" stroke="#388e3c" stroke-width="1"/>
    <text x="400" y="427" text-anchor="middle" fill="#388e3c" font-size="10" class="title-text">Discovers Patterns</text>
    <line x1="480" y1="427" x2="540" y2="427" stroke="#388e3c" stroke-width="1" marker-end="url(#arrowGreen)"/>
    <rect x="550" y="410" width="140" height="35" fill="#e8f5e9" rx="6" stroke="#388e3c" stroke-width="1"/>
    <text x="620" y="427" text-anchor="middle" fill="#388e3c" font-size="10" class="title-text">No Feedback</text>
  </g>

  <!-- Step 5: Reinforcement Learning -->
  <g class="step" id="step5" data-narration="RL agents learn through trial-and-error interaction, receiving scalar rewards and maximizing cumulative reward over time.">
    <rect x="40" y="470" width="720" height="90" fill="white" rx="10" filter="url(#shadow)"/>
    <rect x="50" y="480" width="5" height="70" fill="#ff9800" rx="2"/>
    <text x="65" y="500" fill="#e65100" font-size="13" class="title-text">3. Reinforcement Learning</text>
    <rect x="65" y="515" width="680" height="35" fill="url(#orangeGrad)" rx="6"/>
    <text x="80" y="532" fill="#333" font-size="10" class="body-text">Agent interacts with Environment → Receives Rewards/Penalties</text>
    <text x="520" y="532" fill="#666" font-size="9" class="label-text">Sequential Decision Making</text>
    <line x1="340" y1="532" x2="400" y2="532" stroke="#ff9800" stroke-width="1" marker-end="url(#arrowOrange)"/>
    <rect x="410" y="515" width="140" height="35" fill="#fff3e0" rx="6" stroke="#ff9800" stroke-width="1"/>
    <text x="480" y="532" text-anchor="middle" fill="#e65100" font-size="10" class="title-text">Maximizes Reward</text>
    <line x1="560" y1="532" x2="620" y2="532" stroke="#ff9800" stroke-width="1" marker-end="url(#arrowOrange)"/>
    <rect x="630" y="515" width="100" height="35" fill="#fff3e0" rx="6" stroke="#ff9800" stroke-width="1"/>
    <text x="680" y="532" text-anchor="middle" fill="#e65100" font-size="10" class="title-text">Delayed</text>
  </g>

  <!-- Step 6: Key Differences - Feedback Type -->
  <g class="step" id="step6" data-narration="Let's compare the three paradigms across four key dimensions: feedback type, data characteristics, and learning objectives.">
    <rect x="40" y="575" width="720" height="90" fill="white" rx="10" filter="url(#shadow)"/>
    <text x="60" y="600" fill="#333" font-size="14" class="title-text">Key Differences: Feedback Type</text>
    <rect x="60" y="615" width="210" height="40" fill="url(#blueGrad)" rx="6"/>
    <text x="165" y="630" text-anchor="middle" fill="#1976d2" font-size="10" class="title-text">Supervised</text>
    <text x="165" y="645" text-anchor="middle" fill="#666" font-size="9">Direct feedback per decision</text>
    <rect x="295" y="615" width="210" height="40" fill="url(#greenGrad)" rx="6"/>
    <text x="400" y="630" text-anchor="middle" fill="#388e3c" font-size="10" class="title-text">Unsupervised</text>
    <text x="400" y="645" text-anchor="middle" fill="#666" font-size="9">No feedback - discovers alone</text>
    <rect x="530" y="615" width="210" height="40" fill="url(#orangeGrad)" rx="6"/>
    <text x="635" y="630" text-anchor="middle" fill="#e65100" font-size="10" class="title-text">RL</text>
    <text x="635" y="645" text-anchor="middle" fill="#666" font-size="9">Scalar reward (may be delayed)</text>
  </g>

  <!-- Step 7: Key Differences - Data Characteristics -->
  <g class="step" id="step7" data-narration="The data characteristics differ significantly: static labeled datasets vs dynamic agent-generated interactions.">
    <rect x="40" y="680" width="720" height="90" fill="white" rx="10" filter="url(#shadow)"/>
    <text x="60" y="705" fill="#333" font-size="14" class="title-text">Key Differences: Data Characteristics</text>
    <rect x="60" y="720" width="210" height="40" fill="url(#blueGrad)" rx="6"/>
    <text x="165" y="735" text-anchor="middle" fill="#1976d2" font-size="10" class="title-text">Static Dataset</text>
    <text x="165" y="750" text-anchor="middle" fill="#666" font-size="9">Labeled examples</text>
    <rect x="295" y="720" width="210" height="40" fill="url(#greenGrad)" rx="6"/>
    <text x="400" y="735" text-anchor="middle" fill="#388e3c" font-size="10" class="title-text">Static Dataset</text>
    <text x="400" y="750" text-anchor="middle" fill="#666" font-size="9">No labels</text>
    <rect x="530" y="720" width="210" height="40" fill="url(#orangeGrad)" rx="6"/>
    <text x="635" y="735" text-anchor="middle" fill="#e65100" font-size="10" class="title-text">Dynamic</text>
    <text x="635" y="750" text-anchor="middle" fill="#666" font-size="9">Agent generates data through interaction</text>
  </g>

  <!-- Step 8: Key Differences - Learning Objective -->
  <g class="step" id="step8" data-narration="Learning objectives vary: minimize prediction error vs discover patterns vs maximize cumulative reward.">
    <rect x="40" y="785" width="720" height="90" fill="white" rx="10" filter="url(#shadow)"/>
    <text x="60" y="810" fill="#333" font-size="14" class="title-text">Key Differences: Learning Objective</text>
    <rect x="60" y="825" width="210" height="40" fill="url(#blueGrad)" rx="6"/>
    <text x="165" y="840" text-anchor="middle" fill="#1976d2" font-size="10" class="title-text">Minimize Prediction Error</text>
    <rect x="295" y="825" width="210" height="40" fill="url(#greenGrad)" rx="6"/>
    <text x="400" y="840" text-anchor="middle" fill="#388e3c" font-size="10" class="title-text">Discover Hidden Patterns</text>
    <rect x="530" y="825" width="210" height="40" fill="url(#orangeGrad)" rx="6"/>
    <text x="635" y="840" text-anchor="middle" fill="#e65100" font-size="10" class="title-text">Maximize Cumulative Reward</text>
  </g>

  <!-- Step 9: RL Framework - Agent & Environment -->
  <g class="step" id="step9" data-narration="The RL framework has core components: an agent that learns, and an environment that the agent interacts with.">
    <rect x="40" y="890" width="720" height="90" fill="white" rx="10" filter="url(#shadow)"/>
    <text x="60" y="915" fill="#333" font-size="14" class="title-text">The RL Framework: Agent &amp; Environment</text>
    <!-- Environment Box -->
    <rect x="350" y="935" width="200" height="35" fill="#f5f5f5" rx="6" stroke="#666" stroke-width="2"/>
    <text x="450" y="953" text-anchor="middle" fill="#333" font-size="11" class="title-text">ENVIRONMENT</text>
    <text x="450" y="967" text-anchor="middle" fill="#666" font-size="8">Provides states &amp; rewards</text>
    <!-- Agent Box -->
    <rect x="250" y="935" width="80" height="35" fill="url(#orangeGrad)" rx="6" stroke="#ff9800" stroke-width="2"/>
    <text x="290" y="953" text-anchor="middle" fill="#e65100" font-size="11" class="title-text">AGENT</text>
    <text x="290" y="967" text-anchor="middle" fill="#666" font-size="8">Learns &amp; decides</text>
    <!-- Arrows -->
    <path d="M330,952 L350,952" stroke="#ff9800" stroke-width="2" marker-end="url(#arrowOrange)">
      <animate attributeName="d" values="M330,952 L340,952;M330,952 L350,952" dur="1s" fill="freeze"/>
    </path>
    <path d="M550,952 L570,952" stroke="#388e3c" stroke-width="2" marker-end="url(#arrowGreen)">
      <animate attributeName="d" values="M550,952 L560,952;M550,952 L570,952" dur="1s" fill="freeze"/>
    </path>
    <text x="620" y="955" fill="#666" font-size="9">Action</text>
    <text x="180" y="955" fill="#666" font-size="9">Reward</text>
    <rect x="140" y="935" width="80" height="35" fill="#e8f5e9" rx="6" stroke="#388e3c" stroke-width="2"/>
    <text x="180" y="953" text-anchor="middle" fill="#388e3c" font-size="11" class="title-text">REWARD</text>
    <text x="180" y="967" text-anchor="middle" fill="#666" font-size="8">Feedback</text>
    <rect x="600" y="935" width="80" height="35" fill="#e3f2fd" rx="6" stroke="#1976d2" stroke-width="2"/>
    <text x="640" y="953" text-anchor="middle" fill="#1976d2" font-size="11" class="title-text">STATE</text>
    <text x="640" y="967" text-anchor="middle" fill="#666" font-size="8">Situation</text>
  </g>

  <!-- Step 10: RL Framework - State, Action, Reward -->
  <g class="step" id="step10" data-narration="At each step, the agent observes the current state, takes an action, and receives a reward from the environment.">
    <rect x="40" y="995" width="720" height="90" fill="white" rx="10" filter="url(#shadow)"/>
    <text x="60" y="1020" fill="#333" font-size="14" class="title-text">The RL Loop: State → Action → Reward</text>
    <!-- Step 1: State -->
    <circle cx="150" cy="1060" r="25" fill="url(#blueGrad)" stroke="#1976d2" stroke-width="2"/>
    <text x="150" y="1055" text-anchor="middle" fill="#1976d2" font-size="10" class="title-text">STATE</text>
    <text x="150" y="1068" text-anchor="middle" fill="#333" font-size="8">sₜ</text>
    <path d="M175,1060 L225,1060" stroke="#1976d2" stroke-width="2" marker-end="url(#arrowBlue)" class="anim-path"/>
    <!-- Step 2: Action -->
    <circle cx="280" cy="1060" r="25" fill="url(#orangeGrad)" stroke="#ff9800" stroke-width="2"/>
    <text x="280" y="1055" text-anchor="middle" fill="#e65100" font-size="10" class="title-text">ACTION</text>
    <text x="280" y="1068" text-anchor="middle" fill="#333" font-size="8">aₜ</text>
    <path d="M305,1060 L355,1060" stroke="#ff9800" stroke-width="2" marker-end="url(#arrowOrange)" class="anim-path"/>
    <!-- Step 3: Reward -->
    <circle cx="410" cy="1060" r="25" fill="url(#greenGrad)" stroke="#388e3c" stroke-width="2"/>
    <text x="410" y="1055" text-anchor="middle" fill="#388e3c" font-size="10" class="title-text">REWARD</text>
    <text x="410" y="1068" text-anchor="middle" fill="#333" font-size="8">rₜ</text>
    <path d="M435,1060 L485,1060" stroke="#388e3c" stroke-width="2" marker-end="url(#arrowGreen)" class="anim-path"/>
    <!-- Step 4: Next State -->
    <circle cx="540" cy="1060" r="25" fill="url(#blueGrad)" stroke="#1976d2" stroke-width="2"/>
    <text x="540" y="1055" text-anchor="middle" fill="#1976d2" font-size="10" class="title-text">NEXT STATE</text>
    <text x="540" y="1068" text-anchor="middle" fill="#333" font-size="8">sₜ₊₁</text>
    <path d="M565,1060 L615,1060 L640,1040 L660,1060" stroke="#666" stroke-width="1" fill="none" marker-end="url(#arrowBlue)"/>
    <!-- Loop back -->
    <rect x="650" y="1030" width="80" height="35" fill="#fff3e0" rx="6"/>
    <text x="690" y="1052" text-anchor="middle" fill="#e65100" font-size="9" class="title-text">Update</text>
    <text x="690" y="1065" text-anchor="middle" fill="#666" font-size="8">Policy</text>
  </g>

  <!-- Step 11: Policy & Value Function -->
  <g class="step" id="step11" data-narration="The policy defines the agent's strategy, while the value function estimates long-term returns from each state.">
    <rect x="40" y="1100" width="720" height="90" fill="white" rx="10" filter="url(#shadow)"/>
    <text x="60" y="1125" fill="#333" font-size="14" class="title-text">Policy &amp; Value Function</text>
    <!-- Policy Box -->
    <rect x="60" y="1140" width="280" height="40" fill="url(#orangeGrad)" rx="6"/>
    <text x="200" y="1158" text-anchor="middle" fill="#e65100" font-size="12" class="title-text">POLICY π(a|s)</text>
    <text x="200" y="1173" text-anchor="middle" fill="#666" font-size="9">Strategy: Given state s, choose action a</text>
    <!-- Value Function Box -->
    <rect x="360" y="1140" width="280" height="40" fill="url(#purpleGrad)" rx="6"/>
    <text x="500" y="1158" text-anchor="middle" fill="#7b1fa2" font-size="12" class="title-text">VALUE FUNCTION V(s)</text>
    <text x="500" y="1173" text-anchor="middle" fill="#666" font-size="9">Expected long-term return from state s</text>
    <!-- Formula -->
    <rect x="660" y="1140" width="80" height="40" fill="#f5f5f5" rx="6"/>
    <text x="700" y="1155" text-anchor="middle" fill="#333" font-size="8">V(s) = E</text>
    <text x="700" y="1172" text-anchor="middle" fill="#666" font-size="8">[Σγᵗrₜ]</text>
  </g>

  <!-- Step 12: Exploration vs Exploitation -->
  <g class="step" id="step12" data-narration="A unique RL challenge: balancing exploration (trying new actions) with exploitation (using known good actions).">
    <rect x="40" y="1205" width="720" height="90" fill="white" rx="10" filter="url(#shadow)"/>
    <text x="60" y="1230" fill="#333" font-size="14" class="title-text">Exploration vs Exploitation Trade-off</text>
    <text x="60" y="1250" fill="#666" font-size="10">A unique challenge in RL that doesn't exist in supervised or unsupervised learning</text>
    <!-- Exploration Box -->
    <rect x="60" y="1260" width="280" height="25" fill="#e3f2fd" rx="6"/>
    <text x="200" y="1276" text-anchor="middle" fill="#1976d2" font-size="11" class="title-text">EXPLORATION</text>
    <text x="200" y="1288" text-anchor="middle" fill="#666" font-size="9">Try new actions to discover better rewards</text>
    <!-- Balance Arrow -->
    <path d="M350,1272 L440,1272" stroke="#666" stroke-width="2"/>
    <text x="395" y="1265" text-anchor="middle" fill="#333" font-size="10" font-weight="bold">BALANCE</text>
    <!-- Exploitation Box -->
    <rect x="460" y="1260" width="280" height="25" fill="#e8f5e9" rx="6"/>
    <text x="600" y="1276" text-anchor="middle" fill="#388e3c" font-size="11" class="title-text">EXPLOITATION</text>
    <text x="600" y="1288" text-anchor="middle" fill="#666" font-size="9">Use known actions that yield good rewards</text>
  </g>

  <!-- Step 13: When to Use RL -->
  <g class="step" id="step13" data-narration="Use RL for sequential decision-making, when no labeled data exists but an interactive environment is available.">
    <rect x="40" y="1310" width="720" height="90" fill="white" rx="10" filter="url(#shadow)"/>
    <text x="60" y="1335" fill="#333" font-size="14" class="title-text">When to Use Reinforcement Learning</text>
    <rect x="60" y="1350" width="140" height="40" fill="url(#orangeGrad)" rx="6"/>
    <text x="130" y="1368" text-anchor="middle" fill="#e65100" font-size="10" class="title-text">Sequential</text>
    <text x="130" y="1382" text-anchor="middle" fill="#666" font-size="8">Decision Making</text>
    <rect x="220" y="1350" width="140" height="40" fill="url(#orangeGrad)" rx="6"/>
    <text x="290" y="1368" text-anchor="middle" fill="#e65100" font-size="10" class="title-text">No Labeled</text>
    <text x="290" y="1382" text-anchor="middle" fill="#666" font-size="8">Data Available</text>
    <rect x="380" y="1350" width="140" height="40" fill="url(#orangeGrad)" rx="6"/>
    <text x="450" y="1368" text-anchor="middle" fill="#e65100" font-size="10" class="title-text">Delayed</text>
    <text x="450" y="1382" text-anchor="middle" fill="#666" font-size="8">Rewards</text>
    <rect x="540" y="1350" width="140" height="40" fill="url(#orangeGrad)" rx="6"/>
    <text x="610" y="1368" text-anchor="middle" fill="#e65100" font-size="10" class="title-text">Goal-Oriented</text>
    <text x="610" y="1382" text-anchor="middle" fill="#666" font-size="8">Learning</text>
    <rect x="700" y="1350" width="40" height="40" fill="url(#orangeGrad)" rx="20"/>
    <text x="720" y="1373" text-anchor="middle" fill="#e65100" font-size="16">+</text>
  </g>

  <!-- Step 14: Real-World Applications -->
  <g class="step" id="step14" data-narration="RL powers real-world applications: game playing, robotics, autonomous vehicles, finance, and healthcare.">
    <rect x="40" y="1415" width="720" height="90" fill="white" rx="10" filter="url(#shadow)"/>
    <text x="60" y="1440" fill="#333" font-size="14" class="title-text">Real-World Applications of RL</text>
    <rect x="60" y="1455" width="110" height="40" fill="#e3f2fd" rx="6"/>
    <text x="115" y="1472" text-anchor="middle" fill="#1976d2" font-size="9" class="title-text">Game Playing</text>
    <text x="115" y="1486" text-anchor="middle" fill="#666" font-size="7">Chess, Go, Atari</text>
    <rect x="185" y="1455" width="110" height="40" fill="#e8f5e9" rx="6"/>
    <text x="240" y="1472" text-anchor="middle" fill="#388e3c" font-size="9" class="title-text">Robotics</text>
    <text x="240" y="1486" text-anchor="middle" fill="#666" font-size="7">Walking, Grasping</text>
    <rect x="310" y="1455" width="110" height="40" fill="#fff3e0" rx="6"/>
    <text x="365" y="1472" text-anchor="middle" fill="#e65100" font-size="9" class="title-text">Autonomous</text>
    <text x="365" y="1486" text-anchor="middle" fill="#666" font-size="7">Self-Driving Cars</text>
    <rect x="435" y="1455" width="110" height="40" fill="#f3e5f5" rx="6"/>
    <text x="490" y="1472" text-anchor="middle" fill="#7b1fa2" font-size="9" class="title-text">Finance</text>
    <text x="490" y="1486" text-anchor="middle" fill="#666" font-size="7">Trading, Portfolio</text>
    <rect x="560" y="1455" width="110" height="40" fill="#ffebee" rx="6"/>
    <text x="615" y="1472" text-anchor="middle" fill="#c62828" font-size="9" class="title-text">Healthcare</text>
    <text x="615" y="1486" text-anchor="middle" fill="#666" font-size="7">Treatment, Drugs</text>
    <rect x="685" y="1455" width="55" height="40" fill="#e0e0e0" rx="6"/>
    <text x="712" y="1472" text-anchor="middle" fill="#333" font-size="9" class="title-text">More...</text>
    <text x="712" y="1486" text-anchor="middle" fill="#666" font-size="7">Resource Mgmt</text>
  </g>

  <!-- Step 15: Summary -->
  <g class="step" id="step15" data-narration="To summarize: RL is distinct in ML taxonomy, learning through interaction to maximize cumulative reward over time.">
    <rect x="40" y="1520" width="720" height="25" fill="#1976d2" rx="6"/>
    <text x="400" y="1537" text-anchor="middle" fill="white" font-size="12" class="title-text">Key Takeaway: RL is a distinct ML paradigm that learns through environmental interaction to maximize long-term rewards</text>
  </g>
</svg>