<svg viewBox="0 0 800 1950" xmlns="http://www.w3.org/2000/svg">
<defs>
  <linearGradient id="titleGrad" x1="0%" y1="0%" x2="100%" y2="100%">
    <stop offset="0%" style="stop-color:#1976d2"/>
    <stop offset="100%" style="stop-color:#1565c0"/>
  </linearGradient>
  <linearGradient id="blueGrad" x1="0%" y1="0%" x2="0%" y2="100%">
    <stop offset="0%" style="stop-color:#e3f2fd"/>
    <stop offset="100%" style="stop-color:#bbdefb"/>
  </linearGradient>
  <linearGradient id="greenGrad" x1="0%" y1="0%" x2="0%" y2="100%">
    <stop offset="0%" style="stop-color:#e8f5e9"/>
    <stop offset="100%" style="stop-color:#c8e6c9"/>
  </linearGradient>
  <linearGradient id="orangeGrad" x1="0%" y1="0%" x2="0%" y2="100%">
    <stop offset="0%" style="stop-color:#fff3e0"/>
    <stop offset="100%" style="stop-color:#ffe0b2"/>
  </linearGradient>
  <linearGradient id="purpleGrad" x1="0%" y1="0%" x2="0%" y2="100%">
    <stop offset="0%" style="stop-color:#f3e5f5"/>
    <stop offset="100%" style="stop-color:#e1bee7"/>
  </linearGradient>
  <linearGradient id="redGrad" x1="0%" y1="0%" x2="0%" y2="100%">
    <stop offset="0%" style="stop-color:#ffebee"/>
    <stop offset="100%" style="stop-color:#ffcdd2"/>
  </linearGradient>
  <filter id="shadow" x="-20%" y="-20%" width="140%" height="140%">
    <feDropShadow dx="2" dy="2" stdDeviation="3" flood-opacity="0.2"/>
  </filter>
  <marker id="arrowBlue" markerWidth="10" markerHeight="10" refX="9" refY="3" orient="auto" markerUnits="strokeWidth">
    <path d="M0,0 L0,6 L9,3 z" fill="#1976d2"/>
  </marker>
  <marker id="arrowGreen" markerWidth="10" markerHeight="10" refX="9" refY="3" orient="auto" markerUnits="strokeWidth">
    <path d="M0,0 L0,6 L9,3 z" fill="#388e3c"/>
  </marker>
  <marker id="arrowOrange" markerWidth="10" markerHeight="10" refX="9" refY="3" orient="auto" markerUnits="strokeWidth">
    <path d="M0,0 L0,6 L9,3 z" fill="#ff9800"/>
  </marker>
</defs>
<style>
  @keyframes fadeInSlide {
    from { opacity: 0; transform: translateY(20px); }
    to { opacity: 1; transform: translateY(0); }
  }
  @keyframes scaleIn {
    from { opacity: 0; transform: scale(0.85); }
    to { opacity: 1; transform: scale(1); }
  }
  @keyframes textReveal {
    from { opacity: 0; transform: translateX(-10px); }
    to { opacity: 1; transform: translateX(0); }
  }
  @keyframes drawLine {
    from { stroke-dashoffset: 300; }
    to { stroke-dashoffset: 0; }
  }
  @keyframes pulse {
    0%, 100% { transform: scale(1); }
    50% { transform: scale(1.03); }
  }
  @keyframes gateBuild {
    0% { opacity: 0; transform: scale(0.5); }
    70% { transform: scale(1.1); }
    100% { opacity: 1; transform: scale(1); }
  }
  .step { animation: fadeInSlide 0.6s ease-out; }
  .step rect {
    animation: scaleIn 0.5s cubic-bezier(0.34, 1.56, 0.64, 1);
    transform-origin: center;
  }
  .step text { animation: textReveal 0.4s ease-out 0.2s backwards; }
  .gate { animation: gateBuild 0.6s ease-out backwards; }
  .connector { stroke-dasharray: 300; animation: drawLine 1s ease-out forwards; }
  .formula { font-family: 'Courier New', monospace; }
</style>
<rect width="800" height="1950" fill="#f8f9fa"/>

<!-- STEP 0: Title -->
<g class="step" id="step0" data-narration="Welcome to learning NAND and NOR universal gates. These special gates can implement any Boolean function, revolutionizing digital circuit design.">
  <rect x="0" y="0" width="800" height="50" fill="url(#titleGrad)"/>
  <text x="400" y="32" text-anchor="middle" font-size="22" font-weight="bold" fill="white">NAND and NOR Implementation</text>
  <text x="400" y="45" text-anchor="middle" font-size="11" fill="#e3f2fd">Universal Gates in Digital Logic Design</text>
</g>

<!-- STEP 1: Introduction - What are Universal Gates -->
<g class="step" id="step1" data-narration="Universal gates are special because just one type can build ANY digital circuit. NAND and NOR are the two most important universal gates.">
  <rect x="20" y="60" width="760" height="85" rx="10" fill="url(#blueGrad)" filter="url(#shadow)"/>
  <text x="40" y="85" font-size="14" font-weight="bold" fill="#1976d2">What are Universal Gates?</text>
  <text x="40" y="105" font-size="11" fill="#424242">NAND and NOR are called <tspan font-weight="bold">universal gates</tspan> because any Boolean function</text>
  <text x="40" y="120" font-size="11" fill="#424242">can be implemented using ONLY NAND gates OR ONLY NOR gates.</text>
  <rect x="580" y="75" width="180" height="55" rx="8" fill="white" stroke="#1976d2" stroke-width="2"/>
  <text x="670" y="100" text-anchor="middle" font-size="12" font-weight="bold" fill="#1976d2">Universal Gates</text>
  <text x="670" y="118" text-anchor="middle" font-size="10" fill="#424242">NAND &amp; NOR</text>
</g>

<!-- STEP 2: Why Universal Gates Matter -->
<g class="step" id="step2" data-narration="Using only one gate type simplifies chip manufacturing, reduces costs, and increases circuit density. This is why NAND is preferred in modern CMOS technology.">
  <rect x="20" y="160" width="760" height="85" rx="10" fill="url(#orangeGrad)" filter="url(#shadow)"/>
  <text x="40" y="185" font-size="14" font-weight="bold" fill="#e65100">Why Universal Gates?</text>
  <text x="40" y="205" font-size="11" fill="#424242">✓ Simplifies IC fabrication process</text>
  <text x="40" y="222" font-size="11" fill="#424242">✓ Reduces variety of components needed</text>
  <text x="300" y="205" font-size="11" fill="#424242">✓ Improves circuit density</text>
  <text x="300" y="222" font-size="11" fill="#424242">✓ Optimizes area and power</text>
  <circle cx="680" cy="190" r="25" fill="#ff9800"/>
  <text x="680" y="195" text-anchor="middle" font-size="28" fill="white">★</text>
</g>

<!-- STEP 3: NAND - Implementing NOT -->
<g class="step" id="step3" data-narration="To create a NOT gate using NAND, simply connect both inputs together. When A equals A, NAND produces A' (inversion).">
  <rect x="20" y="260" width="760" height="95" rx="10" fill="url(#greenGrad)" filter="url(#shadow)"/>
  <text x="40" y="290" font-size="14" font-weight="bold" fill="#388e3c">NAND as Universal Gate - NOT Implementation</text>
  <rect x="40" y="310" width="180" height="30" rx="5" fill="#c8e6c9" stroke="#388e3c" stroke-width="1.5"/>
  <text x="130" y="330" text-anchor="middle" font-size="14" font-weight="bold" fill="#388e3c">NAND</text>
  <line x1="80" y1="325" x2="50" y2="325" stroke="#388e3c" stroke-width="2"/>
  <text x="45" y="328" font-size="10" fill="#388e3c">A</text>
  <line x1="180" y1="325" x2="220" y2="325" stroke="#388e3c" stroke-width="2"/>
  <text x="225" y="328" font-size="10" fill="#388e3c">F</text>
  <path d="M100,300 L100,305 L160,305 L160,310" fill="none" stroke="#388e3c" stroke-width="1.5"/>
  <text x="130" y="300" text-anchor="middle" font-size="10" fill="#388e3c">A</text>
  <text x="340" y="330" font-size="12" fill="#424242" class="formula">F = (A · A)'</text>
  <text x="340" y="348" font-size="12" fill="#424242" class="formula">F = A'</text>
  <text x="550" y="325" font-size="11" fill="#388e3c" font-style="italic">By idempotent &amp; complement law</text>
</g>

<!-- STEP 4: NAND - Implementing AND -->
<g class="step" id="step4" data-narration="To create AND using NAND, use two NAND gates. The first performs NAND operation, the second inverts the result to get AND.">
  <rect x="20" y="370" width="760" height="95" rx="10" fill="url(#greenGrad)" filter="url(#shadow)"/>
  <text x="40" y="400" font-size="14" font-weight="bold" fill="#388e3c">NAND as Universal Gate - AND Implementation</text>
  <!-- First NAND -->
  <rect x="40" y="420" width="140" height="30" rx="5" fill="#c8e6c9" stroke="#388e3c" stroke-width="1.5"/>
  <text x="110" y="440" text-anchor="middle" font-size="12" font-weight="bold" fill="#388e3c">NAND</text>
  <line x1="60" y1="435" x2="45" y2="435" stroke="#388e3c" stroke-width="1.5"/>
  <text x="40" y="438" font-size="9" fill="#388e3c">A</text>
  <line x1="60" y1="450" x2="45" y2="450" stroke="#388e3c" stroke-width="1.5"/>
  <text x="40" y="453" font-size="9" fill="#388e3c">B</text>
  <line x1="180" y1="435" x2="230" y2="435" stroke="#388e3c" stroke-width="1.5"/>
  <!-- Second NAND (inverter) -->
  <rect x="240" y="420" width="80" height="30" rx="5" fill="#c8e6c9" stroke="#388e3c" stroke-width="1.5"/>
  <text x="280" y="440" text-anchor="middle" font-size="12" font-weight="bold" fill="#388e3c">NAND</text>
  <line x1="320" y1="435" x2="380" y2="435" stroke="#388e3c" stroke-width="2"/>
  <text x="385" y="438" font-size="10" fill="#388e3c">F</text>
  <text x="400" y="420" font-size="12" fill="#424242" class="formula">F = ((A·B)')'</text>
  <text x="400" y="438" font-size="12" fill="#424242" class="formula">F = A · B</text>
  <text x="400" y="456" font-size="10" fill="#388e3c">Two NANDs = AND</text>
</g>

<!-- STEP 5: NAND - Implementing OR -->
<g class="step" id="step5" data-narration="To create OR using NAND, invert both inputs first (using NAND as inverters), then NAND the results. This applies De Morgan's theorem.">
  <rect x="20" y="480" width="760" height="95" rx="10" fill="url(#greenGrad)" filter="url(#shadow)"/>
  <text x="40" y="510" font-size="14" font-weight="bold" fill="#388e3c">NAND as Universal Gate - OR Implementation</text>
  <!-- Inverter 1 -->
  <rect x="50" y="530" width="60" height="25" rx="4" fill="#c8e6c9" stroke="#388e3c" stroke-width="1.5"/>
  <text x="80" y="547" text-anchor="middle" font-size="10" font-weight="bold" fill="#388e3c">NAND</text>
  <text x="25" y="545" font-size="9" fill="#388e3c">A</text>
  <line x1="80" y1="555" x2="100" y2="555" stroke="#388e3c" stroke-width="1.5"/>
  <text x="105" y="558" font-size="9" fill="#388e3c">A'</text>
  <!-- Inverter 2 -->
  <rect x="160" y="530" width="60" height="25" rx="4" fill="#c8e6c9" stroke="#388e3c" stroke-width="1.5"/>
  <text x="190" y="547" text-anchor="middle" font-size="10" font-weight="bold" fill="#388e3c">NAND</text>
  <text x="135" y="545" font-size="9" fill="#388e3c">B</text>
  <line x1="190" y1="555" x2="210" y2="555" stroke="#388e3c" stroke-width="1.5"/>
  <text x="215" y="558" font-size="9" fill="#388e3c">B'</text>
  <!-- Final NAND -->
  <rect x="280" y="525" width="100" height="35" rx="5" fill="#c8e6c9" stroke="#388e3c" stroke-width="2"/>
  <text x="330" y="548" text-anchor="middle" font-size="13" font-weight="bold" fill="#388e3c">NAND</text>
  <line x1="330" y1="560" x2="330" y2="530" stroke="#388e3c" stroke-width="1.5"/>
  <line x1="270" y1="555" x2="250" y2="555" stroke="#388e3c" stroke-width="1.5"/>
  <line x1="270" y1="555" x2="250" y2="555" stroke="#388e3c" stroke-width="1.5"/>
  <line x1="380" y1="542" x2="420" y2="542" stroke="#388e3c" stroke-width="2"/>
  <text x="425" y="545" font-size="10" fill="#388e3c">F</text>
  <text x="450" y="530" font-size="11" fill="#424242" class="formula">F = (A'·B')'</text>
  <text x="450" y="548" font-size="11" fill="#424242" class="formula">F = A + B</text>
  <text x="450" y="566" font-size="10" fill="#388e3c">De Morgan's Theorem</text>
</g>

<!-- STEP 6: NOR - Implementing NOT -->
<g class="step" id="step6" data-narration="Similar to NAND, connect both inputs of a NOR gate together. NOR with A on both inputs produces A' (NOT).">
  <rect x="20" y="590" width="760" height="95" rx="10" fill="url(#purpleGrad)" filter="url(#shadow)"/>
  <text x="40" y="620" font-size="14" font-weight="bold" fill="#7b1fa2">NOR as Universal Gate - NOT Implementation</text>
  <rect x="40" y="640" width="180" height="30" rx="5" fill="#e1bee7" stroke="#7b1fa2" stroke-width="1.5"/>
  <text x="130" y="660" text-anchor="middle" font-size="14" font-weight="bold" fill="#7b1fa2">NOR</text>
  <line x1="80" y1="655" x2="50" y2="655" stroke="#7b1fa2" stroke-width="2"/>
  <text x="45" y="658" font-size="10" fill="#7b1fa2">A</text>
  <line x1="180" y1="655" x2="220" y2="655" stroke="#7b1fa2" stroke-width="2"/>
  <text x="225" y="658" font-size="10" fill="#7b1fa2">F</text>
  <path d="M100,630 L100,635 L160,635 L160,640" fill="none" stroke="#7b1fa2" stroke-width="1.5"/>
  <text x="130" y="628" text-anchor="middle" font-size="10" fill="#7b1fa2">A</text>
  <text x="340" y="660" font-size="12" fill="#424242" class="formula">F = (A + A)'</text>
  <text x="340" y="678" font-size="12" fill="#424242" class="formula">F = A'</text>
  <text x="550" y="655" font-size="11" fill="#7b1fa2" font-style="italic">By idempotent &amp; complement law</text>
</g>

<!-- STEP 7: NOR - Implementing AND -->
<g class="step" id="step7" data-narration="To create AND using NOR, first invert both inputs with NOR gates, then NOR the results. This implements AND via De Morgan's theorem.">
  <rect x="20" y="700" width="760" height="95" rx="10" fill="url(#purpleGrad)" filter="url(#shadow)"/>
  <text x="40" y="730" font-size="14" font-weight="bold" fill="#7b1fa2">NOR as Universal Gate - AND Implementation</text>
  <!-- Inverter 1 -->
  <rect x="50" y="750" width="60" height="25" rx="4" fill="#e1bee7" stroke="#7b1fa2" stroke-width="1.5"/>
  <text x="80" y="767" text-anchor="middle" font-size="10" font-weight="bold" fill="#7b1fa2">NOR</text>
  <text x="25" y="765" font-size="9" fill="#7b1fa2">A</text>
  <line x1="80" y1="775" x2="100" y2="775" stroke="#7b1fa2" stroke-width="1.5"/>
  <text x="105" y="778" font-size="9" fill="#7b1fa2">A'</text>
  <!-- Inverter 2 -->
  <rect x="160" y="750" width="60" height="25" rx="4" fill="#e1bee7" stroke="#7b1fa2" stroke-width="1.5"/>
  <text x="190" y="767" text-anchor="middle" font-size="10" font-weight="bold" fill="#7b1fa2">NOR</text>
  <text x="135" y="765" font-size="9" fill="#7b1fa2">B</text>
  <line x1="190" y1="775" x2="210" y2="775" stroke="#7b1fa2" stroke-width="1.5"/>
  <text x="215" y="778" font-size="9" fill="#7b1fa2">B'</text>
  <!-- Final NOR -->
  <rect x="280" y="745" width="100" height="35" rx="5" fill="#e1bee7" stroke="#7b1fa2" stroke-width="2"/>
  <text x="330" y="768" text-anchor="middle" font-size="13" font-weight="bold" fill="#7b1fa2">NOR</text>
  <line x1="330" y1="780" x2="330" y2="750" stroke="#7b1fa2" stroke-width="1.5"/>
  <line x1="270" y1="775" x2="250" y2="775" stroke="#7b1fa2" stroke-width="1.5"/>
  <line x1="380" y1="762" x2="420" y2="762" stroke="#7b1fa2" stroke-width="2"/>
  <text x="425" y="765" font-size="10" fill="#7b1fa2">F</text>
  <text x="450" y="750" font-size="11" fill="#424242" class="formula">F = (A' + B')'</text>
  <text x="450" y="768" font-size="11" fill="#424242" class="formula">F = A · B</text>
  <text x="450" y="786" font-size="10" fill="#7b1fa2">De Morgan's Theorem</text>
</g>

<!-- STEP 8: NOR - Implementing OR -->
<g class="step" id="step8" data-narration="To create OR using NOR, use two NOR gates. First performs NOR, second inverts the result to produce OR output.">
  <rect x="20" y="810" width="760" height="95" rx="10" fill="url(#purpleGrad)" filter="url(#shadow)"/>
  <text x="40" y="840" font-size="14" font-weight="bold" fill="#7b1fa2">NOR as Universal Gate - OR Implementation</text>
  <!-- First NOR -->
  <rect x="40" y="860" width="140" height="30" rx="5" fill="#e1bee7" stroke="#7b1fa2" stroke-width="1.5"/>
  <text x="110" y="880" text-anchor="middle" font-size="12" font-weight="bold" fill="#7b1fa2">NOR</text>
  <line x1="60" y1="875" x2="45" y2="875" stroke="#7b1fa2" stroke-width="1.5"/>
  <text x="40" y="878" font-size="9" fill="#7b1fa2">A</text>
  <line x1="60" y1="890" x2="45" y2="890" stroke="#7b1fa2" stroke-width="1.5"/>
  <text x="40" y="893" font-size="9" fill="#7b1fa2">B</text>
  <line x1="180" y1="875" x2="230" y2="875" stroke="#7b1fa2" stroke-width="1.5"/>
  <!-- Second NOR (inverter) -->
  <rect x="240" y="860" width="80" height="30" rx="5" fill="#e1bee7" stroke="#7b1fa2" stroke-width="1.5"/>
  <text x="280" y="880" text-anchor="middle" font-size="12" font-weight="bold" fill="#7b1fa2">NOR</text>
  <line x1="320" y1="875" x2="380" y2="875" stroke="#7b1fa2" stroke-width="2"/>
  <text x="385" y="878" font-size="10" fill="#7b1fa2">F</text>
  <text x="400" y="860" font-size="12" fill="#424242" class="formula">F = ((A+B)')'</text>
  <text x="400" y="878" font-size="12" fill="#424242" class="formula">F = A + B</text>
  <text x="400" y="896" font-size="10" fill="#7b1fa2">Two NORs = OR</text>
</g>

<!-- STEP 9: NAND-NAND Implementation Concept -->
<g class="step" id="step9" data-narration="Two-level NAND-NAND implementation converts SOP expressions. Replace AND gates with NAND, then replace OR with NAND gate.">
  <rect x="20" y="920" width="760" height="105" rx="10" fill="url(#blueGrad)" filter="url(#shadow)"/>
  <text x="40" y="950" font-size="14" font-weight="bold" fill="#1976d2">NAND-NAND Implementation (Two-Level SOP)</text>
  <text x="40" y="975" font-size="11" fill="#424242">Any SOP expression can be converted to NAND-NAND:</text>
  <text x="40" y="995" font-size="11" fill="#424242" class="formula">1. Start with SOP: F = Σm(...) </text>
  <text x="40" y="1013" font-size="11" fill="#424242" class="formula">2. Apply double complement: F = ((AB + CD)')'</text>
  <text x="40" y="1031" font-size="11" fill="#424242" class="formula">3. Apply De Morgan's: F = ((AB)' · (CD)')'</text>
  <rect x="500" y="965" width="260" height="50" rx="8" fill="white" stroke="#1976d2" stroke-width="2"/>
  <text x="630" y="990" text-anchor="middle" font-size="12" font-weight="bold" fill="#1976d2">NAND-NAND Rule</text>
  <text x="630" y="1008" text-anchor="middle" font-size="10" fill="#424242">AND→NAND, OR→NAND</text>
</g>

<!-- STEP 10: NAND-NAND Example -->
<g class="step" id="step10" data-narration="Example: F = AB + CD converts to NAND-NAND by replacing each AND with NAND, and the OR with NAND, showing functional equivalence.">
  <rect x="20" y="1040" width="760" height="110" rx="10" fill="url(#blueGrad)" filter="url(#shadow)"/>
  <text x="40" y="1070" font-size="14" font-weight="bold" fill="#1976d2">Example: F = AB + CD</text>
  <!-- SOP Circuit -->
  <text x="40" y="1095" font-size="11" fill="#424242">Original SOP:</text>
  <rect x="100" y="1085" width="50" height="22" rx="3" fill="white" stroke="#424242"/>
  <text x="125" y="1102" text-anchor="middle" font-size="10" fill="#424242">AND</text>
  <rect x="170" y="1085" width="50" height="22" rx="3" fill="white" stroke="#424242"/>
  <text x="195" y="1102" text-anchor="middle" font-size="10" fill="#424242">AND</text>
  <rect x="260" y="1080" width="50" height="32" rx="3" fill="white" stroke="#424242"/>
  <text x="285" y="1100" text-anchor="middle" font-size="10" fill="#424242">OR</text>
  <line x1="150" y1="1096" x2="170" y2="1096" stroke="#424242" stroke-width="1.5"/>
  <line x1="220" y1="1096" x2="260" y2="1096" stroke="#424242" stroke-width="1.5"/>
  <line x1="310" y1="1096" x2="350" y2="1096" stroke="#424242" stroke-width="2"/>
  <text x="355" y="1099" font-size="10" fill="#424242">F</text>
  <text x="75" y="1096" font-size="8" fill="#424242">A B</text>
  <text x="155" y="1096" font-size="8" fill="#424242">C D</text>
  <!-- NAND-NAND Circuit -->
  <text x="40" y="1135" font-size="11" fill="#1976d2">NAND-NAND:</text>
  <rect x="120" y="1125" width="50" height="22" rx="3" fill="#c8e6c9" stroke="#388e3c"/>
  <text x="145" y="1142" text-anchor="middle" font-size="10" font-weight="bold" fill="#388e3c">NAND</text>
  <rect x="190" y="1125" width="50" height="22" rx="3" fill="#c8e6c9" stroke="#388e3c"/>
  <text x="215" y="1142" text-anchor="middle" font-size="10" font-weight="bold" fill="#388e3c">NAND</text>
  <rect x="280" y="1120" width="50" height="32" rx="3" fill="#c8e6c9" stroke="#388e3c" stroke-width="2"/>
  <text x="305" y="1140" text-anchor="middle" font-size="10" font-weight="bold" fill="#388e3c">NAND</text>
  <line x1="170" y1="1136" x2="190" y2="1136" stroke="#388e3c" stroke-width="1.5"/>
  <line x1="240" y1="1136" x2="280" y2="1136" stroke="#388e3c" stroke-width="1.5"/>
  <line x1="330" y1="1136" x2="370" y2="1136" stroke="#388e3c" stroke-width="2"/>
  <text x="375" y="1139" font-size="10" fill="#388e3c">F</text>
  <text x="95" y="1136" font-size="8" fill="#388e3c">A B</text>
  <text x="175" y="1136" font-size="8" fill="#388e3c">C D</text>
</g>

<!-- STEP 11: NOR-NOR Implementation Concept -->
<g class="step" id="step11" data-narration="Two-level NOR-NOR implements POS expressions. Replace OR gates with NOR, and AND gate with NOR to get equivalent logic.">
  <rect x="20" y="1165" width="760" height="105" rx="10" fill="url(#orangeGrad)" filter="url(#shadow)"/>
  <text x="40" y="1195" font-size="14" font-weight="bold" fill="#e65100">NOR-NOR Implementation (Two-Level POS)</text>
  <text x="40" y="1220" font-size="11" fill="#424242">Any POS expression can be converted to NOR-NOR:</text>
  <text x="40" y="1240" font-size="11" fill="#424242" class="formula">1. Start with POS: F = ΠM(...) </text>
  <text x="40" y="1258" font-size="11" fill="#424242" class="formula">2. Apply double complement: F = (((A+B)(C+D))')'</text>
  <text x="40" y="1276" font-size="11" fill="#424242" class="formula">3. Apply De Morgan's: F = ((A+B)' + (C+D)')'</text>
  <rect x="500" y="1210" width="260" height="50" rx="8" fill="white" stroke="#ff9800" stroke-width="2"/>
  <text x="630" y="1235" text-anchor="middle" font-size="12" font-weight="bold" fill="#e65100">NOR-NOR Rule</text>
  <text x="630" y="1253" text-anchor="middle" font-size="10" fill="#424242">OR→NOR, AND→NOR</text>
</g>

<!-- STEP 12: NOR-NOR Example -->
<g class="step" id="step12" data-narration="Example: F = (A+B)(C+D) converts to NOR-NOR by replacing OR gates with NOR and AND with NOR for equivalent POS implementation.">
  <rect x="20" y="1285" width="760" height="110" rx="10" fill="url(#orangeGrad)" filter="url(#shadow)"/>
  <text x="40" y="1315" font-size="14" font-weight="bold" fill="#e65100">Example: F = (A+B)(C+D)</text>
  <!-- POS Circuit -->
  <text x="40" y="1340" font-size="11" fill="#424242">Original POS:</text>
  <rect x="100" y="1330" width="50" height="22" rx="3" fill="white" stroke="#424242"/>
  <text x="125" y="1347" text-anchor="middle" font-size="10" fill="#424242">OR</text>
  <rect x="170" y="1330" width="50" height="22" rx="3" fill="white" stroke="#424242"/>
  <text x="195" y="1347" text-anchor="middle" font-size="10" fill="#424242">OR</text>
  <rect x="260" y="1325" width="50" height="32" rx="3" fill="white" stroke="#424242"/>
  <text x="285" y="1345" text-anchor="middle" font-size="10" fill="#424242">AND</text>
  <line x1="150" y1="1341" x2="170" y2="1341" stroke="#424242" stroke-width="1.5"/>
  <line x1="220" y1="1341" x2="260" y2="1341" stroke="#424242" stroke-width="1.5"/>
  <line x1="310" y1="1341" x2="350" y2="1341" stroke="#424242" stroke-width="2"/>
  <text x="355" y="1344" font-size="10" fill="#424242">F</text>
  <text x="75" y="1341" font-size="8" fill="#424242">A B</text>
  <text x="155" y="1341" font-size="8" fill="#424242">C D</text>
  <!-- NOR-NOR Circuit -->
  <text x="40" y="1380" font-size="11" fill="#e65100">NOR-NOR:</text>
  <rect x="120" y="1370" width="50" height="22" rx="3" fill="#e1bee7" stroke="#7b1fa2"/>
  <text x="145" y="1387" text-anchor="middle" font-size="10" font-weight="bold" fill="#7b1fa2">NOR</text>
  <rect x="190" y="1370" width="50" height="22" rx="3" fill="#e1bee7" stroke="#7b1fa2"/>
  <text x="215" y="1387" text-anchor="middle" font-size="10" font-weight="bold" fill="#7b1fa2">NOR</text>
  <rect x="280" y="1365" width="50" height="32" rx="3" fill="#e1bee7" stroke="#7b1fa2" stroke-width="2"/>
  <text x="305" y="1385" text-anchor="middle" font-size="10" font-weight="bold" fill="#7b1fa2">NOR</text>
  <line x1="170" y1="1381" x2="190" y2="1381" stroke="#7b1fa2" stroke-width="1.5"/>
  <line x1="240" y1="1381" x2="280" y2="1381" stroke="#7b1fa2" stroke-width="1.5"/>
  <line x1="330" y1="1381" x2="370" y2="1381" stroke="#7b1fa2" stroke-width="2"/>
  <text x="375" y="1384" font-size="10" fill="#7b1fa2">F</text>
  <text x="95" y="1381" font-size="8" fill="#7b1fa2">A B</text>
  <text x="175" y="1381" font-size="8" fill="#7b1fa2">C D</text>
</g>

<!-- STEP 13: Single Variable Terms -->
<g class="step" id="step13" data-narration="When SOP has a single literal like C in F = AB + C, we need extra inverter because NAND expects complemented inputs.">
  <rect x="20" y="1410" width="760" height="95" rx="10" fill="url(#redGrad)" filter="url(#shadow)"/>
  <text x="40" y="1440" font-size="14" font-weight="bold" fill="#c62828">Handling Single-Variable Terms</text>
  <text x="40" y="1465" font-size="11" fill="#424242">When SOP has a single literal as product term, it must be <tspan font-weight="bold">inverted</tspan> before</text>
  <text x="40" y="1483" font-size="11" fill="#424242">connecting to the second-level NAND gate.</text>
  <rect x="250" y="1455" width="200" height="40" rx="8" fill="white" stroke="#c62828" stroke-width="1.5"/>
  <text x="350" y="1478" text-anchor="middle" font-size="12" fill="#424242" class="formula">F = AB + C</text>
  <text x="350" y="1495" text-anchor="middle" font-size="10" fill="#c62828">F = ((AB)' · C')'</text>
  <text x="520" y="1470" font-size="10" fill="#424242">C needs extra inverter!</text>
  <rect x="500" y="1480" width="80" height="25" rx="4" fill="#c8e6c9" stroke="#388e3c"/>
  <text x="540" y="1497" text-anchor="middle" font-size="10" font-weight="bold" fill="#388e3c">NAND</text>
  <text x="590" y="1495" font-size="9" fill="#388e3c">→ C'</text>
</g>

<!-- STEP 14: Practical Considerations -->
<g class="step" id="step14" data-narration="NAND is faster in CMOS technology (PMOS in parallel), uses common IC 7400. NOR is slower but essential for POS implementations.">
  <rect x="20" y="1520" width="760" height="105" rx="10" fill="url(#blueGrad)" filter="url(#shadow)"/>
  <text x="40" y="1550" font-size="14" font-weight="bold" fill="#1976d2">Practical Considerations</text>
  <!-- Table -->
  <rect x="40" y="1565" width="340" height="50" rx="5" fill="white" stroke="#1976d2"/>
  <text x="210" y="1582" text-anchor="middle" font-size="11" font-weight="bold" fill="#1976d2">NAND</text>
  <text x="60" y="1600" font-size="10" fill="#424242">Speed: Faster (PMOS ║)</text>
  <text x="220" y="1600" font-size="10" fill="#424242">Common IC: 7400</text>
  <rect x="400" y="1565" width="340" height="50" rx="5" fill="white" stroke="#7b1fa2"/>
  <text x="570" y="1582" text-anchor="middle" font-size="11" font-weight="bold" fill="#7b1fa2">NOR</text>
  <text x="420" y="1600" font-size="10" fill="#424242">Speed: Slower (NMOS ║)</text>
  <text x="580" y="1600" font-size="10" fill="#424242">Common IC: 7402</text>
  <text x="210" y="1625" font-size="10" fill="#388e3c">Preferred for SOP</text>
  <text x="570" y="1625" font-size="10" fill="#7b1fa2">Preferred for POS</text>
</g>

<!-- STEP 15: Key Points Summary -->
<g class="step" id="step15" data-narration="Key takeaways: NAND and NOR are universal gates. SOP converts to NAND-NAND, POS to NOR-NOR. Single variables need extra inverters.">
  <rect x="20" y="1640" width="760" height="95" rx="10" fill="url(#greenGrad)" filter="url(#shadow)"/>
  <text x="40" y="1670" font-size="14" font-weight="bold" fill="#388e3c">Key Points Summary</text>
  <text x="40" y="1695" font-size="11" fill="#424242">✓ NAND and NOR are <tspan font-weight="bold">universal gates</tspan> - each can implement any Boolean function alone</text>
  <text x="40" y="1713" font-size="11" fill="#424242">✓ <tspan font-weight="bold">SOP → NAND-NAND:</tspan> Replace AND gates and OR gate with NAND gates</text>
  <text x="40" y="1731" font-size="11" fill="#424242">✓ <tspan font-weight="bold">POS → NOR-NOR:</tspan> Replace OR gates and AND gate with NOR gates</text>
  <text x="500" y="1695" font-size="11" fill="#424242">✓ Single-variable terms need</text>
  <text x="500" y="1713" font-size="11" fill="#424242">  an <tspan font-weight="bold">extra inverter</tspan> at input</text>
  <text x="500" y="1731" font-size="11" fill="#424242">✓ NAND preferred in CMOS</text>
</g>

<!-- STEP 16: Applications -->
<g class="step" id="step16" data-narration="These concepts enable VLSI chip fabrication, FPGAs, and efficient CPU design. NAND gates form the foundation of modern digital systems.">
  <rect x="20" y="1750" width="760" height="85" rx="10" fill="url(#purpleGrad)" filter="url(#shadow)"/>
  <text x="40" y="1780" font-size="14" font-weight="bold" fill="#7b1fa2">Real-World Applications</text>
  <rect x="40" y="1795" width="160" height="30" rx="5" fill="white" stroke="#7b1fa2"/>
  <text x="120" y="1815" text-anchor="middle" font-size="10" font-weight="bold" fill="#7b1fa2">VLSI Chips</text>
  <rect x="220" y="1795" width="160" height="30" rx="5" fill="white" stroke="#7b1fa2"/>
  <text x="300" y="1815" text-anchor="middle" font-size="10" font-weight="bold" fill="#7b1fa2">FPGAs</text>
  <rect x="400" y="1795" width="160" height="30" rx="5" fill="white" stroke="#7b1fa2"/>
  <text x="480" y="1815" text-anchor="middle" font-size="10" font-weight="bold" fill="#7b1fa2">CPU Design</text>
  <rect x="580" y="1795" width="180" height="30" rx="5" fill="white" stroke="#7b1fa2"/>
  <text x="670" y="1815" text-anchor="middle" font-size="10" font-weight="bold" fill="#7b1fa2">Memory Cells</text>
  <text x="400" y="1850" text-anchor="middle" font-size="12" fill="#7b1fa2">NAND gates are the primary building block in modern digital systems</text>
</g>
</svg>