<svg xmlns="http://www.w3.org/2000/svg" viewBox="0 0 800 1260">
  <defs>
    <!-- Gradients -->
    <linearGradient id="blueGrad" x1="0%" y1="0%" x2="100%" y2="100%">
      <stop offset="0%" style="stop-color:#e3f2fd"/>
      <stop offset="100%" style="stop-color:#bbdefb"/>
    </linearGradient>
    <linearGradient id="greenGrad" x1="0%" y1="0%" x2="100%" y2="100%">
      <stop offset="0%" style="stop-color:#e8f5e9"/>
      <stop offset="100%" style="stop-color:#c8e6c9"/>
    </linearGradient>
    <linearGradient id="orangeGrad" x1="0%" y1="0%" x2="100%" y2="100%">
      <stop offset="0%" style="stop-color:#fff3e0"/>
      <stop offset="100%" style="stop-color:#ffe0b2"/>
    </linearGradient>
    <linearGradient id="purpleGrad" x1="0%" y1="0%" x2="100%" y2="100%">
      <stop offset="0%" style="stop-color:#f3e5f5"/>
      <stop offset="100%" style="stop-color:#e1bee7"/>
    </linearGradient>
    <linearGradient id="redGrad" x1="0%" y1="0%" x2="100%" y2="100%">
      <stop offset="0%" style="stop-color:#ffebee"/>
      <stop offset="100%" style="stop-color:#ffcdd2"/>
    </linearGradient>
    <linearGradient id="titleGrad" x1="0%" y1="0%" x2="100%" y2="0%">
      <stop offset="0%" style="stop-color:#1976d2"/>
      <stop offset="100%" style="stop-color:#1565c0"/>
    </linearGradient>
    
    <!-- Shadow filter -->
    <filter id="shadow" x="-20%" y="-20%" width="140%" height="140%">
      <feDropShadow dx="2" dy="2" stdDeviation="3" flood-color="#000" flood-opacity="0.15"/>
    </filter>
    
    <!-- Arrow markers -->
    <marker id="arrowBlue" markerWidth="10" markerHeight="10" refX="9" refY="3" orient="auto">
      <path d="M0,0 L0,6 L9,3 z" fill="#1976d2"/>
    </marker>
    <marker id="arrowGreen" markerWidth="10" markerHeight="10" refX="9" refY="3" orient="auto">
      <path d="M0,0 L0,6 L9,3 z" fill="#388e3c"/>
    </marker>
    <marker id="arrowOrange" markerWidth="10" markerHeight="10" refX="9" refY="3" orient="auto">
      <path d="M0,0 L0,6 L9,3 z" fill="#ff9800"/>
    </marker>
  </defs>
  
  <style>
    @keyframes fadeInSlide {
      from { opacity: 0; transform: translateY(20px); }
      to { opacity: 1; transform: translateY(0); }
    }
    @keyframes scaleIn {
      from { opacity: 0; transform: scale(0.85); }
      to { opacity: 1; transform: scale(1); }
    }
    @keyframes textReveal {
      from { opacity: 0; transform: translateX(-10px); }
      to { opacity: 1; transform: translateX(0); }
    }
    @keyframes pulse {
      0%, 100% { transform: scale(1); }
      50% { transform: scale(1.03); }
    }
    @keyframes drawLine {
      from { stroke-dashoffset: 300; }
      to { stroke-dashoffset: 0; }
    }
    .step { animation: fadeInSlide 0.6s ease-out; }
    .step rect {
      animation: scaleIn 0.5s cubic-bezier(0.34, 1.56, 0.64, 1);
      transform-origin: center;
    }
    .step text { animation: textReveal 0.4s ease-out 0.2s backwards; }
    .title-text { font-size: 22px; font-weight: bold; fill: white; }
    .subtitle-text { font-size: 11px; fill: #666; }
    .body-text { font-size: 10px; fill: #333; }
    .label-text { font-size: 9px; fill: #555; }
    .key-term { font-size: 10px; font-weight: bold; fill: #1976d2; }
    .formula { font-size: 10px; font-family: monospace; fill: #333; }
    .draw-line {
      stroke-dasharray: 300;
      stroke-dashoffset: 300;
      animation: drawLine 1.5s ease-out forwards;
    }
  </style>

  <!-- Background -->
  <rect width="800" height="1260" fill="#f8f9fa"/>

  <!-- Step 0: Title -->
  <g class="step" id="step0" data-narration="Pretty Good Privacy is a landmark email encryption system providing end-to-end security.">
    <rect x="0" y="10" width="800" height="45" fill="url(#titleGrad)" rx="0"/>
    <text x="400" y="38" text-anchor="middle" class="title-text">Pretty Good Privacy (PGP)</text>
    <text x="400" y="53" text-anchor="middle" class="subtitle-text">Email Encryption &amp; Digital Signatures | Module 5</text>
  </g>

  <!-- Step 1: What is PGP? -->
  <g class="step" id="step1" data-narration="PGP is a free, open-source email encryption software that provides end-to-end encryption for secure messaging.">
    <rect x="20" y="65" width="760" height="85" fill="url(#blueGrad)" rx="8" filter="url(#shadow)"/>
    <text x="40" y="85" class="key-term">What is PGP?</text>
    <text x="40" y="105" class="body-text">Pretty Good Privacy (PGP) is a popular email encryption and decryption tool that</text>
    <text x="40" y="120" class="body-text">allows users to securely send and receive encrypted messages.</text>
    <text x="40" y="138" class="label-text" fill="#1976d2">Used by: Journalists, Activists, Security-conscious organizations</text>
    <!-- Lock icon -->
    <rect x="700" y="80" width="40" height="40" fill="#1976d2" rx="5"/>
    <path d="M710 95 h20 M715 95 v-5 a10 10 0 0 1 20 0 v5" stroke="white" stroke-width="3" fill="none"/>
  </g>

  <!-- Step 2: History -->
  <g class="step" id="step2" data-narration="PGP was created in 1991 by Phil Zimmermann, making strong encryption accessible to everyone.">
    <rect x="20" y="160" width="760" height="85" fill="url(#orangeGrad)" rx="8" filter="url(#shadow)"/>
    <text x="40" y="180" class="key-term">History of PGP</text>
    <!-- Timeline -->
    <line x1="80" y1="210" x2="720" y2="210" stroke="#ff9800" stroke-width="2"/>
    <circle cx="120" cy="210" r="5" fill="#ff9800"/>
    <text x="120" y="230" text-anchor="middle" class="label-text">1991</text>
    <text x="120" y="242" text-anchor="middle" class="label-text" fill="#666">PGP Created</text>
    <circle cx="300" cy="210" r="5" fill="#ff9800"/>
    <text x="300" y="230" text-anchor="middle" class="label-text">1998</text>
    <text x="300" y="242" text-anchor="middle" class="label-text" fill="#666">Acquired by RSA</text>
    <circle cx="480" cy="210" r="5" fill="#ff9800"/>
    <text x="480" y="230" text-anchor="middle" class="label-text">2002</text>
    <text x="480" y="242" text-anchor="middle" class="label-text" fill="#666">Network Associates</text>
    <circle cx="660" cy="210" r="5" fill="#ff9800"/>
    <text x="660" y="230" text-anchor="middle" class="label-text">Now</text>
    <text x="660" y="242" text-anchor="middle" class="label-text" fill="#666">OpenPGP Standard</text>
  </g>

  <!-- Step 3: Key Concepts - Encryption/Decryption -->
  <g class="step" id="step3" data-narration="Encryption converts plaintext into unreadable ciphertext, protecting data from unauthorized access.">
    <rect x="20" y="255" width="370" height="95" fill="url(#greenGrad)" rx="8" filter="url(#shadow)"/>
    <text x="40" y="275" class="key-term">Encryption</text>
    <text x="40" y="295" class="body-text">Converts plaintext into unreadable</text>
    <text x="40" y="310" class="body-text">ciphertext to protect data.</text>
    <text x="40" y="335" class="formula">Plaintext → [ENCRYPT] → Ciphertext</text>
    
    <rect x="410" y="255" width="370" height="95" fill="url(#purpleGrad)" rx="8" filter="url(#shadow)"/>
    <text x="430" y="275" class="key-term">Decryption</text>
    <text x="430" y="295" class="body-text">Converts ciphertext back into</text>
    <text x="430" y="310" class="body-text">readable plaintext.</text>
    <text x="430" y="335" class="formula">Ciphertext → [DECRYPT] → Plaintext</text>
  </g>

  <!-- Step 4: Key Concepts - Public/Private Keys -->
  <g class="step" id="step4" data-narration="PGP uses asymmetric cryptography with public keys for encryption and private keys for decryption.">
    <rect x="20" y="360" width="370" height="95" fill="url(#blueGrad)" rx="8" filter="url(#shadow)"/>
    <text x="40" y="380" class="key-term">Public Key</text>
    <text x="40" y="400" class="body-text">Used to encrypt messages.</text>
    <text x="40" y="420" class="body-text">Shared publicly with anyone.</text>
    <rect x="280" y="385" width="80" height="40" fill="#1976d2" rx="4"/>
    <text x="320" y="410" text-anchor="middle" fill="white" font-size="11">PUBLIC</text>
    
    <rect x="410" y="360" width="370" height="95" fill="url(#redGrad)" rx="8" filter="url(#shadow)"/>
    <text x="430" y="380" class="key-term">Private Key</text>
    <text x="430" y="400" class="body-text">Used to decrypt messages.</text>
    <text x="430" y="420" class="body-text">Kept secret - never shared!</text>
    <rect x="670" y="385" width="80" height="40" fill="#f44336" rx="4"/>
    <text x="710" y="410" text-anchor="middle" fill="white" font-size="11">PRIVATE</text>
  </g>

  <!-- Step 5: Key Generation -->
  <g class="step" id="step5" data-narration="Users generate a key pair - a public key shared with recipients and a private key kept secret.">
    <rect x="20" y="465" width="760" height="85" fill="url(#blueGrad)" rx="8" filter="url(#shadow)"/>
    <text x="40" y="485" class="key-term">Step 1: Key Generation</text>
    <text x="40" y="510" class="body-text">User generates a key pair using RSA algorithm:</text>
    <!-- Key generation visual -->
    <rect x="300" y="495" width="200" height="40" fill="#e3f2fd" stroke="#1976d2" stroke-width="2" rx="4"/>
    <text x="400" y="515" text-anchor="middle" class="formula">RSA Key Generation</text>
    <path d="M310 515 L350 515" stroke="#1976d2" stroke-width="2" marker-end="url(#arrowBlue)"/>
    <text x="360" y="518" class="label-text">Public + Private Key Pair</text>
    <circle cx="510" cy="515" r="15" fill="none" stroke="#1976d2" stroke-width="2"/>
    <text x="510" y="520" text-anchor="middle" fill="#1976d2" font-size="14">🔑</text>
  </g>

  <!-- Step 6: Encryption Process -->
  <g class="step" id="step6" data-narration="PGP encrypts messages using a random session key, then encrypts that key with the recipient's public key.">
    <rect x="20" y="560" width="760" height="95" fill="url(#greenGrad)" rx="8" filter="url(#shadow)"/>
    <text x="40" y="580" class="key-term">Step 2-3: Encryption Process</text>
    
    <!-- Encryption flow diagram -->
    <rect x="40" y="600" width="80" height="35" fill="#fff" stroke="#388e3c" stroke-width="2" rx="4"/>
    <text x="80" y="620" text-anchor="middle" class="label-text">Message</text>
    
    <path d="M125 617 L165 617" stroke="#388e3c" stroke-width="2" marker-end="url(#arrowGreen)"/>
    <rect x="170" y="600" width="80" height="35" fill="#c8e6c9" stroke="#388e3c" stroke-width="2" rx="4"/>
    <text x="210" y="618" text-anchor="middle" class="label-text">Compress</text>
    
    <path d="M255 617 L295 617" stroke="#388e3c" stroke-width="2" marker-end="url(#arrowGreen)"/>
    <rect x="300" y="600" width="80" height="35" fill="#c8e6c9" stroke="#388e3c" stroke-width="2" rx="4"/>
    <text x="340" y="618" text-anchor="middle" class="label-text">Encrypt</text>
    <text x="340" y="632" text-anchor="middle" class="label-text" fill="#388e3c">(Session Key)</text>
    
    <path d="M385 617 L425 617" stroke="#388e3c" stroke-width="2" marker-end="url(#arrowGreen)"/>
    <rect x="430" y="600" width="80" height="35" fill="#81c784" stroke="#388e3c" stroke-width="2" rx="4"/>
    <text x="470" y="618" text-anchor="middle" fill="white" font-size="10">CIPHERTEXT</text>
    
    <!-- Session key box -->
    <rect x="550" y="595" width="180" height="45" fill="#fff3e0" stroke="#ff9800" stroke-width="2" rx="4"/>
    <text x="640" y="612" text-anchor="middle" class="label-text" fill="#ff9800">Session Key Encryption</text>
    <text x="640" y="628" text-anchor="middle" class="label-text">RSA(Session Key, Recipient's Public Key)</text>
  </g>

  <!-- Step 7: Digital Signatures -->
  <g class="step" id="step7" data-narration="Digital signatures authenticate the sender and verify message integrity using hash functions and private keys.">
    <rect x="20" y="665" width="760" height="95" fill="url(#purpleGrad)" rx="8" filter="url(#shadow)"/>
    <text x="40" y="685" class="key-term">Step 4: Digital Signatures</text>
    
    <!-- Signature flow -->
    <rect x="40" y="705" width="100" height="40" fill="#fff" stroke="#9c27b0" stroke-width="2" rx="4"/>
    <text x="90" y="725" text-anchor="middle" class="label-text">Original Message</text>
    
    <path d="M145 725 L185 725" stroke="#9c27b0" stroke-width="2" marker-end="url(#arrowBlue)"/>
    <rect x="190" y="705" width="70" height="40" fill="#e1bee7" stroke="#9c27b0" stroke-width="2" rx="4"/>
    <text x="225" y="725" text-anchor="middle" class="label-text">Hash</text>
    <text x="225" y="738" text-anchor="middle" class="label-text" font-size="8">SHA-256</text>
    
    <path d="M265 725 L305 725" stroke="#9c27b0" stroke-width="2" marker-end="url(#arrowBlue)"/>
    <rect x="310" y="705" width="70" height="40" fill="#ce93d8" stroke="#9c27b0" stroke-width="2" rx="4"/>
    <text x="345" y="725" text-anchor="middle" class="label-text">Sign</text>
    <text x="345" y="738" text-anchor="middle" class="label-text" font-size="8">Private Key</text>
    
    <path d="M385 725 L425 725" stroke="#9c27b0" stroke-width="2" marker-end="url(#arrowBlue)"/>
    <rect x="430" y="705" width="100" height="40" fill="#ab47bc" stroke="#9c27b0" stroke-width="2" rx="4"/>
    <text x="480" y="725" text-anchor="middle" fill="white" font-size="10">Digital Signature</text>
    
    <!-- Formula -->
    <rect x="550" y="705" width="200" height="40" fill="#f3e5f5" stroke="#9c27b0" stroke-width="1" rx="4"/>
    <text x="650" y="725" text-anchor="middle" class="formula" font-size="9">Signature = RSA(Hash, PrivateKey)</text>
    <text x="650" y="738" text-anchor="middle" class="label-text" fill="#666">Verify with Sender's Public Key</text>
  </g>

  <!-- Step 8: Transmission & Decryption -->
  <g class="step" id="step8" data-narration="The encrypted message and digital signature are transmitted together, then recipient decrypts using their private key.">
    <rect x="20" y="770" width="760" height="95" fill="url(#orangeGrad)" rx="8" filter="url(#shadow)"/>
    <text x="40" y="790" class="key-term">Step 5-6: Transmission &amp; Decryption</text>
    
    <!-- Transmission visualization -->
    <rect x="40" y="810" width="140" height="45" fill="#ffe0b2" stroke="#ff9800" stroke-width="2" rx="4"/>
    <text x="110" y="830" text-anchor="middle" class="label-text">Encrypted Message</text>
    <text x="110" y="843" text-anchor="middle" class="label-text">+ Digital Signature</text>
    
    <path d="M185 832 L245 832" stroke="#ff9800" stroke-width="2" marker-end="url(#arrowOrange)"/>
    <rect x="250" y="810" width="120" height="45" fill="#ffcc80" stroke="#ff9800" stroke-width="2" rx="4">
      <animate attributeName="opacity" values="0.5;1;0.5" dur="1.5s" repeatCount="indefinite"/>
    </rect>
    <text x="310" y="832" text-anchor="middle" class="label-text">INTERNET</text>
    
    <!-- Recipient side -->
    <rect x="500" y="810" width="120" height="45" fill="#ffe0b2" stroke="#ff9800" stroke-width="2" rx="4"/>
    <text x="560" y="830" text-anchor="middle" class="label-text">Recipient</text>
    <text x="560" y="843" text-anchor="middle" class="label-text">Decrypts</text>
    
    <!-- Decryption process -->
    <rect x="640" y="810" width="120" height="45" fill="#c8e6c9" stroke="#388e3c" stroke-width="2" rx="4"/>
    <text x="700" y="825" text-anchor="middle" class="label-text">Decrypt with</text>
    <text x="700" y="840" text-anchor="middle" class="label-text" fill="#388e3c">Private Key</text>
    
    <path d="M560 855 L640 855" stroke="#388e3c" stroke-width="2" marker-end="url(#arrowGreen)"/>
    <text x="600" y="870" text-anchor="middle" class="label-text">Verify Signature</text>
  </g>

  <!-- Step 9: PGP Components -->
  <g class="step" id="step9" data-narration="PGP has two main components: the PGP Agent manages keys, and PGP Software provides encryption tools.">
    <rect x="20" y="875" width="760" height="85" fill="url(#blueGrad)" rx="8" filter="url(#shadow)"/>
    <text x="40" y="895" class="key-term">PGP Components</text>
    
    <rect x="40" y="910" width="340" height="40" fill="#e3f2fd" stroke="#1976d2" stroke-width="2" rx="6"/>
    <text x="210" y="930" text-anchor="middle" class="body-text">PGP Agent</text>
    <text x="210" y="943" text-anchor="middle" class="label-text" fill="#666">Manages keys, performs encryption/decryption</text>
    
    <rect x="400" y="910" width="340" height="40" fill="#e3f2fd" stroke="#1976d2" stroke-width="2" rx="6"/>
    <text x="570" y="930" text-anchor="middle" class="body-text">PGP Software</text>
    <text x="570" y="943" text-anchor="middle" class="label-text" fill="#666">Suite of applications for secure communication</text>
  </g>

  <!-- Step 10: Security Features -->
  <g class="step" id="step10" data-narration="PGP provides end-to-end encryption, digital signatures, and secure key management for comprehensive security.">
    <rect x="20" y="970" width="760" height="85" fill="url(#greenGrad)" rx="8" filter="url(#shadow)"/>
    <text x="40" y="990" class="key-term">PGP Security Features</text>
    
    <!-- Three security features -->
    <rect x="40" y="1005" width="230" height="40" fill="#c8e6c9" stroke="#388e3c" stroke-width="2" rx="4"/>
    <text x="155" y="1025" text-anchor="middle" class="label-text" fill="#388e3c">End-to-End Encryption</text>
    
    <rect x="285" y="1005" width="230" height="40" fill="#c8e6c9" stroke="#388e3c" stroke-width="2" rx="4"/>
    <text x="400" y="1025" text-anchor="middle" class="label-text" fill="#388e3c">Digital Signatures</text>
    
    <rect x="530" y="1005" width="230" height="40" fill="#c8e6c9" stroke="#388e3c" stroke-width="2" rx="4"/>
    <text x="645" y="1025" text-anchor="middle" class="label-text" fill="#388e3c">Secure Key Management</text>
  </g>

  <!-- Step 11: Web of Trust -->
  <g class="step" id="step11" data-narration="PGP uses a web of trust model where users vouch for each other's keys, unlike traditional certificate authorities.">
    <rect x="20" y="1065" width="760" height="85" fill="url(#purpleGrad)" rx="8" filter="url(#shadow)"/>
    <text x="40" y="1085" class="key-term">Web of Trust Model</text>
    <text x="40" y="1108" class="body-text">Decentralized key authentication - users vouch for each other's keys:</text>
    
    <!-- Web of trust visual -->
    <circle cx="200" cy="1135" r="20" fill="#ce93d8" stroke="#9c27b0" stroke-width="2"/>
    <text x="200" y="1140" text-anchor="middle" fill="white" font-size="10">Alice</text>
    
    <circle cx="320" cy="1135" r="20" fill="#ce93d8" stroke="#9c27b0" stroke-width="2"/>
    <text x="320" y="1140" text-anchor="middle" fill="white" font-size="10">Bob</text>
    
    <circle cx="440" cy="1135" r="20" fill="#ce93d8" stroke="#9c27b0" stroke-width="2"/>
    <text x="440" y="1140" text-anchor="middle" fill="white" font-size="10">Charlie</text>
    
    <circle cx="560" cy="1135" r="20" fill="#ce93d8" stroke="#9c27b0" stroke-width="2"/>
    <text x="560" y="1140" text-anchor="middle" fill="white" font-size="10">Dave</text>
    
    <!-- Trust lines -->
    <line x1="220" y1="1135" x2="300" y2="1135" stroke="#9c27b0" stroke-width="2" class="draw-line"/>
    <line x1="340" y1="1135" x2="420" y2="1135" stroke="#9c27b0" stroke-width="2" class="draw-line"/>
    <line x1="460" y1="1135" x2="540" y2="1135" stroke="#9c27b0" stroke-width="2" class="draw-line"/>
    <line x1="200" y1="1115" x2="440" y2="1115" stroke="#9c27b0" stroke-width="1" stroke-dasharray="5,3"/>
    <line x1="320" y1="1155" x2="560" y2="1155" stroke="#9c27b0" stroke-width="1" stroke-dasharray="5,3"/>
    
    <text x="680" y="1140" class="label-text" fill="#666">vs Traditional PKI</text>
  </g>

  <!-- Step 12: Summary -->
  <g class="step" id="step12" data-narration="PGP combines symmetric encryption, public-key cryptography, hash functions, and digital signatures for comprehensive email security.">
    <rect x="20" y="1160" width="760" height="85" fill="url(#titleGrad)" rx="8" filter="url(#shadow)"/>
    <text x="400" y="1182" text-anchor="middle" fill="white" font-size="14" font-weight="bold">Summary: What We Learned</text>
    
    <!-- Summary points -->
    <rect x="40" y="1195" width="170" height="40" fill="rgba(255,255,255,0.2)" rx="4"/>
    <text x="125" y="1210" text-anchor="middle" fill="white" font-size="9">Key Pair Generation</text>
    <text x="125" y="1225" text-anchor="middle" fill="white" font-size="8">Public + Private Keys</text>
    
    <rect x="220" y="1195" width="170" height="40" fill="rgba(255,255,255,0.2)" rx="4"/>
    <text x="305" y="1210" text-anchor="middle" fill="white" font-size="9">Session Key Encryption</text>
    <text x="305" y="1225" text-anchor="middle" fill="white" font-size="8">Hybrid RSA + Symmetric</text>
    
    <rect x="400" y="1195" width="170" height="40" fill="rgba(255,255,255,0.2)" rx="4"/>
    <text x="485" y="1210" text-anchor="middle" fill="white" font-size="9">Digital Signatures</text>
    <text x="485" y="1225" text-anchor="middle" fill="white" font-size="8">Hash + Private Key</text>
    
    <rect x="580" y="1195" width="180" height="40" fill="rgba(255,255,255,0.2)" rx="4"/>
    <text x="670" y="1210" text-anchor="middle" fill="white" font-size="9">Web of Trust</text>
    <text x="670" y="1225" text-anchor="middle" fill="white" font-size="8">Decentralized Key Auth</text>
  </g>
</svg>