<svg width="420" height="400" data-topic-id="Linear-Algebra-Vector-Spaces-Subspaces-Linear-Combin"
     xmlns="http://www.w3.org/2000/svg" xmlns:xlink="http://www.w3.org/1999/xlink" viewBox="0 0 420 400" xml:space="preserve">
  <title(Vector Spaces and Subspaces)</title>
  <defs>
    <linearGradient id="pastel-gradient" x1="0%" y1="0%" x2="100%" y2="0%">
      <stop offset="0%" stop-color="#C7B8EA" stop-opacity="1" />
      <stop offset="50%" stop-color="#B2A5F2" stop-opacity="1" />
      <stop offset="100%" stop-color="#A1C9F2" stop-opacity="1" />
    </linearGradient>
  </defs>
  <rect width="100%" height="100%" fill="url(#pastel-gradient)" rx="10" />
  <g opacity="0.8" transform="translate(20, 20)">
    <rect width="300" height="200" stroke="#3498DB" stroke-width="2" fill="none" rx="10" />
    <path d="M 20 20 L 20 80" stroke="#3498DB" stroke-width="2" />
    <path d="M 20 80 L 300 80" stroke="#3498DB" stroke-width="2" />
    <path d="M 300 80 L 300 20" stroke="#3498DB" stroke-width="2" />
    <path d="M 20 20 L 20 120" stroke="#3498DB" stroke-width="2" />
    <path d="M 20 120 L 300 120" stroke="#3498DB" stroke-width="2" />
    <path d="M 300 120 L 300 20" stroke="#3498DB" stroke-width="2" />
    <text x="50%" y="30%" font-size="24" font-family="Arial" fill="#2ECC71">Vector Space</text>
    <text x="50%" y="70%" font-size="24" font-family="Arial" fill="#2ECC71">Subspace</text>
    <text x="50%" y="110%" font-size="24" font-family="Arial" fill="#2ECC71">Linear Combination</text>
    <text x="50%" y="150%" font-size="24" font-family="Arial" fill="#2ECC71">Closure under Addition</text>
    <text x="50%" y="190%" font-size="24" font-family="Arial" fill="#2ECC71">Closure under Scalar Multiplication</text>
    <text x="50%" y="230%" font-size="24" font-family="Arial" fill="#2ECC71">Additive Identity</text>
    <text x="50%" y="270%" font-size="24" font-family="Arial" fill="#2ECC71">Additive Inverse</text>
    <text x="50%" y="310%" font-size="24" font-family="Arial" fill="#2ECC71">Zero Vector</text>
    <line x1="50%" y1="20" x2="50%" y2="380" stroke="#3498DB" stroke-width="2" />
    <line x1="300" y1="20" x2="300" y2="380" stroke="#3498DB" stroke-width="2" />
    <line x1="50%" y1="400" x2="300" y2="400" stroke="#3498DB" stroke-width="2" />
    <animate transform="rotate(360 180 180)" begin="0s" dur="30s" repeatCount="indefinite" />
    <animate transform="rotate(360 180 180)" begin="5s" dur="30s" repeatCount="indefinite" />
    <animate transform="rotate(360 180 180)" begin="10s" dur="30s" repeatCount="indefinite" />
    <animate transform="rotate(360 180 180)" begin="15s" dur="30s" repeatCount="indefinite" />
    <animate transform="rotate(360 180 180)" begin="20s" dur="30s" repeatCount="indefinite" />
    <animate transform="rotate(360 180 180)" begin="25s" dur="30s" repeatCount="indefinite" />
    <animate transform="rotate(360 180 180)" begin="30s" dur="30s" repeatCount="indefinite" />
    <g opacity="0.8" transform="translate(20, 400)">
      <rect width="300" height="200" stroke="#3498DB" stroke-width="2" fill="none" rx="10" />
      <text x="50%" y="20%" font-size="24" font-family="Arial" fill="#2ECC71">Example</text>
      <text x="50%" y="50%" font-size="24" font-family="Arial" fill="#2ECC71">Properties of Subspaces</text>
      <text x="50%" y="80%" font-size="24" font-family="Arial" fill="#2ECC71">Additive Identity</text>
      <text x="50%" y="110%" font-size="24" font-family="Arial" fill="#2ECC71">Additive Inverse</text>
      <text x="50%" y="140%" font-size="24" font-family="Arial" fill="#2ECC71">Scalar Multiplication</text>
      <text x="50%" y="170%" font-size="24" font-family="Arial" fill="#2ECC71">Closure under Addition</text>
      <text x="50%" y="200%" font-size="24" font-family="Arial" fill="#2ECC71">Closure under Scalar Multiplication</text>
      <text x="50%" y="230%" font-size="24" font-family="Arial" fill="#2ECC71">Sum of Two Subspaces</text>
      <text x="50%" y="260%" font-size="24" font-family="Arial" fill="#2ECC71">Product of Two Subspaces</text>
      <rect x="20" y="300" width="100" height="100" stroke="#E74C3C" stroke-width="2" fill="none" rx="10" />
      <rect x="220" y="300" width="100" height="100" stroke="#E74C3C" stroke-width="2" fill="none" rx="10" />
      <line x1="30" y1="15" x2="30" y2="85" stroke="#E74C3C" stroke-width="2" />
      <line x1="230" y1="15" x2="230" y2="85" stroke="#E74C3C" stroke-width="2" />
      <line x1="30" y1="115" x2="30" y2="165" stroke="#E74C3C" stroke-width="2" />
      <line x1="230" y1="115" x2="230" y2="165" stroke="#E74C3C" stroke-width="2" />
      <animate transform="rotate(360 190 190)" begin="0s" dur="30s" repeatCount="indefinite" />
      <animate transform="rotate(360 190 190)" begin="5s" dur="30s" repeatCount="indefinite" />
      <animate transform="rotate(360 190 190)" begin="10s" dur="30s" repeatCount="indefinite" />
      <animate transform="rotate(360 190 190)" begin="15s" dur="30s" repeatCount="indefinite" />
      <animate transform="rotate(360 190 190)" begin="20s" dur="30s" repeatCount="indefinite" />
      <animate transform="rotate(360 190 190)" begin="25s" dur="30s" repeatCount="indefinite" />
      <animate transform="rotate(360 190 190)" begin="30s" dur="30s" repeatCount="indefinite" />
  </g>
  <footer>
    <text x="50%" y="380%" font-size="24" font-family="Arial" fill="#2ECC71">Vector Spaces and Subspaces</text>
  </footer>
</svg>