<svg xmlns="http://www.w3.org/2000/svg" viewBox="0 0 800 1600">
  <defs>
    <!-- Gradients -->
    <linearGradient id="titleGrad" x1="0%" y1="0%" x2="100%" y2="100%">
      <stop offset="0%" style="stop-color:#1565c0"/>
      <stop offset="100%" style="stop-color:#0d47a1"/>
    </linearGradient>
    <linearGradient id="blueGrad" x1="0%" y1="0%" x2="100%" y2="0%">
      <stop offset="0%" style="stop-color:#e3f2fd"/>
      <stop offset="100%" style="stop-color:#bbdefb"/>
    </linearGradient>
    <linearGradient id="greenGrad" x1="0%" y1="0%" x2="100%" y2="0%">
      <stop offset="0%" style="stop-color:#e8f5e9"/>
      <stop offset="100%" style="stop-color:#c8e6c9"/>
    </linearGradient>
    <linearGradient id="orangeGrad" x1="0%" y1="0%" x2="100%" y2="0%">
      <stop offset="0%" style="stop-color:#fff3e0"/>
      <stop offset="100%" style="stop-color:#ffe0b2"/>
    </linearGradient>
    <linearGradient id="purpleGrad" x1="0%" y1="0%" x2="100%" y2="0%">
      <stop offset="0%" style="stop-color:#f3e5f5"/>
      <stop offset="100%" style="stop-color:#e1bee7"/>
    </linearGradient>
    <linearGradient id="redGrad" x1="0%" y1="0%" x2="100%" y2="0%">
      <stop offset="0%" style="stop-color:#ffebee"/>
      <stop offset="100%" style="stop-color:#ffcdd2"/>
    </linearGradient>
    <!-- Arrow marker -->
    <marker id="arrowBlue" markerWidth="10" markerHeight="10" refX="9" refY="3" orient="auto">
      <path d="M0,0 L0,6 L9,3 z" fill="#1976d2"/>
    </marker>
    <marker id="arrowGreen" markerWidth="10" markerHeight="10" refX="9" refY="3" orient="auto">
      <path d="M0,0 L0,6 L9,3 z" fill="#388e3c"/>
    </marker>
    <!-- Drop shadow filter -->
    <filter id="shadow" x="-20%" y="-20%" width="140%" height="140%">
      <feDropShadow dx="2" dy="2" stdDeviation="3" flood-opacity="0.2"/>
    </filter>
  </defs>
  
  <style>
    @keyframes fadeInSlide {
      from { opacity: 0; transform: translateY(20px); }
      to { opacity: 1; transform: translateY(0); }
    }
    @keyframes scaleIn {
      from { opacity: 0; transform: scale(0.85); }
      to { opacity: 1; transform: scale(1); }
    }
    @keyframes textReveal {
      from { opacity: 0; transform: translateX(-10px); }
      to { opacity: 1; transform: translateX(0); }
    }
    @keyframes drawLine {
      from { stroke-dashoffset: 300; }
      to { stroke-dashoffset: 0; }
    }
    @keyframes pulse {
      0%, 100% { transform: scale(1); }
      50% { transform: scale(1.03); }
    }
    @keyframes fillIn {
      from { opacity: 0; }
      to { opacity: 1; }
    }
    .step { animation: fadeInSlide 0.6s ease-out; }
    .step rect { animation: scaleIn 0.5s cubic-bezier(0.34, 1.56, 0.64, 1); transform-origin: center; }
    .step text { animation: textReveal 0.4s ease-out 0.2s backwards; }
    .draw-line {
      stroke-dasharray: 300;
      stroke-dashoffset: 300;
      animation: drawLine 1s ease-out forwards;
    }
    .pulse { animation: pulse 2s ease-in-out infinite; }
  </style>

  <!-- Background -->
  <rect width="800" height="1600" fill="#f8f9fa"/>

  <!-- Step 0: Title -->
  <g class="step" id="step0" data-narration="Welcome to Relational Model Concepts. This foundational topic by E.F. Codd revolutionized database management systems worldwide.">
    <rect x="50" y="10" width="700" height="45" rx="10" fill="url(#titleGrad)" filter="url(#shadow)"/>
    <text x="400" y="40" text-anchor="middle" font-size="20" font-weight="bold" fill="white">Relational Model Concepts</text>
    <text x="400" y="58" text-anchor="middle" font-size="11" fill="#e3f2fd">university 2022 Scheme - Database Management Systems</text>
  </g>

  <!-- Step 1: What is Relational Model -->
  <g class="step" id="step1" data-narration="The Relational Model represents data as tables with rows and columns, providing a mathematical foundation for organizing data.">
    <rect x="50" y="65" width="700" height="85" rx="8" fill="url(#blueGrad)" filter="url(#shadow)"/>
    <text x="70" y="85" font-size="12" font-weight="bold" fill="#1565c0">What is the Relational Model?</text>
    <text x="70" y="105" font-size="10" fill="#424242">Introduced by E.F. Codd in 1970</text>
    <!-- Table illustration -->
    <g transform="translate(280, 80)">
      <rect x="0" y="0" width="200" height="60" rx="4" fill="white" stroke="#1976d2" stroke-width="1.5"/>
      <text x="100" y="15" text-anchor="middle" font-size="9" font-weight="bold" fill="#1565c0">STUDENT</text>
      <line x1="0" y1="22" x2="200" y2="22" stroke="#1976d2" stroke-width="1"/>
      <text x="10" y="36" font-size="8" fill="#424242">Roll_No</text>
      <text x="70" y="36" font-size="8" fill="#424242">Name</text>
      <text x="130" y="36" font-size="8" fill="#424242">Age</text>
      <text x="170" y="36" font-size="8" fill="#424242">Branch</text>
      <line x1="0" y1="42" x2="200" y2="42" stroke="#e0e0e0" stroke-width="0.5"/>
      <text x="10" y="54" font-size="8" fill="#1976d2">001</text>
      <text x="70" y="54" font-size="8" fill="#388e3c">Alice</text>
      <text x="130" y="54" font-size="8" fill="#424242">20</text>
      <text x="170" y="54" font-size="8" fill="#424242">CSE</text>
    </g>
  </g>

  <!-- Step 2: Why It Matters -->
  <g class="step" id="step2" data-narration="Modern DBMS like Oracle, MySQL, PostgreSQL rely on this model for efficient storage, retrieval, and maintaining data integrity.">
    <rect x="50" y="160" width="700" height="85" rx="8" fill="url(#greenGrad)" filter="url(#shadow)"/>
    <text x="70" y="180" font-size="12" font-weight="bold" fill="#2e7d32">Why Does It Matter?</text>
    <text x="70" y="200" font-size="10" fill="#424242">Foundation for all modern database systems</text>
    <!-- Icons row -->
    <g transform="translate(80, 215)">
      <circle cx="25" cy="15" r="12" fill="#1976d2"/>
      <text x="25" y="19" text-anchor="middle" font-size="8" fill="white">ORC</text>
    </g>
    <g transform="translate(180, 215)">
      <circle cx="25" cy="15" r="12" fill="#00758f"/>
      <text x="25" y="19" text-anchor="middle" font-size="8" fill="white">MySQL</text>
    </g>
    <g transform="translate(280, 215)">
      <circle cx="25" cy="15" r="12" fill="#336791"/>
      <text x="25" y="19" text-anchor="middle" font-size="7" fill="white">PG</text>
    </g>
    <g transform="translate(380, 215)">
      <circle cx="25" cy="15" r="12" fill="#cc2927"/>
      <text x="25" y="19" text-anchor="middle" font-size="7" fill="white">MSSQL</text>
    </g>
    <text x="500" y="225" font-size="9" fill="#2e7d32">✓ Data Integrity</text>
    <text x="500" y="238" font-size="9" fill="#2e7d32">✓ Reduced Redundancy</text>
  </g>

  <!-- Step 3: Entities and Entity Sets -->
  <g class="step" id="step3" data-narration="An entity is a real-world object uniquely identifiable, like a student. An entity set is a collection of similar entities, like all students.">
    <rect x="50" y="255" width="700" height="90" rx="8" fill="url(#orangeGrad)" filter="url(#shadow)"/>
    <text x="70" y="275" font-size="12" font-weight="bold" fill="#e65100">Entities &amp; Entity Sets</text>
    <text x="70" y="295" font-size="10" fill="#424242">Entity: Real-world object that can be uniquely identified</text>
    <!-- Entity examples -->
    <g transform="translate(60, 310)">
      <rect x="0" y="0" width="80" height="25" rx="5" fill="#fff8e1" stroke="#ff9800"/>
      <text x="40" y="17" text-anchor="middle" font-size="9" fill="#e65100">Student</text>
    </g>
    <g transform="translate(150, 310)">
      <rect x="0" y="0" width="80" height="25" rx="5" fill="#fff8e1" stroke="#ff9800"/>
      <text x="40" y="17" text-anchor="middle" font-size="9" fill="#e65100">Product</text>
    </g>
    <g transform="translate(240, 310)">
      <rect x="0" y="0" width="80" height="25" rx="5" fill="#fff8e1" stroke="#ff9800"/>
      <text x="40" y="17" text-anchor="middle" font-size="9" fill="#e65100">Employee</text>
    </g>
    <text x="350" y="325" font-size="10" font-weight="bold" fill="#e65100">Entity Set:</text>
    <text x="350" y="340" font-size="9" fill="#424242">Collection of entities of same type</text>
    <!-- Arrow -->
    <path d="M430 332 L470 332" stroke="#e65100" stroke-width="2" marker-end="url(#arrowBlue)"/>
    <rect x="480" y="310" width="120" height="25" rx="5" fill="url(#blueGrad)" stroke="#1976d2"/>
    <text x="540" y="327" text-anchor="middle" font-size="9" fill="#1565c0">STUDENT Table</text>
  </g>

  <!-- Step 4: Attributes and Their Types -->
  <g class="step" id="step4" data-narration="Attributes are properties of entities. They can be simple, composite, single-valued, multi-valued, or derived based on their characteristics.">
    <rect x="50" y="355" width="700" height="100" rx="8" fill="url(#purpleGrad)" filter="url(#shadow)"/>
    <text x="70" y="375" font-size="12" font-weight="bold" fill="#7b1fa2">Attributes &amp; Their Types</text>
    <!-- Attribute types grid -->
    <g transform="translate(60, 390)">
      <rect x="0" y="0" width="150" height="55" rx="4" fill="white" stroke="#9c27b0"/>
      <text x="75" y="15" text-anchor="middle" font-size="9" font-weight="bold" fill="#7b1fa2">Simple</text>
      <text x="10" y="32" font-size="8" fill="#424242">Cannot be divided</text>
      <text x="10" y="45" font-size="8" fill="#1976d2">Example: Roll_No, Age</text>
    </g>
    <g transform="translate(220, 390)">
      <rect x="0" y="0" width="150" height="55" rx="4" fill="white" stroke="#9c27b0"/>
      <text x="75" y="15" text-anchor="middle" font-size="9" font-weight="bold" fill="#7b1fa2">Composite</text>
      <text x="10" y="32" font-size="8" fill="#424242">Can be broken down</text>
      <text x="10" y="45" font-size="8" fill="#1976d2">Example: Address</text>
    </g>
    <g transform="translate(380, 390)">
      <rect x="0" y="0" width="150" height="55" rx="4" fill="white" stroke="#9c27b0"/>
      <text x="75" y="15" text-anchor="middle" font-size="9" font-weight="bold" fill="#7b1fa2">Single-valued</text>
      <text x="10" y="32" font-size="8" fill="#424242">One value per entity</text>
      <text x="10" y="45" font-size="8" fill="#1976d2">Example: DOB</text>
    </g>
    <g transform="translate(540, 390)">
      <rect x="0" y="0" width="150" height="55" rx="4" fill="white" stroke="#9c27b0"/>
      <text x="75" y="15" text-anchor="middle" font-size="9" font-weight="bold" fill="#7b1fa2">Multi-valued</text>
      <text x="10" y="32" font-size="8" fill="#424242">Multiple values</text>
      <text x="10" y="45" font-size="8" fill="#1976d2">Example: Phone</text>
    </g>
    <g transform="translate(220, 445)">
      <rect x="0" y="0" width="150" height="40" rx="4" fill="white" stroke="#9c27b0"/>
      <text x="75" y="12" text-anchor="middle" font-size="9" font-weight="bold" fill="#7b1fa2">Derived</text>
      <text x="10" y="28" font-size="8" fill="#424242">Computed from other</text>
    </g>
    <g transform="translate(380, 445)">
      <rect x="0" y="0" width="150" height="40" rx="4" fill="white" stroke="#9c27b0"/>
      <text x="75" y="12" text-anchor="middle" font-size="8" font-weight="bold" fill="#7b1fa2">Example: Age from DOB</text>
      <text x="10" y="28" font-size="8" fill="#388e3c">Calculated value</text>
    </g>
  </g>

  <!-- Step 5: Keys - Superkey, Candidate Key, Primary Key -->
  <g class="step" id="step5" data-narration="Keys uniquely identify tuples. Superkeys can have extra attributes. Candidate keys are minimal superkeys. Primary key is the chosen one.">
    <rect x="50" y="465" width="700" height="95" rx="8" fill="url(#blueGrad)" filter="url(#shadow)"/>
    <text x="70" y="485" font-size="12" font-weight="bold" fill="#1565c0">Keys: Superkey → Candidate Key → Primary Key</text>
    <!-- Hierarchy diagram -->
    <g transform="translate(100, 500)">
      <rect x="0" y="0" width="180" height="45" rx="6" fill="#ffcdd2" stroke="#f44336"/>
      <text x="90" y="18" text-anchor="middle" font-size="10" font-weight="bold" fill="#c62828">SUPERKEY</text>
      <text x="90" y="35" text-anchor="middle" font-size="8" fill="#424242">Uniquely identifies tuples</text>
      <path d="M90 45 L90 55" stroke="#1976d2" stroke-width="2" marker-end="url(#arrowBlue)"/>
    </g>
    <g transform="translate(230, 500)">
      <rect x="0" y="0" width="180" height="45" rx="6" fill="#ffe0b2" stroke="#ff9800"/>
      <text x="90" y="18" text-anchor="middle" font-size="10" font-weight="bold" fill="#e65100">CANDIDATE KEY</text>
      <text x="90" y="35" text-anchor="middle" font-size="8" fill="#424242">Minimal superkey</text>
      <path d="M90 45 L90 55" stroke="#1976d2" stroke-width="2" marker-end="url(#arrowBlue)"/>
    </g>
    <g transform="translate(360, 500)">
      <rect x="0" y="0" width="180" height="45" rx="6" fill="#c8e6c9" stroke="#388e3c"/>
      <text x="90" y="18" text-anchor="middle" font-size="10" font-weight="bold" fill="#2e7d32">PRIMARY KEY</text>
      <text x="90" y="35" text-anchor="middle" font-size="8" fill="#424242">Selected candidate key</text>
    </g>
    <!-- Example box -->
    <rect x="570" y="510" width="140" height="40" rx="4" fill="white" stroke="#1976d2"/>
    <text x="640" y="525" text-anchor="middle" font-size="8" fill="#1565c0">STUDENT</text>
    <text x="590" y="542" font-size="8" fill="#424242">PK: Roll_No</text>
  </g>

  <!-- Step 6: Foreign Key and Unique Key -->
  <g class="step" id="step6" data-narration="Foreign keys establish relationships between tables, referencing primary keys. Unique keys are like primary keys but allow NULL values.">
    <rect x="50" y="570" width="700" height="90" rx="8" fill="url(#greenGrad)" filter="url(#shadow)"/>
    <text x="70" y="590" font-size="12" font-weight="bold" fill="#2e7d32">Foreign Key &amp; Unique Key</text>
    <!-- Foreign Key diagram -->
    <g transform="translate(60, 610)">
      <rect x="0" y="0" width="160" height="40" rx="4" fill="#e3f2fd" stroke="#1976d2"/>
      <text x="80" y="15" text-anchor="middle" font-size="8" fill="#1565c0" font-weight="bold">FOREIGN KEY</text>
      <text x="80" y="30" text-anchor="middle" font-size="8" fill="#424242">References another table's PK</text>
    </g>
    <path d="M230 630 L260 630" stroke="#388e3c" stroke-width="2" marker-end="url(#arrowGreen)"/>
    <g transform="translate(270, 610)">
      <rect x="0" y="0" width="160" height="40" rx="4" fill="#fff3e0" stroke="#ff9800"/>
      <text x="80" y="15" text-anchor="middle" font-size="8" fill="#e65100" font-weight="bold">UNIQUE KEY</text>
      <text x="80" y="30" text-anchor="middle" font-size="8" fill="#424242">Allows NULL, unique values</text>
    </g>
    <!-- Example tables -->
    <g transform="translate(460, 605)">
      <rect x="0" y="0" width="100" height="50" rx="3" fill="white" stroke="#1976d2"/>
      <text x="50" y="12" text-anchor="middle" font-size="7" fill="#1565c0">EMPLOYEE</text>
      <line x1="2" y1="18" x2="98" y2="18" stroke="#e0e0e0"/>
      <text x="5" y="30" font-size="7" fill="#388e3c">Emp_ID (PK)</text>
      <text x="5" y="42" font-size="7" fill="#f44336">Dept_ID (FK)</text>
    </g>
    <g transform="translate(570, 605)">
      <rect x="0" y="0" width="100" height="50" rx="3" fill="white" stroke="#388e3c"/>
      <text x="50" y="12" text-anchor="middle" font-size="7" fill="#2e7d32">DEPARTMENT</text>
      <line x1="2" y1="18" x2="98" y2="18" stroke="#e0e0e0"/>
      <text x="5" y="30" font-size="7" fill="#388e3c">Dept_ID (PK)</text>
      <text x="5" y="42" font-size="7" fill="#424242">Dept_Name</text>
    </g>
  </g>

  <!-- Step 7: Relationships and Degree -->
  <g class="step" id="step7" data-narration="Relationships associate entities. The degree indicates how many entity sets participate. Binary involves two entities, ternary involves three.">
    <rect x="50" y="670" width="700" height="90" rx="8" fill="url(#orangeGrad)" filter="url(#shadow)"/>
    <text x="70" y="690" font-size="12" font-weight="bold" fill="#e65100">Relationships &amp; Degree</text>
    <!-- Degree illustration -->
    <g transform="translate(80, 720)">
      <circle cx="0" cy="0" r="15" fill="#1976d2"/>
      <text x="0" y="4" text-anchor="middle" font-size="7" fill="white">A</text>
      <text x="0" y="-22" text-anchor="middle" font-size="8" fill="#1565c0">Binary</text>
      <circle cx="60" cy="0" r="15" fill="#388e3c"/>
      <text x="60" y="4" text-anchor="middle" font-size="7" fill="white">B</text>
      <line x1="15" y1="0" x2="45" y2="0" stroke="#424242" stroke-width="2"/>
    </g>
    <g transform="translate(220, 720)">
      <circle cx="0" cy="0" r="15" fill="#1976d2"/>
      <text x="0" y="4" text-anchor="middle" font-size="7" fill="white">A</text>
      <text x="30" y="-22" text-anchor="middle" font-size="8" fill="#1565c0">Ternary</text>
      <circle cx="60" cy="0" r="15" fill="#388e3c"/>
      <text x="60" y="4" text-anchor="middle" font-size="7" fill="white">B</text>
      <circle cx="30" cy="35" r="15" fill="#ff9800"/>
      <text x="30" y="39" text-anchor="middle" font-size="7" fill="white">C</text>
      <line x1="8" y1="-8" x2="52" y2="-8" stroke="#424242" stroke-width="1.5"/>
      <line x1="8" y1="8" x2="52" y2="8" stroke="#424242" stroke-width="1.5"/>
    </g>
    <text x="380" y="720" font-size="10" font-weight="bold" fill="#e65100">Relationship Set:</text>
    <text x="380" y="738" font-size="9" fill="#424242">Collection of relationships</text>
    <text x="380" y="752" font-size="8" fill="#757575">e.g., all "enrolled in" relationships</text>
  </g>

  <!-- Step 8: Cardinality -->
  <g class="step" id="step8" data-narration="Cardinality specifies how entities relate: one-to-one, one-to-many, or many-to-many. This determines how relationships are implemented.">
    <rect x="50" y="770" width="700" height="95" rx="8" fill="url(#redGrad)" filter="url(#shadow)"/>
    <text x="70" y="790" font-size="12" font-weight="bold" fill="#c62828">Cardinality Types</text>
    <!-- Three cardinality types -->
    <g transform="translate(60, 810)">
      <rect x="0" y="0" width="200" height="45" rx="4" fill="white" stroke="#388e3c"/>
      <text x="100" y="15" text-anchor="middle" font-size="9" font-weight="bold" fill="#2e7d32">One-to-One (1:1)</text>
      <text x="100" y="32" text-anchor="middle" font-size="8" fill="#424242">Each entity links to at most one other</text>
      <text x="10" y="25" font-size="9" fill="#1565c0">1</text>
      <text x="185" y="25" font-size="9" fill="#1565c0">1</text>
    </g>
    <g transform="translate(270, 810)">
      <rect x="0" y="0" width="200" height="45" rx="4" fill="white" stroke="#ff9800"/>
      <text x="100" y="15" text-anchor="middle" font-size="9" font-weight="bold" fill="#e65100">One-to-Many (1:M)</text>
      <text x="100" y="32" text-anchor="middle" font-size="8" fill="#424242">One entity, many in other set</text>
      <text x="10" y="25" font-size="9" fill="#1565c0">1</text>
      <text x="185" y="25" font-size="9" fill="#1565c0">M</text>
    </g>
    <g transform="translate(480, 810)">
      <rect x="0" y="0" width="200" height="45" rx="4" fill="white" stroke="#9c27b0"/>
      <text x="100" y="15" text-anchor="middle" font-size="9" font-weight="bold" fill="#7b1fa2">Many-to-Many (M:N)</text>
      <text x="100" y="32" text-anchor="middle" font-size="8" fill="#424242">Multiple entities on both sides</text>
      <text x="10" y="25" font-size="9" fill="#1565c0">M</text>
      <text x="185" y="25" font-size="9" fill="#1565c0">N</text>
    </g>
  </g>

  <!-- Step 9: Relational Schema and Instance -->
  <g class="step" id="step9" data-narration="A schema defines structure (name, attributes, domains). An instance is actual data - the tuples stored at a particular moment.">
    <rect x="50" y="875" width="700" height="85" rx="8" fill="url(#purpleGrad)" filter="url(#shadow)"/>
    <text x="70" y="895" font-size="12" font-weight="bold" fill="#7b1fa2">Relational Schema vs Instance</text>
    <!-- Schema box -->
    <g transform="translate(60, 910)">
      <rect x="0" y="0" width="280" height="40" rx="4" fill="#f3e5f5" stroke="#9c27b0"/>
      <text x="140" y="15" text-anchor="middle" font-size="9" font-weight="bold" fill="#7b1fa2">SCHEMA (Structure)</text>
      <text x="10" y="30" font-size="8" fill="#424242">STUDENT(Roll_No, Name, Age, Branch)</text>
    </g>
    <path d="M350 930 L380 930" stroke="#7b1fa2" stroke-width="2" marker-end="url(#arrowBlue)"/>
    <!-- Instance box -->
    <g transform="translate(390, 910)">
      <rect x="0" y="0" width="280" height="40" rx="4" fill="white" stroke="#9c27b0"/>
      <text x="140" y="15" text-anchor="middle" font-size="9" font-weight="bold" fill="#7b1fa2">INSTANCE (Data)</text>
      <text x="10" y="30" font-size="8" fill="#424242">{001, Alice, 20, CSE}, {002, Bob, 21, ECE}</text>
    </g>
  </g>

  <!-- Step 10: Domains -->
  <g class="step" id="step10" data-narration="Domains define allowable values for attributes. They specify data types, ranges, and formats ensuring data consistency and integrity.">
    <rect x="50" y="970" width="700" height="80" rx="8" fill="url(#blueGrad)" filter="url(#shadow)"/>
    <text x="70" y="990" font-size="12" font-weight="bold" fill="#1565c0">Domains</text>
    <text x="70" y="1010" font-size="10" fill="#424242">Set of allowable values for an attribute</text>
    <!-- Domain examples -->
    <g transform="translate(60, 1020)">
      <rect x="0" y="0" width="130" height="25" rx="4" fill="white" stroke="#1976d2"/>
      <text x="65" y="16" text-anchor="middle" font-size="8" fill="#1565c0">Age: INTEGER (15-100)</text>
    </g>
    <g transform="translate(200, 1020)">
      <rect x="0" y="0" width="130" height="25" rx="4" fill="white" stroke="#1976d2"/>
      <text x="65" y="16" text-anchor="middle" font-size="8" fill="#1565c0">Name: VARCHAR(50)</text>
    </g>
    <g transform="translate(340, 1020)">
      <rect x="0" y="0" width="130" height="25" rx="4" fill="white" stroke="#1976d2"/>
      <text x="65" y="16" text-anchor="middle" font-size="8" fill="#1565c0">DOB: DATE</text>
    </g>
    <g transform="translate(480, 1020)">
      <rect x="0" y="0" width="130" height="25" rx="4" fill="white" stroke="#1976d2"/>
      <text x="65" y="16" text-anchor="middle" font-size="8" fill="#1565c20">Phone: VARCHAR(10)</text>
    </g>
  </g>

  <!-- Step 11: Integrity Constraints Overview -->
  <g class="step" id="step11" data-narration="Integrity constraints ensure database accuracy: domain constraints, key constraints, entity integrity, and referential integrity must be maintained.">
    <rect x="50" y="1060" width="700" height="90" rx="8" fill="url(#greenGrad)" filter="url(#shadow)"/>
    <text x="70" y="1080" font-size="12" font-weight="bold" fill="#2e7d32">Integrity Constraints</text>
    <!-- Four constraints -->
    <g transform="translate(60, 1095)">
      <rect x="0" y="0" width="160" height="45" rx="4" fill="white" stroke="#388e3c"/>
      <text x="80" y="14" text-anchor="middle" font-size="8" font-weight="bold" fill="#2e7d32">Domain</text>
      <text x="80" y="26" text-anchor="middle" font-size="7" fill="#424242">Values from defined</text>
      <text x="80" y="38" text-anchor="middle" font-size="7" fill="#757575">domain/range</text>
    </g>
    <g transform="translate(230, 1095)">
      <rect x="0" y="0" width="160" height="45" rx="4" fill="white" stroke="#ff9800"/>
      <text x="80" y="14" text-anchor="middle" font-size="8" font-weight="bold" fill="#e65100">Key</text>
      <text x="80" y="26" text-anchor="middle" font-size="7" fill="#424242">Unique primary key</text>
      <text x="80" y="38" text-anchor="middle" font-size="7" fill="#757575">required per relation</text>
    </g>
    <g transform="translate(400, 1095)">
      <rect x="0" y="0" width="160" height="45" rx="4" fill="white" stroke="#f44336"/>
      <text x="80" y="14" text-anchor="middle" font-size="8" font-weight="bold" fill="#c62828">Entity Integrity</text>
      <text x="80" y="26" text-anchor="middle" font-size="7" fill="#424242">Primary key cannot</text>
      <text x="80" y="38" text-anchor="middle" font-size="7" fill="#757575">be NULL</text>
    </g>
    <g transform="translate(570, 1095)">
      <rect x="0" y="0" width="160" height="45" rx="4" fill="white" stroke="#9c27b0"/>
      <text x="80" y="14" text-anchor="middle" font-size="8" font-weight="bold" fill="#7b1fa2">Referential</text>
      <text x="80" y="26" text-anchor="middle" font-size="7" fill="#424242">FK matches PK or</text>
      <text x="80" y="38" text-anchor="middle" font-size="7" fill="#757575">NULL</text>
    </g>
  </g>

  <!-- Step 12: Entity vs Referential Integrity -->
  <g class="step" id="step12" data-narration="Entity integrity ensures primary keys uniquely identify records and cannot be NULL. Referential integrity maintains valid foreign key references.">
    <rect x="50" y="1160" width="700" height="85" rx="8" fill="url(#orangeGrad)" filter="url(#shadow)"/>
    <text x="70" y="1180" font-size="12" font-weight="bold" fill="#e65100">Entity vs Referential Integrity</text>
    <!-- Comparison -->
    <g transform="translate(60, 1200)">
      <rect x="0" y="0" width="300" height="35" rx="4" fill="#ffcdd2" stroke="#f44336"/>
      <text x="150" y="14" text-anchor="middle" font-size="8" font-weight="bold" fill="#c62828">Entity Integrity</text>
      <text x="150" y="26" text-anchor="middle" font-size="7" fill="#424242">Primary Key ≠ NULL | Must be unique</text>
    </g>
    <g transform="translate(380, 1200)">
      <rect x="0" y="0" width="300" height="35" rx="4" fill="#e1bee7" stroke="#9c27b0"/>
      <text x="150" y="14" text-anchor="middle" font-size="8" font-weight="bold" fill="#7b1fa2">Referential Integrity</text>
      <text x="150" y="26" text-anchor="middle" font-size="7" fill="#424242">FK → PK reference must exist or be NULL</text>
    </g>
  </g>

  <!-- Step 13: Example - Identifying Keys -->
  <g class="step" id="step13" data-narration="For STUDENT(Roll_No, Name, Age, Branch, Email), Roll_No and Email are candidate keys; Roll_No becomes the primary key.">
    <rect x="50" y="1255" width="700" height="95" rx="8" fill="url(#blueGrad)" filter="url(#shadow)"/>
    <text x="70" y="1275" font-size="12" font-weight="bold" fill="#1565c0">Example: Identifying Keys</text>
    <text x="70" y="1295" font-size="10" fill="#424242">STUDENT(Roll_No, Name, Age, Branch, Email, Phone)</text>
    <!-- Analysis -->
    <g transform="translate(60, 1305)">
      <rect x="0" y="0" width="180" height="35" rx="4" fill="#c8e6c9" stroke="#388e3c"/>
      <text x="90" y="15" text-anchor="middle" font-size="8" font-weight="bold" fill="#2e7d32">Superkeys</text>
      <text x="90" y="27" text-anchor="middle" font-size="7" fill="#424242">{Roll_No}, {Email}, {Roll_No,Name}, ...</text>
    </g>
    <g transform="translate(250, 1305)">
      <rect x="0" y="0" width="180" height="35" rx="4" fill="#ffe0b2" stroke="#ff9800"/>
      <text x="90" y="15" text-anchor="middle" font-size="8" font-weight="bold" fill="#e65100">Candidate Keys</text>
      <text x="90" y="27" text-anchor="middle" font-size="7" fill="#424242">{Roll_No}, {Email} (minimal)</text>
    </g>
    <g transform="translate(440, 1305)">
      <rect x="0" y="0" width="180" height="35" rx="4" fill="#bbdefb" stroke="#1976d2"/>
      <text x="90" y="15" text-anchor="middle" font-size="8" font-weight="bold" fill="#1565c0">Primary Key</text>
      <text x="90" y="27" text-anchor="middle" font-size="7" fill="#424242">Roll_No (selected)</text>
    </g>
    <g transform="translate(630, 1305)">
      <rect x="0" y="0" width="100" height="35" rx="4" fill="white" stroke="#9c27b0"/>
      <text x="50" y="15" text-anchor="middle" font-size="7" font-weight="bold" fill="#7b1fa2">Unique Key</text>
      <text x="50" y="27" text-anchor="middle" font-size="7" fill="#424242">Email (allows NULL)</text>
    </g>
  </g>

  <!-- Step 14: Example - ER to Relational Schema -->
  <g class="step" id="step14" data-narration="For M:N relationship Sells between STORES and PRODUCTS with Quantity, create three tables: STORE, PRODUCT, and SELLS with composite key.">
    <rect x="50" y="1360" width="700" height="95" rx="8" fill="url(#purpleGrad)" filter="url(#shadow)"/>
    <text x="70" y="1380" font-size="12" font-weight="bold" fill="#7b1fa2">Example: ER to Relational Schema</text>
    <text x="70" y="1400" font-size="9" fill="#424242">M:N relationship "Sells" with Quantity attribute</text>
    <!-- Three tables -->
    <g transform="translate(60, 1410)">
      <rect x="0" y="0" width="180" height="35" rx="4" fill="#e8f5e9" stroke="#388e3c"/>
      <text x="90" y="14" text-anchor="middle" font-size="8" font-weight="bold" fill="#2e7d32">STORE</text>
      <text x="90" y="26" text-anchor="middle" font-size="7" fill="#424242">(Store_ID, Name, Location)</text>
    </g>
    <g transform="translate(250, 1410)">
      <rect x="0" y="0" width="180" height="35" rx="4" fill="#e3f2fd" stroke="#1976d2"/>
      <text x="90" y="14" text-anchor="middle" font-size="8" font-weight="bold" fill="#1565c0">PRODUCT</text>
      <text x="90" y="26" text-anchor="middle" font-size="7" fill="#424242">(Product_ID, Name, Price)</text>
    </g>
    <g transform="translate(440, 1410)">
      <rect x="0" y="0" width="180" height="35" rx="4" fill="#fff3e0" stroke="#ff9800"/>
      <text x="90" y="14" text-anchor="middle" font-size="8" font-weight="bold" fill="#e65100">SELLS</text>
      <text x="90" y="26" text-anchor="middle" font-size="7" fill="#424242">(Store_ID, Product_ID, Qty)</text>
    </g>
    <text x="630" y="1425" font-size="7" fill="#7b1fa2">Composite PK:</text>
    <text x="630" y="1440" font-size="7" fill="#7b1fa2">{Store_ID, Product_ID}</text>
  </g>

  <!-- Step 15: Summary -->
  <g class="step" id="step15" data-narration="Remember: Keys follow Superkey → Candidate Key → Primary Key hierarchy. Entity integrity = PK not NULL. Foreign keys maintain relationships.">
    <rect x="50" y="1465" width="700" height="110" rx="10" fill="url(#titleGrad)" filter="url(#shadow)"/>
    <text x="400" y="1490" text-anchor="middle" font-size="14" font-weight="bold" fill="white">Key Takeaways</text>
    <!-- Summary points -->
    <g transform="translate(70, 1505)">
      <circle cx="8" cy="8" r="6" fill="#c8e6c9"/>
      <text x="22" y="12" font-size="9" fill="white">Entities → Rows | Attributes → Columns</text>
    </g>
    <g transform="translate(70, 1525)">
      <circle cx="8" cy="8" r="6" fill="#c8e6c9"/>
      <text x="22" y="12" font-size="9" fill="white">PK must be UNIQUE + NOT NULL</text>
    </g>
    <g transform="translate(70" y="1545)">
      <circle cx="8" cy="8" r="6" fill="#c8e6c9"/>
      <text x="22" y="12" font-size="9" fill="white">M:N needs separate relation</text>
    </g>
    <g transform="translate(350, 1505)">
      <circle cx="8" cy="8" r="6" fill="#bbdefb"/>
      <text x="22" y="12" font-size="9" fill="white">Superkey ⊇ Candidate ⊇ Primary</text>
    </g>
    <g transform="translate(350, 1525)">
      <circle cx="8" cy="8" r="6" fill="#bbdefb"/>
      <text x="22" y="12" font-size="9" fill="white">FK → references PK, allows NULL</text>
    </g>
    <g transform="translate(350, 1545)">
      <circle cx="8" cy="8" r="6" fill="#bbdefb"/>
      <text x="22" y="12" font-size="9" fill="white">Referential: FK must match PK</text>
    </g>
  </g>
</svg>