<svg xmlns="http://www.w3.org/2000/svg" viewBox="0 0 800 1500" font-family="Segoe UI, Arial, sans-serif">
  <defs>
    <linearGradient id="bgGrad" x1="0%" y1="0%" x2="100%" y2="100%">
      <stop offset="0%" style="stop-color:#f8f9fa"/>
      <stop offset="100%" style="stop-color:#e9ecef"/>
    </linearGradient>
    <linearGradient id="blueGrad" x1="0%" y1="0%" x2="100%" y2="100%">
      <stop offset="0%" style="stop-color:#e3f2fd"/>
      <stop offset="100%" style="stop-color:#bbdefb"/>
    </linearGradient>
    <linearGradient id="greenGrad" x1="0%" y1="0%" x2="100%" y2="100%">
      <stop offset="0%" style="stop-color:#e8f5e9"/>
      <stop offset="100%" style="stop-color:#c8e6c9"/>
    </linearGradient>
    <linearGradient id="orangeGrad" x1="0%" y1="0%" x2="100%" y2="100%">
      <stop offset="0%" style="stop-color:#fff3e0"/>
      <stop offset="100%" style="stop-color:#ffe0b2"/>
    </linearGradient>
    <linearGradient id="purpleGrad" x1="0%" y1="0%" x2="100%" y2="100%">
      <stop offset="0%" style="stop-color:#f3e5f5"/>
      <stop offset="100%" style="stop-color:#e1bee7"/>
    </linearGradient>
    <filter id="shadow" x="-20%" y="-20%" width="140%" height="140%">
      <feDropShadow dx="2" dy="3" stdDeviation="4" flood-opacity="0.15"/>
    </filter>
    <marker id="arrowBlue" markerWidth="10" markerHeight="10" refX="9" refY="3" orient="auto">
      <path d="M0,0 L0,6 L9,3 z" fill="#1976d2"/>
    </marker>
    <marker id="arrowGreen" markerWidth="10" markerHeight="10" refX="9" refY="3" orient="auto">
      <path d="M0,0 L0,6 L9,3 z" fill="#388e3c"/>
    </marker>
  </defs>
  
  <style>
    @keyframes fadeInSlide {
      from { opacity: 0; transform: translateY(20px); }
      to { opacity: 1; transform: translateY(0); }
    }
    @keyframes scaleIn {
      from { opacity: 0; transform: scale(0.85); }
      to { opacity: 1; transform: scale(1); }
    }
    @keyframes textReveal {
      from { opacity: 0; transform: translateX(-10px); }
      to { opacity: 1; transform: translateX(0); }
    }
    @keyframes pulse {
      0%, 100% { transform: scale(1); }
      50% { transform: scale(1.03); }
    }
    .step { animation: fadeInSlide 0.6s ease-out; }
    .step > rect:first-child { animation: scaleIn 0.5s cubic-bezier(0.34, 1.56, 0.64, 1); transform-origin: center; }
    .step text { animation: textReveal 0.4s ease-out 0.2s backwards; }
    .highlight { animation: pulse 2s ease-in-out infinite; transform-origin: center; }
  </style>
  
  <!-- Background - Outside all step groups -->
  <rect x="0" y="0" width="800" height="1500" fill="#f8f9fa"/>
  
  <!-- Header Bar -->
  <rect x="0" y="0" width="800" height="55" fill="#1976d2"/>
  <text x="25" y="35" fill="white" font-size="20" font-weight="bold">Validating Requirements</text>
  <text x="700" y="35" fill="white" font-size="12" opacity="0.9">Software Engineering</text>

  <!-- STEP 0: Title Card -->
  <g class="step" id="step0" data-narration="Requirements validation ensures documented requirements accurately represent stakeholder needs for development.">
    <rect x="100" y="70" width="600" height="90" rx="12" fill="url(#blueGrad)" filter="url(#shadow)"/>
    <text x="400" y="105" text-anchor="middle" fill="#1565c0" font-size="28" font-weight="bold">Validating Requirements</text>
    <text x="400" y="135" text-anchor="middle" fill="#1976d2" font-size="14">Ensuring the RIGHT requirements for the RIGHT product</text>
    <path d="M300,160 L500,160" stroke="#1976d2" stroke-width="2" stroke-dasharray="5,5">
      <animate attributeName="stroke-dashoffset" from="200" to="0" dur="1s" fill="freeze"/>
    </path>
  </g>

  <!-- STEP 1: What is Requirements Validation -->
  <g class="step" id="step1" data-narration="Requirements validation confirms that documented requirements truly reflect stakeholder needs before development begins.">
    <rect x="50" y="175" width="700" height="95" rx="10" fill="white" filter="url(#shadow)"/>
    <rect x="50" y="175" width="8" height="95" rx="4" fill="#1976d2"/>
    <text x="75" y="200" fill="#333" font-size="14" font-weight="bold">What is Requirements Validation?</text>
    <text x="75" y="222" fill="#555" font-size="11">The process of ensuring documented requirements accurately</text>
    <text x="75" y="238" fill="#555" font-size="11">represent stakeholder needs and are suitable for development.</text>
    <text x="520" y="210" fill="#1976d2" font-size="10" font-weight="bold">KEY DEFINITION</text>
    <rect x="510" y="225" width="220" height="35" rx="6" fill="#e3f2fd"/>
    <text x="520" y="245" fill="#1565c0" font-size="10">Validation ≠ Verification</text>
  </g>

  <!-- STEP 2: Why It Matters - Cost Factor -->
  <g class="step" id="step2" data-narration="Fixing defects during requirements validation costs 10-100 times less than fixing them during implementation or testing.">
    <rect x="50" y="285" width="700" height="95" rx="10" fill="url(#orangeGrad)" filter="url(#shadow)"/>
    <text x="75" y="310" fill="#e65100" font-size="14" font-weight="bold">Why Does It Matter?</text>
    <text x="75" y="330" fill="#333" font-size="11">Defects found during requirements validation cost</text>
    <text x="75" y="345" fill="#333" font-size="11"><tspan fill="#d84315" font-weight="bold">10-100x LESS</tspan> to fix than those found in implementation/testing</text>
    
    <!-- Cost Timeline Visualization -->
    <rect x="350" y="305" width="380" height="65" rx="8" fill="white"/>
    <rect x="360" y="315" width="60" height="45" rx="4" fill="#4caf50">
      <text x="390" y="340" text-anchor="middle" fill="white" font-size="10" font-weight="bold">$1</text>
      <text x="390" y="352" text-anchor="middle" fill="white" font-size="8">Requirements</text>
    </rect>
    <path d="M425,340 L485,340" stroke="#666" stroke-width="1" marker-end="url(#arrowGreen)"/>
    <rect x="490" y="315" width="60" height="45" rx="4" fill="#ff9800">
      <text x="520" y="340" text-anchor="middle" fill="white" font-size="10" font-weight="bold">$10</text>
      <text x="520" y="352" text-anchor="middle" fill="white" font-size="8">Design</text>
    </rect>
    <path d="M555,340 L615,340" stroke="#666" stroke-width="1" marker-end="url(#arrowGreen)"/>
    <rect x="620" y="315" width="60" height="45" rx="4" fill="#f44336">
      <text x="650" y="340" text-anchor="middle" fill="white" font-size="10" font-weight="bold">$100</text>
      <text x="650" y="352" text-anchor="middle" fill="white" font-size="8">Testing</text>
    </rect>
    <path d="M685,340 L710" stroke="#666" stroke-width="1"/>
  </g>

  <!-- STEP 3: Validation vs Verification -->
  <g class="step" id="step3" data-narration="Verification checks if we're building the product right, while validation checks if we're building the right product.">
    <rect x="50" y="395" width="700" height="110" rx="10" fill="white" filter="url(#shadow)"/>
    <rect x="50" y="395" width="8" height="110" rx="4" fill="#388e3c"/>
    <text x="75" y="420" fill="#2e7d32" font-size="14" font-weight="bold">Validation vs Verification - The Key Distinction</text>
    
    <!-- Two Column Comparison -->
    <rect x="80" y="435" width="280" height="60" rx="8" fill="#e8f5e9"/>
    <text x="220" y="455" text-anchor="middle" fill="#2e7d32" font-size="12" font-weight="bold">VERIFICATION</text>
    <text x="220" y="472" text-anchor="middle" fill="#388e3c" font-size="10">"Building the product RIGHT"</text>
    <text x="220" y="486" text-anchor="middle" fill="#666" font-size="9">Checking correct documentation</text>
    
    <rect x="380" y="435" width="280" height="60" rx="8" fill="#e3f2fd"/>
    <text x="520" y="455" text-anchor="middle" fill="#1565c0" font-size="12" font-weight="bold">VALIDATION</text>
    <text x="520" y="472" text-anchor="middle" fill="#1976d2" font-size="10">"Building the RIGHT product"</text>
    <text x="520" y="486" text-anchor="middle" fill="#666" font-size="9">Checking correct requirements</text>
    
    <!-- Arrow between -->
    <path d="M365,465 L385,465" stroke="#1976d2" stroke-width="2" marker-end="url(#arrowBlue)"/>
    
    <!-- Example Box -->
    <rect x="80" y="505" width="580" height="20" rx="4" fill="#fff3e0"/>
    <text x="90" y="519" fill="#e65100" font-size="9">Example: ATM - Verify PIN check works | Validate: Customer needs cash withdrawal in less than 10 seconds</text>
  </g>

  <!-- STEP 4: Objectives of Requirements Validation -->
  <g class="step" id="step4" data-narration="The four main objectives are completeness, consistency, feasibility, and testability of requirements.">
    <rect x="50" y="520" width="700" height="115" rx="10" fill="url(#purpleGrad)" filter="url(#shadow)"/>
    <text x="75" y="545" fill="#6a1b9a" font-size="14" font-weight="bold">Objectives of Requirements Validation</text>
    
    <!-- 4 Objective Cards -->
    <g transform="translate(85, 560)">
      <rect width="145" height="65" rx="6" fill="white"/>
      <text x="72" y="20" text-anchor="middle" fill="#1976d2" font-size="11" font-weight="bold">Completeness</text>
      <text x="72" y="38" text-anchor="middle" fill="#666" font-size="9">All user needs captured</text>
      <text x="72" y="52" text-anchor="middle" fill="#999" font-size="8">No missing scenarios</text>
    </g>
    <g transform="translate(240, 560)">
      <rect width="145" height="65" rx="6" fill="white"/>
      <text x="72" y="20" text-anchor="middle" fill="#388e3c" font-size="11" font-weight="bold">Consistency</text>
      <text x="72" y="38" text-anchor="middle" fill="#666" font-size="9">No contradictory</text>
      <text x="72" y="52" text-anchor="middle" fill="#999" font-size="8">requirements</text>
    </g>
    <g transform="translate(395, 560)">
      <rect width="145" height="65" rx="6" fill="white"/>
      <text x="72" y="20" text-anchor="middle" fill="#ff9800" font-size="11" font-weight="bold">Feasibility</text>
      <text x="72" y="38" text-anchor="middle" fill="#666" font-size="9">Can implement with</text>
      <text x="72" y="52" text-anchor="middle" fill="#999" font-size="8">available technology</text>
    </g>
    <g transform="translate(550, 560)">
      <rect width="145" height="65" rx="6" fill="white"/>
      <text x="72" y="20" text-anchor="middle" fill="#9c27b0" font-size="11" font-weight="bold">Testability</text>
      <text x="72" y="38" text-anchor="middle" fill="#666" font-size="9">Verifiable through</text>
      <text x="72" y="52" text-anchor="middle" fill="#999" font-size="8">measurable criteria</text>
    </g>
  </g>

  <!-- STEP 5: Validation Technique #1 - Reviews -->
  <g class="step" id="step5" data-narration="Requirements review is a systematic examination by a team including analysts, developers, testers, and sometimes customers.">
    <rect x="50" y="650" width="700" height="115" rx="10" fill="white" filter="url(#shadow)"/>
    <rect x="50" y="650" width="8" height="115" rx="4" fill="#4caf50"/>
    <text x="75" y="675" fill="#2e7d32" font-size="14" font-weight="bold">Technique #1: Requirements Review</text>
    <text x="75" y="695" fill="#555" font-size="11">Systematic examination of requirements by a team of reviewers</text>
    <text x="75" y="712" fill="#777" font-size="10">including analysts, developers, testers, and sometimes customers.</text>
    
    <!-- Two Types -->
    <rect x="80" y="725" width="200" height="30" rx="6" fill="#e8f5e9"/>
    <text x="180" y="745" text-anchor="middle" fill="#2e7d32" font-size="11" font-weight="bold">Informal Walkthrough</text>
    <rect x="295" y="725" width="200" height="30" rx="6" fill="#e3f2fd"/>
    <text x="395" y="745" text-anchor="middle" fill="#1565c0" font-size="11" font-weight="bold">Formal Inspection</text>
    <text x="510" y="745" fill="#666" font-size="10">(IEEE 1028 Standard)</text>
    
    <!-- Review Process Flow -->
    <path d="M80,765 L150,765 L150,780 L220,780" stroke="#1976d2" stroke-width="2" fill="none" marker-end="url(#arrowBlue)"/>
    <rect x="80" y="785" width="60" height="20" rx="4" fill="#fff3e0"/>
    <text x="110" y="798" text-anchor="middle" fill="#e65100" font-size="8">Prepare</text>
    <rect x="150" y="785" width="60" height="20" rx="4" fill="#fff3e0"/>
    <text x="180" y="798" text-anchor="middle" fill="#e65100" font-size="8">Review</text>
    <rect x="220" y="785" width="60" height="20" rx="4" fill="#fff3e0"/>
    <text x="250" y="798" text-anchor="middle" fill="#e65100" font-size="8">Report</text>
    <rect x="290" y="785" width="60" height="20" rx="4" fill="#fff3e0"/>
    <text x="320" y="798" text-anchor="middle" fill="#e65100" font-size="8">Rework</text>
    <rect x="360" y="785" width="60" height="20" rx="4" fill="#fff3e0"/>
    <text x="390" y="798" text-anchor="middle" fill="#e65100" font-size="8">Follow-up</text>
  </g>

  <!-- STEP 6: Validation Technique #2 - Prototyping -->
  <g class="step" id="step6" data-narration="Prototyping builds working models to validate stakeholder expectations against documented requirements effectively.">
    <rect x="50" y="780" width="700" height="130" rx="10" fill="url(#blueGrad)" filter="url(#shadow)"/>
    <text x="75" y="805" fill="#1565c0" font-size="14" font-weight="bold">Technique #2: Prototyping</text>
    <text x="75" y="825" fill="#333" font-size="11">Building prototypes helps validate stakeholder expectations match documented requirements.</text>
    
    <!-- Two Types Side by Side -->
    <rect x="80" y="840" width="280" height="60" rx="8" fill="white"/>
    <text x="220" y="860" text-anchor="middle" fill="#d84315" font-size="12" font-weight="bold">Throwaway Prototyping</text>
    <text x="220" y="878" text-anchor="middle" fill="#666" font-size="10">Quick UI models for validation</text>
    <text x="220" y="893" text-anchor="middle" fill="#999" font-size="9">Then DISCARDED</text>
    
    <rect x="380" y="840" width="280" height="60" rx="8" fill="white"/>
    <text x="520" y="860" text-anchor="middle" fill="#2e7d32" font-size="12" font-weight="bold">Evolutionary Prototyping</text>
    <text x="520" y="878" text-anchor="middle" fill="#666" font-size="10">Prototype evolves into</text>
    <text x="520" y="893" text-anchor="middle" fill="#999" font-size="9">Final SYSTEM</text>
    
    <!-- Use Case -->
    <rect x="80" y="910" width="580" height="25" rx="4" fill="#fff3e0"/>
    <text x="90" y="927" fill="#e65100" font-size="10">Best for: UI requirements validation, discovering hidden user needs</text>
  </g>

  <!-- STEP 7: Validation Technique #3 - Test Case Generation -->
  <g class="step" id="step7" data-narration="Creating test cases from requirements reveals ambiguities and missing information, validating requirements thoroughly.">
    <rect x="50" y="925" width="700" height="130" rx="10" fill="white" filter="url(#shadow)"/>
    <rect x="50" y="925" width="8" height="130" rx="4" fill="#ff9800"/>
    <text x="75" y="950" fill="#e65100" font-size="14" font-weight="bold">Technique #3: Test Case Generation</text>
    <text x="75" y="970" fill="#555" font-size="11">Creating test cases from requirements helps identify ambiguities and missing information.</text>
    <text x="75" y="987" fill="#777" font-size="10">Requirements that can generate test cases are considered well-validated.</text>
    
    <!-- Example: Shopping Cart -->
    <rect x="80" y="1000" width="280" height="45" rx="6" fill="#fff3e0"/>
    <text x="90" y="1016" fill="#333" font-size="10" font-weight="bold">E-Commerce Example:</text>
    <text x="90" y="1032" fill="#666" font-size="9">Cart shows item prices</text>
    <text x="340" y="1016" fill="#4caf50" font-size="9">Test 1: Add item 25.99</text>
    <text x="340" y="1030" fill="#4caf50" font-size="9">Test 2: 3 qty times 10 equals 30</text>
    <text x="520" y="1016" fill="#f44336" font-size="9">Test 3: 20 percent discount - Missing</text>
    <text x="520" y="1030" fill="#666" font-size="9">Reveals gap in requirements</text>
  </g>

  <!-- STEP 8: Validation Technique #4 - Formal Methods -->
  <g class="step" id="step8" data-narration="Formal methods use mathematical specifications for rigorous analysis in safety-critical systems requiring highest validation certainty.">
    <rect x="50" y="1070" width="700" height="115" rx="10" fill="url(#purpleGrad)" filter="url(#shadow)"/>
    <text x="75" y="1095" fill="#6a1b9a" font-size="14" font-weight="bold">Technique #4: Formal Methods</text>
    <text x="75" y="1115" fill="#333" font-size="11">Mathematical specification languages (Z, VDM, Petri Nets) for rigorous analysis.</text>
    <text x="75" y="1132" fill="#777" font-size="10">Used for safety-critical systems where highest validation certainty is required.</text>
    
    <!-- Medical Device Example -->
    <rect x="80" y="1145" width="660" height="30" rx="6" fill="white"/>
    <text x="90" y="1160" fill="#333" font-size="10" font-weight="bold">Example - Insulin Pump:</text>
    <text x="260" y="1160" fill="#666" font-size="10">Delivery rate between 0-35 units per hour</text>
    <text x="260" y="1173" fill="#999" font-size="9">Invariant: 0 is less than or equal to delivery rate is less than or equal to 35</text>
    
    <!-- Note -->
    <rect x="550" y="1145" width="180" height="30" rx="6" fill="#f3e5f5"/>
    <text x="560" y="1160" fill="#6a1b9a" font-size="9" font-weight="bold">Highest certainty</text>
    <text x="560" y="1173" fill="#7b1fa2" font-size="8">Requires math expertise</text>
  </g>

  <!-- STEP 9: Validation Checklist -->
  <g class="step" id="step9" data-narration="The requirements validation checklist includes completeness, consistency, feasibility, testability, clarity, traceability, and prioritization.">
    <rect x="50" y="1200" width="700" height="95" rx="10" fill="white" filter="url(#shadow)"/>
    <rect x="50" y="1200" width="8" height="95" rx="4" fill="#9c27b0"/>
    <text x="75" y="1225" fill="#6a1b9a" font-size="14" font-weight="bold">Requirements Validation Checklist</text>
    
    <!-- 7 Checklist Items -->
    <g transform="translate(75, 1245)">
      <rect width="135" height="22" rx="4" fill="#e3f2fd"/>
      <text x="10" y="15" fill="#1976d2" font-size="9">1. Completeness</text>
      <rect x="145" width="135" height="22" rx="4" fill="#e8f5e9"/>
      <text x="155" y="15" fill="#388e3c" font-size="9">2. Consistency</text>
      <rect x="290" width="135" height="22" rx="4" fill="#fff3e0"/>
      <text x="300" y="15" fill="#ff9800" font-size="9">3. Feasibility</text>
      <rect x="435" width="135" height="22" rx="4" fill="#f3e5f5"/>
      <text x="445" y="15" fill="#9c27b0" font-size="9">4. Testability</text>
      <rect x="580" width="135" height="22" rx="4" fill="#ffebee"/>
      <text x="590" y="15" fill="#f44336" font-size="9">5. Clarity</text>
    </g>
    <g transform="translate(180, 1270)">
      <rect width="135" height="22" rx="4" fill="#e0f7fa"/>
      <text x="10" y="15" fill="#00838f" font-size="9">6. Traceability</text>
      <rect x="145" width="135" height="22" rx="4" fill="#fce4ec"/>
      <text x="155" y="15" fill="#c2185b" font-size="9">7. Prioritization</text>
    </g>
  </g>

  <!-- STEP 10: Real World Example - ATM -->
  <g class="step" id="step10" data-narration="This ATM example shows how validation checks completeness, feasibility, testability, and clarity of requirements.">
    <rect x="50" y="1310" width="700" height="95" rx="10" fill="url(#greenGrad)" filter="url(#shadow)"/>
    <text x="75" y="1335" fill="#2e7d32" font-size="14" font-weight="bold">Example: ATM Cash Dispensing</text>
    <text x="75" y="1355" fill="#333" font-size="11">Original: ATM shall dispense cash within 10 seconds of PIN verification</text>
    
    <!-- Validation Process Steps -->
    <rect x="80" y="1365" width="130" height="30" rx="4" fill="white"/>
    <text x="145" y="1382" text-anchor="middle" fill="#1976d2" font-size="8">Completeness</text>
    <text x="145" y="1392" text-anchor="middle" fill="#999" font-size="7">All scenarios?</text>
    
    <rect x="220" y="1365" width="130" height="30" rx="4" fill="white"/>
    <text x="285" y="1382" text-anchor="middle" fill="#388e3c" font-size="8">Feasibility</text>
    <text x="285" y="1392" text-anchor="middle" fill="#999" font-size="7">Hardware capable?</text>
    
    <rect x="360" y="1365" width="130" height="30" rx="4" fill="white"/>
    <text x="425" y="1382" text-anchor="middle" fill="#ff9800" font-size="8">Testability</text>
    <text x="425" y="1392" text-anchor="middle" fill="#999" font-size="7">Measure less than or equal 10s</text>
    
    <rect x="500" y="1365" width="130" height="30" rx="4" fill="white"/>
    <text x="565" y="1382" text-anchor="middle" fill="#9c27b0" font-size="8">Clarity</text>
    <text x="565" y="1392" text-anchor="middle" fill="#999" font-size="7">Dispensing</text>
    
    <!-- Revised -->
    <rect x="640" y="1365" width="90" height="30" rx="4" fill="#c8e6c9"/>
    <text x="685" y="1378" text-anchor="middle" fill="#2e7d32" font-size="7">REVISED</text>
    <text x="685" y="1388" text-anchor="middle" fill="#388e3c" font-size="6">See below</text>
  </g>

  <!-- STEP 11: Summary Takeaways -->
  <g class="step" id="step11" data-narration="Key takeaways: validation differs from verification, uses four main techniques, follows a seven-point checklist, and saves 10-100x in defect costs.">
    <rect x="50" y="1420" width="700" height="65" rx="10" fill="url(#blueGrad)" filter="url(#shadow)"/>
    <text x="75" y="1445" fill="#1565c0" font-size="14" font-weight="bold">Key Takeaways</text>
    
    <rect x="75" y="1458" width="150" height="20" rx="4" fill="#e8f5e9"/>
    <text x="150" y="1472" text-anchor="middle" fill="#2e7d32" font-size="9">Validation is not Verification</text>
    
    <rect x="235" y="1458" width="120" height="20" rx="4" fill="#e3f2fd"/>
    <text x="295" y="1472" text-anchor="middle" fill="#1565c0" font-size="9">4 Main Techniques</text>
    
    <rect x="365" y="1458" width="150" height="20" rx="4" fill="#fff3e0"/>
    <text x="440" y="1472" text-anchor="middle" fill="#e65100" font-size="9">7-Point Checklist</text>
    
    <rect x="525" y="1458" width="120" height="20" rx="4" fill="#f3e5f5"/>
    <text x="585" y="1472" text-anchor="middle" fill="#6a1b9a" font-size="9">Test-Driven</text>
    
    <rect x="655" y="1458" width="75" height="20" rx="4" fill="#ffebee"/>
    <text x="692" y="1472" text-anchor="middle" fill="#c62828" font-size="8">10-100x</text>
  </g>

  <!-- Description for accessibility -->
  <desc>Validating Requirements - Step-by-step educational content covering introduction, validation techniques, and key takeaways for software engineering students.</desc>
</svg>