<svg width="420" height="400" data-topic-id="distributed-systems-chapter-121"
     xmlns="http://www.w3.org/2000/svg"
     xmlns:xlink="http://www.w3.org/1999/xlink"
     style="background-image: linear-gradient(to bottom, #80B3FF, #00BFFF);">

    <title>Textbook Chapter 121: Distributed File Systems</title>

    <_LINEARGradient id="grad1" x1="0%" y1="0%" x2="100%" y2="0%">
        <STOP offset="0%" stop-color="#C7E8F8"/>
        <STOP offset="100%" stop-color="#00BFFF"/>
    </LINEradient>

    <rect x="0" y="0" width="100%" height="20" fill="url(#grad1)"/>
    <rect x="0" y="80" width="100%" height="20" fill="#F7F7F7"/>
    <rect x="0" y="160" width="100%" height="20" fill="#F7F7F7"/>
    <rect x="0" y="240" width="100%" height="20" fill="#F7F7F7"/>

    <g transform="translate(20, 100)">

        <path data-narration="Introduction to Distributed File Systems"
              d="M 50 50 L 70 70 L 90 90 L 110 110 L 130 130 L 150 150 L 170 170 L 190 190 L 210 210 L 230 230 L 250 250 L 270 270 L 290 290 L 310 310 L 330 330 L 350 350 L 370 370 L 390 390 L 410 410 Z"/>
        <text x="50" y="30" font-size="18" font-family="Arial" fill="#3498DB">Introduction</text>
        <animate transform="translate(50, 50)" begin="0s" duration="2s" fill="freeze"/>

        <g transform="translate(50, 170)">

            <path data-narration="File Service Architecture"
                  d="M 50 50 L 70 70 L 90 90 L 110 110 L 130 130 L 150 150 L 170 170 L 190 190 L 210 210 L 230 230 L 250 250 L 270 270 L 290 290 L 310 310 L 330 330 L 350 350 L 370 370 L 390 390 L 410 410 Z"/>
            <text x="50" y="130" font-size="18" font-family="Arial" fill="#3498DB">File Service Architecture</text>
            <animate transform="translate(50, 170)" begin="2s" duration="2s" fill="freeze"/>

            <g transform="translate(50, 310)">

                <path data-narration="Types of Distributed File Systems"
                      d="M 50 50 L 70 70 L 90 90 L 110 110 L 130 130 L 150 150 L 170 170 L 190 190 L 210 210 L 230 230 L 250 250 L 270 270 L 290 290 L 310 310 L 330 330 L 350 350 L 370 370 L 390 390 L 410 410 Z"/>
                <text x="50" y="290" font-size="18" font-family="Arial" fill="#3498DB">Types of Distributed File Systems</text>
                <animate transform="translate(50, 310)" begin="4s" duration="2s" fill="freeze"/>

                <g transform="translate(50, 350)">

                    <path data-narration="Advantages of Distributed File Systems"
                          d="M 50 50 L 70 70 L 90 90 L 110 110 L 130 130 L 150 150 L 170 170 L 190 190 L 210 210 L 230 230 L 250 250 L 270 270 L 290 290 L 310 310 L 330 330 L 350 350 L 370 370 L 390 390 L 410 410 Z"/>
                    <text x="50" y="370" font-size="18" font-family="Arial" fill="#3498DB">Advantages of Distributed File Systems</text>
                    <animate transform="translate(50, 350)" begin="6s" duration="2s" fill="freeze"/>

                    <g transform="translate(50, 400)">

                        <path data-narration="Key Components of a Distributed File System"
                              d="M 50 50 L 70 70 L 90 90 L 110 110 L 130 130 L 150 150 L 170 170 L 190 190 L 210 210 L 230 230 L 250 250 L 270 270 L 290 290 L 310 310 L 330 330 L 350 350 L 370 370 L 390 390 L 410 410 Z"/>
                        <text x="50" y="430" font-size="18" font-family="Arial" fill="#3498DB">Key Components of a Distributed File System</text>
                        <animate transform="translate(50, 400)" begin="8s" duration="2s" fill="freeze"/>

                    </g>

                </g>

            </g>

        <g transform="translate(190, 100)">

            <path data-narration="Hierarchical File Systems"
                  d="M 50 50 L 70 70 L 90 90 L 110 110 L 130 130 L 150 150 L 170 170 L 190 190 L 210 210 L 230 230 L 250 250 L 270 270 L 290 290 L 310 310 L 330 330 L 350 350 L 370 370 L 390 390 L 410 410 Z"/>
            <text x="50" y="30" font-size="18" font-family="Arial" fill="#3498DB">Hierarchical File Systems</text>
            <animate transform="translate(190, 100)" begin="0s" duration="2s" fill="freeze"/>

            <g transform="translate(190, 170)">

                <path data-narration="NetWare File Systems"
                      d="M 50 50 L 70 70 L 90 90 L 110 110 L 130 130 L 150 150 L 170 170 L 190 190 L 210 210 L 230 230 L 250 250 L 270 270 L 290 290 L 310 310 L 330 330 L 350 350 L 370 370 L 390 390 L 410 410 Z"/>
                <text x="50" y="130" font-size="18" font-family="Arial" fill="#3498DB">NetWare File Systems</text>
                <animate transform="translate(190, 170)" begin="2s" duration="2s" fill="freeze"/>

                <g transform="translate(190, 310)">

                    <path data-narration="Coda File Systems"
                          d="M 50 50 L 70 70 L 90 90 L 110 110 L 130 130 L 150 150 L 170 170 L 190 190 L 210 210 L 230 230 L 250 250 L 270 270 L 290 290 L 310 310 L 330 330 L 350 350 L 370 370 L 390 390 L 410 410 Z"/>
                    <text x="50" y="290" font-size="18" font-family="Arial" fill="#3498DB">Coda File Systems</text>
                    <animate transform="translate(190, 310)" begin="4s" duration="2s" fill="freeze"/>

                </g>

            </g>

        </g>

        <g transform="translate(410, 100)">

            <path data-narration="Client"
                  d="M 50 50 L 70 70 L 90 90 L 110 110 L 130 130 L 150 150 L 170 170 L 190 190 L 210 210 L 230 230 L 250 250 L 270 270 L 290 290 L 310 310 L 330 330 L 350 350 L 370 370 L 390 390 L 410 410 Z"/>
            <text x="50" y="30" font-size="18" font-family="Arial" fill="#3498DB">Client</text>
            <animate transform="translate(410, 100)" begin="0s" duration="2s" fill="freeze"/>

            <g transform="translate(410, 170)">

                <path data-narration="File Server"
                      d="M 50 50 L 70 70 L 90 90 L 110 110 L 130 130 L 150 150 L 170 170 L 190 190 L 210 210 L 230 230 L 250 250 L 270 270 L 290 290 L 310 310 L 330 330 L 350 350 L 370 370 L 390 390 L 410 410 Z"/>
                <text x="50" y="130" font-size="18" font-family="Arial" fill="#3498DB">File Server</text>
                <animate transform="translate(410, 170)" begin="2s" duration="2s" fill="freeze"/>

                <g transform="translate(410, 310)">

                    <path data-narration="Network"
                          d="M 50 50 L 70 70 L 90 90 L 110 110 L 130 130 L 150 150 L 170 170 L 190 190 L 210 210 L 230 230 L 250 250 L 270 270 L 290 290 L 310 310 L 330 330 L 350 350 L 370 370 L 390 390 L 410 410 Z"/>
                    <text x="50" y="290" font-size="18" font-family="Arial" fill="#3498DB">Network</text>
                    <animate transform="translate(410, 310)" begin="4s" duration="2s" fill="freeze"/>

                </g>

            </g>

        </g>

        <g transform="translate(190, 400)">

            <path data-narration="File System Manager"
                  d="M 50 50 L 70 70 L 90 90 L 110 110 L 130 130 L 150 150 L 170 170 L 190 190 L 210 210 L 230 230 L 250 250 L 270 270 L 290 290 L 310 310 L 330 330 L 350 350 L 370 370 L 390 390 L 410 410 Z"/>
            <text x="50" y="430" font-size="18" font-family="Arial" fill="#3498DB">File System Manager</text>
            <animate transform="translate(190, 400)" begin="6s" duration="2s" fill="freeze"/>

        </g>

        <g transform="translate(410, 400)">

            <path data-narration="Scalability"
                  d="M 50 50 L 70 70 L 90 90 L 110 110 L 130 130 L 150 150 L 170 170 L 190 190 L 210 210 L 230 230 L 250 250 L 270 270 L 290 290 L 310 310 L 330 330 L 350 350 L 370 370 L 390 390 L 410 410 Z"/>
            <text x="50" y="460" font-size="18" font-family="Arial" fill="#3498DB">Scalability</text>
            <animate transform="translate(410, 400)" begin="8s" duration="2s" fill="freeze"/>

        </g>

    </svg>