<svg width="420" height="400" data-topic-id="vector-calculus-optimization-technique">
  <title>8 Hours of Vector Calculus Optimization Technique Study Material</title>
  <rect x="0" y="0" width="420" height="400" fill="#87CEEB" rx="10"/>
  <g id="gradient-background">
    <linearGradient id="pastel-gradient" x1="0%" y1="0%" x2="100%" y2="0%">
      <stop offset="0%" stop-color="#CCFFCC"/>
      <stop offset="50%" stop-color="#B2FFFC"/>
      <stop offset="100%" stop-color="#C7E0FF"/>
    </linearGradient>
    <rect x="0" y="0" width="420" height="400" fill="url(#pastel-gradient)"/>
  </g>
  <g id="sections">
    <rect x="20" y="50" width="380" height="150" fill="#F7F7F7" rx="10">
      <g id="section-1">
        <text x="50" y="100" font-size="24" font-family="Arial" fill="#2F4F7F" data-narration="What is Vector Calculus?">
          What is Vector Calculus?
        </text>
        <line x1="50" y1="80" x2="50" y2="120" stroke="#2F4F7F" stroke-width="2" arrowhead="none"/>
      </g>
    </rect>
    <rect x="20" y="220" width="380" height="150" fill="#F7F7F7" rx="10">
      <g id="section-2">
        <text x="50" y="270" font-size="24" font-family="Arial" fill="#2F4F7F" data-narration="Optimization Techniques">
          Optimization Techniques
        </text>
        <line x1="50" y1="290" x2="50" y2="330" stroke="#2F4F7F" stroke-width="2" arrowhead="none"/>
        <circle cx="50" cy="150" r="40" fill="#F7F7F7" stroke="#2F4F7F" stroke-width="2"/>
      </g>
    </rect>
    <rect x="20" y="390" width="380" height="150" fill="#F7F7F7" rx="10">
      <g id="section-3">
        <text x="50" y="440" font-size="24" font-family="Arial" fill="#2F4F7F" data-narration="Gradient and Directional Derivatives">
          Gradient and Directional Derivatives
        </text>
        <line x1="50" y1="470" x2="50" y2="500" stroke="#2F4F7F" stroke-width="2" arrowhead="none"/>
        <circle cx="50" cy="220" r="40" fill="#F7F7F7" stroke="#2F4F7F" stroke-width="2"/>
      </g>
    </rect>
    <rect x="20" y="180" width="380" height="150" fill="#F7F7F7" rx="10">
      <g id="section-4">
        <text x="50" y="230" font-size="24" font-family="Arial" fill="#2F4F7F" data-narration="Lagrange Multipliers">
          Lagrange Multipliers
        </text>
        <line x1="50" y1="250" x2="50" y2="280" stroke="#2F4F7F" stroke-width="2" arrowhead="none"/>
        <circle cx="50" cy="110" r="40" fill="#F7F7F7" stroke="#2F4F7F" stroke-width="2"/>
      </g>
    </rect>
    <rect x="20" y="320" width="380" height="150" fill="#F7F7F7" rx="10">
      <g id="section-5">
        <text x="50" y="360" font-size="24" font-family="Arial" fill="#2F4F7F" data-narration="Constrained Optimization">
          Constrained Optimization
        </text>
        <line x1="50" y1="380" x2="50" y2="400" stroke="#2F4F7F" stroke-width="2" arrowhead="none"/>
        <circle cx="50" cy="240" r="40" fill="#F7F7F7" stroke="#2F4F7F" stroke-width="2"/>
      </g>
    </rect>
    <rect x="20" y="460" width="380" height="150" fill="#F7F7F7" rx="10">
      <g id="section-6">
        <text x="50" y="500" font-size="24" font-family="Arial" fill="#2F4F7F" data-narration="Examples and Applications">
          Examples and Applications
        </text>
        <line x1="50" y1="520" x2="50" y2="540" stroke="#2F4F7F" stroke-width="2" arrowhead="none"/>
        <circle cx="50" cy="310" r="40" fill="#F7F7F7" stroke="#2F4F7F" stroke-width="2"/>
      </g>
    </rect>
  </g>
  <g id="connections">
    <line x1="50" y1="50" x2="50" y2="100" stroke="#2F4F7F" stroke-width="2" arrowhead="none"/>
    <line x1="50" y1="80" x2="50" y2="120" stroke="#2F4F7F" stroke-width="2" arrowhead="none"/>
    <line x1="50" y1="100" x2="50" y2="150" stroke="#2F4F7F" stroke-width="2" arrowhead="none"/>
    <line x1="50" y1="150" x2="50" y2="180" stroke="#2F4F7F" stroke-width="2" arrowhead="none"/>
    <line x1="50" y1="230" x2="50" y2="270" stroke="#2F4F7F" stroke-width="2" arrowhead="none"/>
    <line x1="50" y1="270" x2="50" y2="300" stroke="#2F4F7F" stroke-width="2" arrowhead="none"/>
    <line x1="50" y1="360" x2="50" y2="400" stroke="#2F4F7F" stroke-width="2" arrowhead="none"/>
    <line x1="50" y1="380" x2="50" y2="400" stroke="#2F4F7F" stroke-width="2" arrowhead="none"/>
    <line x1="50" y1="500" x2="50" y2="540" stroke="#2F4F7F" stroke-width="2" arrowhead="none"/>
    <line x1="50" y1="520" x2="50" y2="540" stroke="#2F4F7F" stroke-width="2" arrowhead="none"/>
    <line x1="50" y1="100" x2="50" y2="220" stroke="#2F4F7F" stroke-width="2" arrowhead="none"/>
    <line x1="50" y1="220" x2="50" y2="320" stroke="#2F4F7F" stroke-width="2" arrowhead="none"/>
    <line x1="50" y1="320" x2="50" y2="420" stroke="#2F4F7F" stroke-width="2" arrowhead="none"/>
    <line x1="50" y1="420" x2="50" y2="520" stroke="#2F4F7F" stroke-width="2" arrowhead="none"/>
    <line x1="50" y1="150" x2="50" y2="220" stroke="#2F4F7F" stroke-width="2" arrowhead="none"/>
    <line x1="50" y1="220" x2="50" y2="300" stroke="#2F4F7F" stroke-width="2" arrowhead="none"/>
    <line x1="50" y1="300" x2="50" y2="380" stroke="#2F4F7F" stroke-width="2" arrowhead="none"/>
    <line x1="50" y1="380" x2="50" y2="460" stroke="#2F4F7F" stroke-width="2" arrowhead="none"/>
  </g>
  <g id="title">
    <text x="50" y="20" font-size="48" font-family="Arial" fill="#2F4F7F" text-anchor="middle">
      8 Hours of Vector Calculus Optimization Technique Study Material
    </text>
  </g>
  <g id="footer">
    <text x="50" y="390" font-size="24" font-family="Arial" fill="#2F4F7F" text-anchor="middle">
      Created by [Your Name]
    </text>
  </g>
</svg>