<svg width="420" height="400" data-topic-id="7-use-hive-to-create-alter-and-drop-databases-tabl">
  <rect x="0" y="0" width="420" height="400" fill="#C7B8EA" rx="10" />
  <rect x="50" y="50" width="320" height="300" fill="#ADD8E6" rx="10" />
  <line x1="20" y1="20" x2="400" y2="20" stroke="#3498DB" stroke-width="2" />
  <line x1="20" y1="20" x2="20" y2="380" stroke="#3498DB" stroke-width="2" />
  <line x1="400" y1="20" x2="400" y2="380" stroke="#3498DB" stroke-width="2" />
  
  <section data-narration="Creating Databases">
    <rect x="50" y="50" width="190" height="120" fill="#F9F9F9" rx="10" />
    <text x="60" y="60" fill="#2EPE40" font-size="16" font-family="Arial" text-anchor="middle">Create Database</text>
    <line x1="50" y1="70" x2="190" y2="70" stroke="#2EPE40" stroke-width="2" />
    <line x1="50" y1="70" x2="50" y2="150" stroke="#2EPE40" stroke-width="2" />
    <line x1="50" y1="70" x2="190" y2="150" stroke="#2EPE40" stroke-width="2" />
  </section>
  
  <section data-narration="Creating Tables">
    <rect x="50" y="200" width="190" height="120" fill="#F9F9F9" rx="10" />
    <text x="60" y="210" fill="#2EPE40" font-size="16" font-family="Arial" text-anchor="middle">Create Table</text>
    <line x1="50" y1="220" x2="190" y2="220" stroke="#2EPE40" stroke-width="2" />
    <line x1="50" y1="220" x2="50" y2="300" stroke="#2EPE40" stroke-width="2" />
    <line x1="50" y1="220" x2="190" y2="300" stroke="#2EPE40" stroke-width="2" />
  </section>
  
  <section data-narration="Altering Databases and Tables">
    <rect x="50" y="350" width="190" height="120" fill="#F9F9F9" rx="10" />
    <text x="60" y="360" fill="#2EPE40" font-size="16" font-family="Arial" text-anchor="middle">Alter Database/Table</text>
    <line x1="50" y1="370" x2="190" y2="370" stroke="#2EPE40" stroke-width="2" />
    <line x1="50" y1="370" x2="50" y2="450" stroke="#2EPE40" stroke-width="2" />
    <line x1="50" y1="370" x2="190" y2="450" stroke="#2EPE40" stroke-width="2" />
  </section>
  
  <section data-narration="Creating Views">
    <rect x="50" y="500" width="190" height="120" fill="#F9F9F9" rx="10" />
    <text x="60" y="510" fill="#2EPE40" font-size="16" font-family="Arial" text-anchor="middle">Create View</text>
    <line x1="50" y1="520" x2="190" y2="520" stroke="#2EPE40" stroke-width="2" />
    <line x1="50" y1="520" x2="50" y2="600" stroke="#2EPE40" stroke-width="2" />
    <line x1="50" y1="520" x2="190" y2="600" stroke="#2EPE40" stroke-width="2" />
  </section>
  
  <section data-narration="Creating Functions">
    <rect x="50" y="650" width="190" height="120" fill="#F9F9F9" rx="10" />
    <text x="60" y="660" fill="#2EPE40" font-size="16" font-family="Arial" text-anchor="middle">Create Function</text>
    <line x1="50" y1="670" x2="190" y2="670" stroke="#2EPE40" stroke-width="2" />
    <line x1="50" y1="670" x2="50" y2="750" stroke="#2EPE40" stroke-width="2" />
    <line x1="50" y1="670" x2="190" y2="750" stroke="#2EPE40" stroke-width="2" />
  </section>
  
  <footer>
    <rect x="0" y="380" width="420" height="20" fill="#3498DB" rx="10" />
    <text x="10" y="390" fill="#FFFFFF" font-size="14" font-family="Arial" text-anchor="start">Hive Tutorial</text>
  </footer>
</svg>