<svg width="420" height="400" data-topic-id="text-book-1-ch" xmlns="http://www.w3.org/2000/svg">
  <rect x="0" y="0" width="420" height="400" fill="#87CEEB" />
  <title>Text Book 1: Ch</title>
  <defs>
    <linearGradient id="gradient" x1="0%" y1="0%" x2="100%" y2="0%">
      <stop offset="0%" stop-color="#ADD8E6" />
      <stop offset="100%" stop-color="#87CEEB" />
    </linearGradient>
  </defs>
  <rect x="10" y="10" width="400" height="380" fill="url(#gradient)" rx="10" />
  <g transform="translate(20, 20)">
    <rect x="0" y="0" width="100" height="100" fill="#C7B8EA" rx="10" />
    <text x="50" y="50" text-anchor="middle" font-size="24" font-family="Arial Black" fill="#FFC107">Collection Overview</text>
    <rect x="130" y="0" width="100" height="100" fill="#C7B8EA" rx="10" />
    <text x="170" y="50" text-anchor="middle" font-size="24" font-family="Arial Black" fill="#FFC107">Key Concepts</text>
    <rect x="300" y="0" width="100" height="100" fill="#C7B8EA" rx="10" />
    <text x="340" y="50" text-anchor="middle" font-size="24" font-family="Arial Black" fill="#FFC107">Collection Interfaces</text>
    <rect x="10" y="150" width="100" height="100" fill="#C7B8EA" rx="10" />
    <text x="50" y="200" text-anchor="middle" font-size="24" font-family="Arial Black" fill="#FFC107">Collection Classes</text>
    <rect x="190" y="150" width="100" height="100" fill="#C7B8EA" rx="10" />
    <text x="230" y="200" text-anchor="middle" font-size="24" font-family="Arial Black" fill="#FFC107">Key Concepts</text>
    <rect x="330" y="150" width="100" height="100" fill="#C7B8EA" rx="10" />
    <text x="370" y="200" text-anchor="middle" font-size="24" font-family="Arial Black" fill="#FFC107">Key Concepts</text>
    <rect x="10" y="250" width="100" height="100" fill="#C7B8EA" rx="10" />
    <text x="50" y="300" text-anchor="middle" font-size="24" font-family="Arial Black" fill="#FFC107">Collection Interfaces</text>
    <rect x="190" y="250" width="100" height="100" fill="#C7B8EA" rx="10" />
    <text x="230" y="300" text-anchor="middle" font-size="24" font-family="Arial Black" fill="#FFC107">Key Concepts</text>
    <rect x="330" y="250" width="100" height="100" fill="#C7B8EA" rx="10" />
    <text x="370" y="300" text-anchor="middle" font-size="24" font-family="Arial Black" fill="#FFC107">Key Concepts</text>
    <rect x="10" y="350" width="100" height="100" fill="#C7B8EA" rx="10" />
    <text x="50" y="400" text-anchor="middle" font-size="24" font-family="Arial Black" fill="#FFC107">Conclusion</text>
  </g>
  <g transform="translate(20, 420)">
    <rect x="0" y="0" width="400" height="80" fill="#87CEEB" rx="10" />
    <text x="50" y="45" text-anchor="middle" font-size="16" font-family="Arial" fill="#3498DB">Text Book 1: Ch</text>
  </g>
  <animate dur="2000" fill="freeze" begin="0s" />
  <animate dur="2000" fill="freeze" begin="2s" />
  <animate dur="2000" fill="freeze" begin="4s" />
  <animate dur="2000" fill="freeze" begin="6s" />
  <animate dur="2000" fill="freeze" begin="8s" />
</svg>