<svg viewBox="0 0 800 1560" xmlns="http://www.w3.org/2000/svg">
  <defs>
    <!-- Gradients -->
    <linearGradient id="blueGrad" x1="0%" y1="0%" x2="100%" y2="100%">
      <stop offset="0%" stop-color="#e3f2fd"/>
      <stop offset="100%" stop-color="#bbdefb"/>
    </linearGradient>
    <linearGradient id="greenGrad" x1="0%" y1="0%" x2="100%" y2="100%">
      <stop offset="0%" stop-color="#e8f5e9"/>
      <stop offset="100%" stop-color="#c8e6c9"/>
    </linearGradient>
    <linearGradient id="orangeGrad" x1="0%" y1="0%" x2="100%" y2="100%">
      <stop offset="0%" stop-color="#fff3e0"/>
      <stop offset="100%" stop-color="#ffe0b2"/>
    </linearGradient>
    <linearGradient id="purpleGrad" x1="0%" y1="0%" x2="100%" y2="100%">
      <stop offset="0%" stop-color="#f3e5f5"/>
      <stop offset="100%" stop-color="#e1bee7"/>
    </linearGradient>
    <linearGradient id="redGrad" x1="0%" y1="0%" x2="100%" y2="100%">
      <stop offset="0%" stop-color="#ffebee"/>
      <stop offset="100%" stop-color="#ffcdd2"/>
    </linearGradient>
    <linearGradient id="titleGrad" x1="0%" y1="0%" x2="100%" y2="0%">
      <stop offset="0%" stop-color="#1976d2"/>
      <stop offset="100%" stop-color="#1565c0"/>
    </linearGradient>
    
    <!-- Shadow filter -->
    <filter id="shadow" x="-20%" y="-20%" width="140%" height="140%">
      <feDropShadow dx="2" dy="3" stdDeviation="3" flood-opacity="0.2"/>
    </filter>
    
    <!-- Arrow marker -->
    <marker id="arrowBlue" markerWidth="10" markerHeight="10" refX="9" refY="3" orient="auto">
      <path d="M0,0 L0,6 L9,3 z" fill="#1976d2"/>
    </marker>
    <marker id="arrowGreen" markerWidth="10" markerHeight="10" refX="9" refY="3" orient="auto">
      <path d="M0,0 L0,6 L9,3 z" fill="#388e3c"/>
    </marker>
  </defs>
  
  <!-- Background -->
  <rect width="800" height="1560" fill="#f8f9fa"/>
  
  <!-- CSS Animations -->
  <style>
    @keyframes fadeInSlide {
      from { opacity: 0; transform: translateY(20px); }
      to { opacity: 1; transform: translateY(0); }
    }
    @keyframes scaleIn {
      from { opacity: 0; transform: scale(0.85); }
      to { opacity: 1; transform: scale(1); }
    }
    @keyframes textReveal {
      from { opacity: 0; transform: translateX(-10px); }
      to { opacity: 1; transform: translateX(0); }
    }
    @keyframes pulse {
      0%, 100% { transform: scale(1); }
      50% { transform: scale(1.03); }
    }
    @keyframes drawLine {
      from { stroke-dashoffset: 200; }
      to { stroke-dashoffset: 0; }
    }
    @keyframes countHighlight {
      0%, 100% { fill: #1976d2; }
      50% { fill: #ff9800; }
    }
    .step { animation: fadeInSlide 0.6s ease-out; }
    .step rect {
      animation: scaleIn 0.5s cubic-bezier(0.34, 1.56, 0.64, 1);
      transform-origin: center;
    }
    .step text { animation: textReveal 0.4s ease-out 0.2s backwards; }
  </style>

  <!-- STEP 0: Title -->
  <g class="step" id="step0" data-narration="Welcome to Comparison Counting Sort - a powerful non-comparison based sorting algorithm with linear time complexity.">
    <rect x="20" y="10" width="760" height="45" rx="10" fill="url(#titleGrad)" filter="url(#shadow)"/>
    <text x="400" y="42" text-anchor="middle" font-size="22" font-weight="bold" fill="white">Comparison Counting Sort</text>
    <text x="400" y="58" text-anchor="middle" font-size="11" fill="#90caf9">university 2022 Scheme - CSE • Non-Comparison Based Sorting</text>
  </g>

  <!-- STEP 1: What is Counting Sort? -->
  <g class="step" id="step1" data-narration="Counting Sort determines element positions by counting how many elements are smaller, using element values as array indices.">
    <rect x="20" y="65" width="760" height="85" rx="8" fill="url(#blueGrad)" filter="url(#shadow)"/>
    <text x="40" y="85" font-size="13" font-weight="bold" fill="#1565c0">What is Comparison Counting Sort?</text>
    <text x="40" y="102" font-size="10" fill="#424242">A non-comparison based sorting algorithm that sorts by counting</text>
    <text x="40" y="117" font-size="10" fill="#424242">how many elements are smaller than each element.</text>
    <text x="40" y="135" font-size="10" font-weight="bold" fill="#1976d2">Key Difference: Uses element VALUES as indices, not for comparisons!</text>
    
    <!-- Visual comparison -->
    <rect x="450" y="80" width="150" height="60" rx="5" fill="white" stroke="#1976d2" stroke-width="1"/>
    <text x="525" y="98" text-anchor="middle" font-size="10" font-weight="bold" fill="#1565c0">Comparison Sort</text>
    <text x="525" y="115" text-anchor="middle" font-size="9" fill="#616161">Quick Sort, Merge Sort</text>
    <text x="525" y="128" text-anchor="middle" font-size="8" fill="#9e9e9e">O(n log n)</text>
    
    <rect x="610" y="80" width="150" height="60" rx="5" fill="white" stroke="#388e3c" stroke-width="1"/>
    <text x="685" y="98" text-anchor="middle" font-size="10" font-weight="bold" fill="#2e7d32">Counting Sort</text>
    <text x="685" y="115" text-anchor="middle" font-size="9" fill="#616161">Non-Comparison Based</text>
    <text x="685" y="128" text-anchor="middle" font-size="8" fill="#9e9e9e">O(n + k) ← Linear!</text>
  </g>

  <!-- STEP 2: Key Concepts -->
  <g class="step" id="step2" data-narration="The algorithm uses two key parameters: n for elements and k for range. It requires a count array and output array.">
    <rect x="20" y="160" width="760" height="85" rx="8" fill="url(#greenGrad)" filter="url(#shadow)"/>
    <text x="40" y="180" font-size="13" font-weight="bold" fill="#2e7d32">Key Concepts & Terminology</text>
    
    <!-- n parameter -->
    <rect x="40" y="195" width="100" height="40" rx="5" fill="white"/>
    <text x="90" y="212" text-anchor="middle" font-size="11" font-weight="bold" fill="#1565c0">n</text>
    <text x="90" y="226" text-anchor="middle" font-size="9" fill="#616161">Elements</text>
    
    <!-- k parameter -->
    <rect x="150" y="195" width="100" height="40" rx="5" fill="white"/>
    <text x="200" y="212" text-anchor="middle" font-size="11" font-weight="bold" fill="#1565c0">k</text>
    <text x="200" y="226" text-anchor="middle" font-size="9" fill="#616161">Range (max+1)</text>
    
    <!-- Count array -->
    <rect x="270" y="195" width="140" height="40" rx="5" fill="white"/>
    <text x="340" y="212" text-anchor="middle" font-size="10" font-weight="bold" fill="#1565c0">Count Array</text>
    <text x="340" y="226" text-anchor="middle" font-size="9" fill="#616161">Size: k+1</text>
    
    <!-- Output array -->
    <rect x="420" y="195" width="140" height="40" rx="5" fill="white"/>
    <text x="490" y="212" text-anchor="middle" font-size="10" font-weight="bold" fill="#1565c0">Output Array</text>
    <text x="490" y="226" text-anchor="middle" font-size="9" fill="#616161">Size: n</text>
    
    <!-- Stability -->
    <rect x="570" y="195" width="190" height="40" rx="5" fill="white"/>
    <text x="665" y="212" text-anchor="middle" font-size="10" font-weight="bold" fill="#2e7d32">Stability</text>
    <text x="665" y="226" text-anchor="middle" font-size="9" fill="#616161">Equal elements maintain order</text>
  </g>

  <!-- STEP 3: Three Phases Overview -->
  <g class="step" id="step3" data-narration="Counting Sort operates in three distinct phases: counting occurrences, computing cumulative sums, and building output.">
    <rect x="20" y="255" width="760" height="95" rx="8" fill="url(#purpleGrad)" filter="url(#shadow)"/>
    <text x="40" y="275" font-size="13" font-weight="bold" fill="#7b1fa2">Algorithm: Three Phases</text>
    
    <!-- Phase 1 -->
    <rect x="40" y="290" width="230" height="50" rx="6" fill="#f8bbd9" stroke="#c2185b"/>
    <text x="155" y="310" text-anchor="middle" font-size="11" font-weight="bold" fill="#880e4f">Phase 1: Counting</text>
    <text x="155" y="326" text-anchor="middle" font-size="9" fill="#880e4f">Initialize & count occurrences</text>
    <path d="M155,340 L155,345" stroke="#c2185b" stroke-width="2" marker-end="url(#arrowBlue)">
      <animate attributeName="d" values="M155,340 L155,345;M155,340 L155,350" dur="1s" fill="freeze"/>
    </path>
    
    <!-- Phase 2 -->
    <rect x="285" y="290" width="230" height="50" rx="6" fill="#e1bee7" stroke="#7b1fa2"/>
    <text x="400" y="310" text-anchor="middle" font-size="11" font-weight="bold" fill="#6a1b9a">Phase 2: Cumulative</text>
    <text x="400" y="326" text-anchor="middle" font-size="9" fill="#6a1b9a">Compute prefix sums</text>
    
    <!-- Phase 3 -->
    <rect x="530" y="290" width="230" height="50" rx="6" fill="#d1c4e9" stroke="#512da8"/>
    <text x="645" y="310" text-anchor="middle" font-size="11" font-weight="bold" fill="#4527a0">Phase 3: Output</text>
    <text x="645" y="326" text-anchor="middle" font-size="9" fill="#4527a0">Build sorted array (right-to-left)</text>
  </g>

  <!-- STEP 4: Phase 1 - Counting -->
  <g class="step" id="step4" data-narration="Phase 1: We create a count array of size k+1 and traverse input, incrementing count at each element's value index.">
    <rect x="20" y="360" width="760" height="90" rx="8" fill="url(#orangeGrad)" filter="url(#shadow)"/>
    <text x="40" y="380" font-size="13" font-weight="bold" fill="#e65100">Phase 1: Initialization & Counting</text>
    <text x="40" y="398" font-size="10" fill="#424242">Input: [2, 5, 3, 2, 4, 5, 1, 3] | Max = 5, so count array size = 6</text>
    
    <!-- Input array -->
    <g transform="translate(40, 410)">
      <text x="0" y="0" font-size="9" fill="#616161">Input:</text>
      <rect x="35" y="-18" width="28" height="22" rx="3" fill="white" stroke="#1976d2" stroke-width="1"/>
      <text x="49" y="-3" text-anchor="middle" font-size="10" fill="#1565c0">2</text>
      <rect x="63" y="-18" width="28" height="22" rx="3" fill="white" stroke="#1976d2" stroke-width="1"/>
      <text x="77" y="-3" text-anchor="middle" font-size="10" fill="#1565c0">5</text>
      <rect x="91" y="-18" width="28" height="22" rx="3" fill="white" stroke="#1976d2" stroke-width="1"/>
      <text x="105" y="-3" text-anchor="middle" font-size="10" fill="#1565c0">3</text>
      <rect x="119" y="-18" width="28" height="22" rx="3" fill="white" stroke="#1976d2" stroke-width="1"/>
      <text x="133" y="-3" text-anchor="middle" font-size="10" fill="#1565c0">2</text>
      <rect x="147" y="-18" width="28" height="22" rx="3" fill="white" stroke="#1976d2" stroke-width="1"/>
      <text x="161" y="-3" text-anchor="middle" font-size="10" fill="#1565c0">4</text>
      <rect x="175" y="-18" width="28" height="22" rx="3" fill="white" stroke="#1976d2" stroke-width="1"/>
      <text x="189" y="-3" text-anchor="middle" font-size="10" fill="#1565c0">5</text>
      <rect x="203" y="-18" width="28" height="22" rx="3" fill="white" stroke="#1976d2" stroke-width="1"/>
      <text x="217" y="-3" text-anchor="middle" font-size="10" fill="#1565c0">1</text>
      <rect x="231" y="-18" width="28" height="22" rx="3" fill="white" stroke="#1976d2" stroke-width="1"/>
      <text x="245" y="-3" text-anchor="middle" font-size="10" fill="#1565c0">3</text>
    </g>
    
    <!-- Count array -->
    <g transform="translate(350, 405)">
      <text x="0" y="15" font-size="9" font-weight="bold" fill="#e65100">Count Array:</text>
      <rect x="70" y="0" width="25" height="25" rx="3" fill="white" stroke="#ff9800">
        <animate attributeName="fill" values="#fff;#fff3e0;#fff" dur="0.3s" begin="0s" fill="freeze"/>
      </rect>
      <text x="82.5" y="16" text-anchor="middle" font-size="10" fill="#424242">0</text>
      <rect x="95" y="0" width="25" height="25" rx="3" fill="white" stroke="#ff9800">
        <animate attributeName="fill" values="#fff;#fff3e0;#fff" dur="0.3s" begin="0.2s" fill="freeze"/>
      </rect>
      <text x="107.5" y="16" text-anchor="middle" font-size="10" fill="#424242">1</text>
      <rect x="120" y="0" width="25" height="25" rx="3" fill="white" stroke="#ff9800">
        <animate attributeName="fill" values="#fff;#fff3e0;#fff" dur="0.3s" begin="0.4s" fill="freeze"/>
      </rect>
      <text x="132.5" y="16" text-anchor="middle" font-size="10" fill="#424242">2</text>
      <rect x="145" y="0" width="25" height="25" rx="3" fill="white" stroke="#ff9800">
        <animate attributeName="fill" values="#fff;#fff3e0;#fff" dur="0.3s" begin="0.6s" fill="freeze"/>
      </rect>
      <text x="157.5" y="16" text-anchor="middle" font-size="10" fill="#424242">3</text>
      <rect x="170" y="0" width="25" height="25" rx="3" fill="white" stroke="#ff9800">
        <animate attributeName="fill" values="#fff;#fff3e0;#fff" dur="0.3s" begin="0.8s" fill="freeze"/>
      </rect>
      <text x="182.5" y="16" text-anchor="middle" font-size="10" fill="#424242">4</text>
      <rect x="195" y="0" width="25" height="25" rx="3" fill="white" stroke="#ff9800">
        <animate attributeName="fill" values="#fff;#fff3e0;#fff" dur="0.3s" begin="1s" fill="freeze"/>
      </rect>
      <text x="207.5" y="16" text-anchor="middle" font-size="10" fill="#424242">5</text>
      
      <!-- Index labels -->
      <text x="82.5" y="38" text-anchor="middle" font-size="7" fill="#9e9e9e">0</text>
      <text x="107.5" y="38" text-anchor="middle" font-size="7" fill="#9e9e9e">1</text>
      <text x="132.5" y="38" text-anchor="middle" font-size="7" fill="#9e9e9e">2</text>
      <text x="157.5" y="38" text-anchor="middle" font-size="7" fill="#9e9e9e">3</text>
      <text x="182.5" y="38" text-anchor="middle" font-size="7" fill="#9e9e9e">4</text>
      <text x="207.5" y="38" text-anchor="middle" font-size="7" fill="#9e9e9e">5</text>
    </g>
    
    <text x="40" y="438" font-size="9" fill="#e65100">After counting: [0, 1, 2, 2, 1, 2] → value 2 appears twice, value 5 appears twice, etc.</text>
  </g>

  <!-- STEP 5: Phase 2 - Cumulative -->
  <g class="step" id="step5" data-narration="Phase 2 transforms counts to cumulative sums - each position shows total elements ≤ that value. This determines final positions.">
    <rect x="20" y="460" width="760" height="90" rx="8" fill="url(#orangeGrad)" filter="url(#shadow)"/>
    <text x="40" y="480" font-size="13" font-weight="bold" fill="#e65100">Phase 2: Cumulative Count (Prefix Sum)</text>
    <text x="40" y="498" font-size="10" fill="#424242">Transform count array into cumulative counts - tells us where each element should go</text>
    
    <!-- Transformation visual -->
    <g transform="translate(40, 515)">
      <text x="0" y="0" font-size="10" font-weight="bold" fill="#e65100">Count → Cumulative:</text>
      
      <!-- Before -->
      <text x="110" y="0" font-size="9" fill="#9e9e9e">Before:</text>
      <rect x="150" y="-12" width="22" height="20" rx="2" fill="#fff3e0" stroke="#ff9800"/>
      <text x="161" y="3" text-anchor="middle" font-size="9" fill="#424242">0</text>
      <rect x="172" y="-12" width="22" height="20" rx="2" fill="#fff3e0" stroke="#ff9800"/>
      <text x="183" y="3" text-anchor="middle" font-size="9" fill="#424242">1</text>
      <rect x="194" y="-12" width="22" height="20" rx="2" fill="#fff3e0" stroke="#ff9800"/>
      <text x="205" y="3" text-anchor="middle" font-size="9" fill="#424242">2</text>
      <rect x="216" y="-12" width="22" height="20" rx="2" fill="#fff3e0" stroke="#ff9800"/>
      <text x="227" y="3" text-anchor="middle" font-size="9" fill="#424242">2</text>
      <rect x="238" y="-12" width="22" height="20" rx="2" fill="#fff3e0" stroke="#ff9800"/>
      <text x="249" y="3" text-anchor="middle" font-size="9" fill="#424242">1</text>
      <rect x="260" y="-12" width="22" height="20" rx="2" fill="#fff3e0" stroke="#ff9800"/>
      <text x="271" y="3" text-anchor="middle" font-size="9" fill="#424242">2</text>
      
      <!-- Arrow -->
      <path d="M300,-2 L330,-2" stroke="#e65100" stroke-width="2" marker-end="url(#arrowBlue)"/>
      
      <!-- After -->
      <text x="350" y="0" font-size="9" fill="#4caf50">After:</text>
      <rect x="390" y="-12" width="22" height="20" rx="2" fill="#e8f5e9" stroke="#4caf50"/>
      <text x="401" y="3" text-anchor="middle" font-size="9" fill="#424242">0</text>
      <rect x="412" y="-12" width="22" height="20" rx="2" fill="#e8f5e9" stroke="#4caf50"/>
      <text x="423" y="3" text-anchor="middle" font-size="9" fill="#424242">1</text>
      <rect x="434" y="-12" width="22" height="20" rx="2" fill="#e8f5e9" stroke="#4caf50"/>
      <text x="445" y="3" text-anchor="middle" font-size="9" font-weight="bold" fill="#2e7d32">3</text>
      <rect x="456" y="-12" width="22" height="20" rx="2" fill="#e8f5e9" stroke="#4caf50"/>
      <text x="467" y="3" text-anchor="middle" font-size="9" font-weight="bold" fill="#2e7d32">5</text>
      <rect x="478" y="-12" width="22" height="20" rx="2" fill="#e8f5e9" stroke="#4caf50"/>
      <text x="489" y="3" text-anchor="middle" font-size="9" font-weight="bold" fill="#2e7d32">6</text>
      <rect x="500" y="-12" width="22" height="20" rx="2" fill="#e8f5e9" stroke="#4caf50"/>
      <text x="511" y="3" text-anchor="middle" font-size="9" font-weight="bold" fill="#2e7d32">8</text>
    </g>
    
    <!-- Formula -->
    <text x="40" y="545" font-size="10" fill="#424242">Formula: count[i] = count[i] + count[i-1]</text>
    <text x="40" y="558" font-size="9" fill="#9e9e9e">count[5]=2+6=8 means: 8 elements are ≤ value 5</text>
  </g>

  <!-- STEP 6: Phase 3 - Output -->
  <g class="step" id="step6" data-narration="Phase 3 traverses input from right-to-left, placing each element at position = count[value] - 1, then decrements count.">
    <rect x="20" y="560" width="760" height="90" rx="8" fill="url(#redGrad)" filter="url(#shadow)"/>
    <text x="40" y="580" font-size="13" font-weight="bold" fill="#c62828">Phase 3: Building Output (Right-to-Left)</text>
    <text x="40" y="598" font-size="10" fill="#424242">Traverse input from RIGHT to LEFT (for stability) | position = count[value] - 1</text>
    
    <!-- Process visualization -->
    <g transform="translate(40, 615)">
      <text x="0" y="0" font-size="10" font-weight="bold" fill="#c62828">Right-to-left traversal:</text>
      
      <!-- Arrow showing direction -->
      <path d="M180,10 L300,10" stroke="#c62828" stroke-width="2" marker-end="url(#arrowBlue)"/>
      <text x="240" y="25" text-anchor="middle" font-size="9" fill="#c62828">Direction</text>
      
      <!-- Array indices -->
      <text x="70" y="50" font-size="9" fill="#9e9e9e">7</text>
      <text x="105" y="50" font-size="9" fill="#9e9e9e">6</text>
      <text x="140" y="50" font-size="9" fill="#9e9e9e">5</text>
      <text x="175" y="50" font-size="9" fill="#9e9e9e">4</text>
      <text x="210" y="50" font-size="9" fill="#9e9e9e">3</text>
      <text x="245" y="50" font-size="9" fill="#9e9e9e">2</text>
      <text x="280" y="50" font-size="9" fill="#9e9e9e">1</text>
      <text x="315" y="50" font-size="9" fill="#9e9e9e">0</text>
      
      <!-- Input values -->
      <rect x="35" y="30" width="30" height="22" rx="3" fill="#ffcdd2" stroke="#c62828"/>
      <text x="50" y="45" text-anchor="middle" font-size="10" fill="#b71c1c">3</text>
      <rect x="70" y="30" width="30" height="22" rx="3" fill="#ffcdd2" stroke="#c62828"/>
      <text x="85" y="45" text-anchor="middle" font-size="10" fill="#b71c1c">1</text>
      <rect x="105" y="30" width="30" height="22" rx="3" fill="#ffcdd2" stroke="#c62828"/>
      <text x="120" y="45" text-anchor="middle" font-size="10" fill="#b71c1c">5</text>
      <rect x="140" y="30" width="30" height="22" rx="3" fill="#ffcdd2" stroke="#c62828"/>
      <text x="155" y="45" text-anchor="middle" font-size="10" fill="#b71c1c">4</text>
      <rect x="175" y="30" width="30" height="22" rx="3" fill="#ffcdd2" stroke="#c62828"/>
      <text x="190" y="45" text-anchor="middle" font-size="10" fill="#b71c1c">2</text>
      <rect x="210" y="30" width="30" height="22" rx="3" fill="#ffcdd2" stroke="#c62828"/>
      <text x="225" y="45" text-anchor="middle" font-size="10" fill="#b71c1c">3</text>
      <rect x="245" y="30" width="30" height="22" rx="3" fill="#ffcdd2" stroke="#c62828"/>
      <text x="260" y="45" text-anchor="middle" font-size="10" fill="#b71c1c">5</text>
      <rect x="280" y="30" width="30" height="22" rx="3" fill="#ffcdd2" stroke="#c62828"/>
      <text x="295" y="45" text-anchor="middle" font-size="10" fill="#b71c1c">2</text>
    </g>
    
    <text x="550" y="630" font-size="10" fill="#616161">Output array builds here →</text>
    <rect x="650" y="615" width="110" height="35" rx="5" fill="white" stroke="#4caf50"/>
    <text x="705" y="630" text-anchor="middle" font-size="8" fill="#9e9e9e">Sorted</text>
    <text x="705" y="642" text-anchor="middle" font-size="10" font-weight="bold" fill="#2e7d32">[1,2,2,3,3,4,5,5]</text>
  </g>

  <!-- STEP 7: Complete Example -->
  <g class="step" id="step7" data-narration="Let's trace through the complete example with the input array [2,5,3,2,4,5,1,3] to see how sorting works step by step.">
    <rect x="20" y="660" width="760" height="95" rx="8" fill="url(#blueGrad)" filter="url(#shadow)"/>
    <text x="40" y="680" font-size="13" font-weight="bold" fill="#1565c0">Complete Working Example</text>
    <text x="40" y="698" font-size="10" fill="#424242">Input: [2, 5, 3, 2, 4, 5, 1, 3] | n=8, k=5 (max value)</text>
    
    <!-- Step by step visualization -->
    <g transform="translate(40, 715)">
      <text x="0" y="0" font-size="9" fill="#1976d2">1. Count:</text>
      <text x="60" y="0" font-size="9" fill="#424242">[0,1,2,2,1,2]</text>
      
      <text x="180" y="0" font-size="9" fill="#388e3c">2. Cumulative:</text>
      <text x="270" y="0" font-size="9" fill="#424242">[0,1,3,5,6,8]</text>
      
      <text x="0" y="18" font-size="9" fill="#c62828">3. Output (R→L):</text>
      <rect x="100" y="25" width="22" height="18" rx="2" fill="#e8f5e9" stroke="#4caf50"/>
      <text x="111" y="38" text-anchor="middle" font-size="8" fill="#2e7d32">1</text>
      <rect x="122" y="25" width="22" height="18" rx="2" fill="#e8f5e9" stroke="#4caf50"/>
      <text x="133" y="38" text-anchor="middle" font-size="8" fill="#2e7d32">2</text>
      <rect x="144" y="25" width="22" height="18" rx="2" fill="#e8f5e9" stroke="#4caf50"/>
      <text x="155" y="38" text-anchor="middle" font-size="8" fill="#2e7d32">2</text>
      <rect x="166" y="25" width="22" height="18" rx="2" fill="#e8f5e9" stroke="#4caf50"/>
      <text x="177" y="38" text-anchor="middle" font-size="8" fill="#2e7d32">3</text>
      <rect x="188" y="25" width="22" height="18" rx="2" fill="#e8f5e9" stroke="#4caf50"/>
      <text x="199" y="38" text-anchor="middle" font-size="8" fill="#2e7d32">3</text>
      <rect x="210" y="25" width="22" height="18" rx="2" fill="#e8f5e9" stroke="#4caf50"/>
      <text x="221" y="38" text-anchor="middle" font-size="8" fill="#2e7d32">4</text>
      <rect x="232" y="25" width="22" height="18" rx="2" fill="#e8f5e9" stroke="#4caf50"/>
      <text x="243" y="38" text-anchor="middle" font-size="8" fill="#2e7d32">5</text>
      <rect x="254" y="25" width="22" height="18" rx="2" fill="#e8f5e9" stroke="#4caf50"/>
      <text x="265" y="38" text-anchor="middle" font-size="8" fill="#2e7d32">5</text>
    </g>
    
    <!-- Key observation -->
    <rect x="40" y="755" width="720" height="25" rx="5" fill="#fff8e1" stroke="#ffc107"/>
    <text x="400" y="772" text-anchor="middle" font-size="10" fill="#f57c00">★ Note: Two 5s maintain order (positions 7→6), two 2s maintain order - this is STABILITY!</text>
  </g>

  <!-- STEP 8: Complexity Analysis -->
  <g class="step" id="step8" data-narration="Time complexity is O(n + k) - linear in both input size and range. Space complexity is O(n + k) for auxiliary arrays.">
    <rect x="20" y="765" width="760" height="90" rx="8" fill="url(#greenGrad)" filter="url(#shadow)"/>
    <text x="40" y="785" font-size="13" font-weight="bold" fill="#2e7d32">Time &amp; Space Complexity</text>
    
    <!-- Time Complexity -->
    <rect x="40" y="800" width="220" height="45" rx="6" fill="white"/>
    <text x="150" y="818" text-anchor="middle" font-size="11" font-weight="bold" fill="#1565c0">Time Complexity</text>
    <text x="150" y="834" text-anchor="middle" font-size="14" font-weight="bold" fill="#2e7d32">O(n + k)</text>
    <text x="150" y="847" text-anchor="middle" font-size="8" fill="#9e9e9e">3 passes: count, cumulative, output</text>
    
    <!-- Space Complexity -->
    <rect x="280" y="800" width="220" height="45" rx="6" fill="white"/>
    <text x="390" y="818" text-anchor="middle" font-size="11" font-weight="bold" fill="#1565c0">Space Complexity</text>
    <text x="390" y="834" text-anchor="middle" font-size="14" font-weight="bold" fill="#e65100">O(n + k)</text>
    <text x="390" y="847" text-anchor="middle" font-size="8" fill="#9e9e9e">Count array (k+1) + output (n)</text>
    
    <!-- Comparison -->
    <rect x="520" y="800" width="240" height="45" rx="6" fill="white"/>
    <text x="640" y="818" text-anchor="middle" font-size="10" font-weight="bold" fill="#1565c0">vs Quick Sort</text>
    <text x="640" y="834" text-anchor="middle" font-size="14" font-weight="bold" fill="#c62828">O(n log n)</text>
    <text x="640" y="847" text-anchor="middle" font-size="8" fill="#9e9e9e">Average case | O(n²) worst</text>
    
    <!-- When efficient -->
    <text x="40" y="858" font-size="9" fill="#2e7d32">✓ Efficient when k = O(n) or k &lt; n² | ✗ Inefficient when k >> n (large space)</text>
  </g>

  <!-- STEP 9: Why Stable? -->
  <g class="step" id="step9" data-narration="Counting Sort achieves stability by traversing the input from right-to-left, ensuring equal elements maintain their relative order.">
    <rect x="20" y="865" width="760" height="90" rx="8" fill="url(#purpleGrad)" filter="url(#shadow)"/>
    <text x="40" y="885" font-size="13" font-weight="bold" fill="#7b1fa2">Why is Counting Sort Stable?</text>
    <text x="40" y="903" font-size="10" fill="#424242">Stability = equal elements maintain relative order from input to output</text>
    
    <!-- Stability demonstration -->
    <g transform="translate(40, 918)">
      <text x="0" y="0" font-size="9" fill="#7b1fa2">Input with duplicate values (e.g., records):</text>
      
      <!-- Input with keys -->
      <rect x="20" y="10" width="60" height="50" rx="4" fill="white" stroke="#7b1fa2"/>
      <text x="50" y="30" text-anchor="middle" font-size="11" fill="#424242">A: 5</text>
      <text x="50" y="50" text-anchor="middle" font-size="9" fill="#9e9e9e">(position 0)</text>
      
      <rect x="90" y="10" width="60" height="50" rx="4" fill="white" stroke="#7b1fa2"/>
      <text x="120" y="30" text-anchor="middle" font-size="11" fill="#424242">B: 3</text>
      
      <rect x="160" y="10" width="60" height="50" rx="4" fill="white" stroke="#7b1fa2"/>
      <text x="190" y="30" text-anchor="middle" font-size="11" fill="#424242">C: 5</text>
      <text x="190" y="50" text-anchor="middle" font-size="9" fill="#9e9e9e">(position 2)</text>
      
      <path d="M240,35 L280,35" stroke="#7b1fa2" stroke-width="2" marker-end="url(#arrowGreen)"/>
      
      <!-- Output -->
      <rect x="300" y="10" width="60" height="50" rx="4" fill="#e8f5e9" stroke="#4caf50"/>
      <text x="330" y="30" text-anchor="middle" font-size="11" fill="#424242">B: 3</text>
      
      <rect x="370" y="10" width="60" height="50" rx="4" fill="#e8f5e9" stroke="#4caf50"/>
      <text x="400" y="30" text-anchor="middle" font-size="11" fill="#424242">A: 5</text>
      <text x="400" y="50" text-anchor="middle" font-size="9" fill="#4caf50">before C</text>
      
      <rect x="440" y="10" width="60" height="50" rx="4" fill="#e8f5e9" stroke="#4caf50"/>
      <text x="470" y="30" text-anchor="middle" font-size="11" fill="#424242">C: 5</text>
    </g>
    
    <text x="40" y="958" font-size="9" fill="#7b1fa2">Right-to-left ensures A (at pos 0) is placed after C (at pos 2) → A comes BEFORE C in output</text>
  </g>

  <!-- STEP 10: Advantages -->
  <g class="step" id="step10" data-narration="Counting Sort offers guaranteed linear time, stability, and simplicity, but is limited to integers and requires advance knowledge of maximum value.">
    <rect x="20" y="965" width="360" height="85" rx="8" fill="url(#greenGrad)" filter="url(#shadow)"/>
    <text x="40" y="985" font-size="13" font-weight="bold" fill="#2e7d32">Advantages</text>
    <text x="40" y="1003" font-size="9" fill="#424242">✓ Guaranteed O(n+k) - no worst case degradation</text>
    <text x="40" y="1018" font-size="9" fill="#424242">✓ Stable - crucial for multi-key sorting</text>
    <text x="40" y="1033" font-size="9" fill="#424242">✓ Simple to understand and implement</text>
    <text x="40" y="1048" font-size="9" fill="#424242">✓ Efficient when k ≈ n</text>
    
    <!-- Limitations -->
    <rect x="400" y="965" width="360" height="85" rx="8" fill="url(#redGrad)" filter="url(#shadow)"/>
    <text x="420" y="985" font-size="13" font-weight="bold" fill="#c62828">Limitations</text>
    <text x="420" y="1003" font-size="9" fill="#424242">✗ Only works for integers/discrete values</text>
    <text x="420" y="1018" font-size="9" fill="#424242">✗ Requires advance knowledge of max value</text>
    <text x="420" y="1033" font-size="9" fill="#424242">✗ Space: O(n+k) can be prohibitive</text>
    <text x="420" y="1048" font-size="9" fill="#424242">✗ Cannot sort floating-point directly</text>
  </g>

  <!-- STEP 11: When to Use -->
  <g class="step" id="step11" data-narration="Use Counting Sort when the range k is small and close to n, such as sorting marks, ages, or any bounded integer data.">
    <rect x="20" y="1060" width="760" height="85" rx="8" fill="url(#orangeGrad)" filter="url(#shadow)"/>
    <text x="40" y="1080" font-size="13" font-weight="bold" fill="#e65100">When to Use Counting Sort</text>
    
    <!-- Use cases -->
    <g transform="translate(40, 1095)">
      <rect x="0" y="0" width="175" height="40" rx="5" fill="white"/>
      <text x="87.5" y="15" text-anchor="middle" font-size="10" font-weight="bold" fill="#1565c0">Good: Small Range</text>
      <text x="87.5" y="30" text-anchor="middle" font-size="9" fill="#424242">k ≈ n (e.g., marks 0-100)</text>
      
      <rect x="185" y="0" width="175" height="40" rx="5" fill="white"/>
      <text x="272.5" y="15" text-anchor="middle" font-size="10" font-weight="bold" fill="#1565c0">Good: Integer Data</text>
      <text x="272.5" y="30" text-anchor="middle" font-size="9" fill="#424242">Ages, exam scores, counts</text>
      
      <rect x="370" y="0" width="175" height="40" rx="5" fill="white"/>
      <text x="457.5" y="15" text-anchor="middle" font-size="10" font-weight="bold" fill="#1565c0">Good: Stability Needed</text>
      <text x="457.5" y="30" text-anchor="middle" font-size="9" fill="#424242">Multi-key sorting</text>
      
      <rect x="555" y="0" width="175" height="40" rx="5" fill="#ffebee">
        <animate attributeName="fill" values="#ffebee;#ffcdd2;#ffebee" dur="2s" repeatCount="indefinite"/>
      </rect>
      <text x="642.5" y="15" text-anchor="middle" font-size="10" font-weight="bold" fill="#c62828">Avoid: Large Range</text>
      <text x="642.5" y="30" text-anchor="middle" font-size="9" fill="#424242">k >> n (memory issues)</text>
    </g>
  </g>

  <!-- STEP 12: Comparison with Other Sorts -->
  <g class="step" id="step12" data-narration="Compare Counting Sort with Quick Sort, Merge Sort, and Heap Sort in terms of time, space, stability, and in-place sorting.">
    <rect x="20" y="1155" width="760" height="95" rx="8" fill="url(#blueGrad)" filter="url(#shadow)"/>
    <text x="40" y="1175" font-size="13" font-weight="bold" fill="#1565c0">Comparison with Other Sorting Algorithms</text>
    
    <!-- Comparison table -->
    <g transform="translate(40, 1190)">
      <!-- Headers -->
      <rect x="0" y="0" width="120" height="25" rx="3" fill="#e3f2fd"/>
      <text x="60" y="16" text-anchor="middle" font-size="9" font-weight="bold" fill="#1565c0">Algorithm</text>
      <rect x="120" y="0" width="100" height="25" rx="3" fill="#e3f2fd"/>
      <text x="170" y="16" text-anchor="middle" font-size="9" font-weight="bold" fill="#1565c0">Time</text>
      <rect x="220" y="0" width="100" height="25" rx="3" fill="#e3f2fd"/>
      <text x="270" y="16" text-anchor="middle" font-size="9" font-weight="bold" fill="#1565c0">Space</text>
      <rect x="320" y="0" width="80" height="25" rx="3" fill="#e3f2fd"/>
      <text x="360" y="16" text-anchor="middle" font-size="9" font-weight="bold" fill="#1565c0">Stable</text>
      <rect x="400" y="0" width="80" height="25" rx="3" fill="#e3f2fd"/>
      <text x="440" y="16" text-anchor="middle" font-size="9" font-weight="bold" fill="#1565c0">In-Place</text>
  </g>
  </g>
</svg>