<svg viewBox="0 0 800 1700" xmlns="http://www.w3.org/2000/svg">
  <defs>
    <linearGradient id="blueGrad" x1="0%" y1="0%" x2="100%" y2="100%">
      <stop offset="0%" style="stop-color:#e3f2fd;stop-opacity:1" />
      <stop offset="100%" style="stop-color:#90caf9;stop-opacity:1" />
    </linearGradient>
    <linearGradient id="greenGrad" x1="0%" y1="0%" x2="100%" y2="100%">
      <stop offset="0%" style="stop-color:#e8f5e9;stop-opacity:1" />
      <stop offset="100%" style="stop-color:#a5d6a7;stop-opacity:1" />
    </linearGradient>
    <linearGradient id="orangeGrad" x1="0%" y1="0%" x2="100%" y2="100%">
      <stop offset="0%" style="stop-color:#fff3e0;stop-opacity:1" />
      <stop offset="100%" style="stop-color:#ffcc80;stop-opacity:1" />
    </linearGradient>
    <linearGradient id="purpleGrad" x1="0%" y1="0%" x2="100%" y2="100%">
      <stop offset="0%" style="stop-color:#f3e5f5;stop-opacity:1" />
      <stop offset="100%" style="stop-color:#ce93d8;stop-opacity:1" />
    </linearGradient>
    <linearGradient id="redGrad" x1="0%" y1="0%" x2="100%" y2="100%">
      <stop offset="0%" style="stop-color:#ffebee;stop-opacity:1" />
      <stop offset="100%" style="stop-color:#ef9a9a;stop-opacity:1" />
    </linearGradient>
    <filter id="shadow" x="-20%" y="-20%" width="140%" height="140%">
      <feDropShadow dx="2" dy="2" stdDeviation="3" flood-opacity="0.15"/>
    </filter>
    <marker id="arrowBlue" markerWidth="10" markerHeight="10" refX="9" refY="3" orient="auto">
      <path d="M0,0 L0,6 L9,3 z" fill="#1976d2"/>
    </marker>
    <marker id="arrowGreen" markerWidth="10" markerHeight="10" refX="9" refY="3" orient="auto">
      <path d="M0,0 L0,6 L9,3 z" fill="#388e3c"/>
    </marker>
  </defs>
  
  <style>
    @keyframes fadeInSlide {
      from { opacity: 0; transform: translateY(20px); }
      to { opacity: 1; transform: translateY(0); }
    }
    @keyframes scaleIn {
      from { opacity: 0; transform: scale(0.85); }
      to { opacity: 1; transform: scale(1); }
    }
    @keyframes textReveal {
      from { opacity: 0; transform: translateX(-10px); }
      to { opacity: 1; transform: translateX(0); }
    }
    @keyframes pulse {
      0%, 100% { transform: scale(1); }
      50% { transform: scale(1.03); }
    }
    @keyframes drawLine {
      from { stroke-dashoffset: 300; }
      to { stroke-dashoffset: 0; }
    }
    .step { animation: fadeInSlide 0.6s ease-out; }
    .step rect {
      animation: scaleIn 0.5s cubic-bezier(0.34, 1.56, 0.64, 1);
      transform-origin: center;
    }
    .step text { animation: textReveal 0.4s ease-out 0.2s backwards; }
    .formula { font-family: 'Courier New', monospace; font-size: 11px; fill: #333; }
    .title-text { font-family: Arial, sans-serif; font-size: 16px; font-weight: bold; fill: #333; }
    .label { font-family: Arial, sans-serif; font-size: 9px; fill: #666; }
    .highlight { fill: #1976d2; font-weight: bold; }
    .anim-path { stroke-dasharray: 300; stroke-dashoffset: 300; }
    .draw-anim { animation: drawLine 1s ease-out forwards; }
  </style>
  
  <rect width="800" height="1700" fill="#f8f9fa"/>
  
  <!-- Background subtle grid -->
  <g opacity="0.03">
    <line x1="0" y1="100" x2="800" y2="100" stroke="#000" stroke-width="1"/>
    <line x1="0" y1="200" x2="800" y2="200" stroke="#000" stroke-width="1"/>
    <line x1="0" y1="300" x2="800" y2="300" stroke="#000" stroke-width="1"/>
    <line x1="0" y1="400" x2="800" y2="400" stroke="#000" stroke-width="1"/>
    <line x1="0" y1="500" x2="800" y2="500" stroke="#000" stroke-width="1"/>
    <line x1="0" y1="600" x2="800" y2="600" stroke="#000" stroke-width="1"/>
    <line x1="0" y1="700" x2="800" y2="700" stroke="#000" stroke-width="1"/>
    <line x1="0" y1="800" x2="800" y2="800" stroke="#000" stroke-width="1"/>
    <line x1="0" y1="900" x2="800" y2="900" stroke="#000" stroke-width="1"/>
    <line x1="0" y1="1000" x2="800" y2="1000" stroke="#000" stroke-width="1"/>
    <line x1="0" y1="1100" x2="800" y2="1100" stroke="#000" stroke-width="1"/>
    <line x1="0" y1="1200" x2="800" y2="1200" stroke="#000" stroke-width="1"/>
    <line x1="0" y1="1300" x2="800" y2="1300" stroke="#000" stroke-width="1"/>
    <line x1="0" y1="1400" x2="800" y2="1400" stroke="#000" stroke-width="1"/>
    <line x1="0" y1="1500" x2="800" y2="1500" stroke="#000" stroke-width="1"/>
    <line x1="0" y1="1600" x2="800" y2="1600" stroke="#000" stroke-width="1"/>
  </g>

  <!-- STEP 0: Title -->
  <g class="step" id="step0" data-narration="Welcome to our exploration of closure properties in regular languages - the foundation of automata theory.">
    <rect x="20" y="15" width="760" height="45" rx="10" fill="url(#blueGrad)" filter="url(#shadow)"/>
    <text x="400" y="42" text-anchor="middle" class="title-text" fill="#1565c0">Closure Properties of Regular Languages</text>
  </g>

  <!-- STEP 1: What is Closure -->
  <g class="step" id="step1" data-narration="A set of languages is closed under an operation if applying that operation produces a language that remains in the set.">
    <rect x="20" y="70" width="760" height="85" rx="10" fill="white" filter="url(#shadow)"/>
    <text x="40" y="95" class="title-text" fill="#1976d2">What is Closure?</text>
    <text x="40" y="115" class="label" fill="#333">A language class C is</text>
    <text x="40" y="130" class="formula" fill="#d32f2f">CLOSED</text>
    <text x="95" y="130" class="label" fill="#333">under operation op if:</text>
    <text x="40" y="145" class="formula" fill="#333">∀L ∈ C: op(L) ∈ C</text>
    <rect x="250" y="105" width="200" height="35" rx="5" fill="url(#greenGrad)"/>
    <text x="350" y="125" class="formula" fill="#2e7d32">Regular ∪ Regular</text>
    <text x="395" y="140" class="label" fill="#2e7d32">= Regular ✓</text>
  </g>

  <!-- STEP 2: Overview of Operations -->
  <g class="step" id="step2" data-narration="Regular languages exhibit elegant closure under these key operations: union, intersection, complement, and more.">
    <rect x="20" y="165" width="760" height="85" rx="10" fill="white" filter="url(#shadow)"/>
    <text x="40" y="190" class="title-text" fill="#1976d2">Regular Languages Are Closed Under:</text>
    <g>
      <rect x="40" y="205" width="90" height="30" rx="5" fill="url(#greenGrad)"/>
      <text x="85" y="224" text-anchor="middle" class="label" fill="#2e7d32">Union</text>
      <rect x="140" y="205" width="90" height="30" rx="5" fill="url(#greenGrad)"/>
      <text x="185" y="224" text-anchor="middle" class="label" fill="#2e7d32">Intersection</text>
      <rect x="240" y="205" width="90" height="30" rx="5" fill="url(#greenGrad)"/>
      <text x="285" y="224" text-anchor="middle" class="label" fill="#2e7d32">Complement</text>
      <rect x="340" y="205" width="90" height="30" rx="5" fill="url(#greenGrad)"/>
      <text x="385" y="224" text-anchor="middle" class="label" fill="#2e7d32">Difference</text>
      <rect x="440" y="205" width="100" height="30" rx="5" fill="url(#greenGrad)"/>
      <text x="490" y="224" text-anchor="middle" class="label" fill="#2e7d32">Concatenation</text>
      <rect x="550" y="205" width="80" height="30" rx="5" fill="url(#greenGrad)"/>
      <text x="590" y="224" text-anchor="middle" class="label" fill="#2e7d32">Kleene*</text>
    </g>
    <g>
      <rect x="40" y="240" width="80" height="30" rx="5" fill="url(#purpleGrad)"/>
      <text x="80" y="259" text-anchor="middle" class="label" fill="#7b1fa2">Reversal</text>
      <rect x="130" y="240" width="100" height="30" rx="5" fill="url(#purpleGrad)"/>
      <text x="180" y="259" text-anchor="middle" class="label" fill="#7b1fa2">Homomorphism</text>
      <rect x="240" y="240" width="160" height="30" rx="5" fill="url(#purpleGrad)"/>
      <text x="320" y="259" text-anchor="middle" class="label" fill="#7b1fa2">Inverse Homomorphism</text>
    </g>
  </g>

  <!-- STEP 3: Union Closure - Concept -->
  <g class="step" id="step3" data-narration="For union closure, we construct a product automaton that simulates both DFAs simultaneously, accepting if either accepts.">
    <rect x="20" y="260" width="760" height="95" rx="10" fill="white" filter="url(#shadow)"/>
    <text x="40" y="285" class="title-text" fill="#1976d2">1. Closure Under Union</text>
    <text x="40" y="305" class="label" fill="#333">If L₁ and L₂ are regular, then L₁ ∪ L₂ is also regular.</text>
    <text x="40" y="325" class="formula" fill="#333">Proof: Product Automaton M = (Q₁ × Q₂, Σ, δ, (q₁,q₂), F)</text>
    <text x="40" y="345" class="label" fill="#666">Transition: δ((p,q), a) = (δ₁(p,a), δ₂(q,a))</text>
    
    <!-- Product automaton diagram -->
    <g transform="translate(300, 270)">
      <rect x="0" y="0" width="450" height="75" rx="8" fill="url(#blueGrad)" opacity="0.5"/>
      <circle cx="60" cy="40" r="20" fill="#fff" stroke="#1976d2" stroke-width="2"/>
      <text x="60" y="45" text-anchor="middle" class="label">(p,q)</text>
      <text x="60" y="70" text-anchor="middle" class="label" fill="#666">Combined State</text>
      
      <path d="M90 40 L150 40" stroke="#1976d2" stroke-width="2" marker-end="url(#arrowBlue)" class="anim-path draw-anim"/>
      <text x="120" y="35" text-anchor="middle" class="label">a</text>
      
      <circle cx="180" cy="40" r="20" fill="#fff" stroke="#1976d2" stroke-width="2"/>
      <text x="180" y="45" text-anchor="middle" class="label">(p',q')</text>
      
      <rect x="280" y="25" width="120" height="30" rx="5" fill="url(#greenGrad)"/>
      <text x="340" y="45" text-anchor="middle" class="label" fill="#2e7d32">Accept if p'∈F₁</text>
      <text x="340" y="55" text-anchor="middle" class="label" fill="#2e7d32">OR q'∈F₂</text>
    </g>
  </g>

  <!-- STEP 4: Union - Example -->
  <g class="step" id="step4" data-narration="Let's see a concrete example: languages with at least one 'a' OR ending with 'b'. We combine their states using product construction.">
    <rect x="20" y="365" width="760" height="95" rx="10" fill="white" filter="url(#shadow)"/>
    <text x="40" y="390" class="title-text" fill="#1976d2">Union Example: L = {has 'a' OR ends with 'b'}</text>
    
    <!-- Left side: L1 -->
    <g transform="translate(30, 410)">
      <text x="50" y="0" text-anchor="middle" class="label" fill="#1976d2">L₁: has 'a'</text>
      <circle cx="30" cy="25" r="15" fill="#fff" stroke="#1976d2" stroke-width="2"/>
      <text x="30" y="30" text-anchor="middle" class="label">q₀</text>
      <circle cx="90" cy="25" r="15" fill="#4caf50" stroke="#2e7d32" stroke-width="2"/>
      <text x="90" y="30" text-anchor="middle" class="label">q₁</text>
      <path d="M45 25 L75 25" stroke="#1976d2" stroke-width="2" marker-end="url(#arrowBlue)"/>
      <text x="60" y="18" text-anchor="middle" class="label">a</text>
      <path d="M30 40 L30 55 L90 55 L90 40" stroke="#1976d2" stroke-width="1.5" fill="none"/>
      <text x="30" y="65" class="label">b</text>
      <path d="M90 40 L90 55 L30 55 L30 40" stroke="#1976d2" stroke-width="1.5" fill="none"/>
      <text x="105" y="30" class="label">a,b</text>
    </g>
    
    <!-- Right side: L2 -->
    <g transform="translate(180, 410)">
      <text x="50" y="0" text-anchor="middle" class="label" fill="#1976d2">L₂: ends with 'b'</text>
      <circle cx="30" cy="25" r="15" fill="#fff" stroke="#1976d2" stroke-width="2"/>
      <text x="30" y="30" text-anchor="middle" class="label">p₀</text>
      <circle cx="90" cy="25" r="15" fill="#4caf50" stroke="#2e7d32" stroke-width="2"/>
      <text x="90" y="30" text-anchor="middle" class="label">p₁</text>
      <path d="M45 25 L75 25" stroke="#1976d2" stroke-width="2" marker-end="url(#arrowBlue)"/>
      <text x="60" y="18" text-anchor="middle" class="label">b</text>
      <path d="M30 40 L30 55 L90 55 L90 40" stroke="#1976d2" stroke-width="1.5" fill="none"/>
      <text x="60" y="65" class="label">a</text>
    </g>
    
    <!-- Combined -->
    <g transform="translate(380, 400)">
      <text x="150" y="0" text-anchor="middle" class="label" fill="#2e7d32">Union (Product Construction)</text>
      <rect x="30" y="50" width="240" height="40" rx="5" fill="url(#greenGrad)" opacity="0.7"/>
      <text x="150" y="70" text-anchor="middle" class="formula">4 states: (q₀,p₀), (q₀,p₁), (q₁,p₀), (q₁,p₁)</text>
      <text x="150" y="85" text-anchor="middle" class="label" fill="#2e7d32">Accept: {q₁}×{p₀,p₁} ∪ {q₀,q₁}×{p₁}</text>
    </g>
  </g>

  <!-- STEP 5: Intersection Closure -->
  <g class="step" id="step5" data-narration="For intersection, we use the same product automaton but change the accepting condition - accept only if BOTH DFAs accept.">
    <rect x="20" y="470" width="760" height="95" rx="10" fill="white" filter="url(#shadow)"/>
    <text x="40" y="495" class="title-text" fill="#1976d2">2. Closure Under Intersection</text>
    <text x="40" y="515" class="label" fill="#333">If L₁ and L₂ are regular, then L₁ ∩ L₂ is also regular.</text>
    <text x="40" y="535" class="formula" fill="#333">Same product construction, different accepting condition:</text>
    
    <g transform="translate(40, 545)">
      <rect x="0" y="0" width="350" height="50" rx="8" fill="url(#orangeGrad)"/>
      <text x="175" y="20" text-anchor="middle" class="formula">Accept state (p,q): p ∈ F₁ AND q ∈ F₂</text>
      <text x="175" y="38" text-anchor="middle" class="label" fill="#e65100">String accepted by BOTH machines → L₁ ∩ L₂</text>
    </g>
    
    <!-- Visual representation -->
    <g transform="translate(420, 540)">
      <circle cx="50" cy="30" r="25" fill="url(#greenGrad)" stroke="#2e7d32" stroke-width="2"/>
      <text x="50" y="35" text-anchor="middle" class="label">L₁</text>
      <circle cx="110" cy="30" r="25" fill="url(#blueGrad)" stroke="#1976d2" stroke-width="2"/>
      <text x="110" y="35" text-anchor="middle" class="label">L₂</text>
      <path d="M75 30 L85 30" stroke="#333" stroke-width="2" marker-end="url(#arrowGreen)"/>
      <circle cx="160" cy="30" r="25" fill="url(#purpleGrad)" stroke="#7b1fa2" stroke-width="2"/>
      <text x="160" y="35" text-anchor="middle" class="label">L₁∩L₂</text>
      <text x="160" y="70" text-anchor="middle" class="label" fill="#2e7d32">REGULAR ✓</text>
    </g>
  </g>

  <!-- STEP 6: Complement Closure -->
  <g class="step" id="step6" data-narration="For complement, we simply flip the accepting states - all non-accepting states become accepting, and vice versa.">
    <rect x="20" y="575" width="760" height="95" rx="10" fill="white" filter="url(#shadow)"/>
    <text x="40" y="600" class="title-text" fill="#1976d2">3. Closure Under Complement</text>
    <text x="40" y="620" class="label" fill="#333">If L is regular, then L̄ = Σ* - L is also regular.</text>
    
    <g transform="translate(40, 635)">
      <rect x="0" y="0" width="300" height="45" rx="8" fill="url(#redGrad)"/>
      <text x="150" y="18" text-anchor="middle" class="formula">M' = (Q, Σ, δ, q₀, Q-F)</text>
      <text x="150" y="35" text-anchor="middle" class="label" fill="#c62828">Flip all accepting states</text>
    </g>
    
    <!-- Visual example -->
    <g transform="translate(360, 630)">
      <text x="80" y="5" text-anchor="middle" class="label" fill="#1976d2">Before (accepts L)</text>
      <circle cx="40" cy="30" r="15" fill="#fff" stroke="#1976d2" stroke-width="2"/>
      <text x="40" y="35" text-anchor="middle" class="label">q₀</text>
      <circle cx="100" cy="30" r="15" fill="#f44336" stroke="#c62828" stroke-width="3"/>
      <text x="100" y="35" text-anchor="middle" class="label">q₁</text>
      <text x="120" y="35" class="label" fill="#c62828">✓</text>
      
      <path d="M160 30 L200 30" stroke="#1976d2" stroke-width="2"/>
      <text x="180" y="20" text-anchor="middle" class="label">Flip</text>
      
      <circle cx="260" cy="30" r="15" fill="#fff" stroke="#1976d2" stroke-width="2"/>
      <text x="260" y="35" text-anchor="middle" class="label">q₀</text>
      <circle cx="320" cy="30" r="15" fill="#4caf50" stroke="#2e7d32" stroke-width="3"/>
      <text x="320" y="35" text-anchor="middle" class="label">q₁</text>
      <text x="340" y="35" class="label" fill="#2e7d32">✓</text>
      <text x="290" y="60" text-anchor="middle" class="label" fill="#2e7d32">Now accepts L̄</text>
    </g>
    
    <text x="40" y="680" class="label" fill="#666">Note: Requires DFA (complete & deterministic). NFAs must be converted first.</text>
  </g>

  <!-- STEP 7: Difference Closure -->
  <g class="step" id="step7" data-narration="For set difference, we express it as intersection with complement: L₁ - L₂ = L₁ ∩ L̄₂, both regular operations.">
    <rect x="20" y="680" width="760" height="85" rx="10" fill="white" filter="url(#shadow)"/>
    <text x="40" y="705" class="title-text" fill="#1976d2">4. Closure Under Difference</text>
    <text x="40" y="725" class="label" fill="#333">If L₁ and L₂ are regular, then L₁ - L₂ is also regular.</text>
    
    <g transform="translate(40, 740)">
      <rect x="0" y="0" width="400" height="35" rx="8" fill="url(#blueGrad)"/>
      <text x="200" y="22" text-anchor="middle" class="formula">L₁ - L₂ = L₁ ∩ L̄₂</text>
    </g>
    
    <g transform="translate(460, 735)">
      <circle cx="30" cy="20" r="20" fill="url(#greenGrad)" stroke="#2e7d32"/>
      <text x="30" y="25" text-anchor="middle" class="label">L₁</text>
      <text x="60" y="25" class="label">∩</text>
      <rect x="75" y="0" width="60" height="40" rx="5" fill="url(#redGrad)"/>
      <text x="105" y="20" text-anchor="middle" class="label" fill="#c62828">L̄₂</text>
      <text x="145" y="25" class="label">=</text>
      <circle cx="190" cy="20" r="20" fill="url(#purpleGrad)" stroke="#7b1fa2"/>
      <text x="190" y="25" text-anchor="middle" class="label">L₁-L₂</text>
      <text x="220" y="25" class="label" fill="#2e7d32">REGULAR</text>
    </g>
  </g>

  <!-- STEP 8: Concatenation Closure -->
  <g class="step" id="step8" data-narration="For concatenation, we connect NFAs with epsilon transitions from all accepting states of L₁ to the start state of L₂.">
    <rect x="20" y="775" width="760" height="95" rx="10" fill="white" filter="url(#shadow)"/>
    <text x="40" y="800" class="title-text" fill="#1976d2">5. Closure Under Concatenation</text>
    <text x="40" y="820" class="label" fill="#333">If L₁ and L₂ are regular, then L₁L₂ is also regular.</text>
    
    <!-- Two NFAs being concatenated -->
    <g transform="translate(30, 835)">
      <text x="70" y="0" text-anchor="middle" class="label" fill="#1976d2">M₁ (accepts L₁)</text>
      <circle cx="40" cy="25" r="15" fill="#fff" stroke="#1976d2" stroke-width="2"/>
      <circle cx="40" cy="25" r="3" fill="#1976d2"/>
      <text x="40" y="29" text-anchor="middle" class="label" fill="#fff" font-size="6">→</text>
      <circle cx="100" cy="25" r="15" fill="#4caf50" stroke="#2e7d32" stroke-width="2"/>
      <text x="100" y="29" text-anchor="middle" class="label">f₁</text>
      <path d="M55 25 L85 25" stroke="#1976d2" stroke-width="2" marker-end="url(#arrowBlue)"/>
      <text x="70" y="18" class="label">a</text>
    </g>
    
    <g transform="translate(200, 835)">
      <text x="70" y="0" text-anchor="middle" class="label" fill="#1976d2">M₂ (accepts L₂)</text>
      <circle cx="40" cy="25" r="15" fill="#fff" stroke="#1976d2" stroke-width="2"/>
      <circle cx="40" cy="25" r="3" fill="#1976d2"/>
      <circle cx="100" cy="25" r="15" fill="#4caf50" stroke="#2e7d32" stroke-width="2"/>
      <text x="100" y="29" text-anchor="middle" class="label">f₂</text>
      <path d="M55 25 L85 25" stroke="#1976d2" stroke-width="2" marker-end="url(#arrowBlue)"/>
    </g>
    
    <!-- Arrow and combined -->
    <g transform="translate(320, 840)">
      <path d="M30 15 L50 15" stroke="#333" stroke-width="2" marker-end="url(#arrowGreen)"/>
      <text x="40" y="8" text-anchor="middle" class="label" fill="#666">ε-transition</text>
      
      <rect x="70" y="0" width="180" height="50" rx="8" fill="url(#greenGrad)"/>
      <text x="160" y="20" text-anchor="middle" class="label" fill="#2e7d32">Add ε-transitions from</text>
      <text x="160" y="35" text-anchor="middle" class="label" fill="#2e7d32">all accepting states of M₁ → start of M₂</text>
      
      <circle cx="60" cy="25" r="15" fill="#fff" stroke="#1976d2" stroke-width="2"/>
      <text x="60" y="29" text-anchor="middle" class="label">s</text>
    </g>
  </g>

  <!-- STEP 9: Kleene Star Closure -->
  <g class="step" id="step9" data-narration="For Kleene star, we add a new accepting start state and connect all original accepting states back to start with epsilon transitions.">
    <rect x="20" y="880" width="760" height="95" rx="10" fill="white" filter="url(#shadow)"/>
    <text x="40" y="905" class="title-text" fill="#1976d2">6. Closure Under Kleene Star</text>
    <text x="40" y="925" class="label" fill="#333">If L is regular, then L* is also regular (includes ε).</text>
    
    <!-- Original NFA -->
    <g transform="translate(30, 940)">
      <text x="50" y="0" text-anchor="middle" class="label" fill="#666">Original M</text>
      <circle cx="30" cy="25" r="12" fill="#fff" stroke="#1976d2" stroke-width="2"/>
      <text x="30" y="29" text-anchor="middle" class="label">s</text>
      <circle cx="90" cy="25" r="12" fill="#4caf50" stroke="#2e7d32" stroke-width="2"/>
      <text x="90" y="29" text-anchor="middle" class="label">f</text>
      <path d="M42 25 L78 25" stroke="#1976d2" stroke-width="2" marker-end="url(#arrowBlue)"/>
    </g>
    
    <!-- Arrow -->
    <path d="M160 965 L200 965" stroke="#333" stroke-width="2" marker-end="url(#arrowGreen)"/>
    
    <!-- Modified NFA -->
    <g transform="translate(220, 940)">
      <text x="100" y="0" text-anchor="middle" class="label" fill="#2e7d32">New NFA for L*</text>
      <circle cx="50" cy="25" r="15" fill="#4caf50" stroke="#2e7d32" stroke-width="3"/>
      <circle cx="50" cy="25" r="3" fill="#1976d2"/>
      <text x="50" y="29" text-anchor="middle" class="label" fill="#fff" font-size="6">→</text>
      <text x="50" y="45" text-anchor="middle" class="label" fill="#2e7d32">s',f'</text>
      
      <circle cx="130" cy="25" r="12" fill="#fff" stroke="#1976d2" stroke-width="2"/>
      <text x="130" y="29" text-anchor="middle" class="label">q</text>
      <circle cx="180" cy="25" r="12" fill="#4caf50" stroke="#2e7d32" stroke-width="2"/>
      <text x="180" y="29" text-anchor="middle" class="label">f</text>
      
      <path d="M65 25 L118 25" stroke="#1976d2" stroke-width="2" marker-end="url(#arrowBlue)"/>
      <path d="M180 37 L180 60 L50 60 L50 37" stroke="#2e7d32" stroke-width="2" fill="none" stroke-dasharray="5,3"/>
      <path d="M180 37 L180 60 L50 60 L50 37" stroke="#2e7d32" stroke-width="2" fill="none" marker-end="url(#arrowGreen)"/>
      <text x="200" y="70" class="label" fill="#666">ε (loop back)</text>
    </g>
    
    <text x="450" y="960" class="label" fill="#666">New start is accepting → accepts ε</text>
  </g>

  <!-- STEP 10: Reversal Closure -->
  <g class="step" id="step10" data-narration="For reversal, we reverse all transitions, swap start and accepting states, and add a new start with epsilon to original acceptings.">
    <rect x="20" y="985" width="760" height="85" rx="10" fill="white" filter="url(#shadow)"/>
    <text x="40" y="1010" class="title-text" fill="#1976d2">7. Closure Under Reversal</text>
    <text x="40" y="1030" class="label" fill="#333">If L is regular, then Lᴿ (reversal of all strings) is also regular.</text>
    
    <g transform="translate(40, 1045)">
      <rect x="0" y="0" width="350" height="35" rx="8" fill="url(#purpleGrad)"/>
      <text x="175" y="22" text-anchor="middle" class="formula">Reverse all transitions, swap start ↔ accepting</text>
    </g>
    
    <!-- Example -->
    <g transform="translate(420, 1040)">
      <text x="80" y="0" text-anchor="middle" class="label" fill="#1976d2">Example</text>
      <circle cx="30" cy="20" r="12" fill="#fff" stroke="#1976d2" stroke-width="2"/>
      <circle cx="30" cy="20" r="2" fill="#1976d2"/>
      <text x="30" y="35" text-anchor="middle" class="label">s</text>
      <circle cx="80" cy="20" r="12" fill="#4caf50" stroke="#2e7d32" stroke-width="2"/>
      <text x="80" y="35" text-anchor="middle" class="label">f</text>
      <path d="M42 20 L68 20" stroke="#1976d2" stroke-width="2" marker-end="url(#arrowBlue)"/>
      <text x="55" y="15" class="label">a</text>
      
      <path d="M130 20 L160 20" stroke="#333" stroke-width="2" marker-end="url(#arrowGreen)"/>
      <text x="145" y="12" class="label">Reverse</text>
      
      <circle cx="210" cy="20" r="12" fill="#4caf50" stroke="#2e7d32" stroke-width="2"/>
      <circle cx="210" cy="20" r="2" fill="#1976d2"/>
      <text x="210" y="35" text-anchor="middle" class="label">s'</text>
      <circle cx="260" cy="20" r="12" fill="#fff" stroke="#1976d2" stroke-width="2"/>
      <text x="260" y="35" text-anchor="middle" class="label">f'</text>
      <path d="M238 20 L222 20" stroke="#1976d2" stroke-width="2" marker-end="url(#arrowBlue)"/>
      <text x="230" y="12" class="label">a</text>
      <text x="260" y="5" class="label" fill="#2e7d32">← accepts "a"ᴿ = "a"</text>
    </g>
  </g>

  <!-- STEP 11: Homomorphism Closure -->
  <g class="step" id="step11" data-narration="A homomorphism maps each symbol to a string. Regular languages remain regular when we apply a homomorphism to all strings.">
    <rect x="20" y="1080" width="760" height="85" rx="10" fill="white" filter="url(#shadow)"/>
    <text x="40" y="1105" class="title-text" fill="#1976d2">8. Closure Under Homomorphism</text>
    <text x="40" y="1125" class="label" fill="#333">If L is regular and h is a homomorphism, then h(L) is also regular.</text>
    
    <g transform="translate(40, 1140)">
      <rect x="0" y="0" width="280" height="35" rx="8" fill="url(#blueGrad)"/>
      <text x="140" y="18" text-anchor="middle" class="label">Homomorphism: h: Σ → Δ* maps symbols to strings</text>
    </g>
    
    <g transform="translate(340, 1140)">
      <text x="0" y="18" class="label" fill="#333">Example: h(0)=ab, h(1)=ba</text>
      <text x="180" y="18" class="label" fill="#333">h(01) = abba</text>
    </g>
    
    <g transform="translate(40, 1175)">
      <rect x="0" y="0" width="350" height="30" rx="8" fill="url(#greenGrad)"/>
      <text x="175" y="20" text-anchor="middle" class="formula">h(L) = {h(w) : w ∈ L}</text>
    </g>
    <text x="400" y="1195" class="label" fill="#2e7d32">REGULAR ✓</text>
  </g>

  <!-- STEP 12: Inverse Homomorphism Closure -->
  <g class="step" id="step12" data-narration="Inverse homomorphism finds all strings that, when mapped, land in the original regular language - this also preserves regularity.">
    <rect x="20" y="1175" width="760" height="85" rx="10" fill="white" filter="url(#shadow)"/>
    <text x="40" y="1200" class="title-text" fill="#1976d2">9. Closure Under Inverse Homomorphism</text>
    <text x="40" y="1220" class="label" fill="#333">If L is regular and h is a homomorphism, then h⁻¹(L) is also regular.</text>
    
    <g transform="translate(40, 1235)">
      <rect x="0" y="0" width="380" height="35" rx="8" fill="url(#purpleGrad)"/>
      <text x="190" y="22" text-anchor="middle" class="formula">h⁻¹(L) = {w ∈ Σ* : h(w) ∈ L}</text>
    </g>
    
    <g transform="translate(440, 1230)">
      <text x="50" y="0" text-anchor="middle" class="label" fill="#1976d2">Input</text>
      <text x="50" y="40" text-anchor="middle" class="label" fill="#7b1fa2">Output</text>
      <rect x="0" y="8" width="40" height="25" rx="5" fill="url(#blueGrad)"/>
      <text x="20" y="24" text-anchor="middle" class="label">w</text>
      <text x="50" y="24" class="label">→</text>
      <rect x="60" y="8" width="60" height="25" rx="5" fill="url(#orangeGrad)"/>
      <text x="90" y="24" text-anchor="middle" class="label">h(w)</text>
      <text x="90" y="40" text-anchor="middle" class="label" fill="#2e7d32">∈ L?</text>
      <circle cx="140" cy="20" r="15" fill="url(#greenGrad)" stroke="#2e7d32" stroke-width="2"/>
      <text x="140" y="25" text-anchor="middle" class="label" fill="#2e7d32">REG</text>
    </g>
  </g>

  <!-- STEP 13: Non-Closure -->
  <g class="step" id="step13" data-narration="Regular languages are NOT closed under infinite operations, infinite union, infinite intersection, or subset operations.">
    <rect x="20" y="1270" width="760" height="85" rx="10" fill="white" filter="url(#shadow)"/>
    <text x="40" y="1295" class="title-text" fill="#c62828">NOT Closed Under:</text>
    
    <g transform="translate(40, 1315)">
      <rect x="0" y="0" width="140" height="50" rx="8" fill="url(#redGrad)"/>
      <text x="70" y="18" text-anchor="middle" class="label" fill="#c62828">Infinite Union</text>
      <text x="70" y="35" text-anchor="middle" class="label" fill="#666">Σ* is not closed</text>
      
      <rect x="160" y="0" width="140" height="50" rx="8" fill="url(#redGrad)"/>
      <text x="230" y="18" text-anchor="middle" class="label" fill="#c62828">Infinite Intersection</text>
      <text x="230" y="35" text-anchor="middle" class="label" fill="#666">Σ* is not closed</text>
      
      <rect x="320" y="0" width="140" height="50" rx="8" fill="url(#redGrad)"/>
      <text x="390" y="18" text-anchor="middle" class="label" fill="#c62828">Subset (only one way)</text>
      <text x="390" y="35" text-anchor="middle" class="label" fill="#666">Regular ⊄ Regular</text>
    </g>
  </g>

  <!-- STEP 14: Example Proving Non-Regular -->
  <g class="step" id="step14" data-narration="We use closure properties to prove non-regularity: assume L is regular, use intersection with a* b*, get contradiction with pumping lemma.">
    <rect x="20" y="1365" width="760" height="95" rx="10" fill="white" filter="url(#shadow)"/>
    <text x="40" y="1390" class="title-text" fill="#1976d2">Example: Proving {aⁿbⁿ : n≥1} is NOT Regular</text>
    
    <g transform="translate(40, 1410)">
      <rect x="0" y="0" width="720" height="60" rx="8" fill="url(#orangeGrad)"/>
      <text x="360" y="18" text-anchor="middle" class="label" fill="#333">Step 1: Assume L = {aⁿbⁿ : n≥1} is regular</text>
      <text x="360" y="35" text-anchor="middle" class="label" fill="#333">Step 2: L ∩ a* b* = L (since L ⊆ a* b*)</text>
      <text x="360" y="50" text-anchor="middle" class="label" fill="#c62828">Step 3: If L were regular, L would be regular (intersection with regular)</text>
    </g>
    
    <g transform="translate(40, 1475)">
      <rect x="0" y="0" width="720" height="35" rx="8" fill="url(#redGrad)"/>
      <text x="360" y="22" text-anchor="middle" class="label" fill="#333">But L = {aⁿbⁿ : n≥1} is NOT regular (by Pumping Lemma)</text>
      <text x="640" y="22" text-anchor="middle" class="label" fill="#c62828">CONTRADICTION!</text>
    </g>
  </g>

  <!-- STEP 15: Summary -->
  <g class="step" id="step15" data-narration="Let's summarize: Regular languages are closed under all finite operations including union, intersection, complement, and more.">
    <rect x="20" y="1510" width="760" height="95" rx="10" fill="url(#blueGrad)" filter="url(#shadow)"/>
    <text x="40" y="1535" class="title-text" fill="#1565c0">Summary: Closure Properties</text>
    
    <g transform="translate(40, 1555)">
      <text x="0" y="0" class="label" fill="#2e7d32">CLOSED ✓: Union, Intersection, Complement, Difference,</text>
      <text x="0" y="15" class="label" fill="#2e7d32">Concatenation, Kleene Star, Reversal, Homomorphism,</text>
      <text x="0" y="30" class="label" fill="#2e7d32">Inverse Homomorphism</text>
    </g>
    
    <g transform="translate(450, 1555)">
      <text x="0" y="0" class="label" fill="#c62828">NOT CLOSED: Infinite Union,</text>
      <text x="0" y="15" class="label" fill="#c62828">Infinite Intersection, Powerset</text>
    </g>
    
    <text x="400" y="1600" text-anchor="middle" class="title-text" fill="#1565c0">Key Takeaway: Closure properties help prove non-regularity!</text>
  </g>

  <!-- STEP 16: Final Exam Tips -->
  <g class="step" id="step16" data-narration="For exams: memorize which operations preserve regularity, know product construction, and practice using closure for non-regularity proofs.">
    <rect x="20" y="1615" width="760" height="60" rx="10" fill="white" filter="url(#shadow)"/>
    <text x="40" y="1640" class="title-text" fill="#1976d2">Exam Tips</text>
    <text x="40" y="1660" class="label" fill="#333">• Product automaton: union uses OR condition, intersection uses AND condition</text>
    <text x="400" y="1660" class="label" fill="#333">• Complement needs DFA (convert NFA first)</text>
    <text x="600" y="1660" class="label" fill="#333">• Use closure to prove non-regularity!</text>
  </g>

</svg>