<svg width="420" height="400" data-topic-id="requirement-modeling-strategies-flow-oriented-mode">
  <defs>
    <linearGradient id="pastel-gradient" x1="0%" y1="0%" x2="100%" y2="0%">
      <stop offset="0%" stop-color="#C7B8EA" stop-opacity="1" />
      <stop offset="100%" stop-color="#C5CAE9" stop-opacity="1" />
    </linearGradient>
  </defs>
  <title>Requirement Modeling Strategies: Flow Oriented Mode</title>
  <rect x="10" y="10" width="400" height="380" fill="url(#pastel-gradient)" rx="10" />
  <g transform="translate(20, 20)">
    <rect x="0" y="0" width="100" height="20" fill="#2E4053" rx="5" />
    <text x="10" y="15" font-size="16" font-family="Arial" fill="#66CCCC">Introduction</text>
    <animateTransform attributeName="transform" type="rotate" from="0 100 0" to="360 100 0" dur="10s" repeatCount="indefinite" />
  </g>
  <g transform="translate(120, 20)">
    <rect x="0" y="0" width="100" height="20" fill="#2E4053" rx="5" />
    <text x="10" y="15" font-size="16" font-family="Arial" fill="#66CCCC">Definition of Requirement Modeling</text>
    <animateTransform attributeName="transform" type="rotate" from="0 100 0" to="360 100 0" dur="10s" repeatCount="indefinite" />
  </g>
  <g transform="translate(240, 20)">
    <rect x="0" y="0" width="100" height="20" fill="#2E4053" rx="5" />
    <text x="10" y="15" font-size="16" font-family="Arial" fill="#66CCCC">Types of Requirement Modeling</text>
    <animateTransform attributeName="transform" type="rotate" from="0 100 0" to="360 100 0" dur="10s" repeatCount="indefinite" />
  </g>
  <g transform="translate(360, 20)">
    <rect x="0" y="0" width="100" height="20" fill="#2E4053" rx="5" />
    <text x="10" y="15" font-size="16" font-family="Arial" fill="#66CCCC">Flow-Oriented Modeling Techniques</text>
    <animateTransform attributeName="transform" type="rotate" from="0 100 0" to="360 100 0" dur="10s" repeatCount="indefinite" />
  </g>
  <g transform="translate(500, 20)">
    <rect x="0" y="0" width="100" height="20" fill="#2E4053" rx="5" />
    <text x="10" y="15" font-size="16" font-family="Arial" fill="#66CCCC">Five-Step Flow Model</text>
    <animateTransform attributeName="transform" type="rotate" from="0 100 0" to="360 100 0" dur="10s" repeatCount="indefinite" />
  </g>
  <g transform="translate(650, 20)">
    <rect x="0" y="0" width="100" height="20" fill="#2E4053" rx="5" />
    <text x="10" y="15" font-size="16" font-family="Arial" fill="#66CCCC">Structured Analysis</text>
    <animateTransform attributeName="transform" type="rotate" from="0 100 0" to="360 100 0" dur="10s" repeatCount="indefinite" />
  </g>
  <g transform="translate(800, 20)">
    <rect x="0" y="0" width="100" height="20" fill="#2E4053" rx="5" />
    <text x="10" y="15" font-size="16" font-family="Arial" fill="#66CCCC">Object-Oriented Analysis and Design (OOAD)</text>
    <animateTransform attributeName="transform" type="rotate" from="0 100 0" to="360 100 0" dur="10s" repeatCount="indefinite" />
  </g>
  <g transform="translate(950, 20)">
    <rect x="0" y="0" width="100" height="20" fill="#2E4053" rx="5" />
    <text x="10" y="15" font-size="16" font-family="Arial" fill="#66CCCC">Conclusion</text>
    <animateTransform attributeName="transform" type="rotate" from="0 100 0" to="360 100 0" dur="10s" repeatCount="indefinite" />
  </g>
  <g transform="translate(1200, 20)">
    <rect x="0" y="0" width="100" height="20" fill="#2E4053" rx="5" />
    <text x="10" y="15" font-size="16" font-family="Arial" fill="#66CCCC">References</text>
    <animateTransform attributeName="transform" type="rotate" from="0 100 0" to="360 100 0" dur="10s" repeatCount="indefinite" />
  </g>
  <g transform="translate(1400, 20)">
    <rect x="0" y="0" width="100" height="20" fill="#2E4053" rx="5" />
    <text x="10" y="15" font-size="16" font-family="Arial" fill="#66CCCC">About Us</text>
    <animateTransform attributeName="transform" type="rotate" from="0 100 0" to="360 100 0" dur="10s" repeatCount="indefinite" />
  </g>
  <footer>
    <g transform="translate(10, 380)">
      <rect x="0" y="0" width="100" height="20" fill="#2E4053" rx="5" />
      <text x="10" y="15" font-size="16" font-family="Arial" fill="#66CCCC">Copyright 2023</text>
      <animateTransform attributeName="transform" type="rotate" from="0 100 0" to="360 100 0" dur="10s" repeatCount="indefinite" />
    </g>
  </footer>
</svg>