<svg xmlns="http://www.w3.org/2000/svg" viewBox="0 0 800 1450">
  <defs>
    <!-- Gradients -->
    <linearGradient id="bgGradient" x1="0%" y1="0%" x2="100%" y2="100%">
      <stop offset="0%" stop-color="#f8f9fa"/>
      <stop offset="100%" stop-color="#e9ecef"/>
    </linearGradient>
    <linearGradient id="blueGrad" x1="0%" y1="0%" x2="100%" y2="100%">
      <stop offset="0%" stop-color="#e3f2fd"/>
      <stop offset="100%" stop-color="#bbdefb"/>
    </linearGradient>
    <linearGradient id="greenGrad" x1="0%" y1="0%" x2="100%" y2="100%">
      <stop offset="0%" stop-color="#e8f5e9"/>
      <stop offset="100%" stop-color="#c8e6c9"/>
    </linearGradient>
    <linearGradient id="orangeGrad" x1="0%" y1="0%" x2="100%" y2="100%">
      <stop offset="0%" stop-color="#fff3e0"/>
      <stop offset="100%" stop-color="#ffe0b2"/>
    </linearGradient>
    <linearGradient id="redGrad" x1="0%" y1="0%" x2="100%" y2="100%">
      <stop offset="0%" stop-color="#ffebee"/>
      <stop offset="100%" stop-color="#ffcdd2"/>
    </linearGradient>
    <linearGradient id="purpleGrad" x1="0%" y1="0%" x2="100%" y2="100%">
      <stop offset="0%" stop-color="#f3e5f5"/>
      <stop offset="100%" stop-color="#e1bee7"/>
    </linearGradient>
    <!-- Arrow marker -->
    <marker id="arrowBlue" markerWidth="10" markerHeight="10" refX="9" refY="3" orient="auto" markerUnits="strokeWidth">
      <path d="M0,0 L0,6 L9,3 z" fill="#1976d2"/>
    </marker>
    <marker id="arrowGreen" markerWidth="10" markerHeight="10" refX="9" refY="3" orient="auto" markerUnits="strokeWidth">
      <path d="M0,0 L0,6 L9,3 z" fill="#388e3c"/>
    </marker>
    <!-- Shadow filter -->
    <filter id="shadow" x="-20%" y="-20%" width="140%" height="140%">
      <feDropShadow dx="2" dy="2" stdDeviation="3" flood-opacity="0.2"/>
    </filter>
    <filter id="shadowLight" x="-20%" y="-20%" width="140%" height="140%">
      <feDropShadow dx="1" dy="1" stdDeviation="2" flood-opacity="0.15"/>
    </filter>
  </defs>
  
  <style>
    @keyframes fadeInSlide {
      from { opacity: 0; transform: translateY(20px); }
      to { opacity: 1; transform: translateY(0); }
    }
    @keyframes scaleIn {
      from { opacity: 0; transform: scale(0.85); }
      to { opacity: 1; transform: scale(1); }
    }
    @keyframes textReveal {
      from { opacity: 0; transform: translateX(-10px); }
      to { opacity: 1; transform: translateX(0); }
    }
    @keyframes pulse {
      0%, 100% { transform: scale(1); }
      50% { transform: scale(1.03); }
    }
    @keyframes drawLine {
      from { stroke-dashoffset: 500; }
      to { stroke-dashoffset: 0; }
    }
    @keyframes fadeIn {
      from { opacity: 0; }
      to { opacity: 1; }
    }
    .step { animation: fadeInSlide 0.6s ease-out; }
    .step rect {
      animation: scaleIn 0.5s cubic-bezier(0.34, 1.56, 0.64, 1);
      transform-origin: center;
    }
    .step text { animation: textReveal 0.4s ease-out 0.2s backwards; }
    .formula { font-family: 'Times New Roman', serif; font-style: italic; }
    .title-text { font-family: Arial, sans-serif; font-weight: bold; }
    .body-text { font-family: Arial, sans-serif; }
    .line-anim { stroke-dasharray: 500; stroke-dashoffset: 500; animation: drawLine 1.5s ease-out forwards; }
    .fade-anim { opacity: 0; animation: fadeIn 0.5s ease-out forwards; }
  </style>

  <!-- Background -->
  <rect width="800" height="1450" fill="#f8f9fa"/>

  <!-- Step 0: Title -->
  <g class="step" id="step0" data-narration="Welcome to Polynomial Regression! Today we will explore how to model curved relationships in data using this powerful extension of linear regression.">
    <rect x="20" y="10" width="760" height="40" rx="8" fill="#1976d2" filter="url(#shadow)"/>
    <text x="400" y="38" text-anchor="middle" fill="white" font-size="18" font-weight="bold" class="title-text">Polynomial Regression</text>
  </g>

  <!-- Step 1: What is Polynomial Regression -->
  <g class="step" id="step1" data-narration="Polynomial regression models non-linear relationships by adding powers of features. It captures curved patterns that straight lines cannot represent.">
    <rect x="20" y="60" width="760" height="90" rx="8" fill="url(#blueGrad)" filter="url(#shadowLight)"/>
    <text x="40" y="85" fill="#1565c0" font-size="13" font-weight="bold" class="title-text">What is Polynomial Regression?</text>
    <text x="40" y="108" fill="#333" font-size="10" class="body-text">Extension of linear regression that models non-linear relationships using</text>
    <text x="40" y="123" fill="#333" font-size="10" class="body-text">polynomial terms: y = w0 + w1x + w2x2 + w3x3 + ... + wnxn</text>
    <text x="40" y="138" fill="#666" font-size="9" class="body-text">Still "linear in parameters" uses OLS for estimation!</text>
    <path d="M650,75 Q700,95 750,85" fill="none" stroke="#1976d2" stroke-width="3" stroke-linecap="round"/>
    <circle cx="670" cy="90" r="4" fill="#1976d2"/>
    <circle cx="700" cy="95" r="4" fill="#1976d2"/>
    <circle cx="730" cy="88" r="4" fill="#1976d2"/>
  </g>

  <!-- Step 2: Linear vs Non-Linear -->
  <g class="step" id="step2" data-narration="Real-world data often has curved patterns. A straight line fails to capture these, but polynomial curves flex to fit the underlying relationship.">
    <rect x="20" y="160" width="370" height="90" rx="8" fill="url(#redGrad)" filter="url(#shadowLight)"/>
    <text x="40" y="185" fill="#c62828" font-size="12" font-weight="bold" class="title-text">Linear: Y = b0 + b1X</text>
    <line x1="50" y1="220" x2="350" y2="220" stroke="#f44336" stroke-width="3"/>
    <text x="40" y="238" fill="#666" font-size="9" class="body-text">Can only capture straight-line relationships</text>
    <rect x="410" y="160" width="370" height="90" rx="8" fill="url(#greenGrad)" filter="url(#shadowLight)"/>
    <text x="430" y="185" fill="#2e7d32" font-size="12" font-weight="bold" class="title-text">Polynomial: Captures Curves</text>
    <path d="M440,230 Q500,200 560,220 Q620,240 680,210" fill="none" stroke="#388e3c" stroke-width="3" stroke-linecap="round"/>
    <text x="430" y="238" fill="#666" font-size="9" class="body-text">Models U-shapes, S-curves, and more</text>
  </g>

  <!-- Step 3: Mathematical Formulation -->
  <g class="step" id="step3" data-narration="The polynomial regression equation extends linear regression by including higher-order terms. Each coefficient multiplies its corresponding power of x.">
    <rect x="20" y="260" width="760" height="90" rx="8" fill="url(#purpleGrad)" filter="url(#shadowLight)"/>
    <text x="40" y="285" fill="#7b1fa2" font-size="13" font-weight="bold" class="title-text">Mathematical Formulation</text>
    <text x="40" y="315" fill="#333" font-size="11" class="formula">Y = b0 + b1X + b2X2 + b3X3 + ... + bnXn + epsilon</text>
    <text x="40" y="335" fill="#666" font-size="9" class="body-text">Where: n=degree, b=coefficients, epsilon=error term</text>
    <rect x="450" y="295" width="80" height="35" rx="5" fill="#f3e5f5" stroke="#9c27b0" stroke-width="1"/>
    <text x="490" y="310" text-anchor="middle" fill="#7b1fa2" font-size="9" class="body-text">Degree 1</text>
    <text x="490" y="322" text-anchor="middle" fill="#333" font-size="8" class="body-text">Linear</text>
    <rect x="540" y="295" width="80" height="35" rx="5" fill="#f3e5f5" stroke="#9c27b0" stroke-width="1"/>
    <text x="580" y="310" text-anchor="middle" fill="#7b1fa2" font-size="9" class="body-text">Degree 2</text>
    <text x="580" y="322" text-anchor="middle" fill="#333" font-size="8" class="body-text">Quadratic</text>
    <rect x="630" y="295" width="80" height="35" rx="5" fill="#f3e5f5" stroke="#9c27b0" stroke-width="1"/>
    <text x="670" y="310" text-anchor="middle" fill="#7b1fa2" font-size="9" class="body-text">Degree 3</text>
    <text x="670" y="322" text-anchor="middle" fill="#333" font-size="8" class="body-text">Cubic</text>
  </g>

  <!-- Step 4: Common Degrees Visualization -->
  <g class="step" id="step4" data-narration="Different polynomial degrees create different curve shapes. Degree 1 is a line, degree 2 creates parabolas, and degree 3 creates S-curves.">
    <rect x="20" y="360" width="760" height="90" rx="8" fill="url(#blueGrad)" filter="url(#shadowLight)"/>
    <text x="40" y="385" fill="#1565c0" font-size="13" font-weight="bold" class="title-text">Common Degrees</text>
    <g transform="translate(50, 395)">
      <text x="40" y="0" fill="#666" font-size="8" text-anchor="middle">Degree 1 (Linear)</text>
      <line x1="20" y1="30" x2="120" y2="10" stroke="#1976d2" stroke-width="2"/>
    </g>
    <g transform="translate(180, 395)">
      <text x="40" y="0" fill="#666" font-size="8" text-anchor="middle">Degree 2 (Quadratic)</text>
      <path d="M20,30 Q40,0 80,30" fill="none" stroke="#1976d2" stroke-width="2"/>
    </g>
    <g transform="translate(310, 395)">
      <text x="40" y="0" fill="#666" font-size="8" text-anchor="middle">Degree 3 (Cubic)</text>
      <path d="M10,25 Q30,35 50,20 Q70,5 90,25" fill="none" stroke="#1976d2" stroke-width="2"/>
    </g>
    <g transform="translate(440, 395)">
      <text x="40" y="0" fill="#666" font-size="8" text-anchor="middle">Degree 4</text>
      <path d="M10,30 Q25,10 40,30 Q55,50 70,30 Q85,10 100,30" fill="none" stroke="#1976d2" stroke-width="2"/>
    </g>
    <g transform="translate(570, 395)">
      <text x="40" y="0" fill="#666" font-size="8" text-anchor="middle">Degree 5</text>
      <path d="M5,25 Q20,40 30,25 Q40,10 50,25 Q60,40 70,25 Q80,10 95,25" fill="none" stroke="#1976d2" stroke-width="2"/>
    </g>
  </g>

  <!-- Step 5: Linear in Parameters -->
  <g class="step" id="step5" data-narration="Despite modeling curves, polynomial regression is linear in parameters. This means we can use standard OLS estimation because coefficients combine additively.">
    <rect x="20" y="460" width="760" height="90" rx="8" fill="url(#greenGrad)" filter="url(#shadowLight)"/>
    <text x="40" y="485" fill="#2e7d32" font-size="13" font-weight="bold" class="title-text">Linear in Parameters (Key Concept!)</text>
    <text x="40" y="515" fill="#333" font-size="11" class="formula">y = w0 + w1x + w2x2 + w3x3</text>
    <text x="40" y="535" fill="#666" font-size="9" class="body-text">Linear COMBINATION of coefficients - NOT linear in features</text>
    <rect x="400" y="480" width="140" height="50" rx="6" fill="#e8f5e9" stroke="#388e3c" stroke-width="2"/>
    <text x="470" y="505" text-anchor="middle" fill="#2e7d32" font-size="10" font-weight="bold">STILL LINEAR!</text>
    <text x="470" y="520" text-anchor="middle" fill="#666" font-size="8">Uses OLS estimation</text>
    <path d="M560,505 L610,505" fill="none" stroke="#388e3c" stroke-width="2" marker-end="url(#arrowGreen)"/>
    <rect x="620" y="480" width="140" height="50" rx="6" fill="#e8f5e9" stroke="#388e3c" stroke-width="2"/>
    <text x="690" y="502" text-anchor="middle" fill="#2e7d32" font-size="10" font-weight="bold">Parameters</text>
    <text x="690" y="517" text-anchor="middle" fill="#666" font-size="8">w0, w1, w2...</text>
  </g>

  <!-- Step 6: Feature Transformation -->
  <g class="step" id="step6" data-narration="Implementation uses feature transformation: create new columns X squared, X cubed, and so on, then apply standard linear regression on the expanded matrix.">
    <rect x="20" y="560" width="760" height="90" rx="8" fill="url(#orangeGrad)" filter="url(#shadowLight)"/>
    <text x="40" y="585" fill="#e65100" font-size="13" font-weight="bold" class="title-text">Implementation: Feature Transformation</text>
    <rect x="40" y="600" width="80" height="35" rx="5" fill="#fff3e0" stroke="#ff9800" stroke-width="1"/>
    <text x="80" y="618" text-anchor="middle" fill="#333" font-size="9" class="body-text">X</text>
    <text x="80" y="630" text-anchor="middle" fill="#666" font-size="7">original</text>
    <text x="135" y="622" fill="#ff9800" font-size="14">-</text>
    <rect x="150" y="600" width="140" height="35" rx="5" fill="#fff3e0" stroke="#ff9800" stroke-width="1"/>
    <text x="220" y="618" text-anchor="middle" fill="#333" font-size="9" class="body-text">1, X, X2, X3, ...</text>
    <text x="220" y="630" text-anchor="middle" fill="#666" font-size="7">design matrix</text>
    <text x="305" y="622" fill="#ff9800" font-size="14">-</text>
    <rect x="320" y="600" width="80" height="35" rx="5" fill="#fff3e0" stroke="#ff9800" stroke-width="1"/>
    <text x="360" y="618" text-anchor="middle" fill="#333" font-size="9" class="body-text">OLS</text>
    <text x="360" y="630" text-anchor="middle" fill="#666" font-size="7">solve</text>
    <text x="415" y="622" fill="#ff9800" font-size="14">-</text>
    <rect x="430" y="600" width="80" height="35" rx="5" fill="#fff3e0" stroke="#ff9800" stroke-width="1"/>
    <text x="470" y="618" text-anchor="middle" fill="#333" font-size="9" class="body-text">Coeffs</text>
    <text x="470" y="630" text-anchor="middle" fill="#666" font-size="7">w0,w1,w2...</text>
    <text x="40" y="660" fill="#666" font-size="9" class="body-text">Formula: b = (XTX)XTY</text>
  </g>

  <!-- Step 7: Underfitting -->
  <g class="step" id="step7" data-narration="Underfitting occurs with low polynomial degrees. The model is too simple to capture non-linear patterns, resulting in high error on both training and test data.">
    <rect x="20" y="660" width="760" height="90" rx="8" fill="url(#redGrad)" filter="url(#shadowLight)"/>
    <text x="40" y="685" fill="#c62828" font-size="13" font-weight="bold" class="title-text">Underfitting (Degree Too Low)</text>
    <g transform="translate(40, 710)">
      <rect x="0" y="0" width="200" height="60" fill="white" stroke="#e0e0e0"/>
      <circle cx="30" cy="45" r="4" fill="#f44336"/>
      <circle cx="60" cy="35" r="4" fill="#f44336"/>
      <circle cx="90" cy="25" r="4" fill="#f44336"/>
      <circle cx="120" cy="18" r="4" fill="#f44336"/>
      <circle cx="150" cy="12" r="4" fill="#f44336"/>
      <circle cx="180" cy="8" r="4" fill="#f44336"/>
      <line x1="20" y1="50" x2="190" y2="5" stroke="#1976d2" stroke-width="2" stroke-dasharray="5,3"/>
    </g>
    <text x="260" y="720" fill="#333" font-size="10" class="body-text">- Straight line misses curved pattern</text>
    <text x="260" y="735" fill="#333" font-size="10" class="body-text">- High training AND test error</text>
    <text x="260" y="750" fill="#666" font-size="9" class="body-text">- Model is too simple for the data</text>
  </g>

  <!-- Step 8: Overfitting -->
  <g class="step" id="step8" data-narration="Overfitting happens with high degrees. The model passes through every training point but oscillates wildly, capturing noise rather than true patterns.">
    <rect x="20" y="760" width="760" height="90" rx="8" fill="url(#redGrad)" filter="url(#shadowLight)"/>
    <text x="40" y="785" fill="#c62828" font-size="13" font-weight="bold" class="title-text">Overfitting (Degree Too High)</text>
    <g transform="translate(40, 810)">
      <rect x="0" y="0" width="200" height="60" fill="white" stroke="#e0e0e0"/>
      <circle cx="30" cy="40" r="4" fill="#f44336"/>
      <circle cx="60" cy="35" r="4" fill="#f44336"/>
      <circle cx="90" cy="30" r="4" fill="#f44336"/>
      <circle cx="120" cy="25" r="4" fill="#f44336"/>
      <circle cx="150" cy="20" r="4" fill="#f44336"/>
      <path d="M10,50 Q30,10 50,45 Q70,60 90,20 Q110,50 130,10 Q150,40 170,55 Q190,30 200,45" fill="none" stroke="#1976d2" stroke-width="2"/>
    </g>
    <text x="260" y="820" fill="#333" font-size="10" class="body-text">- Passes through every training point</text>
    <text x="260" y="835" fill="#333" font-size="10" class="body-text">- Oscillates wildly between points</text>
    <text x="260" y="850" fill="#666" font-size="9" class="body-text">- Captures NOISE, not the true pattern</text>
    <rect x="500" y="800" width="260" height="40" rx="5" fill="#ffebee" stroke="#f44336"/>
    <text x="630" y="820" text-anchor="middle" fill="#c62828" font-size="10" font-weight="bold">Runge Phenomenon</text>
    <text x="630" y="833" text-anchor="middle" fill="#666" font-size="8">Oscillation at boundaries with high degree</text>
  </g>

  <!-- Step 9: Optimal Degree -->
  <g class="step" id="step9" data-narration="The optimal degree balances bias and variance. Use cross-validation to find the degree with lowest validation error, or plot error vs degree and find the elbow.">
    <rect x="20" y="860" width="760" height="90" rx="8" fill="url(#greenGrad)" filter="url(#shadowLight)"/>
    <text x="40" y="885" fill="#2e7d32" font-size="13" font-weight="bold" class="title-text">Optimal Degree Selection</text>
    <g transform="translate(40, 910)">
      <rect x="0" y="0" width="180" height="50" fill="white" stroke="#e0e0e0"/>
      <line x1="10" y1="45" x2="170" y2="45" stroke="#333" stroke-width="1"/>
      <line x1="10" y1="45" x2="10" y2="5" stroke="#333" stroke-width="1"/>
      <path d="M20,40 L50,35 L80,20 L110,8 L140,5 L170,3" fill="none" stroke="#388e3c" stroke-width="2" class="line-anim"/>
      <path d="M20,15 L50,25 L80,30 L110,35 L140,42 L170,44" fill="none" stroke="#f44336" stroke-width="2" class="line-anim"/>
      <text x="90" y="52" text-anchor="middle" fill="#666" font-size="7">Polynomial Degree</text>
    </g>
    <text x="240" y="910" fill="#333" font-size="9" class="body-text">Green: Training Error goes down</text>
    <text x="240" y="922" fill="#f44336" font-size="9" class="body-text">Red: Validation Error (U-shape)</text>
    <text x="240" y="934" fill="#666" font-size="9" class="body-text">Find the elbow where validation error is lowest</text>
    <rect x="500" y="895" width="260" height="45" rx="5" fill="#e8f5e9" stroke="#388e3c"/>
    <text x="630" y="910" text-anchor="middle" fill="#2e7d32" font-size="10" font-weight="bold">Selection Methods</text>
    <text x="630" y="925" text-anchor="middle" fill="#666" font-size="8">Cross-Validation - Elbow Method</text>
  </g>

  <!-- Step 10: Feature Scaling -->
  <g class="step" id="step10" data-narration="Feature scaling is critical for polynomial regression. Higher powers amplify magnitude differences dramatically, causing numerical instability without normalization.">
    <rect x="20" y="960" width="760" height="90" rx="8" fill="url(#orangeGrad)" filter="url(#shadowLight)"/>
    <text x="40" y="985" fill="#e65100" font-size="13" font-weight="bold" class="title-text">Feature Scaling (Critical!)</text>
    <g transform="translate(40, 1010)">
      <rect x="0" y="0" width="60" height="35" rx="4" fill="#fff3e0" stroke="#ff9800"/>
      <text x="30" y="15" text-anchor="middle" fill="#333" font-size="8">X</text>
      <text x="30" y="28" text-anchor="middle" fill="#666" font-size="7">1, 100</text>
    </g>
    <text x="115" y="1027" fill="#ff9800" font-size="14">-</text>
    <g transform="translate(135, 1010)">
      <rect x="0" y="0" width="60" height="35" rx="4" fill="#fff3e0" stroke="#ff9800"/>
      <text x="30" y="15" text-anchor="middle" fill="#333" font-size="8">X2</text>
      <text x="30" y="28" text-anchor="middle" fill="#666" font-size="7">1, 10,000</text>
    </g>
    <text x="210" y="1027" fill="#ff9800" font-size="14">-</text>
    <g transform="translate(230, 1010)">
      <rect x="0" y="0" width="60" height="35" rx="4" fill="#fff3e0" stroke="#ff9800"/>
      <text x="30" y="15" text-anchor="middle" fill="#333" font-size="8">X3</text>
      <text x="30" y="28" text-anchor="middle" fill="#666" font-size="7">1M</text>
    </g>
    <text x="320" y="1015" fill="#c62828" font-size="10" class="body-text">Massive scale differences!</text>
    <text x="320" y="1028" fill="#666" font-size="9" class="body-text">Without scaling: numerical instability</text>
    <rect x="480" y="1005" width="280" height="35" rx="5" fill="#fff3e0" stroke="#ff9800" stroke-width="2"/>
    <text x="620" y="1022" text-anchor="middle" fill="#e65100" font-size="10" font-weight="bold">ALWAYS normalize features!</text>
    <text x="620" y="1033" text-anchor="middle" fill="#666" font-size="8">StandardScaler or MinMaxScaler before polynomial features</text>
  </g>

  <!-- Step 11: Regularization -->
  <g class="step" id="step11" data-narration="Regularization prevents overfitting by penalizing large coefficients. Ridge (L2) shrinks all coefficients, while Lasso (L1) can eliminate unnecessary terms.">
    <rect x="20" y="1060" width="760" height="90" rx="8" fill="url(#purpleGrad)" filter="url(#shadowLight)"/>
    <text x="40" y="1085" fill="#7b1fa2" font-size="13" font-weight="bold" class="title-text">Regularization</text>
    <rect x="40" y="1105" width="200" height="35" rx="5" fill="#f3e5f5" stroke="#9c27b0"/>
    <text x="140" y="1120" text-anchor="middle" fill="#7b1fa2" font-size="10" font-weight="bold">Ridge (L2)</text>
    <text x="140" y="1133" text-anchor="middle" fill="#666" font-size="8">Loss + lambdaSigma wi2</text>
    <text x="160" y="1150" fill="#666" font-size="8">Shrinks all coefficients</text>
    <rect x="260" y="1105" width="200" height="35" rx="5" fill="#f3e5f5" stroke="#9c27b0"/>
    <text x="360" y="1120" text-anchor="middle" fill="#7b1fa2" font-size="10" font-weight="bold">Lasso (L1)</text>
    <text x="360" y="1133" text-anchor="middle" fill="#666" font-size="8">Loss + lambdaSigma|wi|</text>
    <text x="380" y="1150" fill="#666" font-size="8">Can zero out coefficients</text>
    <rect x="480" y="1105" width="280" height="35" rx="5" fill="#e1bee7" stroke="#7b1fa2"/>
    <text x="620" y="1122" text-anchor="middle" fill="#7b1fa2" font-size="10" font-weight="bold">When to Use</text>
    <text x="620" y="1135" text-anchor="middle" fill="#666" font-size="8">Degree 3 or higher always benefits from regularization</text>
  </g>

  <!-- Step 12: Bias-Variance Tradeoff -->
  <g class="step" id="step12" data-narration="The bias-variance tradeoff explains model behavior across degrees. Low degrees have high bias but low variance, while high degrees have low bias but high variance.">
    <rect x="20" y="1160" width="760" height="90" rx="8" fill="url(#blueGrad)" filter="url(#shadowLight)"/>
    <text x="40" y="1185" fill="#1565c0" font-size="13" font-weight="bold" class="title-text">Bias-Variance Tradeoff</text>
    <g transform="translate(40, 1200)">
      <rect x="0" y="0" width="220" height="40" fill="#e3f2fd" stroke="#1976d2"/>
      <text x="110" y="15" text-anchor="middle" fill="#1565c0" font-size="9" font-weight="bold">Low Degree (1-2)</text>
      <text x="60" y="30" text-anchor="middle" fill="#c62828" font-size="8">High Bias</text>
      <text x="110" y="30" text-anchor="middle" fill="#388e3c" font-size="8">Low Variance</text>
      <text x="160" y="30" text-anchor="middle" fill="#666" font-size="8">- Underfitting</text>
    </g>
    <g transform="translate(270, 1200)">
      <rect x="0" y="0" width="220" height="40" fill="#e8f5e9" stroke="#388e3c"/>
      <text x="110" y="15" text-anchor="middle" fill="#2e7d32" font-size="9" font-weight="bold">Medium Degree (3-5)</text>
      <text x="60" y="30" text-anchor="middle" fill="#f57c00" font-size="8">Medium Bias</text>
      <text x="110" y="30" text-anchor="middle" fill="#f57c00" font-size="8">Medium Variance</text>
      <text x="160" y="30" text-anchor="middle" fill="#388e3c" font-size="8">- Good Fit</text>
    </g>
    <g transform="translate(500, 1200)">
      <rect x="0" y="0" width="220" height="40" fill="#ffebee" stroke="#f44336"/>
      <text x="110" y="15" text-anchor="middle" fill="#c62828" font-size="9" font-weight="bold">High Degree (more than 5)</text>
      <text x="60" y="30" text-anchor="middle" fill="#388e3c" font-size="8">Low Bias</text>
      <text x="110" y="30" text-anchor="middle" fill="#c62828" font-size="8">High Variance</text>
      <text x="160" y="30" text-anchor="middle" fill="#c62828" font-size="8">- Overfitting</text>
    </g>
  </g>

  <!-- Step 13: Summary -->
  <g class="step" id="step13" data-narration="To summarize: polynomial regression extends linear regression to capture curved relationships while still using OLS estimation. Choose degree carefully using cross-validation.">
    <rect x="20" y="1260" width="760" height="90" rx="8" fill="url(#greenGrad)" filter="url(#shadowLight)"/>
    <text x="40" y="1285" fill="#2e7d32" font-size="14" font-weight="bold" class="title-text">Key Takeaways</text>
    <text x="40" y="1310" fill="#333" font-size="10" class="body-text">- Polynomial regression models non-linear relationships using polynomial terms</text>
    <text x="40" y="1325" fill="#333" font-size="10" class="body-text">- Still linear in parameters - uses OLS estimation</text>
    <text x="40" y="1340" fill="#333" font-size="10" class="body-text">- Choose degree via cross-validation to balance bias-variance</text>
    <text x="40" y="1355" fill="#333" font-size="10" class="body-text">- ALWAYS scale features before creating polynomial terms</text>
    <text x="40" y="1370" fill="#333" font-size="10" class="body-text">- Use regularization (Ridge/Lasso) for high-degree polynomials</text>
    <circle cx="700" cy="1305" r="25" fill="#388e3c" opacity="0.2"/>
    <text x="700" y="1310" text-anchor="middle" fill="#2e7d32" font-size="24">-</text>
  </g>

  <!-- Step 14: Exam Tips -->
  <g class="step" id="step14" data-narration="For exams: remember it is linear in parameters but non-linear in features. Know how degree affects bias/variance, and always scale polynomial features!">
    <rect x="20" y="1360" width="760" height="60" rx="8" fill="url(#blueGrad)" filter="url(#shadowLight)"/>
    <text x="40" y="1385" fill="#1565c0" font-size="13" font-weight="bold" class="title-text">Exam Tips</text>
    <text x="40" y="1405" fill="#333" font-size="10" class="body-text">- It is LINEAR in parameters, NON-LINEAR in features</text>
    <text x="280" y="1405" fill="#333" font-size="10" class="body-text">- Degree selection via cross-validation</text>
    <text x="520" y="1405" fill="#333" font-size="10" class="body-text">- Feature scaling is essential!</text>
  </g>
</svg>