<svg width="420" height="400" data-topic-id="fluoride-problem-in-drinking-water" xmlns="http://www.w3.org/2000/svg">
  <title>Fluoride Problem in Drinking Water</title>
  <defs>
    <linearGradient id="gradient" x1="0%" y1="0%" x2="100%" y2="0%">
      <stop offset="0%" stop-color="#87CEEB" stop-opacity="1"/>
      <stop offset="100%" stop-color="#4682B4" stop-opacity="1"/>
    </linearGradient>
  </defs>
  <rect fill="url(#gradient)" width="100%" height="20" rx="5"/>
  <g id="title">
    <text x="10" y="30" font-size="16" font-family="Arial" font-weight="bold" text-anchor="start">
      Fluoride Problem in Drinking Water
    </text>
  </g>
  <g id="section-1">
    <rect x="10" y="60" width="400" height="100" fill="#FFFFFF" rx="5"/>
    <path fill="#FFFFFF" d="M 20 50 L 380 50"/>
    <animateTransform attributeName="transform" type="translate" begin="0s"Dur="2s" repeatCount="indefinite"/>
    <text x="10" y="80" font-size="14" font-family="Arial" text-anchor="start" data-narration="What is Fluoride?">
      What is Fluoride?
    </text>
    <rect x="10" y="110" width="400" height="30" fill="#FFFFFF" rx="5"/>
    <animate transform="translate(10 120)" begin="0.5s" dur="0.5s" repeatCount="indefinite"/>
  </g>
  <g id="section-2">
    <rect x="10" y="160" width="400" height="100" fill="#FFFFFF" rx="5"/>
    <path fill="#FFFFFF" d="M 20 50 L 380 50"/>
    <animateTransform attributeName="transform" type="translate" begin="0s"Dur="2s" repeatCount="indefinite"/>
    <text x="10" y="80" font-size="14" font-family="Arial" text-anchor="start" data-narration="Health Effects of Fluoride Excess">
      Health Effects of Fluoride Excess
    </text>
    <rect x="10" y="110" width="400" height="30" fill="#FFFFFF" rx="5"/>
    <animate transform="translate(10 120)" begin="0.5s" dur="0.5s" repeatCount="indefinite"/>
  </g>
  <g id="section-3">
    <rect x="10" y="210" width="400" height="100" fill="#FFFFFF" rx="5"/>
    <path fill="#FFFFFF" d="M 20 50 L 380 50"/>
    <animateTransform attributeName="transform" type="translate" begin="0s"Dur="2s" repeatCount="indefinite"/>
    <text x="10" y="80" font-size="14" font-family="Arial" text-anchor="start" data-narration="Sources of Fluoride Contamination">
      Sources of Fluoride Contamination
    </text>
    <rect x="10" y="110" width="400" height="30" fill="#FFFFFF" rx="5"/>
    <animate transform="translate(10 120)" begin="0.5s" dur="0.5s" repeatCount="indefinite"/>
  </g>
  <g id="section-4">
    <rect x="10" y="280" width="400" height="100" fill="#FFFFFF" rx="5"/>
    <path fill="#FFFFFF" d="M 20 50 L 380 50"/>
    <animateTransform attributeName="transform" type="translate" begin="0s"Dur="2s" repeatCount="indefinite"/>
    <text x="10" y="80" font-size="14" font-family="Arial" text-anchor="start" data-narration="Consequences of Fluoride Contamination">
      Consequences of Fluoride Contamination
    </text>
    <rect x="10" y="110" width="400" height="30" fill="#FFFFFF" rx="5"/>
    <animate transform="translate(10 120)" begin="0.5s" dur="0.5s" repeatCount="indefinite"/>
  </g>
  <g id="footer">
    <rect x="10" y="340" width="400" height="20" fill="#FFFFFF" rx="5"/>
    <text x="10" y="360" font-size="12" font-family="Arial" text-anchor="start">
      Learn more about the Fluoride Problem in Drinking Water
    </text>
  </g>
</svg>