<svg xmlns="http://www.w3.org/2000/svg" viewBox="0 0 800 1520">
  <defs>
    <linearGradient id="blueGrad" x1="0%" y1="0%" x2="100%" y2="100%">
      <stop offset="0%" style="stop-color:#e3f2fd"/>
      <stop offset="100%" style="stop-color:#bbdefb"/>
    </linearGradient>
    <linearGradient id="greenGrad" x1="0%" y1="0%" x2="100%" y2="100%">
      <stop offset="0%" style="stop-color:#e8f5e9"/>
      <stop offset="100%" style="stop-color:#c8e6c9"/>
    </linearGradient>
    <linearGradient id="orangeGrad" x1="0%" y1="0%" x2="100%" y2="100%">
      <stop offset="0%" style="stop-color:#fff3e0"/>
      <stop offset="100%" style="stop-color:#ffe0b2"/>
    </linearGradient>
    <linearGradient id="purpleGrad" x1="0%" y1="0%" x2="100%" y2="100%">
      <stop offset="0%" style="stop-color:#f3e5f5"/>
      <stop offset="100%" style="stop-color:#e1bee7"/>
    </linearGradient>
    <linearGradient id="redGrad" x1="0%" y1="0%" x2="100%" y2="100%">
      <stop offset="0%" style="stop-color:#ffebee"/>
      <stop offset="100%" style="stop-color:#ffcdd2"/>
    </linearGradient>
    <linearGradient id="titleGrad" x1="0%" y1="0%" x2="100%" y2="0%">
      <stop offset="0%" style="stop-color:#1976d2"/>
      <stop offset="100%" style="stop-color:#1565c0"/>
    </linearGradient>
    <filter id="shadow" x="-20%" y="-20%" width="140%" height="140%">
      <feDropShadow dx="2" dy="3" stdDeviation="3" flood-opacity="0.15"/>
    </filter>
    <marker id="arrowBlue" markerWidth="10" markerHeight="10" refX="9" refY="3" orient="auto" markerUnits="strokeWidth">
      <path d="M0,0 L0,6 L9,3 z" fill="#1976d2"/>
    </marker>
    <marker id="arrowGreen" markerWidth="10" markerHeight="10" refX="9" refY="3" orient="auto" markerUnits="strokeWidth">
      <path d="M0,0 L0,6 L9,3 z" fill="#388e3c"/>
    </marker>
    <marker id="arrowOrange" markerWidth="10" markerHeight="10" refX="9" refY="3" orient="auto" markerUnits="strokeWidth">
      <path d="M0,0 L0,6 L9,3 z" fill="#ff9800"/>
    </marker>
    <style>
      @keyframes fadeInSlide {
        from { opacity: 0; transform: translateY(20px); }
        to { opacity: 1; transform: translateY(0); }
      }
      @keyframes scaleIn {
        from { opacity: 0; transform: scale(0.85); }
        to { opacity: 1; transform: scale(1); }
      }
      @keyframes textReveal {
        from { opacity: 0; transform: translateX(-10px); }
        to { opacity: 1; transform: translateX(0); }
      }
      @keyframes pulse {
        0%, 100% { transform: scale(1); }
        50% { transform: scale(1.03); }
      }
      @keyframes drawLine {
        from { stroke-dashoffset: 500; }
        to { stroke-dashoffset: 0; }
      }
      .step { animation: fadeInSlide 0.6s ease-out; }
      .step rect {
        animation: scaleIn 0.5s cubic-bezier(0.34, 1.56, 0.64, 1);
        transform-origin: center;
      }
      .step text { animation: textReveal 0.4s ease-out 0.2s backwards; }
      .title-text { font-family: 'Segoe UI', Arial, sans-serif; font-weight: bold; font-size: 22px; fill: white; }
      .subtitle-text { font-family: 'Segoe UI', Arial, sans-serif; font-size: 12px; fill: #555; }
      .body-text { font-family: 'Consolas', monospace; font-size: 11px; fill: #333; }
      .label-text { font-family: 'Segoe UI', Arial, sans-serif; font-size: 10px; fill: #666; }
      .code-text { font-family: 'Consolas', monospace; font-size: 10px; fill: #1976d2; }
      .keyword { fill: #9c27b0; font-weight: bold; }
      .string { fill: #388e3c; }
      .comment { fill: #757575; font-style: italic; }
    </style>
  </defs>
  
  <rect width="800" height="1520" fill="#f8f9fa"/>
  
  <!-- Step 0: Title -->
  <g class="step" id="step0" data-narration="Welcome to learning about Packages in Java! We'll explore how packages organize code, prevent conflicts, and modularize applications.">
    <rect x="0" y="0" width="800" height="50" fill="url(#titleGrad)"/>
    <text x="400" y="32" text-anchor="middle" class="title-text">Packages in Java</text>
  </g>
  
  <!-- Step 1: What is a Package? -->
  <g class="step" id="step1" data-narration="A package is a logical grouping of related classes, interfaces, and sub-packages. It organizes code and prevents naming conflicts between classes.">
    <rect x="20" y="60" width="760" height="85" rx="8" fill="url(#blueGrad)" filter="url(#shadow)"/>
    <rect x="20" y="60" width="5" height="85" rx="2" fill="#1976d2"/>
    <text x="40" y="80" class="subtitle-text" font-weight="bold">What is a Package?</text>
    <text x="40" y="100" class="body-text">A logical grouping mechanism for related</text>
    <text x="40" y="115" class="body-text">classes, interfaces, and sub-packages</text>
    <g transform="translate(580, 75)">
      <rect x="0" y="0" width="160" height="55" rx="5" fill="white" stroke="#1976d2" stroke-width="1.5"/>
      <text x="80" y="20" text-anchor="middle" class="label-text" fill="#1976d2">Package</text>
      <rect x="10" y="30" width="35" height="18" rx="3" fill="#e3f2fd" stroke="#1976d2"/>
      <text x="27" y="43" text-anchor="middle" class="label-text" font-size="8">Class</text>
      <rect x="62" y="30" width="35" height="18" rx="3" fill="#e3f2fd" stroke="#1976d2"/>
      <text x="79" y="43" text-anchor="middle" class="label-text" font-size="8">Class</text>
      <rect x="114" y="30" width="35" height="18" rx="3" fill="#e3f2fd" stroke="#1976d2"/>
      <text x="131" y="43" text-anchor="middle" class="label-text" font-size="8">Interface</text>
    </g>
  </g>
  
  <!-- Step 2: Why Packages Matter -->
  <g class="step" id="step2" data-narration="Packages provide three key benefits: namespace management to avoid conflicts, access control for encapsulation, and modularization for maintainability.">
    <rect x="20" y="155" width="760" height="95" rx="8" fill="url(#greenGrad)" filter="url(#shadow)"/>
    <rect x="20" y="155" width="5" height="95" rx="2" fill="#388e3c"/>
    <text x="40" y="175" class="subtitle-text" font-weight="bold">Why Packages Matter</text>
    <g transform="translate(60, 195)">
      <rect x="0" y="0" width="200" height="40" rx="5" fill="white" stroke="#388e3c"/>
      <text x="100" y="18" text-anchor="middle" class="label-text" fill="#388e3c" font-weight="bold">Namespace Management</text>
      <text x="100" y="32" text-anchor="middle" class="label-text" font-size="9">Avoid naming conflicts</text>
    </g>
    <g transform="translate(280, 195)">
      <rect x="0" y="0" width="200" height="40" rx="5" fill="white" stroke="#388e3c"/>
      <text x="100" y="18" text-anchor="middle" class="label-text" fill="#388e3c" font-weight="bold">Access Control</text>
      <text x="100" y="32" text-anchor="middle" class="label-text" font-size="9">Encapsulation</text>
    </g>
    <g transform="translate(500, 195)">
      <rect x="0" y="0" width="200" height="40" rx="5" fill="white" stroke="#388e3c"/>
      <text x="100" y="18" text-anchor="middle" class="label-text" fill="#388e3c" font-weight="bold">Modularization</text>
      <text x="100" y="32" text-anchor="middle" class="label-text" font-size="9">Code maintainability</text>
    </g>
  </g>
  
  <!-- Step 3: Package Declaration -->
  <g class="step" id="step3" data-narration="The package declaration uses the 'package' keyword and must be the first statement in your Java file. The name must match the directory structure.">
    <rect x="20" y="260" width="760" height="95" rx="8" fill="url(#orangeGrad)" filter="url(#shadow)"/>
    <rect x="20" y="260" width="5" height="95" rx="2" fill="#ff9800"/>
    <text x="40" y="280" class="subtitle-text" font-weight="bold">Package Declaration Syntax</text>
    <rect x="40" y="295" width="340" height="45" rx="5" fill="#263238" stroke="#455a64"/>
    <text x="55" y="315" class="code-text" fill="#ffcc80">package</text>
    <text x="115" y="315" class="code-text" fill="#a5d6a7">com.company.mypackage</text>
    <text x="55" y="332" class="comment">// Must be FIRST statement!</text>
    <text x="400" y="310" class="label-text">Keyword: <tspan class="keyword">package</tspan></text>
    <text x="400" y="328" class="label-text">Folder: com/company/mypackage/</text>
    <text x="400" y="346" class="label-text">Must match directory structure</text>
  </g>
  
  <!-- Step 4: Package Components -->
  <g class="step" id="step4" data-narration="A package can contain four types of components: classes, interfaces, enumerations, and sub-packages. All files must share the same package declaration.">
    <rect x="20" y="365" width="760" height="90" rx="8" fill="url(#purpleGrad)" filter="url(#shadow)"/>
    <rect x="20" y="365" width="5" height="90" rx="2" fill="#9c27b0"/>
    <text x="40" y="385" class="subtitle-text" font-weight="bold">Package Components</text>
    <g transform="translate(60, 405)">
      <circle cx="25" cy="15" r="15" fill="#f3e5f5" stroke="#9c27b0"/>
      <text x="25" y="19" text-anchor="middle" class="label-text" font-size="8" fill="#9c27b0">C</text>
      <text x="55" y="19" class="body-text">Classes</text>
    </g>
    <g transform="translate(160, 405)">
      <circle cx="25" cy="15" r="15" fill="#f3e5f5" stroke="#9c27b0"/>
      <path d="M18,10 L32,10 L32,20 L18,20 Z" fill="none" stroke="#9c27b0" stroke-width="1.5"/>
      <text x="55" y="19" class="body-text">Interfaces</text>
    </g>
    <g transform="translate(260, 405)">
      <circle cx="25" cy="15" r="15" fill="#f3e5f5" stroke="#9c27b0"/>
      <text x="25" y="19" text-anchor="middle" class="label-text" font-size="8" fill="#9c27b0">E</text>
      <text x="55" y="19" class="body-text">Enumerations</text>
    </g>
    <g transform="translate(380, 405)">
      <circle cx="25" cy="15" r="15" fill="#f3e5f5" stroke="#9c27b0"/>
      <rect x="18" y="12" width="14" height="6" fill="none" stroke="#9c27b0" stroke-width="1.5"/>
      <rect x="21" y="8" width="8" height="4" fill="none" stroke="#9c27b0" stroke-width="1.5"/>
      <text x="55" y="19" class="body-text">Sub-packages</text>
    </g>
    <rect x="520" y="395" width="240" height="50" rx="5" fill="white" stroke="#9c27b0"/>
    <text x="530" y="415" class="label-text">All source files in a package</text>
    <text x="530" y="433" class="label-text">must have the SAME package declaration</text>
  </g>
  
  <!-- Step 5: Package vs Directory Structure -->
  <g class="step" id="step5" data-narration="Package names must directly correspond to folder structure. The package 'com.myapp.utils' means you need folder path 'com/myapp/utils/' containing your .java files.">
    <rect x="20" y="465" width="760" height="95" rx="8" fill="url(#blueGrad)" filter="url(#shadow)"/>
    <rect x="20" y="465" width="5" height="95" rx="2" fill="#1976d2"/>
    <text x="40" y="485" class="subtitle-text" font-weight="bold">Package ↔ Directory Relationship</text>
    <g transform="translate(60, 510)">
      <rect x="0" y="0" width="120" height="40" rx="4" fill="#263238"/>
      <text x="60" y="18" text-anchor="middle" class="code-text" fill="#82b1ff">package</text>
      <text x="60" y="32" text-anchor="middle" class="code-text" fill="#a5d6a7" font-size="10">com.myapp.utils</text>
    </g>
    <path d="M210,530 L250,530" stroke="#1976d2" stroke-width="2" marker-end="url(#arrowBlue)"/>
    <text x="230" y="520" class="label-text" fill="#1976d2">maps to</text>
    <g transform="translate(280, 510)">
      <rect x="0" y="0" width="200" height="40" rx="4" fill="#fff3e0" stroke="#ff9800"/>
      <text x="100" y="18" text-anchor="middle" class="body-text" fill="#e65100" font-weight="bold">com/myapp/utils/</text>
      <text x="100" y="32" text-anchor="middle" class="label-text" fill="#757575">(folder structure)</text>
    </g>
    <g transform="translate(520, 505)">
      <rect x="0" y="0" width="230" height="55" rx="4" fill="#e8f5e9" stroke="#388e3c"/>
      <text x="10" y="18" class="label-text" fill="#388e3c">Example Files:</text>
      <text x="10" y="35" class="code-text" fill="#333">MyUtils.java</text>
      <text x="120" y="35" class="code-text" fill="#333">Helper.java</text>
      <text x="10" y="50" class="code-text" fill="#333">Constants.java</text>
    </g>
  </g>
  
  <!-- Step 6: Importing Packages -->
  <g class="step" id="step6" data-narration="Use the 'import' keyword to access classes from other packages. Specific import loads one class, while wildcard (*) imports all classes from a package.">
    <rect x="20" y="570" width="760" height="95" rx="8" fill="url(#orangeGrad)" filter="url(#shadow)"/>
    <rect x="20" y="570" width="5" height="95" rx="2" fill="#ff9800"/>
    <text x="40" y="590" class="subtitle-text" font-weight="bold">Importing Packages</text>
    <g transform="translate(50, 610)">
      <rect x="0" y="0" width="330" height="45" rx="5" fill="#263238" stroke="#455a64"/>
      <text x="10" y="18" class="code-text" fill="#ffcc80">import</text>
      <text x="60" y="18" class="code-text" fill="#a5d6a7">java.util</text>
      <text x="130" y="18" class="code-text" fill="#ffcc80">.</text>
      <text x="140" y="18" class="code-text" fill="#a5d6a7">ArrayList</text>
      <text x="10" y="36" class="comment">// Specific import - one class</text>
    </g>
    <g transform="translate(410, 610)">
      <rect x="0" y="0" width="330" height="45" rx="5" fill="#263238" stroke="#455a64"/>
      <text x="10" y="18" class="code-text" fill="#ffcc80">import</text>
      <text x="60" y="18" class="code-text" fill="#a5d6a7">java.util</text>
      <text x="130" y="18" class="code-text" fill="#ffcc80">.*</text>
      <text x="10" y="36" class="comment">// Wildcard import - all classes</text>
    </g>
    <g transform="translate(200, 660)">
      <rect x="0" y="0" width="400" height="35" rx="4" fill="white" stroke="#ff9800"/>
      <text x="200" y="22" text-anchor="middle" class="label-text" fill="#e65100">import ≠ #include (C++) — import only makes accessible</text>
    </g>
  </g>
  
  <!-- Step 7: Built-in Packages -->
  <g class="step" id="step7" data-narration="Java provides powerful built-in packages: java.lang for fundamentals, java.util for collections, java.io for I/O, java.awt for GUI, and java.net for networking.">
    <rect x="20" y="675" width="760" height="95" rx="8" fill="url(#greenGrad)" filter="url(#shadow)"/>
    <rect x="20" y="675" width="5" height="95" rx="2" fill="#388e3c"/>
    <text x="40" y="695" class="subtitle-text" font-weight="bold">Built-in Java Packages</text>
    <g transform="translate(50, 715)">
      <rect x="0" y="0" width="135" height="45" rx="4" fill="#e8f5e9" stroke="#388e3c"/>
      <text x="67" y="16" text-anchor="middle" class="code-text" fill="#2e7d32" font-size="10">java.lang</text>
      <text x="67" y="32" text-anchor="middle" class="label-text" font-size="9">String, Integer, Math</text>
    </g>
    <g transform="translate(195, 715)">
      <rect x="0" y="0" width="135" height="45" rx="4" fill="#e8f5e9" stroke="#388e3c"/>
      <text x="67" y="16" text-anchor="middle" class="code-text" fill="#2e7d32" font-size="10">java.util</text>
      <text x="67" y="32" text-anchor="middle" class="label-text" font-size="9">ArrayList, HashMap</text>
    </g>
    <g transform="translate(340, 715)">
      <rect x="0" y="0" width="135" height="45" rx="4" fill="#e8f5e9" stroke="#388e3c"/>
      <text x="67" y="16" text-anchor="middle" class="code-text" fill="#2e7d32" font-size="10">java.io</text>
      <text x="67" y="32" text-anchor="middle" class="label-text" font-size="9">File, InputStream</text>
    </g>
    <g transform="translate(485, 715)">
      <rect x="0" y="0" width="135" height="45" rx="4" fill="#e8f5e9" stroke="#388e3c"/>
      <text x="67" y="16" text-anchor="middle" class="code-text" fill="#2e7d32" font-size="10">java.awt</text>
      <text x="67" y="32" text-anchor="middle" class="label-text" font-size="9">Graphics, JFrame</text>
    </g>
    <g transform="translate(630, 715)">
      <rect x="0" y="0" width="135" height="45" rx="4" fill="#e8f5e9" stroke="#388e3c"/>
      <text x="67" y="16" text-anchor="middle" class="code-text" fill="#2e7d32" font-size="10">java.net</text>
      <text x="67" y="32" text-anchor="middle" class="label-text" font-size="9">Socket, URL</text>
    </g>
  </g>
  
  <!-- Step 8: Default Package -->
  <g class="step" id="step8" data-narration="A class without any package declaration belongs to the default package. This unnamed package is suitable only for small programs and not for production applications.">
    <rect x="20" y="780" width="760" height="85" rx="8" fill="url(#redGrad)" filter="url(#shadow)"/>
    <rect x="20" y="780" width="5" height="85" rx="2" fill="#f44336"/>
    <text x="40" y="800" class="subtitle-text" font-weight="bold">Default Package</text>
    <g transform="translate(60, 820)">
      <rect x="0" y="0" width="320" height="35" rx="4" fill="#263238" stroke="#455a64"/>
      <text x="160" y="23" text-anchor="middle" class="code-text" fill="#a5d6a7">// No package declaration</text>
    </g>
    <path d="M400,837 L450,837" stroke="#f44336" stroke-width="2" marker-end="url(#arrowOrange)"/>
    <g transform="translate(470, 820)">
      <rect x="0" y="0" width="290" height="35" rx="4" fill="#ffebee" stroke="#f44336"/>
      <text x="145" y="23" text-anchor="middle" class="label-text" fill="#c62828">→ Belongs to DEFAULT package</text>
    </g>
    <text x="40" y="860" class="label-text" fill="#757575">⚠ Not recommended for large-scale applications</text>
  </g>
  
  <!-- Step 9: Naming Conventions -->
  <g class="step" id="step9" data-narration="Package names follow reverse domain naming: company domain 'example.com' becomes 'com.example'. Use all lowercase letters with dots separating words.">
    <rect x="20" y="875" width="760" height="85" rx="8" fill="url(#purpleGrad)" filter="url(#shadow)"/>
    <rect x="20" y="875" width="5" height="85" rx="2" fill="#9c27b0"/>
    <text x="40" y="895" class="subtitle-text" font-weight="bold">Package Naming Convention</text>
    <text x="40" y="920" class="label-text" fill="#7b1fa2">Reverse Domain Name: company domain → package prefix</text>
    <g transform="translate(200, 915)">
      <rect x="0" y="0" width="200" height="35" rx="4" fill="#fff3e0" stroke="#ff9800"/>
      <text x="100" y="23" text-anchor="middle" class="body-text" font-weight="bold">example.com</text>
    </g>
    <path d="M410,932 L460,932" stroke="#9c27b0" stroke-width="2" marker-end="url(#arrowBlue)"/>
    <g transform="translate(480, 915)">
      <rect x="0" y="0" width="200" height="35" rx="4" fill="#f3e5f5" stroke="#9c27b0"/>
      <text x="100" y="23" text-anchor="middle" class="code-text" fill="#7b1fa2">com.example</text>
    </g>
  </g>
  
  <!-- Step 10: Fully Qualified Names -->
  <g class="step" id="step10" data-narration="A fully qualified name includes the complete package path plus the class name. For example, ArrayList in java.util becomes 'java.util.ArrayList'.">
    <rect x="20" y="970" width="760" height="85" rx="8" fill="url(#blueGrad)" filter="url(#shadow)"/>
    <rect x="20" y="970" width="5" height="85" rx="2" fill="#1976d2"/>
    <text x="40" y="990" class="subtitle-text" font-weight="bold">Fully Qualified Name</text>
    <g transform="translate(60, 1010)">
      <rect x="0" y="0" width="350" height="35" rx="4" fill="#263238" stroke="#455a64"/>
      <text x="175" y="23" text-anchor="middle" class="code-text" fill="#a5d6a7">com.myapp.utils.MyUtils</text>
    </g>
    <g transform="translate(430, 1010)">
      <rect x="0" y="0" width="330" height="35" rx="4" fill="#e3f2fd" stroke="#1976d2"/>
      <text x="50" y="23" class="label-text" fill="#1565c0">com.myapp.utils</text>
      <text x="180" y="23" class="label-text" fill="#1976d2">+</text>
      <text x="220" y="23" class="label-text" fill="#1565c0">MyUtils</text>
      <text x="280" y="23" class="label-text" fill="#757575">(class name)</text>
    </g>
    <text x="40" y="1050" class="label-text" fill="#1976d2">Package path + Class name = Fully Qualified Name</text>
  </g>
  
  <!-- Step 11: Creating User-Defined Package -->
  <g class="step" id="step11" data-narration="To create a user-defined package: 1) Create folder matching package name, 2) Add Java source file, 3) Declare package at top, 4) Compile with javac.">
    <rect x="20" y="1065" width="760" height="120" rx="8" fill="url(#greenGrad)" filter="url(#shadow)"/>
    <rect x="20" y="1065" width="5" height="120" rx="2" fill="#388e3c"/>
    <text x="40" y="1085" class="subtitle-text" font-weight="bold">Creating User-Defined Package</text>
    <g transform="translate(50, 1105)">
      <rect x="0" y="0" width="40" height="40" rx="20" fill="#388e3c"/>
      <text x="20" y="26" text-anchor="middle" class="label-text" fill="white" font-weight="bold">1</text>
      <text x="55" y="20" class="body-text">Create folder</text>
      <text x="55" y="35" class="label-text">com/mypackage/</text>
    </g>
    <g transform="translate(180, 1105)">
      <rect x="0" y="0" width="40" height="40" rx="20" fill="#388e3c"/>
      <text x="20" y="26" text-anchor="middle" class="label-text" fill="white" font-weight="bold">2</text>
      <text x="55" y="20" class="body-text">Add .java file</text>
      <text x="55" y="35" class="label-text">MyClass.java</text>
    </g>
    <g transform="translate(310, 1105)">
      <rect x="0" y="0" width="40" height="40" rx="20" fill="#388e3c"/>
      <text x="20" y="26" text-anchor="middle" class="label-text" fill="white" font-weight="bold">3</text>
      <text x="55" y="20" class="body-text">Declare package</text>
      <text x="55" y="35" class="label-text">package com.mypackage;</text>
    </g>
    <g transform="translate(440, 1105)">
      <rect x="0" y="0" width="40" height="40" rx="20" fill="#388e3c"/>
      <text x="20" y="26" text-anchor="middle" class="label-text" fill="white" font-weight="bold">4</text>
      <text x="55" y="20" class="body-text">Compile</text>
      <text x="55" y="35" class="label-text">javac com/mypackage/*.java</text>
    </g>
    <rect x="50" y="1160" width="700" height="18" rx="3" fill="#263238"/>
    <text x="400" y="1173" text-anchor="middle" class="code-text" fill="#a5d6a7" font-size="10">java com.mypackage.MyClass</text>
    <text x="530" y="1173" class="comment" font-size="9">Run with FQN</text>
  </g>
  
  <!-- Step 12: Example Program -->
  <g class="step" id="step12" data-narration="Here's a complete example: declaring a package 'com.mypackage', creating a class, then compiling and running it using the fully qualified name.">
    <rect x="20" y="1195" width="760" height="110" rx="8" fill="url(#orangeGrad)" filter="url(#shadow)"/>
    <rect x="20" y="1195" width="5" height="110" rx="2" fill="#ff9800"/>
    <text x="40" y="1215" class="subtitle-text" font-weight="bold">Complete Example Program</text>
    <rect x="40" y="1230" width="460" height="65" rx="5" fill="#263238" stroke="#455a64"/>
    <text x="55" y="1250" class="code-text" fill="#ffcc80">package</text>
    <text x="105" y="1250" class="code-text" fill="#a5d6a7">com.mypackage</text>
    <text x="55" y="1268" class="code-text" fill="#82b1ff">public class</text>
    <text x="155" y="1268" class="code-text" fill="#a5d6a7">MyClass {</text>
    <text x="75" y="1286" class="code-text" fill="#ffcc80">public static void</text>
    <text x="185" y="1286" class="code-text" fill="#a5d6a7">main(String[] args) {</text>
    <g transform="translate(520, 1235)">
      <rect x="0" y="0" width="240" height="55" rx="4" fill="white" stroke="#ff9800"/>
      <text x="10" y="18" class="label-text" fill="#e65100">Compile:</text>
      <text x="10" y="35" class="code-text" fill="#333" font-size="9">javac com/mypackage/MyClass.java</text>
      <text x="10" y="50" class="code-text" fill="#333" font-size="9">java com.mypackage.MyClass</text>
    </g>
  </g>
  
  <!-- Step 13: Exam Tips -->
  <g class="step" id="step13" data-narration="Key exam points: package declaration must be first, include root directory in classpath, don't confuse import with C++ include, and remember FQN usage.">
    <rect x="20" y="1315" width="760" height="85" rx="8" fill="url(#redGrad)" filter="url(#shadow)"/>
    <rect x="20" y="1315" width="5" height="85" rx="2" fill="#f44336"/>
    <text x="40" y="1335" class="subtitle-text" font-weight="bold">🎯 Exam Tips</text>
    <g transform="translate(50, 1355)">
      <rect x="0" y="0" width="230" height="35" rx="4" fill="white" stroke="#f44336"/>
      <text x="115" y="22" text-anchor="middle" class="label-text" fill="#c62828">package must be FIRST statement</text>
    </g>
    <g transform="translate(290, 1355)">
      <rect x="0" y="0" width="230" height="35" rx="4" fill="white" stroke="#f44336"/>
      <text x="115" y="22" text-anchor="middle" class="label-text" fill="#c62828">Include root in classpath</text>
    </g>
    <g transform="translate(530, 1355)">
      <rect x="0" y="0" width="230" height="35" rx="4" fill="white" stroke="#f44336"/>
      <text x="115" y="22" text-anchor="middle" class="label-text" fill="#c62828">import ≠ #include</text>
    </g>
  </g>
  
  <!-- Step 14: Summary -->
  <g class="step" id="step14" data-narration="In summary: packages organize code, prevent conflicts, and enable modular design. Use package declarations, import wisely, and follow naming conventions for clean Java code.">
    <rect x="20" y="1410" width="760" height="100" rx="8" fill="url(#blueGrad)" filter="url(#shadow)"/>
    <rect x="20" y="1410" width="5" height="100" rx="2" fill="#1976d2"/>
    <text x="40" y="1430" class="subtitle-text" font-weight="bold">📝 Key Takeaways</text>
    <g transform="translate(50, 1450)">
      <rect x="0" y="0" width="175" height="50" rx="4" fill="white" stroke="#1976d2"/>
      <text x="87" y="18" text-anchor="middle" class="label-text" fill="#1565c0" font-weight="bold">Package Declaration</text>
      <text x="87" y="35" text-anchor="middle" class="code-text" font-size="9">package pkg.name;</text>
    </g>
    <g transform="translate(235, 1450)">
      <rect x="0" y="0" width="175" height="50" rx="4" fill="white" stroke="#1976d2"/>
      <text x="87" y="18" text-anchor="middle" class="label-text" fill="#1565c0" font-weight="bold">Import Statements</text>
      <text x="87" y="35" text-anchor="middle" class="code-text" font-size="9">import pkg.Class;</text>
    </g>
    <g transform="translate(420, 1450)">
      <rect x="0" y="0" width="175" height="50" rx="4" fill="white" stroke="#1976d2"/>
      <text x="87" y="18" text-anchor="middle" class="label-text" fill="#1565c0" font-weight="bold">Fully Qualified</text>
      <text x="87" y="35" text-anchor="middle" class="code-text" font-size="9">pkg.name.Class</text>
    </g>
    <g transform="translate(605, 1450)">
      <rect x="0" y="0" width="155" height="50" rx="4" fill="white" stroke="#1976d2"/>
      <text x="77" y="18" text-anchor="middle" class="label-text" fill="#1565c0" font-weight="bold">Naming</text>
      <text x="77" y="35" text-anchor="middle" class="code-text" font-size="9">com.company.app</text>
    </g>
  </g>
</svg>