<svg width="420" height="400" data-topic-id="sampling-variables" xmlns="http://www.w3.org/2000/svg" xmlns:xlink="http://www.w3.org/1999/xlink" viewBox="0 0 420 400" style="mix-blend-mode: multiply; stroke-width: 0; opacity: 1;">
  <metadata>
    <title>Sampling Variables</title>
    <description>Sampling Variables</description>
    <topic-slug>sampling-variables</topic-slug>
  </metadata>
  <g transform="translate(0,0)">
    <rect x="0" y="0" width="420" height="400" fill="url(#pastel-gradient)"/>
    <path d="M 50 200 L 50 150" stroke="#2E4053" stroke-width="2" fill="none"/>
    <path d="M 150 200 L 150 150" stroke="#2E4053" stroke-width="2" fill="none"/>
    <path d="M 250 200 L 250 150" stroke="#2E4053" stroke-width="2" fill="none"/>
    <g transform="translate(50 160)">
      <rect x="0" y="0" width="200" height="80" fill="#C9E4CA" rx="10"/>
      <g transform="rotate(90 105 105)">
        <text x="105" y="105" font-size="24" font-family="Arial" fill="#2E4053" dominant-baseline="hanging">Local Variables (Shell Variables)</text>
      </g>
      <animate transform="rotate(90 105 105)" begin=".1s" dur=".5s" repeatCount="indefinite"/>
    </g>
    <g transform="translate(150 160)">
      <rect x="0" y="0" width="200" height="80" fill="#C9E4CA" rx="10"/>
      <g transform="rotate(90 105 105)">
        <text x="105" y="105" font-size="24" font-family="Arial" fill="#2E4053" dominant-baseline="hanging">Environment Variables</text>
      </g>
      <animate transform="rotate(90 105 105)" begin=".6s" dur=".5s" repeatCount="indefinite"/>
    </g>
    <g transform="translate(250 160)">
      <rect x="0" y="0" width="200" height="80" fill="#C9E4CA" rx="10"/>
      <g transform="rotate(90 105 105)">
        <text x="105" y="105" font-size="24" font-family="Arial" fill="#2E4053" dominant-baseline="hanging">Variable Types</text>
      </g>
      <animate transform="rotate(90 105 105)" begin=".9s" dur=".5s" repeatCount="indefinite"/>
    </g>
    <g transform="translate(50 20)">
      <rect x="0" y="0" width="200" height="80" fill="#C9E4CA" rx="10"/>
      <g transform="rotate(90 105 105)">
        <text x="105" y="105" font-size="24" font-family="Arial" fill="#2E4053" dominant-baseline="hanging">Syntax</text>
      </g>
      <animate transform="rotate(90 105 105)" begin="0s" dur=".5s" repeatCount="indefinite"/>
    </g>
    <g transform="translate(150 20)">
      <rect x="0" y="0" width="200" height="80" fill="#C9E4CA" rx="10"/>
      <g transform="rotate(90 105 105)">
        <text x="105" y="105" font-size="24" font-family="Arial" fill="#2E4053" dominant-baseline="hanging">Importance</text>
      </g>
      <animate transform="rotate(90 105 105)" begin=".2s" dur=".5s" repeatCount="indefinite"/>
    </g>
    <g transform="translate(250 20)">
      <rect x="0" y="0" width="200" height="80" fill="#C9E4CA" rx="10"/>
      <g transform="rotate(90 105 105)">
        <text x="105" y="105" font-size="24" font-family="Arial" fill="#2E4053" dominant-baseline="hanging">Built-in Variables</text>
      </g>
      <animate transform="rotate(90 105 105)" begin=".4s" dur=".5s" repeatCount="indefinite"/>
    </g>
    <g transform="translate(50 240)">
      <rect x="0" y="0" width="420" height="160" fill="#2E4053" rx="10"/>
      <text x="210" y="290" font-size="36" font-family="Arial" fill="#FFFFFF" dominant-baseline="hanging">Sampling Variables</text>
    </g>
    <g transform="translate(150 240)">
      <rect x="0" y="0" width="420" height="160" fill="#2E4053" rx="10"/>
      <text x="210" y="290" font-size="36" font-family="Arial" fill="#FFFFFF" dominant-baseline="hanging">Types of Variables</text>
    </g>
    <g transform="translate(250 240)">
      <rect x="0" y="0" width="420" height="160" fill="#2E4053" rx="10"/>
      <text x="210" y="290" font-size="36" font-family="Arial" fill="#FFFFFF" dominant-baseline="hanging">Syntax and Importance</text>
    </g>
    <g transform="translate(50 160)">
      <line x1="50" y1="160" x2="50" y2="230" stroke="#2E4053" stroke-width="2" fill="none" marker-end="url(#arrow-head)"/>
    </g>
    <g transform="translate(150 160)">
      <line x1="150" y1="160" x2="150" y2="230" stroke="#2E4053" stroke-width="2" fill="none" marker-end="url(#arrow-head)"/>
    </g>
    <g transform="translate(250 160)">
      <line x1="250" y1="160" x2="250" y2="230" stroke="#2E4053" stroke-width="2" fill="none" marker-end="url(#arrow-head)"/>
    </g>
    <defs>
      <linearGradient id="pastel-gradient" x1="0%" y1="0%" x2="100%" y2="0%">
        <stop offset="0%" stop-color="#F7F7F7" stop-opacity="1"/>
        <stop offset="50%" stop-color="#E5E5E5" stop-opacity="1"/>
        <stop offset="100%" stop-color="#D3D3D3" stop-opacity="1"/>
      </linearGradient>
      <marker id="arrow-head" markerWidth="5" markerHeight="5" refX="2.5" refY="2.5" orient="45" markerUnits="userSpaceOnUse" x="0" y="0" r="2.5" fox="0" foy="0" horizontalAnchor="middle" verticalAnchor="middle"/>
    </defs>
  </g>
</svg>