<svg xmlns="http://www.w3.org/2000/svg" viewBox="0 0 800 1700">
  <defs>
    <!-- Gradients -->
    <linearGradient id="titleGrad" x1="0%" y1="0%" x2="100%" y2="100%">
      <stop offset="0%" style="stop-color:#1565c0"/>
      <stop offset="100%" style="stop-color:#0d47a1"/>
    </linearGradient>
    <linearGradient id="blueGrad" x1="0%" y1="0%" x2="100%" y2="100%">
      <stop offset="0%" style="stop-color:#e3f2fd"/>
      <stop offset="100%" style="stop-color:#bbdefb"/>
    </linearGradient>
    <linearGradient id="greenGrad" x1="0%" y1="0%" x2="100%" y2="100%">
      <stop offset="0%" style="stop-color:#e8f5e9"/>
      <stop offset="100%" style="stop-color:#c8e6c9"/>
    </linearGradient>
    <linearGradient id="orangeGrad" x1="0%" y1="0%" x2="100%" y2="100%">
      <stop offset="0%" style="stop-color:#fff3e0"/>
      <stop offset="100%" style="stop-color:#ffe0b2"/>
    </linearGradient>
    <linearGradient id="purpleGrad" x1="0%" y1="0%" x2="100%" y2="100%">
      <stop offset="0%" style="stop-color:#f3e5f5"/>
      <stop offset="100%" style="stop-color:#e1bee7"/>
    </linearGradient>
    <linearGradient id="redGrad" x1="0%" y1="0%" x2="100%" y2="100%">
      <stop offset="0%" style="stop-color:#ffebee"/>
      <stop offset="100%" style="stop-color:#ffcdd2"/>
    </linearGradient>
    <!-- Arrow marker -->
    <marker id="arrowBlue" markerWidth="10" markerHeight="10" refX="9" refY="3" orient="auto" markerUnits="strokeWidth">
      <path d="M0,0 L0,6 L9,3 z" fill="#1976d2"/>
    </marker>
    <marker id="arrowGreen" markerWidth="10" markerHeight="10" refX="9" refY="3" orient="auto" markerUnits="strokeWidth">
      <path d="M0,0 L0,6 L9,3 z" fill="#388e3c"/>
    </marker>
    <!-- Filter for shadow -->
    <filter id="shadow" x="-20%" y="-20%" width="140%" height="140%">
      <feDropShadow dx="2" dy="2" stdDeviation="3" flood-opacity="0.2"/>
    </filter>
  </defs>
  
  <style>
    @keyframes fadeInSlide {
      from { opacity: 0; transform: translateY(20px); }
      to { opacity: 1; transform: translateY(0); }
    }
    @keyframes scaleIn {
      from { opacity: 0; transform: scale(0.85); }
      to { opacity: 1; transform: scale(1); }
    }
    @keyframes textReveal {
      from { opacity: 0; transform: translateX(-10px); }
      to { opacity: 1; transform: translateX(0); }
    }
    @keyframes drawLine {
      from { stroke-dashoffset: 300; }
      to { stroke-dashoffset: 0; }
    }
    @keyframes pulse {
      0%, 100% { transform: scale(1); }
      50% { transform: scale(1.03); }
    }
    @keyframes highlightRow {
      0%, 100% { fill: #e3f2fd; }
      50% { fill: #bbdefb; }
    }
    .step { animation: fadeInSlide 0.6s ease-out; }
    .step rect {
      animation: scaleIn 0.5s cubic-bezier(0.34, 1.56, 0.64, 1);
      transform-origin: center;
    }
    .step text { animation: textReveal 0.4s ease-out 0.2s backwards; }
    .title-text { font-size: 18px; font-weight: bold; fill: white; }
    .step-title { font-size: 13px; font-weight: bold; fill: #1565c0; }
    .body-text { font-size: 10px; fill: #333; }
    .label-text { font-size: 9px; fill: #666; }
    .highlight-text { font-size: 10px; fill: #1976d2; font-weight: bold; }
    .complexity-text { font-size: 9px; fill: #f44336; font-weight: bold; }
    .good-text { font-size: 9px; fill: #388e3c; font-weight: bold; }
    .table-header { font-size: 9px; font-weight: bold; fill: white; }
    .draw-line {
      stroke-dasharray: 300;
      stroke-dashoffset: 300;
      animation: drawLine 1s ease-out forwards;
    }
  </style>

  <!-- Background -->
  <rect width="800" height="1700" fill="#f8f9fa"/>
  
  <!-- ==================== STEP 0: Title ==================== -->
  <g class="step" id="step0" data-narration="Welcome to Directory Implementation. We'll explore how operating systems organize and manage files efficiently.">
    <rect x="20" y="15" width="760" height="45" rx="10" fill="url(#titleGrad)" filter="url(#shadow)"/>
    <text x="400" y="43" text-anchor="middle" class="title-text">Directory Implementation in Operating Systems</text>
    <text x="400" y="60" text-anchor="middle" font-size="11" fill="#90caf9">Section 12.4 - Silberschatz OS Concepts</text>
  </g>

  <!-- ==================== STEP 1: What is a Directory ==================== -->
  <g class="step" id="step1" data-narration="A directory is a special file that maps file names to their metadata or data block pointers, enabling efficient file operations.">
    <rect x="20" y="70" width="760" height="90" rx="8" fill="url(#blueGrad)" filter="url(#shadow)"/>
    <text x="40" y="92" class="step-title">What is a Directory?</text>
    <text x="40" y="108" class="body-text">A directory is a special file that contains</text>
    <text x="40" y="122" class="body-text">information about other files - specifically a</text>
    <text x="40" y="136" class="body-text"><tspan class="highlight-text">mapping from file names</tspan> to file metadata</text>
    <text x="40" y="150" class="body-text">(or pointers to inodes/FCBs).</text>
    
    <!-- Visual: Directory box -->
    <rect x="280" y="90" width="180" height="55" rx="5" fill="white" stroke="#1976d2" stroke-width="2"/>
    <text x="370" y="108" text-anchor="middle" class="label-text">Directory</text>
    <line x1="300" y1="120" x2="320" y2="120" stroke="#1976d2" stroke-width="1.5" class="draw-line"/>
    <line x1="320" y1="120" x2="320" y2="150" stroke="#1976d2" stroke-width="1.5" class="draw-line"/>
    <text x="330" y="118" class="body-text">report.txt</text>
    <text x="330" y="132" class="body-text">main.c</text>
    <text x="330" y="146" class="body-text">data.csv</text>
    <line x1="370" y1="145" x2="430" y2="145" stroke="#1976d2" stroke-width="1.5" marker-end="url(#arrowBlue)" class="draw-line"/>
    
    <text x="450" y="108" class="label-text">Operations:</text>
    <text x="450" y="122" class="body-text">• Search for files</text>
    <text x="450" y="136" class="body-text">• Create new files</text>
    <text x="450" y="150" class="body-text">• Delete files</text>
  </g>

  <!-- ==================== STEP 2: Two Implementations ==================== -->
  <g class="step" id="step2" data-narration="There are two main data structures: Linear Lists (simple but slow) and Hash Tables (fast but complex). Let's explore both!">
    <rect x="20" y="170" width="760" height="90" rx="8" fill="url(#greenGrad)" filter="url(#shadow)"/>
    <text x="40" y="192" class="step-title">Two Main Implementations</text>
    
    <!-- Linear List Box -->
    <rect x="40" y="205" width="220" height="45" rx="6" fill="white" stroke="#388e3c" stroke-width="2"/>
    <text x="150" y="222" text-anchor="middle" class="step-title" fill="#388e3c">Linear List</text>
    <text x="150" y="238" text-anchor="middle" class="body-text">Simple list of file names</text>
    <text x="150" y="250" text-anchor="middle" class="complexity-text">O(n) search time</text>
    
    <!-- Arrow between -->
    <path d="M270 227 L310 227" stroke="#666" stroke-width="2" marker-end="url(#arrowGreen)" class="draw-line"/>
    
    <!-- Hash Table Box -->
    <rect x="320" y="205" width="220" height="45" rx="6" fill="white" stroke="#ff9800" stroke-width="2"/>
    <text x="430" y="222" text-anchor="middle" class="step-title" fill="#ff9800">Hash Table</text>
    <text x="430" y="238" text-anchor="middle" class="body-text">Hash-based indexing</text>
    <text x="430" y="250" text-anchor="middle" class="good-text">O(1) average search</text>
    
    <!-- Comparison note -->
    <text x="560" y="220" class="label-text">Key Trade-off:</text>
    <text x="560" y="235" class="body-text">Simplicity vs Speed</text>
    <text x="560" y="250" class="body-text">Choose based on</text>
    <text x="560" y="262" class="body-text">directory size</text>
  </g>

  <!-- ==================== STEP 3: Linear List Structure ==================== -->
  <g class="step" id="step3" data-narration="A linear list stores file names sequentially with pointers to their FCBs. Each entry contains the filename and inode pointer.">
    <rect x="20" y="270" width="760" height="100" rx="8" fill="url(#greenGrad)" filter="url(#shadow)"/>
    <text x="40" y="292" class="step-title">Linear List: Data Structure</text>
    <text x="40" y="308" class="body-text">Store directory as a sequential list of file names with pointers to their data blocks.</text>
    
    <!-- Table visualization -->
    <rect x="40" y="318" width="450" height="45" rx="4" fill="white" stroke="#388e3c" stroke-width="1.5"/>
    <rect x="40" y="318" width="150" height="15" rx="4" fill="#388e3c"/>
    <text x="115" y="329" text-anchor="middle" class="table-header">File Name</text>
    <rect x="190" y="318" width="150" height="15" rx="4" fill="#388e3c"/>
    <text x="265" y="329" text-anchor="middle" class="table-header">Pointer to FCB</text>
    <rect x="340" y="318" width="150" height="15" rx="4" fill="#388e3c"/>
    <text x="415" y="329" text-anchor="middle" class="table-header">Inode Number</text>
    
    <!-- Row 1 -->
    <text x="115" y="348" text-anchor="middle" class="body-text">report.txt</text>
    <line x1="265" y1="340" x2="265" y2="358" stroke="#ddd" stroke-width="1"/>
    <text x="265" y1="348" text-anchor="middle" class="body-text">→ inode 42</text>
    <line x1="415" y1="340" x2="415" y2="358" stroke="#ddd" stroke-width="1"/>
    <text x="415" y="348" text-anchor="middle" class="body-text">42</text>
    
    <!-- Row 2 -->
    <text x="115" y="362" text-anchor="middle" class="body-text">main.c</text>
    <text x="265" y="362" text-anchor="middle" class="body-text">→ inode 17</text>
    <text x="415" y="362" text-anchor="middle" class="body-text">17</text>
    
    <!-- Memory diagram -->
    <text x="510" y="330" class="label-text">Memory Layout:</text>
    <rect x="510" y="340" width="60" height="20" rx="3" fill="#e8f5e9" stroke="#388e3c"/>
    <text x="540" y="354" text-anchor="middle" font-size="8">entry[0]</text>
    <rect x="575" y="340" width="60" height="20" rx="3" fill="#e8f5e9" stroke="#388e3c"/>
    <text x="605" y="354" text-anchor="middle" font-size="8">entry[1]</text>
    <rect x="640" y="340" width="60" height="20" rx="3" fill="#e8f5e9" stroke="#388e3c"/>
    <text x="670" y="354" text-anchor="middle" font-size="8">entry[n]</text>
    <path d="M520 365 Q560 375 600 365" stroke="#388e3c" stroke-width="1.5" fill="none" marker-end="url(#arrowGreen)" class="draw-line"/>
    <text x="640" y="380" text-anchor="middle" class="body-text">Sequential</text>
    <text x="640" y="392" text-anchor="middle" class="body-text">memory</text>
  </g>

  <!-- ==================== STEP 4: Linear List Operations ==================== -->
  <g class="step" id="step4" data-narration="Operations on linear lists: Search scans sequentially O(n), Create checks duplicates then adds O(n), Delete searches and removes O(n).">
    <rect x="20" y="380" width="760" height="95" rx="8" fill="url(#greenGrad)" filter="url(#shadow)"/>
    <text x="40" y="402" class="step-title">Linear List: Operations & Time Complexity</text>
    
    <!-- Operations table -->
    <rect x="40" y="415" width="720" height="50" rx="4" fill="white" stroke="#388e3c" stroke-width="1"/>
    
    <!-- Header -->
    <rect x="40" y="415" width="120" height="14" rx="2" fill="#388e3c"/>
    <text x="100" y="425" text-anchor="middle" class="table-header">Operation</text>
    <rect x="160" y="415" width="350" height="14" rx="2" fill="#388e3c"/>
    <text x="335" y="425" text-anchor="middle" class="table-header">How It Works</text>
    <rect x="510" y="415" width="250" height="14" rx="2" fill="#388e3c"/>
    <text x="635" y="425" text-anchor="middle" class="table-header">Time Complexity</text>
    
    <!-- Search row -->
    <text x="100" y="443" text-anchor="middle" class="body-text">Search</text>
    <text x="335" y="443" text-anchor="middle" class="body-text">Scan list until file found</text>
    <rect x="520" y="435" width="80" height="16" rx="3" fill="#ffebee"/>
    <text x="560" y="447" text-anchor="middle" class="complexity-text">O(n)</text>
    
    <!-- Create row -->
    <text x="100" y="461" text-anchor="middle" class="body-text">Create</text>
    <text x="335" y="461" text-anchor="middle" class="body-text">Check duplicate, add at end</text>
    <rect x="520" y="453" width="80" height="16" rx="3" fill="#ffebee"/>
    <text x="560" y="465" text-anchor="middle" class="complexity-text">O(n)</text>
    
    <!-- Delete row -->
    <text x="100" y="479" text-anchor="middle" class="body-text">Delete</text>
    <text x="335" y="479" text-anchor="middle" class="body-text">Search, then remove entry</text>
    <rect x="520" y="471" width="80" height="16" rx="3" fill="#ffebee"/>
    <text x="560" y="483" text-anchor="middle" class="complexity-text">O(n)</text>
    
    <!-- Note -->
    <text x="620" y="443" class="label-text">n = number of files</text>
  </g>

  <!-- ==================== STEP 5: Linear List Advantages ==================== -->
  <g class="step" id="step5" data-narration="Linear lists are simple to implement with minimal space overhead. No complex data structures needed - just an array!">
    <rect x="20" y="485" width="760" height="75" rx="8" fill="url(#greenGrad)" filter="url(#shadow)"/>
    <text x="40" y="507" class="step-title" fill="#388e3c">✓ Advantages of Linear List</text>
    
    <rect x="40" y="520" width="340" height="30" rx="5" fill="white" stroke="#4caf50" stroke-width="1.5"/>
    <text x="210" y="535" text-anchor="middle" class="body-text"><tspan class="good-text">Simple to implement</tspan> - No complex algorithms</text>
    <text x="210" y="548" text-anchor="middle" class="body-text">Easy to understand and code</text>
    
    <rect x="400" y="520" width="340" height="30" rx="5" fill="white" stroke="#4caf50" stroke-width="1.5"/>
    <text x="570" y="535" text-anchor="middle" class="body-text"><tspan class="good-text">Minimal space overhead</tspan> - Just the list</text>
    <text x="570" y="548" text-anchor="middle" class="body-text">No additional structure needed</text>
    
    <text x="40" y="572" class="label-text">Perfect for: Small directories with few files</text>
  </g>

  <!-- ==================== STEP 6: Linear List Disadvantages ==================== -->
  <g class="step" id="step6" data-narration="The main drawback is slow search - O(n) means scanning thousands of entries. Deletion also creates gaps that need handling.">
    <rect x="20" y="570" width="760" height="85" rx="8" fill="url(#redGrad)" filter="url(#shadow)"/>
    <text x="40" y="592" class="step-title" fill="#f44336">✗ Disadvantages of Linear List</text>
    
    <!-- Disadvantage 1 -->
    <rect x="40" y="605" width="230" height="40" rx="5" fill="white" stroke="#f44336" stroke-width="1.5"/>
    <text x="155" y="620" text-anchor="middle" class="label-text">Slow Search</text>
    <text x="155" y="636" text-anchor="middle" class="body-text">O(n) - must scan every entry</text>
    <text x="155" y="650" text-anchor="middle" class="complexity-text">Very slow for large dirs!</text>
    
    <!-- Disadvantage 2 -->
    <rect x="280" y="605" width="230" height="40" rx="5" fill="white" stroke="#f44336" stroke-width="1.5"/>
    <text x="395" y="620" text-anchor="middle" class="label-text">Deletion Issues</text>
    <text x="395" y="636" text-anchor="middle" class="body-text">Creates gaps in the list</text>
    <text x="395" y="650" text-anchor="middle" class="body-text">Need to compact or reuse</text>
    
    <!-- Visual: Gap illustration -->
    <rect x="520" y="605" width="240" height="40" rx="5" fill="white" stroke="#f44336" stroke-width="1.5"/>
    <text x="640" y="620" text-anchor="middle" class="label-text">Gap Problem</text>
    <rect x="535" y="628" width="50" height="10" rx="2" fill="#e3f2fd"/>
    <text x="560" y="636" text-anchor="middle" font-size="8">file1</text>
    <rect x="590" y="628" width="50" height="10" rx="2" fill="#ffcdd2"/>
    <text x="615" y="636" text-anchor="middle" font-size="8" fill="#f44336">DELETED</text>
    <rect x="645" y="628" width="50" height="10" rx="2" fill="#e3f2fd"/>
    <text x="670" y="636" text-anchor="middle" font-size="8">file3</text>
    
    <text x="40" y="670" class="label-text">For directories with 10,000+ files, each operation becomes painfully slow!</text>
  </g>

  <!-- ==================== STEP 7: Linear List Improvements ==================== -->
  <g class="step" id="step7" data-narration="Two improvements: Sorted list enables binary search O(log n), while B-trees provide balanced tree performance for all operations.">
    <rect x="20" y="665" width="760" height="85" rx="8" fill="url(#greenGrad)" filter="url(#shadow)"/>
    <text x="40" y="687" class="step-title">Improving Linear List</text>
    
    <!-- Sorted List -->
    <rect x="40" y="700" width="230" height="40" rx="5" fill="white" stroke="#1565c0" stroke-width="1.5"/>
    <text x="155" y="715" text-anchor="middle" class="step-title" fill="#1565c0">Sorted List</text>
    <text x="155" y="732" text-anchor="middle" class="body-text">Binary search → <tspan class="highlight-text">O(log n)</tspan></text>
    
    <!-- Arrow -->
    <path d="M280 720 L320 720" stroke="#666" stroke-width="1.5" marker-end="url(#arrowBlue)"/>
    
    <!-- B-Tree -->
    <rect x="330" y="700" width="230" height="40" rx="5" fill="white" stroke="#9c27b0" stroke-width="1.5"/>
    <text x="445" y="715" text-anchor="middle" class="step-title" fill="#9c27b0">B-Tree</text>
    <text x="445" y="732" text-anchor="middle" class="body-text">Balanced → <tspan class="highlight-text">O(log n)</tspan></text>
    
    <!-- Binary search visual -->
    <rect x="570" y="700" width="200" height="40" rx="5" fill="white" stroke="#1565c0" stroke-width="1.5"/>
    <text x="670" y="715" text-anchor="middle" class="label-text">Binary Search</text>
    <rect x="585" y="722" width="170" height="5" rx="2" fill="#e3f2fd"/>
    <line x1="590" y1="730" x2="610" y2="730" stroke="#1976d2" stroke-width="1.5"/>
    <text x="600" y="745" text-anchor="middle" font-size="7">lo</text>
    <line x1="670" y1="730" x2="670" y2="730" stroke="#f44336" stroke-width="3"/>
    <text x="670" y="745" text-anchor="middle" font-size="7" fill="#f44336">mid</text>
    <line x1="730" y1="730" x2="745" y2="730" stroke="#1976d2" stroke-width="1.5"/>
    <text x="740" y="745" text-anchor="middle" font-size="7">hi</text>
    
    <!-- Trade-off note -->
    <text x="40" y="760" class="label-text">Trade-off: Insert/Delete become O(n) for sorted list. B-Tree balances all operations.</text>
  </g>

  <!-- ==================== STEP 8: Hash Table - How it Works ==================== -->
  <g class="step" id="step8" data-narration="A hash table uses a hash function to convert filenames into array indices, enabling O(1) average lookup time.">
    <rect x="20" y="760" width="760" height="95" rx="8" fill="url(#orangeGrad)" filter="url(#shadow)"/>
    <text x="40" y="782" class="step-title">Hash Table: How It Works</text>
    <text x="40" y="798" class="body-text">Use a <tspan class="highlight-text">hash function</tspan> to convert filename to an index for fast lookup.</text>
    
    <!-- Hash function illustration -->
    <rect x="40" y="810" width="200" height="35" rx="5" fill="white" stroke="#ff9800" stroke-width="2"/>
    <text x="140" y="828" text-anchor="middle" class="body-text">hash("report.txt")</text>
    <path d="M245 827 L275 827" stroke="#ff9800" stroke-width="2" marker-end="url(#arrowBlue)" class="draw-line"/>
    
    <!-- Hash function box -->
    <rect x="280" y="810" width="120" height="35" rx="5" fill="#fff3e0" stroke="#ff9800" stroke-width="2"/>
    <text x="340" y="828" text-anchor="middle" class="step-title" fill="#ff9800">Hash Function</text>
    <text x="340" y="842" text-anchor="middle" font-size="8">index = hash(name)</text>
    
    <!-- Equals and result -->
    <path d="M405 827 L435 827" stroke="#ff9800" stroke-width="2" marker-end="url(#arrowBlue)" class="draw-line"/>
    <rect x="440" y="810" width="60" height="35" rx="5" fill="#ffe0b2" stroke="#ff9800" stroke-width="2"/>
    <text x="470" y="830" text-anchor="middle" class="body-text">Index</text>
    <text x="470" y="845" text-anchor="middle" class="highlight-text">3</text>
    
    <!-- Visual of hash table array -->
    <text x="520" y="825" class="label-text">Hash Table Array:</text>
    <rect x="520" y="835" width="40" height="18" rx="3" fill="white" stroke="#ff9800"/>
    <text x="540" y="848" text-anchor="middle" font-size="9">[0]</text>
    <rect x="565" y="835" width="40" height="18" rx="3" fill="white" stroke="#ff9800"/>
    <text x="585" y="848" text-anchor="middle" font-size="9">[1]</text>
    <rect x="610" y="835" width="40" height="18" rx="3" fill="#ffe0b2" stroke="#ff9800" stroke-width="2"/>
    <text x="630" y="848" text-anchor="middle" font-size="9" fill="#ff9800">[3]</text>
    <rect x="655" y="835" width="40" height="18" rx="3" fill="white" stroke="#ff9800"/>
    <text x="675" y="848" text-anchor="middle" font-size="9">[4]</text>
    <rect x="700" y="835" width="40" height="18" rx="3" fill="white" stroke="#ff9800"/>
    <text x="720" y="848" text-anchor="middle" font-size="9">[5]</text>
  </g>

  <!-- ==================== STEP 9: Hash Table - Collision Handling ==================== -->
  <g class="step" id="step9" data-narration="When two files hash to the same index, we use chaining - linked lists at each slot handle collisions elegantly.">
    <rect x="20" y="865" width="760" height="100" rx="8" fill="url(#orangeGrad)" filter="url(#shadow)"/>
    <text x="40" y="887" class="step-title">Hash Table: Collision Handling with Chaining</text>
    <text x="40" y="903" class="body-text">When two filenames hash to the same index, use <tspan class="highlight-text">chaining</tspan> - linked lists at each slot.</text>
    
    <!-- Hash table visualization with collision -->
    <rect x="40" y="915" width="180" height="40" rx="4" fill="white" stroke="#ff9800" stroke-width="1"/>
    <text x="130" y="932" text-anchor="middle" font-size="10">Hash Table Array</text>
    <text x="60" y="935" font-size="8">Index:</text>
    
    <!-- Array slots -->
    <rect x="50" y="945" width="30" height="20" rx="2" fill="white" stroke="#ddd"/>
    <text x="65" y="959" text-anchor="middle" font-size="8">0</text>
    <rect x="85" y="945" width="30" height="20" rx="2" fill="white" stroke="#ddd"/>
    <text x="100" y="959" text-anchor="middle" font-size="8">1</text>
    <rect x="120" y="945" width="30" height="20" rx="2" fill="white" stroke="#ddd"/>
    <text x="135" y="959" text-anchor="middle" font-size="8">2</text>
    <rect x="155" y="945" width="30" height="20" rx="2" fill="#ffe0b2" stroke="#ff9800" stroke-width="2"/>
    <text x="170" y="959" text-anchor="middle" font-size="8">3</text>
    <rect x="190" y="945" width="30" height="20" rx="2" fill="white" stroke="#ddd"/>
    <text x="205" y="959" text-anchor="middle" font-size="8">4</text>
    
    <!-- Collision chain at index 3 -->
    <rect x="155" y="968" width="70" height="25" rx="3" fill="#e3f2fd" stroke="#1976d2" stroke-width="1.5"/>
    <text x="190" y="982" text-anchor="middle" font-size="8">report.txt</text>
    <text x="190" y="990" text-anchor="middle" font-size="7">→ inode 42</text>
    <path d="M155 980 L140 980 L140 1010 L155 1010" stroke="#1976d2" stroke-width="1" fill="none" class="draw-line"/>
    
    <rect x="85" y="968" width="70" height="25" rx="3" fill="#e3f2fd" stroke="#1976d2" stroke-width="1.5"/>
    <text x="120" y="982" text-anchor="middle" font-size="8">main.c</text>
    <text x="120" y="990" text-anchor="middle" font-size="7">→ inode 17</text>
    
    <!-- Arrow showing collision -->
    <text x="240" y="935" class="label-text">Collision at index 3:</text>
    <rect x="240" y="945" width="130" height="25" rx="3" fill="#e8f5e9" stroke="#4caf50"/>
    <text x="305" y="960" text-anchor="middle" font-size="8">data.csv</text>
    <text x="305" y="968" text-anchor="middle" font-size="7">→ inode 88</text>
    <path d="M305 970 L305 980 L155 980" stroke="#4caf50" stroke-width="1" fill="none" marker-end="url(#arrowGreen)" class="draw-line"/>
    
    <!-- Another collision example -->
    <rect x="380" y="945" width="180" height="35" rx="4" fill="#fff3e0" stroke="#ff9800"/>
    <text x="470" y="960" text-anchor="middle" class="body-text">hash("data.csv") = 3</text>
    <text x="470" y="975" text-anchor="middle" class="body-text">Collision with report.txt!</text>
    
    <!-- Explanation -->
    <rect x="570" y="915" width="200" height="45" rx="4" fill="#f3e5f5" stroke="#9c27b0"/>
    <text x="670" y="932" text-anchor="middle" class="label-text">Worst Case</text>
    <text x="670" y="950" text-anchor="middle" class="body-text">If ALL files hash to</text>
    <text x="670" y="965" text-anchor="middle" class="body-text">same slot → <tspan class="complexity-text">O(n)</tspan></text>
  </g>

  <!-- ==================== STEP 10: Hash Table Operations ==================== -->
  <g class="step" id="step10" data-narration="Hash table operations: Search averages O(1) by hashing and scanning short chain, Create and Delete also average O(1).">
    <rect x="20" y="975" width="760" height="90" rx="8" fill="url(#orangeGrad)" filter="url(#shadow)"/>
    <text x="40" y="997" class="step-title">Hash Table: Operations & Time Complexity</text>
    
    <!-- Operations table -->
    <rect x="40" y="1010" width="720" height="45" rx="4" fill="white" stroke="#ff9800" stroke-width="1"/>
    
    <!-- Header -->
    <rect x="40" y="1010" width="120" height="12" rx="2" fill="#ff9800"/>
    <text x="100" y="1018" text-anchor="middle" class="table-header">Operation</text>
    <rect x="160" y="1010" width="280" height="12" rx="2" fill="#ff9800"/>
    <text x="300" y="1018" text-anchor="middle" class="table-header">How It Works</text>
    <rect x="440" y="1010" width="150" height="12" rx="2" fill="#ff9800"/>
    <text x="515" y="1018" text-anchor="middle" class="table-header">Average</text>
    <rect x="590" y="1010" width="170" height="12" rx="2" fill="#ff9800"/>
    <text x="675" y="1018" text-anchor="middle" class="table-header">Worst Case</text>
    
    <!-- Search row -->
    <text x="100" y="1035" text-anchor="middle" class="body-text">Search</text>
    <text x="300" y="1035" text-anchor="middle" class="body-text">Hash → index → scan chain</text>
    <rect x="445" y="1027" width="60" height="14" rx="3" fill="#e8f5e9"/>
    <text x="475" y="1037" text-anchor="middle" class="good-text">O(1)</text>
    <rect x="595" y="1027" width="60" height="14" rx="3" fill="#ffebee"/>
    <text x="625" y="1037" text-anchor="middle" class="complexity-text">O(n)</text>
    
    <!-- Create row -->
    <text x="100" y="1053" text-anchor="middle" class="body-text">Create</text>
    <text x="300" y="1053" text-anchor="middle" class="body-text">Hash → check chain → insert</text>
    <rect x="445" y="1045" width="60" height="14" rx="3" fill="#e8f5e9"/>
    <text x="475" y="1055" text-anchor="middle" class="good-text">O(1)</text>
    <rect x="595" y="1045" width="60" height="14" rx="3" fill="#ffebee"/>
    <text x="625" y="1055" text-anchor="middle" class="complexity-text">O(n)</text>
    
    <!-- Delete row -->
    <text x="100" y="1071" text-anchor="middle" class="body-text">Delete</text>
    <text x="300" y="1071" text-anchor="middle" class="body-text">Hash → find → remove from chain</text>
    <rect x="445" y="1063" width="60" height="14" rx="3" fill="#e8f5e9"/>
    <text x="475" y="1073" text-anchor="middle" class="good-text">O(1)</text>
    <rect x="595" y="1063" width="60" height="14" rx="3" fill="#ffebee"/>
    <text x="625" y="1073" text-anchor="middle" class="complexity-text">O(n)</text>
  </g>

  <!-- ==================== STEP 11: Hash Table Advantages ==================== -->
  <g class="step" id="step11" data-narration="Hash tables provide O(1) average search - much faster than linear search! Greatly improves file system performance.">
    <rect x="20" y="1075" width="760" height="70" rx="8" fill="url(#orangeGrad)" filter="url(#shadow)"/>
    <text x="40" y="1097" class="step-title" fill="#ff9800">✓ Advantages of Hash Table</text>
    
    <rect x="40" y="1110" width="350" height="25" rx="5" fill="white" stroke="#4caf50" stroke-width="1.5"/>
    <text x="215" y="1124" text-anchor="middle" class="body-text"><tspan class="good-text">Fast search</tspan> - O(1) average case</text>
    <text x="215" y="1138" text-anchor="middle" class="body-text">vs O(n) for linear list</text>
    
    <rect x="400" y="1110" width="350" height="25" rx="5" fill="white" stroke="#4caf50" stroke-width="1.5"/>
    <text x="575" y="1124" text-anchor="middle" class="body-text"><tspan class="good-text">Fast insert/delete</tspan> - O(1) average</text>
    <text x="575" y="1138" text-anchor="middle" class="body-text">No need to shift elements</text>
    
    <text x="40" y="1160" class="label-text">Best for: Large directories with thousands of files</text>
  </g>

  <!-- ==================== STEP 12: Hash Table Disadvantages ==================== -->
  <g class="step" id="step12" data-narration="Hash tables have fixed size - if directory grows, you may need expensive rehashing. Collisions can also degrade performance.">
    <rect x="20" y="1155" width="760" height="85" rx="8" fill="url(#redGrad)" filter="url(#shadow)"/>
    <text x="40" y="1177" class="step-title" fill="#f44336">✗ Disadvantages of Hash Table</text>
    
    <!-- Disadvantage 1: Fixed Size -->
    <rect x="40" y="1190" width="240" height="40" rx="5" fill="white" stroke="#f44336" stroke-width="1.5"/>
    <text x="160" y="1205" text-anchor="middle" class="label-text">Fixed Size</text>
    <text x="160" y="1222" text-anchor="middle" class="body-text">Table size determined at creation</text>
    <text x="160" y="1237" text-anchor="middle" class="body-text">Rehashing is expensive!</text>
    
    <!-- Disadvantage 2: Collisions -->
    <rect x="290" y="1190" width="240" height="40" rx="5" fill="white" stroke="#f44336" stroke-width="1.5"/>
    <text x="410" y="1205" text-anchor="middle" class="label-text">Collision Issues</text>
    <text x="410" y="1222" text-anchor="middle" class="body-text">Poor hash = many collisions</text>
    <text x="410" y="1237" text-anchor="middle" class="body-text">Degrades to O(n)</text>
    
    <!-- Solutions -->
    <rect x="540" y="1190" width="220" height="40" rx="5" fill="white" stroke="#9c27b0" stroke-width="1.5"/>
    <text x="650" y="1205" text-anchor="middle" class="label-text">Solutions</text>
    <text x="650" y="1222" text-anchor="middle" class="body-text">Chained overflow</text>
    <text x="650" y="1237" text-anchor="middle" class="body-text">Extendible hashing</text>
    
    <!-- Visual: Rehashing -->
    <text x="40" y="1250" class="label-text">Rehashing example:</text>
    <rect x="130" y="1242" width="60" height="15" rx="2" fill="#ffcdd2" stroke="#f44336"/>
    <text x="160" y="1253" text-anchor="middle" font-size="8">size=100</text>
    <path d="M200 1250 L230 1250" stroke="#666" stroke-width="1" marker-end="url(#arrowBlue)"/>
    <rect x="240" y="1242" width="60" height="15" rx="2" fill="#e1bee7" stroke="#9c27b0"/>
    <text x="270" y="1253" text-anchor="middle" font-size="8">size=200</text>
    <path d="M310 1250 L330 1250" stroke="#666" stroke-width="1" marker-end="url(#arrowBlue)"/>
    <text x="350" y="1253" class="body-text">Reinsert ALL entries!</text>
  </g>

  <!-- ==================== STEP 13: Comparison Table ==================== -->
  <g class="step" id="step13" data-narration="Compare: Linear list is simple O(n) for all operations. Hash table is faster O(1) average but has collision and fixed-size issues.">
    <rect x="20" y="1250" width="760" height="100" rx="8" fill="url(#purpleGrad)" filter="url(#shadow)"/>
    <text x="40" y="1272" class="step-title">Comparison: Linear List vs Hash Table</text>
    
    <!-- Comparison table -->
    <rect x="40" y="1285" width="720" height="55" rx="4" fill="white" stroke="#9c27b0" stroke-width="1"/>
    
    <!-- Headers -->
    <rect x="40" y="1285" width="150" height="12" rx="2" fill="#9c27b0"/>
    <text x="115" y="1293" text-anchor="middle" class="table-header">Aspect</text>
    <rect x="190" y="1285" width="180" height="12" rx="2" fill="#9c27b0"/>
    <text x="280" y="1293" text-anchor="middle" class="table-header">Linear List</text>
    <rect x="370" y="1285" width="180" height="12" rx="2" fill="#9c27b0"/>
    <text x="460" y="1293" text-anchor="middle" class="table-header">Hash Table</text>
    <rect x="550" y="1285" width="210" height="12" rx="2" fill="#9c27b0"/>
    <text x="655" y="1293" text-anchor="middle" class="table-header">Best For</text>
    
    <!-- Row 1: Search -->
    <text x="115" y="1308" text-anchor="middle" class="body-text">Search time</text>
    <text x="280" y="1308" text-anchor="middle" class="complexity-text">O(n)</text>
    <text x="460" y="1308" text-anchor="middle" class="good-text">O(1) avg</text>
    <text x="655" y="1308" text-anchor="middle" font-size="8">Large dirs</text>
    
    <!-- Row 2: Implementation -->
    <text x="115" y="1323" text-anchor="middle" class="body-text">Implementation</text>
    <text x="280" y="1323" text-anchor="middle" class="good-text">Simple</text>
    <text x="460" y="1323" text-anchor="middle" class="complexity-text">Complex</text>
    <text x="655" y="1323" text-anchor="middle" font-size="8">-</text>
    
    <!-- Row 3: Space -->
    <text x="115" y="1338" text-anchor="middle" class="body-text">Space</text>
    <text x="280" y="1338" text-anchor="middle" class="good-text">Minimal</text>
    <text x="460" y="1338" text-anchor="middle" class="complexity-text">Overhead</text>
    <text x="655" y="1338" text-anchor="middle" font-size="8">Small dirs</text>
    
    <!-- Row 4: Insert -->
    <text x="115" y="1353" text-anchor="middle" class="body-text">Insert/Delete</text>
    <text x="280" y="1353" text-anchor="middle" class="complexity-text">O(n)</text>
    <text x="460" y="1353" text-anchor="middle" class="good-text">O(1) avg</text>
    <text x="655" y="1353" text-anchor="middle" font-size="8">Dynamic</text>
    
    <!-- Legend -->
    <rect x="600" y="1345" width="80" height="14" rx="2" fill="#e8f5e9"/>
    <text x="640" y="1355" text-anchor="middle" class="good-text">Good</text>
    <rect x="690" y="1345" width="60" height="14" rx="2" fill="#ffebee"/>
    <text x="720" y="1355" text-anchor="middle" class="complexity-text">Slow</text>
  </g>

  <!-- ==================== STEP 14: Real-World Examples ==================== -->
  <g class="step" id="step14" data-narration="Real file systems use different structures: FAT uses linear lists, ext2 uses linked lists, ext4 uses HTree, NTFS uses B+ trees.">
    <rect x="20" y="1360" width="760" height="90" rx="8" fill="url(#blueGrad)" filter="url(#shadow)"/>
    <text x="40" y="1382" class="step-title">Real-World Directory Implementations</text>
    
    <!-- File systems -->
  </g>
</svg>