<svg viewBox="0 0 800 1600" xmlns="http://www.w3.org/2000/svg">
  <defs>
    <!-- Gradients -->
    <linearGradient id="titleGrad" x1="0%" y1="0%" x2="100%" y2="100%">
      <stop offset="0%" style="stop-color:#1976d2"/>
      <stop offset="100%" style="stop-color:#0d47a1"/>
    </linearGradient>
    <linearGradient id="blueGrad" x1="0%" y1="0%" x2="100%" y2="100%">
      <stop offset="0%" style="stop-color:#e3f2fd"/>
      <stop offset="100%" style="stop-color:#bbdefb"/>
    </linearGradient>
    <linearGradient id="greenGrad" x1="0%" y1="0%" x2="100%" y2="100%">
      <stop offset="0%" style="stop-color:#e8f5e9"/>
      <stop offset="100%" style="stop-color:#c8e6c9"/>
    </linearGradient>
    <linearGradient id="orangeGrad" x1="0%" y1="0%" x2="100%" y2="100%">
      <stop offset="0%" style="stop-color:#fff3e0"/>
      <stop offset="100%" style="stop-color:#ffe0b2"/>
    </linearGradient>
    <linearGradient id="purpleGrad" x1="0%" y1="0%" x2="100%" y2="100%">
      <stop offset="0%" style="stop-color:#f3e5f5"/>
      <stop offset="100%" style="stop-color:#e1bee7"/>
    </linearGradient>
    <linearGradient id="nodeGrad" x1="0%" y1="0%" x2="100%" y2="100%">
      <stop offset="0%" style="stop-color:#4fc3f7"/>
      <stop offset="100%" style="stop-color:#0288d1"/>
    </linearGradient>
    
    <!-- Arrow Marker -->
    <marker id="arrowHead" markerWidth="10" markerHeight="7" refX="9" refY="3.5" orient="auto">
      <polygon points="0 0, 10 3.5, 0 7" fill="#1976d2"/>
    </marker>
    
    <!-- Drop Shadow Filter -->
    <filter id="shadow" x="-20%" y="-20%" width="140%" height="140%">
      <feDropShadow dx="2" dy="2" stdDeviation="3" flood-color="#000" flood-opacity="0.2"/>
    </filter>
  </defs>
  
  <style>
    @keyframes fadeInSlide {
      from { opacity: 0; transform: translateY(20px); }
      to { opacity: 1; transform: translateY(0); }
    }
    @keyframes scaleIn {
      from { opacity: 0; transform: scale(0.85); }
      to { opacity: 1; transform: scale(1); }
    }
    @keyframes textReveal {
      from { opacity: 0; transform: translateX(-10px); }
      to { opacity: 1; transform: translateX(0); }
    }
    @keyframes pulse {
      0%, 100% { transform: scale(1); }
      50% { transform: scale(1.03); }
    }
    @keyframes drawLine {
      from { stroke-dashoffset: 300; }
      to { stroke-dashoffset: 0; }
    }
    @keyframes nodeAppear {
      from { opacity: 0; r: 0; }
      to { opacity: 1; r: 25; }
    }
    .step { animation: fadeInSlide 0.6s ease-out; }
    .step rect { animation: scaleIn 0.5s cubic-bezier(0.34, 1.56, 0.64, 1); transform-origin: center; }
    .step text { animation: textReveal 0.4s ease-out 0.2s backwards; }
    .node { animation: nodeAppear 0.6s ease-out backwards; }
    .edge { stroke-dasharray: 300; animation: drawLine 1s ease-out forwards; }
    code { font-family: monospace; font-size: 11px; }
  </style>

  <!-- Background -->
  <rect width="800" height="1600" fill="#f8f9fa"/>
  
  <!-- Section Headers -->
  <rect x="0" y="0" width="800" height="50" fill="url(#titleGrad)"/>
  <text x="400" y="32" text-anchor="middle" font-size="20" font-weight="bold" fill="white">NoSQL Graph Databases and Neo4j</text>

  <!-- SECTION 1: INTRODUCTION -->
  <text x="20" y="58" font-size="12" fill="#666" font-weight="bold">SECTION 1: INTRODUCTION</text>
  <line x1="20" y1="65" x2="780" y2="65" stroke="#1976d2" stroke-width="2"/>

  <!-- Step 0: Title Card -->
  <g class="step" id="step0" data-narration="Welcome to NoSQL Graph Databases. This module explores how graph databases like Neo4j handle connected data efficiently.">
    <rect x="20" y="75" width="760" height="70" rx="10" fill="url(#blueGrad)" filter="url(#shadow)"/>
    <text x="400" y="105" text-anchor="middle" font-size="18" font-weight="bold" fill="#1976d2">Understanding NoSQL &amp; Graph Databases</text>
    <text x="400" y="128" text-anchor="middle" font-size="12" fill="#666">From relational limitations to graph-powered solutions</text>
  </g>

  <!-- Step 1: Types of NoSQL -->
  <g class="step" id="step1" data-narration="NoSQL databases include four main types: document, key-value, column-family, and graph databases, each optimized for specific needs.">
    <rect x="20" y="160" width="760" height="85" rx="10" fill="white" filter="url(#shadow)"/>
    <text x="40" y="185" font-size="14" font-weight="bold" fill="#1976d2">Types of NoSQL Databases</text>
    <!-- Four types visualized -->
    <rect x="40" y="200" width="165" height="35" rx="5" fill="#ffcdd2"/>
    <text x="122" y="222" text-anchor="middle" font-size="11" fill="#c62828">Document (MongoDB)</text>
    <rect x="220" y="200" width="165" height="35" rx="5" fill="#c8e6c9"/>
    <text x="302" y="222" text-anchor="middle" font-size="11" fill="#2e7d32">Key-Value (Redis)</text>
    <rect x="400" y="200" width="165" height="35" rx="5" fill="#fff9c4"/>
    <text x="482" y="222" text-anchor="middle" font-size="11" fill="#f57f17">Column (Cassandra)</text>
    <rect x="580" y="200" width="180" height="35" rx="5" fill="#e1bee7"/>
    <text x="670" y="222" text-anchor="middle" font-size="11" fill="#7b1fa2">Graph (Neo4j)</text>
  </g>

  <!-- Step 2: Why NoSQL -->
  <g class="step" id="step2" data-narration="NoSQL databases solve RDBMS limitations with flexible schemas, horizontal scalability, and high performance for specific use cases.">
    <rect x="20" y="260" width="760" height="85" rx="10" fill="white" filter="url(#shadow)"/>
    <text x="40" y="285" font-size="14" font-weight="bold" fill="#1976d2">Why NoSQL? Key Characteristics</text>
    <g transform="translate(50, 305)">
      <circle cx="15" cy="8" r="6" fill="#e3f2fd"/>
      <text x="30" y="12" font-size="10" fill="#333">Flexible Schema</text>
      <circle cx="180" cy="8" r="6" fill="#e3f2fd"/>
      <text x="195" y="12" font-size="10" fill="#333">Horizontal Scalability</text>
      <circle cx="360" cy="8" r="6" fill="#e3f2fd"/>
      <text x="375" y="12" font-size="10" fill="#333">High Performance</text>
      <circle cx="540" cy="8" r="6" fill="#e3f2fd"/>
      <text x="555" y="12" font-size="10" fill="#333">Eventual Consistency</text>
    </g>
  </g>

  <!-- SECTION 2: DEEP DIVE -->
  <text x="20" y="365" font-size="12" fill="#666" font-weight="bold">SECTION 2: DEEP DIVE</text>
  <line x1="20" y1="372" x2="780" y2="372" stroke="#388e3c" stroke-width="2"/>

  <!-- Step 3: Graph Fundamentals -->
  <g class="step" id="step3" data-narration="Graph databases represent data as nodes (entities) and edges (relationships), enabling efficient traversal of connected networks.">
    <rect x="20" y="385" width="760" height="90" rx="10" fill="white" filter="url(#shadow)"/>
    <text x="40" y="410" font-size="14" font-weight="bold" fill="#388e3c">Graph Database Fundamentals</text>
    <!-- Graph visualization -->
    <circle cx="150" cy="445" r="25" fill="url(#nodeGrad)" class="node" style="animation-delay: 0.3s"/>
    <text x="150" y="450" text-anchor="middle" font-size="10" fill="white" font-weight="bold">Person</text>
    <circle cx="300" cy="445" r="25" fill="url(#nodeGrad)" class="node" style="animation-delay: 0.5s"/>
    <text x="300" y="450" text-anchor="middle" font-size="10" fill="white" font-weight="bold">Person</text>
    <circle cx="225" cy="380" r="25" fill="url(#nodeGrad)" class="node" style="animation-delay: 0.4s"/>
    <text x="225" y="385" text-anchor="middle" font-size="10" fill="white" font-weight="bold">Company</text>
    <line x1="170" y1="430" x2="205" y2="400" stroke="#1976d2" stroke-width="3" class="edge" marker-end="url(#arrowHead)"/>
    <line x1="280" y1="430" x2="245" y2="400" stroke="#1976d2" stroke-width="3" class="edge" marker-end="url(#arrowHead)"/>
    <line x1="172" y1="448" x2="278" y2="448" stroke="#ff9800" stroke-width="3" class="edge" marker-end="url(#arrowHead)"/>
    <text x="400" y="415" font-size="10" fill="#666">Nodes = Entities</text>
    <text x="400" y="430" font-size="10" fill="#666">Edges = Relationships</text>
    <text x="400" y="445" font-size="10" fill="#666">Properties = Attributes</text>
  </g>

  <!-- Step 4: Property Graph Model -->
  <g class="step" id="step4" data-narration="In Neo4j's property graph model, both nodes and relationships can have properties (key-value pairs), labels, and types.">
    <rect x="20" y="490" width="760" height="90" rx="10" fill="white" filter="url(#shadow)"/>
    <text x="40" y="515" font-size="14" font-weight="bold" fill="#388e3c">Property Graph Model</text>
    <!-- Property graph example -->
    <circle cx="120" cy="555" r="30" fill="#4fc3f7" stroke="#0288d1" stroke-width="2"/>
    <text x="120" y="552" text-anchor="middle" font-size="9" fill="#01579b" font-weight="bold">:Person</text>
    <text x="120" y="565" text-anchor="middle" font-size="8" fill="#01579b">name: "John"</text>
    <path d="M 145 555 L 215 530" stroke="#ff9800" stroke-width="3" class="edge"/>
    <text x="180" y="535" font-size="8" fill="#e65100" font-weight="bold">:KNOWS</text>
    <text x="180" y="547" font-size="7" fill="#e65100">since: 2020</text>
    <circle cx="330" cy="555" r="30" fill="#4fc3f7" stroke="#0288d1" stroke-width="2"/>
    <text x="330" y="552" text-anchor="middle" font-size="9" fill="#01579b" font-weight="bold">:Person</text>
    <text x="330" y="565" text-anchor="middle" font-size="8" fill="#01579b">name: "Alice"</text>
    <rect x="420" y="520" width="330" height="50" rx="5" fill="#e8f5e9"/>
    <text x="435" y="540" font-size="11" fill="#2e7d32" font-weight="bold">Key Components:</text>
    <text x="435" y="558" font-size="10" fill="#333">• Labels group nodes (:Person, :Movie)</text>
    <text x="620" y="558" font-size="10" fill="#333">• Relationship types (:KNOWS, :ACTED_IN)</text>
  </g>

  <!-- Step 5: Neo4j Architecture -->
  <g class="step" id="step5" data-narration="Neo4j is a native graph database with ACID compliance, native graph processing, and the Cypher query language.">
    <rect x="20" y="595" width="760" height="90" rx="10" fill="white" filter="url(#shadow)"/>
    <text x="40" y="620" font-size="14" font-weight="bold" fill="#388e3c">Neo4j Architecture</text>
    <g transform="translate(50, 640)">
      <rect x="0" y="0" width="140" height="35" rx="5" fill="#e3f2fd" stroke="#1976d2"/>
      <text x="70" y="22" text-anchor="middle" font-size="10" fill="#1565c0" font-weight="bold">Native Graph</text>
      <rect x="160" y="0" width="140" height="35" rx="5" fill="#e8f5e9" stroke="#388e3c"/>
      <text x="230" y="22" text-anchor="middle" font-size="10" fill="#2e7d32" font-weight="bold">ACID Compliant</text>
      <rect x="320" y="0" width="140" height="35" rx="5" fill="#fff3e0" stroke="#ff9800"/>
      <text x="390" y="22" text-anchor="middle" font-size="10" fill="#e65100" font-weight="bold">Cypher Query</text>
      <rect x="480" y="0" width="140" height="35" rx="5" fill="#f3e5f5" stroke="#9c27b0"/>
      <text x="550" y="22" text-anchor="middle" font-size="10" fill="#7b1fa2" font-weight="bold">Scalable</text>
    </g>
    <text x="50" y="700" font-size="10" fill="#666">Index-Free Adjacency: O(1) relationship traversal vs O(n) JOINs</text>
  </g>

  <!-- Step 6: Index-Free Adjacency Comparison -->
  <g class="step" id="step6" data-narration="Index-free adjacency enables O(1) constant-time relationship traversal in Neo4j, while relational databases need O(n) JOIN operations.">
    <rect x="20" y="700" width="760" height="85" rx="10" fill="white" filter="url(#shadow)"/>
    <text x="40" y="725" font-size="14" font-weight="bold" fill="#388e3c">Index-Free Adjacency: Time Complexity</text>
    <g transform="translate(60, 745)">
      <rect x="0" y="0" width="300" height="30" rx="5" fill="#c8e6c9"/>
      <text x="150" y="20" text-anchor="middle" font-size="12" font-weight="bold" fill="#2e7d32">Neo4j Graph Database</text>
      <text x="320" y="20" font-size="12" font-weight="bold" fill="#2e7d32">O(1)</text>
      <text x="380" y="20" font-size="10" fill="#666">(constant time)</text>
    </g>
    <g transform="translate(60, 785)">
      <rect x="0" y="0" width="300" height="30" rx="5" fill="#ffcdd2"/>
      <text x="150" y="20" text-anchor="middle" font-size="12" font-weight="bold" fill="#c62828">RDBMS with JOIN</text>
      <text x="320" y="20" font-size="12" font-weight="bold" fill="#c62828">O(n)</text>
      <text x="380" y="20" font-size="10" fill="#666">(scans table)</text>
    </g>
  </g>

  <!-- Step 7: Cypher Syntax -->
  <g class="step" id="step7" data-narration="Cypher uses ASCII-art syntax: parentheses () for nodes, arrows --&gt; for relationships, and brackets [] for relationship details.">
    <rect x="20" y="800" width="760" height="85" rx="10" fill="white" filter="url(#shadow)"/>
    <text x="40" y="825" font-size="14" font-weight="bold" fill="#ff9800">Cypher Query Language Syntax</text>
    <g transform="translate(50, 850)">
      <text x="0" y="0" font-size="11" fill="#333" font-family="monospace">(node:Label {'{'property'}'})</text>
      <text x="0" y="20" font-size="11" fill="#333" font-family="monospace">-[rel:TYPE {'{'prop'}'}]-></text>
      <text x="250" y="0" font-size="10" fill="#666">= Node syntax</text>
      <text x="250" y="20" font-size="10" fill="#666">= Relationship syntax</text>
    </g>
    <!-- Visual example -->
    <circle cx="450" cy="870" r="20" fill="#4fc3f7"/>
    <text x="450" y="865" text-anchor="middle" font-size="8" fill="white" font-weight="bold">p:Person</text>
    <text x="450" y="878" text-anchor="middle" font-size="7" fill="white">name</text>
    <line x1="470" y1="870" x2="530" y2="870" stroke="#ff9800" stroke-width="3" class="edge"/>
    <text x="500" y="860" text-anchor="middle" font-size="8" fill="#e65100" font-weight="bold">[:KNOWS]</text>
    <circle cx="580" cy="870" r="20" fill="#4fc3f7"/>
    <text x="580" y="865" text-anchor="middle" font-size="8" fill="white" font-weight="bold">f:Friend</text>
    <text x="580" y="878" text-anchor="middle" font-size="7" fill="white">name</text>
  </g>

  <!-- Step 8: Cypher Core Clauses -->
  <g class="step" id="step8" data-narration="Core Cypher clauses include MATCH for patterns, WHERE for filtering, RETURN for results, and CREATE for new data.">
    <rect x="20" y="900" width="760" height="85" rx="10" fill="white" filter="url(#shadow)"/>
    <text x="40" y="925" font-size="14" font-weight="bold" fill="#ff9800">Core Cypher Clauses</text>
    <g transform="translate(50, 945)">
      <rect x="0" y="0" width="100" height="25" rx="4" fill="#e3f2fd" stroke="#1976d2"/>
      <text x="50" y="17" text-anchor="middle" font-size="10" fill="#1565c0" font-weight="bold">MATCH</text>
      <text x="110" y="17" font-size="9" fill="#666">Find patterns</text>
      
      <rect x="200" y="0" width="100" height="25" rx="4" fill="#fff3e0" stroke="#ff9800"/>
      <text x="250" y="17" text-anchor="middle" font-size="10" fill="#e65100" font-weight="bold">WHERE</text>
      <text x="310" y="17" font-size="9" fill="#666">Filter conditions</text>
      
      <rect x="400" y="0" width="100" height="25" rx="4" fill="#e8f5e9" stroke="#388e3c"/>
      <text x="450" y="17" text-anchor="middle" font-size="10" fill="#2e7d32" font-weight="bold">RETURN</text>
      <text x="510" y="17" font-size="9" fill="#666">Output results</text>
    </g>
    <g transform="translate(50, 975)">
      <rect x="0" y="0" width="100" height="25" rx="4" fill="#fce4ec" stroke="#e91e63"/>
      <text x="50" y="17" text-anchor="middle" font-size="10" fill="#c2185b" font-weight="bold">CREATE</text>
      <text x="110" y="17" font-size="9" fill="#666">Create nodes/rels</text>
      
      <rect x="200" y="0" width="100" height="25" rx="4" fill="#f3e5f5" stroke="#9c27b0"/>
      <text x="250" y="17" text-anchor="middle" font-size="10" fill="#7b1fa2" font-weight="bold">MERGE</text>
      <text x="310" y="17" font-size="9" fill="#666">Upsert (create/match)</text>
      
      <rect x="400" y="0" width="100" height="25" rx="4" fill="#ffcdd2" stroke="#f44336"/>
      <text x="450" y="17" text-anchor="middle" font-size="10" fill="#c62828" font-weight="bold">DELETE</text>
      <text x="510" y="17" font-size="9" fill="#666">Remove data</text>
    </g>
  </g>

  <!-- Step 9: CREATE Example -->
  <g class="step" id="step9" data-narration="The CREATE clause adds new nodes and relationships to the graph. Here's how to create a movie database with actors.">
    <rect x="20" y="1000" width="760" height="85" rx="10" fill="white" filter="url(#shadow)"/>
    <text x="40" y="1025" font-size="14" font-weight="bold" fill="#ff9800">Example: CREATE Nodes and Relationships</text>
    <rect x="50" y="1045" width="450" height="30" rx="4" fill="#263238"/>
    <text x="60" y="1065" font-size="10" fill="#4fc3f7" font-family="monospace">CREATE (matrix:Movie {'{'}title: 'The Matrix', year: 1999{'}'})</text>
    <rect x="50" y="1080" width="450" height="30" rx="4" fill="#263238"/>
    <text x="60" y="1100" font-size="10" fill="#4fc3f7" font-family="monospace">CREATE (keanu:Actor {'{'}name: 'Keanu Reeves'{'}'})-[:ACTED_IN {'{'}role:'Neo'{'}'}]->(matrix)</text>
    <!-- Visual representation -->
    <circle cx="580" cy="1060" r="20" fill="#7e57c2"/>
    <text x="580" y="1055" text-anchor="middle" font-size="7" fill="white">Movie</text>
    <text x="580" y="1068" text-anchor="middle" font-size="7" fill="white">Matrix</text>
    <line x1="600" y1="1060" x2="650" y2="1060" stroke="#ff9800" stroke-width="2"/>
    <text x="625" y="1055" font-size="7" fill="#e65100">ACTED_IN</text>
    <circle cx="680" cy="1060" r="20" fill="#26a69a"/>
    <text x="680" y="1055" text-anchor="middle" font-size="7" fill="white">Actor</text>
    <text x="680" y="1068" text-anchor="middle" font-size="7" fill="white">Keanu</text>
  </g>

  <!-- Step 10: Data Modeling -->
  <g class="step" id="step10" data-narration="Graph data modeling requires thinking in connections: identify entities as nodes, define how they relate, and add properties.">
    <rect x="20" y="1100" width="760" height="85" rx="10" fill="white" filter="url(#shadow)"/>
    <text x="40" y="1125" font-size="14" font-weight="bold" fill="#388e3c">Data Modeling in Neo4j</text>
    <g transform="translate(50, 1145)">
      <rect x="0" y="0" width="220" height="30" rx="5" fill="#e3f2fd" stroke="#1976d2"/>
      <text x="20" y="20" font-size="11" fill="#1565c0">1. Identify Entities as Nodes</text>
      <rect x="240" y="0" width="220" height="30" rx="5" fill="#fff3e0" stroke="#ff9800"/>
      <text x="260" y="20" font-size="11" fill="#e65100">2. Define Relationships</text>
      <rect x="480" y="0" width="220" height="30" rx="5" fill="#e8f5e9" stroke="#388e3c"/>
      <text x="500" y="20" font-size="11" fill="#2e7d32">3. Add Properties</text>
    </g>
    <g transform="translate(50, 1185)">
      <rect x="0" y="0" width="220" height="30" rx="5" fill="#f3e5f5" stroke="#9c27b0"/>
      <text x="20" y="20" font-size="11" fill="#7b1fa2">4. Choose Labels</text>
    </g>
    <text x="50" y="1235" font-size="10" fill="#666">Think connections, not tables! Design queries first, then model accordingly.</text>
  </g>

  <!-- Step 11: Social Network Example -->
  <g class="step" id="step11" data-narration="Graph databases excel at social networks. Here's how to model people and their connections like KNOWS and FOLLOWS.">
    <rect x="20" y="1200" width="760" height="85" rx="10" fill="white" filter="url(#shadow)"/>
    <text x="40" y="1225" font-size="14" font-weight="bold" fill="#9c27b0">Example: Social Network Model</text>
    <!-- Graph visualization -->
    <circle cx="120" cy="1265" r="25" fill="#4fc3f7" stroke="#0288d1" stroke-width="2"/>
    <text x="120" y="1262" text-anchor="middle" font-size="8" fill="#01579b" font-weight="bold">Alice</text>
    <text x="120" y="1274" text-anchor="middle" font-size="7" fill="#01579b">age:30</text>
    
    <circle cx="280" cy="1265" r="25" fill="#4fc3f7" stroke="#0288d1" stroke-width="2"/>
    <text x="280" y="1262" text-anchor="middle" font-size="8" fill="#01579b" font-weight="bold">Bob</text>
    <text x="280" y="1274" text-anchor="middle" font-size="7" fill="#01579b">age:28</text>
    
    <circle cx="440" cy="1265" r="25" fill="#4fc3f7" stroke="#0288d1" stroke-width="2"/>
    <text x="440" y="1262" text-anchor="middle" font-size="8" fill="#01579b" font-weight="bold">Charlie</text>
    <text x="440" y="1274" text-anchor="middle" font-size="7" fill="#01579b">age:35</text>
    
    <line x1="140" y1="1265" x2="260" y2="1265" stroke="#ff9800" stroke-width="2"/>
    <text x="200" y="1260" text-anchor="middle" font-size="8" fill="#e65100" font-weight="bold">KNOWS</text>
    
    <line x1="300" y1="1265" x2="420" y2="1265" stroke="#ff9800" stroke-width="2"/>
    <text x="360" y="1260" text-anchor="middle" font-size="8" fill="#e65100" font-weight="bold">KNOWS</text>
    
    <line x1="145" y1="1250" x2="435" y2="1250" stroke="#9c27b0" stroke-width="2" stroke-dasharray="5,3"/>
    <text x="290" y="1243" text-anchor="middle" font-size="8" fill="#7b1fa2" font-weight="bold">FOLLOWS</text>
    
    <rect x="520" y="1240" width="220" height="50" rx="5" fill="#fff3e0"/>
    <text x="530" y="1260" font-size="10" fill="#333" font-family="monospace">MATCH (a:Person)-[:KNOWS]-&gt;(b)</text>
    <text x="530" y="1278" font-size="10" fill="#333" font-family="monospace">RETURN a.name, b.name</text>
  </g>

  <!-- Step 12: Graph Algorithms -->
  <g class="step" id="step12" data-narration="Neo4j includes built-in algorithms for shortest path finding, centrality measures, and network analysis.">
    <rect x="20" y="1300" width="760" height="75" rx="10" fill="white" filter="url(#shadow)"/>
    <text x="40" y="1325" font-size="14" font-weight="bold" fill="#9c27b0">Graph Algorithms in Neo4j</text>
    <g transform="translate(50, 1345)">
      <rect x="0" y="0" width="230" height="25" rx="5" fill="#e8f5e9" stroke="#388e3c"/>
      <text x="20" y="17" font-size="10" fill="#2e7d32" font-weight="bold">shortestPath()</text>
      <text x="130" y="17" font-size="10" fill="#666">Find shortest route between nodes</text>
    </g>
    <g transform="translate(300, 1345)">
      <rect x="0" y="0" width="230" height="25" rx="5" fill="#e3f2fd" stroke="#1976d2"/>
      <text x="20" y="17" font-size="10" fill="#1565c0" font-weight="bold">degree centrality</text>
      <text x="130" y="17" font-size="10" fill="#666">Count node connections</text>
    </g>
    <g transform="translate(550, 1345)">
      <rect x="0" y="0" width="180" height="25" rx="5" fill="#fff3e0" stroke="#ff9800"/>
      <text x="20" y="17" font-size="10" fill="#e65100" font-weight="bold">pageRank</text>
      <text x="110" y="17" font-size="10" fill="#666">Importance ranking</text>
    </g>
  </g>

  <!-- SECTION 3: SUMMARY -->
  <text x="20" y="1395" font-size="12" fill="#666" font-weight="bold">SECTION 3: SUMMARY</text>
  <line x1="20" y1="1402" x2="780" y2="1402" stroke="#9c27b0" stroke-width="2"/>

  <!-- Step 13: Key Takeaways -->
  <g class="step" id="step13" data-narration="Key takeaways: Graph databases excel at connected data, Neo4j provides ACID compliance with O(1) traversal using Cypher.">
    <rect x="20" y="1415" width="760" height="70" rx="10" fill="url(#purpleGrad)" filter="url(#shadow)"/>
    <text x="40" y="1440" font-size="14" font-weight="bold" fill="#7b1fa2">Key Takeaways</text>
    <g transform="translate(50, 1460)">
      <circle cx="10" cy="5" r="4" fill="#7b1fa2"/>
      <text x="25" y="9" font-size="10" fill="#333">NoSQL databases offer flexible schemas and horizontal scalability</text>
      <circle cx="300" cy="5" r="4" fill="#7b1fa2"/>
      <text x="315" y="9" font-size="10" fill="#333">Graph databases store relationships directly for O(1) traversal</text>
      <circle cx="600" cy="5" r="4" fill="#7b1fa2"/>
      <text x="615" y="9" font-size="10" fill="#333">Neo4j uses Cypher with intuitive ASCII-art syntax</text>
    </g>
  </g>

  <!-- Step 14: Exam Tips -->
  <g class="step" id="step14" data-narration="For exams: Remember index-free adjacency, Cypher syntax, ACID properties, and when to choose graph over relational databases.">
    <rect x="20" y="1500" width="760" height="70" rx="10" fill="white" filter="url(#shadow)"/>
    <text x="40" y="1525" font-size="14" font-weight="bold" fill="#7b1fa2">Exam Tips &amp; Revision</text>
    <g transform="translate(50, 1545)">
      <rect x="0" y="0" width="180" height="20" rx="4" fill="#ffcdd2"/>
      <text x="10" y="14" font-size="9" fill="#c62828">Know NoSQL categories</text>
      <rect x="200" y="0" width="180" height="20" rx="4" fill="#c8e6c9"/>
      <text x="210" y="14" font-size="9" fill="#2e7d32">Graph vs Relational</text>
      <rect x="400" y="0" width="180" height="20" rx="4" fill="#bbdefb"/>
      <text x="410" y="14" font-size="9" fill="#1565c0">Cypher syntax practice</text>
      <rect x="600" y="0" width="160" height="20" rx="4" fill="#ffe0b2"/>
      <text x="610" y="14" font-size="9" fill="#e65100">ACID in Neo4j</text>
    </g>
  </g>

</svg>