<svg xmlns="http://www.w3.org/2000/svg" viewBox="0 0 800 1600">
  <defs>
    <linearGradient id="blueGrad" x1="0%" y1="0%" x2="100%" y2="100%">
      <stop offset="0%" style="stop-color:#e3f2fd"/>
      <stop offset="100%" style="stop-color:#bbdefb"/>
    </linearGradient>
    <linearGradient id="greenGrad" x1="0%" y1="0%" x2="100%" y2="100%">
      <stop offset="0%" style="stop-color:#e8f5e9"/>
      <stop offset="100%" style="stop-color:#c8e6c9"/>
    </linearGradient>
    <linearGradient id="orangeGrad" x1="0%" y1="0%" x2="100%" y2="100%">
      <stop offset="0%" style="stop-color:#fff3e0"/>
      <stop offset="100%" style="stop-color:#ffe0b2"/>
    </linearGradient>
    <linearGradient id="purpleGrad" x1="0%" y1="0%" x2="100%" y2="100%">
      <stop offset="0%" style="stop-color:#f3e5f5"/>
      <stop offset="100%" style="stop-color:#e1bee7"/>
    </linearGradient>
    <linearGradient id="redGrad" x1="0%" y1="0%" x2="100%" y2="100%">
      <stop offset="0%" style="stop-color:#ffebee"/>
      <stop offset="100%" style="stop-color:#ffcdd2"/>
    </linearGradient>
    <linearGradient id="titleGrad" x1="0%" y1="0%" x2="100%" y2="0%">
      <stop offset="0%" style="stop-color:#1976d2"/>
      <stop offset="100%" style="stop-color:#1565c0"/>
    </linearGradient>
    <filter id="shadow" x="-20%" y="-20%" width="140%" height="140%">
      <feDropShadow dx="2" dy="3" stdDeviation="3" flood-opacity="0.15"/>
    </filter>
    <marker id="arrowBlue" markerWidth="10" markerHeight="10" refX="9" refY="3" orient="auto">
      <path d="M0,0 L0,6 L9,3 z" fill="#1976d2"/>
    </marker>
    <marker id="arrowGreen" markerWidth="10" markerHeight="10" refX="9" refY="3" orient="auto">
      <path d="M0,0 L0,6 L9,3 z" fill="#388e3c"/>
    </marker>
    <marker id="arrowOrange" markerWidth="10" markerHeight="10" refX="9" refY="3" orient="auto">
      <path d="M0,0 L0,6 L9,3 z" fill="#ff9800"/>
    </marker>
  </defs>
  
  <style>
    @keyframes fadeInSlide {
      from { opacity: 0; transform: translateY(20px); }
      to { opacity: 1; transform: translateY(0); }
    }
    @keyframes scaleIn {
      from { opacity: 0; transform: scale(0.85); }
      to { opacity: 1; transform: scale(1); }
    }
    @keyframes textReveal {
      from { opacity: 0; transform: translateX(-10px); }
      to { opacity: 1; transform: translateX(0); }
    }
    @keyframes pulse {
      0%, 100% { transform: scale(1); }
      50% { transform: scale(1.03); }
    }
    @keyframes drawLine {
      from { stroke-dashoffset: 500; }
      to { stroke-dashoffset: 0; }
    }
    @keyframes fadeIn {
      from { opacity: 0; }
      to { opacity: 1; }
    }
    .step { animation: fadeInSlide 0.6s ease-out; }
    .step rect {
      animation: scaleIn 0.5s cubic-bezier(0.34, 1.56, 0.64, 1);
      transform-origin: center;
    }
    .step text { animation: textReveal 0.4s ease-out 0.2s backwards; }
    .title-text { font-size: 22px; font-weight: bold; fill: white; font-family: Arial, sans-serif; }
    .subtitle-text { font-size: 12px; fill: #546e7a; font-family: Arial, sans-serif; }
    .body-text { font-size: 10px; fill: #37474f; font-family: Arial, sans-serif; }
    .label-text { font-size: 9px; fill: #78909c; font-family: Arial, sans-serif; }
    .highlight-text { font-size: 10px; fill: #1976d2; font-weight: bold; font-family: Arial, sans-serif; }
    .code-text { font-size: 8px; fill: #455a64; font-family: 'Courier New', monospace; }
    .anim-line { stroke-dasharray: 500; animation: drawLine 1.5s ease-out forwards; }
  </style>
  
  <rect width="800" height="1600" fill="#f8f9fa"/>
  
  <!-- step0: Title -->
  <g class="step" id="step0" data-narration="MIMD Systems form the backbone of modern parallel computing, enabling multiple processors to work independently.">
    <rect x="0" y="0" width="800" height="55" fill="url(#titleGrad)" rx="0"/>
    <text x="400" y="35" text-anchor="middle" class="title-text">MIMD Systems in Parallel Computing</text>
    <text x="400" y="48" text-anchor="middle" class="subtitle-text">Architecture, Memory Models, and Programming</text>
  </g>
  
  <!-- step1: What is MIMD -->
  <g class="step" id="step1" data-narration="MIMD stands for Multiple Instruction Multiple Data, where processors execute different instructions on different data simultaneously.">
    <rect x="20" y="65" width="760" height="85" fill="url(#blueGrad)" rx="10" filter="url(#shadow)"/>
    <text x="40" y="85" class="highlight-text">What is MIMD?</text>
    <text x="40" y="105" class="body-text">MIMD (Multiple Instruction, Multiple Data) is a parallel architecture where</text>
    <text x="40" y="120" class="body-text">multiple processors execute DIFFERENT instructions on DIFFERENT data</text>
    <text x="40" y="135" class="body-text">simaneously. Each processor has its own control unit and works independently.</text>
    <!-- Visual diagram -->
    <rect x="550" y="80" width="50" height="30" fill="#1976d2" rx="5"/>
    <rect x="620" y="80" width="50" height="30" fill="#388e3c" rx="5"/>
    <rect x="690" y="80" width="50" height="30" fill="#ff9800" rx="5"/>
    <text x="575" y="100" text-anchor="middle" fill="white" font-size="8" font-family="Arial">P0</text>
    <text x="645" y="100" text-anchor="middle" fill="white" font-size="8" font-family="Arial">P1</text>
    <text x="715" y="100" text-anchor="middle" fill="white" font-size="8" font-family="Arial">P2</text>
    <text x="575" y="120" text-anchor="middle" class="label-text">Instr A</text>
    <text x="645" y="120" text-anchor="middle" class="label-text">Instr B</text>
    <text x="715" y="120" text-anchor="middle" class="label-text">Instr C</text>
  </g>
  
  <!-- step2: Key Characteristics -->
  <g class="step" id="step2" data-narration="MIMD systems have three key characteristics: independent execution, asynchronous operation, and flexible programming capabilities.">
    <rect x="20" y="160" width="760" height="90" fill="url(#greenGrad)" rx="10" filter="url(#shadow)"/>
    <text x="40" y="180" class="highlight-text">Key Characteristics of MIMD</text>
    <rect x="40" y="195" width="220" height="45" fill="white" rx="6"/>
    <text x="50" y="212" class="highlight-text" font-size="9">1. Independent Execution</text>
    <text x="50" y="228" class="body-text">Each processor has its own</text>
    <text x="50" y="240" class="body-text">control unit, executes different</text>
    <rect x="280" y="195" width="220" height="45" fill="white" rx="6"/>
    <text x="290" y="212" class="highlight-text" font-size="9">2. Asynchronous Operation</text>
    <text x="290" y="228" class="body-text">Processors work at their own</text>
    <text x="290" y="240" class="body-text">pace without lock-step sync</text>
    <rect x="520" y="195" width="240" height="45" fill="white" rx="6"/>
    <text x="530" y="212" class="highlight-text" font-size="9">3. Flexible Programming</text>
    <text x="530" y="228" class="body-text">Handles irregular problems</text>
    <text x="530" y="240" class="body-text">and different algorithms</text>
  </g>
  
  <!-- step3: SIMD vs MIMD Comparison -->
  <g class="step" id="step3" data-narration="SIMD executes the same instruction on multiple data elements in lockstep, while MIMD executes different instructions on different data asynchronously.">
    <rect x="20" y="260" width="760" height="100" fill="url(#orangeGrad)" rx="10" filter="url(#shadow)"/>
    <text x="40" y="280" class="highlight-text">SIMD vs MIMD: The Fundamental Difference</text>
    <!-- SIMD side -->
    <rect x="40" y="295" width="340" height="55" fill="#ffebee" rx="8"/>
    <text x="60" y="315" class="highlight-text" fill="#f44336">SIMD (Single Instruction, Multiple Data)</text>
    <text x="60" y="332" class="body-text">All processors execute SAME instruction</text>
    <text x="60" y="347" class="body-text">simultaneously in lock-step</text>
    <!-- Arrow -->
    <text x="400" y="325" text-anchor="middle" font-size="20" fill="#78909c">VS</text>
    <!-- MIMD side -->
    <rect x="440" y="295" width="320" height="55" fill="#e8f5e9" rx="8"/>
    <text x="460" y="315" class="highlight-text" fill="#388e3c">MIMD (Multiple Instruction, Multiple Data)</text>
    <text x="460" y="332" class="body-text">Each processor executes DIFFERENT</text>
    <text x="460" y="347" class="body-text">instructions independently</text>
  </g>
  
  <!-- step4: Shared Memory MIMD -->
  <g class="step" id="step4" data-narration="Shared memory MIMD systems have a global address space where all processors communicate through memory reads and writes.">
    <rect x="20" y="370" width="760" height="110" fill="url(#blueGrad)" rx="10" filter="url(#shadow)"/>
    <text x="40" y="395" class="highlight-text">Shared Memory MIMD Systems</text>
    <!-- Memory visualization -->
    <rect x="320" y="420" width="160" height="50" fill="#1565c0" rx="8"/>
    <text x="400" y="445" text-anchor="middle" fill="white" font-size="11" font-weight="bold">Shared Global Memory</text>
    <text x="400" y="460" text-anchor="middle" fill="#bbdefb" font-size="8">Global Address Space</text>
    <!-- Processors -->
    <rect x="60" y="430" width="60" height="35" fill="#1976d2" rx="5"/>
    <text x="90" y="452" text-anchor="middle" fill="white" font-size="9">P0</text>
    <rect x="150" y="430" width="60" height="35" fill="#1976d2" rx="5"/>
    <text x="180" y="452" text-anchor="middle" fill="white" font-size="9">P1</text>
    <rect x="590" y="430" width="60" height="35" fill="#1976d2" rx="5"/>
    <text x="620" y="452" text-anchor="middle" fill="white" font-size="9">P2</text>
    <rect x="680" y="430" width="60" height="35" fill="#1976d2" rx="5"/>
    <text x="710" y="452" text-anchor="middle" fill="white" font-size="9">P3</text>
    <!-- Connecting lines -->
    <line x1="120" y1="447" x2="320" y2="445" stroke="#1976d2" stroke-width="2" class="anim-line" marker-end="url(#arrowBlue)"/>
    <line x1="240" y1="447" x2="320" y2="447" stroke="#1976d2" stroke-width="2" class="anim-line" marker-end="url(#arrowBlue)"/>
    <line x1="480" y1="447" x2="440" y2="447" stroke="#1976d2" stroke-width="2" class="anim-line" marker-end="url(#arrowBlue)"/>
    <line x1="590" y1="447" x2="480" y2="445" stroke="#1976d2" stroke-width="2" class="anim-line" marker-end="url(#arrowBlue)"/>
  </g>
  
  <!-- step5: Distributed Memory MIMD -->
  <g class="step" id="step5" data-narration="Distributed memory MIMD systems have private local memory per processor and communicate through message passing over an interconnection network.">
    <rect x="20" y="490" width="760" height="120" fill="url(#greenGrad)" rx="10" filter="url(#shadow)"/>
    <text x="40" y="515" class="highlight-text">Distributed Memory MIMD Systems</text>
    <!-- Processors with local memory -->
    <rect x="50" y="535" width="70" height="65" fill="#388e3c" rx="8"/>
    <text x="85" y="555" text-anchor="middle" fill="white" font-weight="bold" font-size="10">P0</text>
    <rect x="55" y="570" width="60" height="20" fill="#2e7d32" rx="4"/>
    <text x="85" y="583" text-anchor="middle" fill="white" font-size="7">Local Mem</text>
    
    <rect x="230" y="535" width="70" height="65" fill="#388e3c" rx="8"/>
    <text x="265" y="555" text-anchor="middle" fill="white" font-weight="bold" font-size="10">P1</text>
    <rect x="235" y="570" width="60" height="20" fill="#2e7d32" rx="4"/>
    <text x="265" y="583" text-anchor="middle" fill="white" font-size="7">Local Mem</text>
    
    <rect x="410" y="535" width="70" height="65" fill="#388e3c" rx="8"/>
    <text x="445" y="555" text-anchor="middle" fill="white" font-weight="bold" font-size="10">P2</text>
    <rect x="415" y="570" width="60" height="20" fill="#2e7d32" rx="4"/>
    <text x="445" y="583" text-anchor="middle" fill="white" font-size="7">Local Mem</text>
    
    <rect x="590" y="535" width="70" height="65" fill="#388e3c" rx="8"/>
    <text x="625" y="555" text-anchor="middle" fill="white" font-weight="bold" font-size="10">P3</text>
    <rect x="595" y="570" width="60" height="20" fill="#2e7d32" rx="4"/>
    <text x="625" y="583" text-anchor="middle" fill="white" font-size="7">Local Mem</text>
    
    <!-- Network -->
    <rect x="200" y="610" width="400" height="25" fill="#795548" rx="5"/>
    <text x="400" y="627" text-anchor="middle" fill="white" font-size="9">Interconnection Network</text>
    <!-- Message arrows -->
    <line x1="120" y1="600" x2="120" y2="610" stroke="#ff9800" stroke-width="2" class="anim-line"/>
    <line x1="265" y1="600" x2="265" y2="610" stroke="#ff9800" stroke-width="2" class="anim-line"/>
    <line x1="445" y1="600" x2="445" y2="610" stroke="#ff9800" stroke-width="2" class="anim-line"/>
    <line x1="625" y1="600" x2="625" y2="610" stroke="#ff9800" stroke-width="2" class="anim-line"/>
  </g>
  
  <!-- step6: Comparison Table -->
  <g class="step" id="step6" data-narration="Shared memory offers simple programming with implicit communication but limited scalability. Distributed memory provides excellent scalability but requires explicit message passing.">
    <rect x="20" y="620" width="760" height="140" fill="url(#purpleGrad)" rx="10" filter="url(#shadow)"/>
    <text x="40" y="645" class="highlight-text">Comparison: Shared vs Distributed Memory MIMD</text>
    <!-- Table header -->
    <rect x="40" y="660" width="720" height="25" fill="#7b1fa2" rx="5"/>
    <text x="150" y="677" text-anchor="middle" fill="white" font-size="10" font-weight="bold">Aspect</text>
    <text x="400" y="677" text-anchor="middle" fill="white" font-size="10" font-weight="bold">Shared Memory</text>
    <text x="650" y="677" text-anchor="middle" fill="white" font-size="10" font-weight="bold">Distributed Memory</text>
    <!-- Row 1 -->
    <rect x="40" y="690" width="720" height="22" fill="white" rx="3"/>
    <text x="150" y="706" text-anchor="middle" class="body-text" font-weight="bold">Memory</text>
    <text x="400" y="706" text-anchor="middle" class="body-text">Global shared</text>
    <text x="650" y="706" text-anchor="middle" class="body-text">Local per processor</text>
    <!-- Row 2 -->
    <rect x="40" y="715" width="720" height="22" fill="#f3e5f5" rx="3"/>
    <text x="150" y="731" text-anchor="middle" class="body-text" font-weight="bold">Communication</text>
    <text x="400" y="731" text-anchor="middle" class="body-text">Memory reads/writes</text>
    <text x="650" y="731" text-anchor="middle" class="body-text">Message passing</text>
    <!-- Row 3 -->
    <rect x="40" y="740" width="720" height="22" fill="white" rx="3"/>
    <text x="150" y="756" text-anchor="middle" class="body-text" font-weight="bold">Programming</text>
    <text x="400" y="756" text-anchor="middle" class="body-text">OpenMP</text>
    <text x="650" y="756" text-anchor="middle" class="body-text">MPI</text>
    <!-- Row 4 -->
    <rect x="40" y="765" width="720" height="22" fill="#f3e5f5" rx="3"/>
    <text x="150" y="781" text-anchor="middle" class="body-text" font-weight="bold">Scalability</text>
    <text x="400" y="781" text-anchor="middle" class="body-text">Limited</text>
    <text x="650" y="781" text-anchor="middle" class="body-text">Highly scalable</text>
  </g>
  
  <!-- step7: Interconnection Networks -->
  <g class="step" id="step7" data-narration="Interconnection networks connect processors and memory. Common topologies include bus, mesh, hypercube, and crossbar, each with different performance characteristics.">
    <rect x="20" y="770" width="760" height="130" fill="url(#orangeGrad)" rx="10" filter="url(#shadow)"/>
    <text x="40" y="795" class="highlight-text">Interconnection Network Topologies</text>
    <!-- Bus -->
    <rect x="40" y="815" width="165" height="75" fill="white" rx="8"/>
    <text x="122" y="830" text-anchor="middle" class="highlight-text" font-size="9">Bus</text>
    <line x1="60" y1="855" x2="185" y2="855" stroke="#1976d2" stroke-width="3" class="anim-line"/>
    <rect x="60" y="840" width="25" height="15" fill="#90caf9" rx="2"/>
    <rect x="95" y="840" width="25" height="15" fill="#90caf9" rx="2"/>
    <rect x="130" y="840" width="25" height="15" fill="#90caf9" rx="2"/>
    <rect x="165" y="835" width="30" height="35" fill="#1565c0" rx="3"/>
    <text x="180" y="855" fill="white" font-size="6">Mem</text>
    <!-- Mesh -->
    <rect x="220" y="815" width="165" height="75" fill="white" rx="8"/>
    <text x="302" y="830" text-anchor="middle" class="highlight-text" font-size="9">Mesh</text>
    <rect x="245" y="842" width="30" height="25" fill="#4caf50" rx="3"/>
    <rect x="287" y="842" width="30" height="25" fill="#4caf50" rx="3"/>
    <rect x="329" y="842" width="30" height="25" fill="#4caf50" rx="3"/>
    <rect x="245" y="872" width="30" height="25" fill="#4caf50" rx="3"/>
    <rect x="287" y="872" width="30" height="25" fill="#4caf50" rx="3"/>
    <rect x="329" y="872" width="30" height="25" fill="#4caf50" rx="3"/>
    <line x1="275" y1="855" x2="287" y2="855" stroke="#388e3c" stroke-width="2"/>
    <line x1="317" y1="855" x2="329" y2="855" stroke="#388e3c" stroke-width="2"/>
    <line x1="260" y1="867" x2="260" y2="872" stroke="#388e3c" stroke-width="2"/>
    <line x1="302" y1="867" x2="302" y2="872" stroke="#388e3c" stroke-width="2"/>
    <!-- Hypercube -->
    <rect x="400" y="815" width="165" height="75" fill="white" rx="8"/>
    <text x="482" y="830" text-anchor="middle" class="highlight-text" font-size="9">Hypercube</text>
    <circle cx="455" cy="860" r="15" fill="#ff9800"/>
    <text x="455" y="864" text-anchor="middle" fill="white" font-size="7">000</text>
    <circle cx="510" cy="845" r="15" fill="#ff9800"/>
    <text x="510" y="849" text-anchor="middle" fill="white" font-size="7">001</text>
    <circle cx="510" cy="875" r="15" fill="#ff9800"/>
    <text x="510" y="879" text-anchor="middle" fill="white" font-size="7">011</text>
    <line x1="465" y1="853" x2="495" y2="847" stroke="#f57c00" stroke-width="2" class="anim-line"/>
    <line x1="465" y1="867" x2="495" y2="873" stroke="#f57c00" stroke-width="2" class="anim-line"/>
    <!-- Crossbar -->
    <rect x="580" y="815" width="180" height="75" fill="white" rx="8"/>
    <text x="670" y="830" text-anchor="middle" class="highlight-text" font-size="9">Crossbar</text>
    <rect x="590" y="850" width="20" height="30" fill="#9c27b0" rx="2"/>
    <rect x="625" y="850" width="20" height="30" fill="#9c27b0" rx="2"/>
    <rect x="660" y="850" width="20" height="30" fill="#9c27b0" rx="2"/>
    <rect x="695" y="850" width="20" height="30" fill="#9c27b0" rx="2"/>
    <rect x="600" y="880" width="30" height="20" fill="#7b1fa2" rx="2"/>
    <rect x="660" y="880" width="30" height="20" fill="#7b1fa2" rx="2"/>
    <line x1="600" y1="860" x2="600" y2="880" stroke="#7b1fa2" stroke-width="1.5"/>
    <line x1="635" y1="860" x2="690" y2="880" stroke="#7b1fa2" stroke-width="1.5"/>
    <line x1="670" y1="860" x2="660" y2="880" stroke="#7b1fa2" stroke-width="1.5"/>
    <line x1="705" y1="860" x2="630" y2="880" stroke="#7b1fa2" stroke-width="1.5"/>
  </g>
  
  <!-- step8: Cache Coherence Protocols -->
  <g class="step" id="step8" data-narration="Cache coherence ensures data consistency across processor caches. Protocols include Write-Invalidate, Write-Update, MSI, and MESI.">
    <rect x="20" y="910" width="760" height="110" fill="url(#redGrad)" rx="10" filter="url(#shadow)"/>
    <text x="40" y="935" class="highlight-text">Cache Coherence Protocols</text>
    <!-- Write-Invalidate -->
    <rect x="40" y="955" width="230" height="55" fill="white" rx="8"/>
    <text x="155" y="973" text-anchor="middle" class="highlight-text" font-size="9">Write-Invalidate</text>
    <text x="155" y="990" text-anchor="middle" class="body-text">Invalidates other copies</text>
    <text x="155" y="1005" text-anchor="middle" class="body-text">when writing</text>
    <!-- Write-Update -->
    <rect x="290" y="955" width="230" height="55" fill="white" rx="8"/>
    <text x="405" y="973" text-anchor="middle" class="highlight-text" font-size="9">Write-Update</text>
    <text x="405" y="990" text-anchor="middle" class="body-text">Updates all other copies</text>
    <text x="405" y="1005" text-anchor="middle" class="body-text">with new value</text>
    <!-- MSI Protocol -->
    <rect x="540" y="955" width="230" height="55" fill="white" rx="8"/>
    <text x="655" y="973" text-anchor="middle" class="highlight-text" font-size="9">MSI Protocol</text>
    <text x="655" y="990" text-anchor="middle" class="body-text">Modified, Shared, Invalid</text>
    <text x="655" y="1005" text-anchor="middle" class="body-text">3 states</text>
  </g>
  
  <!-- step9: MSI and MESI States -->
  <g class="step" id="step9" data-narration="MSI has three states: Modified (exclusive, dirty), Shared (clean, multiple copies), and Invalid (stale). MESI adds an Exclusive state for optimization.">
    <rect x="20" y="1030" width="760" height="100" fill="url(#purpleGrad)" rx="10" filter="url(#shadow)"/>
    <text x="40" y="1055" class="highlight-text">MSI and MESI Protocol States</text>
    <!-- MSI -->
    <rect x="40" y="1075" width="240" height="45" fill="#f3e5f5" rx="8"/>
    <text x="160" y="1095" class="highlight-text" font-size="10">MSI (3 States)</text>
    <rect x="55" y="1105" width="60" height="20" fill="#e91e63" rx="4"/>
    <text x="85" y="1119" text-anchor="middle" fill="white" font-size="8">Modified</text>
    <rect x="130" y="1105" width="60" height="20" fill="#2196f3" rx="4"/>
    <text x="160" y="1119" text-anchor="middle" fill="white" font-size="8">Shared</text>
    <rect x="205" y="1105" width="60" height="20" fill="#9e9e9e" rx="4"/>
    <text x="235" y="1119" text-anchor="middle" fill="white" font-size="8">Invalid</text>
    <!-- MESI -->
    <rect x="300" y="1075" width="240" height="45" fill="#e8f5e9" rx="8"/>
    <text x="420" y="1095" class="highlight-text" font-size="10">MESI (4 States)</text>
    <rect x="315" y="1105" width="50" height="20" fill="#e91e63" rx="4"/>
    <text x="340" y="1119" text-anchor="middle" fill="white" font-size="7">M</text>
    <rect x="375" y="1105" width="50" height="20" fill="#4caf50" rx="4"/>
    <text x="400" y="1119" text-anchor="middle" fill="white" font-size="7">E</text>
    <rect x="435" y="1105" width="50" height="20" fill="#2196f3" rx="4"/>
    <text x="460" y="1119" text-anchor="middle" fill="white" font-size="7">S</text>
    <rect x="495" y="1105" width="50" height="20" fill="#9e9e9e" rx="4"/>
    <text x="520" y="1119" text-anchor="middle" fill="white" font-size="7">I</text>
    <!-- Description -->
    <rect x="560" y="1075" width="210" height="45" fill="white" rx="8"/>
    <text x="665" y="1092" class="highlight-text" font-size="9">MESI Adds:</text>
    <text x="665" y="1108" class="body-text">Exclusive = clean,</text>
    <text x="665" y="1122" class="body-text">single copy (optimization)</text>
  </g>
  
  <!-- step10: Programming Models - OpenMP -->
  <g class="step" id="step10" data-narration="OpenMP is a shared memory programming model using compiler directives. The pragma omp parallel creates concurrent threads.">
    <rect x="20" y="1140" width="760" height="100" fill="url(#blueGrad)" rx="10" filter="url(#shadow)"/>
    <text x="40" y="1165" class="highlight-text">Programming Model: OpenMP (Shared Memory)</text>
    <rect x="40" y="1185" width="480" height="45" fill="#263238" rx="8"/>
    <text x="55" y="1205" fill="#80cbc4" font-family="'Courier New'" font-size="9">#include &lt;stdio.h&gt;</text>
    <text x="55" y="1220" fill="#80cbc4" font-family="'Courier New'" font-size="9">#include &lt;omp.h&gt;</text>
    <text x="55" y="1235" fill="#80cbc4" font-family="'Courier New'" font-size="8">int main() {</text>
    <rect x="530" y="1185" width="240" height="45" fill="#e3f2fd" rx="8"/>
    <text x="650" y="1205" class="highlight-text" font-size="10">OpenMP Features</text>
    <text x="545" y="1222" class="body-text">• #pragma omp parallel</text>
    <text x="545" y="1238" class="body-text">• Shared address space</text>
    <text x="720" y="1222" class="body-text">• Implicit synchronization</text>
  </g>
  
  <!-- step11: Programming Models - MPI -->
  <g class="step" id="step11" data-narration="MPI is a distributed memory programming model using explicit message passing. Processes communicate via send and receive operations.">
    <rect x="20" y="1250" width="760" height="100" fill="url(#greenGrad)" rx="10" filter="url(#shadow)"/>
    <text x="40" y="1275" class="highlight-text">Programming Model: MPI (Distributed Memory)</text>
    <rect x="40" y="1295" width="480" height="45" fill="#263238" rx="8"/>
    <text x="55" y="1315" fill="#ffcc80" font-family="'Courier New'" font-size="9">#include &lt;mpi.h&gt;</text>
    <text x="55" y="1330" fill="#ffcc80" font-family="'Courier New'" font-size="9">int main(int argc, char** argv) {</text>
    <text x="70" y="1345" fill="#ffcc80" font-family="'Courier New'" font-size="8">MPI_Init(&amp;argc, &amp;argv);</text>
    <rect x="530" y="1295" width="240" height="45" fill="#e8f5e9" rx="8"/>
    <text x="650" y="1315" class="highlight-text" font-size="10">MPI Features</text>
    <text x="545" y="1332" class="body-text">• MPI_Send / MPI_Recv</text>
    <text x="545" y="1348" class="body-text">• Private address space</text>
    <text x="720" y="1332" class="body-text">• Explicit communication</text>
  </g>
  
  <!-- step12: Real-World Examples -->
  <g class="step" id="step12" data-narration="Real-world MIMD systems include multicore processors (shared memory) and supercomputers like IBM Summit (distributed memory).">
    <rect x="20" y="1360" width="760" height="90" fill="url(#orangeGrad)" rx="10" filter="url(#shadow)"/>
    <text x="40" y="1385" class="highlight-text">Real-World MIMD Examples</text>
    <!-- Shared Memory Examples -->
    <rect x="40" y="1405" width="340" height="35" fill="#ffebee" rx="8"/>
    <text x="60" y="1423" class="highlight-text" font-size="9">Shared Memory MIMD</text>
    <text x="210" y="1423" class="body-text">Intel Core i7, AMD Ryzen,</text>
    <text x="210" y="1437" class="body-text">modern multicore processors</text>
    <!-- Distributed Memory Examples -->
    <rect x="400" y="1405" width="340" height="35" fill="#e8f5e9" rx="8"/>
    <text x="420" y="1423" class="highlight-text" font-size="9">Distributed Memory MIMD</text>
    <text x="570" y="1423" class="body-text">IBM Summit, Fugaku,</text>
    <text x="570" y="1437" class="body-text">Beowulf clusters, cloud</text>
  </g>
  
  <!-- step13: Performance Considerations -->
  <g class="step" id="step13" data-narration="Key performance factors include load balancing, communication overhead, synchronization bottlenecks, and system scalability.">
    <rect x="20" y="1460" width="760" height="80" fill="url(#redGrad)" rx="10" filter="url(#shadow)"/>
    <text x="40" y="1485" class="highlight-text">Performance Considerations</text>
    <rect x="40" y="1505" width="170" height="25" fill="white" rx="6"/>
    <text x="125" y="1522" text-anchor="middle" class="body-text" font-weight="bold">Load Balancing</text>
    <rect x="220" y="1505" width="170" height="25" fill="white" rx="6"/>
    <text x="305" y="1522" text-anchor="middle" class="body-text" font-weight="bold">Communication</text>
    <rect x="400" y="1505" width="170" height="25" fill="white" rx="6"/>
    <text x="485" y="1522" text-anchor="middle" class="body-text" font-weight="bold">Synchronization</text>
    <rect x="580" y="1505" width="190" height="25" fill="white" rx="6"/>
    <text x="675" y="1522" text-anchor="middle" class="body-text" font-weight="bold">Scalability</text>
  </g>
  
  <!-- step14: Summary -->
  <g class="step" id="step14" data-narration="MIMD is the most versatile parallel architecture with independent processors executing different instructions on different data.">
    <rect x="20" y="1550" width="760" height="40" fill="url(#titleGrad)" rx="8"/>
    <text x="400" y="1575" text-anchor="middle" fill="white" font-size="12" font-weight="bold">Summary: MIMD = Multiple Instruction, Multiple Data | Most Common &amp; Flexible Parallel Architecture</text>
  </g>
</svg>