<svg width="420" height="400" data-topic-id="some-basic-morphological-algorithms">
  <defs>
    <linearGradient id="gradient" x1="0%" y1="0%" x2="100%" y2="0%">
      <stop offset="0%" stop-color="#C7B8EA"/>
      <stop offset="50%" stop-color="#87CEEB"/>
      <stop offset="100%" stop-color="#C7B8EA"/>
    </linearGradient>
  </defs>
  <title>Morphological Algorithms</title>
  <rect x="10" y="10" width="400" height="380" fill="url(#gradient)"/>
  <g transform="translate(20, 20)">
    <rect width="150" height="50" rx="10" fill="#3498DB"/>
    <text x="20" y="25" fill="#FFFFFF" font-size="18" font-weight="bold">Erosion</text>
    <rect x="20" y="60" width="150" height="50" rx="10" fill="#F1C40F"/>
    <text x="20" y="75" fill="#FFFFFF" font-size="18" font-weight="bold">Dilation</text>
    <rect x="20" y="110" width="150" height="50" rx="10" fill="#2ecc71"/>
    <text x="20" y="125" fill="#FFFFFF" font-size="18" font-weight="bold">Opening</text>
    <rect x="20" y="160" width="150" height="50" rx="10" fill="#3498DB"/>
    <text x="20" y="175" fill="#FFFFFF" font-size="18" font-weight="bold">Closing</text>
    <rect x="20" y="210" width="150" height="50" rx="10" fill="#F1C40F"/>
    <text x="20" y="225" fill="#FFFFFF" font-size="18" font-weight="bold"> hit and miss</text>
    <g transform="translate(200, 20)">
      <rect width="150" height="50" rx="10" fill="#3498DB"/>
      <text x="20" y="25" fill="#FFFFFF" font-size="18" font-weight="bold">Structuring Element</text>
      <rect x="20" y="60" width="150" height="50" rx="10" fill="#F1C40F"/>
      <text x="20" y="75" fill="#FFFFFF" font-size="18" font-weight="bold">Image</text>
      <rect x="20" y="110" width="150" height="50" rx="10" fill="#2ecc71"/>
      <text x="20" y="125" fill="#FFFFFF" font-size="18" font-weight="bold">Result</text>
      <animate transform="rotate(360 200 200)" begin="0s" duration="2s" repeatCount="indefinite"/>
    </g>
    <g transform="translate(400, 20)">
      <rect width="150" height="50" rx="10" fill="#3498DB"/>
      <text x="20" y="25" fill="#FFFFFF" font-size="18" font-weight="bold">Algorithm</text>
      <rect x="20" y="60" width="150" height="50" rx="10" fill="#F1C40F"/>
      <text x="20" y="75" fill="#FFFFFF" font-size="18" font-weight="bold">Example</text>
      <rect x="20" y="110" width="150" height="50" rx="10" fill="#2ecc71"/>
      <text x="20" y="125" fill="#FFFFFF" font-size="18" font-weight="bold">Code</text>
      <rect x="20" y="160" width="150" height="50" rx="10" fill="#3498DB"/>
      <text x="20" y="175" fill="#FFFFFF" font-size="18" font-weight="bold">Result</text>
      <rect x="20" y="210" width="150" height="50" rx="10" fill="#F1C40F"/>
      <text x="20" y="225" fill="#FFFFFF" font-size="18" font-weight="bold">Animation</text>
      <animate transform="rotate(360 400 200)" begin="0s" duration="2s" repeatCount="indefinite"/>
    </g>
    <rect x="10" y="300" width="400" height="100" fill="#FFFFFF"/>
    <text x="20" y="310" fill="#333333" font-size="18" font-weight="bold">References</text>
  </g>
  <g transform="translate(20, 330)">
    <rect width="150" height="50" rx="10" fill="#3498DB"/>
    <text x="20" y="25" fill="#FFFFFF" font-size="18" font-weight="bold">Morphological Algorithms</text>
    <rect x="20" y="60" width="150" height="50" rx="10" fill="#F1C40F"/>
    <text x="20" y="75" fill="#FFFFFF" font-size="18" font-weight="bold">Explained</text>
    <rect x="20" y="110" width="150" height="50" rx="10" fill="#2ecc71"/>
    <text x="20" y="125" fill="#FFFFFF" font-size="18" font-weight="bold">In This Diagram</text>
    <rect x="20" y="160" width="150" height="50" rx="10" fill="#3498DB"/>
    <text x="20" y="175" fill="#FFFFFF" font-size="18" font-weight="bold">Section 1: Erosion</text>
    <rect x="20" y="210" width="150" height="50" rx="10" fill="#F1C40F"/>
    <text x="20" y="225" fill="#FFFFFF" font-size="18" font-weight="bold">Section 2: Dilation</text>
    <rect x="20" y="260" width="150" height="50" rx="10" fill="#2ecc71"/>
    <text x="20" y="275" fill="#FFFFFF" font-size="18" font-weight="bold">Section 3: Opening</text>
    <rect x="20" y="310" width="150" height="50" rx="10" fill="#3498DB"/>
    <text x="20" y="325" fill="#FFFFFF" font-size="18" font-weight="bold">Section 4: Closing</text>
    <rect x="20" y="360" width="150" height="50" rx="10" fill="#F1C40F"/>
    <text x="20" y="375" fill="#FFFFFF" font-size="18" font-weight="bold">Section 5: Hit and Miss</text>
    <rect x="20" y="410" width="150" height="50" rx="10" fill="#2ecc71"/>
    <text x="20" y="425" fill="#FFFFFF" font-size="18" font-weight="bold">Section 6: Animation</text>
    <animate transform="rotate(360 400 330)" begin="0s" duration="2s" repeatCount="indefinite"/>
  </g>
</svg>