<svg xmlns="http://www.w3.org/2000/svg" viewBox="0 0 800 1560">
  <defs>
    <linearGradient id="blueGrad" x1="0%" y1="0%" x2="100%" y2="100%">
      <stop offset="0%" style="stop-color:#e3f2fd"/>
      <stop offset="100%" style="stop-color:#bbdefb"/>
    </linearGradient>
    <linearGradient id="greenGrad" x1="0%" y1="0%" x2="100%" y2="100%">
      <stop offset="0%" style="stop-color:#e8f5e9"/>
      <stop offset="100%" style="stop-color:#c8e6c9"/>
    </linearGradient>
    <linearGradient id="orangeGrad" x1="0%" y1="0%" x2="100%" y2="100%">
      <stop offset="0%" style="stop-color:#fff3e0"/>
      <stop offset="100%" style="stop-color:#ffe0b2"/>
    </linearGradient>
    <linearGradient id="purpleGrad" x1="0%" y1="0%" x2="100%" y2="100%">
      <stop offset="0%" style="stop-color:#f3e5f5"/>
      <stop offset="100%" style="stop-color:#e1bee7"/>
    </linearGradient>
    <linearGradient id="redGrad" x1="0%" y1="0%" x2="100%" y2="100%">
      <stop offset="0%" style="stop-color:#ffebee"/>
      <stop offset="100%" style="stop-color:#ffcdd2"/>
    </linearGradient>
    <filter id="shadow" x="-20%" y="-20%" width="140%" height="140%">
      <feDropShadow dx="2" dy="2" stdDeviation="3" flood-opacity="0.15"/>
    </filter>
    <marker id="arrowBlue" markerWidth="10" markerHeight="10" refX="9" refY="3" orient="auto">
      <path d="M0,0 L0,6 L9,3 z" fill="#1976d2"/>
    </marker>
    <marker id="arrowGreen" markerWidth="10" markerHeight="10" refX="9" refY="3" orient="auto">
      <path d="M0,0 L0,6 L9,3 z" fill="#388e3c"/>
    </marker>
  </defs>
  
  <style>
    @keyframes fadeInSlide {
      from { opacity: 0; transform: translateY(20px); }
      to { opacity: 1; transform: translateY(0); }
    }
    @keyframes scaleIn {
      from { opacity: 0; transform: scale(0.85); }
      to { opacity: 1; transform: scale(1); }
    }
    @keyframes textReveal {
      from { opacity: 0; transform: translateX(-10px); }
      to { opacity: 1; transform: translateX(0); }
    }
    @keyframes drawLine {
      from { stroke-dashoffset: 300; }
      to { stroke-dashoffset: 0; }
    }
    @keyframes pulse {
      0%, 100% { transform: scale(1); }
      50% { transform: scale(1.03); }
    }
    .step { animation: fadeInSlide 0.6s ease-out; }
    .step rect {
      animation: scaleIn 0.5s cubic-bezier(0.34, 1.56, 0.64, 1);
      transform-origin: center;
    }
    .step text { animation: textReveal 0.4s ease-out 0.2s backwards; }
    .animated-line {
      stroke-dasharray: 300;
      stroke-dashoffset: 300;
      animation: drawLine 1s ease-out forwards;
    }
  </style>
  
  <rect width="800" height="1560" fill="#f8f9fa"/>
  
  <!-- Step 0: Title -->
  <g class="step" id="step0" data-narration="Welcome to Storage Management! This topic covers how operating systems manage memory from fast CPU registers to slow magnetic tapes.">
    <rect x="20" y="10" width="760" height="45" rx="10" fill="url(#blueGrad)" filter="url(#shadow)"/>
    <text x="400" y="42" font-family="Arial" font-size="22" font-weight="bold" fill="#1565c0" text-anchor="middle">Storage Management</text>
  </g>
  
  <!-- Step 1: Why Storage Management Matters -->
  <g class="step" id="step1" data-narration="Storage management is critical because the CPU can only work with data in main memory, but RAM is limited and volatile.">
    <rect x="20" y="65" width="760" height="85" rx="8" fill="white" filter="url(#shadow)"/>
    <rect x="20" y="65" width="5" height="85" rx="3" fill="#1976d2"/>
    <text x="40" y="85" font-family="Arial" font-size="12" font-weight="bold" fill="#1976d2">Why Storage Management Matters</text>
    <text x="40" y="105" font-family="Arial" font-size="10" fill="#555">• CPU can only execute instructions in main memory</text>
    <text x="40" y="120" font-family="Arial" font-size="10" fill="#555">• RAM is limited in size - not all processes can fit at once</text>
    <text x="40" y="135" font-family="Arial" font-size="10" fill="#555">• Multiple processes must share memory efficiently</text>
    <circle cx="700" cy="108" r="25" fill="#e3f2fd"/>
    <path d="M690,108 L700,98 L710,108 L700,118 Z" fill="#1976d2"/>
  </g>
  
  <!-- Step 2: What We'll Cover -->
  <g class="step" id="step2" data-narration="We'll study the storage hierarchy, memory management, caching, disk scheduling, and the I/O subsystem including buffering and spooling.">
    <rect x="20" y="160" width="760" height="85" rx="8" fill="white" filter="url(#shadow)"/>
    <rect x="20" y="160" width="5" height="85" rx="3" fill="#ff9800"/>
    <text x="40" y="180" font-family="Arial" font-size="12" font-weight="bold" fill="#ff9800">What We'll Cover</text>
    <rect x="40" y="195" width="100" height="22" rx="4" fill="#e8f5e9"/>
    <text x="90" y="210" font-family="Arial" font-size="9" fill="#388e3c" text-anchor="middle">Storage Hierarchy</text>
    <rect x="150" y="195" width="100" height="22" rx="4" fill="#e3f2fd"/>
    <text x="200" y="210" font-family="Arial" font-size="9" fill="#1976d2" text-anchor="middle">Main Memory</text>
    <rect x="260" y="195" width="70" height="22" rx="4" fill="#fff3e0"/>
    <text x="295" y="210" font-family="Arial" font-size="9" fill="#ff9800" text-anchor="middle">Caching</text>
    <rect x="340" y="195" width="100" height="22" rx="4" fill="#f3e5f5"/>
    <text x="390" y="210" font-family="Arial" font-size="9" fill="#9c27b0" text-anchor="middle">Disk Scheduling</text>
    <rect x="450" y="195" width="90" height="22" rx="4" fill="#ffebee"/>
    <text x="495" y="210" font-family="Arial" font-size="9" fill="#f44336" text-anchor="middle">I/O Subsystem</text>
    <rect x="550" y="195" width="80" height="22" rx="4" fill="#e0f7fa"/>
    <text x="590" y="210" font-family="Arial" font-size="9" fill="#00838f" text-anchor="middle">Buffering</text>
    <rect x="640" y="195" width="80" height="22" rx="4" fill="#fce4ec"/>
    <text x="680" y="210" font-family="Arial" font-size="9" fill="#c2185b" text-anchor="middle">Spooling</text>
  </g>
  
  <!-- Step 3: Storage Hierarchy Visual -->
  <g class="step" id="step3" data-narration="The storage hierarchy shows the trade-off: faster storage is smaller and more expensive, while slower storage is larger and cheaper.">
    <rect x="20" y="255" width="760" height="95" rx="8" fill="white" filter="url(#shadow)"/>
    <rect x="20" y="255" width="5" height="95" rx="3" fill="#388e3c"/>
    <text x="40" y="275" font-family="Arial" font-size="12" font-weight="bold" fill="#388e3c">The Storage Hierarchy</text>
    
    <!-- Pyramid visualization -->
    <polygon points="120,290 200,290 160,340" fill="#1976d2" opacity="0.8"/>
    <text x="160" y="320" font-family="Arial" font-size="8" fill="white" text-anchor="middle">Registers</text>
    
    <polygon points="100,300 220,300 160,355" fill="#1976d2" opacity="0.6"/>
    <text x="160" y="345" font-family="Arial" font-size="8" fill="white" text-anchor="middle">Cache</text>
    
    <polygon points="80,315 240,315 160,375" fill="#388e3c" opacity="0.8"/>
    <text x="160" y="365" font-family="Arial" font-size="9" fill="white" text-anchor="middle">Main Memory</text>
    
    <polygon points="60,335 260,335 160,400" fill="#ff9800" opacity="0.7"/>
    <text x="160" y="385" font-family="Arial" font-size="9" fill="white" text-anchor="middle">SSD</text>
    
    <polygon points="40,355 280,355 160,425" fill="#ff9800" opacity="0.5"/>
    <text x="160" y="410" font-family="Arial" font-size="9" fill="white" text-anchor="middle">HDD</text>
    
    <polygon points="20,380 300,380 160,455" fill="#9c27b0" opacity="0.5"/>
    <text x="160" y="440" font-family="Arial" font-size="9" fill="white" text-anchor="middle">Tape</text>
    
    <text x="320" y="295" font-family="Arial" font-size="10" fill="#555">FASTER →</text>
    <text x="320" y="310" font-family="Arial" font-size="10" fill="#555">SMALLER →</text>
    <text x="320" y="325" font-family="Arial" font-size="10" fill="#555">EXPENSIVE →</text>
    <text x="500" y="295" font-family="Arial" font-size="10" fill="#555">← SLOWER</text>
    <text x="490" y="310" font-family="Arial" font-size="10" fill="#555">← LARGER</text>
    <text x="490" y="325" font-family="Arial" font-size="10" fill="#555">← CHEAPER</text>
  </g>
  
  <!-- Step 4: Storage Characteristics Table -->
  <g class="step" id="step4" data-narration="Here's a detailed comparison: registers are fastest but hold only bytes, while magnetic tape is slowest but stores terabytes at very low cost.">
    <rect x="20" y="360" width="760" height="90" rx="8" fill="white" filter="url(#shadow)"/>
    <rect x="20" y="360" width="5" height="90" rx="3" fill="#9c27b0"/>
    <text x="40" y="380" font-family="Arial" font-size="12" font-weight="bold" fill="#9c27b0">Storage Characteristics</text>
    
    <!-- Mini table -->
    <rect x="40" y="395" width="120" height="18" rx="3" fill="#e3f2fd"/>
    <text x="100" y="408" font-family="Arial" font-size="8" fill="#1976d2" text-anchor="middle">Registers: &lt;1ns</text>
    <rect x="170" y="395" width="120" height="18" rx="3" fill="#e3f2fd"/>
    <text x="230" y="408" font-family="Arial" font-size="8" fill="#1976d2" text-anchor="middle">Cache: 1-10ns</text>
    <rect x="300" y="395" width="120" height="18" rx="3" fill="#e8f5e9"/>
    <text x="360" y="408" font-family="Arial" font-size="8" fill="#388e3c" text-anchor="middle">RAM: 50-100ns</text>
    <rect x="430" y="395" width="120" height="18" rx="3" fill="#fff3e0"/>
    <text x="490" y="408" font-family="Arial" font-size="8" fill="#ff9800" text-anchor="middle">SSD: 25-100µs</text>
    <rect x="560" y="395" width="120" height="18" rx="3" fill="#fff3e0"/>
    <text x="620" y="408" font-family="Arial" font-size="8" fill="#ff9800" text-anchor="middle">HDD: 5-10ms</text>
    
    <rect x="40" y="420" width="120" height="18" rx="3" fill="#f3e5f5"/>
    <text x="100" y="433" font-family="Arial" font-size="8" fill="#9c27b0" text-anchor="middle">Volatile</text>
    <rect x="170" y="420" width="120" height="18" rx="3" fill="#f3e5f5"/>
    <text x="230" y="433" font-family="Arial" font-size="8" fill="#9c27b0" text-anchor="middle">Volatile</text>
    <rect x="300" y="420" width="120" height="18" rx="3" fill="#f3e5f5"/>
    <text x="360" y="433" font-family="Arial" font-size="8" fill="#9c27b0" text-anchor="middle">Volatile</text>
    <rect x="430" y="420" width="120" height="18" rx="3" fill="#ffebee"/>
    <text x="490" y="433" font-family="Arial" font-size="8" fill="#f44336" text-anchor="middle">Non-volatile</text>
    <rect x="560" y="420" width="120" height="18" rx="3" fill="#ffebee"/>
    <text x="620" y="433" font-family="Arial" font-size="8" fill="#f44336" text-anchor="middle">Non-volatile</text>
  </g>
  
  <!-- Step 5: Main Memory Management -->
  <g class="step" id="step5" data-narration="The OS must track which memory is in use, decide what to keep in RAM, and allocate or deallocate memory for processes.">
    <rect x="20" y="460" width="760" height="90" rx="8" fill="white" filter="url(#shadow)"/>
    <rect x="20" y="460" width="5" height="90" rx="3" fill="#1976d2"/>
    <text x="40" y="480" font-family="Arial" font-size="12" font-weight="bold" fill="#1976d2">Main Memory Management</text>
    
    <!-- Three boxes representing functions -->
    <rect x="40" y="500" width="200" height="40" rx="6" fill="url(#blueGrad)"/>
    <text x="140" y="520" font-family="Arial" font-size="10" fill="#1565c0" text-anchor="middle">KEEP TRACK</text>
    <text x="140" y="532" font-family="Arial" font-size="8" fill="#555" text-anchor="middle">Which memory is used by whom</text>
    
    <rect x="260" y="500" width="200" height="40" rx="6" fill="url(#greenGrad)"/>
    <text x="360" y="520" font-family="Arial" font-size="10" fill="#2e7d32" text-anchor="middle">DECIDE</text>
    <text x="360" y="532" font-family="Arial" font-size="8" fill="#555" text-anchor="middle">What to move in/out of memory</text>
    
    <rect x="480" y="500" width="200" height="40" rx="6" fill="url(#orangeGrad)"/>
    <text x="580" y="520" font-family="Arial" font-size="10" fill="#e65100" text-anchor="middle">ALLOCATE</text>
    <text x="580" y="532" font-family="Arial" font-size="8" fill="#555" text-anchor="middle">Memory space for processes</text>
    
    <path d="M250,520 L255,520" stroke="#1976d2" stroke-width="2" marker-end="url(#arrowBlue)"/>
    <path d="M470,520 L475,520" stroke="#388e3c" stroke-width="2" marker-end="url(#arrowGreen)"/>
  </g>
  
  <!-- Step 6: Cache Management -->
  <g class="step" id="step6" data-narration="Caching copies frequently used data to faster storage. When data is needed, we first check the cache - a hit is fast, a miss requires checking slower storage.">
    <rect x="20" y="560" width="760" height="95" rx="8" fill="white" filter="url(#shadow)"/>
    <rect x="20" y="560" width="5" height="95" rx="3" fill="#ff9800"/>
    <text x="40" y="580" font-family="Arial" font-size="12" font-weight="bold" fill="#ff9800">Cache Management</text>
    
    <!-- Cache flow diagram -->
    <rect x="40" y="600" width="80" height="40" rx="6" fill="#1976d2"/>
    <text x="80" y="620" font-family="Arial" font-size="9" fill="white" text-anchor="middle">CPU</text>
    <text x="80" y="632" font-family="Arial" font-size="8" fill="white" text-anchor="middle">Requests</text>
    
    <path d="M120,620 L160,620" stroke="#555" stroke-width="2" class="animated-line"/>
    <rect x="160" y="600" width="90" height="40" rx="6" fill="#4caf50"/>
    <text x="205" y="620" font-family="Arial" font-size="9" fill="white" text-anchor="middle">Cache</text>
    <text x="205" y="632" font-family="Arial" font-size="8" fill="white" text-anchor="middle">Check</text>
    
    <text x="280" y="615" font-family="Arial" font-size="8" fill="#388e3c">HIT?</text>
    <path d="M265,625 L290,625" stroke="#388e3c" stroke-width="1.5"/>
    
    <!-- Yes branch -->
    <path d="M250,620 L250,590 L320,590" stroke="#388e3c" stroke-width="1.5"/>
    <path d="M320,590 L325,585" stroke="#388e3c" stroke-width="1.5"/>
    <rect x="320" y="575" width="70" height="30" rx="4" fill="#c8e6c9" stroke="#388e3c"/>
    <text x="355" y="593" font-family="Arial" font-size="8" fill="#2e7d32" text-anchor="middle">Return Fast</text>
    
    <!-- No branch -->
    <path d="M250,620 L250,660 L400,660" stroke="#f44336" stroke-width="1.5"/>
    <rect x="400" y="645" width="100" height="30" rx="4" fill="#ffcdd2" stroke="#f44336"/>
    <text x="450" y="663" font-family="Arial" font-size="8" fill="#c62828" text-anchor="middle">Check Main Memory</text>
  </g>
  
  <!-- Step 7: Cache Coherency Problem -->
  <g class="step" id="step7" data-narration="In multiprocessor systems, each CPU has its own cache. If CPU1 modifies data in its cache, CPU2's cache becomes stale - this is the coherency problem.">
    <rect x="20" y="665" width="760" height="90" rx="8" fill="white" filter="url(#shadow)"/>
    <rect x="20" y="665" width="5" height="90" rx="3" fill="#f44336"/>
    <text x="40" y="685" font-family="Arial" font-size="12" font-weight="bold" fill="#f44336">Cache Coherency Problem</text>
    
    <!-- Two CPUs with their caches -->
    <rect x="50" y="710" width="120" height="35" rx="5" fill="#e3f2fd" stroke="#1976d2" stroke-width="2"/>
    <text x="110" y="725" font-family="Arial" font-size="10" fill="#1565c0" text-anchor="middle">CPU 1</text>
    <rect x="50" y="745" width="120" height="20" rx="3" fill="#bbdefb"/>
    <text x="110" y="758" font-family="Arial" font-size="8" fill="#1565c0" text-anchor="middle">Cache: x=5</text>
    
    <rect x="200" y="710" width="120" height="35" rx="5" fill="#e3f2fd" stroke="#1976d2" stroke-width="2"/>
    <text x="260" y="725" font-family="Arial" font-size="10" fill="#1565c0" text-anchor="middle">CPU 2</text>
    <rect x="200" y="745" width="120" height="20" rx="3" fill="#bbdefb"/>
    <text x="260" y="758" font-family="Arial" font-size="8" fill="#1565c0" text-anchor="middle">Cache: x=5</text>
    
    <path d="M170,728 L195,728" stroke="#f44336" stroke-width="2" marker-end="url(#arrowBlue)"/>
    <text x="182" y="718" font-family="Arial" font-size="7" fill="#f44336" text-anchor="middle">Shared</text>
    <text x="182" y="740" font-family="Arial" font-size="7" fill="#f44336" text-anchor="middle">Memory</text>
    
    <!-- Problem illustration -->
    <rect x="400" y="710" width="140" height="35" rx="5" fill="#ffebee" stroke="#f44336"/>
    <text x="470" y="722" font-family="Arial" font-size="9" fill="#c62828" text-anchor="middle">CPU1 writes x=10</text>
    <text x="470" y="735" font-family="Arial" font-size="8" fill="#c62828" text-anchor="middle">CPU2 still has x=5!</text>
    
    <!-- Solutions -->
    <rect x="560" y="705" width="180" height="45" rx="5" fill="#e8f5e9"/>
    <text x="650" y="720" font-family="Arial" font-size="9" fill="#2e7d32" text-anchor="middle">Solutions:</text>
    <text x="650" y="735" font-family="Arial" font-size="8" fill="#388e3c" text-anchor="middle">Write-through, Snooping,</text>
    <text x="650" y="745" font-family="Arial" font-size="8" fill="#388e3c" text-anchor="middle">Directory-based protocols</text>
  </g>
  
  <!-- Step 8: Secondary Storage -->
  <g class="step" id="step8" data-narration="Secondary storage backs up main memory. HDDs use magnetic platters with seek time, while SSDs use flash memory with no moving parts.">
    <rect x="20" y="765" width="760" height="90" rx="8" fill="white" filter="url(#shadow)"/>
    <rect x="20" y="765" width="5" height="90" rx="3" fill="#9c27b0"/>
    <text x="40" y="785" font-family="Arial" font-size="12" font-weight="bold" fill="#9c27b0">Secondary Storage</text>
    
    <!-- HDD vs SSD comparison -->
    <rect x="40" y="805" width="320" height="40" rx="6" fill="url(#orangeGrad)"/>
    <text x="60" y="820" font-family="Arial" font-size="10" font-weight="bold" fill="#e65100">Magnetic Disk (HDD)</text>
    <text x="60" y="835" font-family="Arial" font-size="9" fill="#555">• Moving parts - seek time matters</text>
    <text x="250" y="835" font-family="Arial" font-size="9" fill="#555">• Uses disk scheduling</text>
    
    <rect x="380" y="805" width="320" height="40" rx="6" fill="url(#greenGrad)"/>
    <text x="400" y="820" font-family="Arial" font-size="10" font-weight="bold" fill="#2e7d32">Solid-State Drive (SSD)</text>
    <text x="400" y="835" font-family="Arial" font-size="9" fill="#555">• No moving parts - no seek time</text>
    <text x="590" y="835" font-family="Arial" font-size="9" fill="#555">• Wear leveling required</text>
    
    <text x="200" y="858" font-family="Arial" font-size="8" fill="#555">OS manages: Free-space tracking, Storage allocation, I/O scheduling</text>
  </g>
  
  <!-- Step 9: Disk Scheduling -->
  <g class="step" id="step9" data-narration="The OS schedules disk I/O to minimize seek time. Common algorithms include FCFS, SSTF, SCAN, and C-SCAN - each with different performance trade-offs.">
    <rect x="20" y="865" width="760" height="90" rx="8" fill="white" filter="url(#shadow)"/>
    <rect x="20" y="865" width="5" height="90" rx="3" fill="#ff9800"/>
    <text x="40" y="885" font-family="Arial" font-size="12" font-weight="bold" fill="#ff9800">Disk Scheduling Algorithms</text>
    
    <!-- Algorithm boxes -->
    <rect x="40" y="905" width="130" height="40" rx="5" fill="#e3f2fd"/>
    <text x="105" y="920" font-family="Arial" font-size="10" fill="#1565c0" text-anchor="middle">FCFS</text>
    <text x="105" y="935" font-family="Arial" font-size="8" fill="#555" text-anchor="middle">First Come First Served</text>
    
    <rect x="180" y="905" width="130" height="40" rx="5" fill="#e8f5e9"/>
    <text x="245" y="920" font-family="Arial" font-size="10" fill="#2e7d32" text-anchor="middle">SSTF</text>
    <text x="245" y="935" font-family="Arial" font-size="8" fill="#555" text-anchor="middle">Shortest Seek Time First</text>
    
    <rect x="320" y="905" width="130" height="40" rx="5" fill="#fff3e0"/>
    <text x="385" y="920" font-family="Arial" font-size="10" fill="#e65100" text-anchor="middle">SCAN</text>
    <text x="385" y="935" font-family="Arial" font-size="8" fill="#555" text-anchor="middle">Elevator Algorithm</text>
    
    <rect x="460" y="905" width="130" height="40" rx="5" fill="#f3e5f5"/>
    <text x="525" y="920" font-family="Arial" font-size="10" fill="#7b1fa2" text-anchor="middle">C-SCAN</text>
    <text x="525" y="935" font-family="Arial" font-size="8" fill="#555" text-anchor="middle">Circular SCAN</text>
    
    <text x="620" y="925" font-family="Arial" font-size="9" fill="#555">Goal:</text>
    <text x="620" y="940" font-family="Arial" font-size="8" fill="#555">Minimize</text>
    <text x="620" y="952" font-family="Arial" font-size="8" fill="#555">seek time</text>
  </g>
  
  <!-- Step 10: I/O Subsystem Overview -->
  <g class="step" id="step10" data-narration="The I/O subsystem hides hardware specifics from users. It includes buffering, caching, spooling, and device drivers for uniform access.">
    <rect x="20" y="965" width="760" height="90" rx="8" fill="white" filter="url(#shadow)"/>
    <rect x="20" y="965" width="5" height="90" rx="3" fill="#1976d2"/>
    <text x="40" y="985" font-family="Arial" font-size="12" font-weight="bold" fill="#1976d2">I/O Subsystem</text>
    
    <!-- Central I/O subsystem box -->
    <rect x="300" y="1005" width="180" height="40" rx="8" fill="url(#blueGrad)" stroke="#1976d2" stroke-width="2"/>
    <text x="390" y="1022" font-family="Arial" font-size="11" fill="#1565c0" text-anchor="middle">I/O Subsystem</text>
    <text x="390" y="1036" font-family="Arial" font-size="9" fill="#555" text-anchor="middle">Hides hardware details</text>
    
    <!-- Surrounding components -->
    <rect x="60" y="1005" width="100" height="35" rx="5" fill="#e8f5e9" stroke="#388e3c"/>
    <text x="110" y="1020" font-family="Arial" font-size="9" fill="#2e7d32" text-anchor="middle">Buffering</text>
    <text x="110" y="1033" font-family="Arial" font-size="7" fill="#555" text-anchor="middle">Speed mismatch</text>
    
    <rect x="180" y="1005" width="100" height="35" rx="5" fill="#fff3e0" stroke="#ff9800"/>
    <text x="230" y="1020" font-family="Arial" font-size="9" fill="#e65100" text-anchor="middle">Caching</text>
    <text x="230" y="1033" font-family="Arial" font-size="7" fill="#555" text-anchor="middle">Fast access</text>
    
    <rect x="500" y="1005" width="100" height="35" rx="5" fill="#f3e5f5" stroke="#9c27b0"/>
    <text x="550" y="1020" font-family="Arial" font-size="9" fill="#7b1fa2" text-anchor="middle">Spooling</text>
    <text x="550" y="1033" font-family="Arial" font-size="7" fill="#555" text-anchor="middle">Queue jobs</text>
    
    <rect x="600" y="1005" width="140" height="35" rx="5" fill="#e3f2fd" stroke="#1976d2"/>
    <text x="670" y="1020" font-family="Arial" font-size="9" fill="#1565c0" text-anchor="middle">Device Drivers</text>
    <text x="670" y="1033" font-family="Arial" font-size="7" fill="#555" text-anchor="middle">Hardware interface</text>
    
    <!-- Arrows to center -->
    <path d="M160,1018 L290,1018" stroke="#388e3c" stroke-width="1.5" marker-end="url(#arrowGreen)"/>
    <path d="M280,1018 L290,1018" stroke="#ff9800" stroke-width="1.5" marker-end="url(#arrowGreen)"/>
    <path d="M490,1018 L480,1018" stroke="#9c27b0" stroke-width="1.5" marker-end="url(#arrowGreen)"/>
    <path d="M500,1018 L480,1018" stroke="#1976d2" stroke-width="1.5" marker-end="url(#arrowGreen)"/>
  </g>
  
  <!-- Step 11: Buffering Explained -->
  <g class="step" id="step11" data-narration="Buffering handles speed mismatches between devices. A buffer stores data temporarily - like a printer buffer holding print jobs while the printer works.">
    <rect x="20" y="1065" width="760" height="90" rx="8" fill="white" filter="url(#shadow)"/>
    <rect x="20" y="1065" width="5" height="90" rx="3" fill="#388e3c"/>
    <text x="40" y="1085" font-family="Arial" font-size="12" font-weight="bold" fill="#388e3c">Buffering</text>
    
    <!-- Producer-Consumer diagram -->
    <rect x="50" y="1110" width="100" height="35" rx="5" fill="#1976d2"/>
    <text x="100" y="1125" font-family="Arial" font-size="10" fill="white" text-anchor="middle">FAST CPU</text>
    <text x="100" y="1138" font-family="Arial" font-size="8" fill="#bbdefb" text-anchor="middle">(Producer)</text>
    
    <path d="M155,1127 L200,1127" stroke="#555" stroke-width="2" class="animated-line"/>
    
    <!-- Buffer box -->
    <rect x="200" y="1105" width="140" height="45" rx="8" fill="#c8e6c9" stroke="#388e3c" stroke-width="2" stroke-dasharray="5,3"/>
    <text x="270" y="1122" font-family="Arial" font-size="10" fill="#2e7d32" text-anchor="middle">BUFFER</text>
    <text x="270" y="1137" font-family="Arial" font-size="8" fill="#555" text-anchor="middle">Temporary storage</text>
    <text x="270" y="1148" font-family="Arial" font-size="7" fill="#555" text-anchor="middle">(Main memory)</text>
    
    <path d="M345,1127 L390,1127" stroke="#555" stroke-width="2" class="animated-line"/>
    
    <rect x="390" y="1110" width="100" height="35" rx="5" fill="#ff9800"/>
    <text x="440" y="1125" font-family="Arial" font-size="10" fill="white" text-anchor="middle">SLOW PRINTER</text>
    <text x="440" y="1138" font-family="Arial" font-size="8" fill="#ffe0b2" text-anchor="middle">(Consumer)</text>
    
    <!-- Reasons -->
    <text x="550" y="1115" font-family="Arial" font-size="9" font-weight="bold" fill="#388e3c">Why Buffer?</text>
    <text x="550" y="1130" font-family="Arial" font-size="8" fill="#555">1. Speed mismatch</text>
    <text x="550" y="1143" font-family="Arial" font-size="8" fill="#555">2. Transfer size mismatch</text>
    <text x="550" y="1156" font-family="Arial" font-size="8" fill="#555">3. Copy semantics</text>
  </g>
  
  <!-- Step 12: Spooling Explained -->
  <g class="step" id="step12" data-narration="Spooling queues jobs for devices that can't handle interleaved data. Print jobs go to a disk queue, then print one by one - allowing concurrent printing.">
    <rect x="20" y="1165" width="760" height="90" rx="8" fill="white" filter="url(#shadow)"/>
    <rect x="20" y="1165" width="5" height="90" rx="3" fill="#9c27b0"/>
    <text x="40" y="1185" font-family="Arial" font-size="12" font-weight="bold" fill="#9c27b0">Spooling</text>
    
    <!-- Spooling diagram -->
    <text x="70" y="1210" font-family="Arial" font-size="10" fill="#555">Process A →</text>
    <text x="70" y="1230" font-family="Arial" font-size="10" fill="#555">Process B →</text>
    <text x="70" y="1250" font-family="Arial" font-size="10" fill="#555">Process C →</text>
    
    <!-- Spool queue -->
    <rect x="180" y="1200" width="150" height="60" rx="8" fill="#f3e5f5" stroke="#9c27b0" stroke-width="2"/>
    <text x="255" y="1218" font-family="Arial" font-size="11" fill="#7b1fa2" text-anchor="middle">SPOOL</text>
    <text x="255" y="1233" font-family="Arial" font-size="9" fill="#555" text-anchor="middle">(Disk Queue)</text>
    <text x="255" y="1250" font-family="Arial" font-size="8" fill="#9c27b0" text-anchor="middle">Job1 → Job2 → Job3</text>
    
    <path d="M335,1230 L390,1230" stroke="#9c27b0" stroke-width="2" marker-end="url(#arrowGreen)"/>
    
    <!-- Printer -->
    <rect x="390" y="1205" width="80" height="50" rx="5" fill="#ff9800"/>
    <text x="430" y="1230" font-family="Arial" font-size="10" fill="white" text-anchor="middle">Printer</text>
    <text x="430" y="1245" font-family="Arial" font-size="8" fill="#ffe0b2" text-anchor="middle">One job</text>
    <text x="430" y="1254" font-family="Arial" font-size="8" fill="#ffe0b2" text-anchor="middle">at a time</text>
    
    <!-- SPOOL acronym -->
    <rect x="520" y="1200" width="220" height="60" rx="5" fill="#e1bee7"/>
    <text x="630" y="1218" font-family="Arial" font-size="10" font-weight="bold" fill="#7b1fa2" text-anchor="middle">SPOOL</text>
    <text x="630" y="1235" font-family="Arial" font-size="8" fill="#555" text-anchor="middle">Simultaneous Peripheral</text>
    <text x="630" y="1250" font-family="Arial" font-size="8" fill="#555" text-anchor="middle">Operations On-Line</text>
  </g>
  
  <!-- Step 13: Caching vs Buffering -->
  <g class="step" id="step13" data-narration="Caching speeds up repeated access to data; buffering handles mismatches during transfer. Caching keeps a copy, buffering may hold the only copy.">
    <rect x="20" y="1265" width="760" height="85" rx="8" fill="white" filter="url(#shadow)"/>
    <rect x="20" y="1265" width="5" height="85" rx="3" fill="#ff9800"/>
    <text x="40" y="1285" font-family="Arial" font-size="12" font-weight="bold" fill="#ff9800">Caching vs Buffering</text>
    
    <!-- Comparison table -->
    <rect x="40" y="1305" width="340" height="35" rx="5" fill="#e8f5e9"/>
    <text x="60" y="1320" font-family="Arial" font-size="10" font-weight="bold" fill="#2e7d32">CACHING</text>
    <text x="160" y="1320" font-family="Arial" font-size="9" fill="#555">Purpose: Speed up frequent access</text>
    <text x="280" y="1320" font-family="Arial" font-size="9" fill="#555">Data: Copy exists elsewhere</text>
    <text x="340" y="1335" font-family="Arial" font-size="8" fill="#555">Use: Repeated access expected</text>
    
    <rect x="400" y="1305" width="340" height="35" rx="5" fill="#e3f2fd"/>
    <text x="420" y="1320" font-family="Arial" font-size="10" font-weight="bold" fill="#1565c0">BUFFERING</text>
    <text x="520" y="1320" font-family="Arial" font-size="9" fill="#555">Purpose: Handle speed/size mismatch</text>
    <text x="640" y="1320" font-family="Arial" font-size="9" fill="#555">Data: May be only copy</text>
    <text x="700" y="1335" font-family="Arial" font-size="8" fill="#555">Use: During data transfer</text>
    
    <!-- Key difference -->
    <rect x="200" y="1348" width="360" height="22" rx="4" fill="#fff3e0" stroke="#ff9800"/>
    <text x="380" y="1363" font-family="Arial" font-size="9" fill="#e65100" text-anchor="middle">Key: Caching = faster access | Buffering = data transfer</text>
  </g>
  
  <!-- Step 14: Summary -->
  <g class="step" id="step14" data-narration="In summary: storage moves from fast/small/expensive registers to slow/large/cheap tape. Memory management tracks and allocates RAM for processes.">
    <rect x="20" y="1360" width="760" height="85" rx="8" fill="url(#blueGrad)" filter="url(#shadow)"/>
    <text x="400" y="1385" font-family="Arial" font-size="14" font-weight="bold" fill="#1565c0" text-anchor="middle">Summary</text>
    
    <!-- Key points -->
    <rect x="40" y="1400" width="150" height="35" rx="5" fill="white" opacity="0.8"/>
    <text x="115" y="1415" font-family="Arial" font-size="9" fill="#1565c0" text-anchor="middle">Storage Hierarchy</text>
    <text x="115" y="1430" font-family="Arial" font-size="8" fill="#555" text-anchor="middle">Registers → Tape</text>
    
    <rect x="200" y="1400" width="150" height="35" rx="5" fill="white" opacity="0.8"/>
    <text x="275" y="1415" font-family="Arial" font-size="9" fill="#2e7d32" text-anchor="middle">Memory Management</text>
    <text x="275" y="1430" font-family="Arial" font-size="8" fill="#555" text-anchor="middle">Track, Decide, Allocate</text>
    
    <rect x="360" y="1400" width="150" height="35" rx="5" fill="white" opacity="0.8"/>
    <text x="435" y="1415" font-family="Arial" font-size="9" fill="#e65100" text-anchor="middle">Caching</text>
    <text x="435" y="1430" font-family="Arial" font-size="8" fill="#555" text-anchor="middle">Copy to fast storage</text>
    
    <rect x="520" y="1400" width="150" height="35" rx="5" fill="white" opacity="0.8"/>
    <text x="595" y="1415" font-family="Arial" font-size="9" fill="#7b1fa2" text-anchor="middle">I/O Subsystem</text>
    <text x="595" y="1430" font-family="Arial" font-size="8" fill="#555" text-anchor="middle">Buffer, Cache, Spool</text>
  </g>
  
  <!-- Step 15: Exam Tips -->
  <g class="step" id="step15" data-narration="For exams: draw the hierarchy pyramid, know buffering vs caching vs spooling differences, and remember the cache coherency solutions.">
    <rect x="20" y="1455" width="760" height="85" rx="8" fill="white" filter="url(#shadow)"/>
    <rect x="20" y="1455" width="5" height="85" rx="3" fill="#f44336"/>
    <text x="40" y="1475" font-family="Arial" font-size="12" font-weight="bold" fill="#f44336">Exam Tips</text>
    
    <!-- Tips in boxes -->
    <rect x="40" y="1490" width="170" height="40" rx="5" fill="#ffebee"/>
    <text x="125" y="1508" font-family="Arial" font-size="9" fill="#c62828" text-anchor="middle">1. Draw the hierarchy</text>
    <text x="125" y="1522" font-family="Arial" font-size="8" fill="#555" text-anchor="middle">Registers → Cache → RAM → SSD → HDD → Tape</text>
    
    <rect x="220" y="1490" width="170" height="40" rx="5" fill="#e3f2fd"/>
    <text x="305" y="1508" font-family="Arial" font-size="9" fill="#1565c0" text-anchor="middle">2. Caching principle</text>
    <text x="305" y="1522" font-family="Arial" font-size="8" fill="#555" text-anchor="middle">Used at every level: hardware, OS, web</text>
    
    <rect x="400" y="1490" width="170" height="40" rx="5" fill="#e8f5e9"/>
    <text x="485" y="1508" font-family="Arial" font-size="9" fill="#2e7d32" text-anchor="middle">3. Buffer vs Cache</text>
  </g>
</svg>