<svg width="420" height="400" data-topic-id="fairness-accountability-transparency">
  <rect x="0" y="0" width="420" height="80" fill="#C7B8EA" rx="10"/>
  <text x="50%" y="50%" font-size="24" fill="#3498db" text-anchor="middle">Fairness, Accountability, and Transparency</text>
  <rect x="0" y="80" width="420" height="120" fill="#87CEEB" rx="10"/>
  <section data-narration="Introduction">
    <rect x="0" y="0" width="420" height="40" fill="#C7B8EA" rx="10"/>
    <text x="10" y="10" font-size="14" fill="#666" text-anchor="start">Introduction</text>
    <rect x="0" y="40" width="420" height="40" fill="#87CEEB" rx="10"/>
    <animateTransform attributeName="transform" type="rotate" from="0,200,200" to="360,200,200" dur="6000" begin="0s" sequence="linear" repeatCount="indefinite"/>
    <line x1="200" y1="200" x2="200" y2="220" stroke="#3498db" stroke-width="2" fill="none"/>
    <line x1="200" y1="220" x2="200" y2="200" stroke="#3498db" stroke-width="2" fill="none"/>
  </section>
  <section data-narration="Fairness">
    <rect x="0" y="180" width="420" height="40" fill="#C7B8EA" rx="10"/>
    <text x="10" y="10" font-size="14" fill="#666" text-anchor="start">Fairness</text>
    <rect x="0" y="40" width="420" height="40" fill="#87CEEB" rx="10"/>
    <circle cx="210" cy="210" r="50" fill="#3498db" stroke="#3498db" stroke-width="2" fill="none"/>
    <line x1="200" y1="190" x2="220" y2="200" stroke="#3498db" stroke-width="2" fill="none"/>
    <line x1="200" y1="220" x2="180" y2="200" stroke="#3498db" stroke-width="2" fill="none"/>
  </section>
  <section data-narration="Bias">
    <rect x="0" y="260" width="420" height="40" fill="#C7B8EA" rx="10"/>
    <text x="10" y="10" font-size="14" fill="#666" text-anchor="start">Bias</text>
    <rect x="0" y="40" width="420" height="40" fill="#87CEEB" rx="10"/>
    <line x1="200" y1="230" x2="220" y2="240" stroke="#3498db" stroke-width="2" fill="none"/>
    <line x1="200" y1="240" x2="180" y2="230" stroke="#3498db" stroke-width="2" fill="none"/>
  </section>
  <section data-narration="Fairness metrics">
    <rect x="0" y="320" width="420" height="40" fill="#C7B8EA" rx="10"/>
    <text x="10" y="10" font-size="14" fill="#666" text-anchor="start">Fairness metrics</text>
    <rect x="0" y="40" width="420" height="40" fill="#87CEEB" rx="10"/>
    <line x1="200" y1="350" x2="210" y2="360" stroke="#3498db" stroke-width="2" fill="none"/>
    <line x1="200" y1="360" x2="190" y2="350" stroke="#3498db" stroke-width="2" fill="none"/>
  </section>
  <section data-narration="Accountability">
    <rect x="0" y="390" width="420" height="40" fill="#C7B8EA" rx="10"/>
    <text x="10" y="10" font-size="14" fill="#666" text-anchor="start">Accountability</text>
    <rect x="0" y="40" width="420" height="40" fill="#87CEEB" rx="10"/>
    <line x1="200" y1="420" x2="210" y2="430" stroke="#3498db" stroke-width="2" fill="none"/>
    <line x1="200" y1="430" x2="190" y2="420" stroke="#3498db" stroke-width="2" fill="none"/>
  </section>
  <rect x="0" y="440" width="420" height="20" fill="#3498db" rx="10"/>
  <text x="50%" y="450%" font-size="14" fill="#666" text-anchor="middle">Responsible AI</text>
</svg>