<svg width="420" height="400" data-topic-id="limitations-of-algoritmic-power-112" xmlns="http://www.w3.org/2000/svg">
  <defs>
    <linearGradient id="gradient" x1="0%" y1="0%" x2="100%" y2="0%">
      <stop offset="0%" stop-color="#5B68AE" stop-opacity="1"/>
      <stop offset="100%" stop-color="#65A2C9" stop-opacity="1"/>
    </linearGradient>
  </defs>
  <rect x="0" y="0" width="420" height="400" fill="url(#gradient)"/>
  <text x="150" y="20" font-size="24" font-family="Arial" fill="#fff">Chapter 11 Section 112</text>
  <section data-narration="Introduction to Decision Trees">
    <rect x="0" y="50" width="420" height="150" fill="#fff" rx="10"/>
    <path d="M 20 20 L 20 150" stroke="#5B68AE" stroke-width="2" fill="none"/>
    <path d="M 60 20 L 60 150" stroke="#5B68AE" stroke-width="2" fill="none"/>
    <path d="M 100 20 L 100 150" stroke="#5B68AE" stroke-width="2" fill="none"/>
    <g transform="rotate(45 110 50)">
      <text x="100" y="100" font-size="16" font-family="Arial" fill="#000">Decision Tree</text>
    </g>
    <animate xmlns="http://www.w3.org/1999/11/svg" begin="0s" dur="2s" fill="freeze"/>
  </section>
  <section data-narration="Definition of Decision Trees">
    <rect x="0" y="210" width="420" height="150" fill="#fff" rx="10"/>
    <g transform="rotate(45 110 200)">
      <text x="100" y="220" font-size="16" font-family="Arial" fill="#000">Decision Tree</text>
    </g>
    <animate xmlns="http://www.w3.org/1999/11/svg" begin="2s" dur="2s" fill="freeze"/>
  </section>
  <section data-narration="Properties of Decision Trees">
    <rect x="0" y="370" width="420" height="150" fill="#fff" rx="10"/>
    <g transform="rotate(45 110 380)">
      <text x="100" y="390" font-size="16" font-family="Arial" fill="#000">Properties</text>
    </g>
    <animate xmlns="http://www.w3.org/1999/11/svg" begin="4s" dur="2s" fill="freeze"/>
  </section>
  <section data-narration="Example of Decision Tree">
    <rect x="0" y="530" width="420" height="150" fill="#fff" rx="10"/>
    <g transform="rotate(45 110 530)">
      <text x="100" y="540" font-size="16" font-family="Arial" fill="#000">Example</text>
    </g>
    <animate xmlns="http://www.w3.org/1999/11/svg" begin="6s" dur="2s" fill="freeze"/>
  </section>
  <section data-narration="P, NP, and NP-Complete Problems">
    <rect x="0" y="680" width="420" height="150" fill="#fff" rx="10"/>
    <g transform="rotate(45 110 680)">
      <text x="100" y="690" font-size="16" font-family="Arial" fill="#000">P, NP, NP-Complete</text>
    </g>
    <animate xmlns="http://www.w3.org/1999/11/svg" begin="8s" dur="2s" fill="freeze"/>
  </section>
  <footer>
    <text x="150" y="400" font-size="14" font-family="Arial" fill="#000">Learn more about limitations of algoritmic power</text>
  </footer>
</svg>