<svg viewBox="0 0 800 1500" xmlns="http://www.w3.org/2000/svg">
  <rect width="800" height="1500" fill="#f8f9fa"/>
  
  <defs>
    <linearGradient id="bgGrad" x1="0%" y1="0%" x2="0%" y2="100%">
      <stop offset="0%" style="stop-color:#f8f9fa;stop-opacity:1" />
      <stop offset="100%" style="stop-color:#e9ecef;stop-opacity:1" />
    </linearGradient>
    <linearGradient id="blueGrad" x1="0%" y1="0%" x2="0%" y2="100%">
      <stop offset="0%" style="stop-color:#42a5f5;stop-opacity:1" />
      <stop offset="100%" style="stop-color:#1976d2;stop-opacity:1" />
    </linearGradient>
    <linearGradient id="greenGrad" x1="0%" y1="0%" x2="0%" y2="100%">
      <stop offset="0%" style="stop-color:#66bb6a;stop-opacity:1" />
      <stop offset="100%" style="stop-color:#388e3c;stop-opacity:1" />
    </linearGradient>
    <linearGradient id="orangeGrad" x1="0%" y1="0%" x2="0%" y2="100%">
      <stop offset="0%" style="stop-color:#ffa726;stop-opacity:1" />
      <stop offset="100%" style="stop-color:#ff9800;stop-opacity:1" />
    </linearGradient>
    <linearGradient id="purpleGrad" x1="0%" y1="0%" x2="0%" y2="100%">
      <stop offset="0%" style="stop-color:#ab47bc;stop-opacity:1" />
      <stop offset="100%" style="stop-color:#9c27b0;stop-opacity:1" />
    </linearGradient>
    <linearGradient id="redGrad" x1="0%" y1="0%" x2="0%" y2="100%">
      <stop offset="0%" style="stop-color:#ef5350;stop-opacity:1" />
      <stop offset="100%" style="stop-color:#f44336;stop-opacity:1" />
    </linearGradient>
    <filter id="shadow" x="-20%" y="-20%" width="140%" height="140%">
      <feDropShadow dx="2" dy="2" stdDeviation="3" flood-opacity="0.2"/>
    </filter>
    <marker id="arrowBlue" markerWidth="10" markerHeight="10" refX="9" refY="3" orient="auto" markerUnits="strokeWidth">
      <path d="M0,0 L0,6 L9,3 z" fill="#1976d2" />
    </marker>
    <marker id="arrowGreen" markerWidth="10" markerHeight="10" refX="9" refY="3" orient="auto" markerUnits="strokeWidth">
      <path d="M0,0 L0,6 L9,3 z" fill="#388e3c" />
    </marker>
    <marker id="arrowOrange" markerWidth="10" markerHeight="10" refX="9" refY="3" orient="auto" markerUnits="strokeWidth">
      <path d="M0,0 L0,6 L9,3 z" fill="#ff9800" />
    </marker>
  </defs>
  
  <style>
    @keyframes fadeInSlide {
      from { opacity: 0; transform: translateY(20px); }
      to { opacity: 1; transform: translateY(0); }
    }
    @keyframes scaleIn {
      from { opacity: 0; transform: scale(0.85); }
      to { opacity: 1; transform: scale(1); }
    }
    @keyframes textReveal {
      from { opacity: 0; transform: translateX(-10px); }
      to { opacity: 1; transform: translateX(0); }
    }
    @keyframes pulse {
      0%, 100% { transform: scale(1); }
      50% { transform: scale(1.03); }
    }
    @keyframes drawLine {
      from { stroke-dashoffset: 500; }
      to { stroke-dashoffset: 0; }
    }
    @keyframes fadeIn {
      from { opacity: 0; }
      to { opacity: 1; }
    }
    .step { animation: fadeInSlide 0.6s ease-out; }
    .step rect { animation: scaleIn 0.5s cubic-bezier(0.34, 1.56, 0.64, 1); transform-origin: center; }
    .step text { animation: textReveal 0.4s ease-out 0.2s backwards; }
    .highlight { animation: pulse 2s ease-in-out infinite; }
  </style>

  <g class="step" id="step0" data-narration="Welcome! Today we explore what an Operating System does - the most fundamental software on any computer.">
    <rect x="100" y="15" width="600" height="45" rx="10" fill="url(#blueGrad)" filter="url(#shadow)"/>
    <text x="400" y="42" text-anchor="middle" font-size="20" font-weight="bold" fill="white">What Operating Systems Do</text>
    <rect x="200" y="70" width="400" height="25" rx="5" fill="#e3f2fd"/>
    <text x="400" y="87" text-anchor="middle" font-size="12" fill="#1976d2">Understanding the Heart of Computer Systems</text>
  </g>

  <g class="step" id="step1" data-narration="The OS acts as a bridge between you and the computer hardware, making complex hardware easy to use.">
    <rect x="50" y="110" width="240" height="80" rx="8" fill="#fff3e0" filter="url(#shadow)"/>
    <text x="170" y="135" text-anchor="middle" font-size="12" font-weight="bold" fill="#e65100">USER / APPLICATIONS</text>
    <text x="170" y="155" text-anchor="middle" font-size="10" fill="#e65100">Word Processor, Browser</text>
    <rect x="280" y="110" width="240" height="80" rx="8" fill="#e3f2fd" filter="url(#shadow)"/>
    <text x="400" y="135" text-anchor="middle" font-size="12" font-weight="bold" fill="#1565c0">OPERATING SYSTEM</text>
    <text x="400" y="155" text-anchor="middle" font-size="10" fill="#1565c0">Windows, Linux, macOS</text>
    <rect x="510" y="110" width="240" height="80" rx="8" fill="#ffebee" filter="url(#shadow)"/>
    <text x="630" y="135" text-anchor="middle" font-size="12" font-weight="bold" fill="#c62828">HARDWARE</text>
    <text x="630" y="155" text-anchor="middle" font-size="10" fill="#c62828">CPU, RAM, Disk, I/O</text>
    <path d="M290,150 L280,150" stroke="#1565c0" stroke-width="2" marker-end="url(#arrowBlue)"/>
    <path d="M520,150 L510,150" stroke="#1565c0" stroke-width="2" marker-end="url(#arrowBlue)"/>
  </g>

  <g class="step" id="step2" data-narration="An OS has two key perspectives: as an extended virtual machine and as a resource manager allocating hardware.">
    <rect x="50" y="210" width="340" height="85" rx="8" fill="#e8f5e9" filter="url(#shadow)"/>
    <text x="220" y="235" text-anchor="middle" font-size="14" font-weight="bold" fill="#2e7d32">OS as Extended Machine</text>
    <text x="220" y="255" text-anchor="middle" font-size="10" fill="#2e7d32">Provides abstraction - hides hardware complexity</text>
    <text x="220" y="275" text-anchor="middle" font-size="10" fill="#2e7d32">Programmers use simple commands, not hardware details</text>
    <rect x="410" y="210" width="340" height="85" rx="8" fill="#f3e5f5" filter="url(#shadow)"/>
    <text x="580" y="235" text-anchor="middle" font-size="14" font-weight="bold" fill="#7b1fa2">OS as Resource Manager</text>
    <text x="580" y="255" text-anchor="middle" font-size="10" fill="#7b1fa2">Manages CPU, Memory, I/O fairly</text>
    <text x="580" y="275" text-anchor="middle" font-size="10" fill="#7b1fa2">Prevents conflicts between programs</text>
  </g>

  <g class="step" id="step3" data-narration="The OS performs four main functions: Process, Memory, File System, and Device Management.">
    <rect x="50" y="315" width="700" height="50" rx="8" fill="url(#blueGrad)" filter="url(#shadow)"/>
    <text x="400" y="342" text-anchor="middle" font-size="14" font-weight="bold" fill="white">The Four Core Functions of an Operating System</text>
    <rect x="60" y="375" width="165" height="55" rx="6" fill="#e8f5e9"/>
    <text x="142" y="400" text-anchor="middle" font-size="11" font-weight="bold" fill="#2e7d32">Process</text>
    <text x="142" y="415" text-anchor="middle" font-size="9" fill="#2e7d32">Management</text>
    <rect x="235" y="375" width="165" height="55" rx="6" fill="#fff3e0"/>
    <text x="317" y="400" text-anchor="middle" font-size="11" font-weight="bold" fill="#e65100">Memory</text>
    <text x="317" y="415" text-anchor="middle" font-size="9" fill="#e65100">Management</text>
    <rect x="410" y="375" width="165" height="55" rx="6" fill="#f3e5f5"/>
    <text x="492" y="400" text-anchor="middle" font-size="11" font-weight="bold" fill="#7b1fa2">File System</text>
    <text x="492" y="415" text-anchor="middle" font-size="9" fill="#7b1fa2">Management</text>
    <rect x="585" y="375" width="165" height="55" rx="6" fill="#ffebee"/>
    <text x="667" y="400" text-anchor="middle" font-size="11" font-weight="bold" fill="#c62828">Device</text>
    <text x="667" y="415" text-anchor="middle" font-size="9" fill="#c62828">Management</text>
  </g>

  <g class="step" id="step4" data-narration="Process Management handles CPU scheduling - deciding which program runs when, creating the illusion of multitasking.">
    <rect x="50" y="450" width="700" height="90" rx="8" fill="#e8f5e9" filter="url(#shadow)"/>
    <text x="400" y="472" text-anchor="middle" font-size="13" font-weight="bold" fill="#2e7d32">Process Management - CPU Scheduling</text>
    <rect x="70" y="485" width="120" height="40" rx="5" fill="#a5d6a7"/>
    <text x="130" y="510" text-anchor="middle" font-size="10" fill="#1b5e20">Process A (Browser)</text>
    <rect x="200" y="485" width="120" height="40" rx="5" fill="#a5d6a7"/>
    <text x="260" y="510" text-anchor="middle" font-size="10" fill="#1b5e20">Process B (Word)</text>
    <rect x="330" y="485" width="120" height="40" rx="5" fill="#a5d6a7"/>
    <text x="390" y="510" text-anchor="middle" font-size="10" fill="#1b5e20">Process C (Music)</text>
    <rect x="480" y="480" width="150" height="50" rx="8" fill="url(#greenGrad)"/>
    <text x="555" y="505" text-anchor="middle" font-size="11" font-weight="bold" fill="white">CPU Scheduler</text>
    <text x="555" y="520" text-anchor="middle" font-size="9" fill="white">Decides execution order</text>
    <path d="M450,505 L480,505" stroke="#2e7d32" stroke-width="2" marker-end="url(#arrowGreen)"/>
    <path d="M630,505 L680,505" stroke="#2e7d32" stroke-width="2" marker-end="url(#arrowGreen)"/>
    <rect x="680" y="485" width="60" height="40" rx="5" fill="#2e7d32"/>
    <text x="710" y="510" text-anchor="middle" font-size="10" fill="white">CPU</text>
  </g>

  <g class="step" id="step5" data-narration="The OS uses algorithms like Round Robin and First-Come-First-Served to fairly allocate CPU time to programs.">
    <rect x="50" y="560" width="340" height="85" rx="8" fill="#e8f5e9" filter="url(#shadow)"/>
    <text x="220" y="585" text-anchor="middle" font-size="12" font-weight="bold" fill="#2e7d32">Scheduling Algorithms</text>
    <text x="220" y="605" text-anchor="middle" font-size="10" fill="#2e7d32">- Round Robin - Time slices for each process</text>
    <text x="220" y="620" text-anchor="middle" font-size="10" fill="#2e7d32">- FCFS - First Come, First Served</text>
    <text x="220" y="635" text-anchor="middle" font-size="10" fill="#2e7d32">- Priority - Important tasks first</text>
    <rect x="400" y="560" width="350" height="85" rx="8" fill="#e8f5e9" filter="url(#shadow)"/>
    <text x="575" y="585" text-anchor="middle" font-size="12" font-weight="bold" fill="#2e7d32">IPC and Process Control</text>
    <text x="575" y="605" text-anchor="middle" font-size="10" fill="#2e7d32">- fork() - Create new processes</text>
    <text x="575" y="620" text-anchor="middle" font-size="10" fill="#2e7d32">- Inter-Process Communication (IPC)</text>
    <text x="575" y="635" text-anchor="middle" font-size="10" fill="#2e7d32">- Shared memory, message passing</text>
  </g>

  <g class="step" id="step6" data-narration="Memory Management allocates RAM to programs, protects each process's memory space, and uses virtual memory for larger programs.">
    <rect x="50" y="665" width="700" height="100" rx="8" fill="#fff3e0" filter="url(#shadow)"/>
    <text x="400" y="690" text-anchor="middle" font-size="13" font-weight="bold" fill="#e65100">Memory Management</text>
    <rect x="70" y="710" width="200" height="45" rx="5" fill="#ffcc80"/>
    <text x="170" y="730" text-anchor="middle" font-size="10" fill="#e65100">Process A Memory Space</text>
    <text x="170" y="742" text-anchor="middle" font-size="9" fill="#e65100">Code | Data | Heap | Stack</text>
    <rect x="280" y="710" width="200" height="45" rx="5" fill="#ffcc80"/>
    <text x="380" y="730" text-anchor="middle" font-size="10" fill="#e65100">Process B Memory Space</text>
    <text x="380" y="742" text-anchor="middle" font-size="9" fill="#e65100">Code | Data | Heap | Stack</text>
    <rect x="490" y="710" width="150" height="45" rx="5" fill="#ff9800"/>
    <text x="565" y="730" text-anchor="middle" font-size="10" font-weight="bold" fill="white">Operating System</text>
    <text x="565" y="742" text-anchor="middle" font-size="9" fill="white">Always protected</text>
    <rect x="650" y="705" width="90" height="55" rx="5" fill="#e65100"/>
    <text x="695" y="725" text-anchor="middle" font-size="9" font-weight="bold" fill="white">Virtual</text>
    <text x="695" y="738" text-anchor="middle" font-size="9" font-weight="bold" fill="white">Memory</text>
    <text x="695" y="750" text-anchor="middle" font-size="8" fill="white">(Disk)</text>
  </g>

  <g class="step" id="step7" data-narration="Virtual Memory extends RAM using disk space, letting programs use more memory than physically available through swapping.">
    <rect x="50" y="785" width="700" height="85" rx="8" fill="#fff3e0" filter="url(#shadow)"/>
    <text x="400" y="810" text-anchor="middle" font-size="13" font-weight="bold" fill="#e65100">Virtual Memory - Swapping</text>
    <rect x="80" y="830" width="280" height="30" rx="5" fill="#ffcc80"/>
    <text x="220" y="850" text-anchor="middle" font-size="10" fill="#e65100">Physical RAM (4GB)</text>
    <path d="M370,845 L410,845" stroke="#e65100" stroke-width="2" marker-end="url(#arrowOrange)"/>
    <rect x="420" y="825" width="280" height="40" rx="5" fill="#e65100"/>
    <text x="560" y="845" text-anchor="middle" font-size="10" fill="white">Hard Disk (Swap/Page File)</text>
    <text x="560" y="865" text-anchor="middle" font-size="9" fill="#e65100">OS transparently moves data between RAM and disk</text>
  </g>

  <g class="step" id="step8" data-narration="File System Management organizes data into files and folders, providing logical storage abstraction over physical disks.">
    <rect x="50" y="890" width="700" height="90" rx="8" fill="#f3e5f5" filter="url(#shadow)"/>
    <text x="400" y="915" text-anchor="middle" font-size="13" font-weight="bold" fill="#7b1fa2">File System Management</text>
    <rect x="80" y="935" width="100" height="30" rx="5" fill="#ce93d8"/>
    <text x="130" y="955" text-anchor="middle" font-size="10" fill="#4a148c">C:\ (Root)</text>
    <rect x="200" y="935" width="80" height="30" rx="5" fill="#ce93d8"/>
    <text x="240" y="955" text-anchor="middle" font-size="10" fill="#4a148c">Documents</text>
    <rect x="300" y="935" width="80" height="30" rx="5" fill="#ce93d8"/>
    <text x="340" y="955" text-anchor="middle" font-size="10" fill="#4a148c">Pictures</text>
    <rect x="400" y="935" width="80" height="30" rx="5" fill="#ce93d8"/>
    <text x="440" y="955" text-anchor="middle" font-size="10" fill="#4a148c">Downloads</text>
    <rect x="500" y="930" width="230" height="40" rx="5" fill="#ab47bc"/>
    <text x="615" y="950" text-anchor="middle" font-size="10" fill="white">Create/Delete | Access Control</text>
    <text x="615" y="962" text-anchor="middle" font-size="9" fill="white">Disk Scheduling | Hierarchical</text>
    <path d="M130,965 L130,975 L240,975 L240,935" stroke="#7b1fa2" stroke-width="1" fill="none"/>
    <path d="M130,965 L130,975 L340,975 L340,935" stroke="#7b1fa2" stroke-width="1" fill="none"/>
    <path d="M130,965 L130,975 L440,975 L440,935" stroke="#7b1fa2" stroke-width="1" fill="none"/>
  </g>

  <g class="step" id="step9" data-narration="Device Management handles input/output devices through drivers, buffering data flow between fast CPU and slow peripherals.">
    <rect x="50" y="1000" width="700" height="90" rx="8" fill="#ffebee" filter="url(#shadow)"/>
    <text x="400" y="1025" text-anchor="middle" font-size="13" font-weight="bold" fill="#c62828">Device Management (I/O)</text>
    <rect x="70" y="1045" width="80" height="30" rx="5" fill="#ef9a9a"/>
    <text x="110" y="1065" text-anchor="middle" font-size="10" fill="#b71c1c">Keyboard</text>
    <rect x="160" y="1045" width="80" height="30" rx="5" fill="#ef9a9a"/>
    <text x="200" y="1065" text-anchor="middle" font-size="10" fill="#b71c1c">Mouse</text>
    <rect x="250" y="1045" width="80" height="30" rx="5" fill="#ef9a9a"/>
    <text x="290" y="1065" text-anchor="middle" font-size="10" fill="#b71c1c">Printer</text>
    <rect x="340" y="1045" width="80" height="30" rx="5" fill="#ef9a9a"/>
    <text x="380" y="1065" text-anchor="middle" font-size="10" fill="#b71c1c">Network</text>
    <rect x="450" y="1040" width="180" height="45" rx="8" fill="url(#redGrad)"/>
    <text x="540" y="1060" text-anchor="middle" font-size="11" font-weight="bold" fill="white">Device Drivers</text>
    <text x="540" y="1075" text-anchor="middle" font-size="9" fill="white">Standard interface for hardware</text>
  </g>

  <g class="step" id="step10" data-narration="The OS uses buffering to smooth speed differences, caching to store frequently accessed data, and spooling to queue print jobs.">
    <rect x="50" y="1110" width="700" height="85" rx="8" fill="#ffebee" filter="url(#shadow)"/>
    <text x="400" y="1135" text-anchor="middle" font-size="13" font-weight="bold" fill="#c62828">I/O Techniques: Buffering, Caching, Spooling</text>
    <rect x="70" y="1155" width="210" height="30" rx="5" fill="#ffcdd2"/>
    <text x="175" y="1175" text-anchor="middle" font-size="10" fill="#b71c1c">Buffering - Speed matching</text>
    <rect x="295" y="1155" width="210" height="30" rx="5" fill="#ffcdd2"/>
    <text x="400" y="1175" text-anchor="middle" font-size="10" fill="#b71c1c">Caching - Fast access copy</text>
    <rect x="520" y="1155" width="210" height="30" rx="5" fill="#ffcdd2"/>
    <text x="625" y="1175" text-anchor="middle" font-size="10" fill="#b71c1c">Spooling - Print queue</text>
  </g>

  <g class="step" id="step11" data-narration="OS provides essential services: User Interface, Program Execution, I/O Operations, and File System manipulation.">
    <rect x="50" y="1215" width="340" height="85" rx="8" fill="#e3f2fd" filter="url(#shadow)"/>
    <text x="220" y="1240" text-anchor="middle" font-size="12" font-weight="bold" fill="#1565c0">Essential OS Services</text>
    <text x="220" y="1260" text-anchor="middle" font-size="10" fill="#1565c0">- User Interface (CLI, GUI, Touch)</text>
    <text x="220" y="1275" text-anchor="middle" font-size="10" fill="#1565c0">- Program Execution</text>
    <text x="220" y="1290" text-anchor="middle" font-size="10" fill="#1565c0">- I/O Operations</text>
    <text x="220" y="1305" text-anchor="middle" font-size="10" fill="#1565c0">- File System Manipulation</text>
    <rect x="400" y="1215" width="350" height="85" rx="8" fill="#e3f2fd" filter="url(#shadow)"/>
    <text x="575" y="1240" text-anchor="middle" font-size="12" font-weight="bold" fill="#1565c0">More Services</text>
    <text x="575" y="1260" text-anchor="middle" font-size="10" fill="#1565c0">- Communications (Networking)</text>
    <text x="575" y="1275" text-anchor="middle" font-size="10" fill="#1565c0">- Error Detection and Recovery</text>
    <text x="575" y="1290" text-anchor="middle" font-size="10" fill="#1565c0">- Resource Allocation</text>
    <text x="575" y="1305" text-anchor="middle" font-size="10" fill="#1565c0">- Protection and Security</text>
  </g>

  <g class="step" id="step12" data-narration="The Kernel is the core of the OS, always in memory. Applications request OS services through system calls - the fundamental interface.">
    <rect x="50" y="1320" width="700" height="85" rx="8" fill="#e3f2fd" filter="url(#shadow)"/>
    <text x="400" y="1345" text-anchor="middle" font-size="13" font-weight="bold" fill="#1565c0">Kernel and System Calls</text>
    <rect x="100" y="1365" width="180" height="30" rx="5" fill="#bbdefb"/>
    <text x="190" y="1385" text-anchor="middle" font-size="10" fill="#1565c0">Application Programs</text>
    <rect x="100" y="1395" width="180" height="30" rx="5" fill="#64b5f6"/>
    <text x="190" y="1415" text-anchor="middle" font-size="10" fill="white">System Calls (API)</text>
    <rect x="350" y="1360" width="200" height="65" rx="8" fill="url(#blueGrad)"/>
    <text x="450" y="1385" text-anchor="middle" font-size="12" font-weight="bold" fill="white">KERNEL</text>
    <text x="450" y="1405" text-anchor="middle" font-size="9" fill="white">Core OS functions</text>
    <text x="450" y="1418" text-anchor="middle" font-size="9" fill="white">Always in memory</text>
    <rect x="600" y="1370" width="130" height="45" rx="5" fill="#1976d2"/>
    <text x="665" y="1395" text-anchor="middle" font-size="10" fill="white">Hardware</text>
    <text x="665" y="1408" text-anchor="middle" font-size="9" fill="white">CPU, RAM, I/O</text>
  </g>

  <g class="step" id="step13" data-narration="In summary: OS is both an extended machine hiding hardware complexity and a resource manager ensuring fair, efficient system operation.">
    <rect x="50" y="1425" width="700" height="60" rx="8" fill="url(#blueGrad)" filter="url(#shadow)"/>
    <text x="400" y="1455" text-anchor="middle" font-size="14" font-weight="bold" fill="white">Summary: OS - Extended Machine and Resource Manager</text>
    <text x="400" y="1475" text-anchor="middle" font-size="11" fill="white">Four Functions: Process, Memory, File System, Device Management | Key Concept: Abstraction</text>
  </g>
</svg>