<svg width="420" height="400" data-topic-id="random-number-generation-providing-freshness-funda">
    <desc>Random Number Generation Providing Freshness Funda</desc>
    <title>Random Number Generation Providing Freshness Funda</title>
    <defs>
        <linearGradient id="gradient" x1="0%" y1="0%" x2="100%" y2="0%">
            <stop offset="0%" stop-color="#66CCCC" stop-opacity="1"/>
            <stop offset="100%" stop-color="#44A0E6" stop-opacity="1"/>
        </linearGradient>
    </defs>
    <rect x="10" y="10" width="400" height="340" fill="url(#gradient)"/>
    <g transform="translate(10, 10)">
        <rect x="0" y="0" width="100" height="100" rx="20" fill="#F7F7F7"/>
        <text x="20" y="20" font-size="18" font-family="Arial" text-anchor="middle">Random Number Generation</text>
        <rect x="130" y="0" width="100" height="100" rx="20" fill="#F7F7F7"/>
        <text x="140" y="20" font-size="18" font-family="Arial" text-anchor="middle">Providing Freshness</text>
        <rect x="0" y="130" width="100" height="100" rx="20" fill="#F7F7F7"/>
        <text x="20" y="140" font-size="18" font-family="Arial" text-anchor="middle">Fundamentals</text>
        <rect x="130" y="130" width="100" height="100" rx="20" fill="#F7F7F7"/>
        <text x="140" y="140" font-size="18" font-family="Arial" text-anchor="middle">Of Entity Authentication</text>
        <rect x="0" y="230" width="100" height="100" rx="20" fill="#F7F7F7"/>
        <text x="20" y="240" font-size="18" font-family="Arial" text-anchor="middle">Nonces</text>
        <animateTransform attributeName="transform" type="translate" from="0 0" to="100 0" begin="0s" dur="1s" repeatCount="indefinite"/>
        <rect x="0" y="0" width="20" height="20" rx="10" fill="#F7F7F7" opacity="0" style="animation: nonce-arc 0.5s infinite forwards"/>
        <text x="10" y="10" font-size="12" font-family="Arial" text-anchor="middle" opacity="0">Nonce</text>
        <animateTransform attributeName="transform" type="translate" from="20 0" to="40 0" begin="0s" dur="0.5s" repeatCount="indefinite"/>
        <rect x="0" y="0" width="20" height="20" rx="10" fill="#F7F7F7" opacity="0" style="animation: nonce-arc 0.5s infinite forwards"/>
        <text x="10" y="10" font-size="12" font-family="Arial" text-anchor="middle" opacity="0">Nonce</text>
        <rect x="20" y="0" width="20" height="20" rx="10" fill="#F7F7F7" opacity="0.5" style="animation: nonce-arc 1s infinite forwards"/>
        <text x="30" y="10" font-size="12" font-family="Arial" text-anchor="middle" opacity="0.5">Nonce</text>
        <animateTransform attributeName="transform" type="translate" from="40 0" to="60 0" begin="0s" dur="0.5s" repeatCount="indefinite"/>
        <rect x="0" y="0" width="20" height="20" rx="10" fill="#F7F7F7" opacity="0.5" style="animation: nonce-arc 1s infinite forwards"/>
        <text x="30" y="10" font-size="12" font-family="Arial" text-anchor="middle" opacity="0.5">Nonce</text>
        <rect x="30" y="20" width="20" height="20" rx="10" fill="#F7F7F7" opacity="0" style="animation: nonce-arc 0.5s infinite forwards"/>
        <text x="40" y="30" font-size="12" font-family="Arial" text-anchor="middle" opacity="0">Nonce</text>
    </g>
    <g transform="translate(10, 270)">
        <rect x="0" y="0" width="100" height="100" rx="20" fill="#F7F7F7"/>
        <text x="20" y="20" font-size="18" font-family="Arial" text-anchor="middle">Session IDs</text>
        <rect x="130" y="0" width="100" height="100" rx="20" fill="#F7F7F7"/>
        <text x="140" y="20" font-size="18" font-family="Arial" text-anchor="middle">Timestamps</text>
        <rect x="0" y="130" width="100" height="100" rx="20" fill="#F7F7F7"/>
        <text x="20" y="140" font-size="18" font-family="Arial" text-anchor="middle">Entity Authentication</text>
        <rect x="130" y="130" width="100" height="100" rx="20" fill="#F7F7F7"/>
        <text x="140" y="140" font-size="18" font-family="Arial" text-anchor="middle">Of Entity Authentication</text>
        <rect x="0" y="230" width="100" height="100" rx="20" fill="#F7F7F7"/>
        <text x="20" y="240" font-size="18" font-family="Arial" text-anchor="middle">Nonce</text>
        <animateTransform attributeName="transform" type="translate" from="0 0" to="100 0" begin="0s" dur="1s" repeatCount="indefinite"/>
        <rect x="0" y="0" width="20" height="20" rx="10" fill="#F7F7F7" opacity="0" style="animation: nonce-arc 0.5s infinite forwards"/>
        <text x="10" y="10" font-size="12" font-family="Arial" text-anchor="middle" opacity="0">Nonce</text>
        <animateTransform attributeName="transform" type="translate" from="20 0" to="40 0" begin="0s" dur="0.5s" repeatCount="indefinite"/>
        <rect x="0" y="0" width="20" height="20" rx="10" fill="#F7F7F7" opacity="0" style="animation: nonce-arc 0.5s infinite forwards"/>
        <text x="10" y="10" font-size="12" font-family="Arial" text-anchor="middle" opacity="0">Nonce</text>
        <rect x="20" y="0" width="20" height="20" rx="10" fill="#F7F7F7" opacity="0.5" style="animation: nonce-arc 1s infinite forwards"/>
        <text x="30" y="10" font-size="12" font-family="Arial" text-anchor="middle" opacity="0.5">Nonce</text>
        <animateTransform attributeName="transform" type="translate" from="40 0" to="60 0" begin="0s" dur="0.5s" repeatCount="indefinite"/>
        <rect x="0" y="0" width="20" height="20" rx="10" fill="#F7F7F7" opacity="0.5" style="animation: nonce-arc 1s infinite forwards"/>
        <text x="30" y="10" font-size="12" font-family="Arial" text-anchor="middle" opacity="0.5">Nonce</text>
        <rect x="30" y="20" width="20" height="20" rx="10" fill="#F7F7F7" opacity="0" style="animation: nonce-arc 0.5s infinite forwards"/>
        <text x="40" y="30" font-size="12" font-family="Arial" text-anchor="middle" opacity="0">Nonce</text>
    </g>
</svg>