<svg viewBox="0 0 800 1450" xmlns="http://www.w3.org/2000/svg">
  <defs>
    <linearGradient id="blueGrad" x1="0%" y1="0%" x2="100%" y2="100%">
      <stop offset="0%" stop-color="#1976d2"/>
      <stop offset="100%" stop-color="#1565c0"/>
    </linearGradient>
    <linearGradient id="greenGrad" x1="0%" y1="0%" x2="100%" y2="100%">
      <stop offset="0%" stop-color="#388e3c"/>
      <stop offset="100%" stop-color="#2e7d32"/>
    </linearGradient>
    <linearGradient id="orangeGrad" x1="0%" y1="0%" x2="100%" y2="100%">
      <stop offset="0%" stop-color="#ff9800"/>
      <stop offset="100%" stop-color="#f57c00"/>
    </linearGradient>
    <linearGradient id="purpleGrad" x1="0%" y1="0%" x2="100%" y2="100%">
      <stop offset="0%" stop-color="#9c27b0"/>
      <stop offset="100%" stop-color="#7b1fa2"/>
    </linearGradient>
    <linearGradient id="redGrad" x1="0%" y1="0%" x2="100%" y2="100%">
      <stop offset="0%" stop-color="#f44336"/>
      <stop offset="100%" stop-color="#d32f2f"/>
    </linearGradient>
    <filter id="shadow" x="-20%" y="-20%" width="140%" height="140%">
      <feDropShadow dx="2" dy="3" stdDeviation="3" flood-opacity="0.15"/>
    </filter>
    <marker id="arrowBlue" markerWidth="10" markerHeight="10" refX="9" refY="3" orient="auto">
      <path d="M0,0 L0,6 L9,3 z" fill="#1976d2"/>
    </marker>
    <marker id="arrowGreen" markerWidth="10" markerHeight="10" refX="9" refY="3" orient="auto">
      <path d="M0,0 L0,6 L9,3 z" fill="#388e3c"/>
    </marker>
  </defs>
  
  <style>
    @keyframes fadeInSlide {
      from { opacity: 0; transform: translateY(20px); }
      to { opacity: 1; transform: translateY(0); }
    }
    @keyframes scaleIn {
      from { opacity: 0; transform: scale(0.85); }
      to { opacity: 1; transform: scale(1); }
    }
    @keyframes textReveal {
      from { opacity: 0; transform: translateX(-10px); }
      to { opacity: 1; transform: translateX(0); }
    }
    @keyframes pulse {
      0%, 100% { transform: scale(1); }
      50% { transform: scale(1.03); }
    }
    .step { animation: fadeInSlide 0.6s ease-out; }
    .step rect { animation: scaleIn 0.5s cubic-bezier(0.34, 1.56, 0.64, 1); transform-origin: center; }
    .step text { animation: textReveal 0.4s ease-out 0.2s backwards; }
    .title-text { font-size: 22px; font-weight: bold; fill: #1565c0; }
    .subtitle-text { font-size: 14px; fill: #546e7a; }
    .body-text { font-size: 11px; fill: #37474f; }
    .label-text { font-size: 9px; fill: #78909c; }
    .highlight { fill: #1976d2; font-weight: bold; }
    .formula { font-family: 'Courier New', monospace; font-size: 12px; fill: #263238; }
  </style>

  <rect x="0" y="0" width="800" height="1450" fill="#f8f9fa"/>

  <g class="step" id="step0" data-narration="Welcome to Multithreaded Programming! This topic covers threads, their benefits, and how parallel execution works.">
    <rect x="40" y="20" width="720" height="50" rx="10" fill="url(#blueGrad)" filter="url(#shadow)"/>
    <text x="400" y="52" text-anchor="middle" fill="white" font-size="20" font-weight="bold">Multithreaded Programming Overview</text>
  </g>

  <g class="step" id="step1" data-narration="A thread is the basic unit of CPU utilization. Each thread has its own PC, registers, and stack, while sharing code, data, and files with other threads.">
    <rect x="40" y="85" width="720" height="110" rx="10" fill="white" filter="url(#shadow)"/>
    <text x="60" y="105" fill="#1565c0" font-size="13" font-weight="bold">What is a Thread?</text>
    <rect x="60" y="115" width="160" height="70" rx="5" fill="#e3f2fd" stroke="#1976d2" stroke-width="1"/>
    <text x="140" y="130" text-anchor="middle" fill="#1976d2" font-size="10" font-weight="bold">Thread Components</text>
    <text x="70" y="148" fill="#37474f" font-size="9">Thread ID</text>
    <text x="70" y="162" fill="#37474f" font-size="9">Program Counter</text>
    <text x="70" y="176" fill="#37474f" font-size="9">Register Set</text>
    <text x="170" y="176" fill="#37474f" font-size="9">Stack</text>
    
    <rect x="240" y="115" width="200" height="70" rx="5" fill="#e8f5e9" stroke="#388e3c" stroke-width="1"/>
    <text x="340" y="130" text-anchor="middle" fill="#388e3c" font-size="10" font-weight="bold">SHARED within Process</text>
    <text x="250" y="148" fill="#37474f" font-size="9">Code Section</text>
    <text x="250" y="162" fill="#37474f" font-size="9">Data Section</text>
    <text x="250" y="176" fill="#37474f" font-size="9">Open Files</text>
    
    <path d="M220 150 L240 150" stroke="#1976d2" stroke-width="2" marker-end="url(#arrowBlue)"/>
    <text x="460" y="125" fill="#546e7a" font-size="10" font-style="italic">Lightweight compared to process</text>
  </g>

  <g class="step" id="step2" data-narration="Compare single-threaded (one execution path) vs multi-threaded (multiple tasks simultaneously) processes. Notice how threads share resources.">
    <rect x="40" y="210" width="350" height="90" rx="8" fill="white" filter="url(#shadow)"/>
    <text x="60" y="230" fill="#f44336" font-size="11" font-weight="bold">Single-Threaded Process</text>
    <rect x="60" y="240" width="80" height="50" rx="3" fill="#ffebee" stroke="#f44336" stroke-width="1"/>
    <text x="100" y="260" text-anchor="middle" fill="#f44336" font-size="8">Code</text>
    <rect x="145" y="240" width="80" height="50" rx="3" fill="#ffebee" stroke="#f44336" stroke-width="1"/>
    <text x="185" y="260" text-anchor="middle" fill="#f44336" font-size="8">Data</text>
    <rect x="230" y="240" width="80" height="50" rx="3" fill="#ffebee" stroke="#f44336" stroke-width="1"/>
    <text x="270" y="260" text-anchor="middle" fill="#f44336" font-size="8">Files</text>
    <rect x="60" y="295" width="310" height="1" fill="#ffcdd2"/>
    <rect x="60" y="300" width="310" height="1" fill="#ffcdd2"/>
    <rect x="70" y="305" width="280" height="30" rx="3" fill="#ffcdd2"/>
    <text x="210" y="325" text-anchor="middle" fill="#c62828" font-size="9">Single Thread (PC, Reg, Stack)</text>
    
    <rect x="410" y="210" width="350" height="90" rx="8" fill="white" filter="url(#shadow)"/>
    <text x="430" y="230" fill="#388e3c" font-size="11" font-weight="bold">Multi-Threaded Process</text>
    <rect x="430" y="240" width="60" height="50" rx="3" fill="#e8f5e9" stroke="#388e3c" stroke-width="1"/>
    <text x="460" y="260" text-anchor="middle" fill="#388e3c" font-size="8">Code</text>
    <rect x="495" y="240" width="60" height="50" rx="3" fill="#e8f5e9" stroke="#388e3c" stroke-width="1"/>
    <text x="525" y="260" text-anchor="middle" fill="#388e3c" font-size="8">Data</text>
    <rect x="560" y="240" width="60" height="50" rx="3" fill="#e8f5e9" stroke="#388e3c" stroke-width="1"/>
    <text x="590" y="260" text-anchor="middle" fill="#388e3c" font-size="8">Files</text>
    <rect x="430" y="295" width="310" height="1" fill="#c8e6c9"/>
    <rect x="430" y="300" width="310" height="1" fill="#c8e6c9"/>
    <rect x="440" y="305" width="95" height="25" rx="3" fill="#c8e6c9"/>
    <text x="487" y="322" text-anchor="middle" fill="#2e7d32" font-size="8">Thread 1</text>
    <rect x="542" y="305" width="95" height="25" rx="3" fill="#c8e6c9"/>
    <text x="589" y="322" text-anchor="middle" fill="#2e7d32" font-size="8">Thread 2</text>
    <rect x="644" y="305" width="95" height="25" rx="3" fill="#c8e6c9"/>
    <text x="691" y="322" text-anchor="middle" fill="#2e7d32" font-size="8">Thread 3</text>
  </g>

  <g class="step" id="step3" data-narration="Web servers use multithreading to handle multiple client requests efficiently. Creating a thread is much faster than creating a new process.">
    <rect x="40" y="315" width="720" height="100" rx="10" fill="white" filter="url(#shadow)"/>
    <text x="60" y="335" fill="#1565c0" font-size="13" font-weight="bold">Motivation: Web Server Example</text>
    
    <text x="60" y="360" fill="#78909c" font-size="10">Traditional (Process per Request):</text>
    <rect x="60" y="370" width="180" height="35" rx="5" fill="#ffebee" stroke="#ef5350" stroke-width="1"/>
    <text x="150" y="390" text-anchor="middle" fill="#c62828" font-size="9">Process 1</text>
    <rect x="250" y="370" width="180" height="35" rx="5" fill="#ffebee" stroke="#ef5350" stroke-width="1"/>
    <text x="340" y="390" text-anchor="middle" fill="#c62828" font-size="9">Process 2</text>
    <rect x="440" y="370" width="180" height="35" rx="5" fill="#ffebee" stroke="#ef5350" stroke-width="1"/>
    <text x="530" y="390" text-anchor="middle" fill="#c62828" font-size="9">Process 3</text>
    <text x="60" y="420" fill="#78909c" font-size="9">Heavy, slow creation, more memory</text>
    
    <text x="500" y="360" fill="#78909c" font-size="10">Multithreaded:</text>
    <rect x="500" y="370" width="250" height="35" rx="5" fill="#e8f5e9" stroke="#66bb6a" stroke-width="1"/>
    <text x="625" y="390" text-anchor="middle" fill="#2e7d32" font-size="9">Web Server (1 Process)</text>
    <rect x="510" y="372" width="70" height="31" rx="3" fill="#c8e6c9"/>
    <text x="545" y="390" text-anchor="middle" fill="#1b5e20" font-size="7">Thread 1</text>
    <rect x="590" y="372" width="70" height="31" rx="3" fill="#c8e6c9"/>
    <text x="625" y="390" text-anchor="middle" fill="#1b5e20" font-size="7">Thread 2</text>
    <rect x="670" y="372" width="70" height="31" rx="3" fill="#c8e6c9"/>
    <text x="705" y="390" text-anchor="middle" fill="#1b5e20" font-size="7">Thread 3</text>
  </g>

  <g class="step" id="step4" data-narration="Multithreading offers four key benefits: Responsiveness, Resource Sharing, Economy, and Scalability. Remember RRES!">
    <rect x="40" y="430" width="720" height="90" rx="10" fill="white" filter="url(#shadow)"/>
    <text x="60" y="450" fill="#1565c0" font-size="13" font-weight="bold">Four Benefits of Multithreading (RRES)</text>
    
    <rect x="60" y="465" width="165" height="45" rx="8" fill="#e3f2fd" stroke="#1976d2"/>
    <text x="142" y="480" text-anchor="middle" fill="#1565c0" font-size="11" font-weight="bold">Responsiveness</text>
    <text x="142" y="495" text-anchor="middle" fill="#546e7a" font-size="8">UI stays interactive</text>
    
    <rect x="235" y="465" width="165" height="45" rx="8" fill="#e8f5e9" stroke="#388e3c"/>
    <text x="317" y="480" text-anchor="middle" fill="#2e7d32" font-size="11" font-weight="bold">Resource Sharing</text>
    <text x="317" y="495" text-anchor="middle" fill="#546e7a" font-size="8">Code, data, files shared</text>
    
    <rect x="410" y="465" width="165" height="45" rx="8" fill="#fff3e0" stroke="#ff9800"/>
    <text x="492" y="480" text-anchor="middle" fill="#e65100" font-size="11" font-weight="bold">Economy</text>
    <text x="492" y="495" text-anchor="middle" fill="#546e7a" font-size="8">30x faster than process</text>
    
    <rect x="585" y="465" width="165" height="45" rx="8" fill="#f3e5f5" stroke="#9c27b0"/>
    <text x="667" y="480" text-anchor="middle" fill="#6a1b9a" font-size="11" font-weight="bold">Scalability</text>
    <text x="667" y="495" text-anchor="middle" fill="#546e7a" font-size="8">Uses multiple cores</text>
  </g>

  <g class="step" id="step5" data-narration="Thread creation is 30x faster than process creation in Solaris. Context switching between threads is also 5x faster.">
    <rect x="40" y="535" width="720" height="80" rx="10" fill="white" filter="url(#shadow)"/>
    <text x="60" y="555" fill="#e65100" font-size="13" font-weight="bold">Economy: Thread vs Process Creation</text>
    
    <rect x="60" y="570" width="280" height="35" rx="5" fill="#ffebee" stroke="#ef5350"/>
    <text x="200" y="592" text-anchor="middle" fill="#c62828" font-size="11">Process Creation</text>
    
    <path d="M350 587 L380 587" stroke="#ff9800" stroke-width="2" marker-end="url(#arrowBlue)"/>
    <text x="370" y="575" fill="#1565c0" font-size="10" font-weight="bold">30x SLOWER</text>
    
    <rect x="400" y="570" width="280" height="35" rx="5" fill="#e8f5e9" stroke="#66bb6a"/>
    <text x="540" y="592" text-anchor="middle" fill="#2e7d32" font-size="11">Thread Creation</text>
    
    <rect x="60" y="610" width="280" height="1" fill="#ffcdd2"/>
    <rect x="60" y="615" width="280" height="1" fill="#ffcdd2"/>
    <rect x="60" y="620" width="280" height="1" fill="#ffcdd2"/>
    <rect x="400" y="610" width="280" height="1" fill="#c8e6c9"/>
    <rect x="400" y="615" width="280" height="1" fill="#c8e6c9"/>
    <rect x="400" y="620" width="280" height="1" fill="#c8e6c9"/>
    
    <text x="200" y="635" text-anchor="middle" fill="#78909c" font-size="9">Context Switch: 5x slower</text>
    <text x="540" y="635" text-anchor="middle" fill="#78909c" font-size="9">Context Switch: Fast</text>
  </g>

  <g class="step" id="step6" data-narration="Concurrency means tasks make progress (may interleave). Parallelism means simultaneous execution on multiple cores. Both are different!">
    <rect x="40" y="630" width="720" height="90" rx="10" fill="white" filter="url(#shadow)"/>
    <text x="60" y="650" fill="#1565c0" font-size="13" font-weight="bold">Concurrency vs Parallelism</text>
    
    <rect x="60" y="665" width="330" height="45" rx="8" fill="#fff3e0" stroke="#ff9800"/>
    <text x="225" y="680" text-anchor="middle" fill="#e65100" font-size="11" font-weight="bold">Concurrency</text>
    <text x="225" y="695" text-anchor="middle" fill="#546e7a" font-size="9">Interleaved on single core - tasks make progress</text>
    
    <rect x="410" y="665" width="330" height="45" rx="8" fill="#e8f5e9" stroke="#388e3c"/>
    <text x="575" y="680" text-anchor="middle" fill="#2e7d32" font-size="11" font-weight="bold">Parallelism</text>
    <text x="575" y="695" text-anchor="middle" fill="#546e7a" font-size="9">Simultaneous on multiple cores - true parallel</text>
    
    <rect x="60" y="715" width="160" height="35" rx="3" fill="#ffcdd2"/>
    <text x="140" y="733" text-anchor="middle" fill="#c62828" font-size="8">Core 1: T1 T2 T3 T1</text>
    <rect x="230" y="715" width="160" height="35" rx="3" fill="#bbdefb"/>
    <text x="310" y="733" text-anchor="middle" fill="#1565c0" font-size="8">Core 2: T2 T3 T1 T2</text>
    <rect x="400" y="715" width="160" height="35" rx="3" fill="#c8e6c9"/>
    <text x="480" y="733" text-anchor="middle" fill="#2e7d32" font-size="8">Core 3: T3 T1 T2 T3</text>
    <text x="600" y="735" fill="#546e7a" font-size="9">Time</text>
  </g>

  <g class="step" id="step7" data-narration="Five multicore challenges: Dividing activities, Balance, Data splitting, Data dependency, and Testing/debugging.">
    <rect x="40" y="735" width="720" height="90" rx="10" fill="white" filter="url(#shadow)"/>
    <text x="60" y="755" fill="#7b1fa2" font-size="13" font-weight="bold">Multicore Programming Challenges</text>
    
    <rect x="60" y="770" width="130" height="45" rx="5" fill="#f3e5f5" stroke="#9c27b0"/>
    <text x="125" y="785" text-anchor="middle" fill="#6a1b9a" font-size="9" font-weight="bold">Dividing Activities</text>
    <text x="125" y="800" text-anchor="middle" fill="#546e7a" font-size="7">Find parallel tasks</text>
    
    <rect x="200" y="770" width="130" height="45" rx="5" fill="#e8f5e9" stroke="#388e3c"/>
    <text x="265" y="785" text-anchor="middle" fill="#2e7d32" font-size="9" font-weight="bold">Balance</text>
    <text x="265" y="800" text-anchor="middle" fill="#546e7a" font-size="7">Equal work distribution</text>
    
    <rect x="340" y="770" width="130" height="45" rx="5" fill="#e3f2fd" stroke="#1976d2"/>
    <text x="405" y="785" text-anchor="middle" fill="#1565c0" font-size="9" font-weight="bold">Data Splitting</text>
    <text x="405" y="800" text-anchor="middle" fill="#546e7a" font-size="7">Divide data across cores</text>
    
    <rect x="480" y="770" width="130" height="45" rx="5" fill="#fff3e0" stroke="#ff9800"/>
    <text x="545" y="785" text-anchor="middle" fill="#e65100" font-size="9" font-weight="bold">Data Dependency</text>
    <text x="545" y="800" text-anchor="middle" fill="#546e7a" font-size="7">Synchronize tasks</text>
    
    <rect x="620" y="770" width="130" height="45" rx="5" fill="#ffebee" stroke="#f44336"/>
    <text x="685" y="785" text-anchor="middle" fill="#c62828" font-size="9" font-weight="bold">Testing/Debugging</text>
    <text x="685" y="800" text-anchor="middle" fill="#546e7a" font-size="7">Complex execution paths</text>
  </g>

  <g class="step" id="step8" data-narration="Data parallelism: Same operation on distributed data subsets. Example: summing array parts on different cores simultaneously.">
    <rect x="40" y="840" width="720" height="85" rx="10" fill="white" filter="url(#shadow)"/>
    <text x="60" y="860" fill="#1976d2" font-size="13" font-weight="bold">Data Parallelism</text>
    <text x="60" y="878" fill="#546e7a" font-size="10">Same operation on distributed data subsets</text>
    
    <rect x="60" y="890" width="200" height="25" rx="3" fill="#e3f2fd" stroke="#1976d2"/>
    <text x="160" y="907" text-anchor="middle" fill="#1565c0" font-size="10">Array: 1,2,3,4,5,6,7,8</text>
    
    <rect x="60" y="920" width="300" height="1" fill="#bbdefb"/>
    
    <rect x="60" y="930" width="135" height="35" rx="3" fill="#e8f5e9" stroke="#388e3c"/>
    <text x="127" y="945" text-anchor="middle" fill="#2e7d32" font-size="9">Core 1</text>
    <text x="127" y="957" text-anchor="middle" fill="#546e7a" font-size="8">sum(1+2+3+4)=10</text>
    
    <rect x="205" y="930" width="135" height="35" rx="3" fill="#e8f5e9" stroke="#388e3c"/>
    <text x="272" y="945" text-anchor="middle" fill="#2e7d32" font-size="9">Core 2</text>
    <text x="272" y="957" text-anchor="middle" fill="#546e7a" font-size="8">sum(5+6+7+8)=26</text>
    
    <text x="380" y="945" fill="#1565c0" font-size="14" font-weight="bold">10 + 26 = 36</text>
  </g>

  <g class="step" id="step9" data-narration="Task parallelism: Different operations on separate cores. Each thread performs a unique task, like sorting vs computing statistics.">
    <rect x="40" y="940" width="720" height="75" rx="10" fill="white" filter="url(#shadow)"/>
    <text x="60" y="960" fill="#388e3c" font-size="13" font-weight="bold">Task Parallelism</text>
    <text x="60" y="978" fill="#546e7a" font-size="10">Different operations distributed across cores</text>
    
    <rect x="60" y="990" width="300" height="15" rx="3" fill="#e8f5e9"/>
    <text x="210" y="1002" text-anchor="middle" fill="#2e7d32" font-size="9">Data Set</text>
    
    <rect x="60" y="1010" width="135" height="35" rx="3" fill="#f3e5f5" stroke="#9c27b0"/>
    <text x="127" y="1025" text-anchor="middle" fill="#6a1b9a" font-size="9">Core 1</text>
    <text x="127" y="1037" text-anchor="middle" fill="#546e7a" font-size="8">Sort Data</text>
    
    <rect x="205" y="1010" width="135" height="35" rx="3" fill="#fff3e0" stroke="#ff9800"/>
    <text x="272" y="1025" text-anchor="middle" fill="#e65100" font-size="9">Core 2</text>
    <text x="272" y="1037" text-anchor="middle" fill="#546e7a" font-size="8">Compute Stats</text>
  </g>

  <g class="step" id="step10" data-narration="Data parallelism: Same operation, distributed data. Task parallelism: Different operations on separate cores. Key distinction for exams!">
    <rect x="40" y="1030" width="720" height="65" rx="10" fill="white" filter="url(#shadow)"/>
    <text x="60" y="1050" fill="#546e7a" font-size="11" font-weight="bold">Comparison: Data vs Task Parallelism</text>
    
    <rect x="60" y="1062" width="320" height="25" rx="3" fill="#e3f2fd"/>
    <text x="220" y="1078" text-anchor="middle" fill="#1565c0" font-size="10">Data: SAME operation | Distributed data</text>
    
    <rect x="390" y="1062" width="320" height="25" rx="3" fill="#e8f5e9"/>
    <text x="550" y="1078" text-anchor="middle" fill="#2e7d32" font-size="10">Task: DIFFERENT operations | Separate cores</text>
  </g>

  <g class="step" id="step11" data-narration="Amdahls Law shows maximum speedup limited by serial portion. Formula: Speedup = 1 / (S + (1-S)/N). Even infinite cores cant exceed 1/S!">
    <rect x="40" y="1110" width="720" height="85" rx="10" fill="white" filter="url(#shadow)"/>
    <text x="60" y="1130" fill="#c62828" font-size="13" font-weight="bold">Amdahls Law</text>
    <text x="60" y="1150" fill="#546e7a" font-size="10">Maximum speedup limited by serial portion</text>
    
    <rect x="60" y="1160" width="200" height="25" rx="3" fill="#ffcdd2" stroke="#c62828"/>
    <text x="160" y="1177" text-anchor="middle" fill="#c62828" font-size="11" class="formula">Speedup = 1 / (S + (1-S)/N)</text>
    
    <rect x="270" y="1160" width="60" height="25" rx="3" fill="#e3f2fd"/>
    <text x="300" y="1177" text-anchor="middle" fill="#1565c0" font-size="9">S = Serial</text>
    
    <rect x="340" y="1160" width="60" height="25" rx="3" fill="#e8f5e9"/>
    <text x="370" y="1177" text-anchor="middle" fill="#2e7d32" font-size="9">N = Cores</text>
    
    <text x="450" y="1170" fill="#546e7a" font-size="10">Example: 75% parallel, 25% serial:</text>
    <text x="450" y="1185" fill="#1565c0" font-size="10">N=2: 1.6x | N=4: 2.28x | N=infinity: 4x max</text>
  </g>

  <g class="step" id="step12" data-narration="Key takeaways: Threads share resources but have own execution context. Four benefits RRES. Concurrency vs parallelism. Amdahls Law limits speedup.">
    <rect x="40" y="1210" width="720" height="90" rx="10" fill="url(#blueGrad)" filter="url(#shadow)"/>
    <text x="400" y="1230" text-anchor="middle" fill="white" font-size="14" font-weight="bold">Summary - Key Takeaways</text>
    
    <text x="60" y="1255" fill="white" font-size="10">Thread = Basic CPU unit (PC, Reg, Stack); shares code/data/files</text>
    <text x="60" y="1272" fill="white" font-size="10">Benefits: Responsiveness, Resource Sharing, Economy, Scalability (RRES)</text>
    <text x="60" y="1289" fill="white" font-size="10">Concurrency = progress | Parallelism = simultaneous (needs multicore)</text>
    <text x="60" y="1306" fill="white" font-size="10">Data Parallelism: same op on split data | Task Parallelism: different ops</text>
    <text x="60" y="1323" fill="white" font-size="10">Amdahls Law: Speedup limited by serial portion - 1/(S + (1-S)/N)</text>
  </g>
</svg>