<svg xmlns="http://www.w3.org/2000/svg" viewBox="0 0 800 1580">
  <defs>
    <linearGradient id="bgGrad" x1="0%" y1="0%" x2="100%" y2="100%">
      <stop offset="0%" stop-color="#f8f9fa"/>
      <stop offset="100%" stop-color="#e3f2fd"/>
    </linearGradient>
    <linearGradient id="blueGrad" x1="0%" y1="0%" x2="100%" y2="100%">
      <stop offset="0%" stop-color="#e3f2fd"/>
      <stop offset="100%" stop-color="#bbdefb"/>
    </linearGradient>
    <linearGradient id="greenGrad" x1="0%" y1="0%" x2="100%" y2="100%">
      <stop offset="0%" stop-color="#e8f5e9"/>
      <stop offset="100%" stop-color="#c8e6c9"/>
    </linearGradient>
    <linearGradient id="orangeGrad" x1="0%" y1="0%" x2="100%" y2="100%">
      <stop offset="0%" stop-color="#fff3e0"/>
      <stop offset="100%" stop-color="#ffe0b2"/>
    </linearGradient>
    <linearGradient id="purpleGrad" x1="0%" y1="0%" x2="100%" y2="100%">
      <stop offset="0%" stop-color="#f3e5f5"/>
      <stop offset="100%" stop-color="#e1bee7"/>
    </linearGradient>
    <linearGradient id="redGrad" x1="0%" y1="0%" x2="100%" y2="100%">
      <stop offset="0%" stop-color="#ffebee"/>
      <stop offset="100%" stop-color="#ffcdd2"/>
    </linearGradient>
    <filter id="shadow" x="-20%" y="-20%" width="140%" height="140%">
      <feDropShadow dx="2" dy="2" stdDeviation="3" flood-opacity="0.2"/>
    </filter>
    <marker id="arrowBlue" markerWidth="10" markerHeight="10" refX="9" refY="3" orient="auto">
      <path d="M0,0 L0,6 L9,3 z" fill="#1976d2"/>
    </marker>
    <marker id="arrowGreen" markerWidth="10" markerHeight="10" refX="9" refY="3" orient="auto">
      <path d="M0,0 L0,6 L9,3 z" fill="#388e3c"/>
    </marker>
    <marker id="arrowOrange" markerWidth="10" markerHeight="10" refX="9" refY="3" orient="auto">
      <path d="M0,0 L0,6 L9,3 z" fill="#ff9800"/>
    </marker>
  </defs>
  
  <style>
    @keyframes fadeInSlide {
      from { opacity: 0; transform: translateY(20px); }
      to { opacity: 1; transform: translateY(0); }
    }
    @keyframes scaleIn {
      from { opacity: 0; transform: scale(0.85); }
      to { opacity: 1; transform: scale(1); }
    }
    @keyframes textReveal {
      from { opacity: 0; transform: translateX(-10px); }
      to { opacity: 1; transform: translateX(0); }
    }
    @keyframes pulse {
      0%, 100% { transform: scale(1); }
      50% { transform: scale(1.03); }
    }
    @keyframes drawLine {
      from { stroke-dashoffset: 300; }
      to { stroke-dashoffset: 0; }
    }
    .step { animation: fadeInSlide 0.6s ease-out; }
    .step rect:first-child {
      animation: scaleIn 0.5s cubic-bezier(0.34, 1.56, 0.64, 1);
      transform-origin: center;
    }
    .step text { animation: textReveal 0.4s ease-out 0.2s backwards; }
    .title-text { font-family: 'Segoe UI', Arial, sans-serif; font-weight: 600; }
    .body-text { font-family: 'Segoe UI', Arial, sans-serif; font-size: 10px; }
    .label-text { font-family: 'Segoe UI', Arial, sans-serif; font-size: 8px; }
    .formula-text { font-family: 'Times New Roman', serif; font-style: italic; font-size: 11px; }
  </style>
  
  <rect x="0" y="0" width="800" height="1580" fill="#f8f9fa"/>
  <rect x="0" y="0" width="800" height="1580" fill="url(#bgGrad)" opacity="0.5"/>
  
  <!-- Step 0: Title -->
  <g class="step" id="step0" data-narration="Introduction to clustering algorithms including partitional, density-based, and grid-based methods">
    <rect x="20" y="10" width="760" height="45" rx="10" fill="#1976d2" filter="url(#shadow)"/>
    <text x="400" y="42" text-anchor="middle" fill="white" font-size="18" font-weight="bold" font-family="Segoe UI, Arial, sans-serif">Clustering Algorithms</text>
    <text x="400" y="58" text-anchor="middle" fill="#1565c0" font-size="12" font-family="Segoe UI, Arial, sans-serif">Partitional • Density-based • Grid-based Approaches</text>
  </g>
  
  <!-- Step 1: What is Clustering? -->
  <g class="step" id="step1" data-narration="Clustering groups similar data points together based on their characteristics and similarities">
    <rect x="20" y="65" width="370" height="85" rx="8" fill="url(#blueGrad)" filter="url(#shadow)"/>
    <text x="35" y="82" fill="#1565c0" font-size="12" font-weight="bold" font-family="Segoe UI, Arial, sans-serif">What is Clustering?</text>
    <text x="35" y="98" fill="#333" font-size="10" font-family="Segoe UI, Arial, sans-serif">A fundamental unsupervised learning</text>
    <text x="35" y="112" fill="#333" font-size="10" font-family="Segoe UI, Arial, sans-serif">technique that groups similar data</text>
    <text x="35" y="126" fill="#333" font-size="10" font-family="Segoe UI, Arial, sans-serif">points into clusters.</text>
    <circle cx="355" cy="108" r="25" fill="#1976d2" opacity="0.8"/>
    <circle cx="340" cy="120" r="12" fill="#64b5f6"/>
    <circle cx="370" cy="125" r="8" fill="#64b5f6"/>
    <circle cx="350" cy="95" r="10" fill="#bbdefb"/>
    <line x1="340" y1="120" x2="355" y2="108" stroke="#fff" stroke-width="1" opacity="0.6"/>
    <line x1="370" y1="125" x2="355" y2="108" stroke="#fff" stroke-width="1" opacity="0.6"/>
  </g>
  
  <!-- Step 2: Why Clustering Matters -->
  <g class="step" id="step2" data-narration="Clustering is used for customer segmentation, image analysis, and anomaly detection">
    <rect x="410" y="65" width="370" height="85" rx="8" fill="url(#orangeGrad)" filter="url(#shadow)"/>
    <text x="425" y="82" fill="#e65100" font-size="12" font-weight="bold" font-family="Segoe UI, Arial, sans-serif">Why Clustering Matters</text>
    <text x="425" y="98" fill="#333" font-size="10" font-family="Segoe UI, Arial, sans-serif">• Customer Segmentation</text>
    <text x="425" y="112" fill="#333" font-size="10" font-family="Segoe UI, Arial, sans-serif">• Image and Document Analysis</text>
    <text x="425" y="126" fill="#333" font-size="10" font-family="Segoe UI, Arial, sans-serif">• Anomaly Detection</text>
    <g transform="translate(680, 80)">
      <circle cx="0" cy="0" r="18" fill="#ff9800"/>
      <text x="0" y="4" text-anchor="middle" fill="white" font-size="10" font-weight="bold">K</text>
    </g>
    <g transform="translate(720, 95)">
      <circle cx="0" cy="0" r="18" fill="#4caf50"/>
      <text x="0" y="4" text-anchor="middle" fill="white" font-size="10" font-weight="bold">D</text>
    </g>
    <g transform="translate(700, 120)">
      <circle cx="0" cy="0" r="18" fill="#9c27b0"/>
      <text x="0" y="4" text-anchor="middle" fill="white" font-size="10" font-weight="bold">G</text>
    </g>
  </g>
  
  <!-- Step 3: Partitional Clustering Overview -->
  <g class="step" id="step3" data-narration="Partitional clustering divides data into K disjoint clusters by minimizing within-cluster variance">
    <rect x="20" y="160" width="760" height="100" rx="8" fill="url(#greenGrad)" filter="url(#shadow)"/>
    <text x="35" y="180" fill="#2e7d32" font-size="12" font-weight="bold" font-family="Segoe UI, Arial, sans-serif">Partitional Clustering Algorithms</text>
    <text x="35" y="198" fill="#333" font-size="10" font-family="Segoe UI, Arial, sans-serif">Divides data into K disjoint clusters, minimizing within-cluster variance.</text>
    <text x="35" y="214" fill="#333" font-size="10" font-family="Segoe UI, Arial, sans-serif">Each data point belongs to exactly one cluster.</text>
    
    <rect x="35" y="228" width="80" height="24" rx="4" fill="#4caf50"/>
    <text x="75" y="245" text-anchor="middle" fill="white" font-size="9" font-weight="bold">K-Means</text>
    
    <rect x="130" y="228" width="80" height="24" rx="4" fill="#66bb6a"/>
    <text x="170" y="245" text-anchor="middle" fill="white" font-size="9" font-weight="bold">K-Medoids</text>
    
    <rect x="225" y="228" width="100" height="24" rx="4" fill="#81c784"/>
    <text x="275" y="245" text-anchor="middle" fill="white" font-size="9" font-weight="bold">Hierarchical</text>
    
    <line x1="280" y1="185" x2="280" y2="255" stroke="#4caf50" stroke-width="2" stroke-dasharray="4" marker-end="url(#arrowGreen)"/>
    <text x="295" y="220" fill="#2e7d32" font-size="9">Minimize:</text>
    <text x="295" y="235" fill="#2e7d32" font-size="10" font-family="Times New Roman, serif">Sum Sum ||x - mu_i||^2</text>
  </g>
  
  <!-- Step 4: K-Means Algorithm -->
  <g class="step" id="step4" data-narration="K-Means iteratively assigns points to nearest centroid and updates centroids as cluster mean">
    <rect x="20" y="270" width="480" height="105" rx="8" fill="url(#blueGrad)" filter="url(#shadow)"/>
    <text x="35" y="290" fill="#1565c0" font-size="12" font-weight="bold" font-family="Segoe UI, Arial, sans-serif">K-Means Clustering Algorithm</text>
    <text x="35" y="308" fill="#333" font-size="10" font-family="Segoe UI, Arial, sans-serif">Step 1: Initialize K centroids randomly</text>
    <text x="35" y="324" fill="#333" font-size="10" font-family="Segoe UI, Arial, sans-serif">Step 2: Assign each point to nearest centroid</text>
    <text x="35" y="340" fill="#333" font-size="10" font-family="Segoe UI, Arial, sans-serif">Step 3: Update centroids as cluster mean</text>
    <text x="35" y="356" fill="#333" font-size="10" font-family="Segoe UI, Arial, sans-serif">Repeat until convergence</text>
    
    <!-- Mini visualization -->
    <g transform="translate(320, 295)">
      <circle cx="0" cy="0" r="8" fill="#f44336"/>
      <circle cx="25" cy="15" r="8" fill="#4caf50"/>
      <circle cx="15" cy="35" r="8" fill="#2196f3"/>
      <circle cx="45" cy="5" r="8" fill="#ff9800"/>
      <circle cx="5" cy="25" r="8" fill="#9c27b0"/>
      
      <circle cx="15" cy="15" r="6" fill="none" stroke="#f44336" stroke-width="2" stroke-dasharray="30" opacity="0.7">
        <animate attributeName="stroke-dashoffset" from="30" to="0" dur="1s" repeatCount="1"/>
      </circle>
      <circle cx="30" cy="25" r="6" fill="none" stroke="#4caf50" stroke-width="2" stroke-dasharray="30" opacity="0.7">
        <animate attributeName="stroke-dashoffset" from="30" to="0" dur="1s" repeatCount="1"/>
      </circle>
    </g>
    
    <!-- Formula -->
    <rect x="430" y="275" width="340" height="90" rx="6" fill="#e3f2fd" stroke="#1976d2" stroke-width="1"/>
    <text x="445" y="295" fill="#1565c0" font-size="11" font-weight="bold" font-family="Segoe UI, Arial, sans-serif">Objective Function</text>
    <text x="445" y="320" fill="#333" font-size="14" font-family="Times New Roman, serif">J = Sum_i Sum_x in C_i ||x - mu_i||^2</text>
    <text x="445" y="345" fill="#666" font-size="9" font-family="Segoe UI, Arial, sans-serif">where mu_i = cluster centroid</text>
  </g>
  
  <!-- Step 5: K-Means Visualization -->
  <g class="step" id="step5" data-narration="K-Means converges iteratively, assigning points to clusters until centroids stabilize">
    <rect x="20" y="385" width="760" height="95" rx="8" fill="url(#purpleGrad)" filter="url(#shadow)"/>
    <text x="35" y="405" fill="#7b1fa2" font-size="12" font-weight="bold" font-family="Segoe UI, Arial, sans-serif">K-Means: Iterative Process Visualization</text>
    
    <!-- Iteration visualization -->
    <g transform="translate(60, 420)">
      <text x="30" y="5" text-anchor="middle" fill="#7b1fa2" font-size="9" font-weight="bold">Iteration 1</text>
      <circle cx="15" cy="25" r="6" fill="#f44336"/>
      <circle cx="45" cy="30" r="6" fill="#f44336"/>
      <circle cx="30" cy="45" r="6" fill="#4caf50"/>
      <circle cx="60" cy="20" r="6" fill="#4caf50"/>
      <rect x="10" y="15" width="20" height="2" fill="#1976d2" rx="1">
        <animate attributeName="width" from="0" to="20" dur="0.5s" fill="freeze"/>
      </rect>
      <text x="18" y="28" text-anchor="middle" fill="white" font-size="6">C1</text>
      <rect x="35" y="20" width="20" height="2" fill="#388e3c" rx="1">
        <animate attributeName="width" from="0" to="20" dur="0.5s" fill="freeze"/>
      </rect>
      <text x="45" y="33" text-anchor="middle" fill="white" font-size="6">C2</text>
    </g>
    
    <g transform="translate(160, 420)">
      <text x="30" y="5" text-anchor="middle" fill="#7b1fa2" font-size="9" font-weight="bold">Iteration 2</text>
      <circle cx="15" cy="25" r="6" fill="#f44336"/>
      <circle cx="40" cy="28" r="6" fill="#f44336"/>
      <circle cx="30" cy="45" r="6" fill="#4caf50"/>
      <circle cx="55" cy="22" r="6" fill="#4caf50"/>
      <circle cx="25" cy="15" r="4" fill="#ff9800" stroke="#fff" stroke-width="1">
        <animate attributeName="r" from="0" to="4" dur="0.5s" fill="freeze"/>
      </circle>
    </g>
    
    <g transform="translate(260, 420)">
      <text x="30" y="5" text-anchor="middle" fill="#7b1fa2" font-size="9" font-weight="bold">Iteration 3</text>
      <circle cx="15" cy="25" r="6" fill="#f44336"/>
      <circle cx="38" cy="30" r="6" fill="#f44336"/>
      <circle cx="30" cy="45" r="6" fill="#4caf50"/>
      <circle cx="52" cy="25" r="6" fill="#4caf50"/>
      <circle cx="25" cy="18" r="4" fill="#ff9800" stroke="#fff" stroke-width="1"/>
    </g>
    
    <g transform="translate(360, 420)">
      <text x="30" y="5" text-anchor="middle" fill="#7b1fa2" font-size="9" font-weight="bold">Converged</text>
      <circle cx="15" cy="25" r="6" fill="#f44336"/>
      <circle cx="35" cy="30" r="6" fill="#f44336"/>
      <circle cx="28" cy="45" r="6" fill="#4caf50"/>
      <circle cx="50" cy="28" r="6" fill="#4caf50"/>
      <circle cx="25" cy="18" r="4" fill="#ff9800" stroke="#fff" stroke-width="1"/>
      <text x="28" y="21" text-anchor="middle" fill="white" font-size="6">Y</text>
    </g>
    
    <rect x="480" y="400" width="280" height="70" rx="6" fill="#fff" stroke="#9c27b0" stroke-width="1"/>
    <text x="495" y="420" fill="#7b1fa2" font-size="10" font-weight="bold" font-family="Segoe UI, Arial, sans-serif">K-Means Convergence</text>
    <text x="495" y="438" fill="#333" font-size="9" font-family="Segoe UI, Arial, sans-serif">• Converges to local minimum</text>
    <text x="495" y="452" fill="#333" font-size="9" font-family="Segoe UI, Arial, sans-serif">• Complexity: O(n x K x I x d)</text>
    <text x="625" y="438" fill="#666" font-size="8" font-family="Segoe UI, Arial, sans-serif">n=points, K=clusters, I=iterations</text>
  </g>
  
  <!-- Step 6: K-Medoids -->
  <g class="step" id="step6" data-narration="K-Medoids uses actual data points as cluster centers, making it robust to outliers">
    <rect x="20" y="490" width="760" height="95" rx="8" fill="url(#orangeGrad)" filter="url(#shadow)"/>
    <text x="35" y="510" fill="#e65100" font-size="12" font-weight="bold" font-family="Segoe UI, Arial, sans-serif">K-Medoids (PAM: Partitioning Around Medoids)</text>
    <text x="35" y="530" fill="#333" font-size="10" font-family="Segoe UI, Arial, sans-serif">Uses medoids (actual data points) instead of centroids - more robust to outliers</text>
    
    <!-- Visual comparison -->
    <g transform="translate(50, 545)">
      <rect x="0" y="0" width="30" height="25" rx="4" fill="#e3f2fd" stroke="#1976d2"/>
      <text x="15" y="16" text-anchor="middle" fill="#1976d2" font-size="8" font-weight="bold">K-Means</text>
      <text x="15" y="25" text-anchor="middle" fill="#666" font-size="6">(Centroid)</text>
    </g>
    <g transform="translate(120, 545)">
      <rect x="0" y="0" width="30" height="25" rx="4" fill="#fff3e0" stroke="#ff9800"/>
      <text x="15" y="16" text-anchor="middle" fill="#ff9800" font-size="8" font-weight="bold">K-Medoids</text>
      <text x="15" y="25" text-anchor="middle" fill="#666" font-size="6">(Medoid)</text>
    </g>
    
    <!-- Data points showing medoid vs centroid -->
    <g transform="translate(250, 540)">
      <circle cx="0" cy="20" r="5" fill="#90caf9"/>
      <circle cx="15" cy="10" r="5" fill="#90caf9"/>
      <circle cx="10" cy="30" r="5" fill="#90caf9"/>
      <circle cx="25" cy="25" r="5" fill="#90caf9"/>
      <circle cx="20" cy="5" r="5" fill="#90caf9"/>
      
      <!-- Centroid (not actual point) -->
      <circle cx="14" cy="18" r="8" fill="none" stroke="#1976d2" stroke-width="2" stroke-dasharray="20">
        <animate attributeName="stroke-dashoffset" from="20" to="0" dur="1s" fill="freeze"/>
      </circle>
      <text x="14" y="22" text-anchor="middle" fill="#1976d2" font-size="7">X</text>
      
      <!-- Medoid (actual point) -->
      <circle cx="15" cy="10" r="8" fill="none" stroke="#ff9800" stroke-width="2"/>
      <text x="15" y="14" text-anchor="middle" fill="#ff9800" font-size="8">*</text>
    </g>
    
    <rect x="480" y="520" width="280" height="55" rx="6" fill="#fff" stroke="#ff9800" stroke-width="1"/>
    <text x="495" y="540" fill="#e65100" font-size="10" font-weight="bold" font-family="Segoe UI, Arial, sans-serif">Advantages of K-Medoids</text>
    <text x="495" y="558" fill="#333" font-size="9" font-family="Segoe UI, Arial, sans-serif">• Robust to noise and outliers</text>
    <text x="495" y="572" fill="#333" font-size="9" font-family="Segoe UI, Arial, sans-serif">• More interpretable cluster centers</text>
  </g>
  
  <!-- Step 7: Hierarchical Clustering -->
  <g class="step" id="step7" data-narration="Hierarchical clustering builds a dendrogram showing cluster relationships at different levels">
    <rect x="20" y="595" width="760" height="100" rx="8" fill="url(#greenGrad)" filter="url(#shadow)"/>
    <text x="35" y="615" fill="#2e7d32" font-size="12" font-weight="bold" font-family="Segoe UI, Arial, sans-serif">Hierarchical Clustering</text>
    <text x="35" y="635" fill="#333" font-size="10" font-family="Segoe UI, Arial, sans-serif">Builds a hierarchy of clusters using dendrogram - no need to specify K</text>
    
    <!-- Dendrogram visualization -->
    <g transform="translate(60, 650)">
      <line x1="0" y1="50" x2="80" y2="50" stroke="#4caf50" stroke-width="2">
        <animate attributeName="stroke-dasharray" from="80" to="0" dur="1s" fill="freeze"/>
      </line>
      <line x1="0" y1="30" x2="0" y2="50" stroke="#4caf50" stroke-width="2"/>
      <line x1="20" y1="20" x2="20" y2="50" stroke="#4caf50" stroke-width="2"/>
      <line x1="40" y1="40" x2="40" y2="50" stroke="#4caf50" stroke-width="2"/>
      <line x1="60" y1="10" x2="60" y2="50" stroke="#4caf50" stroke-width="2"/>
      <line x1="80" y1="0" x2="80" y2="50" stroke="#4caf50" stroke-width="2"/>
      
      <circle cx="0" cy="50" r="4" fill="#4caf50"/>
      <circle cx="20" cy="50" r="4" fill="#4caf50"/>
      <circle cx="40" cy="50" r="4" fill="#4caf50"/>
      <circle cx="60" cy="50" r="4" fill="#4caf50"/>
      <circle cx="80" cy="50" r="4" fill="#4caf50"/>
      
      <text x="0" y="65" text-anchor="middle" fill="#666" font-size="7">A</text>
      <text x="20" y="65" text-anchor="middle" fill="#666" font-size="7">B</text>
      <text x="40" y="65" text-anchor="middle" fill="#666" font-size="7">C</text>
      <text x="60" y="65" text-anchor="middle" fill="#666" font-size="7">D</text>
      <text x="80" y="65" text-anchor="middle" fill="#666" font-size="7">E</text>
      
      <line x1="80" y1="0" x2="140" y2="0" stroke="#2e7d32" stroke-width="2" stroke-dasharray="60">
        <animate attributeName="stroke-dashoffset" from="60" to="0" dur="1s" fill="freeze"/>
      </line>
      <line x1="140" y1="0" x2="140" y2="20" stroke="#2e7d32" stroke-width="2"/>
    </g>
    
    <rect x="480" y="610" width="280" height="75" rx="6" fill="#fff" stroke="#4caf50" stroke-width="1"/>
    <text x="495" y="630" fill="#2e7d32" font-size="10" font-weight="bold" font-family="Segoe UI, Arial, sans-serif">Two Approaches</text>
    <text x="495" y="650" fill="#333" font-size="9" font-family="Segoe UI, Arial, sans-serif">• Agglomerative: Bottom-up (merge)</text>
    <text x="495" y="665" fill="#333" font-size="9" font-family="Segoe UI, Arial, sans-serif">• Divisive: Top-down (split)</text>
    <text x="660" y="650" fill="#666" font-size="8" font-family="Segoe UI, Arial, sans-serif">Linkage: Single, Complete, Average</text>
  </g>
  
  <!-- Step 8: Density-Based Methods Intro -->
  <g class="step" id="step8" data-narration="Density-based methods find clusters of arbitrary shape based on point density">
    <rect x="20" y="705" width="760" height="105" rx="8" fill="url(#redGrad)" filter="url(#shadow)"/>
    <text x="35" y="725" fill="#c62828" font-size="12" font-weight="bold" font-family="Segoe UI, Arial, sans-serif">Density-Based Methods</text>
    <text x="35" y="745" fill="#333" font-size="10" font-family="Segoe UI, Arial, sans-serif">Identifies clusters based on density of data points - can find arbitrary shapes</text>
    <text x="35" y="763" fill="#333" font-size="10" font-family="Segoe UI, Arial, sans-serif">and detect outliers automatically.</text>
    
    <!-- Visual of density-based clustering -->
    <g transform="translate(50, 770)">
      <!-- Dense cluster -->
      <circle cx="0" cy="0" r="4" fill="#f44336"/>
      <circle cx="10" cy="5" r="4" fill="#f44336"/>
      <circle cx="5" cy="15" r="4" fill="#f44336"/>
      <circle cx="15" cy="10" r="4" fill="#f44336"/>
      <circle cx="-5" cy="10" r="4" fill="#f44336"/>
      <circle cx="8" cy="-5" r="4" fill="#f44336"/>
      <circle cx="20" cy="0" r="4" fill="#f44336"/>
      <circle cx="12" cy="20" r="4" fill="#f44336"/>
      
      <!-- Sparse noise points -->
      <circle cx="60" cy="30" r="4" fill="#bdbdbd"/>
      <circle cx="75" cy="45" r="4" fill="#bdbdbd"/>
      <circle cx="50" cy="50" r="4" fill="#bdbdbd"/>
      
      <!-- Ring-like cluster -->
      <circle cx="50" cy="10" r="4" fill="#2196f3"/>
      <circle cx="65" cy="15" r="4" fill="#2196f3"/>
      <circle cx="60" cy="25" r="4" fill="#2196f3"/>
      <circle cx="55" cy="5" r="4" fill="#2196f3"/>
      <circle cx="45" cy="20" r="4" fill="#2196f3"/>
      <circle cx="70" cy="20" r="4" fill="#2196f3"/>
    </g>
    
    <rect x="480" y="720" width="280" height="80" rx="6" fill="#fff" stroke="#f44336" stroke-width="1"/>
    <text x="495" y="740" fill="#c62828" font-size="10" font-weight="bold" font-family="Segoe UI, Arial, sans-serif">Key Concepts</text>
    <text x="495" y="760" fill="#333" font-size="9" font-family="Segoe UI, Arial, sans-serif">• Core Points: MinPts neighbors within eps</text>
    <text x="495" y="776" fill="#333" font-size="9" font-family="Segoe UI, Arial, sans-serif">• Reachability: Within eps from core point</text>
    <text x="495" y="792" fill="#333" font-size="9" font-family="Segoe UI, Arial, sans-serif">• Density: Points within radius eps</text>
  </g>
  
  <!-- Step 9: DBSCAN -->
  <g class="step" id="step9" data-narration="DBSCAN uses epsilon and MinPts parameters to identify dense regions as clusters">
    <rect x="20" y="820" width="760" height="105" rx="8" fill="url(#blueGrad)" filter="url(#shadow)"/>
    <text x="35" y="840" fill="#1565c0" font-size="12" font-weight="bold" font-family="Segoe UI, Arial, sans-serif">DBSCAN (Density-Based Spatial Clustering)</text>
    <text x="35" y="860" fill="#333" font-size="10" font-family="Segoe UI, Arial, sans-serif">Parameters: eps = neighborhood radius, MinPts = minimum points</text>
    
    <!-- DBSCAN visualization -->
    <g transform="translate(60, 875)">
      <circle cx="30" cy="30" r="20" fill="none" stroke="#1976d2" stroke-width="2" stroke-dasharray="40" opacity="0.5">
        <animate attributeName="stroke-dashoffset" from="40" to="0" dur="1s" fill="freeze"/>
      </circle>
      <circle cx="30" cy="30" r="4" fill="#4caf50" stroke="#fff" stroke-width="1"/>
      <text x="30" y="34" text-anchor="middle" fill="white" font-size="6" font-weight="bold">P</text>
      
      <!-- Core point neighbors -->
      <circle cx="25" cy="20" r="4" fill="#4caf50"/>
      <circle cx="40" cy="25" r="4" fill="#4caf50"/>
      <circle cx="35" cy="40" r="4" fill="#4caf50"/>
      <circle cx="20" cy="35" r="4" fill="#4caf50"/>
      <circle cx="45" cy="35" r="4" fill="#4caf50"/>
      
      <!-- Border point -->
      <circle cx="55" cy="30" r="4" fill="#ff9800"/>
      <circle cx="70" cy="30" r="20" fill="none" stroke="#ff9800" stroke-width="2" stroke-dasharray="40" opacity="0.3"/>
      <text x="55" y="34" text-anchor="middle" fill="white" font-size="6">B</text>
      
      <!-- Noise point -->
      <circle cx="80" cy="50" r="4" fill="#bdbdbd"/>
      <circle cx="95" cy="50" r="20" fill="none" stroke="#9e9e9e" stroke-width="2" stroke-dasharray="40" opacity="0.2"/>
      <text x="80" y="54" text-anchor="middle" fill="white" font-size="6">N</text>
    </g>
    
    <rect x="480" y="835" width="280" height="80" rx="6" fill="#fff" stroke="#1976d2" stroke-width="1"/>
    <text x="495" y="855" fill="#1565c0" font-size="10" font-weight="bold" font-family="Segoe UI, Arial, sans-serif">DBSCAN Algorithm</text>
    <text x="495" y="875" fill="#333" font-size="9" font-family="Segoe UI, Arial, sans-serif">1. Find eps-neighborhood of each point</text>
    <text x="495" y="890" fill="#333" font-size="9" font-family="Segoe UI, Arial, sans-serif">2. If point has >= MinPts neighbors - Core</text>
    <text x="495" y="905" fill="#333" font-size="9" font-family="Segoe UI, Arial, sans-serif">3. Expand clusters from core points</text>
    <text x="660" y="875" fill="#666" font-size="8" font-family="Segoe UI, Arial, sans-serif">Complexity: O(n^2)</text>
  </g>
  
  <!-- Step 10: Grid-Based Methods -->
  <g class="step" id="step10" data-narration="Grid-based clustering divides space into cells and merges dense adjacent cells">
    <rect x="20" y="935" width="760" height="100" rx="8" fill="url(#purpleGrad)" filter="url(#shadow)"/>
    <text x="35" y="955" fill="#7b1fa2" font-size="12" font-weight="bold" font-family="Segoe UI, Arial, sans-serif">Grid-Based Clustering Approach</text>
    <text x="35" y="975" fill="#333" font-size="10" font-family="Segoe UI, Arial, sans-serif">Divides data space into grid cells - efficient for high-dimensional data</text>
    
    <!-- Grid visualization -->
    <g transform="translate(50, 985)">
      <rect x="0" y="0" width="50" height="50" fill="none" stroke="#9c27b0" stroke-width="1"/>
      <rect x="50" y="0" width="50" height="50" fill="none" stroke="#9c27b0" stroke-width="1"/>
      <rect x="100" y="0" width="50" height="50" fill="none" stroke="#9c27b0" stroke-width="1"/>
      <rect x="0" y="50" width="50" height="50" fill="none" stroke="#9c27b0" stroke-width="1"/>
      <rect x="50" y="50" width="50" height="50" fill="none" stroke="#9c27b0" stroke-width="1"/>
      <rect x="100" y="50" width="50" height="50" fill="none" stroke="#9c27b0" stroke-width="1"/>
      <rect x="0" y="100" width="50" height="50" fill="none" stroke="#9c27b0" stroke-width="1"/>
      <rect x="50" y="100" width="50" height="50" fill="none" stroke="#9c27b0" stroke-width="1"/>
      <rect x="100" y="100" width="50" height="50" fill="none" stroke="#9c27b0" stroke-width="1"/>
      
      <!-- Data points in cells -->
      <circle cx="25" cy="25" r="5" fill="#4caf50"/>
      <circle cx="75" cy="25" r="5" fill="#4caf50"/>
      <circle cx="125" cy="25" r="5" fill="#4caf50"/>
      <circle cx="25" cy="75" r="5" fill="#f44336"/>
      <circle cx="75" cy="75" r="5" fill="#f44336"/>
      <circle cx="125" cy="75" r="5" fill="#f44336"/>
      <circle cx="25" cy="125" r="5" fill="#2196f3"/>
      <circle cx="75" cy="125" r="5" fill="#2196f3"/>
      <circle cx="125" cy="125" r="5" fill="#2196f3"/>
    </g>
    
    <!-- Cell density -->
    <g transform="translate(180, 985)">
      <rect x="0" y="0" width="30" height="20" rx="3" fill="#e8f5e9" stroke="#4caf50"/>
      <text x="15" y="14" text-anchor="middle" fill="#2e7d32" font-size="8">2</text>
      <rect x="40" y="0" width="30" height="20" rx="3" fill="#e8f5e9" stroke="#4caf50"/>
      <text x="55" y="14" text-anchor="middle" fill="#2e7d32" font-size="8">2</text>
      <rect x="80" y="0" width="30" height="20" rx="3" fill="#ffebee" stroke="#f44336"/>
      <text x="95" y="14" text-anchor="middle" fill="#c62828" font-size="8">0</text>
      <rect x="0" y="30" width="30" height="20" rx="3" fill="#e3f2fd" stroke="#1976d2"/>
      <text x="15" y="44" text-anchor="middle" fill="#1565c0" font-size="8">1</text>
    </g>
    
    <rect x="480" y="945" width="280" height="80" rx="6" fill="#fff" stroke="#9c27b0" stroke-width="1"/>
    <text x="495" y="965" fill="#7b1fa2" font-size="10" font-weight="bold" font-family="Segoe UI, Arial, sans-serif">Grid-Based Algorithm Steps</text>
    <text x="495" y="985" fill="#333" font-size="9" font-family="Segoe UI, Arial, sans-serif">1. Create grid of cells (predefined size)</text>
    <text x="495" y="1000" fill="#333" font-size="9" font-family="Segoe UI, Arial, sans-serif">2. Calculate density per cell</text>
    <text x="495" y="1015" fill="#333" font-size="9" font-family="Segoe UI, Arial, sans-serif">3. Merge dense adjacent cells into clusters</text>
    <text x="660" y="985" fill="#666" font-size="8" font-family="Segoe UI, Arial, sans-serif">Time: O(n)</text>
  </g>
  
  <!-- Step 11: Comparison -->
  <g class="step" id="step11" data-narration="Each clustering algorithm has strengths: K-Means for spheres, DBSCAN for arbitrary shapes">
    <rect x="20" y="1045" width="760" height="95" rx="8" fill="url(#orangeGrad)" filter="url(#shadow)"/>
    <text x="35" y="1065" fill="#e65100" font-size="12" font-weight="bold" font-family="Segoe UI, Arial, sans-serif">Algorithm Comparison</text>
    
    <!-- Comparison table -->
    <g transform="translate(30, 1080)">
      <rect x="0" y="0" width="140" height="50" rx="4" fill="#e3f2fd"/>
      <text x="70" y="18" text-anchor="middle" fill="#1565c0" font-size="9" font-weight="bold">K-Means</text>
      <text x="70" y="35" text-anchor="middle" fill="#333" font-size="8">Spherical clusters</text>
      <text x="70" y="45" text-anchor="middle" fill="#666" font-size="7">Needs K specified</text>
      
      <rect x="150" y="0" width="140" height="50" rx="4" fill="#fff3e0"/>
      <text x="220" y="18" text-anchor="middle" fill="#e65100" font-size="9" font-weight="bold">DBSCAN</text>
      <text x="220" y="35" text-anchor="middle" fill="#333" font-size="8">Arbitrary shapes</text>
      <text x="220" y="45" text-anchor="middle" fill="#666" font-size="7">Finds outliers</text>
      
      <rect x="300" y="0" width="140" height="50" rx="4" fill="#f3e5f5"/>
      <text x="370" y="18" text-anchor="middle" fill="#7b1fa2" font-size="9" font-weight="bold">Hierarchical</text>
      <text x="370" y="35" text-anchor="middle" fill="#333" font-size="8">Dendrogram</text>
      <text x="370" y="45" text-anchor="middle" fill="#666" font-size="7">No K needed</text>
      
      <rect x="450" y="0" width="140" height="50" rx="4" fill="#e8f5e9"/>
      <text x="520" y="18" text-anchor="middle" fill="#2e7d32" font-size="9" font-weight="bold">Grid-Based</text>
      <text x="520" y="35" text-anchor="middle" fill="#333" font-size="8">High-dimensional</text>
      <text x="520" y="45" text-anchor="middle" fill="#666" font-size="7">Fast O(n)</text>
    </g>
  </g>
  
  <!-- Step 12: Applications -->
  <g class="step" id="step12" data-narration="Clustering applies to customer segmentation, image processing, fraud detection, and document organization">
    <rect x="20" y="1150" width="760" height="100" rx="8" fill="url(#blueGrad)" filter="url(#shadow)"/>
    <text x="35" y="1170" fill="#1565c0" font-size="12" font-weight="bold" font-family="Segoe UI, Arial, sans-serif">Real-World Applications</text>
    
    <!-- Application cards -->
    <g transform="translate(45, 1185)">
      <rect x="0" y="0" width="160" height="55" rx="6" fill="#e3f2fd" stroke="#1976d2"/>
      <text x="80" y="20" text-anchor="middle" fill="#1565c0" font-size="10" font-weight="bold">Customer Segmentation</text>
      <text x="80" y="38" text-anchor="middle" fill="#666" font-size="9">Group customers by</text>
      <text x="80" y="50" text-anchor="middle" fill="#666" font-size="9">behavior and demographics</text>
    </g>
    
    <g transform="translate(225, 1185)">
      <rect x="0" y="0" width="160" height="55" rx="6" fill="#e8f5e9" stroke="#4caf50"/>
      <text x="80" y="20" text-anchor="middle" fill="#2e7d32" font-size="10" font-weight="bold">Image Segmentation</text>
      <text x="80" y="38" text-anchor="middle" fill="#666" font-size="9">Partition images by</text>
      <text x="80" y="50" text-anchor="middle" fill="#666" font-size="9">color and texture</text>
    </g>
    
    <g transform="translate(405, 1185)">
      <rect x="0" y="0" width="160" height="55" rx="6" fill="#fff3e0" stroke="#ff9800"/>
      <text x="80" y="20" text-anchor="middle" fill="#e65100" font-size="10" font-weight="bold">Anomaly Detection</text>
      <text x="80" y="38" text-anchor="middle" fill="#666" font-size="9">Identify outliers and</text>
      <text x="80" y="50" text-anchor="middle" fill="#666" font-size="9">fraudulent activity</text>
    </g>
    
    <g transform="translate(585, 1185)">
      <rect x="0" y="0" width="160" height="55" rx="6" fill="#f3e5f5" stroke="#9c27b0"/>
      <text x="80" y="20" text-anchor="middle" fill="#7b1fa2" font-size="10" font-weight="bold">Document Clustering</text>
      <text x="80" y="38" text-anchor="middle" fill="#666" font-size="9">Group similar</text>
      <text x="80" y="50" text-anchor="middle" fill="#666" font-size="9">documents and articles</text>
    </g>
  </g>
  
  <!-- Step 13: Summary -->
  <g class="step" id="step13" data-narration="Choose clustering method based on cluster shape, outlier presence, scalability, and dimensionality">
    <rect x="20" y="1260" width="760" height="100" rx="8" fill="url(#greenGrad)" filter="url(#shadow)"/>
    <text x="35" y="1280" fill="#2e7d32" font-size="12" font-weight="bold" font-family="Segoe UI, Arial, sans-serif">Key Takeaways</text>
    
    <g transform="translate(45, 1295)">
      <circle cx="0" cy="0" r="8" fill="#4caf50"/>
      <text x="0" y="4" text-anchor="middle" fill="white" font-size="10" font-weight="bold">1</text>
  </g>
  </g>
</svg>