<svg width="420" height="400" xmlns="http://www.w3.org/2000/svg" data-topic-id="topic-5-and-6" xmlns:xlink="http://www.w3.org/1999/xlink">
    <defs>
        <linearGradient id="pastel-gradient" x1="0%" y1="0%" x2="100%" y2="0%">
            <stop offset="0%" stop-color="#C7B8EA" stop-opacity="1"/>
            <stop offset="100%" stop-color="#C7B8EA" stop-opacity="0.5"/>
        </linearGradient>
        <linearGradient id="indigo-gradient" x1="0%" y1="0%" x2="100%" y2="0%">
            <stop offset="0%" stop-color="#5B457F" stop-opacity="1"/>
            <stop offset="100%" stop-color="#5B457F" stop-opacity="0.5"/>
        </linearGradient>
    </defs>
    <title>5 And 6: Predicate Logic and Knowledge Representation</title>
    <rect x="0" y="0" width="420" height="400" style="fill: url(#pastel-gradient)"/>
    <path d="M 50 100 L 200 100" style="stroke: #8F8C8F; stroke-width: 2; fill: none"/>
    <path d="M 100 150 L 100 200" style="stroke: #8F8C8F; stroke-width: 2; fill: none"/>
    <path d="M 150 150 L 250 150" style="stroke: #8F8C8F; stroke-width: 2; fill: none"/>
    <rect x="50" y="50" width="120" height="100" style="fill: #F7F7F7; border-radius: 5px; padding: 10px"/>
    <rect x="220" y="50" width="120" height="100" style="fill: #F7F7F7; border-radius: 5px; padding: 10px"/>
    <rect x="150" y="150" width="100" height="50" style="fill: #F7F7F7; border-radius: 5px; padding: 10px"/>
    <rect x="100" y="250" width="120" height="100" style="fill: #F7F7F7; border-radius: 5px; padding: 10px"/>
    <g transform="translate(50 50)">
        <text x="10" y="30" style="font-size: 18px; fill: #5B457F">Predicate Logic</text>
        <animateTransform attributeName="transform" type="translate" from="0 0" to="10 0" dur="1000" begin="0s"/>
    </g>
    <g transform="translate(220 50)">
        <text x="10" y="30" style="font-size: 18px; fill: #5B457F">Knowledge Representation</text>
        <animateTransform attributeName="transform" type="translate" from="0 0" to="10 0" dur="1000" begin="1000s"/>
    </g>
    <g transform="translate(150 150)">
        <text x="10" y="30" style="font-size: 18px; fill: #5B457F">Predicates</text>
        <animateTransform attributeName="transform" type="translate" from="0 0" to="10 0" dur="1000" begin="2000s"/>
    </g>
    <g transform="translate(100 250)">
        <text x="10" y="30" style="font-size: 18px; fill: #5B457F">Rules and Facts</text>
        <animateTransform attributeName="transform" type="translate" from="0 0" to="10 0" dur="1000" begin="3000s"/>
    </g>
    <g transform="translate(50 50)">
        <line x1="50" y1="100" x2="200" y2="100" style="stroke: #8F8C8F; stroke-width: 2; fill: none"/>
        <line x1="100" y1="150" x2="100" y2="200" style="stroke: #8F8C8F; stroke-width: 2; fill: none"/>
        <line x1="150" y1="150" x2="250" y2="150" style="stroke: #8F8C8F; stroke-width: 2; fill: none"/>
    </g>
    <g transform="translate(220 50)">
        <line x1="220" y1="100" x2="200" y2="100" style="stroke: #8F8C8F; stroke-width: 2; fill: none"/>
        <line x1="100" y1="150" x2="100" y2="200" style="stroke: #8F8C8F; stroke-width: 2; fill: none"/>
        <line x1="150" y1="150" x2="250" y2="150" style="stroke: #8F8C8F; stroke-width: 2; fill: none"/>
    </g>
    <g transform="translate(150 150)">
        <line x1="150" y1="150" x2="100" y2="100" style="stroke: #8F8C8F; stroke-width: 2; fill: none"/>
        <line x1="100" y1="150" x2="100" y2="200" style="stroke: #8F8C8F; stroke-width: 2; fill: none"/>
        <line x1="150" y1="150" x2="250" y2="150" style="stroke: #8F8C8F; stroke-width: 2; fill: none"/>
    </g>
    <g transform="translate(100 250)">
        <line x1="100" y1="250" x2="220" y2="250" style="stroke: #8F8C8F; stroke-width: 2; fill: none"/>
        <line x1="220" y1="250" x2="200" y2="250" style="stroke: #8F8C8F; stroke-width: 2; fill: none"/>
    </g>
    <rect x="50" y="300" width="420" height="100" style="fill: #F7F7F7; border-radius: 5px; padding: 10px"/>
    <text x="50" y="320" style="font-size: 18px; fill: #5B457F">Rules and Facts: An Example</text>
    <rect x="220" y="300" width="420" height="100" style="fill: #F7F7F7; border-radius: 5px; padding: 10px"/>
    <text x="220" y="320" style="font-size: 18px; fill: #5B457F">Rules and Facts: An Example</text>
    <rect x="150" y="350" width="120" height="50" style="fill: #F7F7F7; border-radius: 5px; padding: 10px"/>
    <text x="150" y="370" style="font-size: 18px; fill: #5B457F">Rules: If-Then Statements</text>
    <rect x="100" y="400" width="120" height="100" style="fill: #F7F7F7; border-radius: 5px; padding: 10px"/>
    <text x="100" y="420" style="font-size: 18px; fill: #5B457F">Facts: Simple Statements</text>
    <rect x="100" y="450" width="120" height="100" style="fill: #F7F7F7; border-radius: 5px; padding: 10px"/>
    <text x="100" y="470" style="font-size: 18px; fill: #5B457F">Knowledge Bases: Combine Facts and Rules</text>
    <text x="220" y="450" style="font-size: 18px; fill: #5B457F">Knowledge Bases: Combine Facts and Rules</text>
    <g transform="translate(50 50)">
        <animateTransform attributeName="transform" type="translate" from="0 0" to="10 0" dur="1000" begin="4000s"/>
    </g>
    <g transform="translate(220 50)">
        <animateTransform attributeName="transform" type="translate" from="0 0" to="10 0" dur="1000" begin="4500s"/>
    </g>
    <g transform="translate(150 150)">
        <animateTransform attributeName="transform" type="translate" from="0 0" to="10 0" dur="1000" begin="5000s"/>
    </g>
    <g transform="translate(100 250)">
        <animateTransform attributeName="transform" type="translate" from="0 0" to="10 0" dur="1000" begin="5500s"/>
    </g>
    <g transform="translate(50 50)">
        <line x1="50" y1="100" x2="200" y2="100" style="stroke: #8F8C8F; stroke-width: 2; fill: none"/>
        <line x1="100" y1="150" x2="100" y2="200" style="stroke: #8F8C8F; stroke-width: 2; fill: none"/>
        <line x1="150" y1="150" x2="250" y2="150" style="stroke: #8F8C8F; stroke-width: 2; fill: none"/>
    </g>
    <g transform="translate(220 50)">
        <line x1="220" y1="100" x2="200" y2="100" style="stroke: #8F8C8F; stroke-width: 2; fill: none"/>
        <line x1="100" y1="150" x2="100" y2="200" style="stroke: #8F8C8F; stroke-width: 2; fill: none"/>
        <line x1="150" y1="150" x2="250" y2="150" style="stroke: #8F8C8F; stroke-width: 2; fill: none"/>
    </g>
    <g transform="translate(150 150)">
        <line x1="150" y1="150" x2="100" y2="100" style="stroke: #8F8C8F; stroke-width: 2; fill: none"/>
        <line x1="100" y1="150" x2="100" y2="200" style="stroke: #8F8C8F; stroke-width: 2; fill: none"/>
        <line x1="150" y1="150" x2="250" y2="150" style="stroke: #8F8C8F; stroke-width: 2; fill: none"/>
    </g>
    <g transform="translate(100 250)">
        <line x1="100" y1="250" x2="220" y2="250" style="stroke: #8F8C8F; stroke-width: 2; fill: none"/>
        <line x1="220" y1="250" x2="200" y2="250" style="stroke: #8F8C8F; stroke-width: 2; fill: none"/>
    </g>
    <g transform="translate(50 50)">
        <text x="10" y="320" style="font-size: 18px; fill: #5B457F">Rules and Facts: An Example</text>
    </g>
    <g transform="translate(220 50)">
        <text x="10" y="320" style="font-size: 18px; fill: #5B457F">Rules and Facts: An Example</text>
    </g>
    <g transform="translate(150 150)">
        <text x="10" y="370" style="font-size: 18px; fill: #5B457F">Rules: If-Then Statements</text>
    </g>
    <g transform="translate(100 250)">
        <text x="10" y="420" style="font-size: 18px; fill: #5B457F">Facts: Simple Statements</text>
        <text x="10" y="450" style="font-size: 18px; fill: #5B457F">Knowledge Bases: Combine Facts and Rules</text>
    </g>
    <g transform="translate(50 50)">
        <rect x="50" y="360" width="70" height="30" style="fill: #F7F7F7; border-radius: 5px; padding: 5px"/>
        <text x="60" y="380" style="font-size: 18px; fill: #5B457F">Predicates</text>
    </g>
    <g transform="translate(220 50)">
        <rect x="220" y="360" width="70" height="30" style="fill: #F7F7F7; border-radius: 5px; padding: 5px"/>
        <text x="230" y="380" style="font-size: 18px; fill: #5B457F">Rules</text>
    </g>
    <g transform="translate(150 150)">
        <rect x="150" y="390" width="70" height="30" style="fill: #F7F7F7; border-radius: 5px; padding: 5px"/>
        <text x="160" y="410" style="font-size: 18px; fill: #5B457F">Facts</text>
    </g>
    <g transform="translate(100 250)">
        <rect x="100" y="400" width="70" height="30" style="fill: #F7F7F7; border-radius: 5px; padding: 5px"/>
        <text x="110" y="420" style="font-size: 18px; fill: #5B457F">Knowledge Bases</text>
    </g>
    <g transform="translate(50 50)">
        <animateTransform attributeName="transform" type="translate" from="0 0" to="10 0" dur="1000" begin="6000s"/>
    </g>
    <g transform="translate(220 50)">
        <animateTransform attributeName="transform" type="translate" from="0 0" to="10 0" dur="1000" begin="6600s"/>
    </g>
    <g transform="translate(150 150)">
        <animateTransform attributeName="transform" type="translate" from="0 0" to="10 0" dur="1000" begin="7200s"/>
    </g>
    <g transform="translate(100 250)">
        <animateTransform attributeName="transform" type="translate" from="0 0" to="10 0" dur="1000" begin="7800s"/>
    </g>
    <rect x="50" y="370" width="420" height="30" style="fill: #F7F7F7; border-radius: 5px; padding: 5px"/>
    <text x="50" y="390" style="font-size: 18px; fill: #5B457F">Start with Predicates</text>
    <rect x="220" y="370" width="420" height="30" style="fill: #F7F7F7; border-radius: 5px; padding: 5px"/>
    <text x="220" y="390" style="font-size: 18px; fill: #5B457F">Add Rules</text>
    <rect x="150" y="400" width="420" height="30" style="fill: #F7F7F7; border-radius: 5px; padding: 5px"/>
    <text x="150" y="420" style="font-size: 18px; fill: #5B457F">Combine Facts and Rules</text>
    <g transform="translate(50 50)">
        <animateTransform attributeName="transform" type="translate" from="0 0" to="10 0" dur="1000" begin="8000s"/>
    </g>
    <g transform="translate(220 50)">
        <animateTransform attributeName="transform" type="translate" from="0 0" to="10 0" dur="1000" begin="8600s"/>
    </g>
    <g transform="translate(150 150)">
        <animateTransform attributeName="transform" type="translate" from="0 0" to="10 0" dur="1000" begin="9200s"/>
    </g>
    <g transform="translate(100 250)">
        <animateTransform attributeName="transform" type="translate" from="0 0" to="10 0" dur="1000" begin="9800s"/>
    </g>
    <g transform="translate(50 50)">
        <text x="10" y="420" style="font-size: 18px; fill: #5B457F">Create a Knowledge Base</text>
    </g>
    <g transform="translate(220 50)">
        <text x="10" y="420" style="font-size: 18px; fill: #5B457F">Create a Knowledge Base</text>
    </g>
    <g transform="translate(150 150)">
        <text x="10" y="450" style="font-size: 18px; fill: #5B457F">Use Rules and Facts to Make Inferences</text>
    </g>
    <g transform="translate(100 250)">
        <text x="10" y="450" style="font-size: 18px; fill: #5B457F">Use Rules and Facts to Make Inferences</text>
    </g>
    <rect x="50" y="500" width="420" height="30" style="fill: #F7F7F7; border-radius: 5px; padding: 5px"/>
    <text x="50" y="520" style="font-size: 18px; fill: #5B457F">An Example Knowledge Base</text>
    <rect x="220" y="500" width="420" height="30" style="fill: #F7F7F7; border-radius: 5px; padding: 5px"/>
    <text x="220" y="520" style="font-size: 18px; fill: #5B457F">An Example Knowledge Base</text>
    <rect x="150" y="530" width="420" height="30" style="fill: #F7F7F7; border-radius: 5px; padding: 5px"/>
    <text x="150" y="550" style="font-size: 18px; fill: #5B457F">An Example Knowledge Base</text>
    <g transform="translate(50 50)">
        <animateTransform attributeName="transform" type="translate" from="0 0" to="10 0" dur="1000" begin="10000s"/>
    </g>
    <g transform="translate(220 50)">
        <animateTransform attributeName="transform" type="translate" from="0 0" to="10 0" dur="1000" begin="10600s"/>
    </g>
    <g transform="translate(150 150)">
        <animateTransform attributeName="transform" type="translate" from="0 0" to="10 0" dur="1000" begin="11200s"/>
    </g>
    <g transform="translate(100 250)">
        <animateTransform attributeName="transform" type="translate" from="0 0" to="10 0" dur="1000" begin="11800s"/>
    </g>
</svg>