<svg xmlns="http://www.w3.org/2000/svg" viewBox="0 0 800 2000" preserveAspectRatio="xMidYMid meet">
  <defs>
    <linearGradient id="bgGrad" x1="0%" y1="0%" x2="0%" y2="100%">
      <stop offset="0%" stop-color="#f8f9fa"/>
      <stop offset="100%" stop-color="#e3f2fd"/>
    </linearGradient>
    <linearGradient id="blueGrad" x1="0%" y1="0%" x2="100%" y2="100%">
      <stop offset="0%" stop-color="#1976d2"/>
      <stop offset="100%" stop-color="#42a5f5"/>
    </linearGradient>
    <linearGradient id="greenGrad" x1="0%" y1="0%" x2="100%" y2="100%">
      <stop offset="0%" stop-color="#388e3c"/>
      <stop offset="100%" stop-color="#66bb6a"/>
    </linearGradient>
    <linearGradient id="orangeGrad" x1="0%" y1="0%" x2="100%" y2="100%">
      <stop offset="0%" stop-color="#f57c00"/>
      <stop offset="100%" stop-color="#ffb74d"/>
    </linearGradient>
    <linearGradient id="purpleGrad" x1="0%" y1="0%" x2="100%" y2="100%">
      <stop offset="0%" stop-color="#7b1fa2"/>
      <stop offset="100%" stop-color="#ba68c8"/>
    </linearGradient>
    <linearGradient id="redGrad" x1="0%" y1="0%" x2="100%" y2="100%">
      <stop offset="0%" stop-color="#d32f2f"/>
      <stop offset="100%" stop-color="#ef5350"/>
    </linearGradient>
    <linearGradient id="tealGrad" x1="0%" y1="0%" x2="100%" y2="100%">
      <stop offset="0%" stop-color="#00796b"/>
      <stop offset="100%" stop-color="#26a69a"/>
    </linearGradient>
    <filter id="shadow" x="-20%" y="-20%" width="140%" height="140%">
      <feDropShadow dx="2" dy="3" stdDeviation="3" flood-opacity="0.2"/>
    </filter>
    <marker id="arrowBlue" markerWidth="10" markerHeight="10" refX="9" refY="3" orient="auto">
      <path d="M0,0 L0,6 L9,3 z" fill="#1976d2"/>
    </marker>
    <pattern id="gridPattern" width="20" height="20" patternUnits="userSpaceOnUse">
      <path d="M 20 0 L 0 0 0 20" fill="none" stroke="#e0e0e0" stroke-width="0.5"/>
    </pattern>
  </defs>
  
  <style>
    @keyframes fadeInSlide {
      from { opacity: 0; transform: translateY(20px); }
      to { opacity: 1; transform: translateY(0); }
    }
    @keyframes scaleIn {
      from { opacity: 0; transform: scale(0.85); }
      to { opacity: 1; transform: scale(1); }
    }
    @keyframes textReveal {
      from { opacity: 0; transform: translateX(-10px); }
      to { opacity: 1; transform: translateX(0); }
    }
    @keyframes pulse {
      0%, 100% { transform: scale(1); }
      50% { transform: scale(1.03); }
    }
    @keyframes drawLine {
      from { stroke-dashoffset: 1000; }
      to { stroke-dashoffset: 0; }
    }
    @keyframes growHeight {
      from { transform: scaleY(0); }
      to { transform: scaleY(1); }
    }
    .step { animation: fadeInSlide 0.6s ease-out; }
    .step rect {
      animation: scaleIn 0.5s cubic-bezier(0.34, 1.56, 0.64, 1);
      transform-origin: center;
    }
    .step text { animation: textReveal 0.4s ease-out 0.2s backwards; }
    .title-text { font-family: 'Segoe UI', Arial, sans-serif; font-weight: bold; }
    .body-text { font-family: 'Segoe UI', Arial, sans-serif; }
    .formula { font-family: 'Times New Roman', serif; font-style: italic; }
    .drawn-line {
      stroke-dasharray: 1000;
      stroke-dashoffset: 1000;
      animation: drawLine 1.5s ease-out forwards;
    }
    .grow-rect {
      transform-origin: bottom;
      animation: growHeight 0.8s ease-out forwards;
    }
  </style>
  
  <rect x="0" y="0" width="800" height="2000" fill="#f8f9fa"/>
  <rect x="0" y="0" width="800" height="2000" fill="url(#gridPattern)" opacity="0.3"/>
  
  <g class="step" id="step0" data-narration="Welcome to Signal Concepts! This module covers fundamental signal processing ideas essential for DSP and communication systems.">
    <rect x="50" y="20" width="700" height="50" rx="10" fill="url(#blueGrad)" filter="url(#shadow)"/>
    <text x="400" y="52" text-anchor="middle" fill="white" font-size="22" font-weight="bold" class="title-text">Signal Concepts</text>
    <text x="400" y="72" text-anchor="middle" fill="#1565c0" font-size="11" class="body-text">Fundamentals of Signals &amp; Signal Processing</text>
  </g>
  
  <g class="step" id="step1" data-narration="A signal is a function that conveys information about a phenomenon. In engineering, signals represent physical quantities varying with time or space.">
    <rect x="50" y="80" width="700" height="85" rx="8" fill="white" filter="url(#shadow)"/>
    <rect x="50" y="80" width="5" height="85" rx="3" fill="url(#blueGrad)"/>
    <text x="70" y="100" fill="#1976d2" font-size="13" font-weight="bold" class="title-text">What is a Signal?</text>
    <text x="70" y="118" fill="#424242" font-size="10" class="body-text">A signal is a function that conveys information about a phenomenon or quantity.</text>
    <text x="70" y="133" fill="#616161" font-size="10" class="body-text">Mathematically: x(t) for continuous-time, x[n] for discrete-time</text>
    <text x="70" y="151" fill="#757575" font-size="10" class="body-text">Example: audio waves, images, data packets, sensor readings</text>
    <g transform="translate(450, 100)">
      <path d="M0,30 Q20,5 40,30 Q60,55 80,30 Q100,5 120,30 Q140,55 160,30" stroke="#1976d2" stroke-width="2" fill="none" class="drawn-line"/>
      <text x="80" y="65" text-anchor="middle" fill="#424242" font-size="9" class="body-text">x(t)</text>
    </g>
  </g>
  
  <g class="step" id="step2" data-narration="Signals are classified into several categories based on their properties: continuous vs discrete time, periodic vs aperiodic, and more.">
    <rect x="50" y="175" width="700" height="85" rx="8" fill="white" filter="url(#shadow)"/>
    <rect x="50" y="175" width="5" height="85" rx="3" fill="url(#greenGrad)"/>
    <text x="70" y="195" fill="#388e3c" font-size="13" font-weight="bold" class="title-text">Signal Classification Categories</text>
    <g transform="translate(70, 215)">
      <rect x="0" y="0" width="125" height="35" rx="5" fill="#e8f5e9" stroke="#388e3c" stroke-width="1"/>
      <text x="62" y="15" text-anchor="middle" fill="#388e3c" font-size="8" font-weight="bold">Time Domain</text>
      <text x="62" y="28" text-anchor="middle" fill="#2e7d32" font-size="7">Continuous/Discrete</text>
      <rect x="135" y="0" width="125" height="35" rx="5" fill="#fff3e0" stroke="#ff9800" stroke-width="1"/>
      <text x="197" y="15" text-anchor="middle" fill="#f57c00" font-size="8" font-weight="bold">Periodicity</text>
      <text x="197" y="28" text-anchor="middle" fill="#e65100" font-size="7">Periodic/Aperiodic</text>
      <rect x="270" y="0" width="125" height="35" rx="5" fill="#f3e5f5" stroke="#9c27b0" stroke-width="1"/>
      <text x="332" y="15" text-anchor="middle" fill="#9c27b0" font-size="8" font-weight="bold">Symmetry</text>
      <text x="332" y="28" text-anchor="middle" fill="#6a1b9a" font-size="7">Even/Odd</text>
      <rect x="405" y="0" width="125" height="35" rx="5" fill="#ffebee" stroke="#f44336" stroke-width="1"/>
      <text x="467" y="15" text-anchor="middle" fill="#d32f2f" font-size="8" font-weight="bold">Predictability</text>
      <text x="467" y="28" text-anchor="middle" fill="#c62828" font-size="7">Deterministic/Random</text>
      <rect x="540" y="0" width="125" height="35" rx="5" fill="#e0f7fa" stroke="#0097a7" stroke-width="1"/>
      <text x="602" y="15" text-anchor="middle" fill="#00838f" font-size="8" font-weight="bold">Energy</text>
      <text x="602" y="28" text-anchor="middle" fill="#006064" font-size="7">Energy/Power</text>
    </g>
  </g>
  
  <g class="step" id="step3" data-narration="Continuous-time signals are defined for every value of time, like sine waves. Discrete-time signals are defined only at specific instants.">
    <rect x="50" y="270" width="700" height="85" rx="8" fill="white" filter="url(#shadow)"/>
    <rect x="50" y="270" width="5" height="85" rx="3" fill="url(#blueGrad)"/>
    <text x="70" y="290" fill="#1976d2" font-size="13" font-weight="bold" class="title-text">Continuous vs Discrete-Time Signals</text>
    <g transform="translate(70, 310)">
      <text x="0" fill="#424242" font-size="9" font-weight="bold">Continuous x(t): every t</text>
      <path d="M0,25 Q25,5 50,25 Q75,45 100,25" stroke="#1976d2" stroke-width="2" fill="none" class="drawn-line"/>
    </g>
    <g transform="translate(350, 310)">
      <text x="0" fill="#424242" font-size="9" font-weight="bold">Discrete x[n]: n = integer</text>
      <line x1="0" y1="25" x2="120" y2="25" stroke="#9e9e9e" stroke-width="1"/>
      <circle cx="0" cy="25" r="3" fill="#42a5f5"/>
      <circle cx="30" cy="15" r="3" fill="#42a5f5"/>
      <circle cx="60" cy="25" r="3" fill="#42a5f5"/>
      <circle cx="90" cy="15" r="3" fill="#42a5f5"/>
      <circle cx="120" cy="25" r="3" fill="#42a5f5"/>
    </g>
    <g transform="translate(550, 310)">
      <rect x="0" y="0" width="130" height="35" rx="5" fill="#e3f2fd" stroke="#42a5f5"/>
      <text x="65" y="15" text-anchor="middle" fill="#1565c0" font-size="8" font-weight="bold">Key Difference</text>
      <text x="65" y="27" text-anchor="middle" fill="#0d47a1" font-size="7">Continuous domain vs discrete samples</text>
    </g>
  </g>
  
  <g class="step" id="step4" data-narration="A periodic signal repeats its pattern at regular intervals defined by fundamental period T. Aperiodic signals show no repetition.">
    <rect x="50" y="365" width="700" height="85" rx="8" fill="white" filter="url(#shadow)"/>
    <rect x="50" y="365" width="5" height="85" rx="3" fill="url(#orangeGrad)"/>
    <text x="70" y="385" fill="#f57c00" font-size="13" font-weight="bold" class="title-text">Periodic vs Aperiodic Signals</text>
    <g transform="translate(70, 405)">
      <text x="0" fill="#424242" font-size="9" font-weight="bold">Periodic: x(t+T)=x(t)</text>
      <path d="M0,20 L20,20 L25,5 L30,35 L35,20 L55,20 L60,20 L65,5 L70,35 L75,20 L95,20" stroke="#ff9800" stroke-width="2" fill="none" class="drawn-line"/>
      <line x1="30" y1="45" x2="30" y2="55" stroke="#ff9800" stroke-width="1"/>
      <line x1="65" y1="45" x2="65" y2="55" stroke="#ff9800" stroke-width="1"/>
      <text x="47" y="65" text-anchor="middle" fill="#e65100" font-size="8">T</text>
    </g>
    <g transform="translate(350, 405)">
      <text x="0" fill="#424242" font-size="9" font-weight="bold">Aperiodic: No repeating pattern</text>
      <path d="M0,30 L20,25 L40,35 L60,15 L80,40 L100,20 L130,30" stroke="#757575" stroke-width="2" fill="none" class="drawn-line"/>
      <text x="65" y="50" fill="#757575" font-size="8">No period exists</text>
    </g>
  </g>
  
  <g class="step" id="step5" data-narration="Even signals are symmetric about the y-axis: x(-t) equals x(t). Odd signals are symmetric about the origin: x(-t) equals negative x(t).">
    <rect x="50" y="460" width="700" height="85" rx="8" fill="white" filter="url(#shadow)"/>
    <rect x="50" y="460" width="5" height="85" rx="3" fill="url(#purpleGrad)"/>
    <text x="70" y="480" fill="#7b1fa2" font-size="13" font-weight="bold" class="title-text">Even and Odd Signals</text>
    <g transform="translate(70, 500)">
      <text x="70" y="0" text-anchor="middle" fill="#7b1fa2" font-size="9" font-weight="bold">EVEN: x(-t)=x(t)</text>
      <line x1="70" y1="5" x2="70" y2="45" stroke="#7b1fa2" stroke-width="1" stroke-dasharray="3,3"/>
      <path d="M20,25 Q45,10 70,25 Q95,40 120,25" stroke="#9c27b0" stroke-width="2" fill="none"/>
    </g>
    <g transform="translate(350, 500)">
      <text x="70" y="0" text-anchor="middle" fill="#c62828" font-size="9" font-weight="bold">ODD: x(-t)=-x(t)</text>
      <line x1="70" y1="5" x2="70" y2="45" stroke="#c62828" stroke-width="1" stroke-dasharray="3,3"/>
      <path d="M40,38 Q55,25 70,25 Q85,25 100,12" stroke="#e53935" stroke-width="2" fill="none"/>
    </g>
    <g transform="translate(550, 500)">
      <rect x="0" y="0" width="130" height="35" rx="5" fill="#f3e5f5" stroke="#9c27b0"/>
      <text x="65" y="15" text-anchor="middle" fill="#6a1b9a" font-size="8" font-weight="bold">Decomposition</text>
      <text x="65" y="27" text-anchor="middle" fill="#4a148c" font-size="7">xe+xo = any signal</text>
    </g>
  </g>
  
  <g class="step" id="step6" data-narration="Any signal can be decomposed into even and odd components using formulas: xe(t) equals x(t) plus x(-t) over 2, and xo(t) equals x(t) minus x(-t) over 2.">
    <rect x="50" y="555" width="700" height="85" rx="8" fill="white" filter="url(#shadow)"/>
    <rect x="50" y="555" width="5" height="85" rx="3" fill="url(#purpleGrad)"/>
    <text x="70" y="575" fill="#7b1fa2" font-size="13" font-weight="bold" class="title-text">Even-Odd Decomposition</text>
    <g transform="translate(70, 595)">
      <rect x="0" y="0" width="190" height="35" rx="5" fill="#f3e5f5" stroke="#9c27b0"/>
      <text x="95" y="15" text-anchor="middle" fill="#7b1fa2" font-size="10" font-weight="bold" class="formula">x(t) = xe(t) + xo(t)</text>
      <text x="95" y="28" text-anchor="middle" fill="#6a1b9a" font-size="8">Every signal has even + odd parts</text>
    </g>
    <g transform="translate(280, 595)">
      <rect x="0" y="0" width="210" height="35" rx="5" fill="#e8f5e9" stroke="#388e3c"/>
      <text x="105" y="15" text-anchor="middle" fill="#2e7d32" font-size="9" font-weight="bold" class="formula">xe(t) = [x(t) + x(-t)]/2</text>
      <text x="105" y="28" text-anchor="middle" fill="#1b5e20" font-size="8">Even Component</text>
    </g>
    <g transform="translate(510, 595)">
      <rect x="0" y="0" width="180" height="35" rx="5" fill="#fff3e0" stroke="#ff9800"/>
      <text x="90" y="15" text-anchor="middle" fill="#e65100" font-size="9" font-weight="bold" class="formula">xo(t) = [x(t)-x(-t)]/2</text>
      <text x="90" y="28" text-anchor="middle" fill="#bf360c" font-size="8">Odd Component</text>
    </g>
  </g>
  
  <g class="step" id="step7" data-narration="Deterministic signals can be described by explicit mathematical formulas. Random signals follow probabilistic patterns and cannot be precisely predicted.">
    <rect x="50" y="650" width="700" height="75" rx="8" fill="white" filter="url(#shadow)"/>
    <rect x="50" y="650" width="5" height="75" rx="3" fill="url(#redGrad)"/>
    <text x="70" y="670" fill="#d32f2f" font-size="13" font-weight="bold" class="title-text">Deterministic vs Random Signals</text>
    <g transform="translate(70, 690)">
      <rect x="0" y="0" width="280" height="25" rx="5" fill="#ffebee" stroke="#f44336"/>
      <text x="140" y="16" text-anchor="middle" fill="#c62828" font-size="9" font-weight="bold">Deterministic: x(t) = sin(ωt) - explicit formula</text>
    </g>
    <g transform="translate(370, 690)">
      <rect x="0" y="0" width="280" height="25" rx="5" fill="#eceff1" stroke="#607d8b"/>
      <text x="140" y="16" text-anchor="middle" fill="#455a64" font-size="9" font-weight="bold">Random: Probabilistic behavior - no exact formula</text>
    </g>
  </g>
  
  <g class="step" id="step8" data-narration="Energy signals have finite energy with zero average power. Power signals have infinite energy but finite nonzero average power.">
    <rect x="50" y="735" width="700" height="85" rx="8" fill="white" filter="url(#shadow)"/>
    <rect x="50" y="735" width="5" height="85" rx="3" fill="url(#tealGrad)"/>
    <text x="70" y="755" fill="#00796b" font-size="13" font-weight="bold" class="title-text">Energy vs Power Signals</text>
    <g transform="translate(70, 775)">
      <rect x="0" y="0" width="300" height="35" rx="5" fill="#e0f7fa" stroke="#0097a7"/>
      <text x="10" y="15" fill="#006064" font-size="9" font-weight="bold">Energy: E = ∫|x(t)|² dt from -∞ to +∞</text>
      <text x="10" y="28" fill="#00838f" font-size="8">Energy signal: E finite, P = 0</text>
    </g>
    <g transform="translate(390, 775)">
      <rect x="0" y="0" width="280" height="35" rx="5" fill="#fce4ec" stroke="#d81b60"/>
      <text x="10" y="15" fill="#ad1457" font-size="9" font-weight="bold">Power: P = lim(1/T)∫|x(t)|² dt</text>
      <text x="10" y="28" fill="#c2185b" font-size="8">Power signal: E infinite, P &gt; 0</text>
    </g>
  </g>
  
  <g class="step" id="step9" data-narration="Four fundamental elementary signals form the basis: unit step, unit impulse, unit ramp, and exponential signals.">
    <rect x="50" y="830" width="700" height="75" rx="8" fill="white" filter="url(#shadow)"/>
    <rect x="50" y="830" width="5" height="75" rx="3" fill="url(#blueGrad)"/>
    <text x="70" y="850" fill="#1976d2" font-size="13" font-weight="bold" class="title-text">Elementary Signals - Building Blocks</text>
    <g transform="translate(70, 870)">
      <rect x="0" y="0" width="150" height="25" rx="5" fill="#e3f2fd" stroke="#1976d2"/>
      <text x="75" y="16" text-anchor="middle" fill="#1565c0" font-size="9" font-weight="bold">Unit Step u(t)</text>
      <rect x="160" y="0" width="150" height="25" rx="5" fill="#ffebee" stroke="#f44336"/>
      <text x="235" y="16" text-anchor="middle" fill="#c62828" font-size="9" font-weight="bold">Unit Impulse δ(t)</text>
      <rect x="320" y="0" width="150" height="25" rx="5" fill="#e8f5e9" stroke="#388e3c"/>
      <text x="395" y="16" text-anchor="middle" fill="#2e7d32" font-size="9" font-weight="bold">Unit Ramp r(t)</text>
      <rect x="480" y="0" width="150" height="25" rx="5" fill="#fff3e0" stroke="#ff9800"/>
      <text x="555" y="16" text-anchor="middle" fill="#e65100" font-size="9" font-weight="bold">Exponential</text>
    </g>
  </g>
  
  <g class="step" id="step10" data-narration="The unit step function u(t) equals 1 for t greater than or equal to 0 and 0 for t less than 0. It represents switching on of signals.">
    <rect x="50" y="915" width="700" height="75" rx="8" fill="white" filter="url(#shadow)"/>
    <rect x="50" y="915" width="5" height="75" rx="3" fill="url(#blueGrad)"/>
    <text x="70" y="935" fill="#1976d2" font-size="13" font-weight="bold" class="title-text">Unit Step Function u(t)</text>
    <g transform="translate(70, 955)">
      <text x="0" fill="#424242" font-size="10" class="formula">u(t) = </text>
      <text x="40" fill="#1976d2" font-size="14" font-weight="bold">{</text>
      <text x="50" y="8" fill="#424242" font-size="10">0, t &lt; 0</text>
      <text x="50" y="22" fill="#424242" font-size="10">1, t ≥ 0</text>
    </g>
    <g transform="translate(350, 955)">
      <line x1="0" y1="20" x2="100" y2="20" stroke="#424242" stroke-width="1"/>
      <line x1="50" y1="0" x2="50" y2="30" stroke="#424242" stroke-width="1"/>
      <line x1="0" y1="20" x2="45" y2="20" stroke="#1976d2" stroke-width="2"/>
      <line x1="55" y1="5" x2="100" y2="5" stroke="#1976d2" stroke-width="2"/>
      <circle cx="50" cy="20" r="3" fill="white" stroke="#1976d2" stroke-width="2"/>
      <circle cx="50" cy="5" r="3" fill="#1976d2"/>
    </g>
    <g transform="translate(480, 955)">
      <rect x="0" y="0" width="160" height="25" rx="5" fill="#e3f2fd" stroke="#42a5f5"/>
      <text x="80" y="16" text-anchor="middle" fill="#1565c0" font-size="8" font-weight="bold">d/dt[u(t)] = δ(t)</text>
    </g>
  </g>
  
  <g class="step" id="step11" data-narration="The Dirac delta δ(t) is zero everywhere except at t equals 0 where it's infinitely high with area equal to 1.">
    <rect x="50" y="1000" width="700" height="75" rx="8" fill="white" filter="url(#shadow)"/>
    <rect x="50" y="1000" width="5" height="75" rx="3" fill="url(#redGrad)"/>
    <text x="70" y="1020" fill="#d32f2f" font-size="13" font-weight="bold" class="title-text">Unit Impulse δ(t) - Dirac Delta</text>
    <g transform="translate(70, 1040)">
      <text x="0" fill="#424242" font-size="10" class="formula">δ(t) = </text>
      <text x="40" fill="#d32f2f" font-size="14" font-weight="bold">{</text>
      <text x="50" y="8" fill="#424242" font-size="10">∞, t = 0</text>
      <text x="50" y="22" fill="#424242" font-size="10">0, t ≠ 0</text>
    </g>
    <g transform="translate(300, 1040)">
      <line x1="0" y1="25" x2="80" y2="25" stroke="#424242" stroke-width="1"/>
      <line x1="40" y1="0" x2="40" y2="30" stroke="#424242" stroke-width="1"/>
      <line x1="40" y1="25" x2="40" y2="5" stroke="#d32f2f" stroke-width="3" class="grow-rect"/>
      <polygon points="40,5 35,25 45,25" fill="#d32f2f"/>
    </g>
    <g transform="translate(400, 1040)">
      <rect x="0" y="0" width="250" height="25" rx="5" fill="#ffebee" stroke="#ef5350"/>
      <text x="125" y="16" text-anchor="middle" fill="#c62828" font-size="8" font-weight="bold">Sifting: ∫x(t)δ(t-t₀)dt = x(t₀)</text>
    </g>
  </g>
  
  <g class="step" id="step12" data-narration="The unit ramp r(t) equals t for t greater than or equal to 0 and 0 for t less than 0. It's the integral of the unit step.">
    <rect x="50" y="1085" width="700" height="75" rx="8" fill="white" filter="url(#shadow)"/>
    <rect x="50" y="1085" width="5" height="75" rx="3" fill="url(#greenGrad)"/>
    <text x="70" y="1105" fill="#388e3c" font-size="13" font-weight="bold" class="title-text">Unit Ramp Function r(t)</text>
    <g transform="translate(70, 1125)">
      <text x="0" fill="#424242" font-size="10" class="formula">r(t) = </text>
      <text x="40" fill="#388e3c" font-size="14" font-weight="bold">{</text>
      <text x="50" y="8" fill="#424242" font-size="10">0, t &lt; 0</text>
      <text x="50" y="22" fill="#424242" font-size="10">t, t ≥ 0</text>
    </g>
    <g transform="translate(320, 1120)">
      <line x1="0" y1="30" x2="120" y2="30" stroke="#424242" stroke-width="1"/>
      <line x1="50" y1="0" x2="50" y2="40" stroke="#424242" stroke-width="1"/>
      <line x1="0" y1="30" x2="50" y2="30" stroke="#388e3c" stroke-width="2"/>
      <line x1="50" y1="30" x2="120" y2="5" stroke="#388e3c" stroke-width="2" class="drawn-line"/>
    </g>
    <g transform="translate(480, 1125)">
      <rect x="0" y="0" width="180" height="25" rx="5" fill="#e8f5e9" stroke="#66bb6a"/>
      <text x="90" y="16" text-anchor="middle" fill="#2e7d32" font-size="8" font-weight="bold">r(t) = ∫u(t)dt = t·u(t)</text>
    </g>
  </g>
  
  <g class="step" id="step13" data-narration="Exponential signals have the form x(t) equals C times e to the power at. For real a, the signal grows or decays exponentially.">
    <rect x="50" y="1170" width="700" height="75" rx="8" fill="white" filter="url(#shadow)"/>
    <rect x="50" y="1170" width="5" height="75" rx="3" fill="url(#orangeGrad)"/>
    <text x="70" y="1190" fill="#f57c00" font-size="13" font-weight="bold" class="title-text">Exponential Signals</text>
    <g transform="translate(70, 1210)">
      <text x="50" y="0" text-anchor="middle" fill="#e65100" font-size="8" font-weight="bold">Growing: a &gt; 0</text>
      <text x="50" y="10" text-anchor="middle" fill="#f57c00" font-size="8" class="formula">x(t) = e^(at)</text>
      <line x1="0" y1="20" x2="100" y2="20" stroke="#424242" stroke-width="1"/>
      <path d="M0,20 Q30,18 60,10 Q90,2 100,2" stroke="#ff9800" stroke-width="2" fill="none" class="drawn-line"/>
    </g>
    <g transform="translate(220, 1210)">
      <text x="50" y="0" text-anchor="middle" fill="#2e7d32" font-size="8" font-weight="bold">Decaying: a &lt; 0</text>
      <text x="50" y="10" text-anchor="middle" fill="#388e3c" font-size="8" class="formula">x(t) = e^(-at)</text>
      <line x1="0" y1="20" x2="100" y2="20" stroke="#424242" stroke-width="1"/>
      <path d="M0,20 Q30,20 60,15 Q90,8 100,5" stroke="#66bb6a" stroke-width="2" fill="none" class="drawn-line"/>
    </g>
    <g transform="translate(380, 1210)">
      <text x="70" y="0" text-anchor="middle" fill="#7b1fa2" font-size="8" font-weight="bold">Complex Exponential</text>
      <text x="70" y="10" text-anchor="middle" fill="#9c27b0" font-size="7" class="formula">e^(jωt)=cos+jsin</text>
      <line x1="0" y1="20" x2="140" y2="20" stroke="#424242" stroke-width="1"/>
      <path d="M0,20 Q35,5 70,20 Q105,35 140,20" stroke="#ba68c8" stroke-width="2" fill="none" class="drawn-line"/>
    </g>
  </g>
  
  <g class="step" id="step14" data-narration="Time shifting moves signals horizontally. Time scaling compresses or expands. Time reversal flips the signal about the y-axis.">
    <rect x="50" y="1255" width="700" height="75" rx="8" fill="white" filter="url(#shadow)"/>
    <rect x="50" y="1255" width="5" height="75" rx="3" fill="url(#blueGrad)"/>
    <text x="70" y="1275" fill="#1976d2" font-size="13" font-weight="bold" class="title-text">Time Domain Operations</text>
    <g transform="translate(70, 1295)">
      <text x="35" y="0" text-anchor="middle" fill="#424242" font-size="8">Shift x(t-t₀)</text>
      <text x="35" y="10" text-anchor="middle" fill="#757575" font-size="7">t₀&gt;0: right</text>
      <line x1="0" y1="18" x2="70" y2="18" stroke="#424242" stroke-width="1"/>
      <path d="M5,18 L25,18 L30,8 L35,28 L40,18 L60,18" stroke="#1976d2" stroke-width="1.5" fill="none" transform="translate(15,0)"/>
    </g>
    <g transform="translate(180, 1295)">
      <text x="40" y="0" text-anchor="middle" fill="#388e3c" font-size="8">Scale x(at)</text>
      <text x="40" y="10" text-anchor="middle" fill="#757575" font-size="7">|a|&gt;1: compress</text>
      <line x1="0" y1="18" x2="80" y2="18" stroke="#424242" stroke-width="1"/>
      <path d="M5,18 L25,18 L35,8 L45,28 L55,18 L70,18" stroke="#66bb6a" stroke-width="1.5" fill="none"/>
    </g>
    <g transform="translate(290, 1295)">
      <text x="40" y="0" text-anchor="middle" fill="#f57c00" font-size="8">Reverse x(-t)</text>
      <text x="40" y="10" text-anchor="middle" fill="#757575" font-size="7">Flip y-axis</text>
      <line x1="0" y1="18" x2="80" y2="18" stroke="#424242" stroke-width="1"/>
      <path d="M70,18 L50,18 L45,8 L40,28 L35,18 L15,18" stroke="#ff9800" stroke-width="1.5" fill="none"/>
    </g>
    <g transform="translate(400, 1295)">
      <text x="35" y="0" text-anchor="middle" fill="#7b1fa2" font-size="8">Amplitude a·x(t)</text>
      <text x="35" y="10" text-anchor="middle" fill="#757575" font-size="7">Scale height</text>
      <line x1="0" y1="18" x2="70" y2="18" stroke="#424242" stroke-width="1"/>
      <path d="M5,18 L25,18 L30,5 L35,31 L40,18 L60,18" stroke="#ba68c8" stroke-width="1.5" fill="none"/>
    </g>
    <g transform="translate(510, 1295)">
      <rect x="0" y="0" width="160" height="25" rx="5" fill="#f3e5f5" stroke="#9c27b0"/>
      <text x="80" y="15" text-anchor="middle" fill="#6a1b9a" font-size="8" font-weight="bold">Order matters!</text>
    </g>
  </g>
  
  <g class="step" id="step15" data-narration="Key system properties include causality, linearity, time-invariance, and memory. These determine how systems process input signals.">
    <rect x="50" y="1340" width="700" height="85" rx="8" fill="white" filter="url(#shadow)"/>
    <rect x="50" y="1340" width="5" height="85" rx="3" fill="url(#purpleGrad)"/>
    <text x="70" y="1360" fill="#7b1fa2" font-size="13" font-weight="bold" class="title-text">System Properties Summary</text>
    <g transform="translate(70, 1380)">
      <rect x="0" y="0" width="150" height="35" rx="5" fill="#e3f2fd" stroke="#1976d2"/>
      <text x="75" y="14" text-anchor="middle" fill="#1565c0" font-size="8" font-weight="bold">Causality</text>
      <text x="75" y="26" text-anchor="middle" fill="#0d47a1" font-size="7">Output depends on past/present</text>
      <rect x="160" y="0" width="150" height="35" rx="5" fill="#e8f5e9" stroke="#388e3c"/>
      <text x="235" y="14" text-anchor="middle" fill="#2e7d32" font-size="8" font-weight="bold">Linearity</text>
      <text x="235" y="26" text-anchor="middle" fill="#1b5e20" font-size="7">Superposition: ax1+bx2 → ay1+by2</text>
      <rect x="320" y="0" width="150" height="35" rx="5" fill="#fff3e0" stroke="#ff9800"/>
      <text x="395" y="14" text-anchor="middle" fill="#e65100" font-size="8" font-weight="bold">Time-Invariance</text>
      <text x="395" y="26" text-anchor="middle" fill="#bf360c" font-size="7">Shift input → shift output</text>
      <rect x="480" y="0" width="150" height="35" rx="5" fill="#ffebee" stroke="#f44336"/>
      <text x="555" y="14" text-anchor="middle" fill="#c62828" font-size="8" font-weight="bold">Memory</text>
      <text x="555" y="26" text-anchor="middle" fill="#b71c1c" font-size="7">Output depends on future or past</text>
    </g>
  </g>
  
  <g class="step" id="step16" data-narration="This completes the signal concepts module. You now understand fundamental signal types, operations, and properties essential for DSP.">
    <rect x="50" y="1435" width="700" height="60" rx="8" fill="url(#greenGrad)" filter="url(#shadow)"/>
    <text x="400" y="1460" text-anchor="middle" fill="white" font-size="14" font-weight="bold" class="title-text">Module Complete! - Signal Concepts Covered</text>
    <text x="400" y="1478" text-anchor="middle" fill="#e8f5e9" font-size="10" class="body-text">Key topics: Signal types, periodicity, symmetry, energy/power, elementary signals, time operations, system properties</text>
  </g>
</svg>