<svg viewBox="0 0 800 2000" xmlns="http://www.w3.org/2000/svg">
<defs>
  <!-- Gradients -->
  <linearGradient id="blueGrad" x1="0%" y1="0%" x2="100%" y2="100%">
    <stop offset="0%" stop-color="#e3f2fd"/>
    <stop offset="100%" stop-color="#bbdefb"/>
  </linearGradient>
  <linearGradient id="greenGrad" x1="0%" y1="0%" x2="100%" y2="100%">
    <stop offset="0%" stop-color="#e8f5e9"/>
    <stop offset="100%" stop-color="#c8e6c9"/>
  </linearGradient>
  <linearGradient id="orangeGrad" x1="0%" y1="0%" x2="100%" y2="100%">
    <stop offset="0%" stop-color="#fff3e0"/>
    <stop offset="100%" stop-color="#ffe0b2"/>
  </linearGradient>
  <linearGradient id="purpleGrad" x1="0%" y1="0%" x2="100%" y2="100%">
    <stop offset="0%" stop-color="#f3e5f5"/>
    <stop offset="100%" stop-color="#e1bee7"/>
  </linearGradient>
  <linearGradient id="redGrad" x1="0%" y1="0%" x2="100%" y2="100%">
    <stop offset="0%" stop-color="#ffebee"/>
    <stop offset="100%" stop-color="#ffcdd2"/>
  </linearGradient>
  <linearGradient id="titleGrad" x1="0%" y1="0%" x2="100%" y2="0%">
    <stop offset="0%" stop-color="#1976d2"/>
    <stop offset="100%" stop-color="#1565c0"/>
  </linearGradient>
  
  <!-- Drop shadow filter -->
  <filter id="shadow" x="-20%" y="-20%" width="140%" height="140%">
    <feDropShadow dx="2" dy="2" stdDeviation="3" flood-opacity="0.2"/>
  </filter>
  
  <!-- Arrow marker -->
  <marker id="arrowBlue" markerWidth="10" markerHeight="10" refX="9" refY="3" orient="auto">
    <path d="M0,0 L0,6 L9,3 z" fill="#1976d2"/>
  </marker>
  <marker id="arrowGreen" markerWidth="10" markerHeight="10" refX="9" refY="3" orient="auto">
    <path d="M0,0 L0,6 L9,3 z" fill="#388e3c"/>
  </marker>
  
  <!-- Styles -->
  <style>
    @keyframes fadeInSlide {
      from { opacity: 0; transform: translateY(20px); }
      to { opacity: 1; transform: translateY(0); }
    }
    @keyframes scaleIn {
      from { opacity: 0; transform: scale(0.85); }
      to { opacity: 1; transform: scale(1); }
    }
    @keyframes textReveal {
      from { opacity: 0; transform: translateX(-10px); }
      to { opacity: 1; transform: translateX(0); }
    }
    @keyframes pulse {
      0%, 100% { transform: scale(1); }
      50% { transform: scale(1.03); }
    }
    @keyframes drawLine {
      from { stroke-dashoffset: 300; }
      to { stroke-dashoffset: 0; }
    }
    @keyframes fillIn {
      from { opacity: 0; }
      to { opacity: 1; }
    }
    .step { animation: fadeInSlide 0.6s ease-out; }
    .step rect {
      animation: scaleIn 0.5s cubic-bezier(0.34, 1.56, 0.64, 1);
      transform-origin: center;
    }
    .step text { animation: textReveal 0.4s ease-out 0.2s backwards; }
    .title-text { font-family: 'Segoe UI', sans-serif; font-weight: bold; }
    .body-text { font-family: 'Segoe UI', sans-serif; }
    .code-text { font-family: 'Courier New', monospace; }
    .formula { font-family: 'Georgia', serif; font-style: italic; }
  </style>
</defs>

<!-- Background -->
<rect width="800" height="2000" fill="#f8f9fa"/>

<!-- ==================== SECTION 1: INTRODUCTION ==================== -->

<!-- Step 0: Title -->
<g class="step" id="step0" data-narration="Binary tree representation covers linked and array methods for storing tree data structures">
  <rect x="50" y="20" width="700" height="50" rx="10" fill="url(#titleGrad)" filter="url(#shadow)"/>
  <text x="400" y="53" text-anchor="middle" fill="white" font-size="22" class="title-text">Representation of Binary Trees</text>
  <animate attributeName="opacity" from="0" to="1" dur="0.8s"/>
</g>

<!-- Step 1: What is Binary Tree -->
<g class="step" id="step1" data-narration="A binary tree is hierarchical with at most two children per node: left and right">
  <rect x="50" y="90" width="350" height="85" rx="8" fill="url(#blueGrad)" filter="url(#shadow)"/>
  <text x="225" y="115" text-anchor="middle" fill="#1565c0" font-size="14" class="title-text">Binary Tree Definition</text>
  <text x="225" y="135" text-anchor="middle" fill="#424242" font-size="10" class="body-text">Hierarchical data structure where each</text>
  <text x="225" y="150" text-anchor="middle" fill="#424242" font-size="10" class="body-text">node has at most 2 children: left &amp; right</text>
  <text x="225" y="165" text-anchor="middle" fill="#1976d2" font-size="9" class="body-text">Used in: BSTs, Heaps, Expression Trees</text>
  
  <rect x="420" y="90" width="350" height="85" rx="8" fill="url(#greenGrad)" filter="url(#shadow)"/>
  <text x="595" y="115" text-anchor="middle" fill="#2e7d32" font-size="14" class="title-text">Two Representations</text>
  <text x="595" y="135" text-anchor="middle" fill="#424242" font-size="10" class="body-text">1. Linked (Pointer-based)</text>
  <text x="595" y="152" text-anchor="middle" fill="#424242" font-size="10" class="body-text">2. Sequential (Array-based)</text>
  <text x="595" y="169" text-anchor="middle" fill="#388e3c" font-size="9" class="body-text">Choice affects memory &amp; access speed</text>
</g>

<!-- Step 2: Why Representation Matters -->
<g class="step" id="step2" data-narration="Choosing the right representation impacts memory, speed, and implementation complexity">
  <rect x="50" y="195" width="720" height="80" rx="8" fill="url(#orangeGrad)" filter="url(#shadow)"/>
  <text x="80" y="220" fill="#e65100" font-size="12" class="title-text">Why Does Representation Matter?</text>
  
  <g>
    <circle cx="90" cy="245" r="6" fill="#ff9800"/>
    <text x="105" y="249" fill="#424242" font-size="10" class="body-text">Memory Efficiency</text>
    <animate attributeName="opacity" from="0" to="1" dur="0.3s" begin="0.2s"/>
  </g>
  <g>
    <circle cx="280" cy="245" r="6" fill="#ff9800"/>
    <text x="295" y="249" fill="#424242" font-size="10" class="body-text">Access Speed</text>
    <animate attributeName="opacity" from="0" to="1" dur="0.3s" begin="0.4s"/>
  </g>
  <g>
    <circle cx="450" cy="245" r="6" fill="#ff9800"/>
    <text x="465" y="249" fill="#424242" font-size="10" class="body-text">Implementation Complexity</text>
    <animate attributeName="opacity" from="0" to="1" dur="0.3s" begin="0.6s"/>
  </g>
  <g>
    <circle cx="640" cy="245" r="6" fill="#ff9800"/>
    <text x="655" y="249" fill="#424242" font-size="10" class="body-text">Operation Efficiency</text>
    <animate attributeName="opacity" from="0" to="1" dur="0.3s" begin="0.8s"/>
  </g>
</g>

<!-- ==================== SECTION 2: LINKED REPRESENTATION ==================== -->

<!-- Step 3: Node Structure -->
<g class="step" id="step3" data-narration="Linked representation uses structs with data and left right pointer fields">
  <rect x="50" y="295" width="720" height="100" rx="8" fill="url(#blueGrad)" filter="url(#shadow)"/>
  <text x="70" y="320" fill="#1565c0" font-size="14" class="title-text">Linked Representation - Node Structure</text>
  
  <rect x="90" y="335" width="60" height="40" rx="4" fill="white" stroke="#1976d2" stroke-width="2"/>
  <text x="120" y="360" text-anchor="middle" fill="#1976d2" font-size="11" class="body-text">data</text>
  
  <rect x="170" y="335" width="60" height="40" rx="4" fill="white" stroke="#388e3c" stroke-width="2"/>
  <text x="200" y="352" text-anchor="middle" fill="#388e3c" font-size="9" class="body-text">left</text>
  <text x="200" y="365" text-anchor="middle" fill="#9e9e9e" font-size="8" class="body-text">pointer</text>
  
  <rect x="250" y="335" width="60" height="40" rx="4" fill="white" stroke="#f44336" stroke-width="2"/>
  <text x="280" y="352" text-anchor="middle" fill="#f44336" font-size="9" class="body-text">right</text>
  <text x="280" y="365" text-anchor="middle" fill="#9e9e9e" font-size="8" class="body-text">pointer</text>
  
  <text x="380" y="340" fill="#424242" font-size="10" class="code-text">struct TreeNode {</text>
  <text x="400" y="355" fill="#424242" font-size="10" class="code-text">int data;</text>
  <text x="400" y="370" fill="#424242" font-size="10" class="code-text">struct TreeNode* left;</text>
  <text x="400" y="385" fill="#424242" font-size="10" class="code-text">struct TreeNode* right;</text>
  <text x="380" y="400" fill="#424242" font-size="10" class="code-text">};</text>
</g>

<!-- Step 4: Example Tree -->
<g class="step" id="step4" data-narration="Example shows nodes A through E with their memory links stored as pointers">
  <rect x="50" y="415" width="350" height="110" rx="8" fill="url(#greenGrad)" filter="url(#shadow)"/>
  <text x="70" y="440" fill="#2e7d32" font-size="14" class="title-text">Example Tree Structure</text>
  
  <circle cx="225" cy="480" r="15" fill="#1976d2"/>
  <text x="225" y="485" text-anchor="middle" fill="white" font-size="11" class="body-text">A</text>
  
  <line x1="210" y1="465" x2="170" y2="445" stroke="#424242" stroke-width="1.5"/>
  <line x1="240" y1="465" x2="280" y2="445" stroke="#424242" stroke-width="1.5"/>
  
  <circle cx="155" cy="440" r="15" fill="#388e3c"/>
  <text x="155" y="445" text-anchor="middle" fill="white" font-size="11" class="body-text">B</text>
  
  <circle cx="295" cy="440" r="15" fill="#388e3c"/>
  <text x="295" y="445" text-anchor="middle" fill="white" font-size="11" class="body-text">C</text>
  
  <line x1="145" y1="425" x2="120" y2="405" stroke="#424242" stroke-width="1.5"/>
  <line x1="165" y1="425" x2="190" y2="405" stroke="#424242" stroke-width="1.5"/>
  
  <circle cx="105" cy="400" r="15" fill="#ff9800"/>
  <text x="105" y="405" text-anchor="middle" fill="white" font-size="11" class="body-text">D</text>
  
  <circle cx="205" cy="400" r="15" fill="#ff9800"/>
  <text x="205" y="405" text-anchor="middle" fill="white" font-size="11" class="body-text">E</text>
  
  <rect x="420" y="415" width="350" height="110" rx="8" fill="url(#purpleGrad)" filter="url(#shadow)"/>
  <text x="440" y="440" fill="#7b1fa2" font-size="12" class="title-text">Memory Links</text>
  <text x="440" y="460" fill="#424242" font-size="9" class="body-text">A → left=B, right=C</text>
  <text x="440" y="477" fill="#424242" font-size="9" class="body-text">B → left=D, right=E</text>
  <text x="440" y="494" fill="#424242" font-size="9" class="body-text">C → left=NULL, right=NULL</text>
  <text x="440" y="511" fill="#424242" font-size="9" class="body-text">D, E → NULL pointers</text>
</g>

<!-- Step 5: Advantages/Disadvantages -->
<g class="step" id="step5" data-narration="Linked representation offers dynamic sizing but uses extra memory for pointers">
  <rect x="50" y="545" width="340" height="90" rx="8" fill="url(#greenGrad)" filter="url(#shadow)"/>
  <text x="70" y="570" fill="#2e7d32" font-size="13" class="title-text">✓ Advantages</text>
  <text x="70" y="590" fill="#424242" font-size="10" class="body-text">• Dynamic size adjustment</text>
  <text x="70" y="607" fill="#424242" font-size="10" class="body-text">• Natural hierarchical representation</text>
  <text x="70" y="624" fill="#424242" font-size="10" class="body-text">• Efficient for non-complete trees</text>
  
  <rect x="410" y="545" width="340" height="90" rx="8" fill="url(#redGrad)" filter="url(#shadow)"/>
  <text x="430" y="570" fill="#c62828" font-size="13" class="title-text">✗ Disadvantages</text>
  <text x="430" y="590" fill="#424242" font-size="10" class="body-text">• Extra memory for pointers</text>
  <text x="430" y="607" fill="#424242" font-size="10" class="body-text">• No random access to parent</text>
  <text x="430" y="624" fill="#424242" font-size="10" class="body-text">• Complex memory management</text>
</g>

<!-- ==================== SECTION 3: ARRAY REPRESENTATION ==================== -->

<!-- Step 6: Complete vs Incomplete -->
<g class="step" id="step6" data-narration="Array representation works best for complete trees using direct index formulas">
  <rect x="50" y="655" width="720" height="85" rx="8" fill="url(#orangeGrad)" filter="url(#shadow)"/>
  <text x="70" y="680" fill="#e65100" font-size="14" class="title-text">Array Representation - Two Approaches</text>
  
  <rect x="70" y="695" width="330" height="35" rx="5" fill="#fff8e1" stroke="#ffb300"/>
  <text x="235" y="715" text-anchor="middle" fill="#e65100" font-size="11" class="body-text">Complete Binary Trees → Direct Array Indexing</text>
  
  <rect x="420" y="695" width="330" height="35" rx="5" fill="#fff8e1" stroke="#ffb300"/>
  <text x="585" y="715" text-anchor="middle" fill="#e65100" font-size="11" class="body-text">Incomplete Trees → Modified Array with Placeholders</text>
</g>

<!-- Step 7: Index Formulas -->
<g class="step" id="step7" data-narration="Key formulas: parent at floor of i-1/2, left child at 2i+1, right child at 2i+2">
  <rect x="50" y="760" width="720" height="100" rx="8" fill="url(#blueGrad)" filter="url(#shadow)"/>
  <text x="70" y="785" fill="#1565c0" font-size="14" class="title-text">Key Index Formulas (Memorize!)</text>
  
  <g>
    <rect x="80" y="800" width="200" height="45" rx="6" fill="white" stroke="#1976d2"/>
    <text x="180" y="820" text-anchor="middle" fill="#424242" font-size="10" class="body-text">Parent of node i</text>
    <text x="180" y="838" text-anchor="middle" fill="#1976d2" font-size="14" class="formula">⌊(i-1)/2⌋</text>
    <animate attributeName="opacity" from="0" to="1" dur="0.5s" begin="0.2s"/>
  </g>
  
  <g>
    <rect x="300" y="800" width="200" height="45" rx="6" fill="white" stroke="#388e3c"/>
    <text x="400" y="820" text-anchor="middle" fill="#424242" font-size="10" class="body-text">Left child of i</text>
    <text x="400" y="838" text-anchor="middle" fill="#388e3c" font-size="14" class="formula">2i + 1</text>
    <animate attributeName="opacity" from="0" to="1" dur="0.5s" begin="0.4s"/>
  </g>
  
  <g>
    <rect x="520" y="800" width="200" height="45" rx="6" fill="white" stroke="#f44336"/>
    <text x="620" y="820" text-anchor="middle" fill="#424242" font-size="10" class="body-text">Right child of i</text>
    <text x="620" y="838" text-anchor="middle" fill="#f44336" font-size="14" class="formula">2i + 2</text>
    <animate attributeName="opacity" from="0" to="1" dur="0.5s" begin="0.6s"/>
  </g>
</g>

<!-- Step 8: Complete Tree Example -->
<g class="step" id="step8" data-narration="Complete binary tree with indices shown maps directly to array positions">
  <rect x="50" y="880" width="350" height="140" rx="8" fill="url(#greenGrad)" filter="url(#shadow)"/>
  <text x="70" y="905" fill="#2e7d32" font-size="13" class="title-text">Complete Binary Tree</text>
  
  <circle cx="175" cy="970" r="15" fill="#1976d2"/>
  <text x="175" y="975" text-anchor="middle" fill="white" font-size="11" class="body-text">15</text>
  <text x="175" y="988" text-anchor="middle" fill="#9e9e9e" font-size="8">(0)</text>
  
  <line x1="160" y1="955" x2="120" y2="930" stroke="#424242" stroke-width="1.5"/>
  <line x1="190" y1="955" x2="230" y2="930" stroke="#424242" stroke-width="1.5"/>
  
  <circle cx="105" cy="925" r="15" fill="#388e3c"/>
  <text x="105" y="930" text-anchor="middle" fill="white" font-size="11" class="body-text">10</text>
  <text x="105" y="943" text-anchor="middle" fill="#9e9e9e" font-size="8">(1)</text>
  
  <circle cx="245" cy="925" r="15" fill="#388e3c"/>
  <text x="245" y="930" text-anchor="middle" fill="white" font-size="11" class="body-text">20</text>
  <text x="245" y="943" text-anchor="middle" fill="#9e9e9e" font-size="8">(2)</text>
  
  <line x1="95" y1="910" x2="70" y2="890" stroke="#424242" stroke-width="1"/>
  <line x1="115" y1="910" x2="140" y2="890" stroke="#424242" stroke-width="1"/>
  
  <circle cx="60" cy="885" r="12" fill="#ff9800"/>
  <text x="60" y="889" text-anchor="middle" fill="white" font-size="9" class="body-text">5</text>
  <text x="60" y="900" text-anchor="middle" fill="#9e9e9e" font-size="7">(3)</text>
  
  <circle cx="130" cy="885" r="12" fill="#ff9800"/>
  <text x="130" y="889" text-anchor="middle" fill="white" font-size="9" class="body-text">12</text>
  <text x="130" y="900" text-anchor="middle" fill="#9e9e9e" font-size="7">(4)</text>
  
  <circle cx="230" cy="885" r="12" fill="#ff9800"/>
  <text x="230" y="889" text-anchor="middle" fill="white" font-size="9" class="body-text">18</text>
  <text x="230" y="900" text-anchor="middle" fill="#9e9e9e" font-size="7">(5)</text>
  
  <rect x="420" y="880" width="350" height="140" rx="8" fill="url(#purpleGrad)" filter="url(#shadow)"/>
  <text x="440" y="905" fill="#7b1fa2" font-size="13" class="title-text">Array Representation</text>
  
  <rect x="440" y="920" width="50" height="25" fill="white" stroke="#9c27b0"/>
  <rect x="490" y="920" width="50" height="25" fill="white" stroke="#9c27b0"/>
  <rect x="540" y="920" width="50" height="25" fill="white" stroke="#9c27b0"/>
  <rect x="590" y="920" width="50" height="25" fill="white" stroke="#9c27b0"/>
  <rect x="640" y="920" width="50" height="25" fill="white" stroke="#9c27b0"/>
  <rect x="690" y="920" width="50" height="25" fill="white" stroke="#9c27b0"/>
  
  <text x="465" y="937" text-anchor="middle" fill="#7b1fa2" font-size="10" class="body-text">0</text>
  <text x="515" y="937" text-anchor="middle" fill="#7b1fa2" font-size="10" class="body-text">1</text>
  <text x="565" y="937" text-anchor="middle" fill="#7b1fa2" font-size="10" class="body-text">2</text>
  <text x="615" y="937" text-anchor="middle" fill="#7b1fa2" font-size="10" class="body-text">3</text>
  <text x="665" y="937" text-anchor="middle" fill="#7b1fa2" font-size="10" class="body-text">4</text>
  <text x="715" y="937" text-anchor="middle" fill="#7b1fa2" font-size="10" class="body-text">5</text>
  
  <rect x="440" y="945" width="50" height="35" fill="#e1bee7" stroke="#9c27b0"/>
  <rect x="490" y="945" width="50" height="35" fill="#e1bee7" stroke="#9c27b0"/>
  <rect x="540" y="945" width="50" height="35" fill="#e1bee7" stroke="#9c27b0"/>
  <rect x="590" y="945" width="50" height="35" fill="#e1bee7" stroke="#9c27b0"/>
  <rect x="640" y="945" width="50" height="35" fill="#e1bee7" stroke="#9c27b0"/>
  <rect x="690" y="945" width="50" height="35" fill="#e1bee7" stroke="#9c27b0"/>
  
  <text x="465" y="967" text-anchor="middle" fill="#424242" font-size="11" class="body-text">15</text>
  <text x="515" y="967" text-anchor="middle" fill="#424242" font-size="11" class="body-text">10</text>
  <text x="565" y="967" text-anchor="middle" fill="#424242" font-size="11" class="body-text">20</text>
  <text x="615" y="967" text-anchor="middle" fill="#424242" font-size="11" class="body-text">5</text>
  <text x="665" y="967" text-anchor="middle" fill="#424242" font-size="11" class="body-text">12</text>
  <text x="715" y="967" text-anchor="middle" fill="#424242" font-size="11" class="body-text">18</text>
  
  <text x="440" y="1005" fill="#424242" font-size="9" class="body-text">Level order: 15 → 10 → 20 → 5 → 12 → 18</text>
</g>

<!-- Step 9: Index Calculation Example -->
<g class="step" id="step9" data-narration="Applying formulas: left child of index 1 is 2×1+1=3, right child is 2×1+2=4">
  <rect x="50" y="1040" width="720" height="85" rx="8" fill="url(#blueGrad)" filter="url(#shadow)"/>
  <text x="70" y="1065" fill="#1565c0" font-size="14" class="title-text">Index Calculation Example</text>
  
  <text x="70" y="1090" fill="#424242" font-size="10" class="body-text">From array above (index 1 = value 10):</text>
  
  <g>
    <rect x="70" y="1100" width="200" height="18" rx="4" fill="white" stroke="#388e3c"/>
    <text x="170" y="1114" text-anchor="middle" fill="#388e3c" font-size="9" class="body-text">Left child: 2×1+1 = 3 → 5</text>
  </g>
  <g>
    <rect x="280" y="1100" width="200" height="18" rx="4" fill="white" stroke="#f44336"/>
    <text x="380" y="1114" text-anchor="middle" fill="#f44336" font-size="9" class="body-text">Right child: 2×1+2 = 4 → 12</text>
  </g>
  <g>
    <rect x="490" y="1100" width="200" height="18" rx="4" fill="white" stroke="#9c27b0"/>
    <text x="590" y="1114" text-anchor="middle" fill="#9c27b0" font-size="9" class="body-text">Parent(5): ⌊(3-1)/2⌋ = 1 → 10</text>
  </g>
</g>

<!-- Step 10: Incomplete Tree -->
<g class="step" id="step10" data-narration="Incomplete trees use placeholder values like -1 for missing nodes">
  <rect x="50" y="1145" width="350" height="120" rx="8" fill="url(#orangeGrad)" filter="url(#shadow)"/>
  <text x="70" y="1170" fill="#e65100" font-size="13" class="title-text">Incomplete Tree Example</text>
  
  <circle cx="175" cy="1225" r="18" fill="#1976d2"/>
  <text x="175" y="1230" text-anchor="middle" fill="white" font-size="12" class="body-text">25</text>
  
  <line x1="195" y1="1207" x2="260" y2="1175" stroke="#424242" stroke-width="1.5" stroke-dasharray="4"/>
  
  <circle cx="280" cy="1170" r="18" fill="#388e3c"/>
  <text x="280" y="1175" text-anchor="middle" fill="white" font-size="12" class="body-text">30</text>
  
  <line x1="262" y1="1152" x2="230" y2="1125" stroke="#424242" stroke-width="1.5" stroke-dasharray="4"/>
  
  <circle cx="225" cy="1120" r="18" fill="#ff9800"/>
  <text x="225" y="1125" text-anchor="middle" fill="white" font-size="12" class="body-text">28</text>
  
  <rect x="420" y="1145" width="350" height="120" rx="8" fill="url(#purpleGrad)" filter="url(#shadow)"/>
  <text x="440" y="1170" fill="#7b1fa2" font-size="12" class="title-text">Modified Array (size 7)</text>
  
  <rect x="440" y="1185" width="40" height="20" fill="white" stroke="#9c27b0"/>
  <rect x="480" y="1185" width="40" height="20" fill="white" stroke="#9c27b0"/>
  <rect x="520" y="1185" width="40" height="20" fill="white" stroke="#9c27b0"/>
  <rect x="560" y="1185" width="40" height="20" fill="white" stroke="#9c27b0"/>
  <rect x="600" y="1185" width="40" height="20" fill="white" stroke="#9c27b0"/>
  <rect x="640" y="1185" width="40" height="20" fill="white" stroke="#9c27b0"/>
  <rect x="680" y="1185" width="40" height="20" fill="white" stroke="#9c27b0"/>
  
  <text x="460" y="1200" text-anchor="middle" fill="#9c27b0" font-size="8">0</text>
  <text x="500" y="1200" text-anchor="middle" fill="#9c27b0" font-size="8">1</text>
  <text x="540" y="1200" text-anchor="middle" fill="#9c27b0" font-size="8">2</text>
  <text x="580" y="1200" text-anchor="middle" fill="#9c27b0" font-size="8">3</text>
  <text x="620" y="1200" text-anchor="middle" fill="#9c27b0" font-size="8">4</text>
  <text x="660" y="1200" text-anchor="middle" fill="#9c27b0" font-size="8">5</text>
  <text x="700" y="1200" text-anchor="middle" fill="#9c27b0" font-size="8">6</text>
  
  <rect x="440" y="1205" width="40" height="40" fill="#e1bee7" stroke="#9c27b0"/>
  <rect x="480" y="1205" width="40" height="40" fill="#ffcdd2" stroke="#9c27b0"/>
  <rect x="520" y="1205" width="40" height="40" fill="#e1bee7" stroke="#9c27b0"/>
  <rect x="560" y="1205" width="40" height="40" fill="#ffcdd2" stroke="#9c27b0"/>
  <rect x="600" y="1205" width="40" height="40" fill="#ffcdd2" stroke="#9c27b0"/>
  <rect x="640" y="1205" width="40" height="40" fill="#e1bee7" stroke="#9c27b0"/>
  <rect x="680" y="1205" width="40" height="40" fill="#ffcdd2" stroke="#9c27b0"/>
  
  <text x="460" y="1228" text-anchor="middle" fill="#424242" font-size="10" class="body-text">25</text>
  <text x="500" y="1228" text-anchor="middle" fill="#f44336" font-size="10" class="body-text">-1</text>
  <text x="540" y="1228" text-anchor="middle" fill="#424242" font-size="10" class="body-text">30</text>
  <text x="580" y="1228" text-anchor="middle" fill="#f44336" font-size="10" class="body-text">-1</text>
  <text x="620" y="1228" text-anchor="middle" fill="#f44336" font-size="10" class="body-text">-1</text>
  <text x="660" y="1228" text-anchor="middle" fill="#424242" font-size="10" class="body-text">28</text>
  <text x="700" y="1228" text-anchor="middle" fill="#f44336" font-size="10" class="body-text">-1</text>
</g>

<!-- Step 11: Space Complexity -->
<g class="step" id="step11" data-narration="Linked uses O(n) plus pointer overhead; array uses O(2^h) space">
  <rect x="50" y="1285" width="720" height="75" rx="8" fill="url(#redGrad)" filter="url(#shadow)"/>
  <text x="70" y="1310" fill="#c62828" font-size="14" class="title-text">Space Complexity Comparison</text>
  
  <rect x="70" y="1325" width="320" height="25" rx="4" fill="white" stroke="#1976d2"/>
  <text x="230" y="1343" text-anchor="middle" fill="#424242" font-size="10" class="body-text">Linked: O(n) + pointer overhead (4/8 bytes per pointer)</text>
  
  <rect x="410" y="1325" width="320" height="25" rx="4" fill="white" stroke="#f44336"/>
  <text x="570" y="1343" text-anchor="middle" fill="#424242" font-size="10" class="body-text">Array: O(2^h) where h = height (wasteful for incomplete)</text>
</g>

<!-- ==================== SECTION 4: EXAMPLES ==================== -->

<!-- Step 12: Example 1 - Linked Construction -->
<g class="step" id="step12" data-narration="Linked construction shows building tree with malloc for each node">
  <rect x="50" y="1380" width="720" height="85" rx="8" fill="url(#greenGrad)" filter="url(#shadow)"/>
  <text x="70" y="1405" fill="#2e7d32" font-size="14" class="title-text">Example 1: Linked Representation Construction</text>
  
  <circle cx="150" cy="1440" r="18" fill="#1976d2"/>
  <text x="150" y="1445" text-anchor="middle" fill="white" font-size="12" class="body-text">10</text>
  
  <line x1="132" y1="1422" x2="100" y2="1395" stroke="#424242" stroke-width="1.5"/>
  <line x1="168" y1="1422" x2="200" y2="1395" stroke="#424242" stroke-width="1.5"/>
  
  <circle cx="85" cy="1390" r="15" fill="#388e3c"/>
  <text x="85" y="1395" text-anchor="middle" fill="white" font-size="11" class="body-text">5</text>
  
  <circle cx="215" cy="1390" r="15" fill="#388e3c"/>
  <text x="215" y="1395" text-anchor="middle" fill="white" font-size="11" class="body-text">20</text>
  
  <line x1="75" y1="1375" x2="55" y2="1355" stroke="#424242" stroke-width="1"/>
  <line x1="95" y1="1375" x2="115" y2="1355" stroke="#424242" stroke-width="1"/>
  
  <circle cx="45" cy="1350" r="12" fill="#ff9800"/>
  <text x="45" y="1354" text-anchor="middle" fill="white" font-size="9" class="body-text">3</text>
  
  <circle cx="125" cy="1350" r="12" fill="#ff9800"/>
  <text x="125" y="1354" text-anchor="middle" fill="white" font-size="9" class="body-text">7</text>
  
  <text x="280" y="1410" fill="#424242" font-size="9" class="code-text">root = malloc node(10)</text>
  <text x="280" y="1425" fill="#424242" font-size="9" class="code-text">root->left = node(5)</text>
  <text x="280" y="1440" fill="#424242" font-size="9" class="code-text">root->right = node(20)</text>
  <text x="280" y="1455" fill="#424242" font-size="9" class="code-text">5->left = node(3), 5->right = node(7)</text>
</g>

<!-- Step 13: Example 2 - Array Complete -->
<g class="step" id="step13" data-narration="Complete tree example showing level order mapping to array indices">
  <rect x="50" y="1485" width="720" height="85" rx="8" fill="url(#purpleGrad)" filter="url(#shadow)"/>
  <text x="70" y="1510" fill="#7b1fa2" font-size="14" class="title-text">Example 2: Array Representation (Complete Tree)</text>
  
  <text x="70" y="1540" fill="#424242" font-size="10" class="body-text">Level order: 15, 10, 20, 5, 12, 18</text>
  <text x="70" y="1558" fill="#424242" font-size="10" class="body-text">Array: [15, 10, 20, 5, 12, 18] → Indices 0,1,2,3,4,5</text>
  
  <rect x="400" y="1525" width="40" height="35" fill="#e1bee7" stroke="#9c27b0"/>
  <rect x="440" y="1525" width="40" height="35" fill="#e1bee7" stroke="#9c27b0"/>
  <rect x="480" y="1525" width="40" height="35" fill="#e1bee7" stroke="#9c27b0"/>
  <rect x="520" y="1525" width="40" height="35" fill="#e1bee7" stroke="#9c27b0"/>
  <rect x="560" y="1525" width="40" height="35" fill="#e1bee7" stroke="#9c27b0"/>
  <rect x="600" y="1525" width="40" height="35" fill="#e1bee7" stroke="#9c27b0"/>
  
  <text x="420" y="1548" text-anchor="middle" fill="#424242" font-size="10">15</text>
  <text x="460" y="1548" text-anchor="middle" fill="#424242" font-size="10">10</text>
  <text x="500" y="1548" text-anchor="middle" fill="#424242" font-size="10">20</text>
  <text x="540" y="1548" text-anchor="middle" fill="#424242" font-size="10">5</text>
  <text x="580" y="1548" text-anchor="middle" fill="#424242" font-size="10">12</text>
  <text x="620" y="1548" text-anchor="middle" fill="#424242" font-size="10">18</text>
</g>

<!-- Step 14: Example 3 - Array Incomplete -->
<g class="step" id="step14" data-narration="Incomplete tree uses placeholder -1 for missing positions in array">
  <rect x="50" y="1590" width="720" height="85" rx="8" fill="url(#orangeGrad)" filter="url(#shadow)"/>
  <text x="70" y="1615" fill="#e65100" font-size="14" class="title-text">Example 3: Array for Incomplete Tree</text>
  
  <text x="70" y="1645" fill="#424242" font-size="10" class="body-text">Tree: 25 → right:30 → left:28</text>
  <text x="70" y="1663" fill="#424242" font-size="10" class="body-text">Height=2 → Max nodes = 2^3-1 = 7 → Array size 7</text>
  
  <rect x="350" y="1605" width="40" height="30" fill="white" stroke="#e65100"/>
  <rect x="390" y="1605" width="40" height="30" fill="#ffcdd2" stroke="#e65100"/>
  <rect x="430" y="1605" width="40" height="30" fill="white" stroke="#e65100"/>
  <rect x="470" y="1605" width="40" height="30" fill="#ffcdd2" stroke="#e65100"/>
  <rect x="510" y="1605" width="40" height="30" fill="#ffcdd2" stroke="#e65100"/>
  <rect x="550" y="1605" width="40" height="30" fill="white" stroke="#e65100"/>
  <rect x="590" y="1605" width="40" height="30" fill="#ffcdd2" stroke="#e65100"/>
  
  <text x="370" y="1625" text-anchor="middle" fill="#424242" font-size="10">25</text>
  <text x="410" y="1625" text-anchor="middle" fill="#f44336" font-size="10">-1</text>
  <text x="450" y="1625" text-anchor="middle" fill="#424242" font-size="10">30</text>
  <text x="490" y="1625" text-anchor="middle" fill="#f44336" font-size="10">-1</text>
  <text x="530" y="1625" text-anchor="middle" fill="#f44336" font-size="10">-1</text>
  <text x="570" y="1625" text-anchor="middle" fill="#424242" font-size="10">28</text>
  <text x="610" y="1625" text-anchor="middle" fill="#f44336" font-size="10">-1</text>
  
  <text x="660" y="1620" fill="#9e9e9e" font-size="8">Indices 0-6</text>
</g>

<!-- ==================== SECTION 5: SUMMARY ==================== -->

<!-- Step 15: When to Use What -->
<g class="step" id="step15" data-narration="Choose linked for dynamic trees, array for heaps and complete trees">
  <rect x="50" y="1695" width="720" height="85" rx="8" fill="url(#blueGrad)" filter="url(#shadow)"/>
  <text x="70" y="1720" fill="#1565c0" font-size="14" class="title-text">When to Use Which Representation?</text>
  
  <rect x="70" y="1735" width="330" height="35" rx="5" fill="white" stroke="#388e3c"/>
  <text x="235" y="1753" text-anchor="middle" fill="#2e7d32" font-size="11" class="body-text">Linked: Dynamic trees, frequent insertions/deletions</text>
  
  <rect x="420" y="1735" width="330" height="35" rx="5" fill="white" stroke="#1976d2"/>
  <text x="585" y="1753" text-anchor="middle" fill="#1565c0" font-size="11" class="body-text">Array: Complete trees, heaps, priority queues</text>
</g>

<!-- Step 16: Key Formulas Summary -->
<g class="step" id="step16" data-narration="Remember parent uses floor of i-1 over 2, left child is 2i+1, right child is 2i+2">
</svg>