<svg viewBox="0 0 800 1400" xmlns="http://www.w3.org/2000/svg">
  <defs>
    <!-- Gradients -->
    <linearGradient id="blueGrad" x1="0%" y1="0%" x2="100%" y2="100%">
      <stop offset="0%" style="stop-color:#e3f2fd;stop-opacity:1" />
      <stop offset="100%" style="stop-color:#bbdefb;stop-opacity:1" />
    </linearGradient>
    <linearGradient id="greenGrad" x1="0%" y1="0%" x2="100%" y2="100%">
      <stop offset="0%" style="stop-color:#e8f5e9;stop-opacity:1" />
      <stop offset="100%" style="stop-color:#c8e6c9;stop-opacity:1" />
    </linearGradient>
    <linearGradient id="orangeGrad" x1="0%" y1="0%" x2="100%" y2="100%">
      <stop offset="0%" style="stop-color:#fff3e0;stop-opacity:1" />
      <stop offset="100%" style="stop-color:#ffe0b2;stop-opacity:1" />
    </linearGradient>
    <linearGradient id="purpleGrad" x1="0%" y1="0%" x2="100%" y2="100%">
      <stop offset="0%" style="stop-color:#f3e5f5;stop-opacity:1" />
      <stop offset="100%" style="stop-color:#e1bee7;stop-opacity:1" />
    </linearGradient>
    <linearGradient id="redGrad" x1="0%" y1="0%" x2="100%" y2="100%">
      <stop offset="0%" style="stop-color:#ffebee;stop-opacity:1" />
      <stop offset="100%" style="stop-color:#ffcdd2;stop-opacity:1" />
    </linearGradient>
    <linearGradient id="titleGrad" x1="0%" y1="0%" x2="100%" y2="0%">
      <stop offset="0%" style="stop-color:#1976d2;stop-opacity:1" />
      <stop offset="100%" style="stop-color:#1565c0;stop-opacity:1" />
    </linearGradient>
    
    <!-- Arrow marker -->
    <marker id="arrowBlue" markerWidth="10" markerHeight="10" refX="9" refY="3" orient="auto" markerUnits="strokeWidth">
      <path d="M0,0 L0,6 L9,3 z" fill="#1976d2" />
    </marker>
    <marker id="arrowOrange" markerWidth="10" markerHeight="10" refX="9" refY="3" orient="auto" markerUnits="strokeWidth">
      <path d="M0,0 L0,6 L9,3 z" fill="#ff9800" />
    </marker>
    <marker id="arrowGreen" markerWidth="10" markerHeight="10" refX="9" refY="3" orient="auto" markerUnits="strokeWidth">
      <path d="M0,0 L0,6 L9,3 z" fill="#388e3c" />
    </marker>
    
    <!-- Shadow filter -->
    <filter id="shadow" x="-20%" y="-20%" width="140%" height="140%">
      <feDropShadow dx="2" dy="2" stdDeviation="3" flood-color="#00000033"/>
    </filter>
  </defs>
  
  <style>
    @keyframes fadeInSlide {
      from { opacity: 0; transform: translateY(20px); }
      to { opacity: 1; transform: translateY(0); }
    }
    @keyframes scaleIn {
      from { opacity: 0; transform: scale(0.85); }
      to { opacity: 1; transform: scale(1); }
    }
    @keyframes textReveal {
      from { opacity: 0; transform: translateX(-10px); }
      to { opacity: 1; transform: translateX(0); }
    }
    @keyframes drawLine {
      from { stroke-dashoffset: 1000; }
      to { stroke-dashoffset: 0; }
    }
    @keyframes pulse {
      0%, 100% { transform: scale(1); }
      50% { transform: scale(1.05); }
    }
    @keyframes blink {
      0%, 100% { opacity: 1; }
      50% { opacity: 0.5; }
    }
    .step { animation: fadeInSlide 0.6s ease-out; }
    .step rect { animation: scaleIn 0.5s cubic-bezier(0.34, 1.56, 0.64, 1); transform-origin: center; }
    .step text { animation: textReveal 0.4s ease-out 0.2s backwards; }
    .dashed-line {
      stroke-dasharray: 1000;
      animation: drawLine 1.5s ease-out forwards;
    }
  </style>
  
  <!-- Background -->
  <rect width="800" height="1400" fill="#f8f9fa"/>

  <!-- STEP 0: Title -->
  <g class="step" id="step0" data-narration="Welcome to System Calls - the essential bridge between user programs and the operating system kernel.">
    <rect x="50" y="10" width="700" height="45" rx="10" fill="url(#titleGrad)" filter="url(#shadow)"/>
    <text x="400" y="42" text-anchor="middle" font-size="22" font-weight="bold" fill="white">SYSTEM CALLS</text>
    <text x="400" y="65" text-anchor="middle" font-size="14" fill="#666">The Interface Between Programs and OS Kernel</text>
  </g>

  <!-- STEP 1: Introduction - What is a System Call -->
  <g class="step" id="step1" data-narration="A system call is a programmatic interface where user programs request services from the operating system kernel.">
    <rect x="30" y="70" width="740" height="85" rx="8" fill="url(#blueGrad)" filter="url(#shadow)"/>
    <text x="50" y="95" font-size="14" font-weight="bold" fill="#1976d2">What is a System Call?</text>
    <text x="50" y="115" font-size="11" fill="#333">A system call is the programmatic interface through which a user-level program</text>
    <text x="50" y="130" font-size="11" fill="#333">requests a service from the OS kernel. It provides a controlled gateway to</text>
    <text x="50" y="145" font-size="11" fill="#333">kernel mode (privileged access) where the OS performs the requested operation.</text>
  </g>

  <!-- STEP 2: Why System Calls Are Needed -->
  <g class="step" id="step2" data-narration="User programs run in restricted user mode and cannot directly access hardware or perform privileged operations safely.">
    <rect x="30" y="165" width="740" height="85" rx="8" fill="url(#orangeGrad)" filter="url(#shadow)"/>
    <text x="50" y="190" font-size="14" font-weight="bold" fill="#e65100">Why System Calls Are Needed</text>
    <rect x="50" y="205" width="200" height="35" rx="5" fill="#ffcdd2"/>
    <text x="150" y="222" text-anchor="middle" font-size="10" fill="#c62828">User Mode (Restricted)</text>
    <rect x="280" y="205" width="200" height="35" rx="5" fill="#c8e6c9"/>
    <text x="380" y="222" text-anchor="middle" font-size="10" fill="#2e7d32">Kernel Mode (Full Access)</text>
    <path d="M255 222 L275 222" stroke="#ff9800" stroke-width="2" marker-end="url(#arrowOrange)"/>
    <text x="500" y="222" font-size="10" fill="#333">System Call: Controlled gateway</text>
  </g>

  <!-- STEP 3: How System Calls Work - Overview -->
  <g class="step" id="step3" data-narration="The system call process involves ten key steps from the user program call to returning the result.">
    <rect x="30" y="260" width="740" height="95" rx="8" fill="url(#greenGrad)" filter="url(#shadow)"/>
    <text x="50" y="285" font-size="14" font-weight="bold" fill="#2e7d32">How System Calls Work: 10-Step Process</text>
    <rect x="50" y="300" width="140" height="45" rx="5" fill="#e8f5e9" stroke="#4caf50" stroke-width="1"/>
    <text x="120" y="318" text-anchor="middle" font-size="9" fill="#2e7d32">User Program</text>
    <text x="120" y="332" text-anchor="middle" font-size="8" fill="#666">read(), write(), fork()</text>
    <path d="M190 322 L210 322" stroke="#388e3c" stroke-width="2" marker-end="url(#arrowGreen)"/>
    <rect x="220" y="300" width="100" height="45" rx="5" fill="#e8f5e9" stroke="#4caf50" stroke-width="1"/>
    <text x="270" y="318" text-anchor="middle" font-size="9" fill="#2e7d32">C Library</text>
    <text x="270" y="332" text-anchor="middle" font-size="8" fill="#666">INT 0x80 / SYSCALL</text>
    <path d="M320 322 L340 322" stroke="#388e3c" stroke-width="2" marker-end="url(#arrowGreen)"/>
    <rect x="350" y="295" width="120" height="55" rx="5" fill="#e3f2fd" stroke="#1976d2" stroke-width="1"/>
    <text x="410" y="315" text-anchor="middle" font-size="9" fill="#1565c0">Mode Switch</text>
    <text x="410" y="330" text-anchor="middle" font-size="8" fill="#666">User → Kernel</text>
    <path d="M470 322 L490 322" stroke="#388e3c" stroke-width="2" marker-end="url(#arrowGreen)"/>
    <rect x="500" y="300" width="140" height="45" rx="5" fill="#fff3e0" stroke="#ff9800" stroke-width="1"/>
    <text x="570" y="318" text-anchor="middle" font-size="9" fill="#e65100">System Call Table</text>
    <text x="570" y="332" text-anchor="middle" font-size="8" fill="#666">Maps # to handler</text>
    <path d="M640 322 L660 322" stroke="#388e3c" stroke-width="2" marker-end="url(#arrowGreen)"/>
    <rect x="670" y="300" width="80" height="45" rx="5" fill="#fce4ec" stroke="#e91e63" stroke-width="1"/>
    <text x="710" y="318" text-anchor="middle" font-size="9" fill="#c2185b">Handler</text>
    <text x="710" y="332" text-anchor="middle" font-size="8" fill="#666">sys_read()</text>
  </g>

  <!-- STEP 4: User Mode to Kernel Mode Transition -->
  <g class="step" id="step4" data-narration="The CPU switches from user mode to kernel mode when a TRAP instruction (software interrupt) is executed.">
    <rect x="30" y="365" width="740" height="95" rx="8" fill="url(#purpleGrad)" filter="url(#shadow)"/>
    <text x="50" y="390" font-size="14" font-weight="bold" fill="#7b1fa2">Mode Switch: User Mode ↔ Kernel Mode</text>
    <rect x="50" y="405" width="280" height="45" rx="8" fill="#e3f2fd" stroke="#1976d2" stroke-width="2"/>
    <text x="190" y="425" text-anchor="middle" font-size="12" font-weight="bold" fill="#1565c0">USER MODE</text>
    <text x="190" y="440" text-anchor="middle" font-size="9" fill="#666">Limited access • Cannot execute privileged instructions</text>
    <rect x="470" y="405" width="280" height="45" rx="8" fill="#e8f5e9" stroke="#388e3c" stroke-width="2"/>
    <text x="610" y="425" text-anchor="middle" font-size="12" font-weight="bold" fill="#2e7d32">KERNEL MODE</text>
    <text x="610" y="440" text-anchor="middle" font-size="9" fill="#666">Full hardware access • All instructions allowed</text>
    <path d="M335 425 L450 425" stroke="#9c27b0" stroke-width="3" marker-end="url(#arrowBlue)">
      <animate attributeName="stroke-dasharray" from="0,115" to="115,0" dur="1s" fill="freeze"/>
    </path>
    <text x="392" y="415" text-anchor="middle" font-size="10" fill="#7b1fa2">TRAP/INT</text>
    <text x="392" y="458" text-anchor="middle" font-size="10" fill="#7b1fa2">(software interrupt)</text>
  </g>

  <!-- STEP 5: API vs System Call vs Interface -->
  <g class="step" id="step5" data-narration="Understanding the three-layer hierarchy: API provides portable functions, system call interface maps them to kernel handlers.">
    <rect x="30" y="470" width="740" height="105" rx="8" fill="url(#blueGrad)" filter="url(#shadow)"/>
    <text x="50" y="495" font-size="14" font-weight="bold" fill="#1565c0">API vs System Call vs System Call Interface</text>
    <rect x="50" y="510" width="170" height="55" rx="8" fill="#e8f5e9" stroke="#4caf50" stroke-width="2"/>
    <text x="135" y="532" text-anchor="middle" font-size="11" font-weight="bold" fill="#2e7d32">Application</text>
    <text x="135" y="550" text-anchor="middle" font-size="9" fill="#666">Uses API functions</text>
    <path d="M225 537 L255 537" stroke="#4caf50" stroke-width="2" marker-end="url(#arrowGreen)"/>
    <rect x="260" y="510" width="170" height="55" rx="8" fill="#fff3e0" stroke="#ff9800" stroke-width="2"/>
    <text x="345" y="532" text-anchor="middle" font-size="11" font-weight="bold" fill="#e65100">API (e.g., POSIX)</text>
    <text x="345" y="550" text-anchor="middle" font-size="9" fill="#666">Portable interface</text>
    <path d="M435 537 L465 537" stroke="#ff9800" stroke-width="2" marker-end="url(#arrowOrange)"/>
    <rect x="470" y="510" width="170" height="55" rx="8" fill="#e3f2fd" stroke="#1976d2" stroke-width="2"/>
    <text x="555" y="532" text-anchor="middle" font-size="11" font-weight="bold" fill="#1565c0">System Call Interface</text>
    <text x="555" y="550" text-anchor="middle" font-size="9" fill="#666">Maps to kernel</text>
    <path d="M645 537 L675 537" stroke="#1976d2" stroke-width="2" marker-end="url(#arrowBlue)"/>
    <rect x="680" y="510" width="80" height="55" rx="8" fill="#fce4ec" stroke="#e91e63" stroke-width="2"/>
    <text x="720" y="532" text-anchor="middle" font-size="11" font-weight="bold" fill="#c2185b">Kernel</text>
    <text x="720" y="550" text-anchor="middle" font-size="9" fill="#666">Handlers</text>
  </g>

  <!-- STEP 6: Common APIs -->
  <g class="step" id="step6" data-narration="Three major APIs exist: POSIX for Unix/Linux, Win32 for Windows, and Java API for cross-platform applications.">
    <rect x="30" y="585" width="740" height="85" rx="8" fill="url(#orangeGrad)" filter="url(#shadow)"/>
    <text x="50" y="610" font-size="14" font-weight="bold" fill="#e65100">Common APIs</text>
    <rect x="50" y="625" width="220" height="35" rx="5" fill="#e8f5e9" stroke="#388e3c" stroke-width="1"/>
    <text x="160" y="645" text-anchor="middle" font-size="11" font-weight="bold" fill="#2e7d32">POSIX API</text>
    <text x="160" y="657" text-anchor="middle" font-size="8" fill="#666">open(), read(), write(), fork()</text>
    <rect x="290" y="625" width="220" height="35" rx="5" fill="#e3f2fd" stroke="#1976d2" stroke-width="1"/>
    <text x="400" y="645" text-anchor="middle" font-size="11" font-weight="bold" fill="#1565c0">Win32/Win64 API</text>
    <text x="400" y="657" text-anchor="middle" font-size="8" fill="#666">CreateFile(), ReadFile(), CreateProcess()</text>
    <rect x="530" y="625" width="220" height="35" rx="5" fill="#f3e5f5" stroke="#9c27b0" stroke-width="1"/>
    <text x="640" y="645" text-anchor="middle" font-size="11" font-weight="bold" fill="#7b1fa2">Java API</text>
    <text x="640" y="657" text-anchor="middle" font-size="8" fill="#666">File, Socket, Thread (cross-platform)</text>
  </g>

  <!-- STEP 7: Parameter Passing - Method 1 (Registers) -->
  <g class="step" id="step7" data-narration="Method 1: Parameters placed in CPU registers - fastest but limited by number of available registers.">
    <rect x="30" y="680" width="740" height="95" rx="8" fill="url(#greenGrad)" filter="url(#shadow)"/>
    <text x="50" y="705" font-size="14" font-weight="bold" fill="#2e7d32">Parameter Passing: Method 1 - Registers</text>
    <rect x="50" y="720" width="320" height="45" rx="5" fill="#fff3e0" stroke="#ff9800" stroke-width="1"/>
    <text x="210" y="738" text-anchor="middle" font-size="10" font-weight="bold" fill="#e65100">Example: read(fd, buffer, count)</text>
    <text x="210" y="755" text-anchor="middle" font-size="9" fill="#666">EAX=3 (syscall#) | EBX=fd | ECX=buffer | EDX=count</text>
    <rect x="390" y="720" width="180" height="45" rx="5" fill="#e8f5e9" stroke="#388e3c" stroke-width="1"/>
    <text x="480" y="745" text-anchor="middle" font-size="11" fill="#2e7d32">Advantages</text>
    <text x="480" y="758" text-anchor="middle" font-size="9" fill="#666">Fastest method</text>
    <rect x="590" y="720" width="170" height="45" rx="5" fill="#ffebee" stroke="#f44336" stroke-width="1"/>
    <text x="675" y="745" text-anchor="middle" font-size="11" fill="#c62828">Disadvantages</text>
    <text x="675" y="758" text-anchor="middle" font-size="9" fill="#666">Limited by register count</text>
  </g>

  <!-- STEP 8: Parameter Passing - Method 2 (Block/Table) -->
  <g class="step" id="step8" data-narration="Method 2: Parameters stored in a memory block; address passed via register - unlimited parameters, used by Linux and Solaris.">
    <rect x="30" y="785" width="740" height="95" rx="8" fill="url(#blueGrad)" filter="url(#shadow)"/>
    <text x="50" y="810" font-size="14" font-weight="bold" fill="#1565c0">Parameter Passing: Method 2 - Block/Table in Memory</text>
    <rect x="50" y="825" width="180" height="45" rx="5" fill="#e3f2fd" stroke="#1976d2" stroke-width="1"/>
    <text x="140" y="845" text-anchor="middle" font-size="10" fill="#1565c0">Register (address)</text>
    <path d="M235 847 L270 847" stroke="#1976d2" stroke-width="2" marker-end="url(#arrowBlue)"/>
    <rect x="280" y="825" width="200" height="45" rx="5" fill="#fff3e0" stroke="#ff9800" stroke-width="1"/>
    <text x="380" y="842" text-anchor="middle" font-size="10" font-weight="bold" fill="#e65100">Parameter Block</text>
    <text x="380" y="858" text-anchor="middle" font-size="9" fill="#666">Param1 | Param2 | Param3 | ...</text>
    <path d="M485 847 L520 847" stroke="#ff9800" stroke-width="2" marker-end="url(#arrowOrange)"/>
    <rect x="530" y="825" width="220" height="45" rx="5" fill="#e8f5e9" stroke="#388e3c" stroke-width="1"/>
    <text x="640" y="842" text-anchor="middle" font-size="11" fill="#2e7d32">Used By</text>
    <text x="640" y="858" text-anchor="middle" font-size="9" fill="#666">Linux, Solaris</text>
  </g>

  <!-- STEP 9: Parameter Passing - Method 3 (Stack) -->
  <g class="step" id="step9" data-narration="Method 3: Parameters pushed onto stack by program, popped by OS - unlimited parameters but slower.">
    <rect x="30" y="890" width="740" height="85" rx="8" fill="url(#purpleGrad)" filter="url(#shadow)"/>
    <text x="50" y="915" font-size="14" font-weight="bold" fill="#7b1fa2">Parameter Passing: Method 3 - Stack</text>
    <rect x="50" y="930" width="400" height="35" rx="5" fill="#f3e5f5" stroke="#9c27b0" stroke-width="1"/>
    <text x="250" y="950" text-anchor="middle" font-size="10" fill="#7b1fa2">Stack: count → buffer → fd → syscall#</text>
    <rect x="470" y="930" width="130" height="35" rx="5" fill="#e8f5e9" stroke="#388e3c" stroke-width="1"/>
    <text x="535" y="950" text-anchor="middle" font-size="10" fill="#2e7d32">Unlimited</text>
    <text x="535" y="962" text-anchor="middle" font-size="9" fill="#666">Parameters</text>
    <rect x="620" y="930" width="140" height="35" rx="5" fill="#ffebee" stroke="#f44336" stroke-width="1"/>
    <text x="690" y="950" text-anchor="middle" font-size="10" fill="#c62828">Moderate</text>
    <text x="690" y="962" text-anchor="middle" font-size="9" fill="#666">Speed</text>
  </g>

  <!-- STEP 10: Parameter Passing Comparison Table -->
  <g class="step" id="step10" data-narration="Comparing all three methods: registers (fastest), block/table (unlimited, used by Linux), and stack (unlimited).">
    <rect x="30" y="985" width="740" height="75" rx="8" fill="url(#redGrad)" filter="url(#shadow)"/>
    <text x="50" y="1010" font-size="14" font-weight="bold" fill="#c62828">Parameter Passing Comparison</text>
    <rect x="50" y="1025" width="210" height="25" rx="3" fill="#e8f5e9"/>
    <text x="155" y="1042" text-anchor="middle" font-size="9" fill="#2e7d32">Registers: Fastest | Limited</text>
    <rect x="275" y="1025" width="210" height="25" rx="3" fill="#e3f2fd"/>
    <text x="380" y="1042" text-anchor="middle" font-size="9" fill="#1565c0">Block/Table: Fast | Unlimited | Linux</text>
    <rect x="500" y="1025" width="210" height="25" rx="3" fill="#fff3e0"/>
    <text x="605" y="1042" text-anchor="middle" font-size="9" fill="#e65100">Stack: Moderate | Unlimited</text>
  </g>

  <!-- STEP 11: Example - read() System Call -->
  <g class="step" id="step11" data-narration="Tracing the read() system call: from user program call through C library, mode switch, kernel handler, back to user.">
    <rect x="30" y="1070" width="740" height="115" rx="8" fill="url(#greenGrad)" filter="url(#shadow)"/>
    <text x="50" y="1095" font-size="14" font-weight="bold" fill="#2e7d32">Example: read() System Call Detailed Flow</text>
    <rect x="50" y="1108" width="150" height="65" rx="5" fill="#e3f2fd" stroke="#1976d2"/>
    <text x="125" y="1122" text-anchor="middle" font-size="9" fill="#1565c0">1. User calls</text>
    <text x="125" y="1135" text-anchor="middle" font-size="8" fill="#666">read(fd, buffer, 50)</text>
    <text x="125" y="1148" text-anchor="middle" font-size="8" fill="#666">2. C library sets EAX=3</text>
    <text x="125" y="1161" text-anchor="middle" font-size="8" fill="#666">3. INT 0x80 triggers TRAP</text>
    <path d="M205 1140 L230 1140" stroke="#388e3c" stroke-width="2" marker-end="url(#arrowGreen)"/>
    <rect x="235" y="1108" width="120" height="65" rx="5" fill="#fff3e0" stroke="#ff9800"/>
    <text x="295" y="1122" text-anchor="middle" font-size="9" fill="#e65100">4. Mode Switch</text>
    <text x="295" y="1135" text-anchor="middle" font-size="8" fill="#666">User → Kernel</text>
    <text x="295" y="1148" text-anchor="middle" font-size="8" fill="#666">CPU switches mode bit</text>
    <text x="295" y="1161" text-anchor="middle" font-size="8" fill="#666">0→1</text>
    <path d="M360 1140 L385 1140" stroke="#388e3c" stroke-width="2" marker-end="url(#arrowGreen)"/>
    <rect x="390" y="1108" width="150" height="65" rx="5" fill="#fce4ec" stroke="#e91e63"/>
    <text x="465" y="1122" text-anchor="middle" font-size="9" fill="#c2185b">5. Kernel Handler</text>
    <text x="465" y="1135" text-anchor="middle" font-size="8" fill="#666">sys_read() validates</text>
    <text x="465" y="1148" text-anchor="middle" font-size="8" fill="#666">reads data into buffer</text>
    <text x="465" y="1161" text-anchor="middle" font-size="8" fill="#666">returns bytes read</text>
    <path d="M545 1140 L570 1140" stroke="#388e3c" stroke-width="2" marker-end="url(#arrowGreen)"/>
    <rect x="575" y="1108" width="80" height="65" rx="5" fill="#e8f5e9" stroke="#388e3c"/>
    <text x="615" y="1122" text-anchor="middle" font-size="9" fill="#2e7d32">6. Return</text>
    <text x="615" y="1135" text-anchor="middle" font-size="8" fill="#666">EAX = count</text>
    <text x="615" y="1148" text-anchor="middle" font-size="8" fill="#666">Mode switch</text>
    <text x="615" y="1161" text-anchor="middle" font-size="8" fill="#666">Kernel→User</text>
    <path d="M660 1140 L680 1140" stroke="#388e3c" stroke-width="2" marker-end="url(#arrowGreen)"/>
    <rect x="685" y="1108" width="75" height="65" rx="5" fill="#e3f2fd" stroke="#1976d2"/>
    <text x="722" y="1122" text-anchor="middle" font-size="9" fill="#1565c0">7. Result</text>
    <text x="722" y="1135" text-anchor="middle" font-size="8" fill="#666">bytes = 50</text>
    <text x="722" y="1148" text-anchor="middle" font-size="8" fill="#666">(or actual)</text>
    <text x="722" y="1161" text-anchor="middle" font-size="8" fill="#666">bytes read</text>
  </g>

  <!-- STEP 12: System Call Numbers -->
  <g class="step" id="step12" data-narration="Each system call has a unique number. The kernel maintains a table mapping these numbers to handler functions.">
    <rect x="30" y="1195" width="740" height="75" rx="8" fill="url(#blueGrad)" filter="url(#shadow)"/>
    <text x="50" y="1220" font-size="14" font-weight="bold" fill="#1565c0">System Call Numbers (Linux x86)</text>
    <rect x="50" y="1235" width="130" height="25" rx="3" fill="#fff3e0"/>
    <text x="115" y="1252" text-anchor="middle" font-size="9" fill="#e65100">1=exit, 2=fork</text>
    <rect x="195" y="1235" width="130" height="25" rx="3" fill="#fff3e0"/>
    <text x="260" y="1252" text-anchor="middle" font-size="9" fill="#e65100">3=read, 4=write</text>
    <rect x="340" y="1235" width="130" height="25" rx="3" fill="#fff3e0"/>
    <text x="405" y="1252" text-anchor="middle" font-size="9" fill="#e65100">5=open, 6=close</text>
    <rect x="485" y="1235" width="130" height="25" rx="3" fill="#fff3e0"/>
    <text x="550" y="1252" text-anchor="middle" font-size="9" fill="#e65100">11=execve</text>
    <rect x="630" y="1235" width="130" height="25" rx="3" fill="#fff3e0"/>
    <text x="695" y="1252" text-anchor="middle" font-size="9" fill="#e65100">20=getpid</text>
  </g>

  <!-- STEP 13: Summary -->
  <g class="step" id="step13" data-narration="System calls are the interface between user programs and kernel, invoked via TRAP, causing mode switch with three parameter passing methods.">
    <rect x="30" y="1280" width="740" height="100" rx="10" fill="url(#titleGrad)" filter="url(#shadow)"/>
    <text x="400" y="1308" text-anchor="middle" font-size="16" font-weight="bold" fill="white">KEY TAKEAWAYS</text>
    <text x="400" y="1330" text-anchor="middle" font-size="11" fill="#e3f2fd">1. Interface between user programs and OS kernel</text>
    <text x="400" y="1348" text-anchor="middle" font-size="11" fill="#e3f2fd">2. Invoked via TRAP/INT instruction - causes mode switch (User ↔ Kernel)</text>
    <text x="400" y="1366" text-anchor="middle" font-size="11" fill="#e3f2fd">3. Parameters passed via: Registers (fast), Block/Table (Linux), or Stack</text>
    <text x="400" y="1384" text-anchor="middle" font-size="11" fill="#e3f2fd">4. API (POSIX, Win32) wraps system calls for portability</text>
  </g>

  <!-- Step indicators (left side) -->
  <g opacity="0.6">
    <rect x="5" y="75" width="18" height="18" rx="4" fill="#1976d2"/>
    <text x="14" y="88" text-anchor="middle" font-size="10" fill="white">1</text>
    <rect x="5" y="170" width="18" height="18" rx="4" fill="#ff9800"/>
    <text x="14" y="183" text-anchor="middle" font-size="10" fill="white">2</text>
    <rect x="5" y="265" width="18" height="18" rx="4" fill="#388e3c"/>
    <text x="14" y="278" text-anchor="middle" font-size="10" fill="white">3</text>
    <rect x="5" y="370" width="18" height="18" rx="4" fill="#9c27b0"/>
    <text x="14" y="383" text-anchor="middle" font-size="10" fill="white">4</text>
    <rect x="5" y="475" width="18" height="18" rx="4" fill="#1976d2"/>
    <text x="14" y="488" text-anchor="middle" font-size="10" fill="white">5</text>
    <rect x="5" y="590" width="18" height="18" rx="4" fill="#ff9800"/>
    <text x="14" y="603" text-anchor="middle" font-size="10" fill="white">6</text>
    <rect x="5" y="685" width="18" height="18" rx="4" fill="#388e3c"/>
    <text x="14" y="698" text-anchor="middle" font-size="10" fill="white">7</text>
    <rect x="5" y="790" width="18" height="18" rx="4" fill="#1976d2"/>
    <text x="14" y="803" text-anchor="middle" font-size="10" fill="white">8</text>
    <rect x="5" y="895" width="18" height="18" rx="4" fill="#9c27b0"/>
    <text x="14" y="908" text-anchor="middle" font-size="10" fill="white">9</text>
    <rect x="5" y="990" width="18" height="18" rx="4" fill="#f44336"/>
    <text x="14" y="1003" text-anchor="middle" font-size="10" fill="white">10</text>
    <rect x="5" y="1075" width="18" height="18" rx="4" fill="#388e3c"/>
    <text x="14" y="1088" text-anchor="middle" font-size="10" fill="white">11</text>
    <rect x="5" y="1200" width="18" height="18" rx="4" fill="#1976d2"/>
    <text x="14" y="1213" text-anchor="middle" font-size="10" fill="white">12</text>
    <rect x="5" y="1285" width="18" height="18" rx="4" fill="#1565c0"/>
    <text x="14" y="1298" text-anchor="middle" font-size="10" fill="white">✓</text>
  </g>
</svg>