<svg width="420" height="400" data-topic-id="exploratory-data-analysis">
  <desc>
    <data-narration>
      <p>Exploratory Data Analysis (EDA) is a crucial step in the data analysis process that involves summarizing, visualizing, and interpreting the data to understand its distribution, relationships, and patterns.</p>
    </data-narration>
    <data-narration>
      <p>Pandas provides various functions for performing vectorized string operations, which are operations that can be performed on entire arrays or series at once.</p>
    </data-narration>
    <data-narration>
      <p>Some common string methods include str.count(), str.find(), str.replace(), and str.split().</p>
    </data-narration>
    <data-narration>
      <p>Pandas also provides various regex operations that can be used to manipulate and analyze strings.</p>
    </data-narration>
  </desc>
  <g>
    <rect x="0" y="0" width="420" height="400" fill="#6495ED" />
    <rect x="0" y="0" width="100" height="100" fill="#C9E4CA" rx="10" />
    <rect x="120" y="0" width="100" height="100" fill="#FFC107" rx="10" />
    <rect x="240" y="0" width="100" height="100" fill="#34A85A" rx="10" />
    <rect x="360" y="0" width="100" height="100" fill="#E91E63" rx="10" />
    <path d="M 20,20 L 20,120 L 120,120 Z" fill="#6495ED" />
    <path d="M 140,20 L 140,120 L 220,120 Z" fill="#C9E4CA" />
    <path d="M 260,20 L 260,120 L 340,120 Z" fill="#FFC107" />
    <path d="M 380,20 L 380,120 L 460,120 Z" fill="#34A85A" />
    <path d="M 500,20 L 500,120 L 580,120 Z" fill="#E91E63" />
    <text x="10" y="150" font-size="24" fill="#fff">Vectorized String Operations</text>
    <text x="130" y="150" font-size="24" fill="#fff">String Methods</text>
    <text x="250" y="150" font-size="24" fill="#fff">Regex Operations</text>
    <text x="370" y="150" font-size="24" fill="#fff">Data Analysis</text>
    <animate transform="rotate(360 200 200)" begin="1s" dur="10s" repeatCount="indefinite" />
    <animate transform="rotate(360 300 300)" begin="2s" dur="10s" repeatCount="indefinite" />
    <animate transform="rotate(360 400 400)" begin="3s" dur="10s" repeatCount="indefinite" />
    <animate transform="rotate(360 500 500)" begin="4s" dur="10s" repeatCount="indefinite" />
    <g>
      <path d="M 0,100 L 20,100" stroke="#fff" stroke-width="2" />
      <text x="10" y="110" font-size="18" fill="#fff">str.count()</text>
      <path d="M 0,100 L 40,100" stroke="#fff" stroke-width="2" />
      <text x="30" y="110" font-size="18" fill="#fff">str.find()</text>
      <path d="M 0,100 L 60,100" stroke="#fff" stroke-width="2" />
      <text x="40" y="110" font-size="18" fill="#fff">str.replace()</text>
      <path d="M 0,100 L 80,100" stroke="#fff" stroke-width="2" />
      <text x="50" y="110" font-size="18" fill="#fff">str.split()</text>
    </g>
    <g>
      <path d="M 0,200 L 20,200" stroke="#fff" stroke-width="2" />
      <text x="10" y="210" font-size="18" fill="#fff">str.match()</text>
      <path d="M 0,200 L 40,200" stroke="#fff" stroke-width="2" />
      <text x="30" y="210" font-size="18" fill="#fff">str.search()</text>
      <path d="M 0,200 L 60,200" stroke="#fff" stroke-width="2" />
      <text x="40" y="210" font-size="18" fill="#fff">str.find()</text>
    </g>
  </g>
  <g>
    <path d="M 0,300 L 20,300" stroke="#fff" stroke-width="2" />
    <text x="10" y="310" font-size="18" fill="#fff">Data Analysis</text>
    <path d="M 0,300 L 40,300" stroke="#fff" stroke-width="2" />
    <text x="30" y="310" font-size="18" fill="#fff">Time Series Data</text>
    <path d="M 0,300 L 60,300" stroke="#fff" stroke-width="2" />
    <text x="40" y="310" font-size="18" fill="#fff">Pandas Functions</text>
  </g>
  <g>
    <path d="M 0,350 L 20,350" stroke="#fff" stroke-width="2" />
    <text x="10" y="360" font-size="18" fill="#fff">Conclusion</text>
    <path d="M 0,350 L 40,350" stroke="#fff" stroke-width="2" />
    <text x="30" y="360" font-size="18" fill="#fff">Summary</text>
  </g>
  <g>
    <path d="M 0,400 L 420,400" stroke="#fff" stroke-width="2" />
    <text x="10" y="410" font-size="24" fill="#fff">Exploratory Data Analysis</text>
  </g>
</svg>