<svg width="420" height="400" data-topic-id="rmsprop-and-adam">
  <defs>
    <linearGradient id="gradient" x1="0%" y1="0%" x2="100%" y2="0%">
      <stop offset="0%" stop-color="#3498db" stop-opacity="1" />
      <stop offset="100%" stop-color="#2ecc71" stop-opacity="1" />
    </linearGradient>
  </defs>
  <title>
    <text x="20" y="20" font-size="24" font-family="Arial, sans-serif" fill="#2ecc71">RMSprop and Adam: Optimization Techniques</text>
  </title>
  <rect x="10" y="60" width="400" height="300" fill="url(#gradient)" rx="10" />
  <g transform="translate(10, 60)">
    <rect x="0" y="0" width="100" height="20" fill="#f1c40f" rx="5" />
    <text x="10" y="10" font-size="18" font-family="Arial, sans-serif" fill="#2ecc71">Definition</text>
    <g transform="translate(150, 20)">
      <rect x="0" y="0" width="50" height="20" fill="#f1c40f" rx="5" />
      <text x="10" y="10" font-size="18" font-family="Arial, sans-serif" fill="#2ecc71">RMSprop</text>
      <g data-narration="RMSprop is an optimization algorithm that adapts the learning rate for each parameter based on the magnitude of the gradient.">
        <rect x="0" y="0" width="30" height="20" fill="#3498db" rx="5" />
        <text x="10" y="10" font-size="16" font-family="Arial, sans-serif" fill="#fff" >First and Second Moments</text>
        <rect x="0" y="30" width="30" height="20" fill="#3498db" rx="5" />
        <text x="10" y="40" font-size="16" font-family="Arial, sans-serif" fill="#fff" >Bias Correction</text>
        <rect x="0" y="50" width="30" height="20" fill="#3498db" rx="5" />
        <text x="10" y="60" font-size="16" font-family="Arial, sans-serif" fill="#fff" >Clip Gradient Norm</text>
      </g>
    </g>
    <g transform="translate(320, 20)">
      <rect x="0" y="0" width="100" height="20" fill="#f1c40f" rx="5" />
      <text x="10" y="10" font-size="18" font-family="Arial, sans-serif" fill="#2ecc71">Adam</text>
      <g data-narration="Adam is an optimization algorithm that adapts the learning rate for each parameter based on the magnitude of the gradient.">
        <rect x="0" y="0" width="30" height="20" fill="#3498db" rx="5" />
        <text x="10" y="10" font-size="16" font-family="Arial, sans-serif" fill="#fff" >First and Second Moments</text>
        <rect x="0" y="30" width="30" height="20" fill="#3498db" rx="5" />
        <text x="10" y="40" font-size="16" font-family="Arial, sans-serif" fill="#fff" >Bias Correction</text>
        <rect x="0" y="50" width="30" height="20" fill="#3498db" rx="5" />
        <text x="10" y="60" font-size="16" font-family="Arial, sans-serif" fill="#fff" >Moment Estimation</text>
      </g>
    </g>
    <g transform="translate(10, 350)">
      <rect x="0" y="0" width="100" height="20" fill="#f1c40f" rx="5" />
      <text x="10" y="10" font-size="18" font-family="Arial, sans-serif" fill="#2ecc71">Key Concepts</text>
      <g data-narration="RMSprop and Adam are two optimization algorithms that have gained popularity in recent years due to their ability to adapt to the changing learning rates and minimize the risk of exploding gradients.">
        <rect x="0" y="0" width="30" height="20" fill="#3498db" rx="5" />
        <text x="10" y="10" font-size="16" font-family="Arial, sans-serif" fill="#fff" >First and Second Moments</text>
        <rect x="0" y="30" width="30" height="20" fill="#3498db" rx="5" />
        <text x="10" y="40" font-size="16" font-family="Arial, sans-serif" fill="#fff" >Bias Correction</text>
        <rect x="0" y="50" width="30" height="20" fill="#3498db" rx="5" />
        <text x="10" y="60" font-size="16" font-family="Arial, sans-serif" fill="#fff" >Clip Gradient Norm</text>
      </g>
    </g>
    <g transform="translate(350, 350)">
      <rect x="0" y="0" width="100" height="20" fill="#f1c40f" rx="5" />
      <text x="10" y="10" font-size="18" font-family="Arial, sans-serif" fill="#2ecc71">Example Code</text>
      <g data-narration="The following is an example code snippet for implementing RMSprop and Adam optimization algorithms in Python.">
        <rect x="0" y="0" width="30" height="20" fill="#3498db" rx="5" />
        <text x="10" y="10" font-size="16" font-family="Arial, sans-serif" fill="#fff" >RMSprop</text>
        <rect x="0" y="30" width="30" height="20" fill="#3498db" rx="5" />
        <text x="10" y="40" font-size="16" font-family="Arial, sans-serif" fill="#fff" >Adam</text>
      </g>
    </g>
    <g transform="translate(20, 400)">
      <text x="10" y="10" font-size="18" font-family="Arial, sans-serif" fill="#2ecc71">References</text>
    </g>
  </g>
  <animate attributeName="opacity" begin="0s" dur="10s" repeatCount="indefinite" />
  <animate attributeName="opacity" begin="10s" dur="10s" repeatCount="indefinite" />
  <animate attributeName="opacity" begin="20s" dur="10s" repeatCount="indefinite" />
  <animate attributeName="opacity" begin="30s" dur="10s" repeatCount="indefinite" />
</svg>