<svg viewBox="0 0 800 1700" xmlns="http://www.w3.org/2000/svg">
  <defs>
    <linearGradient id="blueGrad" x1="0%" y1="0%" x2="100%" y2="100%">
      <stop offset="0%" stop-color="#e3f2fd"/>
      <stop offset="100%" stop-color="#bbdefb"/>
    </linearGradient>
    <linearGradient id="greenGrad" x1="0%" y1="0%" x2="100%" y2="100%">
      <stop offset="0%" stop-color="#e8f5e9"/>
      <stop offset="100%" stop-color="#c8e6c9"/>
    </linearGradient>
    <linearGradient id="orangeGrad" x1="0%" y1="0%" x2="100%" y2="100%">
      <stop offset="0%" stop-color="#fff3e0"/>
      <stop offset="100%" stop-color="#ffe0b2"/>
    </linearGradient>
    <linearGradient id="purpleGrad" x1="0%" y1="0%" x2="100%" y2="100%">
      <stop offset="0%" stop-color="#f3e5f5"/>
      <stop offset="100%" stop-color="#e1bee7"/>
    </linearGradient>
    <linearGradient id="redGrad" x1="0%" y1="0%" x2="100%" y2="100%">
      <stop offset="0%" stop-color="#ffebee"/>
      <stop offset="100%" stop-color="#ffcdd2"/>
    </linearGradient>
    <linearGradient id="titleGrad" x1="0%" y1="0%" x2="100%" y2="0%">
      <stop offset="0%" stop-color="#1976d2"/>
      <stop offset="100%" stop-color="#1565c0"/>
    </linearGradient>
    <filter id="shadow" x="-20%" y="-20%" width="140%" height="140%">
      <feDropShadow dx="2" dy="3" stdDeviation="3" flood-color="#000" flood-opacity="0.15"/>
    </filter>
    <marker id="arrowBlue" markerWidth="10" markerHeight="10" refX="9" refY="3" orient="auto">
      <path d="M0,0 L0,6 L9,3 z" fill="#1976d2"/>
    </marker>
    <marker id="arrowGreen" markerWidth="10" markerHeight="10" refX="9" refY="3" orient="auto">
      <path d="M0,0 L0,6 L9,3 z" fill="#388e3c"/>
    </marker>
    <marker id="arrowOrange" markerWidth="10" markerHeight="10" refX="9" refY="3" orient="auto">
      <path d="M0,0 L0,6 L9,3 z" fill="#ff9800"/>
    </marker>
  </defs>
  
  <style>
    @keyframes fadeInSlide { from { opacity: 0; transform: translateY(20px); } to { opacity: 1; transform: translateY(0); } }
    @keyframes scaleIn { from { opacity: 0; transform: scale(0.85); } to { opacity: 1; transform: scale(1); } }
    @keyframes textReveal { from { opacity: 0; transform: translateX(-10px); } to { opacity: 1; transform: translateX(0); } }
    @keyframes drawLine { from { stroke-dashoffset: 1000; } to { stroke-dashoffset: 0; } }
    .step { animation: fadeInSlide 0.6s ease-out; }
    .step rect { animation: scaleIn 0.5s cubic-bezier(0.34, 1.56, 0.64, 1); transform-origin: center; }
    .step text { animation: textReveal 0.4s ease-out 0.2s backwards; }
    .title-text { font-size: 22px; font-weight: bold; fill: white; }
    .subtitle-text { font-size: 12px; fill: white; }
    .step-title { font-size: 13px; font-weight: bold; fill: #333; }
    .step-body { font-size: 10px; fill: #555; }
    .step-label { font-size: 9px; fill: #666; }
    .highlight { fill: #1976d2; font-weight: bold; }
    .formula { font-size: 11px; font-family: monospace; fill: #333; }
    .drawn-line { stroke-dasharray: 1000; stroke-dashoffset: 1000; animation: drawLine 1.5s ease-out forwards; }
  </style>

  <rect width="800" height="1700" fill="#f8f9fa"/>

  <!-- Step 0: Title -->
  <g class="step" id="step0" data-narration="Welcome to Computer Networks! This module covers fundamentals essential for every CSE engineer.">
    <rect x="0" y="0" width="800" height="55" fill="url(#titleGrad)" rx="0"/>
    <text x="400" y="25" text-anchor="middle" class="title-text">Computer Networks</text>
    <text x="400" y="42" text-anchor="middle" class="subtitle-text">Introduction and Fundamentals | university 2022 Scheme</text>
    <text x="400" y="52" text-anchor="middle" font-size="8" fill="white" opacity="0.8">CSE Branch - Module 1</text>
  </g>

  <!-- Step 1: What is a Computer Network -->
  <g class="step" id="step1" data-narration="A computer network is a collection of interconnected computing devices that communicate and share resources through transmission media and protocols.">
    <rect x="30" y="65" width="740" height="80" fill="url(#blueGrad)" rx="10" filter="url(#shadow)"/>
    <text x="50" y="85" class="step-title">What is a Computer Network?</text>
    <text x="50" y="105" class="step-body">A collection of interconnected computing devices that can</text>
    <text x="50" y="120" class="step-body">communicate and share resources with each other.</text>
    <rect x="500" y="80" width="250" height="50" fill="white" rx="8"/>
    <text x="515" y="98" class="step-label" fill="#666">Key Elements:</text>
    <text x="515" y="115" class="step-label">Nodes | Transmission Media | Protocols</text>
  </g>

  <!-- Step 2: Why Computer Networks Matter -->
  <g class="step" id="step2" data-narration="Computer networks enable email, video streaming, cloud services, and online collaboration - the backbone of modern digital communication.">
    <rect x="30" y="155" width="740" height="70" fill="url(#greenGrad)" rx="10" filter="url(#shadow)"/>
    <text x="50" y="175" class="step-title">Why Do Computer Networks Matter?</text>
    <text x="50" y="195" class="step-body">• Enable seamless data exchange between devices globally</text>
    <text x="50" y="210" class="step-body">• Power modern communication: email, video calls, streaming</text>
    <circle cx="680" cy="190" r="15" fill="white" stroke="#388e3c" stroke-width="2"/>
    <text x="680" y="195" text-anchor="middle" font-size="14">📧</text>
  </g>

  <!-- Step 3: Components of Computer Network -->
  <g class="step" id="step3" data-narration="A network consists of nodes, NICs for connectivity, transmission media, network devices like routers and switches, and communication protocols.">
    <rect x="30" y="235" width="740" height="75" fill="url(#purpleGrad)" rx="10" filter="url(#shadow)"/>
    <text x="50" y="255" class="step-title">Components of a Computer Network</text>
    <rect x="50" y="270" width="120" height="30" fill="white" rx="4"/>
    <text x="110" y="290" text-anchor="middle" class="step-label" fill="#1976d2">Nodes</text>
    <rect x="180" y="270" width="120" height="30" fill="white" rx="4"/>
    <text x="240" y="290" text-anchor="middle" class="step-label" fill="#388e3c">NIC</text>
    <rect x="310" y="270" width="120" height="30" fill="white" rx="4"/>
    <text x="370" y="290" text-anchor="middle" class="step-label" fill="#ff9800">Media</text>
    <rect x="440" y="270" width="120" height="30" fill="white" rx="4"/>
    <text x="500" y="290" text-anchor="middle" class="step-label" fill="#9c27b0">Routers</text>
    <rect x="570" y="270" width="120" height="30" fill="white" rx="4"/>
    <text x="630" y="290" text-anchor="middle" class="step-label" fill="#f44336">Protocols</text>
  </g>

  <!-- Step 4: Classification by Geographic Area -->
  <g class="step" id="step4" data-narration="Networks are classified by coverage area: PAN, LAN, MAN, WAN, and CAN.">
    <rect x="30" y="320" width="740" height="75" fill="url(#orangeGrad)" rx="10" filter="url(#shadow)"/>
    <text x="50" y="340" class="step-title">Network Classification by Geographic Area</text>
    <rect x="50" y="355" width="120" height="30" fill="white" rx="4"/>
    <text x="110" y="372" text-anchor="middle" class="step-label" fill="#e91e63" font-weight="bold">PAN</text>
    <rect x="180" y="355" width="120" height="30" fill="white" rx="4"/>
    <text x="240" y="372" text-anchor="middle" class="step-label" fill="#1976d2" font-weight="bold">LAN</text>
    <rect x="310" y="355" width="120" height="30" fill="white" rx="4"/>
    <text x="370" y="372" text-anchor="middle" class="step-label" fill="#ff9800" font-weight="bold">MAN</text>
    <rect x="440" y="355" width="120" height="30" fill="white" rx="4"/>
    <text x="500" y="372" text-anchor="middle" class="step-label" fill="#9c27b0" font-weight="bold">WAN</text>
    <rect x="570" y="355" width="120" height="30" fill="white" rx="4"/>
    <text x="630" y="372" text-anchor="middle" class="step-label" fill="#388e3c" font-weight="bold">CAN</text>
  </g>

  <!-- Step 5: LAN vs WAN -->
  <g class="step" id="step5" data-narration="LAN covers a building with high speed up to 100 Gbps, while WAN covers large areas with lower speed and is owned by service providers.">
    <rect x="30" y="405" width="360" height="80" fill="url(#blueGrad)" rx="10" filter="url(#shadow)"/>
    <text x="50" y="425" class="step-title">Local Area Network (LAN)</text>
    <text x="50" y="445" class="step-body">• Building/campus</text>
    <text x="50" y="460" class="step-body">• High speed: up to 100 Gbps</text>
    <text x="50" y="475" class="step-body">• Low latency</text>
    
    <rect x="400" y="405" width="370" height="80" fill="url(#redGrad)" rx="10" filter="url(#shadow)"/>
    <text x="420" y="425" class="step-title">Wide Area Network (WAN)</text>
    <text x="420" y="445" class="step-body">• Country/Global</text>
    <text x="420" y="460" class="step-body">• Lower speed</text>
    <text x="420" y="475" class="step-body">• Internet is largest WAN</text>
  </g>

  <!-- Step 6: MAN Details -->
  <g class="step" id="step6" data-narration="Metropolitan Area Networks cover cities or large campuses, connecting multiple LANs with moderate to high speeds.">
    <rect x="30" y="495" width="740" height="70" fill="url(#greenGrad)" rx="10" filter="url(#shadow)"/>
    <text x="50" y="515" class="step-title">Metropolitan Area Network (MAN)</text>
    <text x="50" y="535" class="step-body">• Coverage: 10-100 kilometers (city or campus)</text>
    <text x="50" y="550" class="step-body">• Connects multiple LANs | Used by cable TV operators</text>
    <rect x="550" y="520" width="100" height="35" fill="white" rx="4" stroke="#388e3c"/>
    <text x="600" y="542" text-anchor="middle" font-size="9" fill="#388e3c">LAN + LAN</text>
  </g>

  <!-- Step 7: Network Topologies Overview -->
  <g class="step" id="step7" data-narration="Network topology defines the arrangement of nodes and connections, affecting performance, reliability, and cost.">
    <rect x="30" y="575" width="740" height="70" fill="url(#purpleGrad)" rx="10" filter="url(#shadow)"/>
    <text x="50" y="595" class="step-title">Network Topologies</text>
    <text x="50" y="615" class="step-body">The arrangement of nodes and connections in a network.</text>
    <text x="50" y="630" class="step-body">Types: Bus, Star, Ring, Mesh, Tree | Affects: Performance | Reliability | Cost</text>
  </g>

  <!-- Step 8: Bus Topology -->
  <g class="step" id="step8" data-narration="In bus topology, all nodes connect to a single backbone cable. Failure of the backbone breaks entire network.">
    <rect x="30" y="655" width="740" height="75" fill="url(#orangeGrad)" rx="10" filter="url(#shadow)"/>
    <text x="50" y="675" class="step-title">Bus Topology</text>
    <line x1="80" y1="705" x2="700" y2="705" stroke="#ff9800" stroke-width="4" class="drawn-line"/>
    <rect x="120" y="685" width="35" height="30" fill="white" stroke="#ff9800"/>
    <text x="137" y="703" text-anchor="middle" font-size="8">PC1</text>
    <rect x="280" y="685" width="35" height="30" fill="white" stroke="#ff9800"/>
    <text x="297" y="703" text-anchor="middle" font-size="8">PC2</text>
    <rect x="440" y="685" width="35" height="30" fill="white" stroke="#ff9800"/>
    <text x="457" y="703" text-anchor="middle" font-size="8">PC3</text>
    <rect x="600" y="685" width="35" height="30" fill="white" stroke="#ff9800"/>
    <text x="617" y="703" text-anchor="middle" font-size="8">PC4</text>
    <text x="400" y="745" class="step-body" text-anchor="middle">✓ Simple, low cost | ✗ Single point of failure</text>
  </g>

  <!-- Step 9: Star Topology -->
  <g class="step" id="step9" data-narration="Star topology connects all nodes to a central hub or switch. Most common in modern networks.">
    <rect x="30" y="740" width="740" height="75" fill="url(#blueGrad)" rx="10" filter="url(#shadow)"/>
    <text x="50" y="760" class="step-title">Star Topology (Most Common!)</text>
    <circle cx="400" cy="790" r="20" fill="white" stroke="#1976d2" stroke-width="3"/>
    <text x="400" y="794" text-anchor="middle" font-size="9" fill="#1976d2">Switch</text>
    <rect x="170" y="730" width="35" height="30" fill="white" stroke="#1976d2"/>
    <text x="187" y="748" text-anchor="middle" font-size="8">PC1</text>
    <line x1="187" y1="760" x2="385" y2="790" stroke="#1976d2" stroke-width="2" class="drawn-line"/>
    <rect x="290" y="730" width="35" height="30" fill="white" stroke="#1976d2"/>
    <text x="307" y="748" text-anchor="middle" font-size="8">PC2</text>
    <line x1="307" y1="760" x2="385" y2="790" stroke="#1976d2" stroke-width="2" class="drawn-line"/>
    <rect x="500" y="730" width="35" height="30" fill="white" stroke="#1976d2"/>
    <text x="517" y="748" text-anchor="middle" font-size="8">PC3</text>
    <line x1="517" y1="760" x2="415" y2="790" stroke="#1976d2" stroke-width="2" class="drawn-line"/>
    <text x="400" y="830" class="step-body" text-anchor="middle">✓ Easy management, fault isolation | ✗ Central device failure</text>
  </g>

  <!-- Step 10: Ring Topology -->
  <g class="step" id="step10" data-narration="Ring topology connects nodes in a closed loop with data traveling one direction. Uses token passing.">
    <rect x="30" y="825" width="740" height="75" fill="url(#greenGrad)" rx="10" filter="url(#shadow)"/>
    <text x="50" y="845" class="step-title">Ring Topology</text>
    <ellipse cx="400" cy="870" rx="100" ry="30" fill="none" stroke="#388e3c" stroke-width="3" class="drawn-line"/>
    <circle cx="300" cy="870" r="15" fill="white" stroke="#388e3c"/>
    <text x="300" y="874" text-anchor="middle" font-size="8">PC1</text>
    <circle cx="400" cy="840" r="15" fill="white" stroke="#388e3c"/>
    <text x="400" y="844" text-anchor="middle" font-size="8">PC2</text>
    <circle cx="500" cy="870" r="15" fill="white" stroke="#388e3c"/>
    <text x="500" y="874" text-anchor="middle" font-size="8">PC3</text>
    <circle r="5" fill="#f44336">
      <animateMotion dur="3s" repeatCount="indefinite" path="M300 885 A100 30 0 1 1 299 855 A100 30 0 1 1 300 885"/>
    </circle>
    <text x="400" y="915" class="step-body" text-anchor="middle">✓ Equal access | ✗ One node failure breaks ring</text>
  </g>

  <!-- Step 11: Mesh Topology -->
  <g class="step" id="step11" data-narration="Mesh topology connects each node to multiple others, providing high redundancy. Full mesh has n(n-1)/2 connections.">
    <rect x="30" y="910" width="740" height="80" fill="url(#redGrad)" rx="10" filter="url(#shadow)"/>
    <text x="50" y="930" class="step-title">Mesh Topology (Highest Reliability)</text>
    <circle cx="250" cy="960" r="18" fill="white" stroke="#f44336" stroke-width="2"/>
    <text x="250" y="964" text-anchor="middle" font-size="9">A</text>
    <circle cx="400" cy="935" r="18" fill="white" stroke="#f44336" stroke-width="2"/>
    <text x="400" y="939" text-anchor="middle" font-size="9">B</text>
    <circle cx="550" cy="960" r="18" fill="white" stroke="#f44336" stroke-width="2"/>
    <text x="550" y="964" text-anchor="middle" font-size="9">C</text>
    <line x1="268" y1="955" x2="382" y2="940" stroke="#f44336" stroke-width="2" class="drawn-line"/>
    <line x1="268" y1="965" x2="382" y2="960" stroke="#f44336" stroke-width="2" class="drawn-line"/>
    <line x1="418" y1="940" x2="532" y2="955" stroke="#f44336" stroke-width="2" class="drawn-line"/>
    <line x1="418" y1="960" x2="532" y2="965" stroke="#f44336" stroke-width="2" class="drawn-line"/>
    <text x="650" y="945" class="formula">Links: n(n-1)/2</text>
    <text x="650" y="960" class="step-body">For 3 nodes: 3 links</text>
    <text x="650" y="975" class="step-body">✓ Redundancy | ✗ Expensive</text>
  </g>

  <!-- Step 12: Tree Topology -->
  <g class="step" id="step12" data-narration="Tree topology combines bus and star topologies in a hierarchical structure, commonly used in large organizations.">
    <rect x="30" y="1000" width="740" height="70" fill="url(#purpleGrad)" rx="10" filter="url(#shadow)"/>
    <text x="50" y="1020" class="step-title">Tree Topology (Hierarchical)</text>
    <rect x="370" y="1035" width="60" height="25" fill="white" stroke="#9c27b0" rx="3"/>
    <text x="400" y="1051" text-anchor="middle" font-size="9">Root</text>
    <line x1="400" y1="1035" x2="250" y2="1065" stroke="#9c27b0" stroke-width="2"/>
    <line x1="400" y1="1035" x2="550" y2="1065" stroke="#9c27b0" stroke-width="2"/>
    <rect x="200" y="1070" width="50" height="25" fill="white" stroke="#9c27b0" rx="3"/>
    <text x="225" y="1086" text-anchor="middle" font-size="8">Dept A</text>
    <rect x="490" y="1070" width="50" height="25" fill="white" stroke="#9c27b0" rx="3"/>
    <text x="515" y="1086" text-anchor="middle" font-size="8">Dept B</text>
    <text x="400" y="1080" class="step-body" text-anchor="middle">✓ Scalable, hierarchical | ✗ Root failure impacts all</text>
  </g>

  <!-- Step 13: Transmission Modes -->
  <g class="step" id="step13" data-narration="Transmission modes: simplex (one-way), half-duplex (two-way not simultaneously), full-duplex (simultaneous two-way).">
    <rect x="30" y="1080" width="740" height="75" fill="url(#orangeGrad)" rx="10" filter="url(#shadow)"/>
    <text x="50" y="1100" class="step-title">Transmission Modes</text>
    <rect x="50" y="1115" width="210" height="30" fill="white" rx="4"/>
    <text x="155" y="1133" text-anchor="middle" class="step-label" fill="#e91e63" font-weight="bold">SIMPLEX</text>
    <text x="270" y="1133" class="step-body">One-way</text>
    <rect x="330" y="1115" width="210" height="30" fill="white" rx="4"/>
    <text x="435" y="1133" text-anchor="middle" class="step-label" fill="#ff9800" font-weight="bold">HALF-DUPLEX</text>
    <text x="550" y="1133" class="step-body">Two-way (not sim)</text>
    <rect x="50" y="1155" width="690" height="30" fill="white" rx="4"/>
    <text x="395" y="1173" text-anchor="middle" class="step-label" fill="#388e3c" font-weight="bold">FULL-DUPLEX</text>
    <text x="550" y="1173" class="step-body">Simultaneous two-way (telephone)</text>
  </g>

  <!-- Step 14: OSI Model -->
  <g class="step" id="step14" data-narration="OSI model has 7 layers: Physical, Data Link, Network, Transport, Session, Presentation, and Application.">
    <rect x="30" y="1165" width="740" height="85" fill="url(#blueGrad)" rx="10" filter="url(#shadow)"/>
    <text x="50" y="1185" class="step-title">OSI Model (7 Layers)</text>
    <rect x="50" y="1200" width="95" height="40" fill="white" rx="3" stroke="#1976d2"/>
    <text x="97" y="1215" text-anchor="middle" font-size="8" fill="#1976d2">7. App</text>
    <rect x="155" y="1200" width="95" height="40" fill="white" rx="3" stroke="#1976d2"/>
    <text x="202" y="1215" text-anchor="middle" font-size="8" fill="#1976d2">6. Pres</text>
    <rect x="260" y="1200" width="95" height="40" fill="white" rx="3" stroke="#388e3c"/>
    <text x="307" y="1215" text-anchor="middle" font-size="8" fill="#388e3c">5. Sess</text>
    <rect x="365" y="1200" width="95" height="40" fill="white" rx="3" stroke="#388e3c"/>
    <text x="412" y="1215" text-anchor="middle" font-size="8" fill="#388e3c">4. Trans</text>
    <rect x="470" y="1200" width="95" height="40" fill="white" rx="3" stroke="#ff9800"/>
    <text x="517" y="1215" text-anchor="middle" font-size="8" fill="#ff9800">3. Net</text>
    <rect x="575" y="1200" width="95" height="40" fill="white" rx="3" stroke="#9c27b0"/>
    <text x="622" y="1215" text-anchor="middle" font-size="8" fill="#9c27b0">2. Data</text>
    <rect x="680" y="1200" width="80" height="40" fill="white" rx="3" stroke="#f44336"/>
    <text x="720" y="1215" text-anchor="middle" font-size="8" fill="#f44336">1. Phys</text>
  </g>

  <!-- Step 15: TCP/IP Model -->
  <g class="step" id="step15" data-narration="TCP/IP model has 4 layers: Network Interface, Internet, Transport, and Application. It's the practical implementation used on the Internet.">
    <rect x="30" y="1260" width="740" height="75" fill="url(#greenGrad)" rx="10" filter="url(#shadow)"/>
    <text x="50" y="1280" class="step-title">TCP/IP Model (4 Layers - Practical)</text>
    <rect x="50" y="1295" width="160" height="30" fill="white" rx="4" stroke="#1976d2"/>
    <text x="130" y="1313" text-anchor="middle" class="step-label" fill="#1976d2">Application</text>
    <rect x="220" y="1295" width="160" height="30" fill="white" rx="4" stroke="#388e3c"/>
    <text x="300" y="1313" text-anchor="middle" class="step-label" fill="#388e3c">Transport</text>
    <rect x="390" y="1295" width="160" height="30" fill="white" rx="4" stroke="#ff9800"/>
    <text x="470" y="1313" text-anchor="middle" class="step-label" fill="#ff9800">Internet</text>
    <rect x="560" y="1295" width="160" height="30" fill="white" rx="4" stroke="#9c27b0"/>
    <text x="640" y="1313" text-anchor="middle" class="step-label" fill="#9c27b0">Network Access</text>
  </g>

  <!-- Step 16: OSI vs TCP/IP Mapping -->
  <g class="step" id="step16" data-narration="OSI has 7 layers while TCP/IP has 4. Application layer maps to OSI's top 3, Network Access to bottom 2.">
    <rect x="30" y="1345" width="740" height="70" fill="url(#purpleGrad)" rx="10" filter="url(#shadow)"/>
    <text x="50" y="1365" class="step-title">OSI vs TCP/IP Mapping</text>
    <rect x="50" y="1380" width="300" height="25" fill="white" rx="4"/>
    <text x="200" y="1396" text-anchor="middle" class="step-body">TCP/IP App → OSI: App + Pres + Sess</text>
    <rect x="360" y="1380" width="300" height="25" fill="white" rx="4"/>
    <text x="510" y="1396" text-anchor="middle" class="step-body">TCP/IP Net → OSI: Net + Data Link + Phys</text>
  </g>

  <!-- Step 17: Key Takeaways -->
  <g class="step" id="step17" data-narration="This module covered network fundamentals: components, classifications, topologies, transmission modes, and the OSI and TCP/IP models.">
    <rect x="30" y="1425" width="740" height="60" fill="url(#blueGrad)" rx="10" filter="url(#shadow)"/>
    <text x="50" y="1445" class="step-title">Key Takeaways</text>
    <text x="50" y="1465" class="step-body">• Networks connect devices for resource sharing and communication</text>
    <text x="50" y="1480" class="step-body">• LAN/MAN/WAN classification by geographic area | Topologies: Bus, Star, Ring, Mesh, Tree</text>
    <text x="50" y="1495" class="step-body">• OSI 7-layer model vs TCP/IP 4-layer model | Transmission: Simplex, Half-Duplex, Full-Duplex</text>
  </g>
</svg>