<svg xmlns="http://www.w3.org/2000/svg" viewBox="0 0 800 1560">
  <defs>
    <!-- Gradients -->
    <linearGradient id="titleGradient" x1="0%" y1="0%" x2="100%" y2="0%">
      <stop offset="0%" stop-color="#1976d2"/>
      <stop offset="100%" stop-color="#1565c0"/>
    </linearGradient>
    <linearGradient id="blueGradient" x1="0%" y1="0%" x2="100%" y2="100%">
      <stop offset="0%" stop-color="#e3f2fd"/>
      <stop offset="100%" stop-color="#bbdefb"/>
    </linearGradient>
    <linearGradient id="greenGradient" x1="0%" y1="0%" x2="100%" y2="100%">
      <stop offset="0%" stop-color="#e8f5e9"/>
      <stop offset="100%" stop-color="#c8e6c9"/>
    </linearGradient>
    <linearGradient id="orangeGradient" x1="0%" y1="0%" x2="100%" y2="100%">
      <stop offset="0%" stop-color="#fff3e0"/>
      <stop offset="100%" stop-color="#ffe0b2"/>
    </linearGradient>
    <linearGradient id="purpleGradient" x1="0%" y1="0%" x2="100%" y2="100%">
      <stop offset="0%" stop-color="#f3e5f5"/>
      <stop offset="100%" stop-color="#e1bee7"/>
    </linearGradient>
    <linearGradient id="redGradient" x1="0%" y1="0%" x2="100%" y2="100%">
      <stop offset="0%" stop-color="#ffebee"/>
      <stop offset="100%" stop-color="#ffcdd2"/>
    </linearGradient>
    <linearGradient id="layerGradient" x1="0%" y1="0%" x2="0%" y2="100%">
      <stop offset="0%" stop-color="#42a5f5"/>
      <stop offset="100%" stop-color="#1976d2"/>
    </linearGradient>
    <!-- Arrow marker -->
    <marker id="arrowhead" markerWidth="10" markerHeight="7" refX="9" refY="3.5" orient="auto">
      <polygon points="0 0, 10 3.5, 0 7" fill="#1976d2"/>
    </marker>
    <!-- Shadow filter -->
    <filter id="shadow" x="-20%" y="-20%" width="140%" height="140%">
      <feDropShadow dx="2" dy="3" stdDeviation="3" flood-opacity="0.15"/>
    </filter>
  </defs>
  
  <style>
    @keyframes fadeInSlide {
      from { opacity: 0; transform: translateY(20px); }
      to { opacity: 1; transform: translateY(0); }
    }
    @keyframes scaleIn {
      from { opacity: 0; transform: scale(0.85); }
      to { opacity: 1; transform: scale(1); }
    }
    @keyframes textReveal {
      from { opacity: 0; transform: translateX(-10px); }
      to { opacity: 1; transform: translateX(0); }
    }
    @keyframes pulse {
      0%, 100% { transform: scale(1); }
      50% { transform: scale(1.03); }
    }
    @keyframes drawLine {
      from { stroke-dashoffset: 300; }
      to { stroke-dashoffset: 0; }
    }
    .step { animation: fadeInSlide 0.6s ease-out; }
    .step rect {
      animation: scaleIn 0.5s cubic-bezier(0.34, 1.56, 0.64, 1);
      transform-origin: center;
    }
    .step text { animation: textReveal 0.4s ease-out 0.2s backwards; }
    .title { font-family: 'Segoe UI', Arial, sans-serif; font-weight: 700; }
    .subtitle { font-family: 'Segoe UI', Arial, sans-serif; font-weight: 600; }
    .body { font-family: 'Segoe UI', Arial, sans-serif; font-size: 10px; }
    .label { font-family: 'Segoe UI', Arial, sans-serif; font-size: 8px; }
  </style>
  
  <!-- Background -->
  <rect width="800" height="1560" fill="#f8f9fa"/>
  
  <!-- Step 0: Title -->
  <g class="step" id="step0" data-narration="Welcome to this comprehensive lecture on Operating Systems - the essential software that makes computers work.">
    <rect x="0" y="0" width="800" height="55" fill="url(#titleGradient)"/>
    <text x="400" y="35" text-anchor="middle" fill="white" font-size="24" class="title">Introduction to Operating Systems</text>
    <text x="400" y="48" text-anchor="middle" fill="white" font-size="11" class="body" opacity="0.9">2022 Scheme - CSE Branch</text>
  </g>
  
  <!-- Step 1: What is an Operating System -->
  <g class="step" id="step1" data-narration="An Operating System is system software that acts as an intermediary between users and computer hardware, managing resources efficiently.">
    <rect x="30" y="65" width="740" height="90" rx="10" fill="url(#blueGradient)" filter="url(#shadow)"/>
    <text x="50" y="85" fill="#1565c0" font-size="14" class="subtitle">What is an Operating System?</text>
    <text x="50" y="105" fill="#333" font-size="10" class="body">An OS is system software that manages computer hardware and software resources,</text>
    <text x="50" y="120" fill="#333" font-size="10" class="body">providing common services for programs. It acts as an intermediary between</text>
    <text x="50" y="135" fill="#333" font-size="10" class="body">users and hardware, making computers convenient and efficient to use.</text>
    <!-- Visual: User - OS - Hardware diagram -->
    <rect x="550" y="80" width="80" height="50" rx="8" fill="#fff" stroke="#1976d2" stroke-width="2"/>
    <text x="590" y="105" text-anchor="middle" fill="#1976d2" font-size="10" class="body">USER</text>
    <rect x="640" y="80" width="80" height="50" rx="8" fill="#fff" stroke="#4caf50" stroke-width="2"/>
    <text x="680" y="105" text-anchor="middle" fill="#388e3c" font-size="10" class="body">OS</text>
    <rect x="550" y="135" width="80" height="50" rx="8" fill="#fff" stroke="#ff9800" stroke-width="2"/>
    <text x="590" y="160" text-anchor="middle" fill="#f57c00" font-size="10" class="body">HARDWARE</text>
    <!-- Arrows -->
    <path d="M630 95 L640 95" stroke="#1976d2" stroke-width="2" marker-end="url(#arrowhead)"/>
    <path d="M595 130 L595 135" stroke="#1976d2" stroke-width="2" marker-end="url(#arrowhead)"/>
    <path d="M680 130 L680 135" stroke="#388e3c" stroke-width="2" marker-end="url(#arrowhead)"/>
  </g>
  
  <!-- Step 2: Goals of OS -->
  <g class="step" id="step2" data-narration="The primary goals of an OS are convenience - making computers easy to use, and efficiency - maximizing resource utilization.">
    <rect x="30" y="165" width="360" height="90" rx="10" fill="url(#greenGradient)" filter="url(#shadow)"/>
    <text x="50" y="185" fill="#2e7d32" font-size="14" class="subtitle">Primary Goals</text>
    <text x="50" y="205" fill="#333" font-size="10" class="body">🎯 Convenience</text>
    <text x="60" y="220" fill="#555" font-size="9" class="body">• Make computer easy to use</text>
    <text x="60" y="232" fill="#555" font-size="9" class="body">• Hide hardware complexity</text>
    <text x="60" y="244" fill="#555" font-size="9" class="body">• Provide user-friendly interface</text>
    
    <rect x="410" y="165" width="360" height="90" rx="10" fill="url(#orangeGradient)" filter="url(#shadow)"/>
    <text x="430" y="185" fill="#e65100" font-size="14" class="subtitle">⚡ Efficiency</text>
    <text x="440" y="205" fill="#333" font-size="10" class="body">• Maximize resource utilization</text>
    <text x="440" y="220" fill="#555" font-size="9" class="body">• Minimize hardware idle time</text>
    <text x="440" y="232" fill="#555" font-size="9" class="body">• Optimize CPU and memory usage</text>
    <text x="440" y="244" fill="#555" font-size="9" class="body">• Fair resource allocation</text>
  </g>
  
  <!-- Step 3: Functions of OS Overview -->
  <g class="step" id="step3" data-narration="An OS performs six major functions: Process Management, Memory Management, File System, I/O Management, Security, and Command Interpretation.">
    <rect x="30" y="270" width="740" height="85" rx="10" fill="url(#purpleGradient)" filter="url(#shadow)"/>
    <text x="50" y="290" fill="#6a1b9a" font-size="14" class="subtitle">Functions of an Operating System</text>
    <g transform="translate(50, 305)">
      <rect x="0" y="0" width="110" height="35" rx="5" fill="#fff" stroke="#9c27b0"/>
      <text x="55" y="15" text-anchor="middle" fill="#7b1fa2" font-size="9" class="body">Process</text>
      <text x="55" y="27" text-anchor="middle" fill="#7b1fa2" font-size="9" class="body">Management</text>
      
      <rect x="120" y="0" width="110" height="35" rx="5" fill="#fff" stroke="#9c27b0"/>
      <text x="175" y="15" text-anchor="middle" fill="#7b1fa2" font-size="9" class="body">Memory</text>
      <text x="175" y="27" text-anchor="middle" fill="#7b1fa2" font-size="9" class="body">Management</text>
      
      <rect x="240" y="0" width="110" height="35" rx="5" fill="#fff" stroke="#9c27b0"/>
      <text x="295" y="15" text-anchor="middle" fill="#7b1fa2" font-size="9" class="body">File System</text>
      <text x="295" y="27" text-anchor="middle" fill="#7b1fa2" font-size="9" class="body">Management</text>
      
      <rect x="360" y="0" width="110" height="35" rx="5" fill="#fff" stroke="#9c27b0"/>
      <text x="415" y="15" text-anchor="middle" fill="#7b1fa2" font-size="9" class="body">I/O Device</text>
      <text x="415" y="27" text-anchor="middle" fill="#7b1fa2" font-size="9" class="body">Management</text>
      
      <rect x="480" y="0" width="110" height="35" rx="5" fill="#fff" stroke="#9c27b0"/>
      <text x="535" y="15" text-anchor="middle" fill="#7b1fa2" font-size="9" class="body">Security &amp;</text>
      <text x="535" y="27" text-anchor="middle" fill="#7b1fa2" font-size="9" class="body">Protection</text>
      
      <rect x="600" y="0" width="110" height="35" rx="5" fill="#fff" stroke="#9c27b0"/>
      <text x="655" y="15" text-anchor="middle" fill="#7b1fa2" font-size="9" class="body">Command</text>
      <text x="655" y="27" text-anchor="middle" fill="#7b1fa2" font-size="9" class="body">Interpretation</text>
    </g>
  </g>
  
  <!-- Step 4: Process Management -->
  <g class="step" id="step4" data-narration="Process Management handles program execution, creating processes, scheduling CPU time, and managing inter-process communication and deadlocks.">
    <rect x="30" y="370" width="740" height="90" rx="10" fill="url(#blueGradient)" filter="url(#shadow)"/>
    <text x="50" y="390" fill="#1565c0" font-size="14" class="subtitle">1. Process Management</text>
    <text x="50" y="410" fill="#333" font-size="10" class="body">A process is a program in execution. The OS handles:</text>
    <text x="60" y="428" fill="#555" font-size="9" class="body">• Process creation and deletion</text>
    <text x="60" y="440" fill="#555" font-size="9" class="body">• Process scheduling - deciding which process runs when</text>
    <text x="60" y="452" fill="#555" font-size="9" class="body">• Process synchronization and inter-process communication</text>
    <!-- Visual -->
    <rect x="550" y="385" width="200" height="60" rx="8" fill="#fff" stroke="#1976d2"/>
    <text x="650" y="405" text-anchor="middle" fill="#1565c0" font-size="11" class="subtitle">Process States</text>
    <circle cx="600" y="430" r="12" fill="#4caf50"/>
    <text x="600" y="434" text-anchor="middle" fill="white" font-size="8" class="label">New</text>
    <circle cx="650" y="430" r="12" fill="#2196f3"/>
    <text x="650" y="434" text-anchor="middle" fill="white" font-size="8" class="label">Ready</text>
    <circle cx="700" y="430" r="12" fill="#ff9800"/>
    <text x="700" y="434" text-anchor="middle" fill="white" font-size="8" class="label">Running</text>
  </g>
  
  <!-- Step 5: Memory Management -->
  <g class="step" id="step5" data-narration="Memory Management efficiently controls the computer's RAM, allocating and deallocating memory, tracking usage, and implementing virtual memory.">
    <rect x="30" y="475" width="740" height="90" rx="10" fill="url(#greenGradient)" filter="url(#shadow)"/>
    <text x="50" y="495" fill="#2e7d32" font-size="14" class="subtitle">2. Memory Management</text>
    <text x="50" y="515" fill="#333" font-size="10" class="body">Efficiently manages the computer's main memory (RAM):</text>
    <text x="60" y="533" fill="#555" font-size="9" class="body">• Memory allocation and deallocation to processes</text>
    <text x="60" y="545" fill="#555" font-size="9" class="body">• Keep track of which memory locations are in use</text>
    <text x="60" y="557" fill="#555" font-size="9" class="body">• Implement virtual memory and memory protection</text>
    <!-- Visual: Memory blocks -->
    <rect x="520" y="490" width="180" height="60" rx="5" fill="#fff" stroke="#388e3c"/>
    <text x="610" y="510" text-anchor="middle" fill="#2e7d32" font-size="10" class="subtitle">RAM Allocation</text>
    <rect x="530" y="520" width="35" height="20" rx="2" fill="#81c784"/>
    <text x="547" y="533" text-anchor="middle" fill="#fff" font-size="7" class="label">P1</text>
    <rect x="570" y="520" width="35" height="20" rx="2" fill="#64b5f6"/>
    <text x="587" y="533" text-anchor="middle" fill="#fff" font-size="7" class="label">P2</text>
    <rect x="610" y="520" width="35" height="20" rx="2" fill="#ffb74d"/>
    <text x="627" y="533" text-anchor="middle" fill="#fff" font-size="7" class="label">P3</text>
    <rect x="650" y="520" width="40" height="20" rx="2" fill="#ba68c8"/>
    <text x="670" y="533" text-anchor="middle" fill="#fff" font-size="7" class="label">FREE</text>
  </g>
  
  <!-- Step 6: File System Management -->
  <g class="step" id="step6" data-narration="File System Management organizes and stores data on disk, handling file operations, directories, permissions, and disk space management.">
    <rect x="30" y="580" width="740" height="90" rx="10" fill="url(#orangeGradient)" filter="url(#shadow)"/>
    <text x="50" y="600" fill="#e65100" font-size="14" class="subtitle">3. File System Management</text>
    <text x="50" y="620" fill="#333" font-size="10" class="body">Organizes and stores data on storage devices:</text>
    <text x="60" y="638" fill="#555" font-size="9" class="body">• File creation, deletion, reading, and writing</text>
    <text x="60" y="650" fill="#555" font-size="9" class="body">• Directory structure management and file access control</text>
    <text x="60" y="662" fill="#555" font-size="9" class="body">• Disk space management and file backup</text>
    <!-- Visual: Directory structure -->
    <rect x="550" y="595" width="200" height="60" rx="8" fill="#fff" stroke="#ff9800"/>
    <text x="650" y="615" text-anchor="middle" fill="#e65100" font-size="10" class="subtitle">Directory Tree</text>
    <rect x="560" y="625" width="30" height="20" rx="3" fill="#ffcc80"/>
    <text x="575" y="638" text-anchor="middle" fill="#e65100" font-size="8" class="label">C:</text>
    <path d="M575 645 L575 650" stroke="#e65100" stroke-width="1"/>
    <rect x="545" y="652" width="25" height="15" rx="2" fill="#ffe0b2" stroke="#ff9800"/>
    <text x="557" y="662" text-anchor="middle" fill="#e65100" font-size="7" class="label">Users</text>
    <rect x="575" y="652" width="25" height="15" rx="2" fill="#ffe0b2" stroke="#ff9800"/>
    <text x="587" y="662" text-anchor="middle" fill="#e65100" font-size="7" class="label">Docs</text>
    <rect x="605" y="652" width="25" height="15" rx="2" fill="#ffe0b2" stroke="#ff9800"/>
    <text x="617" y="662" text-anchor="middle" fill="#e65100" font-size="7" class="label">Pics</text>
    <path d="M590 650 L605 652" stroke="#e65100" stroke-width="1"/>
    <path d="M620 650 L605 652" stroke="#e65100" stroke-width="1"/>
  </g>
  
  <!-- Step 7: I/O Device Management -->
  <g class="step" id="step7" data-narration="I/O Device Management controls input/output devices through drivers, buffering, caching, and spooling for efficient operation.">
    <rect x="30" y="685" width="740" height="90" rx="10" fill="url(#redGradient)" filter="url(#shadow)"/>
    <text x="50" y="705" fill="#c62828" font-size="14" class="subtitle">4. I/O Device Management</text>
    <text x="50" y="725" fill="#333" font-size="10" class="body">Manages input/output devices efficiently:</text>
    <text x="60" y="743" fill="#555" font-size="9" class="body">• Device driver management - software to control hardware</text>
    <text x="60" y="755" fill="#555" font-size="9" class="body">• Buffering and caching for faster data access</text>
    <text x="60" y="767" fill="#555" font-size="9" class="body">• Spooling - queuing print jobs for sequential processing</text>
    <!-- Visual: I/O devices -->
    <g transform="translate(520, 695)">
      <rect x="0" y="0" width="50" height="40" rx="5" fill="#fff" stroke="#e53935"/>
      <text x="25" y="18" text-anchor="middle" fill="#e53935" font-size="16">🖥️</text>
      <text x="25" y="32" text-anchor="middle" fill="#c62828" font-size="7" class="label">Monitor</text>
      
      <rect x="60" y="0" width="50" height="40" rx="5" fill="#fff" stroke="#e53935"/>
      <text x="85" y="18" text-anchor="middle" fill="#e53935" font-size="16">⌨️</text>
      <text x="85" y="32" text-anchor="middle" fill="#c62828" font-size="7" class="label">Keyboard</text>
      
      <rect x="120" y="0" width="50" height="40" rx="5" fill="#fff" stroke="#e53935"/>
      <text x="145" y="18" text-anchor="middle" fill="#e53935" font-size="16">🖨️</text>
      <text x="145" y="32" text-anchor="middle" fill="#c62828" font-size="7" class="label">Printer</text>
      
      <rect x="60" y="50" width="50" height="40" rx="5" fill="#fff" stroke="#e53935"/>
      <text x="85" y="68" text-anchor="middle" fill="#e53935" font-size="16">💾</text>
      <text x="85" y="82" text-anchor="middle" fill="#c62828" font-size="7" class="label">Storage</text>
    </g>
  </g>
  
  <!-- Step 8: Security and Protection -->
  <g class="step" id="step8" data-narration="Security protects the system from attacks through authentication, access control, encryption, and malware protection mechanisms.">
    <rect x="30" y="790" width="740" height="90" rx="10" fill="url(#purpleGradient)" filter="url(#shadow)"/>
    <text x="50" y="810" fill="#6a1b9a" font-size="14" class="subtitle">5. Security and Protection</text>
    <text x="50" y="830" fill="#333" font-size="10" class="body">Defends system from threats and controls resource access:</text>
    <text x="60" y="848" fill="#555" font-size="9" class="body">• User authentication (login/password, biometrics)</text>
    <text x="60" y="860" fill="#555" font-size="9" class="body">• Access control and file permissions</text>
    <text x="60" y="872" fill="#555" font-size="9" class="body">• Encryption, firewall, and malware protection</text>
    <!-- Visual: Shield -->
    <path d="M680 810 L680 860 Q680 890 720 890 Q760 890 760 860 L760 810 L720 820 Z" fill="#7b1fa2" opacity="0.3"/>
    <path d="M690 815 L690 855 Q690 875 720 875 Q750 875 750 855 L750 815 L720 823 Z" fill="#9c27b0"/>
    <text x="720" y="855" text-anchor="middle" fill="white" font-size="20">🔒</text>
  </g>
  
  <!-- Step 9: Command Interpretation -->
  <g class="step" id="step9" data-narration="Command Interpretation provides the interface between users and the system through CLI text commands or GUI visual elements.">
    <rect x="30" y="895" width="740" height="90" rx="10" fill="url(#blueGradient)" filter="url(#shadow)"/>
    <text x="50" y="915" fill="#1565c0" font-size="14" class="subtitle">6. Command Interpretation</text>
    <text x="50" y="935" fill="#333" font-size="10" class="body">Interface between user and system:</text>
    <!-- CLI -->
    <rect x="50" y="945" width="320" height="30" rx="5" fill="#1a1a1a"/>
    <text x="60" y="962" fill="#00ff00" font-family="monospace" font-size="11">$ ls -la file.txt</text>
    <text x="250" y="962" fill="#888" font-size="8" class="body">(CLI - Command Line)</text>
    <!-- GUI -->
    <rect x="400" y="945" width="180" height="30" rx="5" fill="#fff" stroke="#1976d2"/>
    <rect x="405" y="950" width="20" height="20" rx="3" fill="#e3f2fd"/>
    <text x="430" y="963" fill="#1565c0" font-size="9">File Explorer</text>
    <text x="520" y="963" fill="#888" font-size="8">(GUI - Graphical)</text>
  </g>
  
  <!-- Step 10: Types of OS Overview -->
  <g class="step" id="step10" data-narration="Operating systems are categorized into types: Batch, Time-Sharing, Distributed, Real-Time, Network, and Mobile - each for different purposes.">
    <rect x="30" y="1000" width="740" height="85" rx="10" fill="url(#greenGradient)" filter="url(#shadow)"/>
    <text x="50" y="1020" fill="#2e7d32" font-size="14" class="subtitle">Types of Operating Systems</text>
    <g transform="translate(50, 1035)">
      <rect x="0" y="0" width="110" height="35" rx="5" fill="#fff" stroke="#388e3c"/>
      <text x="55" y="15" text-anchor="middle" fill="#2e7d32" font-size="9" class="body">Batch</text>
      <text x="55" y="27" text-anchor="middle" fill="#2e7d32" font-size="8" class="label">Processing</text>
      
      <rect x="120" y="0" width="110" height="35" rx="5" fill="#fff" stroke="#388e3c"/>
      <text x="175" y="15" text-anchor="middle" fill="#2e7d32" font-size="9" class="body">Time-Sharing</text>
      <text x="175" y="27" text-anchor="middle" fill="#2e7d32" font-size="8" class="label">(Multitasking)</text>
      
      <rect x="240" y="0" width="110" height="35" rx="5" fill="#fff" stroke="#388e3c"/>
      <text x="295" y="15" text-anchor="middle" fill="#2e7d32" font-size="9" class="body">Distributed</text>
      <text x="295" y="27" text-anchor="middle" fill="#2e7d32" font-size="8" class="label">Network OS</text>
      
      <rect x="360" y="0" width="110" height="35" rx="5" fill="#fff" stroke="#388e3c"/>
      <text x="415" y="15" text-anchor="middle" fill="#2e7d32" font-size="9" class="body">Real-Time</text>
      <text x="415" y="27" text-anchor="middle" fill="#2e7d32" font-size="8" class="label">Time-critical</text>
      
      <rect x="480" y="0" width="110" height="35" rx="5" fill="#fff" stroke="#388e3c"/>
      <text x="535" y="15" text-anchor="middle" fill="#2e7d32" font-size="9" class="body">Network</text>
      <text x="535" y="27" text-anchor="middle" fill="#2e7d32" font-size="8" class="label">Server OS</text>
      
      <rect x="600" y="0" width="110" height="35" rx="5" fill="#fff" stroke="#388e3c"/>
      <text x="655" y="15" text-anchor="middle" fill="#2e7d32" font-size="9" class="body">Mobile</text>
      <text x="655" y="27" text-anchor="middle" fill="#2e7d32" font-size="8" class="label">Touch OS</text>
    </g>
  </g>
  
  <!-- Step 11: Time-Sharing vs Real-Time -->
  <g class="step" id="step11" data-narration="Time-sharing systems let multiple users share the CPU with time slices. Real-time systems have strict deadlines - hard for critical systems, soft for tolerable delays.">
    <rect x="30" y="1100" width="360" height="90" rx="10" fill="url(#orangeGradient)" filter="url(#shadow)"/>
    <text x="50" y="1120" fill="#e65100" font-size="14" class="subtitle">Time-Sharing OS</text>
    <text x="50" y="1140" fill="#333" font-size="10" class="body">Multiple users share CPU simultaneously:</text>
    <text x="60" y="1158" fill="#555" font-size="9" class="body">• CPU time divided into time slices</text>
    <text x="60" y="1170" fill="#555" font-size="9" class="body">• Each user gets a turn rapidly</text>
    <text x="60" y="1182" fill="#555" font-size="9" class="body">• Examples: Unix, Linux, Windows</text>
    <!-- Time slice visual -->
    <rect x="300" y="1125" width="70" height="55" rx="5" fill="#fff" stroke="#ff9800"/>
    <text x="335" y="1142" text-anchor="middle" fill="#e65100" font-size="8" class="body">Time Slices</text>
    <rect x="308" y="1150" width="12" height="8" rx="2" fill="#4caf50"/>
    <rect x="322" y="1150" width="12" height="8" rx="2" fill="#2196f3"/>
    <rect x="336" y="1150" width="12" height="8" rx="2" fill="#ff9800"/>
    <rect x="350" y="1150" width="12" height="8" rx="2" fill="#9c27b0"/>
    
    <rect x="410" y="1100" width="360" height="90" rx="10" fill="url(#redGradient)" filter="url(#shadow)"/>
    <text x="430" y="1120" fill="#c62828" font-size="14" class="subtitle">Real-Time OS</text>
    <text x="430" y="1140" fill="#333" font-size="10" class="body">Time-critical applications with deadlines:</text>
    <text x="440" y="1158" fill="#555" font-size="9" class="body">• Hard Real-Time: Missing deadline = catastrophe</text>
    <text x="440" y="1170" fill="#555" font-size="9" class="body">  (airbags, pacemakers)</text>
    <text x="440" y="1182" fill="#555" font-size="9" class="body">• Soft Real-Time: Occasional delay okay (gaming)</text>
  </g>
  
  <!-- Step 12: OS Structure -->
  <g class="step" id="step12" data-narration="The OS has a layered structure: Hardware at the base, then Kernel, System Calls, Services, Programs, and finally User Applications at the top.">
    <rect x="30" y="1205" width="740" height="90" rx="10" fill="url(#purpleGradient)" filter="url(#shadow)"/>
    <text x="50" y="1225" fill="#6a1b9a" font-size="14" class="subtitle">Operating System Structure</text>
    <!-- Layer diagram -->
    <g transform="translate(200, 1240)">
      <rect x="0" y="0" width="400" height="12" rx="2" fill="#e3f2fd" stroke="#1976d2"/>
      <text x="200" y="9" text-anchor="middle" fill="#1565c0" font-size="7" class="label">User Applications</text>
      
      <rect x="10" y="14" width="380" height="12" rx="2" fill="#e8f5e9" stroke="#388e3c"/>
      <text x="200" y="23" text-anchor="middle" fill="#2e7d32" font-size="7" class="label">System Programs (Utilities)</text>
      
      <rect x="20" y="28" width="360" height="12" rx="2" fill="#fff3e0" stroke="#ff9800"/>
      <text x="200" y="37" text-anchor="middle" fill="#e65100" font-size="7" class="label">OS Services (Process, Memory, File, I/O Mgmt)</text>
      
      <rect x="30" y="42" width="340" height="12" rx="2" fill="#fce4ec" stroke="#e91e63"/>
      <text x="200" y="51" text-anchor="middle" fill="#c2185b" font-size="7" class="label">System Calls (API)</text>
      
      <rect x="40" y="56" width="320" height="12" rx="2" fill="#f3e5f5" stroke="#9c27b0"/>
      <text x="200" y="65" text-anchor="middle" fill="#7b1fa2" font-size="7" class="label">Kernel (Core)</text>
      
      <rect x="50" y="70" width="300" height="12" rx="2" fill="#eceff1" stroke="#607d8b"/>
      <text x="200" y="79" text-anchor="middle" fill="#455a64" font-size="7" class="label">Hardware (CPU, Memory, I/O)</text>
    </g>
  </g>
  
  <!-- Step 13: System Calls -->
  <g class="step" id="step13" data-narration="System calls are the programming interface between user programs and OS services, including process control, file management, and device operations.">
    <rect x="30" y="1310" width="740" height="85" rx="10" fill="url(#blueGradient)" filter="url(#shadow)"/>
    <text x="50" y="1330" fill="#1565c0" font-size="14" class="subtitle">System Calls - Programming Interface</text>
    <text x="50" y="1350" fill="#333" font-size="10" class="body">Types of System Calls:</text>
    <g transform="translate(50, 1360)">
      <rect x="0" y="0" width="145" height="22" rx="4" fill="#fff" stroke="#1976d2"/>
      <text x="72" y="13" text-anchor="middle" fill="#1565c0" font-size="9" class="body">Process Control</text>
      <text x="135" y="13" fill="#666" font-size="7">fork(), exit()</text>
      
      <rect x="155" y="0" width="145" height="22" rx="4" fill="#fff" stroke="#1976d2"/>
      <text x="227" y="13" text-anchor="middle" fill="#1565c0" font-size="9" class="body">File Management</text>
      <text x="288" y="13" fill="#666" font-size="7">open(), read()</text>
      
      <rect x="310" y="0" width="145" height="22" rx="4" fill="#fff" stroke="#1976d2"/>
      <text x="382" y="13" text-anchor="middle" fill="#1565c0" font-size="9" class="body">Device Management</text>
      <text x="443" y="13" fill="#666" font-size="7">ioctl(), read()</text>
      
      <rect x="465" y="0" width="145" height="22" rx="4" fill="#fff" stroke="#1976d2"/>
      <text x="537" y="13" text-anchor="middle" fill="#1565c0" font-size="9" class="body">Communication</text>
      <text x="598" y="13" fill="#666" font-size="7">pipe(), mmap()</text>
    </g>
    <!-- Code example -->
    <rect x="580" y="1325" width="170" height="55" rx="5" fill="#1a1a1a"/>
    <text x="590" y="1342" fill="#00ff00" font-family="monospace" font-size="9">#include &lt;unistd.h&gt;</text>
    <text x="590" y="1356" fill="#00ff00" font-family="monospace" font-size="9">int main() {</text>
    <text x="605" y="1368" fill="#00ff00" font-family="monospace" font-size="9">pid_t pid = fork();</text>
    <text x="590" y="1380" fill="#00ff00" font-family="monospace" font-size="9">  return 0;</text>
  </g>
  
  <!-- Step 14: Key Takeaways Summary -->
  <g class="step" id="step14" data-narration="In summary: OS acts as an intermediary, provides convenience and efficiency, manages processes, memory, files, and I/O, and comes in various types.">
    <rect x="30" y="1410" width="740" height="75" rx="10" fill="url(#layerGradient)"/>
    <text x="400" y="1432" text-anchor="middle" fill="white" font-size="16" class="subtitle">Key Takeaways</text>
    <g transform="translate(50, 1450)">
      <text x="0" y="0" fill="white" font-size="10" class="body">✓ OS = Intermediate between users and hardware</text>
      <text x="250" y="0" fill="white" font-size="10" class="body">✓ Goals: Convenience + Efficiency</text>
      <text x="500" y="0" fill="white" font-size="10" class="body">✓ 6 Main Functions</text>
      <text x="0" y="15" fill="white" font-size="10" class="body">✓ Types: Batch, Time-Sharing, Distributed, RTOS</text>
      <text x="250" y="15" fill="white" font-size="10" class="body">✓ Layered Structure: Hardware → Kernel → Apps</text>
      <text x="500" y="15" fill="white" font-size="10" class="body">✓ System Calls provide API</text>
    </g>
  </g>
  
  <!-- Step 15: Examples -->
  <g class="step" id="step15" data-narration="Common OS examples include Windows, Linux, macOS for computers, Android and iOS for mobile, and VxWorks for embedded real-time systems.">
    <rect x="30" y="1500" width="740" height="50" rx="10" fill="url(#greenGradient)" filter="url(#shadow)"/>
    <text x="50" y="1520" fill="#2e7d32" font-size="14" class="subtitle">Examples of Operating Systems</text>
    <g transform="translate(50, 1535)">
      <rect x="0" y="0" width="80" height="10" rx="3" fill="#0078d4"/>
      <text x="40" y="8" text-anchor="middle" fill="white" font-size="7" class="label">Windows</text>
      <rect x="90" y="0" width="80" height="10" rx="3" fill="#f57c00"/>
      <text x="130" y="8" text-anchor="middle" fill="white" font-size="7" class="label">Linux</text>
      <rect x="180" y="0" width="80" height="10" rx="3" fill="#757575"/>
      <text x="220" y="8" text-anchor="middle" fill="white" font-size="7" class="label">macOS</text>
      <rect x="270" y="0" width="80" height="10" rx="3" fill="#3ddc84"/>
      <text x="310" y="8" text-anchor="middle" fill="white" font-size="7" class="label">Android</text>
      <rect x="360" y="0" width="80" height="10" rx="3" fill="#000"/>
      <text x="400" y="8" text-anchor="middle" fill="white" font-size="7" class="label">iOS</text>
      <rect x="450" y="0" width="80" height="10" rx="3" fill="#6a1b9a"/>
      <text x="490" y="8" text-anchor="middle" fill="white" font-size="7" class="label">Unix</text>
      <rect x="540" y="0" width="80" height="10" rx="3" fill="#c62828"/>
      <text x="580" y="8" text-anchor="middle" fill="white" font-size="7" class="label">VxWorks</text>
      <rect x="630" y="0" width="80" height="10" rx="3" fill="#00838f"/>
      <text x="670" y="8" text-anchor="middle" fill="white" font-size="7" class="label">FreeRTOS</text>
    </g>
  </g>
</svg>