<svg width="420" height="400" viewBox="0 0 420 400" data-topic-id="warshalls-and-floyds-algorithms" xmlns="http://www.w3.org/2000/svg">
    <desc>Animated Educational Diagram for Warshall's and Floyd's Algorithms</desc>
    <title>Warshall's and Floyd's Algorithms</title>
    <defs>
        <linearGradient id="gradient" x1="0%" y1="0%" x2="100%" y2="0%">
            <stop offset="0%" stop-color="#ADD8E6"/>
            <stop offset="100%" stop-color="#6495ED"/>
        </linearGradient>
    </defs>
    <rect x="10" y="10" width="400" height="380" fill="url(#gradient)"/>
    <g transform="translate(20, 20)">
        <rect x="0" y="0" width="100" height="100" rx="10" fill="#F0F0F0"/>
        <rect x="120" y="0" width="100" height="100" rx="10" fill="#F0F0F0"/>
        <rect x="240" y="0" width="100" height="100" rx="10" fill="#F0F0F0"/>
        <rect x="0" y="120" width="100" height="100" rx="10" fill="#F0F0F0"/>
        <rect x="120" y="120" width="100" height="100" rx="10" fill="#F0F0F0"/>
        <rect x="240" y="120" width="100" height="100" rx="10" fill="#F0F0F0"/>
        <rect x="0" y="240" width="100" height="100" rx="10" fill="#F0F0F0"/>
        <rect x="120" y="240" width="100" height="100" rx="10" fill="#F0F0F0"/>
        <rect x="240" y="240" width="100" height="100" rx="10" fill="#F0F0F0"/>
    </g>
    <g transform="translate(120, 120)">
        <rect x="0" y="0" width="50" height="20" fill="#3498DB"/>
        <rect x="0" y="25" width="50" height="20" fill="#66CDAA"/>
        <rect x="0" y="50" width="50" height="20" fill="#F1C40F"/>
        <rect x="0" y="75" width="50" height="20" fill="#E74C3C"/>
        <rect x="0" y="100" width="50" height="20" fill="#2ECC71"/>
    </g>
    <g transform="translate(240, 120)">
        <rect x="0" y="0" width="50" height="20" fill="#3498DB"/>
        <rect x="0" y="25" width="50" height="20" fill="#66CDAA"/>
        <rect x="0" y="50" width="50" height="20" fill="#F1C40F"/>
        <rect x="0" y="75" width="50" height="20" fill="#E74C3C"/>
        <rect x="0" y="100" width="50" height="20" fill="#2ECC71"/>
    </g>
    <g transform="translate(360, 120)">
        <rect x="0" y="0" width="50" height="20" fill="#3498DB"/>
        <rect x="0" y="25" width="50" height="20" fill="#66CDAA"/>
        <rect x="0" y="50" height="20" fill="#F1C40F"/>
        <rect x="0" y="75" width="50" height="20" fill="#E74C3C"/>
        <rect x="0" y="100" width="50" height="20" fill="#2ECC71"/>
    </g>
    <g transform="translate(180, 280)">
        <text x="10" y="20" font-size="24" font-family="Arial" fill="#333333" data-narration="Warshall's Algorithm">
            Warshall's Algorithm
        </text>
        <animate transform="rotate(360 10 20)" begin="0s" dur="30s" repeatCount="indefinite"/>
    </g>
    <g transform="translate(300, 280)">
        <text x="10" y="20" font-size="24" font-family="Arial" fill="#333333" data-narration="Floyd's Algorithm">
            Floyd's Algorithm
        </text>
        <animate transform="rotate(360 10 20)" begin="30s" dur="30s" repeatCount="indefinite"/>
    </g>
    <g transform="translate(420, 280)">
        <text x="10" y="20" font-size="24" font-family="Arial" fill="#333333" data-narration="Shortest Path Between All Pairs of Vertices">
            Shortest Path Between All Pairs of Vertices
        </text>
        <animate transform="rotate(360 10 20)" begin="60s" dur="30s" repeatCount="indefinite"/>
    </g>
    <g transform="translate(120, 180)">
        <rect x="0" y="0" width="100" height="100" rx="10" fill="#F0F0F0"/>
        <rect x="0" y="120" width="100" height="100" rx="10" fill="#F0F0F0"/>
        <rect x="0" y="240" width="100" height="100" rx="10" fill="#F0F0F0"/>
        <rect x="120" y="0" width="100" height="100" rx="10" fill="#F0F0F0"/>
        <rect x="120" y="120" width="100" height="100" rx="10" fill="#F0F0F0"/>
        <rect x="120" y="240" width="100" height="100" rx="10" fill="#F0F0F0"/>
        <rect x="240" y="0" width="100" height="100" rx="10" fill="#F0F0F0"/>
        <rect x="240" y="120" width="100" height="100" rx="10" fill="#F0F0F0"/>
        <rect x="240" y="240" width="100" height="100" rx="10" fill="#F0F0F0"/>
    </g>
    <g transform="translate(300, 180)">
        <rect x="0" y="0" width="100" height="100" rx="10" fill="#F0F0F0"/>
        <rect x="0" y="120" width="100" height="100" rx="10" fill="#F0F0F0"/>
        <rect x="0" y="240" width="100" height="100" rx="10" fill="#F0F0F0"/>
        <rect x="120" y="0" width="100" height="100" rx="10" fill="#F0F0F0"/>
        <rect x="120" y="120" width="100" height="100" rx="10" fill="#F0F0F0"/>
        <rect x="120" y="240" width="100" height="100" rx="10" fill="#F0F0F0"/>
        <rect x="240" y="0" width="100" height="100" rx="10" fill="#F0F0F0"/>
        <rect x="240" y="120" width="100" height="100" rx="10" fill="#F0F0F0"/>
        <rect x="240" y="240" width="100" height="100" rx="10" fill="#F0F0F0"/>
    </g>
    <g transform="translate(420, 180)">
        <rect x="0" y="0" width="100" height="100" rx="10" fill="#F0F0F0"/>
        <rect x="0" y="120" width="100" height="100" rx="10" fill="#F0F0F0"/>
        <rect x="0" y="240" width="100" height="100" rx="10" fill="#F0F0F0"/>
        <rect x="120" y="0" width="100" height="100" rx="10" fill="#F0F0F0"/>
        <rect x="120" y="120" width="100" height="100" rx="10" fill="#F0F0F0"/>
        <rect x="120" y="240" width="100" height="100" rx="10" fill="#F0F0F0"/>
        <rect x="240" y="0" width="100" height="100" rx="10" fill="#F0F0F0"/>
        <rect x="240" y="120" width="100" height="100" rx="10" fill="#F0F0F0"/>
        <rect x="240" y="240" width="100" height="100" rx="10" fill="#F0F0F0"/>
    </g>
    <g transform="translate(180, 250)">
        <rect x="0" y="0" width="50" height="20" fill="#3498DB"/>
        <rect x="0" y="25" width="50" height="20" fill="#66CDAA"/>
        <rect x="0" y="50" width="50" height="20" fill="#F1C40F"/>
        <rect x="0" y="75" width="50" height="20" fill="#E74C3C"/>
        <rect x="0" y="100" width="50" height="20" fill="#2ECC71"/>
    </g>
    <g transform="translate(300, 250)">
        <rect x="0" y="0" width="50" height="20" fill="#3498DB"/>
        <rect x="0" y="25" width="50" height="20" fill="#66CDAA"/>
        <rect x="0" y="50" width="50" height="20" fill="#F1C40F"/>
        <rect x="0" y="75" width="50" height="20" fill="#E74C3C"/>
        <rect x="0" y="100" width="50" height="20" fill="#2ECC71"/>
    </g>
    <g transform="translate(420, 250)">
        <rect x="0" y="0" width="50" height="20" fill="#3498DB"/>
        <rect x="0" y="25" width="50" height="20" fill="#66CDAA"/>
        <rect x="0" y="50" width="50" height="20" fill="#F1C40F"/>
        <rect x="0" y="75" width="50" height="20" fill="#E74C3C"/>
        <rect x="0" y="100" width="50" height="20" fill="#2ECC71"/>
    </g>
    <g transform="translate(180, 320)">
        <text x="10" y="20" font-size="24" font-family="Arial" fill="#333333" data-narration="Dynamic Programming">
            Dynamic Programming
        </text>
        <animate transform="rotate(360 10 20)" begin="0s" dur="30s" repeatCount="indefinite"/>
    </g>
    <g transform="translate(300, 320)">
        <text x="10" y="20" font-size="24" font-family="Arial" fill="#333333" data-narration="Consider All Possible Paths">
            Consider All Possible Paths
        </text>
        <animate transform="rotate(360 10 20)" begin="30s" dur="30s" repeatCount="indefinite"/>
    </g>
    <g transform="translate(420, 320)">
        <text x="10" y="20" font-size="24" font-family="Arial" fill="#333333" data-narration="Iterate Over All Vertices">
            Iterate Over All Vertices
        </text>
        <animate transform="rotate(360 10 20)" begin="60s" dur="30s" repeatCount="indefinite"/>
    </g>
    <g transform="translate(360, 400)">
        <text x="10" y="20" font-size="24" font-family="Arial" fill="#333333" data-narration="Store Shortest Paths">
            Store Shortest Paths
        </text>
        <animate transform="rotate(360 10 20)" begin="0s" dur="30s" repeatCount="infinite"/>
    </g>
    <g transform="translate(300, 400)">
        <text x="10" y="20" font-size="24" font-family="Arial" fill="#333333" data-narration="Shortest Path Between All Pairs of Vertices">
            Shortest Path Between All Pairs of Vertices
        </text>
        <animate transform="rotate(360 10 20)" begin="30s" dur="30s" repeatCount="infinite"/>
    </g>
</svg>