<svg width="420" height="400" data-topic-id="Protection-and-Security" xmlns="http://www.w3.org/2000/svg"
     xmlns:xlink="http://www.w3.org/1999/xlink" viewBox="0 0 420 400" data-filename="Protection-and-Security">
    <desc>Protection and Security Diagram</desc>
    <defs>
        <linearGradient id="grad1" x1="0%" y1="0%" x2="100%" y2="0%">
            <stop offset="0%" stop-color="#66CCCC" stop-opacity="1"/>
            <stop offset="100%" stop-color="#0099CC" stop-opacity="1"/>
        </linearGradient>
    </defs>
    <title>Protection and Security</title>
    <g>
        <rect width="420" height="50" rx="10" fill="#D9E3F5"/>
        <rect x="10" y="60" width="400" height="300" rx="10" fill="url(#grad1)"/>
        <g>
            <path d="M 10,70 L 30,70 L 30,90 L 10,90 Z" stroke="#D9E3F5" stroke-width="2" fill="none"/>
            <g>
                <path d="M 110,70 L 130,70 L 130,90 L 110,90 Z" stroke="#D9E3F5" stroke-width="2" fill="none"/>
            </g>
            <g>
                <path d="M 210,70 L 230,70 L 230,90 L 210,90 Z" stroke="#D9E3F5" stroke-width="2" fill="none"/>
            </g>
        </g>
        <g>
            <rect x="10" y="120" width="40" height="20" rx="10" fill="#FFCC99"/>
            <g>
                <animateTransform attributeName="transform" type="translate" from="0 120" to="40 120" dur="1s" begin="0s"/>
                <path d="M 10,110 L 30,110 L 30,130 L 10,130 Z" stroke="#D9E3F5" stroke-width="2" fill="none"/>
                <g>
                    <path d="M 13,115 L 23,115 L 23,135 L 13,135 Z" stroke="#D9E3F5" stroke-width="2" fill="none"/>
                </g>
                <g>
                    <path d="M 17,110 L 27,110 L 27,130 L 17,130 Z" stroke="#D9E3F5" stroke-width="2" fill="none"/>
                </g>
            </g>
            <g>
                <rect x="10" y="150" width="40" height="20" rx="10" fill="#FFCC99"/>
                <g>
                    <animateTransform attributeName="transform" type="translate" from="0 150" to="40 150" dur="1s" begin="0.5s"/>
                    <path d="M 10,140 L 30,140 L 30,160 L 10,160 Z" stroke="#D9E3F5" stroke-width="2" fill="none"/>
                    <g>
                        <path d="M 13,135 L 23,135 L 23,155 L 13,155 Z" stroke="#D9E3F5" stroke-width="2" fill="none"/>
                    </g>
                    <g>
                        <path d="M 17,130 L 27,130 L 27,150 L 17,150 Z" stroke="#D9E3F5" stroke-width="2" fill="none"/>
                    </g>
                </g>
            </g>
        </g>
        <g>
            <rect x="10" y="200" width="140" height="20" rx="10" fill="#0099CC"/>
            <path d="M 10,190 L 150,190 L 150,210 L 10,210 Z" stroke="#D9E3F5" stroke-width="2" fill="none"/>
            <g>
                <path d="M 20,195 L 130,195 L 130,215 L 20,215 Z" stroke="#D9E3F5" stroke-width="2" fill="none"/>
                <g>
                    <path d="M 30,190 L 140,190 L 140,210 L 30,210 Z" stroke="#D9E3F5" stroke-width="2" fill="none"/>
                </g>
                <g>
                    <path d="M 40,185 L 150,185 L 150,205 L 40,205 Z" stroke="#D9E3F5" stroke-width="2" fill="none"/>
                </g>
            </g>
            <g>
                <path d="M 50,180 L 140,180 L 140,200 L 50,200 Z" stroke="#D9E3F5" stroke-width="2" fill="none"/>
                <g>
                    <path d="M 60,175 L 140,175 L 140,195 L 60,195 Z" stroke="#D9E3F5" stroke-width="2" fill="none"/>
                </g>
                <g>
                    <path d="M 70,170 L 140,170 L 140,190 L 70,190 Z" stroke="#D9E3F5" stroke-width="2" fill="none"/>
                </g>
            </g>
        </g>
        <g>
            <rect x="10" y="250" width="140" height="20" rx="10" fill="#FF9900"/>
            <path d="M 10,240 L 150,240 L 150,260 L 10,260 Z" stroke="#D9E3F5" stroke-width="2" fill="none"/>
            <g>
                <path d="M 20,235 L 130,235 L 130,255 L 20,255 Z" stroke="#D9E3F5" stroke-width="2" fill="none"/>
                <g>
                    <path d="M 30,230 L 140,230 L 140,250 L 30,250 Z" stroke="#D9E3F5" stroke-width="2" fill="none"/>
                </g>
                <g>
                    <path d="M 40,225 L 140,225 L 140,245 L 40,245 Z" stroke="#D9E3F5" stroke-width="2" fill="none"/>
                </g>
            </g>
            <g>
                <path d="M 50,220 L 140,220 L 140,240 L 50,240 Z" stroke="#D9E3F5" stroke-width="2" fill="none"/>
                <g>
                    <path d="M 60,215 L 140,215 L 140,235 L 60,235 Z" stroke="#D9E3F5" stroke-width="2" fill="none"/>
                </g>
                <g>
                    <path d="M 70,210 L 140,210 L 140,230 L 70,230 Z" stroke="#D9E3F5" stroke-width="2" fill="none"/>
                </g>
            </g>
        </g>
        <g>
            <rect x="10" y="310" width="140" height="20" rx="10" fill="#0099CC"/>
            <path d="M 10,300 L 150,300 L 150,320 L 10,320 Z" stroke="#D9E3F5" stroke-width="2" fill="none"/>
            <g>
                <path d="M 20,295 L 130,295 L 130,315 L 20,315 Z" stroke="#D9E3F5" stroke-width="2" fill="none"/>
                <g>
                    <path d="M 30,290 L 140,290 L 140,310 L 30,310 Z" stroke="#D9E3F5" stroke-width="2" fill="none"/>
                </g>
                <g>
                    <path d="M 40,285 L 140,285 L 140,305 L 40,305 Z" stroke="#D9E3F5" stroke-width="2" fill="none"/>
                </g>
            </g>
            <g>
                <path d="M 50,280 L 140,280 L 140,300 L 50,300 Z" stroke="#D9E3F5" stroke-width="2" fill="none"/>
                <g>
                    <path d="M 60,275 L 140,275 L 140,295 L 60,295 Z" stroke="#D9E3F5" stroke-width="2" fill="none"/>
                </g>
                <g>
                    <path d="M 70,270 L 140,270 L 140,290 L 70,290 Z" stroke="#D9E3F5" stroke-width="2" fill="none"/>
                </g>
            </g>
        </g>
        <g>
            <text x="20" y="50" font-size="24" text-anchor="middle" fill="#D9E3F5">Linux Kernel Security</text>
            <text x="30" y="100" font-size="18" text-anchor="middle" fill="#D9E3F5">Application Sandbox</text>
            <text x="30" y="150" font-size="18" text-anchor="middle" fill="#D9E3F5">Permission System</text>
            <text x="30" y="200" font-size="18" text-anchor="middle" fill="#D9E3F5">Secure Inter-Process Communication</text>
            <text x="30" y="250" font-size="18" text-anchor="middle" fill="#D9E3F5">Application Signing</text>
        </g>
        <g>
            <text x="20" y="320" font-size="24" text-anchor="middle" fill="#D9E3F5">OWASP Mobile Top 10</text>
            <text x="30" y="370" font-size="18" text-anchor="middle" fill="#D9E3F5">Improper Platform Usage</text>
            <text x="30" y="410" font-size="18" text-anchor="middle" fill="#D9E3F5">Insecure Data Storage</text>
        </g>
    </g>
</svg>