<svg xmlns="http://www.w3.org/2000/svg" viewBox="0 0 800 1700">
  <defs>
    <!-- Gradients -->
    <linearGradient id="titleGrad" x1="0%" y1="0%" x2="100%" y2="100%">
      <stop offset="0%" style="stop-color:#1565c0"/>
      <stop offset="100%" style="stop-color:#0d47a1"/>
    </linearGradient>
    <linearGradient id="sectionGrad" x1="0%" y1="0%" x2="100%" y2="0%">
      <stop offset="0%" style="stop-color:#e3f2fd"/>
      <stop offset="100%" style="stop-color:#bbdefb"/>
    </linearGradient>
    <linearGradient id="kmapGrad" x1="0%" y1="0%" x2="100%" y2="100%">
      <stop offset="0%" style="stop-color:#fff8e1"/>
      <stop offset="100%" style="stop-color:#ffecb3"/>
    </linearGradient>
    <linearGradient id="oneGrad" x1="0%" y1="0%" x2="100%" y2="100%">
      <stop offset="0%" style="stop-color:#c8e6c9"/>
      <stop offset="100%" style="stop-color:#a5d6a7"/>
    </linearGradient>
    <linearGradient id="zeroGrad" x1="0%" y1="0%" x2="100%" y2="100%">
      <stop offset="0%" style="stop-color:#ffcdd2"/>
      <stop offset="100%" style="stop-color:#ef9a9a"/>
    </linearGradient>
    <linearGradient id="groupGrad" x1="0%" y1="0%" x2="100%" y2="100%">
      <stop offset="0%" style="stop-color:#b3e5fc"/>
      <stop offset="100%" style="stop-color:#81d4fa"/>
    </linearGradient>
    
    <!-- Arrow marker -->
    <marker id="arrowHead" markerWidth="10" markerHeight="7" refX="9" refY="3.5" orient="auto">
      <polygon points="0 0, 10 3.5, 0 7" fill="#1976d2"/>
    </marker>
    
    <!-- Shadow filter -->
    <filter id="shadow" x="-20%" y="-20%" width="140%" height="140%">
      <feDropShadow dx="2" dy="2" stdDeviation="3" flood-color="#000" flood-opacity="0.15"/>
    </filter>
  </defs>
  
  <style>
    @keyframes fadeInSlide {
      from { opacity: 0; transform: translateY(20px); }
      to { opacity: 1; transform: translateY(0); }
    }
    @keyframes scaleIn {
      from { opacity: 0; transform: scale(0.85); }
      to { opacity: 1; transform: scale(1); }
    }
    @keyframes textReveal {
      from { opacity: 0; transform: translateX(-10px); }
      to { opacity: 1; transform: translateX(0); }
    }
    @keyframes pulse {
      0%, 100% { transform: scale(1); }
      50% { transform: scale(1.03); }
    }
    @keyframes drawLine {
      from { stroke-dashoffset: 500; }
      to { stroke-dashoffset: 0; }
    }
    .step { animation: fadeInSlide 0.6s ease-out; }
    .step rect {
      animation: scaleIn 0.5s cubic-bezier(0.34, 1.56, 0.64, 1);
      transform-origin: center;
    }
    .step text { animation: textReveal 0.4s ease-out 0.2s backwards; }
    .kmap-cell { animation: scaleIn 0.4s ease-out backwards; }
    .highlighted { animation: pulse 1s ease-in-out infinite; }
    .drawn-line {
      stroke-dasharray: 500;
      animation: drawLine 1.5s ease-out forwards;
    }
  </style>

  <!-- Background -->
  <rect width="800" height="1700" fill="#f8f9fa"/>

  <!-- STEP 0: Title -->
  <g class="step" id="step0" data-narration="Welcome to Four-Variable Karnaugh Maps, a powerful method for simplifying digital logic circuits efficiently.">
    <rect x="50" y="10" width="700" height="45" rx="10" fill="url(#titleGrad)" filter="url(#shadow)"/>
    <text x="400" y="42" text-anchor="middle" font-size="22" font-weight="bold" fill="white">Four-Variable Karnaugh Map (K-Map)</text>
  </g>

  <!-- STEP 1: Why K-Maps Matter -->
  <g class="step" id="step1" data-narration="K-maps reduce gates, cost, and power consumption in digital circuits, making designs faster and more efficient.">
    <rect x="50" y="65" width="350" height="90" rx="8" fill="url(#sectionGrad)" filter="url(#shadow)"/>
    <text x="225" y="90" text-anchor="middle" font-size="14" font-weight="bold" fill="#1565c0">Why This Matters</text>
    <text x="225" y="112" text-anchor="middle" font-size="10" fill="#424242">4-input functions are common</text>
    <text x="225" y="128" text-anchor="middle" font-size="10" fill="#424242">in real-world digital design</text>
    <circle cx="110" cy="125" r="15" fill="#4caf50"/>
    <text x="110" y="130" text-anchor="middle" font-size="14" fill="white" font-weight="bold">↓</text>
    
    <rect x="410" y="65" width="350" height="90" rx="8" fill="#e8f5e9" filter="url(#shadow)"/>
    <text x="585" y="90" text-anchor="middle" font-size="14" font-weight="bold" fill="#2e7d32">Key Benefit</text>
    <text x="585" y="112" text-anchor="middle" font-size="10" fill="#424242">Fewer gates = smaller chips</text>
    <text x="585" y="128" text-anchor="middle" font-size="10" fill="#424242">Lower cost and power</text>
  </g>

  <!-- STEP 2: Preview of 4x4 Grid -->
  <g class="step" id="step2" data-narration="A 4-variable K-map has 16 cells in a 4×4 grid, with Gray code labeling for proper cell adjacency.">
    <rect x="50" y="165" width="700" height="95" rx="8" fill="#fff3e0" filter="url(#shadow)"/>
    <text x="400" y="190" text-anchor="middle" font-size="14" font-weight="bold" fill="#e65100">The 4×4 K-Map Structure</text>
    
    <!-- Mini preview grid -->
    <g transform="translate(180, 205)">
      <rect x="0" y="0" width="40" height="20" fill="#ddd" stroke="#666"/>
      <rect x="40" y="0" width="40" height="20" fill="#ddd" stroke="#666"/>
      <rect x="80" y="0" width="40" height="20" fill="#ddd" stroke="#666"/>
      <rect x="120" y="0" width="40" height="20" fill="#ddd" stroke="#666"/>
      <rect x="0" y="20" width="40" height="20" fill="#ddd" stroke="#666"/>
      <rect x="40" y="20" width="40" height="20" fill="#ddd" stroke="#666"/>
      <rect x="80" y="20" width="40" height="20" fill="#ddd" stroke="#666"/>
      <rect x="120" y="20" width="40" height="20" fill="#ddd" stroke="#666"/>
      <rect x="0" y="40" width="40" height="20" fill="#ddd" stroke="#666"/>
      <rect x="40" y="40" width="40" height="20" fill="#ddd" stroke="#666"/>
      <rect x="80" y="40" width="40" height="20" fill="#ddd" stroke="#666"/>
      <rect x="120" y="40" width="40" height="20" fill="#ddd" stroke="#666"/>
      <rect x="0" y="60" width="40" height="20" fill="#ddd" stroke="#666"/>
      <rect x="40" y="60" width="40" height="20" fill="#ddd" stroke="#666"/>
      <rect x="80" y="60" width="40" height="20" fill="#ddd" stroke="#666"/>
      <rect x="120" y="60" width="40" height="20" fill="#ddd" stroke="#666"/>
      
      <text x="20" y="14" text-anchor="middle" font-size="8" fill="#666">00</text>
      <text x="60" y="14" text-anchor="middle" font-size="8" fill="#666">01</text>
      <text x="100" y="14" text-anchor="middle" font-size="8" fill="#666">11</text>
      <text x="140" y="14" text-anchor="middle" font-size="8" fill="#666">10</text>
      
      <text x="-15" y="32" text-anchor="middle" font-size="8" fill="#666">00</text>
      <text x="-15" y="52" text-anchor="middle" font-size="8" fill="#666">01</text>
      <text x="-15" y="72" text-anchor="middle" font-size="8" fill="#666">11</text>
      <text x="-15" y="92" text-anchor="middle" font-size="8" fill="#666">10</text>
    </g>
    
    <text x="550" y="220" text-anchor="middle" font-size="10" fill="#e65100" font-weight="bold">16 Minterms</text>
    <text x="550" y="238" text-anchor="middle" font-size="10" fill="#424242">m₀ through m₁₅</text>
    <text x="550" y="256" text-anchor="middle" font-size="10" fill="#424242">Gray code adjacency</text>
  </g>

  <!-- STEP 3: Complete Labeled K-Map -->
  <g class="step" id="step3" data-narration="The 4-variable K-map uses Gray code so adjacent cells differ by only one variable, enabling logical grouping.">
    <rect x="50" y="270" width="700" height="115" rx="8" fill="white" filter="url(#shadow)"/>
    <text x="400" y="295" text-anchor="middle" font-size="14" font-weight="bold" fill="#1565c0">Complete K-Map with Gray Code Labels</text>
    
    <!-- K-Map Grid -->
    <g transform="translate(140, 310)">
      <!-- Column headers -->
      <rect x="30" y="0" width="80" height="20" fill="#e3f2fd" stroke="#1976d2" stroke-width="1"/>
      <text x="50" y="14" text-anchor="middle" font-size="10" fill="#1976d2" font-weight="bold">CD</text>
      <text x="70" y="14" text-anchor="middle" font-size="9" fill="#1976d2">00</text>
      <text x="90" y="14" text-anchor="middle" font-size="9" fill="#1976d2">01</text>
      <text x="110" y="14" text-anchor="middle" font-size="9" fill="#1976d2">11</text>
      <text x="130" y="14" text-anchor="middle" font-size="9" fill="#1976d2">10</text>
      
      <!-- Row header -->
      <rect x="0" y="20" width="30" height="80" fill="#e3f2fd" stroke="#1976d2" stroke-width="1"/>
      <text x="15" y="35" text-anchor="middle" font-size="10" fill="#1976d2" font-weight="bold">AB</text>
      <text x="8" y="55" text-anchor="middle" font-size="9" fill="#1976d2">00</text>
      <text x="8" y="75" text-anchor="middle" font-size="9" fill="#1976d2">01</text>
      <text x="8" y="95" text-anchor="middle" font-size="9" fill="#1976d2">11</text>
      <text x="8" y="115" text-anchor="middle" font-size="9" fill="#1976d2">10</text>
      
      <!-- 16 Cells -->
      <g class="kmap-cell" style="animation-delay: 0s">
        <rect x="30" y="20" width="20" height="20" fill="url(#kmapGrad)" stroke="#ffa726" stroke-width="1"/>
        <rect x="50" y="20" width="20" height="20" fill="url(#kmapGrad)" stroke="#ffa726" stroke-width="1"/>
        <rect x="70" y="20" width="20" height="20" fill="url(#kmapGrad)" stroke="#ffa726" stroke-width="1"/>
        <rect x="90" y="20" width="20" height="20" fill="url(#kmapGrad)" stroke="#ffa726" stroke-width="1"/>
      </g>
      <g class="kmap-cell" style="animation-delay: 0.1s">
        <rect x="30" y="40" width="20" height="20" fill="url(#kmapGrad)" stroke="#ffa726" stroke-width="1"/>
        <rect x="50" y="40" width="20" height="20" fill="url(#kmapGrad)" stroke="#ffa726" stroke-width="1"/>
        <rect x="70" y="40" width="20" height="20" fill="url(#kmapGrad)" stroke="#ffa726" stroke-width="1"/>
        <rect x="90" y="40" width="20" height="20" fill="url(#kmapGrad)" stroke="#ffa726" stroke-width="1"/>
      </g>
      <g class="kmap-cell" style="animation-delay: 0.2s">
        <rect x="30" y="60" width="20" height="20" fill="url(#kmapGrad)" stroke="#ffa726" stroke-width="1"/>
        <rect x="50" y="60" width="20" height="20" fill="url(#kmapGrad)" stroke="#ffa726" stroke-width="1"/>
        <rect x="70" y="60" width="20" height="20" fill="url(#kmapGrad)" stroke="#ffa726" stroke-width="1"/>
        <rect x="90" y="60" width="20" height="20" fill="url(#kmapGrad)" stroke="#ffa726" stroke-width="1"/>
      </g>
      <g class="kmap-cell" style="animation-delay: 0.3s">
        <rect x="30" y="80" width="20" height="20" fill="url(#kmapGrad)" stroke="#ffa726" stroke-width="1"/>
        <rect x="50" y="80" width="20" height="20" fill="url(#kmapGrad)" stroke="#ffa726" stroke-width="1"/>
        <rect x="70" y="80" width="20" height="20" fill="url(#kmapGrad)" stroke="#ffa726" stroke-width="1"/>
        <rect x="90" y="80" width="20" height="20" fill="url(#kmapGrad)" stroke="#ffa726" stroke-width="1"/>
      </g>
    </g>
    
    <text x="400" y="390" text-anchor="middle" font-size="9" fill="#424242">Gray code: each adjacent cell differs by exactly 1 bit</text>
  </g>

  <!-- STEP 4: Cell Numbering -->
  <g class="step" id="step4" data-narration="Each cell represents a minterm from m₀ to m₁₅, calculated from the binary value of AB and CD combined.">
    <rect x="50" y="395" width="700" height="115" rx="8" fill="white" filter="url(#shadow)"/>
    <text x="400" y="420" text-anchor="middle" font-size="14" font-weight="bold" fill="#1565c0">Minterm Numbering (m₀ to m₁₅)</text>
    
    <!-- K-Map with numbers -->
    <g transform="translate(140, 435)">
      <rect x="30" y="0" width="80" height="20" fill="#e3f2fd" stroke="#1976d2"/>
      <text x="50" y="14" text-anchor="middle" font-size="9" fill="#1976d2">CD</text>
      <text x="70" y="14" text-anchor="middle" font-size="8" fill="#1976d2">00</text>
      <text x="90" y="14" text-anchor="middle" font-size="8" fill="#1976d2">01</text>
      <text x="110" y="14" text-anchor="middle" font-size="8" fill="#1976d2">11</text>
      <text x="130" y="14" text-anchor="middle" font-size="8" fill="#1976d2">10</text>
      
      <rect x="0" y="20" width="30" height="80" fill="#e3f2fd" stroke="#1976d2"/>
      <text x="8" y="35" text-anchor="middle" font-size="8" fill="#1976d2">00</text>
      <text x="8" y="55" text-anchor="middle" font-size="8" fill="#1976d2">01</text>
      <text x="8" y="75" text-anchor="middle" font-size="8" fill="#1976d2">11</text>
      <text x="8" y="95" text-anchor="middle" font-size="8" fill="#1976d2">10</text>
      
      <!-- Row 1 -->
      <rect x="30" y="20" width="20" height="20" fill="url(#kmapGrad)" stroke="#ffa726"/>
      <text x="40" y="35" text-anchor="middle" font-size="9" fill="#e65100">m₀</text>
      <rect x="50" y="20" width="20" height="20" fill="url(#kmapGrad)" stroke="#ffa726"/>
      <text x="60" y="35" text-anchor="middle" font-size="9" fill="#e65100">m₁</text>
      <rect x="70" y="20" width="20" height="20" fill="url(#kmapGrad)" stroke="#ffa726"/>
      <text x="80" y="35" text-anchor="middle" font-size="9" fill="#e65100">m₃</text>
      <rect x="90" y="20" width="20" height="20" fill="url(#kmapGrad)" stroke="#ffa726"/>
      <text x="100" y="35" text-anchor="middle" font-size="9" fill="#e65100">m₂</text>
      
      <!-- Row 2 -->
      <rect x="30" y="40" width="20" height="20" fill="url(#kmapGrad)" stroke="#ffa726"/>
      <text x="40" y="55" text-anchor="middle" font-size="9" fill="#e65100">m₄</text>
      <rect x="50" y="40" width="20" height="20" fill="url(#kmapGrad)" stroke="#ffa726"/>
      <text x="60" y="55" text-anchor="middle" font-size="9" fill="#e65100">m₅</text>
      <rect x="70" y="40" width="20" height="20" fill="url(#kmapGrad)" stroke="#ffa726"/>
      <text x="80" y="55" text-anchor="middle" font-size="9" fill="#e65100">m₇</text>
      <rect x="90" y="40" width="20" height="20" fill="url(#kmapGrad)" stroke="#ffa726"/>
      <text x="100" y="55" text-anchor="middle" font-size="9" fill="#e65100">m₆</text>
      
      <!-- Row 3 -->
      <rect x="30" y="60" width="20" height="20" fill="url(#kmapGrad)" stroke="#ffa726"/>
      <text x="40" y="75" text-anchor="middle" font-size="9" fill="#e65100">m₁₂</text>
      <rect x="50" y="60" width="20" height="20" fill="url(#kmapGrad)" stroke="#ffa726"/>
      <text x="60" y="75" text-anchor="middle" font-size="9" fill="#e65100">m₁₃</text>
      <rect x="70" y="60" width="20" height="20" fill="url(#kmapGrad)" stroke="#ffa726"/>
      <text x="80" y="75" text-anchor="middle" font-size="9" fill="#e65100">m₁₅</text>
      <rect x="90" y="60" width="20" height="20" fill="url(#kmapGrad)" stroke="#ffa726"/>
      <text x="100" y="75" text-anchor="middle" font-size="9" fill="#e65100">m₁₄</text>
      
      <!-- Row 4 -->
      <rect x="30" y="80" width="20" height="20" fill="url(#kmapGrad)" stroke="#ffa726"/>
      <text x="40" y="95" text-anchor="middle" font-size="9" fill="#e65100">m₈</text>
      <rect x="50" y="80" width="20" height="20" fill="url(#kmapGrad)" stroke="#ffa726"/>
      <text x="60" y="95" text-anchor="middle" font-size="9" fill="#e65100">m₉</text>
      <rect x="70" y="80" width="20" height="20" fill="url(#kmapGrad)" stroke="#ffa726"/>
      <text x="80" y="95" text-anchor="middle" font-size="9" fill="#e65100">m₁₁</text>
      <rect x="90" y="80" width="20" height="20" fill="url(#kmapGrad)" stroke="#ffa726"/>
      <text x="100" y="95" text-anchor="middle" font-size="9" fill="#e65100">m₁₀</text>
    </g>
    
    <text x="400" y="515" text-anchor="middle" font-size="9" fill="#424242">Minterm = binary(AB) × 2 + binary(CD) = decimal value</text>
  </g>

  <!-- STEP 5: Adjacency Rules -->
  <g class="step" id="step5" data-narration="The K-map wraps around both horizontally and vertically, so top connects to bottom and left to right.">
    <rect x="50" y="520" width="700" height="110" rx="8" fill="white" filter="url(#shadow)"/>
    <text x="400" y="545" text-anchor="middle" font-size="14" font-weight="bold" fill="#1565c0">Wrap-Around Adjacency Rules</text>
    
    <!-- Visual of wrap-around -->
    <g transform="translate(200, 560)">
      <rect x="0" y="0" width="80" height="80" fill="#e8f5e9" stroke="#388e3c" stroke-width="2" rx="4"/>
      <text x="40" y="30" text-anchor="middle" font-size="10" fill="#2e7d32">Top Row</text>
      <text x="40" y="45" text-anchor="middle" font-size="10" fill="#2e7d32">adjacent to</text>
      <text x="40" y="60" text-anchor="middle" font-size="10" fill="#2e7d32">Bottom Row</text>
      
      <!-- Vertical arrows -->
      <path d="M40 82 L40 110" stroke="#388e3c" stroke-width="2" marker-end="url(#arrowHead)" fill="none"/>
      <path d="M40 118 L40 145" stroke="#388e3c" stroke-width="2" marker-end="url(#arrowHead)" fill="none"/>
      
      <rect x="80" y="0" width="80" height="80" fill="#e3f2fd" stroke="#1976d2" stroke-width="2" rx="4"/>
      <text x="120" y="30" text-anchor="middle" font-size="10" fill="#1565c0">Left Column</text>
      <text x="120" y="45" text-anchor="middle" font-size="10" fill="#1565c0">adjacent to</text>
      <text x="120" y="60" text-anchor="middle" font-size="10" fill="#1565c0">Right Column</text>
      
      <!-- Horizontal arrows -->
      <path d="M162 40 L190 40" stroke="#1976d2" stroke-width="2" marker-end="url(#arrowHead)" fill="none"/>
      <path d="M198 40 L225 40" stroke="#1976d2" stroke-width="2" marker-end="url(#arrowHead)" fill="none"/>
    </g>
    
    <!-- Corner note -->
    <rect x="450" y="565" width="220" height="50" rx="5" fill="#fff8e1" stroke="#ffa726"/>
    <text x="560" y="585" text-anchor="middle" font-size="10" fill="#e65100" font-weight="bold">Corner Adjacency</text>
    <text x="560" y="602" text-anchor="middle" font-size="9" fill="#424242">Four corners can form</text>
    <text x="560" y="612" text-anchor="middle" font-size="9" fill="#424242">a valid group of 4!</text>
  </g>

  <!-- STEP 6: Grouping Rules -->
  <g class="step" id="step6" data-narration="Groups must be powers of 2, rectangular, as large as possible, and every 1-cell must be covered at least once.">
    <rect x="50" y="640" width="700" height="110" rx="8" fill="white" filter="url(#shadow)"/>
    <text x="400" y="665" text-anchor="middle" font-size="14" font-weight="bold" fill="#1565c0">Essential Grouping Rules</text>
    
    <g transform="translate(80, 680)">
      <rect x="0" y="0" width="130" height="30" rx="4" fill="#e3f2fd"/>
      <text x="65" y="20" text-anchor="middle" font-size="10" fill="#1565c0">1. Power of 2</text>
      
      <rect x="140" y="0" width="130" height="30" rx="4" fill="#e8f5e9"/>
      <text x="205" y="20" text-anchor="middle" font-size="10" fill="#2e7d32">2. Rectangular</text>
      
      <rect x="280" y="0" width="130" height="30" rx="4" fill="#fff3e0"/>
      <text x="345" y="20" text-anchor="middle" font-size="10" fill="#e65100">3. Largest possible</text>
      
      <rect x="420" y="0" width="130" height="30" rx="4" fill="#fce4ec"/>
      <text x="485" y="20" text-anchor="middle" font-size="10" fill="#c2185b">4. All 1s covered</text>
      
      <rect x="560" y="0" width="130" height="30" rx="4" fill="#f3e5f5"/>
      <text x="625" y="20" text-anchor="middle" font-size="10" fill="#7b1fa2">5. Overlap allowed</text>
    </g>
    
    <!-- Visual examples -->
    <g transform="translate(120, 725)">
      <text x="0" y="15" text-anchor="middle" font-size="8" fill="#424242">Valid sizes:</text>
      <rect x="50" y="0" width="15" height="15" fill="#4caf50" rx="2"/>
      <text x="65" y="12" font-size="8" fill="#424242">1</text>
      <rect x="75" y="0" width="30" height="15" fill="#4caf50" rx="2"/>
      <text x="95" y="12" font-size="8" fill="#424242">2</text>
      <rect x="105" y="0" width="30" height="30" fill="#4caf50" rx="2"/>
      <text x="125" y="12" font-size="8" fill="#424242">4</text>
      <rect x="145" y="0" width="60" height="30" fill="#4caf50" rx="2"/>
      <text x="175" y="12" font-size="8" fill="#424242">8</text>
      <rect x="195" y="0" width="60" height="60" fill="#4caf50" rx="2"/>
      <text x="225" y="12" font-size="8" fill="#424242">16</text>
    </g>
  </g>

  <!-- STEP 7: Variable Elimination -->
  <g class="step" id="step7" data-narration="A group of 2 eliminates 1 variable, group of 4 eliminates 2 variables, and group of 8 eliminates 3 variables.">
    <rect x="50" y="760" width="700" height="110" rx="8" fill="white" filter="url(#shadow)"/>
    <text x="400" y="785" text-anchor="middle" font-size="14" font-weight="bold" fill="#1565c0">Variable Elimination Rule</text>
    
    <g transform="translate(80, 810)">
      <!-- Group of 2 -->
      <rect x="0" y="0" width="60" height="30" fill="url(#oneGrad)" stroke="#2e7d32" stroke-width="2" rx="3"/>
      <text x="30" y="20" text-anchor="middle" font-size="9" fill="#1b5e20" font-weight="bold">2 cells</text>
      <path d="M70 15 L100 15" stroke="#424242" stroke-width="1.5" marker-end="url(#arrowHead)" fill="none"/>
      <text x="110" y="20" text-anchor="middle" font-size="10" fill="#e65100" font-weight="bold">-1 variable</text>
      
      <!-- Group of 4 -->
      <rect x="180" y="0" width="60" height="60" fill="url(#oneGrad)" stroke="#2e7d32" stroke-width="2" rx="3"/>
      <text x="210" y="35" text-anchor="middle" font-size="9" fill="#1b5e20" font-weight="bold">4 cells</text>
      <path d="M250 30 L280 30" stroke="#424242" stroke-width="1.5" marker-end="url(#arrowHead)" fill="none"/>
      <text x="300" y="35" text-anchor="middle" font-size="10" fill="#e65100" font-weight="bold">-2 variables</text>
      
      <!-- Group of 8 -->
      <rect x="370" y="0" width="120" height="60" fill="url(#oneGrad)" stroke="#2e7d32" stroke-width="2" rx="3"/>
      <text x="430" y="35" text-anchor="middle" font-size="9" fill="#1b5e20" font-weight="bold">8 cells</text>
      <path d="M500 30 L530 30" stroke="#424242" stroke-width="1.5" marker-end="url(#arrowHead)" fill="none"/>
      <text x="550" y="35" text-anchor="middle" font-size="10" fill="#e65100" font-weight="bold">-3 variables</text>
    </g>
    
    <text x="400" y="865" text-anchor="middle" font-size="9" fill="#424242">Variables that CHANGE across the group are eliminated; constants remain in the product term</text>
  </g>

  <!-- STEP 8: Worked Example - Problem -->
  <g class="step" id="step8" data-narration="Let us minimize F(A,B,C,D) = Σm(0, 2, 5, 7, 8, 10, 13, 15) using the K-map method step by step.">
    <rect x="50" y="880" width="700" height="110" rx="8" fill="white" filter="url(#shadow)"/>
    <text x="400" y="905" text-anchor="middle" font-size="14" font-weight="bold" fill="#1565c0">Worked Example: Minimize F(A,B,C,D)</text>
    
    <rect x="80" y="925" width="640" height="55" rx="5" fill="#fff8e1" stroke="#ffa726"/>
    <text x="400" y="950" text-anchor="middle" font-size="13" font-weight="bold" fill="#e65100">F(A,B,C,D) = Σm(0, 2, 5, 7, 8, 10, 13, 15)</text>
    <text x="400" y="970" text-anchor="middle" font-size="10" fill="#424242">This means the function is 1 for minterms 0, 2, 5, 7, 8, 10, 13, and 15</text>
  </g>

  <!-- STEP 9: Plot the K-Map -->
  <g class="step" id="step9" data-narration="We plot the 1s at positions corresponding to the minterms in our function: 0,2,5,7,8,10,13,15.">
    <rect x="50" y="1000" width="700" height="110" rx="8" fill="white" filter="url(#shadow)"/>
    <text x="400" y="1025" text-anchor="middle" font-size="14" font-weight="bold" fill="#1565c0">Step 1: Plot the 1s on K-Map</text>
    
    <!-- K-Map with 1s plotted -->
    <g transform="translate(140, 1045)">
      <rect x="30" y="0" width="80" height="20" fill="#e3f2fd" stroke="#1976d2"/>
      <text x="50" y="14" text-anchor="middle" font-size="8" fill="#1976d2">CD</text>
      <text x="70" y="14" text-anchor="middle" font-size="7" fill="#1976d2">00</text>
      <text x="90" y="14" text-anchor="middle" font-size="7" fill="#1976d2">01</text>
      <text x="110" y="14" text-anchor="middle" font-size="7" fill="#1976d2">11</text>
      <text x="130" y="14" text-anchor="middle" font-size="7" fill="#1976d2">10</text>
      
      <rect x="0" y="20" width="30" height="80" fill="#e3f2fd" stroke="#1976d2"/>
      <text x="8" y="35" text-anchor="middle" font-size="7" fill="#1976d2">00</text>
      <text x="8" y="55" text-anchor="middle" font-size="7" fill="#1976d2">01</text>
      <text x="8" y="75" text-anchor="middle" font-size="7" fill="#1976d2">11</text>
      <text x="8" y="95" text-anchor="middle" font-size="7" fill="#1976d2">10</text>
      
      <!-- Row 1 (AB=00): m0=1, m1=0, m3=0, m2=1 -->
      <rect x="30" y="20" width="20" height="20" fill="url(#oneGrad)" stroke="#2e7d32"/>
      <text x="40" y="35" text-anchor="middle" font-size="9" fill="#1b5e20" font-weight="bold">1</text>
      <rect x="50" y="20" width="20" height="20" fill="url(#zeroGrad)" stroke="#c62828"/>
      <text x="60" y="35" text-anchor="middle" font-size="8" fill="#c62828">0</text>
      <rect x="70" y="20" width="20" height="20" fill="url(#zeroGrad)" stroke="#c62828"/>
      <text x="80" y="35" text-anchor="middle" font-size="8" fill="#c62828">0</text>
      <rect x="90" y="20" width="20" height="20" fill="url(#oneGrad)" stroke="#2e7d32"/>
      <text x="100" y="35" text-anchor="middle" font-size="9" fill="#1b5e20" font-weight="bold">1</text>
      
      <!-- Row 2 (AB=01): m4=0, m5=1, m7=1, m6=0 -->
      <rect x="30" y="40" width="20" height="20" fill="url(#zeroGrad)" stroke="#c62828"/>
      <text x="40" y="55" text-anchor="middle" font-size="8" fill="#c62828">0</text>
      <rect x="50" y="40" width="20" height="20" fill="url(#oneGrad)" stroke="#2e7d32"/>
      <text x="60" y="55" text-anchor="middle" font-size="9" fill="#1b5e20" font-weight="bold">1</text>
      <rect x="70" y="40" width="20" height="20" fill="url(#oneGrad)" stroke="#2e7d32"/>
      <text x="80" y="55" text-anchor="middle" font-size="9" fill="#1b5e20" font-weight="bold">1</text>
      <rect x="90" y="40" width="20" height="20" fill="url(#zeroGrad)" stroke="#c62828"/>
      <text x="100" y="55" text-anchor="middle" font-size="8" fill="#c62828">0</text>
      
      <!-- Row 3 (AB=11): m12=0, m13=1, m15=1, m14=0 -->
      <rect x="30" y="60" width="20" height="20" fill="url(#zeroGrad)" stroke="#c62828"/>
      <text x="40" y="75" text-anchor="middle" font-size="8" fill="#c62828">0</text>
      <rect x="50" y="60" width="20" height="20" fill="url(#oneGrad)" stroke="#2e7d32"/>
      <text x="60" y="75" text-anchor="middle" font-size="9" fill="#1b5e20" font-weight="bold">1</text>
      <rect x="70" y="60" width="20" height="20" fill="url(#oneGrad)" stroke="#2e7d32"/>
      <text x="80" y="75" text-anchor="middle" font-size="9" fill="#1b5e20" font-weight="bold">1</text>
      <rect x="90" y="60" width="20" height="20" fill="url(#zeroGrad)" stroke="#c62828"/>
      <text x="100" y="75" text-anchor="middle" font-size="8" fill="#c62828">0</text>
      
      <!-- Row 4 (AB=10): m8=1, m9=0, m11=0, m10=1 -->
      <rect x="30" y="80" width="20" height="20" fill="url(#oneGrad)" stroke="#2e7d32"/>
      <text x="40" y="95" text-anchor="middle" font-size="9" fill="#1b5e20" font-weight="bold">1</text>
      <rect x="50" y="80" width="20" height="20" fill="url(#zeroGrad)" stroke="#c62828"/>
      <text x="60" y="95" text-anchor="middle" font-size="8" fill="#c62828">0</text>
      <rect x="70" y="80" width="20" height="20" fill="url(#zeroGrad)" stroke="#c62828"/>
      <text x="80" y="95" text-anchor="middle" font-size="8" fill="#c62828">0</text>
      <rect x="90" y="80" width="20" height="20" fill="url(#oneGrad)" stroke="#2e7d32"/>
      <text x="100" y="95" text-anchor="middle" font-size="9" fill="#1b5e20" font-weight="bold">1</text>
    </g>
    
    <text x="400" y="1115" text-anchor="middle" font-size="9" fill="#424242">Green cells = 1 (function is true), Red cells = 0 (don't care or false)</text>
  </g>

  <!-- STEP 10: Identify Groups -->
  <g class="step" id="step10" data-narration="We identify two groups of 4 cells each: one covers m5,m7,m13,m15 and another covers m0,m2,m8,m10.">
    <rect x="50" y="1120" width="700" height="110" rx="8" fill="white" filter="url(#shadow)"/>
    <text x="400" y="1145" text-anchor="middle" font-size="14" font-weight="bold" fill="#1565c0">Step 2: Identify Prime Implicants (Groups)</text>
    
    <!-- K-Map with groups highlighted -->
    <g transform="translate(100, 1165)">
      <!-- Group 1 box (BD group) - columns 01,11 and rows 01,11 -->
      <rect x="45" y="35" width="55" height="55" fill="none" stroke="#1565c0" stroke-width="3" rx="4" class="highlighted" style="transform-origin: 72px 62px"/>
      
      <!-- Group 2 box (B'D' group) - columns 00,10 and rows 00,10 -->
      <rect x="25" y="15" width="95" height="55" fill="none" stroke="#e65100" stroke-width="3" rx="4" class="highlighted" style="transform-origin: 72px 42px"/>
      
      <!-- K-Map cells -->
      <g>
        <rect x="30" y="20" width="20" height="20" fill="url(#oneGrad)" stroke="#2e7d32"/>
        <text x="40" y="35" text-anchor="middle" font-size="9" fill="#1b5e20" font-weight="bold">1</text>
        <rect x="50" y="20" width="20" height="20" fill="url(#zeroGrad)" stroke="#c62828"/>
        <rect x="70" y="20" width="20" height="20" fill="url(#zeroGrad)" stroke="#c62828"/>
        <rect x="90" y="20" width="20" height="20" fill="url(#oneGrad)" stroke="#2e7d32"/>
        
        <rect x="30" y="40" width="20" height="20" fill="url(#zeroGrad)" stroke="#c62828"/>
        <rect x="50" y="40" width="20" height="20" fill="url(#oneGrad)" stroke="#2e7d32"/>
        <rect x="70" y="40" width="20" height="20" fill="url(#oneGrad)" stroke="#2e7d32"/>
        <rect x="90" y="40" width="20" height="20" fill="url(#zeroGrad)" stroke="#c62828"/>
        
        <rect x="30" y="60" width="20" height="20" fill="url(#zeroGrad)" stroke="#c62828"/>
        <rect x="50" y="60" width="20" height="20" fill="url(#oneGrad)" stroke="#2e7d32"/>
        <rect x="70" y="60" width="20" height="20" fill="url(#oneGrad)" stroke="#2e7d32"/>
        <rect x="90" y="60" width="20" height="20" fill="url(#zeroGrad)" stroke="#c62828"/>
        
        <rect x="30" y="80" width="20" height="20" fill="url(#oneGrad)" stroke="#2e7d32"/>
        <rect x="50" y="80" width="20" height="20" fill="url(#zeroGrad)" stroke="#c62828"/>
        <rect x="70" y="80" width="20" height="20" fill="url(#zeroGrad)" stroke="#c62828"/>
        <rect x="90" y="80" width="20" height="20" fill="url(#oneGrad)" stroke="#2e7d32"/>
      </g>
    </g>
    
    <text x="400" y="1220" text-anchor="middle" font-size="9" fill="#424242">Blue: Group 1 (m5,m7,m13,m15) | Orange: Group 2 (m0,m2,m8,m10)</text>
  </g>

  <!-- STEP 11: Final Expression -->
  <g class="step" id="step11" data-narration="Group 1 gives BD (B=1,D=1 constant) and Group 2 gives B'D' (B=0,D=0 constant), so F = BD + B'D'.">
    <rect x="50" y="1240" width="700" height="110" rx="8" fill="white" filter="url(#shadow)"/>
    <text x="400" y="1265" text-anchor="middle" font-size="14" font-weight="bold" fill="#1565c0">Step 3: Derive the Simplified Expression</text>
    
    <!-- Group 1 analysis -->
    <rect x="80" y="1285" width="280" height="50" rx="5" fill="#e3f2fd" stroke="#1976d2"/>
    <text x="220" y="1305" text-anchor="middle" font-size="11" font-weight="bold" fill="#1565c0">Group 1 (Blue): m₅,m₇,m₁₃,m₁₅</text>
    <text x="220" y="1323" text-anchor="middle" font-size="10" fill="#424242">AB changes (01,11), CD changes (01,11) → B=1, D=1 constant</text>
    <text x="220" y="1336" text-anchor="middle" font-size="11" fill="#e65100" font-weight="bold">Product Term: BD</text>
    
    <!-- Group 2 analysis -->
    <rect x="370" y="1285" width="280" height="50" rx="5" fill="#fff3e0" stroke="#e65100"/>
    <text x="510" y="1305" text-anchor="middle" font-size="11" font-weight="bold" fill="#e65100">Group 2 (Orange): m₀,m₂,m₈,m₁₀</text>
    <text x="510" y="1323" text-anchor="middle" font-size="10" fill="#424242">AB changes (00,10), CD changes (00,10) → B=0, D=0 constant</text>
    <text x="510" y="1336" text-anchor="middle" font-size="11" fill="#e65100" font-weight="bold">Product Term: B'D'</text>
    
    <!-- Final expression -->
</svg>