<svg width="420" height="400" data-topic-id="user-defined-functions" xmlns="http://www.w3.org/2000/svg" xmlns:xlink="http://www.w3.org/1999/xlink" viewBox="0 0 420 400" style="background-color: #f0f0f0; color: #333;">
  <title>User Defined Functions (UDFs)</title>
  <rect x="0" y="0" width="420" height="50" fill="#3498db" rx="10"/>
  <rect x="0" y="50" width="420" height="350" fill="#f7f7f7" rx="10"/>
  <rect x="0" y="0" width="420" height="50" fill="#f7f7f7" rx="10"/>
  <path d="M 45 10 H 50 V 30 H 45 Z" fill="#3498db" opacity=".5"/>
  <path d="M 370 10 H 375 V 30 H 370 Z" fill="#3498db" opacity=".5"/>
  <rect x="10" y="70" width="400" height="50" fill="#f7f7f7" rx="10" data-narration="What are UDFs?"/>
  <rect x="10" y="120" width="400" height="50" fill="#f7f7f7" rx="10" data-narration="Characteristics of UDFs"/>
  <rect x="10" y="170" width="400" height="50" fill="#f7f7f7" rx="10" data-narration="Benefits of UDFs"/>
  <rect x="10" y="220" width="400" height="50" fill="#f7f7f7" rx="10" data-narration="Types of UDFs"/>
  <rect x="10" y="270" width="400" height="50" fill="#f7f7f7" rx="10" data-narration="Examples of UDFs"/>
  <path d="M 10 20 H 120 V 120 H 10 L 120 120 H 340 V 120 H 340 L 10 120 Z" fill="#3498db" stroke="#000" stroke-width="2"/>
  <path d="M 10 220 H 120 V 220 H 10 L 120 220 H 340 V 220 H 340 L 10 220 Z" fill="#3498db" stroke="#000" stroke-width="2"/>
  <path d="M 10 320 H 120 V 320 H 10 L 120 320 H 340 V 320 H 340 L 10 320 Z" fill="#3498db" stroke="#000" stroke-width="2"/>
  <path d="M 10 20 H 120 V 20 H 10 L 120 20 H 340 V 20 H 340 L 10 20 Z" fill="#3498db" stroke="#000" stroke-width="2"/>
  <path d="M 10 220 H 120 V 220 H 10 L 120 220 H 340 V 220 H 340 L 10 220 Z" fill="#3498db" stroke="#000" stroke-width="2"/>
  <path d="M 10 320 H 120 V 320 H 10 L 120 320 H 340 V 320 H 340 L 10 320 Z" fill="#3498db" stroke="#000" stroke-width="2"/>
  <path d="M 10 20 H 120 V 30 H 10 V 20 Z" fill="#3498db" opacity=".5"/>
  <path d="M 10 220 H 120 V 230 H 10 V 220 Z" fill="#3498db" opacity=".5"/>
  <path d="M 10 320 H 120 V 330 H 10 V 320 Z" fill="#3498db" opacity=".5"/>
  <rect x="10" y="360" width="400" height="30" fill="#3498db" rx="10" data-narration="Learn more about UDFs"/>
  <rect x="10" y="400" width="400" height="50" fill="#3498db" rx="10" data-narration="Share your knowledge"/>
</svg>