<svg viewBox="0 0 800 1700" xmlns="http://www.w3.org/2000/svg">
  <defs>
    <!-- Gradients -->
    <linearGradient id="bgGradient" x1="0%" y1="0%" x2="0%" y2="100%">
      <stop offset="0%" style="stop-color:#f8f9fa"/>
      <stop offset="100%" style="stop-color:#e3f2fd"/>
    </linearGradient>
    
    <linearGradient id="solarGradient" x1="0%" y1="0%" x2="100%" y2="100%">
      <stop offset="0%" style="stop-color:#ff9800"/>
      <stop offset="100%" style="stop-color:#ff5722"/>
    </linearGradient>
    
    <linearGradient id="blueGradient" x1="0%" y1="0%" x2="0%" y2="100%">
      <stop offset="0%" style="stop-color:#1976d2"/>
      <stop offset="100%" style="stop-color:#1565c0"/>
    </linearGradient>
    
    <linearGradient id="greenGradient" x1="0%" y1="0%" x2="0%" y2="100%">
      <stop offset="0%" style="stop-color:#388e3c"/>
      <stop offset="100%" style="stop-color:#2e7d32"/>
    </linearGradient>
    
    <linearGradient id="purpleGradient" x1="0%" y1="0%" x2="0%" y2="100%">
      <stop offset="0%" style="stop-color:#9c27b0"/>
      <stop offset="100%" style="stop-color:#7b1fa2"/>
    </linearGradient>
    
    <linearGradient id="panelGradient" x1="0%" y1="0%" x2="0%" y2="100%">
      <stop offset="0%" style="stop-color:#1565c0"/>
      <stop offset="50%" style="stop-color:#1976d2"/>
      <stop offset="100%" style="stop-color:#0d47a1"/>
    </linearGradient>
    
    <!-- Arrow Marker -->
    <marker id="arrowBlue" markerWidth="10" markerHeight="10" refX="9" refY="3" orient="auto" markerUnits="strokeWidth">
      <path d="M0,0 L0,6 L9,3 z" fill="#1976d2"/>
    </marker>
    
    <marker id="arrowOrange" markerWidth="10" markerHeight="10" refX="9" refY="3" orient="auto" markerUnits="strokeWidth">
      <path d="M0,0 L0,6 L9,3 z" fill="#ff9800"/>
    </marker>
    
    <!-- Filters -->
    <filter id="shadow" x="-20%" y="-20%" width="140%" height="140%">
      <feDropShadow dx="2" dy="3" stdDeviation="3" flood-color="#000" flood-opacity="0.15"/>
    </filter>
    
    <filter id="glow">
      <feGaussianBlur stdDeviation="2.5" result="coloredBlur"/>
      <feMerge>
        <feMergeNode in="coloredBlur"/>
        <feMergeNode in="SourceGraphic"/>
      </feMerge>
    </filter>
  </defs>
  
  <style>
    @keyframes fadeInSlide {
      from { opacity: 0; transform: translateY(20px); }
      to { opacity: 1; transform: translateY(0); }
    }
    @keyframes scaleIn {
      from { opacity: 0; transform: scale(0.85); }
      to { opacity: 1; transform: scale(1); }
    }
    @keyframes textReveal {
      from { opacity: 0; transform: translateX(-10px); }
      to { opacity: 1; transform: translateX(0); }
    }
    @keyframes pulse {
      0%, 100% { transform: scale(1); }
      50% { transform: scale(1.03); }
    }
    @keyframes drawLine {
      to { stroke-dashoffset: 0; }
    }
    @keyframes rotate {
      from { transform: rotate(0deg); }
      to { transform: rotate(360deg); }
    }
    .step { animation: fadeInSlide 0.6s ease-out; }
    .step rect { animation: scaleIn 0.5s cubic-bezier(0.34, 1.56, 0.64, 1); transform-origin: center; }
    .step text { animation: textReveal 0.4s ease-out 0.2s backwards; }
    .title-text { font-size: 22px; font-weight: bold; fill: #1565c0; }
    .subtitle-text { font-size: 13px; fill: #666; }
    .body-text { font-size: 10px; fill: #333; }
    .label-text { font-size: 9px; fill: #555; }
    .formula-text { font-size: 11px; fill: #1565c0; font-family: 'Courier New', monospace; }
    .highlight { fill: #ff9800; }
    .solar-icon { animation: pulse 3s ease-in-out infinite; }
  </style>
  
  <!-- Background - OUTSIDE all step groups -->
  <rect width="800" height="1700" fill="#f8f9fa"/>
  
  <!-- STEP 0: Title -->
  <g class="step" id="step0" data-narration="Welcome to Solar Energy - one of the most abundant renewable energy sources shaping our sustainable future.">
    <rect x="20" y="10" width="760" height="45" rx="10" fill="url(#solarGradient)" filter="url(#shadow)"/>
    <text x="400" y="42" text-anchor="middle" class="title-text" fill="white">☀ SOLAR ENERGY</text>
    <text x="400" y="58" text-anchor="middle" class="subtitle-text">Comprehensive Guide for Engineering Students</text>
    <circle cx="60" cy="32" r="15" fill="#fff3e0" filter="url(#glow)">
      <animate attributeName="r" values="15;17;15" dur="2s" repeatCount="indefinite"/>
    </circle>
    <circle cx="60" cy="32" r="8" fill="#ff9800"/>
  </g>
  
  <!-- STEP 1: Why Solar Energy Matters -->
  <g class="step" id="step1" data-narration="The sun provides 1.7 × 10^14 kilowatts continuously, far more than global energy consumption combined.">
    <rect x="20" y="65" width="760" height="85" rx="8" fill="white" filter="url(#shadow)"/>
    <rect x="20" y="65" width="5" height="85" rx="2" fill="#ff9800"/>
    <text x="40" y="85" class="label-text" fill="#ff9800" font-weight="bold">WHY SOLAR ENERGY?</text>
    <text x="40" y="105" class="body-text">• Sun radiates ~1.7 × 10¹⁴ kW continuously</text>
    <text x="40" y="120" class="body-text">• Earth receives ~1.8 × 10¹⁴ kW</text>
    <text x="40" y="135" class="body-text">• Exceeds all global energy needs combined</text>
    <rect x="450" y="80" width="80" height="40" rx="4" fill="#e3f2fd"/>
    <text x="490" y="95" text-anchor="middle" class="label-text">Solar Input</text>
    <text x="490" y="112" text-anchor="middle" class="formula-text" fill="#1976d2">1.8×10¹⁴ kW</text>
    <text x="545" y="105" fill="#4caf50" font-size="14">▶</text>
    <rect x="565" y="80" width="80" height="40" rx="4" fill="#e8f5e9"/>
    <text x="605" y="95" text-anchor="middle" class="label-text">Global Use</text>
    <text x="605" y="112" text-anchor="middle" class="formula-text" fill="#388e3c">~2×10¹³ kW</text>
  </g>
  
  <!-- STEP 2: Key Applications -->
  <g class="step" id="step2" data-narration="Solar energy is used in two main ways: thermal systems for heat and photovoltaic systems for electricity generation.">
    <rect x="20" y="160" width="760" height="85" rx="8" fill="white" filter="url(#shadow)"/>
    <rect x="20" y="160" width="5" height="85" rx="2" fill="#1976d2"/>
    <text x="40" y="180" class="label-text" fill="#1976d2" font-weight="bold">TWO MAIN TECHNOLOGIES</text>
    <rect x="40" y="195" width="330" height="40" rx="6" fill="#fff3e0" stroke="#ff9800" stroke-width="1"/>
    <text x="60" y="215" class="label-text" fill="#e65100" font-weight="bold">☕ SOLAR THERMAL</text>
    <text x="60" y="228" class="body-text">Converts sunlight → Heat energy (water heating, space heating)</text>
    <rect x="390" y="195" width="330" height="40" rx="6" fill="#e3f2fd" stroke="#1976d2" stroke-width="1"/>
    <text x="410" y="215" class="label-text" fill="#1565c0" font-weight="bold">⚡ SOLAR PHOTOVOLTAIC</text>
    <text x="410" y="228" class="body-text">Converts sunlight → Electricity (PV cells, panels, systems)</text>
  </g>
  
  <!-- STEP 3: Solar Radiation Fundamentals -->
  <g class="step" id="step3" data-narration="Solar radiation travels at 3 × 10⁸ m/s with a solar constant of 1367 W/m² at Earth's atmosphere boundary.">
    <rect x="20" y="255" width="760" height="100" rx="8" fill="white" filter="url(#shadow)"/>
    <rect x="20" y="255" width="5" height="100" rx="2" fill="#ff9800"/>
    <text x="40" y="275" class="label-text" fill="#ff9800" font-weight="bold">☀ SOLAR RADIATION FUNDAMENTALS</text>
    <circle cx="80" cy="315" r="25" fill="url(#solarGradient)">
      <animate attributeName="r" values="25;28;25" dur="3s" repeatCount="indefinite"/>
    </circle>
    <g stroke="#ff9800" stroke-width="2" opacity="0.7">
      <line x1="80" y1="280" x2="80" y2="260"><animate attributeName="opacity" values="0;1" dur="0.5s" fill="freeze"/></line>
      <line x1="115" y1="315" x2="135" y2="315"><animate attributeName="opacity" values="0;1" dur="0.5s" fill="freeze"/></line>
      <line x1="45" y1="315" x2="25" y2="315"><animate attributeName="opacity" values="0;1" dur="0.5s" fill="freeze"/></line>
      <line x1="105" y1="290" x2="120" y2="275"><animate attributeName="opacity" values="0;1" dur="0.5s" fill="freeze"/></line>
    </g>
    <text x="130" y="305" class="body-text" fill="#333">Speed of light:</text>
    <text x="220" y="305" class="formula-text" fill="#e65100">c = 3 × 10⁸ m/s</text>
    <text x="130" y="325" class="body-text" fill="#333">Solar Constant (atmosphere):</text>
    <text x="310" y="325" class="formula-text" fill="#e65100">Gsc = 1367 W/m²</text>
    <text x="130" y="345" class="body-text" fill="#333">Surface radiation (varies):</text>
    <text x="265" y="345" class="formula-text" fill="#e65100">100-300 W/m²</text>
  </g>
  
  <!-- STEP 4: Solar Spectrum -->
  <g class="step" id="step4" data-narration="The solar spectrum has UV at 7%, visible light at 47%, and infrared at 46%. Air mass affects radiation path.">
    <rect x="20" y="365" width="760" height="100" rx="8" fill="white" filter="url(#shadow)"/>
    <rect x="20" y="365" width="5" height="100" rx="2" fill="#9c27b0"/>
    <text x="40" y="385" class="label-text" fill="#9c27b0" font-weight="bold">🌈 SOLAR SPECTRUM &amp; AIR MASS</text>
    <rect x="40" y="400" width="400" height="20" rx="3">
      <animate attributeName="width" from="0" to="400" dur="1s" fill="freeze"/>
    </rect>
    <rect x="40" y="400" width="400" height="20" rx="3" fill="url(#solarGradient)" opacity="0.3"/>
    <rect x="40" y="400" width="28" height="20" fill="#7b1fa2"/>
    <text x="54" y="414" text-anchor="middle" class="label-text" fill="white" font-size="7">UV</text>
    <rect x="68" y="400" width="188" height="20" fill="#ffeb3b"/>
    <text x="162" y="414" text-anchor="middle" class="label-text" fill="#333" font-size="7">VISIBLE</text>
    <rect x="256" y="400" width="184" height="20" fill="#f44336"/>
    <text x="348" y="414" text-anchor="middle" class="label-text" fill="white" font-size="7">INFRARED</text>
    <text x="450" y="410" class="body-text">UV: 7%</text>
    <text x="450" y="425" class="body-text">Visible: 47%</text>
    <text x="450" y="440" class="body-text">IR: 46%</text>
    <rect x="560" y="395" width="200" height="55" rx="5" fill="#f3e5f5" stroke="#9c27b0" stroke-width="1"/>
    <text x="570" y="415" class="label-text" fill="#7b1fa2" font-weight="bold">AIR MASS (AM)</text>
    <text x="570" y="432" class="body-text">AM1 = Noon sun</text>
    <text x="570" y="445" class="body-text">AM1.5 = Standard test condition</text>
  </g>
  
  <!-- STEP 5: Solar Thermal Systems Overview -->
  <g class="step" id="step5" data-narration="Solar thermal systems capture radiation and convert to heat using collectors with selective absorbing surfaces.">
    <rect x="20" y="475" width="760" height="100" rx="8" fill="white" filter="url(#shadow)"/>
    <rect x="20" y="475" width="5" height="100" rx="2" fill="#ff9800"/>
    <text x="40" y="495" class="label-text" fill="#ff9800" font-weight="bold">🔥 SOLAR THERMAL SYSTEMS</text>
    <rect x="40" y="510" width="345" height="55" rx="6" fill="#fff3e0" stroke="#ff9800" stroke-width="1"/>
    <text x="55" y="530" class="label-text" fill="#e65100" font-weight="bold">FLAT-PLATE COLLECTORS</text>
    <text x="55" y="547" class="body-text">• Temp: Up to 80°C</text>
    <text x="55" y="560" class="body-text">• Uses: Hot water, space heating</text>
    <rect x="400" y="510" width="345" height="55" rx="6" fill="#ffcc80" stroke="#e65100" stroke-width="1"/>
    <text x="415" y="530" class="label-text" fill="#e65100" font-weight="bold">CONCENTRATING COLLECTORS</text>
    <text x="415" y="547" class="body-text">• Temp: >400°C (parabolic trough, tower)</text>
    <text x="415" y="560" class="body-text">• Uses: Power generation</text>
  </g>
  
  <!-- STEP 6: Flat-Plate Collector Details -->
  <g class="step" id="step6" data-narration="A flat-plate collector has absorber plate, transparent cover, insulation, and housing for capturing both direct and diffuse radiation.">
    <rect x="20" y="585" width="760" height="100" rx="8" fill="white" filter="url(#shadow)"/>
    <rect x="20" y="585" width="5" height="100" rx="2" fill="#ff9800"/>
    <text x="40" y="605" class="label-text" fill="#ff9800" font-weight="bold">🔲 FLAT-PLATE COLLECTOR ANATOMY</text>
    <rect x="50" y="620" width="280" height="55" rx="3" fill="#e0e0e0" stroke="#666"/>
    <rect x="50" y="620" width="280" height="10" rx="1" fill="#bdbdbd"/>
    <rect x="50" y="630" width="280" height="35" rx="1" fill="#424242"/>
    <rect x="50" y="665" width="280" height="10" rx="1" fill="#9e9e9e"/>
    <text x="340" y="635" class="label-text">Glass Cover</text>
    <text x="340" y="652" class="label-text">Absorber Plate</text>
    <text x="340" y="670" class="label-text">Insulation</text>
    <rect x="380" y="620" width="380" height="55" rx="5" fill="#fff3e0"/>
    <text x="400" y="645" class="label-text" fill="#e65100" font-weight="bold">Collector Efficiency Formula:</text>
    <text x="400" y="665" class="formula-text">η = Qu / (G × A)</text>
    <text x="530" y="665" class="body-text" fill="#666">where Qu = useful heat, G = radiation, A = area</text>
  </g>
  
  <!-- STEP 7: Concentrating Collectors -->
  <g class="step" id="step7" data-narration="Concentrating collectors use mirrors to focus sunlight onto a receiver, achieving high temperatures for power generation.">
    <rect x="20" y="695" width="760" height="100" rx="8" fill="white" filter="url(#shadow)"/>
    <rect x="20" y="695" width="5" height="100" rx="2" fill="#ff9800"/>
    <text x="40" y="715" class="label-text" fill="#ff9800" font-weight="bold">🔶 CONCENTRATING SOLAR THERMAL</text>
    <path d="M50 750 Q150 780 250 750" stroke="#e65100" stroke-width="3" fill="none"/>
    <rect x="140" y="730" width="30" height="60" rx="2" fill="#424242"/>
    <line x1="155" y1="790" x2="155" y2="795" stroke="#e65100" stroke-width="2" marker-end="url(#arrowOrange)"/>
    <text x="260" y="760" class="label-text">Parabolic Trough</text>
    <line x1="380" y1="790" x2="380" y2="730" stroke="#666" stroke-width="2"/>
    <rect x="370" y="730" width="20" height="60" fill="#757575"/>
    <line x1="380" y1="750" x2="450" y2="750" stroke="#ff9800" stroke-width="2" marker-end="url(#arrowOrange)"/>
    <line x1="380" y1="760" x2="450" y2="760" stroke="#ff9800" stroke-width="2" marker-end="url(#arrowOrange)"/>
    <text x="460" y="755" class="label-text">Solar Tower (Heliostats)</text>
    <rect x="580" y="720" width="180" height="65" rx="5" fill="#fff3e0" stroke="#ff9800"/>
    <text x="590" y="745" class="label-text" fill="#e65100" font-weight="bold">Concentration Ratio</text>
    <text x="590" y="765" class="formula-text">CR = Aperture Area</text>
    <text x="590" y="780" class="formula-text">      Absorber Area</text>
  </g>
  
  <!-- STEP 8: Photovoltaic Effect -->
  <g class="step" id="step8" data-narration="The photovoltaic effect generates electricity when photons with energy greater than the bandgap strike a semiconductor junction.">
    <rect x="20" y="805" width="760" height="100" rx="8" fill="white" filter="url(#shadow)"/>
    <rect x="20" y="805" width="5" height="100" rx="2" fill="#1976d2"/>
    <text x="40" y="825" class="label-text" fill="#1976d2" font-weight="bold">⚡ PHOTOVOLTAIC EFFECT</text>
    <rect x="50" y="850" width="120" height="40" rx="2" fill="#e3f2fd" stroke="#1976d2" stroke-width="1"/>
    <text x="110" y="875" text-anchor="middle" class="label-text" fill="#1565c0">p-type Si</text>
    <rect x="180" y="850" width="120" height="40" rx="2" fill="#bbdefb" stroke="#1976d2" stroke-width="1"/>
    <text x="240" y="875" text-anchor="middle" class="label-text" fill="#1565c0">n-type Si</text>
    <circle cx="110" y="840" r="4" fill="#ff9800">
      <animate attributeName="cy" from="835" to="855" dur="1s" repeatCount="indefinite"/>
    </circle>
    <circle cx="140" y="838" r="4" fill="#ff9800">
      <animate attributeName="cy" from="833" to="853" dur="1s" repeatCount="indefinite" begin="0.3s"/>
    </circle>
    <circle cx="240" y="838" r="4" fill="#ff9800">
      <animate attributeName="cy" from="833" to="853" dur="1s" repeatCount="indefinite" begin="0.5s"/>
    </circle>
    <path d="M250 870 L320 870 L320 890" stroke="#1976d2" stroke-width="2" fill="none" marker-end="url(#arrowBlue)">
      <animate attributeName="stroke-dasharray" values="0,100;100,0" dur="1s" fill="freeze"/>
    </path>
    <text x="330" y="880" class="label-text" fill="#1565c0">Electric Current</text>
    <rect x="400" y="845" width="360" height="50" rx="5" fill="#e3f2fd"/>
    <text x="420" y="870" class="label-text" fill="#1565c0" font-weight="bold">Photon Energy: E = hc/λ</text>
    <text x="420" y="888" class="body-text" fill="#666">h = Planck's constant, c = speed of light, λ = wavelength</text>
  </g>
  
  <!-- STEP 9: I-V Characteristics -->
  <g class="step" id="step9" data-narration="The I-V curve shows PV cell performance with key parameters: short-circuit current, open-circuit voltage, and fill factor for quality.">
    <rect x="20" y="915" width="760" height="100" rx="8" fill="white" filter="url(#shadow)"/>
    <rect x="20" y="915" width="5" height="100" rx="2" fill="#1976d2"/>
    <text x="40" y="935" class="label-text" fill="#1976d2" font-weight="bold">📊 PV CELL I-V CHARACTERISTICS</text>
    <rect x="50" y="955" width="250" height="50" rx="2" fill="#f5f5f5" stroke="#ccc"/>
    <line x1="50" y1="1005" x2="300" y2="1005" stroke="#333" stroke-width="1"/>
    <line x1="50" y1="955" x2="50" y2="1005" stroke="#333" stroke-width="1"/>
    <path d="M50 955 Q100 955 150 970 Q200 990 280 1005" stroke="#1976d2" stroke-width="2" fill="none">
      <animate attributeName="stroke-dasharray" values="0,300;300,0" dur="1.5s" fill="freeze"/>
    </path>
    <text x="55" y="950" class="label-text">Isc</text>
    <text x="285" y="1020" class="label-text">Voc</text>
    <text x="160" y="975" class="label-text" fill="#ff9800">Pmax</text>
    <rect x="320" y="955" width="200" height="50" rx="5" fill="#e3f2fd"/>
    <text x="330" y="972" class="body-text" fill="#1565c0">Isc = Short-circuit current</text>
    <text x="330" y="988" class="body-text" fill="#1565c0">Voc = Open-circuit voltage</text>
    <text x="330" y="1004" class="body-text" fill="#1565c0">FF = Fill Factor (quality)</text>
    <rect x="530" y="955" width="230" height="50" rx="5" fill="#e8f5e9"/>
    <text x="545" y="975" class="label-text" fill="#2e7d32" font-weight="bold">Efficiency Range:</text>
    <text x="545" y="992" class="body-text">Commercial Si: 15-22%</text>
    <text x="545" y="1006" class="body-text">Multi-junction (lab): >40%</text>
  </g>
  
  <!-- STEP 10: PV System Types -->
  <g class="step" id="step10" data-narration="Grid-connected PV systems feed excess power to the grid, while off-grid systems use batteries for storage during nighttime.">
    <rect x="20" y="1025" width="760" height="100" rx="8" fill="white" filter="url(#shadow)"/>
    <rect x="20" y="1025" width="5" height="100" rx="2" fill="#388e3c"/>
    <text x="40" y="1045" class="label-text" fill="#388e3c" font-weight="bold">🔌 PV SYSTEM TYPES</text>
    <rect x="40" y="1060" width="345" height="55" rx="6" fill="#e8f5e9" stroke="#388e3c"/>
    <text x="55" y="1080" class="label-text" fill="#2e7d32" font-weight="bold">GRID-CONNECTED</text>
    <text x="55" y="1097" class="body-text">PV Array → Inverter → Grid</text>
    <text x="55" y="1110" class="body-text">Excess power sold to utility</text>
    <rect x="400" y="1060" width="345" height="55" rx="6" fill="#fff3e0" stroke="#ff9800"/>
    <text x="415" y="1080" class="label-text" fill="#e65100" font-weight="bold">OFF-GRID (STAND-ALONE)</text>
    <text x="415" y="1097" class="body-text">PV → Controller → Battery → Load</text>
    <text x="415" y="1110" class="body-text">Requires battery storage</text>
    <text x="40" y="1130" class="body-text" fill="#666">Typical capacity factor: 15-25%</text>
  </g>
  
  <!-- STEP 11: Energy Storage -->
  <g class="step" id="step11" data-narration="Energy storage addresses solar intermittency through thermal storage like molten salts, and battery storage systems for round-the-clock power.">
    <rect x="20" y="1135" width="760" height="100" rx="8" fill="white" filter="url(#shadow)"/>
    <rect x="20" y="1135" width="5" height="100" rx="2" fill="#9c27b0"/>
    <text x="40" y="1155" class="label-text" fill="#9c27b0" font-weight="bold">🔋 SOLAR ENERGY STORAGE</text>
    <rect x="40" y="1175" width="345" height="50" rx="6" fill="#f3e5f5" stroke="#9c27b0"/>
    <text x="55" y="1192" class="label-text" fill="#7b1fa2" font-weight="bold">THERMAL STORAGE</text>
    <text x="55" y="1208" class="body-text">Molten salts, concrete, PCM • For thermal power plants</text>
    <rect x="400" y="1175" width="345" height="50" rx="6" fill="#e3f2fd" stroke="#1976d2"/>
    <text x="415" y="1192" class="label-text" fill="#1565c0" font-weight="bold">BATTERY STORAGE</text>
    <text x="415" y="1208" class="body-text">Lead-acid, Li-ion, Flow batteries • For off-grid PV systems</text>
    <text x="40" y="1245" class="formula-text">Battery Capacity (Ah) = Energy × Days / (Voltage × DOD)</text>
    <text x="450" y="1245" class="formula-text">Depth of Discharge: Lead-acid 50%, Li-ion 80%</text>
  </g>
  
  <!-- STEP 12: Solar Passive Architecture -->
  <g class="step" id="step12" data-narration="Solar passive design uses building orientation, thermal mass, and shading for natural heating and cooling without mechanical systems.">
    <rect x="20" y="1245" width="760" height="100" rx="8" fill="white" filter="url(#shadow)"/>
    <rect x="20" y="1245" width="5" height="100" rx="2" fill="#ff9800"/>
    <text x="40" y="1265" class="label-text" fill="#ff9800" font-weight="bold">🏠 SOLAR PASSIVE ARCHITECTURE</text>
    <rect x="50" y="1295" width="120" height="35" rx="2" fill="#ffcc80" stroke="#e65100"/>
    <rect x="70" y="1300" width="25" height="25" fill="#e3f2fd" stroke="#1976d2"/>
    <rect x="125" y="1300" width="25" height="25" fill="#e3f2fd" stroke="#1976d2"/>
    <line x1="40" y1="1285" x2="70" y2="1295" stroke="#ff9800" stroke-width="2" marker-end="url(#arrowOrange)"/>
    <text x="180" y="1315" class="label-text">South-facing windows</text>
    <rect x="250" y="1290" width="40" height="40" rx="2" fill="#9e9e9e" stroke="#666"/>
    <text x="300" y="1310" class="label-text">Thermal Mass</text>
    <text x="300" y="1325" class="body-text">(concrete, stone, water)</text>
    <rect x="400" y="1285" width="60" height="5" rx="1" fill="#795548"/>
    <line x1="430" y1="1290" x2="430" y2="1330" stroke="#ff9800" stroke-width="1" stroke-dasharray="4"/>
    <text x="470" y="1310" class="label-text">Summer shading</text>
    <rect x="550" y="1285" width="200" height="50" rx="5" fill="#e8f5e9"/>
    <text x="560" y="1305" class="label-text" fill="#2e7d32" font-weight="bold">Energy Savings:</text>
    <text x="560" y="1325" class="body-text">40-60% reduction in heating</text>
  </g>
  
  <!-- STEP 13: Example Calculation -->
  <g class="step" id="step13" data-narration="Let's apply the formulas to size a PV system: calculate module count and battery capacity for a 2 kWh per day load requirement.">
    <rect x="20" y="1355" width="760" height="100" rx="8" fill="white" filter="url(#shadow)"/>
    <rect x="20" y="1355" width="5" height="100" rx="2" fill="#1976d2"/>
    <text x="40" y="1375" class="label-text" fill="#1976d2" font-weight="bold">📝 EXAMPLE: PV SYSTEM SIZING</text>
    <rect x="40" y="1395" width="200" height="50" rx="5" fill="#e3f2fd"/>
    <text x="50" y="1412" class="label-text" fill="#1565c0" font-weight="bold">Given:</text>
    <text x="50" y="1428" class="body-text">• 2 kWh/day energy need</text>
    <text x="50" y="1442" class="body-text">• 5 peak sun hours, 80% efficiency</text>
    <rect x="250" y="1395" width="240" height="50" rx="5" fill="#fff3e0"/>
    <text x="260" y="1412" class="label-text" fill="#e65100" font-weight="bold">Step 1: PV Size</text>
    <text x="260" y="1428" class="formula-text">PV = 2000/(5×0.80) = 500W</text>
    <text x="260" y="1442" class="body-text">→ 5 modules of 100W each</text>
    <rect x="500" y="1395" width="260" height="50" rx="5" fill="#e8f5e9"/>
    <text x="510" y="1412" class="label-text" fill="#2e7d32" font-weight="bold">Step 2: Battery</text>
    <text x="510" y="1428" class="formula-text">Cap = 2000×3/(12×0.5)</text>
    <text x="510" y="1442" class="body-text">= 1000 Ah → 5 batteries (200Ah)</text>
  </g>
  
  <!-- STEP 14: Key Formulas Summary -->
  <g class="step" id="step14" data-narration="Review key formulas: collector efficiency, PV efficiency, battery capacity, and PV array sizing for your engineering exams.">
    <rect x="20" y="1465" width="760" height="85" rx="8" fill="white" filter="url(#shadow)"/>
    <rect x="20" y="1465" width="5" height="85" rx="2" fill="#1565c0"/>
    <text x="40" y="1485" class="label-text" fill="#1565c0" font-weight="bold">📐 KEY FORMULAS</text>
    <text x="40" y="1510" class="formula-text">η(collector) = Qu / (G × A)</text>
    <text x="220" y="1510" class="formula-text">η(PV) = Pmax / (G × A)</text>
    <text x="420" y="1510" class="formula-text">Battery(Ah) = Energy × Days / (V × DOD)</text>
    <text x="40" y="1535" class="formula-text">PV size = Daily Energy / (Peak hrs × efficiency)</text>
    <text x="420" y="1535" class="formula-text">FR = Qu / [Ul × A × (Ti - Ta)]</text>
  </g>
  
  <!-- STEP 15: Key Takeaways -->
  <g class="step" id="step15" data-narration="Solar energy is abundant, sustainable, and crucial for our future. Master these concepts for your engineering exams and real-world applications.">
    <rect x="20" y="1560" width="760" height="100" rx="8" fill="url(#blueGradient)" filter="url(#shadow)"/>
    <text x="400" y="1590" text-anchor="middle" class="title-text" fill="white">✅ KEY TAKEAWAYS</text>
    <text x="50" y="1620" class="body-text" fill="white">• Solar constant: 1367 W/m² at atmosphere</text>
    <text x="50" y="1640" class="body-text" fill="white">• Flat-plate: &lt;80°C, Concentrating: >400°C</text>
    <text x="300" y="1620" class="body-text" fill="white">• PV efficiency: 15-22% commercial</text>
    <text x="300" y="1640" class="body-text" fill="white">• Grid-connected vs Off-grid systems</text>
    <text x="550" y="1620" class="body-text" fill="white">• Battery DOD: Lead-acid 50%, Li-ion 80%</text>
    <text x="550" y="1640" class="body-text" fill="white">• Passive solar: 40-60% energy savings</text>
    <circle cx="730" cy="1610" r="25" fill="#fff3e0" opacity="0.9"/>
    <circle cx="730" cy="1610" r="15" fill="#ff9800"/>
  </g>
</svg>