<svg width="420" height="400" data-topic-id="regression-diagnostics">
  <!-- Gradient background with pastel colors -->
  <defs>
    <linearGradient id="gradient" x1="0%" y1="0%" x2="100%" y2="0%">
      <stop offset="0%" stop-color="#C7B8EA" stop-opacity="1" />
      <stop offset="100%" stop-color="#87CEEB" stop-opacity="1" />
    </linearGradient>
  </defs>
  <rect x="0" y="0" width="100%" height="100%" fill="url(#gradient)" opacity="0.5" />
  
  <!-- Title at top -->
  <text x="10" y="20" font-size="24" font-family="Arial, sans-serif" text-anchor="start" fill="#2E4053">
    Regression Diagnostics
  </text>

  <!-- Section 1: Introduction -->
  <section data-narration="Introduction">
    <rect x="10" y="60" width="380" height="100" fill="#F7F7F7" opacity="1" rx="10" />
    <text x="15" y="70" font-size="18" font-family="Arial, sans-serif" text-anchor="start" fill="#2E4053">
      Introduction
    </text>
    <animate transform="rotate(360 20 120)" begin="0s" dur="2s" repeatCount="indefinite" />
    <path d="M 20 120 C 30 100 40 90 50 80" stroke="#87CEEB" stroke-width="4" fill="none" />
  </section>

  <!-- Section 2: Assumptions of Simple Linear Regression -->
  <section data-narration="Assumptions of Simple Linear Regression">
    <rect x="10" y="170" width="380" height="100" fill="#F7F7F7" opacity="1" rx="10" />
    <text x="15" y="180" font-size="18" font-family="Arial, sans-serif" text-anchor="start" fill="#2E4053">
      Assumptions of Simple Linear Regression
    </text>
    <animate transform="rotate(360 20 220)" begin="0s" dur="2s" repeatCount="indefinite" />
    <path d="M 20 220 C 30 200 40 190 50 180" stroke="#87CEEB" stroke-width="4" fill="none" />
    <path d="M 30 180 L 40 190" stroke="#2E4053" stroke-width="2" fill="none" />
    <path d="M 40 190 L 50 180" stroke="#2E4053" stroke-width="2" fill="none" />
  </section>

  <!-- Section 3: Types of Regression Diagnostics -->
  <section data-narration="Types of Regression Diagnostics">
    <rect x="10" y="280" width="380" height="100" fill="#F7F7F7" opacity="1" rx="10" />
    <text x="15" y="290" font-size="18" font-family="Arial, sans-serif" text-anchor="start" fill="#2E4053">
      Types of Regression Diagnostics
    </text>
    <animate transform="rotate(360 20 320)" begin="0s" dur="2s" repeatCount="indefinite" />
    <path d="M 20 320 C 30 300 40 290 50 280" stroke="#87CEEB" stroke-width="4" fill="none" />
    <path d="M 30 280 L 40 290" stroke="#2E4053" stroke-width="2" fill="none" />
    <path d="M 40 290 L 50 280" stroke="#2E4053" stroke-width="2" fill="none" />
  </section>

  <!-- Section 4: Diagnostic Tools for Regression -->
  <section data-narration="Diagnostic Tools for Regression">
    <rect x="10" y="390" width="380" height="100" fill="#F7F7F7" opacity="1" rx="10" />
    <text x="15" y="400" font-size="18" font-family="Arial, sans-serif" text-anchor="start" fill="#2E4053">
      Diagnostic Tools for Regression
    </text>
    <animate transform="rotate(360 20 440)" begin="0s" dur="2s" repeatCount="indefinite" />
    <path d="M 20 440 C 30 420 40 410 50 400" stroke="#87CEEB" stroke-width="4" fill="none" />
    <path d="M 30 410 L 40 420" stroke="#2E4053" stroke-width="2" fill="none" />
    <path d="M 40 420 L 50 410" stroke="#2E4053" stroke-width="2" fill="none" />
  </section>

  <!-- Section 5: Regression Summarization Table -->
  <section data-narration="Regression Summarization Table">
    <rect x="10" y="500" width="380" height="100" fill="#F7F7F7" opacity="1" rx="10" />
    <text x="15" y="510" font-size="18" font-family="Arial, sans-serif" text-anchor="start" fill="#2E4053">
      Regression Summarization Table
    </text>
    <animate transform="rotate(360 20 560)" begin="0s" dur="2s" repeatCount="indefinite" />
    <path d="M 20 560 C 30 540 40 530 50 520" stroke="#87CEEB" stroke-width="4" fill="none" />
    <path d="M 30 530 L 40 540" stroke="#2E4053" stroke-width="2" fill="none" />
    <path d="M 40 540 L 50 530" stroke="#2E4053" stroke-width="2" fill="none" />
  </section>

  <!-- Footer -->
  <text x="10" y="600" font-size="18" font-family="Arial, sans-serif" text-anchor="start" fill="#2E4053">
    Regression Diagnostics
  </text>
</svg>