<svg width="420" height="400" data-topic-id="synchronizing-physical-clocks"
     xmlns="http://www.w3.org/2000/svg" xmlns:xlink="http://www.w3.org/1999/xlink"
     viewBox="0 0 420 400" style="background:linear-gradient(to bottom, #C7E5F8, #E0E0F5);">
  <title>Synchronizing Physical Clocks</title>
  <defs>
    <linearGradient id="clock-gradient" x1="0%" y1="0%" x2="100%" y2="0%">
      <stop offset="0%" stop-color="#46A9E3" stop-opacity="1"/>
      <stop offset="100%" stop-color="#87CEEB" stop-opacity="1"/>
    </linearGradient>
  </defs>
  <rect x="10" y="10" width="400" height="380" style="fill:rgba(0, 128, 255, 0.3);"/>
  <rect x="10" y="10" width="400" height="380" style="fill:linear-gradient(to bottom, #C7E5F8, #E0E0F5);"/>
  <g transform="translate(20, 20)">
    <rect x="0" y="0" width="200" height="200" rx="10" style="fill:#fff;"/>
    <circle cx="100" cy="100" r="80" style="fill:#46A9E3;"/>
    <text x="80" y="120" style="font-size:24px;fill:#000">Drift</text>
    <animateTransform attributeName="transform" type="rotate" from="0 100 100" to="360 100 100" dur="10s" repeatCount="indefinite"/>
  </g>
  <g transform="translate(230, 20)">
    <rect x="0" y="0" width="200" height="200" rx="10" style="fill:#fff;"/>
    <circle cx="100" cy="100" r="80" style="fill:#87CEEB;"/>
    <text x="80" y="120" style="font-size:24px;fill:#000">Asymmetry</text>
    <animateTransform attributeName="transform" type="rotate" from="0 100 100" to="360 100 100" dur="10s" repeatCount="indefinite"/>
  </g>
  <g transform="translate(460, 20)">
    <rect x="0" y="0" width="200" height="200" rx="10" style="fill:#fff;"/>
    <circle cx="100" cy="100" r="80" style="fill:#FFC107;"/>
    <text x="80" y="120" style="font-size:24px;fill:#000">Network Latency</text>
    <animateTransform attributeName="transform" type="rotate" from="0 100 100" to="360 100 100" dur="10s" repeatCount="indefinite"/>
  </g>
  <g transform="translate(10, 250)">
    <rect x="0" y="0" width="400" height="80" rx="10" style="fill:#fff;"/>
    <text x="20" y="40" style="font-size:18px;fill:#000">NTP (Network Time Protocol)</text>
    <animate attributeName="opacity" from="1" to="0" dur="2s" repeatCount="indefinite"/>
  </g>
  <g transform="translate(10, 330)">
    <rect x="0" y="0" width="400" height="80" rx="10" style="fill:#fff;"/>
    <text x="20" y="40" style="font-size:18px;fill:#000">PDCP (Packet Delay Measurement)</text>
    <animate attributeName="opacity" from="1" to="0" dur="2s" repeatCount="indefinite"/>
  </g>
  <g transform="translate(10, 410)">
    <rect x="0" y="0" width="400" height="80" rx="10" style="fill:#fff;"/>
    <text x="20" y="40" style="font-size:18px;fill:#000">Clock Synchronization</text>
    <animate attributeName="opacity" from="1" to="0" dur="2s" repeatCount="infinite"/>
  </g>
  <g transform="translate(10, 490)">
    <rect x="0" y="0" width="400" height="80" rx="10" style="fill:#fff;"/>
    <text x="20" y="40" style="font-size:18px;fill:#000">Benefits of Clock Synchronization</text>
    <animate attributeName="opacity" from="1" to="0" dur="2s" repeatCount="infinite"/>
  </g>
  <g transform="translate(10, 570)">
    <rect x="0" y="0" width="400" height="80" rx="10" style="fill:#fff;"/>
    <text x="20" y="40" style="font-size:18px;fill:#000">Best Practices for Clock Synchronization</text>
    <animate attributeName="opacity" from="1" to="0" dur="2s" repeatCount="infinite"/>
  </g>
  <g transform="translate(10, 650)">
    <rect x="0" y="0" width="400" height="80" rx="10" style="fill:#fff;"/>
    <text x="20" y="40" style="font-size:18px;fill:#000">Common Challenges in Clock Synchronization</text>
    <animate attributeName="opacity" from="1" to="0" dur="2s" repeatCount="infinite"/>
  </g>
  <g transform="translate(10, 730)">
    <rect x="0" y="0" width="400" height="80" rx="10" style="fill:#fff;"/>
    <text x="20" y="40" style="font-size:18px;fill:#000">Troubleshooting Tips for Clock Synchronization</text>
    <animate attributeName="opacity" from="1" to="0" dur="2s" repeatCount="infinite"/>
  </g>
  <g transform="translate(10, 810)">
    <rect x="0" y="0" width="400" height="80" rx="10" style="fill:#fff;"/>
    <text x="20" y="40" style="font-size:18px;fill:#000">Conclusion</text>
    <animate attributeName="opacity" from="1" to="0" dur="2s" repeatCount="infinite"/>
  </g>
  <g transform="translate(10, 890)">
    <rect x="0" y="0" width="400" height="80" rx="10" style="fill:#fff;"/>
    <text x="20" y="40" style="font-size:18px;fill:#000">References</text>
    <animate attributeName="opacity" from="1" to="0" dur="2s" repeatCount="infinite"/>
  </g>
  <g transform="translate(10, 970)">
    <rect x="0" y="0" width="400" height="80" rx="10" style="fill:#fff;"/>
    <text x="20" y="40" style="font-size:18px;fill:#000">About Us</text>
    <animate attributeName="opacity" from="1" to="0" dur="2s" repeatCount="infinite"/>
  </g>
</svg>