<svg viewBox="0 0 800 1660" xmlns="http://www.w3.org/2000/svg">
  <defs>
    <linearGradient id="bgGrad" x1="0%" y1="0%" x2="100%" y2="100%">
      <stop offset="0%" style="stop-color:#f8f9fa"/>
      <stop offset="100%" style="stop-color:#e9ecef"/>
    </linearGradient>
    <linearGradient id="blueGrad" x1="0%" y1="0%" x2="0%" y2="100%">
      <stop offset="0%" style="stop-color:#42a5f5"/>
      <stop offset="100%" style="stop-color:#1976d2"/>
    </linearGradient>
    <linearGradient id="greenGrad" x1="0%" y1="0%" x2="0%" y2="100%">
      <stop offset="0%" style="stop-color:#66bb6a"/>
      <stop offset="100%" style="stop-color:#388e3c"/>
    </linearGradient>
    <linearGradient id="orangeGrad" x1="0%" y1="0%" x2="0%" y2="100%">
      <stop offset="0%" style="stop-color:#ffa726"/>
      <stop offset="100%" style="stop-color:#f57c00"/>
    </linearGradient>
    <linearGradient id="purpleGrad" x1="0%" y1="0%" x2="0%" y2="100%">
      <stop offset="0%" style="stop-color:#ab47bc"/>
      <stop offset="100%" style="stop-color:#7b1fa2"/>
    </linearGradient>
    <filter id="shadow" x="-20%" y="-20%" width="140%" height="140%">
      <feDropShadow dx="2" dy="2" stdDeviation="3" flood-opacity="0.2"/>
    </filter>
    <marker id="arrowBlue" markerWidth="10" markerHeight="10" refX="9" refY="3" orient="auto">
      <path d="M0,0 L0,6 L9,3 z" fill="#1976d2"/>
    </marker>
    <marker id="arrowGreen" markerWidth="10" markerHeight="10" refX="9" refY="3" orient="auto">
      <path d="M0,0 L0,6 L9,3 z" fill="#388e3c"/>
    </marker>
  </defs>
  
  <style>
    @keyframes fadeInSlide {
      from { opacity: 0; transform: translateY(20px); }
      to { opacity: 1; transform: translateY(0); }
    }
    @keyframes scaleIn {
      from { opacity: 0; transform: scale(0.85); }
      to { opacity: 1; transform: scale(1); }
    }
    @keyframes textReveal {
      from { opacity: 0; transform: translateX(-10px); }
      to { opacity: 1; transform: translateX(0); }
    }
    @keyframes pulse {
      0%, 100% { transform: scale(1); }
      50% { transform: scale(1.03); }
    }
    @keyframes drawLine {
      from { stroke-dashoffset: 200; }
      to { stroke-dashoffset: 0; }
    }
    .step { animation: fadeInSlide 0.6s ease-out; }
    .step rect {
      animation: scaleIn 0.5s cubic-bezier(0.34, 1.56, 0.64, 1);
      transform-origin: center;
    }
    .step text { animation: textReveal 0.4s ease-out 0.2s backwards; }
    .tree-line { stroke-dasharray: 200; animation: drawLine 1s ease-out forwards; }
  </style>
  
  <rect width="800" height="1660" fill="url(#bgGrad)"/>
  
  <!-- Step 0: Title -->
  <g class="step" id="step0" data-narration="Welcome to Huffman Coding - a powerful lossless compression algorithm that forms the backbone of modern file formats.">
    <rect x="50" y="10" width="700" height="45" rx="10" fill="url(#blueGrad)" filter="url(#shadow)"/>
    <text x="400" y="42" text-anchor="middle" font-size="22" font-weight="bold" fill="white">Huffman Trees and Codes</text>
    <text x="400" y="62" text-anchor="middle" font-size="11" fill="#666">Lossless Data Compression using Greedy Algorithm</text>
  </g>
  
  <!-- Step 1: What is Huffman Coding -->
  <g class="step" id="step1" data-narration="Huffman coding assigns shorter binary codes to frequent characters and longer codes to rare ones, reducing storage.">
    <rect x="50" y="70" width="340" height="85" rx="8" fill="white" filter="url(#shadow)"/>
    <rect x="50" y="70" width="340" height="22" rx="8" fill="url(#blueGrad)"/>
    <text x="220" y="85" text-anchor="middle" font-size="12" font-weight="bold" fill="white">What is Huffman Coding?</text>
    <text x="60" y="108" font-size="10" fill="#333">• Developed by David A. Huffman in 1952</text>
    <text x="60" y="122" font-size="10" fill="#333">• Lossless compression algorithm</text>
    <text x="60" y="136" font-size="10" fill="#333">• Uses variable-length binary codes</text>
    <text x="410" y="70" width="340" height="85" rx="8" fill="white" filter="url(#shadow)"/>
    <rect x="410" y="70" width="340" height="22" rx="8" fill="url(#greenGrad)"/>
    <text x="580" y="85" text-anchor="middle" font-size="12" font-weight="bold" fill="white">Key Insight</text>
    <text x="420" y="108" font-size="10" fill="#333">Frequent symbols → Short codes</text>
    <text x="420" y="122" font-size="10" fill="#333">Rare symbols → Long codes</text>
    <text x="420" y="136" font-size="10" fill="#333">Example: 'E' (common) = 0, 'Z' (rare) = 1111</text>
  </g>
  
  <!-- Step 2: Why Compression Matters -->
  <g class="step" id="step2" data-narration="Real-world applications include ZIP files, JPEG images, and MP3 audio - all using Huffman coding principles.">
    <rect x="50" y="170" width="700" height="85" rx="8" fill="white" filter="url(#shadow)"/>
    <rect x="50" y="170" width="700" height="22" rx="8" fill="url(#orangeGrad)"/>
    <text x="400" y="185" text-anchor="middle" font-size="12" font-weight="bold" fill="white">Applications of Huffman Coding</text>
    <circle cx="100" cy="225" r="15" fill="#e3f2fd"/>
    <text x="100" y="229" text-anchor="middle" font-size="14">📦</text>
    <text x="100" y="248" text-anchor="middle" font-size="9" fill="#333">ZIP, gzip</text>
    <circle cx="200" cy="225" r="15" fill="#e8f5e9"/>
    <text x="200" y="229" text-anchor="middle" font-size="14">🖼️</text>
    <text x="200" y="248" text-anchor="middle" font-size="9" fill="#333">JPEG</text>
    <circle cx="300" cy="225" r="15" fill="#fff3e0"/>
    <text x="300" y="229" text-anchor="middle" font-size="14">🎵</text>
    <text x="300" y="248" text-anchor="middle" font-size="9" fill="#333">MP3</text>
    <circle cx="400" cy="225" r="15" fill="#f3e5f5"/>
    <text x="400" y="229" text-anchor="middle" font-size="14">📡</text>
    <text x="400" y="248" text-anchor="middle" font-size="9" fill="#333">PNG</text>
    <circle cx="500" cy="225" r="15" fill="#ffebee"/>
    <text x="500" y="229" text-anchor="middle" font-size="14">📺</text>
    <text x="500" y="248" text-anchor="middle" font-size="9" fill="#333">PDF</text>
    <circle cx="600" cy="225" r="15" fill="#e0f7fa"/>
    <text x="600" y="229" text-anchor="middle" font-size="14">🌐</text>
    <text x="600" y="248" text-anchor="middle" font-size="9" fill="#333">HTTP</text>
    <circle cx="700" cy="225" r="15" fill="#fce4ec"/>
    <text x="700" y="229" text-anchor="middle" font-size="14">📱</text>
    <text x="700" y="248" text-anchor="middle" font-size="9" fill="#333">3GPP</text>
  </g>
  
  <!-- Step 3: Prefix Codes -->
  <g class="step" id="step3" data-narration="Prefix codes ensure no code is a prefix of another, enabling unique decoding without separators between symbols.">
    <rect x="50" y="270" width="700" height="90" rx="8" fill="white" filter="url(#shadow)"/>
    <rect x="50" y="270" width="700" height="22" rx="8" fill="url(#purpleGrad)"/>
    <text x="400" y="285" text-anchor="middle" font-size="12" font-weight="bold" fill="white">Prefix Codes - The Foundation</text>
    <text x="60" y="310" font-size="10" fill="#333">Definition: A coding system where NO code word is a prefix of any other code word.</text>
    <text x="60" y="325" font-size="10" fill="#333">This ensures unique decodability without requiring delimiters between encoded symbols.</text>
    <rect x="60" y="335" width="200" height="20" rx="4" fill="#e8f5e9"/>
    <text x="160" y="349" text-anchor="middle" font-size="10" fill="#388e3c">✓ Valid: A=0, B=10, C=110</text>
    <rect x="280" y="335" width="280" height="20" rx="4" fill="#ffebee"/>
    <text x="420" y="349" text-anchor="middle" font-size="10" fill="#f44336">✗ Invalid: A=0, B=01 (0 is prefix of 01)</text>
  </g>
  
  <!-- Step 4: Huffman Tree Algorithm -->
  <g class="step" id="step4" data-narration="The greedy algorithm builds the Huffman tree by repeatedly combining the two nodes with smallest frequencies.">
    <rect x="50" y="375" width="700" height="85" rx="8" fill="white" filter="url(#shadow)"/>
    <rect x="50" y="375" width="700" height="22" rx="8" fill="url(#blueGrad)"/>
    <text x="400" y="390" text-anchor="middle" font-size="12" font-weight="bold" fill="white">Huffman Tree Construction Algorithm</text>
    <rect x="60" y="405" width="120" height="50" rx="6" fill="#e3f2fd" stroke="#1976d2" stroke-width="1"/>
    <text x="120" y="420" text-anchor="middle" font-size="9" fill="#1976d2">Step 1</text>
    <text x="120" y="435" text-anchor="middle" font-size="9" fill="#333">Create leaf nodes</text>
    <text x="120" y="447" text-anchor="middle" font-size="9" fill="#333">for each character</text>
    <path d="M180 430 L200 430" stroke="#1976d2" stroke-width="2" marker-end="url(#arrowBlue)"/>
    <rect x="200" y="405" width="120" height="50" rx="6" fill="#e3f2fd" stroke="#1976d2" stroke-width="1"/>
    <text x="260" y="420" text-anchor="middle" font-size="9" fill="#1976d2">Step 2</text>
    <text x="260" y="435" text-anchor="middle" font-size="9" fill="#333">Insert into</text>
    <text x="260" y="447" text-anchor="middle" font-size="9" fill="#333">min-heap (priority queue)</text>
    <path d="M320 430 L340 430" stroke="#1976d2" stroke-width="2" marker-end="url(#arrowBlue)"/>
    <rect x="340" y="405" width="120" height="50" rx="6" fill="#e3f2fd" stroke="#1976d2" stroke-width="1"/>
    <text x="400" y="420" text-anchor="middle" font-size="9" fill="#1976d2">Step 3</text>
    <text x="400" y="435" text-anchor="middle" font-size="9" fill="#333">Extract two</text>
    <text x="400" y="447" text-anchor="middle" font-size="9" fill="#333">minimum frequencies</text>
    <path d="M460 430 L480 430" stroke="#1976d2" stroke-width="2" marker-end="url(#arrowBlue)"/>
    <rect x="480" y="405" width="120" height="50" rx="6" fill="#e3f2fd" stroke="#1976d2" stroke-width="1"/>
    <text x="540" y="420" text-anchor="middle" font-size="9" fill="#1976d2">Step 4</text>
    <text x="540" y="435" text-anchor="middle" font-size="9" fill="#333">Create internal node</text>
    <text x="540" y="447" text-anchor="middle" font-size="9" fill="#333">(sum of frequencies)</text>
    <path d="M600 430 L620 430" stroke="#1976d2" stroke-width="2" marker-end="url(#arrowBlue)"/>
    <rect x="620" y="405" width="120" height="50" rx="6" fill="#e3f2fd" stroke="#1976d2" stroke-width="1"/>
    <text x="680" y="420" text-anchor="middle" font-size="9" fill="#1976d2">Step 5</text>
    <text x="680" y="435" text-anchor="middle" font-size="9" fill="#333">Insert back</text>
    <text x="680" y="447" text-anchor="middle" font-size="9" fill="#333">into heap</text>
  </g>
  
  <!-- Step 5: Example Problem Setup -->
  <g class="step" id="step5" data-narration="Let's work through an example with frequencies: A:45, B:13, C:12, D:16, E:9, F:5. Total = 100.">
    <rect x="50" y="475" width="700" height="85" rx="8" fill="white" filter="url(#shadow)"/>
    <rect x="50" y="475" width="700" height="22" rx="8" fill="url(#greenGrad)"/>
    <text x="400" y="490" text-anchor="middle" font-size="12" font-weight="bold" fill="white">Example: Build Huffman Tree</text>
    <text x="70" y="520" font-size="11" fill="#333" font-weight="bold">Given Frequencies:</text>
    <rect x="170" y="505" width="40" height="22" rx="4" fill="#ffebee"/>
    <text x="190" y="520" text-anchor="middle" font-size="10" fill="#333">A:45</text>
    <rect x="220" y="505" width="40" height="22" rx="4" fill="#e3f2fd"/>
    <text x="240" y="520" text-anchor="middle" font-size="10" fill="#333">B:13</text>
    <rect x="270" y="505" width="40" height="22" rx="4" fill="#fff3e0"/>
    <text x="290" y="520" text-anchor="middle" font-size="10" fill="#333">C:12</text>
    <rect x="320" y="505" width="40" height="22" rx="4" fill="#e8f5e9"/>
    <text x="340" y="520" text-anchor="middle" font-size="10" fill="#333">D:16</text>
    <rect x="370" y="505" width="40" height="22" rx="4" fill="#f3e5f5"/>
    <text x="390" y="520" text-anchor="middle" font-size="10" fill="#333">E:9</text>
    <rect x="420" y="505" width="40" height="22" rx="4" fill="#e0f7fa"/>
    <text x="440" y="520" text-anchor="middle" font-size="10" fill="#333">F:5</text>
    <text x="500" y="520" font-size="11" fill="#333" font-weight="bold">Sorted (min to max):</text>
    <rect x="620" y="505" width="40" height="22" rx="4" fill="#e0f7fa"/>
    <text x="640" y="520" text-anchor="middle" font-size="10" fill="#333">F:5</text>
    <rect x="670" y="505" width="40" height="22" rx="4" fill="#f3e5f5"/>
    <text x="690" y="520" text-anchor="middle" font-size="10" fill="#333">E:9</text>
    <rect x="620" y="535" width="40" height="22" rx="4" fill="#fff3e0"/>
    <text x="640" y="550" text-anchor="middle" font-size="10" fill="#333">C:12</text>
    <rect x="670" y="535" width="40" height="22" rx="4" fill="#e3f2fd"/>
    <text x="690" y="550" text-anchor="middle" font-size="10" fill="#333">B:13</text>
    <rect x="620" y="565" width="40" height="22" rx="4" fill="#e8f5e9"/>
    <text x="640" y="580" text-anchor="middle" font-size="10" fill="#333">D:16</text>
    <rect x="670" y="565" width="40" height="22" rx="4" fill="#ffebee"/>
    <text x="690" y="580" text-anchor="middle" font-size="10" fill="#333">A:45</text>
  </g>
  
  <!-- Step 6: Tree Construction Steps 1-3 -->
  <g class="step" id="step6" data-narration="Step 1: Combine F(5)+E(9)=14. Step 2: Combine C(12)+B(13)=25. Step 3: Combine 14+D(16)=30.">
    <rect x="50" y="575" width="700" height="85" rx="8" fill="white" filter="url(#shadow)"/>
    <rect x="50" y="575" width="700" height="22" rx="8" fill="url(#orangeGrad)"/>
    <text x="400" y="590" text-anchor="middle" font-size="12" font-weight="bold" fill="white">Tree Construction: Iteration 1-3</text>
    <text x="80" y="615" font-size="10" fill="#333">Iteration 1:</text>
    <rect x="180" y="602" width="35" height="18" rx="3" fill="#e0f7fa"/>
    <text x="197" y="615" text-anchor="middle" font-size="9" fill="#333">F:5</text>
    <text x="220" y="615" font-size="9" fill="#333">+</text>
    <rect x="235" y="602" width="35" height="18" rx="3" fill="#f3e5f5"/>
    <text x="252" y="615" text-anchor="middle" font-size="9" fill="#333">E:9</text>
    <text x="275" y="615" font-size="9" fill="#333">=</text>
    <rect x="290" y="602" width="45" height="18" rx="3" fill="#ff9800"/>
    <text x="312" y="615" text-anchor="middle" font-size="9" fill="white">14</text>
    <text x="360" y="615" font-size="9" fill="#666">(F+E)</text>
    <text x="80" y="638" font-size="10" fill="#333">Iteration 2:</text>
    <rect x="180" y="625" width="40" height="18" rx="3" fill="#fff3e0"/>
    <text x="200" y="638" text-anchor="middle" font-size="9" fill="#333">C:12</text>
    <text x="225" y="638" font-size="9" fill="#333">+</text>
    <rect x="240" y="625" width="40" height="18" rx="3" fill="#e3f2fd"/>
    <text x="260" y="638" text-anchor="middle" font-size="9" fill="#333">B:13</text>
    <text x="285" y="638" font-size="9" fill="#333">=</text>
    <rect x="300" y="625" width="45" height="18" rx="3" fill="#ff9800"/>
    <text x="322" y="638" text-anchor="middle" font-size="9" fill="white">25</text>
    <text x="370" y="638" font-size="9" fill="#666">(C+B)</text>
    <text x="450" y="615" font-size="10" fill="#333">Iteration 3:</text>
    <rect x="550" y="602" width="40" height="18" rx="3" fill="#ff9800"/>
    <text x="570" y="615" text-anchor="middle" font-size="9" fill="white">14</text>
    <text x="595" y="615" font-size="9" fill="#333">+</text>
    <rect x="610" y="602" width="40" height="18" rx="3" fill="#e8f5e9"/>
    <text x="630" y="615" text-anchor="middle" font-size="9" fill="#333">D:16</text>
    <text x="655" y="615" font-size="9" fill="#333">=</text>
    <rect x="670" y="602" width="45" height="18" rx="3" fill="#ff9800"/>
    <text x="692" y="615" text-anchor="middle" font-size="9" fill="white">30</text>
    <text x="720" y="615" font-size="9" fill="#666">(14+D)</text>
    <text x="500" y="638" font-size="9" fill="#666">Queue: 25, A:45, 30</text>
  </g>
  
  <!-- Step 7: Tree Construction Steps 4-5 -->
  <g class="step" id="step7" data-narration="Iteration 4: Combine 25+30=55. Final iteration: Combine A(45)+55=100 (root). The tree is complete!">
    <rect x="50" y="675" width="700" height="85" rx="8" fill="white" filter="url(#shadow)"/>
    <rect x="50" y="675" width="700" height="22" rx="8" fill="url(#orangeGrad)"/>
    <text x="400" y="690" text-anchor="middle" font-size="12" font-weight="bold" fill="white">Tree Construction: Iteration 4-5 (Final)</text>
    <text x="80" y="715" font-size="10" fill="#333">Iteration 4:</text>
    <rect x="180" y="702" width="40" height="18" rx="3" fill="#ff9800"/>
    <text x="200" y="715" text-anchor="middle" font-size="9" fill="white">25</text>
    <text x="225" y="715" font-size="9" fill="#333">+</text>
    <rect x="240" y="702" width="40" height="18" rx="3" fill="#ff9800"/>
    <text x="260" y="715" text-anchor="middle" font-size="9" fill="white">30</text>
    <text x="285" y="715" font-size="9" fill="#333">=</text>
    <rect x="300" y="702" width="50" height="18" rx="3" fill="#f44336"/>
    <text x="325" y="715" text-anchor="middle" font-size="9" fill="white">55</text>
    <text x="370" y="715" font-size="9" fill="#666">(25+30)</text>
    <text x="80" y="738" font-size="10" fill="#333">Iteration 5 (Root):</text>
    <rect x="200" y="725" width="45" height="20" rx="3" fill="#ffebee"/>
    <text x="222" y="740" text-anchor="middle" font-size="10" fill="#333">A:45</text>
    <text x="250" y="738" font-size="10" fill="#333">+</text>
    <rect x="265" y="725" width="45" height="20" rx="3" fill="#f44336"/>
    <text x="287" y="740" text-anchor="middle" font-size="10" fill="white">55</text>
    <text x="315" y="738" font-size="10" fill="#333">=</text>
    <rect x="330" y="725" width="60" height="22" rx="4" fill="#7b1fa2"/>
    <text x="360" y="742" text-anchor="middle" font-size="11" font-weight="bold" fill="white">ROOT: 100</text>
    <text x="420" y="738" font-size="9" fill="#666">Tree Complete!</text>
    <rect x="480" y="705" width="250" height="45" rx="6" fill="#f8f9fa" stroke="#dee2e6"/>
    <text x="605" y="720" text-anchor="middle" font-size="9" fill="#666">Queue Status After Each Step:</text>
    <text x="605" y="735" text-anchor="middle" font-size="9" fill="#666">14, D:16, B:13, C:12, A:45 → 25, A:45, 30 → 55, A:45 → 100</text>
  </g>
  
  <!-- Step 8: Final Tree Visualization -->
  <g class="step" id="step8" data-narration="The complete Huffman tree shows how symbols are organized: A at depth 1, B/C/D at depth 3, E/F at depth 4.">
    <rect x="50" y="775" width="700" height="90" rx="8" fill="white" filter="url(#shadow)"/>
    <rect x="50" y="775" width="700" height="22" rx="8" fill="url(#blueGrad)"/>
    <text x="400" y="790" text-anchor="middle" font-size="12" font-weight="bold" fill="white">Complete Huffman Tree Structure</text>
    <!-- Tree diagram -->
    <rect x="330" y="805" width="60" height="25" rx="5" fill="#7b1fa2"/>
    <text x="360" y="822" text-anchor="middle" font-size="11" font-weight="bold" fill="white">100</text>
    <!-- Level 1 -->
    <path d="M330 817 L260 847" stroke="#333" stroke-width="2" class="tree-line"/>
    <path d="M390 817 L460 847" stroke="#333" stroke-width="2" class="tree-line"/>
    <text x="245" y="860" font-size="9" fill="#1976d2" font-weight="bold">0</text>
    <text x="470" y="860" font-size="9" fill="#f44336" font-weight="bold">1</text>
    <rect x="220" y="847" width="45" height="22" rx="4" fill="#ffebee"/>
    <text x="242" y="862" text-anchor="middle" font-size="10" fill="#333">A:45</text>
    <rect x="440" y="847" width="55" height="22" rx="4" fill="#f44336"/>
    <text x="467" y="862" text-anchor="middle" font-size="10" fill="white">55</text>
    <!-- Level 2 -->
    <path d="M440 858 L410 878" stroke="#333" stroke-width="1.5"/>
    <path d="M490 858 L530 878" stroke="#333" stroke-width="1.5"/>
    <text x="395" y="888" font-size="8" fill="#1976d2">0</text>
    <text x="540" y="888" font-size="8" fill="#f44336">1</text>
    <rect x="380" y="878" width="50" height="22" rx="4" fill="#ff9800"/>
    <text x="405" y="893" text-anchor="middle" font-size="10" fill="white">30</text>
    <rect x="510" y="878" width="50" height="22" rx="4" fill="#ff9800"/>
    <text x="535" y="893" text-anchor="middle" font-size="10" fill="white">25</text>
    <!-- Level 3 -->
    <path d="M380 890 L350 905" stroke="#333" stroke-width="1.5"/>
    <path d="M405 890 L440 905" stroke="#333" stroke-width="1.5"/>
    <path d="M510 893 L490 908" stroke="#333" stroke-width="1.5"/>
    <path d="M535 893 L570 908" stroke="#333" stroke-width="1.5"/>
    <text x="335" y="918" font-size="8" fill="#1976d2">0</text>
    <text x="448" y="918" font-size="8" fill="#f44336">1</text>
    <text x="478" y="918" font-size="8" fill="#1976d2">0</text>
    <text x="580" y="918" font-size="8" fill="#f44336">1</text>
    <rect x="320" y="905" width="40" height="20" rx="4" fill="#ff9800"/>
    <text x="340" y="919" text-anchor="middle" font-size="9" fill="white">14</text>
    <rect x="420" y="905" width="45" height="20" rx="4" fill="#e8f5e9"/>
    <text x="442" y="919" text-anchor="middle" font-size="9" fill="#333">D:16</text>
    <rect x="470" y="908" width="40" height="20" rx="4" fill="#ff9800"/>
    <text x="490" y="922" text-anchor="middle" font-size="9" fill="white">25</text>
    <rect x="550" y="908" width="45" height="20" rx="4" fill="#fff3e0"/>
    <text x="572" y="922" text-anchor="middle" font-size="9" fill="#333">C:12</text>
    <!-- Level 4 leaves -->
    <path d="M320 915 L305 925" stroke="#333" stroke-width="1"/>
    <path d="M340 915 L360 925" stroke="#333" stroke-width="1"/>
    <path d="M470 918 L460 928" stroke="#333" stroke-width="1"/>
    <path d="M490 918 L510 928" stroke="#333" stroke-width="1"/>
    <rect x="280" y="925" width="35" height="18" rx="4" fill="#e0f7fa"/>
    <text x="297" y="938" text-anchor="middle" font-size="9" fill="#333">F:5</text>
    <rect x="345" y="925" width="35" height="18" rx="4" fill="#f3e5f5"/>
    <text x="362" y="938" text-anchor="middle" font-size="9" fill="#333">E:9</text>
    <rect x="440" y="928" width="40" height="18" rx="4" fill="#e3f2fd"/>
    <text x="460" y="941" text-anchor="middle" font-size="9" fill="#333">B:13</text>
    <rect x="495" y="928" width="40" height="18" rx="4" fill="#e3f2fd"/>
    <text x="515" y="941" text-anchor="middle" font-size="9" fill="#333">C:12</text>
  </g>
  
  <!-- Step 9: Code Assignment -->
  <g class="step" id="step9" data-narration="Assign codes by traversing: left edge = 0, right edge = 1. A gets 0, B/C/D get 10x, E/F get 11xx.">
    <rect x="50" y="880" width="700" height="85" rx="8" fill="white" filter="url(#shadow)"/>
    <rect x="50" y="880" width="700" height="22" rx="8" fill="url(#greenGrad)"/>
    <text x="400" y="895" text-anchor="middle" font-size="12" font-weight="bold" fill="white">Code Assignment (Left=0, Right=1)</text>
    <text x="80" y="920" font-size="10" fill="#333" font-weight="bold">Symbol Codes:</text>
    <rect x="180" y="908" width="50" height="22" rx="4" fill="#ffebee"/>
    <text x="205" y="923" text-anchor="middle" font-size="10" fill="#333">A → 0</text>
    <rect x="240" y="908" width="70" height="22" rx="4" fill="#e3f2fd"/>
    <text x="275" y="923" text-anchor="middle" font-size="10" fill="#333">B → 100</text>
    <rect x="320" y="908" width="70" height="22" rx="4" fill="#fff3e0"/>
    <text x="355" y="923" text-anchor="middle" font-size="10" fill="#333">C → 101</text>
    <rect x="400" y="908" width="70" height="22" rx="4" fill="#e8f5e9"/>
    <text x="435" y="923" text-anchor="middle" font-size="10" fill="#333">D → 110</text>
    <rect x="480" y="908" width="70" height="22" rx="4" fill="#f3e5f5"/>
    <text x="515" y="923" text-anchor="middle" font-size="10" fill="#333">E → 1110</text>
    <rect x="560" y="908" width="75" height="22" rx="4" fill="#e0f7fa"/>
    <text x="597" y="923" text-anchor="middle" font-size="10" fill="#333">F → 1111</text>
    <text x="80" y="948" font-size="10" fill="#333" font-weight="bold">Verify Prefix-Free Property:</text>
    <text x="220" y="948" font-size="9" fill="#388e3c">✓ 0 is not prefix of anything</text>
    <text x="350" y="948" font-size="9" fill="#388e3c">✓ 10x doesn't start with 0</text>
    <text x="480" y="948" font-size="9" fill="#388e3c">✓ 11xx doesn't start with 0 or 10</text>
  </g>
  
  <!-- Step 10: Average Code Length -->
  <g class="step" id="step10" data-narration="Average Code Length = Σ(frequency × code length) / Σ(frequencies) = 232/100 = 2.32 bits/symbol.">
    <rect x="50" y="980" width="700" height="85" rx="8" fill="white" filter="url(#shadow)"/>
    <rect x="50" y="980" width="700" height="22" rx="8" fill="url(#blueGrad)"/>
    <text x="400" y="995" text-anchor="middle" font-size="12" font-weight="bold" fill="white">Average Code Length Calculation</text>
    <text x="70" y="1020" font-size="10" fill="#333" font-weight="bold">Formula:</text>
    <text x="140" y="1020" font-size="10" fill="#333">Average = Σ(fᵢ × Lᵢ) / Σ(fᵢ)</text>
    <rect x="60" y="1030" width="320" height="30" rx="4" fill="#e3f2fd" stroke="#1976d2"/>
    <text x="220" y="1050" text-anchor="middle" font-size="10" fill="#333">= (45×1 + 13×3 + 12×3 + 16×3 + 9×4 + 5×4) / 100</text>
    <rect x="400" y="1030" width="100" height="30" rx="4" fill="#388e3c"/>
    <text x="450" y="5050" text-anchor="middle" font-size="10" fill="white">= 232/100</text>
    <text x="450" y="1055" text-anchor="middle" font-size="11" font-weight="bold" fill="white">= 2.32 bits</text>
    <text x="550" y="1020" font-size="9" fill="#666">Fixed-length would need ⌈log₂6⌉ = 3 bits</text>
    <text x="550" y="1033" font-size="9" fill="#666">Savings: (3-2.32)/3 = 22.7%</text>
    <text x="550" y="1046" font-size="9" fill="#388e3c">Huffman is optimal!</text>
  </g>
  
  <!-- Step 11: Compression Ratio Example -->
  <g class="step" id="step11" data-narration="For string ABACABAD: original 64 bits compresses to 16 bits, achieving 75% compression ratio.">
    <rect x="50" y="1080" width="700" height="85" rx="8" fill="white" filter="url(#shadow)"/>
    <rect x="50" y="1080" width="700" height="22" rx="8" fill="url(#orangeGrad)"/>
    <text x="400" y="1095" text-anchor="middle" font-size="12" font-weight="bold" fill="white">Compression Example: "ABACABAD"</text>
    <rect x="60" y="1110" width="180" height="50" rx="6" fill="#e3f2fd"/>
    <text x="150" y="1125" text-anchor="middle" font-size="10" fill="#1976d2" font-weight="bold">Step 1: Frequencies</text>
    <text x="150" y="1142" text-anchor="middle" font-size="9" fill="#333">A:4, B:2, C:1, D:1</text>
    <text x="150" y="1155" text-anchor="middle" font-size="8" fill="#666">(Total = 8)</text>
    <rect x="260" y="1110" width="180" height="50" rx="6" fill="#e8f5e9"/>
    <text x="350" y="1125" text-anchor="middle" font-size="10" fill="#388e3c" font-weight="bold">Step 2: Huffman Codes</text>
    <text x="350" y="1142" text-anchor="middle" font-size="9" fill="#333">A:0, B:10, C:110, D:111</text>
    <rect x="460" y="1110" width="160" height="50" rx="6" fill="#fff3e0"/>
    <text x="540" y="1125" text-anchor="middle" font-size="10" fill="#f57c00" font-weight="bold">Step 3: Encoded</text>
    <text x="540" y="1142" text-anchor="middle" font-size="9" fill="#333">0 10 0 110 0 10 0 111</text>
    <text x="540" y="1155" text-anchor="middle" font-size="8" fill="#666">= 16 bits</text>
    <rect x="640" y="1110" width="100" height="50" rx="6" fill="#f44336"/>
    <text x="690" y="1125" text-anchor="middle" font-size="10" fill="white" font-weight="bold">Result</text>
    <text x="690" y="1142" text-anchor="middle" font-size="9" fill="white">16/64 = 0.25</text>
    <text x="690" y="1155" text-anchor="middle" font-size="9" fill="white">75% saved!</text>
  </g>
  
  <!-- Step 12: Decoding Example -->
  <g class="step" id="step12" data-narration="To decode: traverse tree from root, following bits until reaching a leaf. Message '0101101110' becomes 'ABACDB'.">
    <rect x="50" y="1180" width="700" height="85" rx="8" fill="white" filter="url(#shadow)"/>
    <rect x="50" y="1180" width="700" height="22" rx="8" fill="url(#purpleGrad)"/>
    <text x="400" y="1195" text-anchor="middle" font-size="12" font-weight="bold" fill="white">Decoding Huffman-encoded Message</text>
    <text x="70" y="1220" font-size="10" fill="#333" font-weight="bold">Codes:</text>
    <text x="120" y="1220" font-size="9" fill="#333">A=0, B=10, C=110, D=111</text>
    <text x="70" y="1240" font-size="10" fill="#333" font-weight="bold">Message:</text>
    <text x="130" y="1240" font-size="10" fill="#1976d2" font-weight="bold">0 10 0 110 111 10</text>
    <text x="400" y="1240" font-size="10" fill="#333">=</text>
    <text x="430" y="1240" font-size="10" fill="#388e3c" font-weight="bold">ABACDB</text>
    <rect x="520" y="1210" width="200" height="50" rx="6" fill="#fff3e0" stroke="#ff9800"/>
    <text x="620" y="1225" text-anchor="middle" font-size="9" fill="#333" font-weight="bold">Decoding Process:</text>
    <text x="620" y="1242" text-anchor="middle" font-size="8" fill="#666">Start at root → follow 0→A</text>
    <text x="620" y="1255" text-anchor="middle" font-size="8" fill="#666">→ follow 10→B → follow 0→A...</text>
  </g>
  
  <!-- Step 13: Time Complexity -->
  <g class="step" id="step13" data-narration="Huffman coding runs in O(n log n) time due to n-1 iterations each performing heap operations of O(log n).">
    <rect x="50" y="1280" width="700" height="85" rx="8" fill="white" filter="url(#shadow)"/>
    <rect x="50" y="1280" width="700" height="22" rx="8" fill="url(#blueGrad)"/>
    <text x="400" y="1295" text-anchor="middle" font-size="12" font-weight="bold" fill="white">Time Complexity Analysis</text>
    <text x="70" y="1320" font-size="11" fill="#333" font-weight="bold">Time Complexity: O(n log n)</text>
    <rect x="70" y="1330" width="450" height="30" rx="4" fill="#e3f2fd"/>
    <text x="295" y="1350" text-anchor="middle" font-size="9" fill="#333">n = number of unique symbols</text>
    <rect x="540" y="1295" width="200" height="60" rx="6" fill="#e8f5e9"/>
    <text x="640" y="1315" text-anchor="middle" font-size="9" fill="#388e3c" font-weight="bold">Why O(n log n)?</text>
    <text x="640" y="1332" text-anchor="middle" font-size="8" fill="#666">• Build heap: O(n)</text>
    <text x="640" y="1346" text-anchor="middle" font-size="8" fill="#666">• Loop runs (n-1) times</text>
    <text x="640" y="1360" text-anchor="middle" font-size="8" fill="#666">• Each: 2×extract-min + insert = O(log n)</text>
  </g>
  
  <!-- Step 14: Optimality Proof -->
  <g class="step" id="step14" data-narration="Huffman coding is provably optimal - the greedy choice of combining least frequent symbols minimizes weighted path length.">
    <rect x="50" y="1380" width="700" height="85" rx="8" fill="white" filter="url(#shadow)"/>
    <rect x="50" y="1380" width="700" height="22" rx="8" fill="url(#greenGrad)"/>
    <text x="400" y="1395" text-anchor="middle" font-size="12" font-weight="bold" fill="white">Optimality of Huffman Coding</text>
    <text x="70" y="1420" font-size="10" fill="#333" font-weight="bold">Theorem:</text>
    <text x="130" y="1420" font-size="10" fill="#333">Huffman coding produces the minimum average code length among all prefix-free codes.</text>
    <text x="70" y="1440" font-size="10" fill="#333" font-weight="bold">Proof Sketch (Exchange Argument):</text>
    <rect x="70" y="1450" width="320" height="25" rx="4" fill="#fff3e0"/>
    <text x="230" y="1467" text-anchor="middle" font-size="9" fill="#333">In any optimal tree, the two least frequent</text>
    <text x="230" y="1480" text-anchor="middle" font-size="9" fill="#333">symbols must be siblings at the deepest level</text>
    <rect x="410" y="1425" width="150" height="50" rx="6" fill="#e8f5e9" stroke="#388e3c" stroke-width="2"/>
    <text x="485" y="1445" text-anchor="middle" font-size="9" fill="#388e3c" font-weight="bold">Greedy Choice</text>
  </g>
</svg>