<svg width="420" height="400" data-topic-id="chapter-2-data-and-sampling-distributions">
  <rect x="0" y="0" width="420" height="400" fill="#66CCCC" rx="10" />
  <linearGradient id="gradient" x1="0%" y1="0%" x2="100%" y2="0%">
    <stop offset="0%" stop-color="#ADD8E6" stop-opacity="1" />
    <stop offset="100%" stop-color="#B2FFFC" stop-opacity="1" />
  </linearGradient>
  <defs>
    <linearGradient id="gradient" x1="0%" y1="0%" x2="100%" y2="0%">
      <stop offset="0%" stop-color="#ADD8E6" stop-opacity="1" />
      <stop offset="100%" stop-color="#B2FFFC" stop-opacity="1" />
    </linearGradient>
  </defs>

  <!-- Introduction -->
  <section data-narration="Introduction">
    <g transform="translate(10, 20)">
      <rect x="0" y="0" width="80" height="20" fill="#66CCCC" rx="5" />
      <text x="10" y="5" font-size="16" font-family="Arial, sans-serif" fill="#333333" text-anchor="start">Introduction</text>
    </g>
  </section>

  <!-- Random Sampling -->
  <section data-narration="Random Sampling">
    <g transform="translate(10, 50)">
      <rect x="0" y="0" width="80" height="20" fill="#66CCCC" rx="5" />
      <text x="10" y="5" font-size="16" font-family="Arial, sans-serif" fill="#333333" text-anchor="start">Random Sampling</text>
      <animateTransform attributeName="transform" type="rotate" from="0 0 20" to="360 0 20" dur="10s" begin="0s" repeatCount="indefinite" />
      <rect x="-20" y="0" width="40" height="100" fill="#66CCCC" rx="5" />
      <rect x="20" y="0" width="40" height="100" fill="#66CCCC" rx="5" />
    </g>
  </section>

  <!-- Selection Bias -->
  <section data-narration="Selection Bias">
    <g transform="translate(10, 90)">
      <rect x="0" y="0" width="80" height="20" fill="#66CCCC" rx="5" />
      <text x="10" y="5" font-size="16" font-family="Arial, sans-serif" fill="#333333" text-anchor="start">Selection Bias</text>
      <animateTransform attributeName="transform" type="rotate" from="0 0 20" to="360 0 20" dur="10s" begin="0s" repeatCount="indefinite" />
      <rect x="-20" y="0" width="40" height="100" fill="#FFC107" rx="5" />
      <rect x="20" y="0" width="40" height="100" fill="#FFC107" rx="5" />
    </g>
  </section>

  <!-- Sampling Distribution of a Statistic -->
  <section data-narration="Sampling Distribution of a Statistic">
    <g transform="translate(10, 130)">
      <rect x="0" y="0" width="80" height="20" fill="#66CCCC" rx="5" />
      <text x="10" y="5" font-size="16" font-family="Arial, sans-serif" fill="#333333" text-anchor="start">Sampling Distribution of a Statistic</text>
      <animateTransform attributeName="transform" type="rotate" from="0 0 20" to="360 0 20" dur="10s" begin="0s" repeatCount="indefinite" />
      <rect x="-20" y="0" width="40" height="100" fill="#66CCCC" rx="5" />
      <rect x="20" y="0" width="40" height="100" fill="#66CCCC" rx="5" />
    </g>
  </section>

  <!-- Example -->
  <section data-narration="Example">
    <g transform="translate(10, 170)">
      <rect x="0" y="0" width="80" height="20" fill="#66CCCC" rx="5" />
      <text x="10" y="5" font-size="16" font-family="Arial, sans-serif" fill="#333333" text-anchor="start">Example</text>
      <animateTransform attributeName="transform" type="rotate" from="0 0 20" to="360 0 20" dur="10s" begin="0s" repeatCount="indefinite" />
      <rect x="-20" y="0" width="40" height="100" fill="#66CCCC" rx="5" />
      <rect x="20" y="0" width="40" height="100" fill="#66CCCC" rx="5" />
    </g>
  </section>

  <!-- Non-Response Bias -->
  <section data-narration="Non-Response Bias">
    <g transform="translate(10, 210)">
      <rect x="0" y="0" width="80" height="20" fill="#66CCCC" rx="5" />
      <text x="10" y="5" font-size="16" font-family="Arial, sans-serif" fill="#333333" text-anchor="start">Non-Response Bias</text>
      <animateTransform attributeName="transform" type="rotate" from="0 0 20" to="360 0 20" dur="10s" begin="0s" repeatCount="indefinite" />
      <rect x="-20" y="0" width="40" height="100" fill="#FFC107" rx="5" />
      <rect x="20" y="0" width="40" height="100" fill="#FFC107" rx="5" />
    </g>
  </section>

  <!-- Non-Coverage Bias -->
  <section data-narration="Non-Coverage Bias">
    <g transform="translate(10, 250)">
      <rect x="0" y="0" width="80" height="20" fill="#66CCCC" rx="5" />
      <text x="10" y="5" font-size="16" font-family="Arial, sans-serif" fill="#333333" text-anchor="start">Non-Coverage Bias</text>
      <animateTransform attributeName="transform" type="rotate" from="0 0 20" to="360 0 20" dur="10s" begin="0s" repeatCount="indefinite" />
      <rect x="-20" y="0" width="40" height="100" fill="#66CCCC" rx="5" />
      <rect x="20" y="0" width="40" height="100" fill="#66CCCC" rx="5" />
    </g>
  </section>

  <!-- Title and Footer -->
  <text x="10" y="20" font-size="24" font-family="Arial, sans-serif" fill="#333333" text-anchor="start">Textbook Chapter 2</text>
  <text x="10" y="360" font-size="18" font-family="Arial, sans-serif" fill="#333333" text-anchor="start">Data and Sampling Distributions</text>
</svg>