<svg xmlns="http://www.w3.org/2000/svg" viewBox="0 0 800 1560" width="800" height="1560">
  <defs>
    <linearGradient id="blueGrad" x1="0%" y1="0%" x2="100%" y2="100%">
      <stop offset="0%" style="stop-color:#e3f2fd"/>
      <stop offset="100%" style="stop-color:#bbdefb"/>
    </linearGradient>
    <linearGradient id="greenGrad" x1="0%" y1="0%" x2="100%" y2="100%">
      <stop offset="0%" style="stop-color:#e8f5e9"/>
      <stop offset="100%" style="stop-color:#c8e6c9"/>
    </linearGradient>
    <linearGradient id="orangeGrad" x1="0%" y1="0%" x2="100%" y2="100%">
      <stop offset="0%" style="stop-color:#fff3e0"/>
      <stop offset="100%" style="stop-color:#ffe0b2"/>
    </linearGradient>
    <linearGradient id="purpleGrad" x1="0%" y1="0%" x2="100%" y2="100%">
      <stop offset="0%" style="stop-color:#f3e5f5"/>
      <stop offset="100%" style="stop-color:#e1bee7"/>
    </linearGradient>
    <linearGradient id="redGrad" x1="0%" y1="0%" x2="100%" y2="100%">
      <stop offset="0%" style="stop-color:#ffebee"/>
      <stop offset="100%" style="stop-color:#ffcdd2"/>
    </linearGradient>
    <linearGradient id="titleGrad" x1="0%" y1="0%" x2="100%" y2="0%">
      <stop offset="0%" style="stop-color:#1976d2"/>
      <stop offset="100%" style="stop-color:#1565c0"/>
    </linearGradient>
    <filter id="shadow" x="-20%" y="-20%" width="140%" height="140%">
      <feDropShadow dx="2" dy="2" stdDeviation="3" flood-opacity="0.2"/>
    </filter>
    <marker id="arrowBlue" markerWidth="10" markerHeight="10" refX="9" refY="3" orient="auto" markerUnits="strokeWidth">
      <path d="M0,0 L0,6 L9,3 z" fill="#1976d2"/>
    </marker>
    <marker id="arrowGreen" markerWidth="10" markerHeight="10" refX="9" refY="3" orient="auto" markerUnits="strokeWidth">
      <path d="M0,0 L0,6 L9,3 z" fill="#388e3c"/>
    </marker>
    <marker id="arrowOrange" markerWidth="10" markerHeight="10" refX="9" refY="3" orient="auto" markerUnits="strokeWidth">
      <path d="M0,0 L0,6 L9,3 z" fill="#ff9800"/>
    </marker>
  </defs>
  
  <style>
    @keyframes fadeInSlide {
      from { opacity: 0; transform: translateY(20px); }
      to { opacity: 1; transform: translateY(0); }
    }
    @keyframes scaleIn {
      from { opacity: 0; transform: scale(0.85); }
      to { opacity: 1; transform: scale(1); }
    }
    @keyframes textReveal {
      from { opacity: 0; transform: translateX(-10px); }
      to { opacity: 1; transform: translateX(0); }
    }
    @keyframes pulse {
      0%, 100% { transform: scale(1); }
      50% { transform: scale(1.03); }
    }
    @keyframes drawLine {
      from { stroke-dashoffset: 500; }
      to { stroke-dashoffset: 0; }
    }
    @keyframes fadeIn {
      from { opacity: 0; }
      to { opacity: 1; }
    }
    .step { animation: fadeInSlide 0.6s ease-out; }
    .step rect {
      animation: scaleIn 0.5s cubic-bezier(0.34, 1.56, 0.64, 1);
      transform-origin: center;
    }
    .step text { animation: textReveal 0.4s ease-out 0.2s backwards; }
    .draw-line {
      stroke-dasharray: 500;
      stroke-dashoffset: 500;
      animation: drawLine 1.5s ease-out forwards;
    }
  </style>
  
  <!-- Background -->
  <rect width="800" height="1560" fill="#f8f9fa"/>
  
  <!-- Step 0: Title Card -->
  <g class="step" id="step0" data-narration="Welcome to learning about data item granularity and Multiple Granularity Locking in database systems.">
    <rect x="50" y="10" width="700" height="45" rx="10" fill="url(#titleGrad)" filter="url(#shadow)"/>
    <text x="400" y="40" text-anchor="middle" font-size="18" font-weight="bold" fill="white">Granularity of Data Items and Multiple Granularity Locking</text>
  </g>
  
  <!-- Step 1: What is Granularity? -->
  <g class="step" id="step1" data-narration="Granularity determines the size of data items that can be locked, affecting concurrency and system overhead in databases.">
    <rect x="50" y="65" width="700" height="85" rx="8" fill="url(#blueGrad)" filter="url(#shadow)"/>
    <text x="70" y="85" font-size="14" font-weight="bold" fill="#1565c0">What is Granularity?</text>
    <text x="70" y="105" font-size="11" fill="#333">Granularity refers to the</text>
    <text x="70" y="120" font-size="11" fill="#333">size of data items that can</text>
    <text x="70" y="135" font-size="11" fill="#333">be locked in a database.</text>
    <rect x="500" y="75" width="230" height="65" rx="6" fill="#1976d2" opacity="0.15"/>
    <text x="520" y="95" font-size="10" fill="#1565c0">Coarse</text>
    <text x="610" y="95" font-size="10" fill="#1565c0">→</text>
    <text x="650" y="95" font-size="10" fill="#1565c0">Fine</text>
    <path d="M530,115 L650,115" stroke="#1565c0" stroke-width="2" opacity="0.5"/>
    <circle cx="530" cy="115" r="4" fill="#1976d2"/>
    <circle cx="590" cy="115" r="4" fill="#64b5f6"/>
    <circle cx="650" cy="115" r="4" fill="#1976d2"/>
    <text x="530" y="130" font-size="8" fill="#666">Database</text>
    <text x="590" y="130" font-size="8" fill="#666">Page</text>
    <text x="645" y="130" font-size="8" fill="#666">Record</text>
  </g>
  
  <!-- Step 2: Database Hierarchy -->
  <g class="step" id="step2" data-narration="The database hierarchy has five levels: database, file, page, record, and field - each with different lock scopes.">
    <rect x="50" y="160" width="700" height="85" rx="8" fill="url(#greenGrad)" filter="url(#shadow)"/>
    <text x="70" y="180" font-size="14" font-weight="bold" fill="#2e7d32">Database Hierarchy Levels</text>
    <!-- Hierarchy pyramid diagram -->
    <polygon points="400,195 470,195 450,210 420,210" fill="#1976d2" opacity="0.8"/>
    <polygon points="350,215 450,215 460,235 340,235" fill="#1976d2" opacity="0.6"/>
    <polygon points="280,240 450,240 470,270 260,270" fill="#1976d2" opacity="0.4"/>
    <polygon points="200,275 450,275 480,320 170,320" fill="#1976d2" opacity="0.25"/>
    <polygon points="120,325 450,325 490,380 80,380" fill="#1976d2" opacity="0.15"/>
    <text x="400" y="205" text-anchor="middle" font-size="9" fill="white">DB</text>
    <text x="400" y="228" text-anchor="middle" font-size="9" fill="white">File</text>
    <text x="400" y="258" text-anchor="middle" font-size="9" fill="white">Page</text>
    <text x="400" y="300" text-anchor="middle" font-size="9" fill="white">Record</text>
    <text x="400" y="355" text-anchor="middle" font-size="9" fill="white">Field</text>
    <!-- Legend -->
    <text x="520" y="195" font-size="9" fill="#666">← More Concurrency</text>
    <text x="520" y="210" font-size="9" fill="#666">More Overhead →</text>
  </g>
  
  <!-- Step 3: Trade-offs Introduction -->
  <g class="step" id="step3" data-narration="Fine-grained locks maximize concurrency but increase overhead and deadlock risk, while coarse-grained locks do the opposite.">
    <rect x="50" y="255" width="340" height="85" rx="8" fill="url(#orangeGrad)" filter="url(#shadow)"/>
    <text x="70" y="275" font-size="13" font-weight="bold" fill="#e65100">Fine Granularity</text>
    <text x="70" y="292" font-size="10" fill="#333">• Record/Field level locks</text>
    <text x="70" y="307" font-size="10" fill="#333">• Maximum concurrency</text>
    <text x="70" y="322" font-size="10" fill="#333">• High overhead, more deadlocks</text>
    
    <rect x="410" y="255" width="340" height="85" rx="8" fill="url(#purpleGrad)" filter="url(#shadow)"/>
    <text x="430" y="275" font-size="13" font-weight="bold" fill="#6a1b9a">Coarse Granularity</text>
    <text x="430" y="292" font-size="10" fill="#333">• Database/File level locks</text>
    <text x="430" y="307" font-size="10" fill="#333">• Low overhead, fewer deadlocks</text>
    <text x="430" y="322" font-size="10" fill="#333">• Reduced concurrency</text>
  </g>
  
  <!-- Step 4: MGL Introduction -->
  <g class="step" id="step4" data-narration="Multiple Granularity Locking allows locks at multiple hierarchy levels simultaneously, balancing concurrency with overhead efficiently.">
    <rect x="50" y="350" width="700" height="85" rx="8" fill="url(#blueGrad)" filter="url(#shadow)"/>
    <text x="70" y="370" font-size="14" font-weight="bold" fill="#1565c0">Multiple Granularity Locking (MGL)</text>
    <text x="70" y="390" font-size="11" fill="#333">MGL solves the granularity trade-off by allowing locks at multiple levels</text>
    <text x="70" y="405" font-size="11" fill="#333">of the database hierarchy simultaneously using intent locks.</text>
    <!-- Visual representation -->
    <rect x="500" y="365" width="230" height="60" rx="6" fill="white" stroke="#1976d2" stroke-width="1"/>
    <text x="520" y="385" font-size="10" fill="#1565c0">Database → File → Page</text>
    <text x="520" y="400" font-size="10" fill="#1565c0">can be locked together</text>
    <path d="M540,410 L600,410 L620,395" stroke="#1976d2" stroke-width="2" fill="none" marker-end="url(#arrowBlue)"/>
  </g>
  
  <!-- Step 5: Basic Lock Types S and X -->
  <g class="step" id="step5" data-narration="Shared (S) locks allow reading data, while Exclusive (X) locks are needed for both reading and modifying data items.">
    <rect x="50" y="445" width="700" height="85" rx="8" fill="url(#greenGrad)" filter="url(#shadow)"/>
    <text x="70" y="465" font-size="14" font-weight="bold" fill="#2e7d32">Basic Lock Types</text>
    
    <rect x="70" y="480" width="300" height="40" rx="6" fill="#388e3c" opacity="0.2"/>
    <text x="90" y="500" font-size="12" font-weight="bold" fill="#2e7d32">S - Shared Lock</text>
    <text x="200" y="500" font-size="10" fill="#333">Read-only access</text>
    <text x="280" y="500" font-size="10" fill="#666">Compatible with S</text>
    
    <rect x="390" y="480" width="300" height="40" rx="6" fill="#f44336" opacity="0.2"/>
    <text x="410" y="500" font-size="12" font-weight="bold" fill="#c62828">X - Exclusive Lock</text>
    <text x="530" y="500" font-size="10" fill="#333">Read and write access</text>
    <text x="620" y="500" font-size="10" fill="#666">Incompatible with all</text>
  </g>
  
  <!-- Step 6: Intent Locks IS, IX, SIX -->
  <g class="step" id="step6" data-narration="Intent locks (IS, IX, SIX) indicate the intention to acquire locks at lower hierarchy levels before doing so.">
    <rect x="50" y="540" width="700" height="85" rx="8" fill="url(#orangeGrad)" filter="url(#shadow)"/>
    <text x="70" y="560" font-size="14" font-weight="bold" fill="#e65100">Intent Lock Types</text>
    
    <rect x="70" y="575" width="195" height="42" rx="5" fill="#ff9800" opacity="0.15"/>
    <text x="80" y="590" font-size="10" font-weight="bold" fill="#e65100">IS - Intention Shared</text>
    <text x="80" y="605" font-size="9" fill="#333">Intent to S-lock children</text>
    
    <rect x="280" y="575" width="195" height="42" rx="5" fill="#ff9800" opacity="0.25"/>
    <text x="290" y="590" font-size="10" font-weight="bold" fill="#e65100">IX - Intention Exclusive</text>
    <text x="290" y="605" font-size="9" fill="#333">Intent to X-lock children</text>
    
    <rect x="490" y="575" width="245" height="42" rx="5" fill="#ff9800" opacity="0.35"/>
    <text x="500" y="590" font-size="10" font-weight="bold" fill="#e65100">SIX - Shared + Intention Exclusive</text>
    <text x="500" y="605" font-size="9" fill="#333">S on current + IX on children</text>
  </g>
  
  <!-- Step 7: Lock Compatibility Matrix -->
  <g class="step" id="step7" data-narration="The compatibility matrix shows which lock types can coexist. IS and IX are compatible with each other but not with X.">
    <rect x="50" y="635" width="700" height="85" rx="8" fill="url(#purpleGrad)" filter="url(#shadow)"/>
    <text x="70" y="655" font-size="14" font-weight="bold" fill="#6a1b9a">Lock Compatibility Matrix</text>
    
    <!-- Matrix header -->
    <rect x="70" y="665" width="45" height="18" rx="3" fill="#9c27b0" opacity="0.3"/>
    <rect x="115" y="665" width="45" height="18" rx="3" fill="#9c27b0" opacity="0.3"/>
    <rect x="160" y="665" width="45" height="18" rx="3" fill="#9c27b0" opacity="0.3"/>
    <rect x="205" y="665" width="45" height="18" rx="3" fill="#9c27b0" opacity="0.3"/>
    <rect x="250" y="665" width="45" height="18" rx="3" fill="#9c27b0" opacity="0.3"/>
    <rect x="295" y="665" width="45" height="18" rx="3" fill="#9c27b0" opacity="0.3"/>
    
    <text x="82" y="678" text-anchor="middle" font-size="9" font-weight="bold" fill="#6a1b9a">IS</text>
    <text x="127" y="678" text-anchor="middle" font-size="9" font-weight="bold" fill="#6a1b9a">IX</text>
    <text x="172" y="678" text-anchor="middle" font-size="9" font-weight="bold" fill="#6a1b9a">S</text>
    <text x="217" y="678" text-anchor="middle" font-size="9" font-weight="bold" fill="#6a1b9a">SIX</text>
    <text x="262" y="678" text-anchor="middle" font-size="9" font-weight="bold" fill="#6a1b9a">X</text>
    
    <!-- Row IS -->
    <rect x="70" y="683" width="45" height="18" rx="3" fill="#9c27b0" opacity="0.3"/>
    <text x="82" y="696" text-anchor="middle" font-size="10" font-weight="bold" fill="#6a1b9a">IS</text>
    <text x="92" y="696" text-anchor="middle" font-size="9" fill="#2e7d32">Y</text>
    <text x="137" y="696" text-anchor="middle" font-size="9" fill="#2e7d32">Y</text>
    <text x="182" y="696" text-anchor="middle" font-size="9" fill="#2e7d32">Y</text>
    <text x="227" y="696" text-anchor="middle" font-size="9" fill="#2e7d32">Y</text>
    <text x="272" y="696" text-anchor="middle" font-size="9" fill="#c62828">N</text>
    
    <!-- Row IX -->
    <rect x="70" y="701" width="45" height="18" rx="3" fill="#9c27b0" opacity="0.3"/>
    <text x="82" y="714" text-anchor="middle" font-size="10" font-weight="bold" fill="#6a1b9a">IX</text>
    <text x="92" y="714" text-anchor="middle" font-size="9" fill="#2e7d32">Y</text>
    <text x="137" y="714" text-anchor="middle" font-size="9" fill="#2e7d32">Y</text>
    <text x="182" y="714" text-anchor="middle" font-size="9" fill="#c62828">N</text>
    <text x="227" y="714" text-anchor="middle" font-size="9" fill="#c62828">N</text>
    <text x="272" y="714" text-anchor="middle" font-size="9" fill="#c62828">N</text>
    
    <!-- Legend -->
    <text x="380" y="690" font-size="9" fill="#333">Y = Yes (Compatible)</text>
    <text x="380" y="705" font-size="9" fill="#333">N = No (Not Compatible)</text>
    <text x="380" y="720" font-size="9" fill="#666">Read: "Can row hold column?"</text>
  </g>
  
  <!-- Step 8: Locking Rules -->
  <g class="step" id="step8" data-narration="MGL requires acquiring locks top-down from root to leaf, and releasing locks bottom-up from leaf to root.">
    <rect x="50" y="730" width="700" height="85" rx="8" fill="url(#blueGrad)" filter="url(#shadow)"/>
    <text x="70" y="750" font-size="14" font-weight="bold" fill="#1565c0">MGL Locking Rules</text>
    
    <rect x="70" y="765" width="320" height="42" rx="6" fill="#1976d2" opacity="0.1"/>
    <text x="80" y="780" font-size="10" fill="#1565c0">To acquire S lock at level i:</text>
    <text x="80" y="795" font-size="10" fill="#333">Must hold IS or S at level i-1</text>
    <text x="320" y="795" font-size="10" fill="#666">(parent)</text>
    
    <rect x="410" y="765" width="320" height="42" rx="6" fill="#1976d2" opacity="0.15"/>
    <text x="420" y="780" font-size="10" fill="#1565c0">To acquire X lock at level i:</text>
    <text x="420" y="795" font-size="10" fill="#333">Must hold IX, SIX, or X at level i-1</text>
    
    <!-- Arrows showing direction -->
    <text x="520" y="760" font-size="8" fill="#666">Top-Down Acquire</text>
    <path d="M530,755 L570,755 L560,750" stroke="#1976d2" stroke-width="1.5" fill="none" marker-end="url(#arrowBlue)"/>
    <text x="610" y="760" font-size="8" fill="#666">Bottom-Up Release</text>
    <path d="M620,770 L660,770 L650,765" stroke="#388e3c" stroke-width="1.5" fill="none" marker-end="url(#arrowGreen)"/>
  </g>
  
  <!-- Step 9: Example 1 - Simple Read -->
  <g class="step" id="step9" data-narration="Example: Transaction T1 reading Record1 requires IS locks on Database, File, Page, then S lock on Record1.">
    <rect x="50" y="825" width="700" height="85" rx="8" fill="url(#greenGrad)" filter="url(#shadow)"/>
    <text x="70" y="845" font-size="14" font-weight="bold" fill="#2e7d32">Example 1: T1 reads Record1</text>
    <text x="70" y="865" font-size="10" fill="#333">Hierarchy: Database → File1 → Page1 → Record1</text>
    
    <!-- Lock acquisition path -->
    <rect x="70" y="875" width="80" height="25" rx="4" fill="#388e3c" opacity="0.3"/>
    <text x="110" y="893" text-anchor="middle" font-size="9" fill="#2e7d32">IS</text>
    
    <path d="M150,893 L180,893" stroke="#2e7d32" stroke-width="1" fill="none" marker-end="url(#arrowGreen)"/>
    
    <rect x="190" y="875" width="80" height="25" rx="4" fill="#388e3c" opacity="0.3"/>
    <text x="230" y="893" text-anchor="middle" font-size="9" fill="#2e7d32">IS</text>
    
    <path d="M270,893 L300,893" stroke="#2e7d32" stroke-width="1" fill="none" marker-end="url(#arrowGreen)"/>
    
    <rect x="310" y="875" width="80" height="25" rx="4" fill="#388e3c" opacity="0.3"/>
    <text x="350" y="893" text-anchor="middle" font-size="9" fill="#2e7d32">IS</text>
    
    <path d="M390,893 L420,893" stroke="#2e7d32" stroke-width="1" fill="none" marker-end="url(#arrowGreen)"/>
    
    <rect x="430" y="875" width="80" height="25" rx="4" fill="#388e3c" opacity="0.5"/>
    <text x="470" y="893" text-anchor="middle" font-size="9" font-weight="bold" fill="#1b5e20">S</text>
    
    <!-- Level labels -->
    <text x="80" y="870" font-size="8" fill="#666">DB</text>
    <text x="200" y="870" font-size="8" fill="#666">File</text>
    <text x="320" y="870" font-size="8" fill="#666">Page</text>
    <text x="440" y="870" font-size="8" fill="#666">Record</text>
  </g>
  
  <!-- Step 10: Example 2 - Multiple Updates -->
  <g class="step" id="step10" data-narration="Example: T2 updating R1 and R2 needs IX locks on parent nodes and X locks on the target records.">
    <rect x="50" y="920" width="700" height="85" rx="8" fill="url(#orangeGrad)" filter="url(#shadow)"/>
    <text x="70" y="940" font-size="14" font-weight="bold" fill="#e65100">Example 2: T2 updates R1, R2 on Page1</text>
    <text x="70" y="960" font-size="10" fill="#333">Lock path: IX on Database → File1 → Page1, then X on R1 and R2</text>
    
    <!-- Lock path -->
    <rect x="70" y="970" width="70" height="25" rx="4" fill="#ff9800" opacity="0.4"/>
    <text x="105" y="988" text-anchor="middle" font-size="9" fill="#e65100">IX</text>
    
    <path d="M140,988 L170,988" stroke="#e65100" stroke-width="1" fill="none" marker-end="url(#arrowOrange)"/>
    
    <rect x="180" y="970" width="70" height="25" rx="4" fill="#ff9800" opacity="0.4"/>
    <text x="215" y="988" text-anchor="middle" font-size="9" fill="#e65100">IX</text>
    
    <path d="M250,988 L280,988" stroke="#e65100" stroke-width="1" fill="none" marker-end="url(#arrowOrange)"/>
    
    <rect x="290" y="970" width="70" height="25" rx="4" fill="#ff9800" opacity="0.4"/>
    <text x="325" y="988" text-anchor="middle" font-size="9" fill="#e65100">IX</text>
    
    <path d="M360,988 L390,988" stroke="#e65100" stroke-width="1" fill="none" marker-end="url(#arrowOrange)"/>
    
    <rect x="400" y="970" width="60" height="25" rx="4" fill="#f44336" opacity="0.4"/>
    <text x="430" y="988" text-anchor="middle" font-size="9" font-weight="bold" fill="#c62828">X(R1)</text>
    
    <rect x="470" y="970" width="60" height="25" rx="4" fill="#f44336" opacity="0.4"/>
    <text x="500" y="988" text-anchor="middle" font-size="9" font-weight="bold" fill="#c62828">X(R2)</text>
    
    <text x="560" y="988" font-size="9" fill="#666">R3 unlocked -</text>
    <text x="560" y="1001" font-size="9" fill="#666">accessible to others</text>
  </g>
  
  <!-- Step 11: Example 3 - SIX Lock -->
  <g class="step" id="step11" data-narration="SIX lock combines S and IX - useful when reading an entire file while updating specific records within it.">
    <rect x="50" y="1015" width="700" height="85" rx="8" fill="url(#purpleGrad)" filter="url(#shadow)"/>
    <text x="70" y="1035" font-size="14" font-weight="bold" fill="#6a1b9a">Example 3: SIX Lock Usage</text>
    <text x="70" y="1055" font-size="10" fill="#333">T3 reads entire Employee table and updates one specific record</text>
    
    <!-- SIX explanation -->
    <rect x="70" y="1065" width="250" height="28" rx="5" fill="#9c27b0" opacity="0.2"/>
    <text x="110" y="1082" text-anchor="middle" font-size="10" font-weight="bold" fill="#6a1b9a">SIX on Database</text>
    <text x="200" y="1082" text-anchor="middle" font-size="9" fill="#333">= S + IX</text>
    
    <!-- Lock path -->
    <rect x="340" y="1065" width="70" height="25" rx="4" fill="#9c27b0" opacity="0.4"/>
    <text x="375" y="1082" text-anchor="middle" font-size="9" fill="#6a1b9a">SIX</text>
    
    <path d="M410,1082 L440,1082" stroke="#6a1b9a" stroke-width="1" fill="none" marker-end="url(#arrowBlue)"/>
    
    <rect x="450" y="1065" width="60" height="25" rx="4" fill="#9c27b0" opacity="0.3"/>
    <text x="480" y="1082" text-anchor="middle" font-size="9" fill="#6a1b9a">S</text>
    
    <path d="M510,1082 L540,1082" stroke="#6a1b9a" stroke-width="1" fill="none" marker-end="url(#arrowBlue)"/>
    
    <rect x="550" y="1065" width="60" height="25" rx="4" fill="#f44336" opacity="0.4"/>
    <text x="580" y="1082" text-anchor="middle" font-size="9" font-weight="bold" fill="#c62828">X</text>
    
    <text x="620" y="1075" font-size="8" fill="#666">more efficient</text>
    <text x="620" y="1088" font-size="8" fill="#666">than S+IX</text>
  </g>
</svg>