<svg xmlns="http://www.w3.org/2000/svg" viewBox="0 0 800 1460">
  <defs>
    <!-- Gradients -->
    <linearGradient id="blueGrad" x1="0%" y1="0%" x2="100%" y2="100%">
      <stop offset="0%" style="stop-color:#e3f2fd"/>
      <stop offset="100%" style="stop-color:#bbdefb"/>
    </linearGradient>
    <linearGradient id="greenGrad" x1="0%" y1="0%" x2="100%" y2="100%">
      <stop offset="0%" style="stop-color:#e8f5e9"/>
      <stop offset="100%" style="stop-color:#c8e6c9"/>
    </linearGradient>
    <linearGradient id="orangeGrad" x1="0%" y1="0%" x2="100%" y2="100%">
      <stop offset="0%" style="stop-color:#fff3e0"/>
      <stop offset="100%" style="stop-color:#ffe0b2"/>
    </linearGradient>
    <linearGradient id="purpleGrad" x1="0%" y1="0%" x2="100%" y2="100%">
      <stop offset="0%" style="stop-color:#f3e5f5"/>
      <stop offset="100%" style="stop-color:#e1bee7"/>
    </linearGradient>
    <linearGradient id="redGrad" x1="0%" y1="0%" x2="100%" y2="100%">
      <stop offset="0%" style="stop-color:#ffebee"/>
      <stop offset="100%" style="stop-color:#ffcdd2"/>
    </linearGradient>
    <linearGradient id="titleGrad" x1="0%" y1="0%" x2="100%" y2="0%">
      <stop offset="0%" style="stop-color:#1976d2"/>
      <stop offset="100%" style="stop-color:#1565c0"/>
    </linearGradient>
    
    <!-- Shadow filter -->
    <filter id="shadow" x="-20%" y="-20%" width="140%" height="140%">
      <feDropShadow dx="2" dy="2" stdDeviation="3" flood-opacity="0.15"/>
    </filter>
    
    <!-- Arrow marker -->
    <marker id="arrowBlue" markerWidth="10" markerHeight="10" refX="9" refY="3" orient="auto">
      <path d="M0,0 L0,6 L9,3 z" fill="#1976d2"/>
    </marker>
    <marker id="arrowGreen" markerWidth="10" markerHeight="10" refX="9" refY="3" orient="auto">
      <path d="M0,0 L0,6 L9,3 z" fill="#388e3c"/>
    </marker>
    <marker id="arrowOrange" markerWidth="10" markerHeight="10" refX="9" refY="3" orient="auto">
      <path d="M0,0 L0,6 L9,3 z" fill="#ff9800"/>
    </marker>
  </defs>
  
  <style>
    @keyframes fadeInSlide {
      from { opacity: 0; transform: translateY(20px); }
      to { opacity: 1; transform: translateY(0); }
    }
    @keyframes scaleIn {
      from { opacity: 0; transform: scale(0.85); }
      to { opacity: 1; transform: scale(1); }
    }
    @keyframes textReveal {
      from { opacity: 0; transform: translateX(-10px); }
      to { opacity: 1; transform: translateX(0); }
    }
    @keyframes drawLine {
      from { stroke-dashoffset: 300; }
      to { stroke-dashoffset: 0; }
    }
    @keyframes pulse {
      0%, 100% { transform: scale(1); }
      50% { transform: scale(1.03); }
    }
    .step { animation: fadeInSlide 0.6s ease-out; }
    .step rect {
      animation: scaleIn 0.5s cubic-bezier(0.34, 1.56, 0.64, 1);
      transform-origin: center;
    }
    .step text { animation: textReveal 0.4s ease-out 0.2s backwards; }
    .title-text { font-family: 'Segoe UI', sans-serif; font-weight: 600; }
    .body-text { font-family: 'Segoe UI', sans-serif; font-weight: 400; }
    .label-text { font-family: 'Segoe UI', sans-serif; font-size: 10px; }
    .dashed-line {
      stroke-dasharray: 5,5;
      animation: drawLine 1s ease-out forwards;
    }
  </style>
  
  <!-- Background -->
  <rect width="800" height="1460" fill="#f8f9fa"/>
  
  <!-- Step 0: Title -->
  <g class="step" id="step0" data-narration="Disk Management covers how the OS prepares, organizes, and maintains disk drives for data storage.">
    <rect x="50" y="10" width="700" height="45" rx="10" fill="url(#titleGrad)" filter="url(#shadow)"/>
    <text x="400" y="42" text-anchor="middle" fill="white" font-size="22" font-weight="600" font-family="Segoe UI">Disk Management</text>
  </g>
  
  <!-- Step 1: Introduction -->
  <g class="step" id="step1" data-narration="Before a disk can store data, the OS must initialize it through disk management tasks including formatting and boot setup.">
    <rect x="50" y="60" width="700" height="85" rx="8" fill="url(#blueGrad)" filter="url(#shadow)"/>
    <text x="70" y="82" fill="#1976d2" font-size="14" font-weight="600" font-family="Segoe UI">Why Disk Management Matters</text>
    <text x="70" y="100" fill="#424242" font-size="11" font-family="Segoe UI">Disk management prepares new disks for use by initializing structures that the OS</text>
    <text x="70" y="116" fill="#424242" font-size="11" font-family="Segoe UI">and applications need. Without these tasks, the OS cannot store data or even start up.</text>
    <rect x="580" y="72" width="150" height="55" rx="6" fill="white" opacity="0.8"/>
    <text x="655" y="92" text-anchor="middle" fill="#1976d2" font-size="11" font-weight="600">Key Tasks:</text>
    <text x="655" y="108" text-anchor="middle" fill="#424242" font-size="10">• Formatting</text>
    <text x="655" y="122" text-anchor="middle" fill="#424242" font-size="10">• Boot Management</text>
  </g>
  
  <!-- Step 2: Overview of Four Tasks -->
  <g class="step" id="step2" data-narration="Disk management has four main areas: low-level formatting, logical formatting, boot block management, and swap-space management.">
    <rect x="50" y="155" width="700" height="85" rx="8" fill="url(#greenGrad)" filter="url(#shadow)"/>
    <text x="70" y="177" fill="#388e3c" font-size="14" font-weight="600" font-family="Segoe UI">Four Main Areas of Disk Management</text>
    
    <!-- Four cards -->
    <g transform="translate(70, 195)">
      <rect x="0" y="0" width="155" height="35" rx="5" fill="#1976d2"/>
      <text x="77" y="22" text-anchor="middle" fill="white" font-size="10" font-weight="600">1. Low-Level Format</text>
    </g>
    <g transform="translate(235, 195)">
      <rect x="0" y="0" width="155" height="35" rx="5" fill="#388e3c"/>
      <text x="77" y="22" text-anchor="middle" fill="white" font-size="10" font-weight="600">2. Logical Format</text>
    </g>
    <g transform="translate(400, 195)">
      <rect x="0" y="0" width="155" height="35" rx="5" fill="#ff9800"/>
      <text x="77" y="22" text-anchor="middle" fill="white" font-size="10" font-weight="600">3. Boot Block</text>
    </g>
    <g transform="translate(565, 195)">
      <rect x="0" y="0" width="155" height="35" rx="5" fill="#9c27b0"/>
      <text x="77" y="22" text-anchor="middle" fill="white" font-size="10" font-weight="600">4. Swap Space</text>
    </g>
  </g>
  
  <!-- Step 3: Low-Level Formatting -->
  <g class="step" id="step3" data-narration="Low-level formatting creates sectors on the disk with header, data (512 or 4096 bytes), and error-correcting code for reliability.">
    <rect x="50" y="250" width="700" height="100" rx="8" fill="url(#blueGrad)" filter="url(#shadow)"/>
    <text x="70" y="272" fill="#1976d2" font-size="14" font-weight="600" font-family="Segoe UI">Low-Level Formatting (Physical)</text>
    <text x="70" y="290" fill="#424242" font-size="11" font-family="Segoe UI">Creates sectors the disk controller can read/write. Done at factory. Each sector has:</text>
    
    <!-- Sector diagram -->
    <g transform="translate(70, 300)">
      <rect x="0" y="0" width="100" height="40" rx="4" fill="#1565c0"/>
      <text x="50" y="25" text-anchor="middle" fill="white" font-size="9">Header</text>
    </g>
    <g transform="translate(180, 300)">
      <rect x="0" y="0" width="350" height="40" rx="4" fill="#42a5f5"/>
      <text x="175" y="25" text-anchor="middle" fill="white" font-size="10">Data (512 or 4096 bytes)</text>
    </g>
    <g transform="translate(540, 300)">
      <rect x="0" y="0" width="80" height="40" rx="4" fill="#7e57c2"/>
      <text x="40" y="25" text-anchor="middle" fill="white" font-size="9">ECC</text>
    </g>
    <path d="M120 20 L170 20" stroke="#424242" stroke-width="2" marker-end="url(#arrowBlue)"/>
    <text x="70" y="355" fill="#616161" font-size="10" font-family="Segoe UI">Header: sector number, cylinder info | ECC: detects/corrects errors</text>
  </g>
  
  <!-- Step 4: Logical Formatting -->
  <g class="step" id="step4" data-narration="Logical formatting creates file system structures like superblock, inode table, and root directory on each partition after partitioning.">
    <rect x="50" y="360" width="700" height="100" rx="8" fill="url(#greenGrad)" filter="url(#shadow)"/>
    <text x="70" y="382" fill="#388e3c" font-size="14" font-weight="600" font-family="Segoe UI">Logical Formatting (High-Level)</text>
    <text x="70" y="400" fill="#424242" font-size="11" font-family="Segoe UI">OS writes file system data structures onto each partition:</text>
    
    <!-- Partition diagram -->
    <g transform="translate(70, 415)">
      <rect x="0" y="0" width="200" height="35" rx="4" fill="#5d4037"/>
      <text x="100" y="22" text-anchor="middle" fill="white" font-size="9">Partition 1 (ext4)</text>
      <rect x="5" y="28" width="40" height="4" fill="#8d6e63" rx="1"/>
      <text x="50" y="32" fill="white" font-size="6">Superblock</text>
      <rect x="95" y="28" width="40" height="4" fill="#8d6e63" rx="1"/>
      <text x="140" y="32" fill="white" font-size="6">Root</text>
      <rect x="155" y="28" width="40" height="4" fill="#4caf50" rx="1"/>
      <text x="175" y="32" fill="white" font-size="6">Data</text>
    </g>
    <g transform="translate(280, 415)">
      <rect x="0" y="0" width="200" height="35" rx="4" fill="#ff9800"/>
      <text x="100" y="22" text-anchor="middle" fill="white" font-size="9">Partition 2 (Swap)</text>
      <rect x="80" y="25" width="40" height="6" fill="#ffe0b2" rx="1"/>
      <text x="175" y="30" fill="white" font-size="7">Swap pages</text>
    </g>
    <g transform="translate(490, 415)">
      <rect x="0" y="0" width="200" height="35" rx="4" fill="#1976d2"/>
      <text x="100" y="22" text-anchor="middle" fill="white" font-size="9">Partition 3 (NTFS)</text>
      <rect x="5" y="28" width="30" height="4" fill="#90caf9" rx="1"/>
      <text x="45" y="32" fill="white" font-size="6">MFT</text>
      <rect x="80" y="28" width="30" height="4" fill="#90caf9" rx="1"/>
      <text x="110" y="32" fill="white" font-size="6">Bitmap</text>
      <rect x="155" y="28" width="40" height="4" fill="#90caf9" rx="1"/>
    </g>
    <text x="70" y="470" fill="#616161" font-size="10" font-family="Segoe UI">Raw disk: partition without file system, used for swap or databases</text>
  </g>
  
  <!-- Step 5: Boot Process Overview -->
  <g class="step" id="step5" data-narration="The boot sequence goes: power on → BIOS/UEFI → MBR → bootstrap → boot block → OS kernel loads and starts the system.">
    <rect x="50" y="470" width="700" height="100" rx="8" fill="url(#orangeGrad)" filter="url(#shadow)"/>
    <text x="70" y="492" fill="#e65100" font-size="14" font-weight="600" font-family="Segoe UI">Boot Process Sequence</text>
    
    <!-- Boot flow diagram -->
    <g transform="translate(70, 510)">
      <rect x="0" y="0" width="80" height="30" rx="5" fill="#1976d2"/>
      <text x="40" y="20" text-anchor="middle" fill="white" font-size="9">Power On</text>
    </g>
    <path d="M90 15 L120 15" stroke="#424242" stroke-width="2" marker-end="url(#arrowOrange)"/>
    
    <g transform="translate(130, 510)">
      <rect x="0" y="0" width="100" height="30" rx="5" fill="#5d4037"/>
      <text x="50" y="20" text-anchor="middle" fill="white" font-size="9">BIOS/UEFI</text>
    </g>
    <path d="M240 15 L270 15" stroke="#424242" stroke-width="2" marker-end="url(#arrowOrange)"/>
    
    <g transform="translate(280, 510)">
      <rect x="0" y="0" width="70" height="30" rx="5" fill="#ff9800"/>
      <text x="35" y="20" text-anchor="middle" fill="white" font-size="9">MBR</text>
    </g>
    <path d="M360 15 L390 15" stroke="#424242" stroke-width="2" marker-end="url(#arrowOrange)"/>
    
    <g transform="translate(400, 510)">
      <rect x="0" y="0" width="100" height="30" rx="5" fill="#9c27b0"/>
      <text x="50" y="20" text-anchor="middle" fill="white" font-size="9">Boot Block</text>
    </g>
    <path d="M510 15 L540 15" stroke="#424242" stroke-width="2" marker-end="url(#arrowOrange)"/>
    
    <g transform="translate(550, 510)">
      <rect x="0" y="0" width="80" height="30" rx="5" fill="#388e3c"/>
      <text x="40" y="20" text-anchor="middle" fill="white" font-size="9">OS Kernel</text>
    </g>
    
    <text x="70" y="570" fill="#616161" font-size="10" font-family="Segoe UI">MBR is sector 0 of boot disk (512 bytes) | Boot block loads from active partition</text>
  </g>
  
  <!-- Step 6: MBR Structure -->
  <g class="step" id="step6" data-narration="The MBR contains bootstrap code (446 bytes), partition table (64 bytes for 4 partitions), and magic number 0x55AA (2 bytes).">
    <rect x="50" y="580" width="700" height="100" rx="8" fill="url(#purpleGrad)" filter="url(#shadow)"/>
    <text x="70" y="602" fill="#7b1fa2" font-size="14" font-weight="600" font-family="Segoe UI">Master Boot Record (MBR) Structure</text>
    <text x="70" y="620" fill="#424242" font-size="11" font-family="Segoe UI">Total size: 512 bytes (first sector of boot disk)</text>
    
    <!-- MBR structure diagram -->
    <g transform="translate(70, 635)">
      <rect x="0" y="0" width="300" height="35" rx="4" fill="#5d4037"/>
      <text x="150" y="22" text-anchor="middle" fill="white" font-size="10">Bootstrap Code</text>
      <text x="300" y="22" fill="#424242" font-size="9">446 B</text>
    </g>
    <g transform="translate(70, 675)">
      <rect x="0" y="0" width="300" height="35" rx="4" fill="#7e57c2"/>
      <text x="150" y="22" text-anchor="middle" fill="white" font-size="10">Partition Table (4 entries × 16 B)</text>
      <text x="300" y="22" fill="#424242" font-size="9">64 B</text>
    </g>
    <g transform="translate(70, 715)">
      <rect x="0" y="0" width="300" height="35" rx="4" fill="#f44336"/>
      <text x="150" y="22" text-anchor="middle" fill="white" font-size="10">Magic Number (0x55AA)</text>
      <text x="300" y="22" fill="#424242" font-size="9">2 B</text>
    </g>
    
    <text x="400" y="655" fill="#616161" font-size="10" font-family="Segoe UI">Windows: MBR → boot sector →</text>
    <text x="400" y="670" fill="#616161" font-size="10" font-family="Segoe UI">Boot Manager</text>
    <text x="400" y="695" fill="#616161" font-size="10" font-family="Segoe UI">Linux: MBR → GRUB → Kernel</text>
  </g>
  
  <!-- Step 7: Bad Block Management Overview -->
  <g class="step" id="step7" data-narration="Bad blocks are defective sectors that can cause data loss. The OS must detect and handle them through various recovery techniques.">
    <rect x="50" y="690" width="700" height="100" rx="8" fill="url(#redGrad)" filter="url(#shadow)"/>
    <text x="70" y="712" fill="#c62828" font-size="14" font-weight="600" font-family="Segoe UI">Bad Block Management</text>
    <text x="70" y="730" fill="#424242" font-size="11" font-family="Segoe UI">Disk sectors can become defective over time. Two handling approaches:</text>
    
    <!-- Two approaches -->
    <g transform="translate(70, 745)">
      <rect x="0" y="0" width="320" height="35" rx="5" fill="#ef5350"/>
      <text x="160" y="22" text-anchor="middle" fill="white" font-size="11" font-weight="600">Simple Disks (IDE/ATA)</text>
      <text x="320" y="22" fill="white" font-size="9">OS handles manually</text>
    </g>
    <text x="70" y="795" fill="#616161" font-size="10">• OS scans disk during formatting</text>
    <text x="70" y="810" fill="#616161" font-size="10">• Bad blocks marked in bad-block list</text>
    <text x="70" y="825" fill="#616161" font-size="10">• Example: MS-DOS FORMAT marks bad FAT sectors</text>
    
    <g transform="translate(410, 745)">
      <rect x="0" y="0" width="320" height="35" rx="5" fill="#8e24aa"/>
      <text x="160" y="22" text-anchor="middle" fill="white" font-size="11" font-weight="600">Sophisticated Disks (SCSI)</text>
      <text x="320" y="22" fill="white" font-size="9">Controller handles</text>
    </g>
    <text x="410" y="795" fill="#616161" font-size="10">• Controller uses sector sparing or slipping</text>
    <text x="410" y="810" fill="#616161" font-size="10">• Transparent to OS - transparent remapping</text>
  </g>
  
  <!-- Step 8: Sector Sparing -->
  <g class="step" id="step8" data-narration="Sector sparing remaps a bad sector to a spare sector from a pool. The OS sees the original logical sector but data goes to the spare.">
    <rect x="50" y="800" width="700" height="100" rx="8" fill="url(#blueGrad)" filter="url(#shadow)"/>
    <text x="70" y="822" fill="#1565c0" font-size="14" font-weight="600" font-family="Segoe UI">Sector Sparing (Remapping)</text>
    <text x="70" y="840" fill="#424242" font-size="11" font-family="Segoe UI">Controller remaps bad sector to a spare sector transparently:</text>
    
    <!-- Before/After diagram -->
    <g transform="translate(70, 855)">
      <text x="40" y="5" fill="#424242" font-size="9">Before:</text>
      <rect x="0" y="10" width="40" height="25" rx="3" fill="#4caf50"/>
      <text x="20" y="27" text-anchor="middle" fill="white" font-size="8">0</text>
      <rect x="45" y="10" width="40" height="25" rx="3" fill="#4caf50"/>
      <text x="65" y="27" text-anchor="middle" fill="white" font-size="8">1</text>
      <rect x="90" y="10" width="40" height="25" rx="3" fill="#f44336"/>
      <text x="110" y="27" text-anchor="middle" fill="white" font-size="8">BAD</text>
      <rect x="135" y="10" width="40" height="25" rx="3" fill="#4caf50"/>
      <text x="155" y="27" text-anchor="middle" fill="white" font-size="8">3</text>
    </g>
    
    <path d="M260 55 L320 55" stroke="#424242" stroke-width="2" marker-end="url(#arrowBlue)"/>
    
    <g transform="translate(330, 855)">
      <text x="60" y="5" fill="#424242" font-size="9">After:</text>
      <rect x="0" y="10" width="40" height="25" rx="3" fill="#4caf50"/>
      <text x="20" y="27" text-anchor="middle" fill="white" font-size="8">0</text>
      <rect x="45" y="10" width="40" height="25" rx="3" fill="#4caf50"/>
      <text x="65" y="27" text-anchor="middle" fill="white" font-size="8">1</text>
      <rect x="90" y="10" width="40" height="25" rx="3" fill="#4caf50"/>
      <text x="110" y="27" text-anchor="middle" fill="white" font-size="8">2</text>
      <rect x="135" y="10" width="40" height="25" rx="3" fill="#4caf50"/>
      <text x="155" y="27" text-anchor="middle" fill="white" font-size="8">3</text>
      
      <rect x="10" y="45" width="40" height="25" rx="3" fill="#ff9800"/>
      <text x="30" y="62" text-anchor="middle" fill="white" font-size="8">S1</text>
      <text x="60" y="60" fill="#616161" font-size="8">Spare</text>
    </g>
    
    <text x="550" y="860" fill="#616161" font-size="9">OS sees sequential</text>
    <text x="550" y="875" fill="#616161" font-size="9">sectors, no change</text>
    <rect x="545" y="885" width="140" height="5" rx="2" fill="#e0e0e0"/>
    <rect x="545" y="885" width="70" height="5" rx="2" fill="#4caf50">
      <animate attributeName="width" from="0" to="70" dur="1s" fill="freeze"/>
    </rect>
  </g>
  
  <!-- Step 9: Sector Slipping -->
  <g class="step" id="step9" data-narration="Sector slipping shifts all subsequent sectors to fill the gap, preserving sequential access without seeking to a distant spare sector.">
    <rect x="50" y="910" width="700" height="100" rx="8" fill="url(#greenGrad)" filter="url(#shadow)"/>
    <text x="70" y="932" fill="#2e7d32" font-size="14" font-weight="600" font-family="Segoe UI">Sector Slipping (Alternative to Sparing)</text>
    <text x="70" y="950" fill="#424242" font-size="11" font-family="Segoe UI">Instead of remapping to distant spare, shift adjacent sectors to fill the gap:</text>
    
    <!-- Before/After for slipping -->
    <g transform="translate(70, 965)">
      <text x="40" y="0" fill="#424242" font-size="9">Before:</text>
      <rect x="0" y="5" width="35" height="20" rx="2" fill="#4caf50"/>
      <text x="17" y="20" text-anchor="middle" fill="white" font-size="7">0</text>
      <rect x="38" y="5" width="35" height="20" rx="2" fill="#4caf50"/>
      <text x="55" y="20" text-anchor="middle" fill="white" font-size="7">1</text>
      <rect x="76" y="5" width="35" height="20" rx="2" fill="#f44336"/>
      <text x="93" y="20" text-anchor="middle" fill="white" font-size="7">BAD</text>
      <rect x="114" y="5" width="35" height="20" rx="2" fill="#2196f3"/>
      <text x="131" y="20" text-anchor="middle" fill="white" font-size="7">3</text>
      <rect x="152" y="5" width="35" height="20" rx="2" fill="#9c27b0"/>
      <text x="169" y="20" text-anchor="middle" fill="white" font-size="7">4</text>
      <rect x="190" y="5" width="35" height="20" rx="2" fill="#ff9800"/>
      <text x="207" y="20" text-anchor="middle" fill="white" font-size="7">5</text>
    </g>
    
    <path d="M250 40 L310 40" stroke="#424242" stroke-width="2" marker-end="url(#arrowGreen)"/>
    
    <g transform="translate(330, 965)">
      <text x="60" y="0" fill="#424242" font-size="9">After:</text>
      <rect x="0" y="5" width="35" height="20" rx="2" fill="#4caf50"/>
      <text x="17" y="20" text-anchor="middle" fill="white" font-size="7">0</text>
      <rect x="38" y="5" width="35" height="20" rx="2" fill="#4caf50"/>
      <text x="55" y="20" text-anchor="middle" fill="white" font-size="7">1</text>
      <rect x="76" y="5" width="35" height="20" rx="2" fill="#2196f3"/>
      <text x="93" y="20" text-anchor="middle" fill="white" font-size="7">3→2</text>
      <rect x="114" y="5" width="35" height="20" rx="2" fill="#9c27b0"/>
      <text x="131" y="20" text-anchor="middle" fill="white" font-size="7">4→3</text>
      <rect x="152" y="5" width="35" height="20" rx="2" fill="#ff9800"/>
      <text x="169" y="20" text-anchor="middle" fill="white" font-size="7">5→4</text>
      <rect x="190" y="5" width="35" height="20" rx="2" fill="#ff9800"/>
      <text x="207" y="20" text-anchor="middle" fill="white" font-size="7">Spare</text>
    </g>
    
    <text x="550" y="975" fill="#616161" font-size="10">Advantage:</text>
    <text x="550" y="990" fill="#616161" font-size="10">Sequential access</text>
    <text x="550" y="1005" fill="#616161" font-size="10">preserved - no seeking</text>
    <text x="550" y="1020" fill="#616161" font-size="10">to distant spare</text>
  </g>
  
  <!-- Step 10: Swap Space Overview -->
  <g class="step" id="step10" data-narration="Swap space extends RAM by using disk storage. When RAM is full, less-used pages are moved to swap to make room for new processes.">
    <rect x="50" y="1020" width="700" height="100" rx="8" fill="url(#purpleGrad)" filter="url(#shadow)"/>
    <text x="70" y="1042" fill="#6a1b9a" font-size="14" font-weight="600" font-family="Segoe UI">Swap-Space Management</text>
    <text x="70" y="1060" fill="#424242" font-size="11" font-family="Segoe UI">Disk space used as extension of main memory. When RAM is full, OS swaps less-used pages to disk:</text>
    
    <!-- RAM vs Swap diagram -->
    <g transform="translate(70, 1075)">
      <text x="60" y="5" fill="#424242" font-size="10" font-weight="600">RAM (Full)</text>
      <rect x="0" y="10" width="50" height="30" rx="4" fill="#4caf50"/>
      <text x="25" y="30" text-anchor="middle" fill="white" font-size="9">P1</text>
      <rect x="55" y="10" width="50" height="30" rx="4" fill="#2196f3"/>
      <text x="80" y="30" text-anchor="middle" fill="white" font-size="9">P2</text>
      <rect x="110" y="10" width="50" height="30" rx="4" fill="#ff9800"/>
      <text x="135" y="30" text-anchor="middle" fill="white" font-size="9">P3</text>
    </g>
    
    <g transform="translate(250, 1075)">
      <text x="40" y="5" fill="#424242" font-size="10">→ Swap out P2</text>
    </g>
    
    <g transform="translate(380, 1075)">
      <text x="50" y="5" fill="#424242" font-size="10" font-weight="600">After Swap</text>
      <rect x="0" y="10" width="50" height="30" rx="4" fill="#4caf50"/>
      <text x="25" y="30" text-anchor="middle" fill="white" font-size="9">P1</text>
      <rect x="55" y="10" width="50" height="30" rx="4" fill="#9c27b0"/>
      <text x="80" y="30" text-anchor="middle" fill="white" font-size="9">P4</text>
      <rect x="110" y="10" width="50" height="30" rx="4" fill="#ff9800"/>
      <text x="135" y="30" text-anchor="middle" fill="white" font-size="9">P3</text>
      
      <rect x="0" y="50" width="80" height="25" rx="3" fill="#e0e0e0" stroke="#9e9e9e"/>
      <text x="40" y="67" text-anchor="middle" fill="#424242" font-size="9">Swap: P2</text>
    </g>
    
    <text x="550" y="1085" fill="#616161" font-size="10">P2 swapped back in</text>
    <text x="550" y="1100" fill="#616161" font-size="10">when needed</text>
  </g>
  
  <!-- Step 11: Swap Space Location -->
  <g class="step" id="step11" data-narration="Swap can be a file in the filesystem (easy to manage, slower) or a raw partition (faster, fixed size). Modern systems use raw partitions.">
    <rect x="50" y="1130" width="700" height="100" rx="8" fill="url(#orangeGrad)" filter="url(#shadow)"/>
    <text x="70" y="1152" fill="#e65100" font-size="14" font-weight="600" font-family="Segoe UI">Swap-Space Location Comparison</text>
    
    <!-- Two options -->
    <g transform="translate(70, 1170)">
      <rect x="0" y="0" width="300" height="50" rx="5" fill="white" stroke="#ff9800" stroke-width="2"/>
      <text x="150" y="18" text-anchor="middle" fill="#e65100" font-size="12" font-weight="600">File System Swap</text>
      <text x="30" y="38" fill="#424242" font-size="9">• Swap file within partition</text>
      <text x="180" y="38" fill="#424242" font-size="9">• Easier to create/resize</text>
      <text x="150" y="48" fill="#f44336" font-size="8">Slower - file system overhead</text>
    </g>
    
    <g transform="translate(390, 1170)">
      <rect x="0" y="0" width="300" height="50" rx="5" fill="white" stroke="#388e3c" stroke-width="2"/>
      <text x="150" y="18" text-anchor="middle" fill="#2e7d32" font-size="12" font-weight="600">Raw Partition</text>
      <text x="30" y="38" fill="#424242" font-size="9">• Separate partition, no FS</text>
      <text x="180" y="38" fill="#424242" font-size="9">• OS manages directly</text>
      <text x="150" y="48" fill="#388e3c" font-size="8">Faster - no FS overhead</text>
    </g>
    
    <text x="70" y="1240" fill="#616161" font-size="10">Modern systems use raw partitions for performance. Linux: mkswap, swapon | Windows: pagefile.sys</text>
  </g>
  
  <!-- Step 12: Key Takeaways -->
  <g class="step" id="step12" data-narration="Key points: Low-level format creates sectors, logical format creates file system, MBR boots the system, sector sparing handles bad blocks.">
    <rect x="50" y="1240" width="700" height="100" rx="8" fill="url(#blueGrad)" filter="url(#shadow)"/>
    <text x="70" y="1262" fill="#1565c0" font-size="14" font-weight="600" font-family="Segoe UI">Key Takeaways</text>
    
    <!-- Summary table -->
    <g transform="translate(70, 1280)">
      <rect x="0" y="0" width="680" height="50" rx="5" fill="white"/>
      <line x1="170" y1="0" x2="170" y2="50" stroke="#e0e0e0"/>
      <line x1="340" y1="0" x2="340" y2="50" stroke="#e0e0e0"/>
      <line x1="510" y1="0" x2="510" y2="50" stroke="#e0e0e0"/>
      
      <text x="85" y="15" text-anchor="middle" fill="#1976d2" font-size="10" font-weight="600">Low-Level Format</text>
      <text x="255" y="15" text-anchor="middle" fill="#388e3c" font-size="10" font-weight="600">Logical Format</text>
      <text x="425" y="15" text-anchor="middle" fill="#ff9800" font-size="10" font-weight="600">Boot Block</text>
      <text x="595" y="15" text-anchor="middle" fill="#9c27b0" font-size="10" font-weight="600">Bad Blocks</text>
      
      <text x="85" y="35" text-anchor="middle" fill="#424242" font-size="8">Creates sectors</text>
      <text x="255" y="35" text-anchor="middle" fill="#424242" font-size="8">Creates FS structures</text>
      <text x="425" y="35" text-anchor="middle" fill="#424242" font-size="8">MBR → boot → kernel</text>
      <text x="595" y="35" text-anchor="middle" fill="#424242" font-size="8">Sparing / Slipping</text>
    </g>
    
    <text x="70" y="1350" fill="#616161" font-size="10">Swap space: Raw partition (faster) vs file (easier) | Modern systems swap pages, not entire processes</text>
  </g>
  
  <!-- Step 13: Exam Tips -->
  <g class="step" id="step13" data-narration="For exams: know formatting levels difference, draw boot sequence, explain sector sparing vs slipping, compare swap types.">
    <rect x="50" y="1350" width="700" height="85" rx="8" fill="url(#greenGrad)" filter="url(#shadow)"/>
    <text x="70" y="1372" fill="#2e7d32" font-size="14" font-weight="600" font-family="Segoe UI">Exam Tips</text>
    
    <!-- Tips list -->
    <g transform="translate(70, 1390)">
      <circle cx="10" cy="-5" r="12" fill="#4caf50"/>
      <text x="10" y="0" text-anchor="middle" fill="white" font-size="11" font-weight="600">1</text>
      <text x="30" y="0" fill="#424242" font-size="10">Distinguish low-level vs logical formatting</text>
    </g>
    <g transform="translate(280, 1390)">
      <circle cx="10" cy="-5" r="12" fill="#4caf50"/>
      <text x="10" y="0" text-anchor="middle" fill="white" font-size="11" font-weight="600">2</text>
      <text x="30" y="0" fill="#424242" font-size="10">Draw boot sequence diagram</text>
    </g>
    <g transform="translate(490, 1390)">
      <circle cx="10" cy="-5" r="12" fill="#4caf50"/>
      <text x="10" y="0" text-anchor="middle" fill="white" font-size="11" font-weight="600">3</text>
      <text x="30" y="0" fill="#424242" font-size="10">Compare sparing vs slipping</text>
    </g>
    <g transform="translate(70, 1415)">
      <circle cx="10" cy="-5" r="12" fill="#4caf50"/>
      <text x="10" y="0" text-anchor="middle" fill="white" font-size="11" font-weight="600">4</text>
      <text x="30" y="0" fill="#424242" font-size="10">MBR: 446+64+2 = 512 bytes</text>
    </g>
    <g transform="translate(280, 1415)">
      <circle cx="10" cy="-5" r="12" fill="#4caf50"/>
      <text x="10" y="0" text-anchor="middle" fill="white" font-size="11" font-weight="600">5</text>
      <text x="30" y="0" fill="#424242" font-size="10">Swap: raw partition vs file</text>
    </g>
  </g>
</svg>