<svg xmlns="http://www.w3.org/2000/svg" viewBox="0 0 800 1600">
  <defs>
    <!-- Gradients -->
    <linearGradient id="titleGradient" x1="0%" y1="0%" x2="100%" y2="100%">
      <stop offset="0%" stop-color="#1565c0"/>
      <stop offset="100%" stop-color="#0d47a1"/>
    </linearGradient>
    <linearGradient id="blueGradient" x1="0%" y1="0%" x2="100%" y2="100%">
      <stop offset="0%" stop-color="#e3f2fd"/>
      <stop offset="100%" stop-color="#bbdefb"/>
    </linearGradient>
    <linearGradient id="greenGradient" x1="0%" y1="0%" x2="100%" y2="100%">
      <stop offset="0%" stop-color="#e8f5e9"/>
      <stop offset="100%" stop-color="#c8e6c9"/>
    </linearGradient>
    <linearGradient id="orangeGradient" x1="0%" y1="0%" x2="100%" y2="100%">
      <stop offset="0%" stop-color="#fff3e0"/>
      <stop offset="100%" stop-color="#ffe0b2"/>
    </linearGradient>
    <linearGradient id="purpleGradient" x1="0%" y1="0%" x2="100%" y2="100%">
      <stop offset="0%" stop-color="#f3e5f5"/>
      <stop offset="100%" stop-color="#e1bee7"/>
    </linearGradient>
    <linearGradient id="redGradient" x1="0%" y1="0%" x2="100%" y2="100%">
      <stop offset="0%" stop-color="#ffebee"/>
      <stop offset="100%" stop-color="#ffcdd2"/>
    </linearGradient>
    <linearGradient id="tealGradient" x1="0%" y1="0%" x2="100%" y2="100%">
      <stop offset="0%" stop-color="#e0f2f1"/>
      <stop offset="100%" stop-color="#b2dfdb"/>
    </linearGradient>
    <linearGradient id="yellowGradient" x1="0%" y1="0%" x2="100%" y2="100%">
      <stop offset="0%" stop-color="#fffde7"/>
      <stop offset="100%" stop-color="#fff9c4"/>
    </linearGradient>
    
    <!-- Shadow Filter -->
    <filter id="shadow" x="-20%" y="-20%" width="140%" height="140%">
      <feDropShadow dx="2" dy="3" stdDeviation="3" flood-opacity="0.15"/>
    </filter>
    
    <!-- Arrow Marker -->
    <marker id="arrowGreen" markerWidth="10" markerHeight="10" refX="9" refY="3" orient="auto">
      <path d="M0,0 L0,6 L9,3 z" fill="#388e3c"/>
    </marker>
    <marker id="arrowBlue" markerWidth="10" markerHeight="10" refX="9" refY="3" orient="auto">
      <path d="M0,0 L0,6 L9,3 z" fill="#1976d2"/>
    </marker>
    <marker id="arrowOrange" markerWidth="10" markerHeight="10" refX="9" refY="3" orient="auto">
      <path d="M0,0 L0,6 L9,3 z" fill="#ff9800"/>
    </marker>
    <marker id="arrowRed" markerWidth="10" markerHeight="10" refX="9" refY="3" orient="auto">
      <path d="M0,0 L0,6 L9,3 z" fill="#f44336"/>
    </marker>
  </defs>
  
  <style>
    @keyframes fadeInSlide {
      from { opacity: 0; transform: translateY(20px); }
      to { opacity: 1; transform: translateY(0); }
    }
    @keyframes scaleIn {
      from { opacity: 0; transform: scale(0.85); }
      to { opacity: 1; transform: scale(1); }
    }
    @keyframes textReveal {
      from { opacity: 0; transform: translateX(-10px); }
      to { opacity: 1; transform: translateX(0); }
    }
    @keyframes pulse {
      0%, 100% { transform: scale(1); }
      50% { transform: scale(1.03); }
    }
    @keyframes drawLine {
      from { stroke-dashoffset: 500; }
      to { stroke-dashoffset: 0; }
    }
    .step { animation: fadeInSlide 0.6s ease-out; }
    .step rect { animation: scaleIn 0.5s cubic-bezier(0.34, 1.56, 0.64, 1); transform-origin: center; }
    .step text { animation: textReveal 0.4s ease-out 0.2s backwards; }
    .title-text { font-size: 24px; font-weight: bold; fill: white; }
    .subtitle-text { font-size: 14px; fill: white; opacity: 0.9; }
    .step-title { font-size: 13px; font-weight: bold; fill: #333; }
    .step-body { font-size: 10px; fill: #555; }
    .step-body-small { font-size: 9px; fill: #666; }
    .code-text { font-size: 8px; font-family: monospace; fill: #444; }
    .node-start { fill: #4caf50; }
    .node-end { fill: #2196f3; }
    .node-kill { fill: #f44336; }
    .node-action { fill: #ff9800; }
    .node-decision { fill: #9c27b0; }
    .node-fork { fill: #00bcd4; }
    .node-join { fill: #009688; }
  </style>
  
  <!-- Background -->
  <rect width="800" height="1600" fill="#f8f9fa"/>
  
  <!-- Step 0: Title -->
  <g class="step" id="step0" data-narration="Apache Oozie is a workflow scheduler system that manages and coordinates Hadoop jobs in complex data pipelines.">
    <rect x="0" y="0" width="800" height="55" fill="url(#titleGradient)" rx="0"/>
    <text x="400" y="25" text-anchor="middle" class="title-text">Apache Oozie</text>
    <text x="400" y="42" text-anchor="middle" class="subtitle-text">Workflow Scheduler for Hadoop &amp; IoT Data Pipelines</text>
    <line x1="50" y1="50" x2="750" y2="50" stroke="rgba(255,255,255,0.3)" stroke-width="2"/>
  </g>
  
  <!-- Step 1: What is Oozie -->
  <g class="step" id="step1" data-narration="Oozie orchestrates multi-step data processing pipelines, handling job dependencies and scheduling for large-scale analytics.">
    <rect x="40" y="65" width="720" height="90" fill="url(#blueGradient)" rx="10" filter="url(#shadow)"/>
    <text x="60" y="82" class="step-title">What is Apache Oozie?</text>
    <text x="60" y="100" class="step-body">A server-based workflow scheduling system that manages Apache Hadoop jobs.</text>
    <text x="60" y="116" class="step-body">Workflows are collections of actions arranged in a control dependency DAG.</text>
    <text x="60" y="132" class="step-body">Used in IoT for: Data Ingestion → Cleaning → Transformation → Analysis → Reporting</text>
    <!-- Icon representation -->
    <circle cx="700" cy="110" r="25" fill="#1976d2" opacity="0.8"/>
    <text x="700" y="114" text-anchor="middle" fill="white" font-size="20" font-weight="bold">O</text>
  </g>
  
  <!-- Step 2: Key Characteristics -->
  <g class="step" id="step2" data-narration="Oozie provides workflow management, scheduling, Hadoop integration, scalability, and fault tolerance for data pipelines.">
    <rect x="40" y="165" width="720" height="90" fill="url(#greenGradient)" rx="10" filter="url(#shadow)"/>
    <text x="60" y="182" class="step-title">Key Characteristics</text>
    <!-- Characteristic cards -->
    <rect x="60" y="195" width="130" height="50" fill="white" rx="5"/>
    <text x="75" y="210" class="step-body-small" font-weight="bold">Workflow Mgmt</text>
    <text x="75" y="225" class="step-body-small">Multi-step pipelines</text>
    
    <rect x="200" y="195" width="130" height="50" fill="white" rx="5"/>
    <text x="215" y="210" class="step-body-small" font-weight="bold">Scheduling</text>
    <text x="215" y="225" class="step-body-small">Time &amp; data triggers</text>
    
    <rect x="340" y="195" width="130" height="50" fill="white" rx="5"/>
    <text x="355" y="210" class="step-body-small" font-weight="bold">Integration</text>
    <text x="355" y="225" class="step-body-small">MapReduce, Pig, Hive</text>
    
    <rect x="480" y="195" width="130" height="50" fill="white" rx="5"/>
    <text x="495" y="210" class="step-body-small" font-weight="bold">Scalability</text>
    <text x="495" y="225" class="step-body-small">Thousands of workflows</text>
    
    <rect x="620" y="195" width="130" height="50" fill="white" rx="5"/>
    <text x="635" y="210" class="step-body-small" font-weight="bold">Fault Tolerance</text>
    <text x="635" y="225" class="step-body-small">Auto retry &amp; recovery</text>
  </g>
  
  <!-- Step 3: Three Components -->
  <g class="step" id="step3" data-narration="Oozie has three main abstractions: Workflows for job sequences, Coordinators for scheduling, and Bundles for group management.">
    <rect x="40" y="265" width="720" height="90" fill="url(#purpleGradient)" rx="10" filter="url(#shadow)"/>
    <text x="60" y="282" class="step-title">Three Main Components</text>
    
    <!-- Workflow -->
    <rect x="60" y="295" width="210" height="50" fill="#7b1fa2" rx="8"/>
    <text x="165" y="315" text-anchor="middle" fill="white" font-weight="bold">Workflow</text>
    <text x="165" y="332" text-anchor="middle" fill="white" font-size="9">DAG of actions</text>
    
    <!-- Arrow 1 -->
    <path d="M280 320 L330 320" stroke="#7b1fa2" stroke-width="2" marker-end="url(#arrowBlue)"/>
    
    <!-- Coordinator -->
    <rect x="340" y="295" width="210" height="50" fill="#7b1fa2" rx="8"/>
    <text x="445" y="315" text-anchor="middle" fill="white" font-weight="bold">Coordinator</text>
    <text x="445" y="332" text-anchor="middle" fill="white" font-size="9">Time/Data scheduling</text>
    
    <!-- Arrow 2 -->
    <path d="M560 320 L610 320" stroke="#7b1fa2" stroke-width="2" marker-end="url(#arrowBlue)"/>
    
    <!-- Bundle -->
    <rect x="620" y="295" width="130" height="50" fill="#7b1fa2" rx="8"/>
    <text x="685" y="315" text-anchor="middle" fill="white" font-weight="bold">Bundle</text>
    <text x="685" y="332" text-anchor="middle" fill="white" font-size="9">Group coords</text>
  </g>
  
  <!-- Step 4: Workflow Structure -->
  <g class="step" id="step4" data-narration="A workflow is defined in XML with a start node, action nodes with ok/error transitions, kill node, and end node.">
    <rect x="40" y="365" width="720" height="100" fill="url(#tealGradient)" rx="10" filter="url(#shadow)"/>
    <text x="60" y="382" class="step-title">Oozie Workflow Structure</text>
    
    <!-- Simple workflow diagram -->
    <ellipse cx="100" cy="430" rx="30" ry="15" fill="#4caf50" stroke="#2e7d32" stroke-width="2"/>
    <text x="100" y="434" text-anchor="middle" fill="white" font-size="9" font-weight="bold">START</text>
    
    <path d="M130 430 L170 430" stroke="#333" stroke-width="2" marker-end="url(#arrowGreen)"/>
    
    <rect x="180" y="415" width="80" height="30" fill="#ff9800" rx="5"/>
    <text x="220" y="435" text-anchor="middle" fill="white" font-size="9" font-weight="bold">MapReduce</text>
    
    <path d="M260 430 L300 430" stroke="#333" stroke-width="2" marker-end="url(#arrowGreen)"/>
    
    <rect x="310" y="415" width="80" height="30" fill="#ff9800" rx="5"/>
    <text x="350" y="435" text-anchor="middle" fill="white" font-size="9" font-weight="bold">Pig Action</text>
    
    <path d="M390 430 L430 430" stroke="#333" stroke-width="2" marker-end="url(#arrowGreen)"/>
    
    <ellipse cx="470" cy="430" rx="30" ry="15" fill="#2196f3" stroke="#1565c0" stroke-width="2"/>
    <text x="470" y="434" text-anchor="middle" fill="white" font-size="9" font-weight="bold">END</text>
    
    <!-- Error path -->
    <path d="M220 445 L220 475 L100 475 L100 455" stroke="#f44336" stroke-width="2" stroke-dasharray="4" marker-end="url(#arrowRed)"/>
    <rect x="170" y="480" width="100" height="25" fill="#f44336" rx="5"/>
    <text x="220" y="497" text-anchor="middle" fill="white" font-size="9">KILL (Error)</text>
    
    <!-- Code snippet -->
    <text x="530" y="400" class="code-text">&lt;start to="action1"/&gt;</text>
    <text x="530" y="415" class="code-text">&lt;action name="action1"&gt;</text>
    <text x="545" y="430" class="code-text">&lt;map-reduce&gt;...&lt;/&gt;</text>
    <text x="545" y="445" class="code-text">&lt;ok to="action2"/&gt;</text>
    <text x="545" y="460" class="code-text">&lt;error to="fail"/&gt;</text>
  </g>
  
  <!-- Step 5: Control Nodes -->
  <g class="step" id="step5" data-narration="Control nodes manage workflow execution flow: start, end, kill, decision, fork, and join nodes define the workflow structure.">
    <rect x="40" y="475" width="720" height="100" fill="url(#orangeGradient)" rx="10" filter="url(#shadow)"/>
    <text x="60" y="492" class="step-title">Control Nodes</text>
    
    <!-- Node boxes -->
    <rect x="60" y="505" width="90" height="55" fill="#4caf50" rx="5"/>
    <text x="105" y="522" text-anchor="middle" fill="white" font-weight="bold" font-size="10">START</text>
    <text x="105" y="540" text-anchor="middle" fill="white" font-size="8">Entry point</text>
    
    <rect x="160" y="505" width="90" height="55" fill="#2196f3" rx="5"/>
    <text x="205" y="522" text-anchor="middle" fill="white" font-weight="bold" font-size="10">END</text>
    <text x="205" y="540" text-anchor="middle" fill="white" font-size="8">Success end</text>
    
    <rect x="260" y="505" width="90" height="55" fill="#f44336" rx="5"/>
    <text x="305" y="522" text-anchor="middle" fill="white" font-weight="bold" font-size="10">KILL</text>
    <text x="305" y="540" text-anchor="middle" fill="white" font-size="8">Failure end</text>
    
    <rect x="360" y="505" width="90" height="55" fill="#9c27b0" rx="5"/>
    <text x="405" y="522" text-anchor="middle" fill="white" font-weight="bold" font-size="10">DECISION</text>
    <text x="405" y="540" text-anchor="middle" fill="white" font-size="8">Conditional</text>
    
    <rect x="460" y="505" width="90" height="55" fill="#00bcd4" rx="5"/>
    <text x="505" y="522" text-anchor="middle" fill="white" font-weight="bold" font-size="10">FORK</text>
    <text x="505" y="540" text-anchor="middle" fill="white" font-size="8">Parallel split</text>
    
    <rect x="560" y="505" width="90" height="55" fill="#009688" rx="5"/>
    <text x="605" y="522" text-anchor="middle" fill="white" font-weight="bold" font-size="10">JOIN</text>
    <text x="605" y="540" text-anchor="middle" fill="white" font-size="8">Parallel merge</text>
    
    <rect x="660" y="505" width="90" height="55" fill="#607d8b" rx="5"/>
    <text x="705" y="522" text-anchor="middle" fill="white" font-weight="bold" font-size="10">ACTION</text>
    <text x="705" y="540" text-anchor="middle" fill="white" font-size="8">Hadoop job</text>
  </g>
  
  <!-- Step 6: Action Nodes -->
  <g class="step" id="step6" data-narration="Action nodes execute Hadoop jobs: MapReduce, Pig, Hive, Sqoop, Shell, Java, and Spark integrate with Oozie workflows.">
    <rect x="40" y="585" width="720" height="100" fill="url(#yellowGradient)" rx="10" filter="url(#shadow)"/>
    <text x="60" y="602" class="step-title">Action Nodes - Hadoop Ecosystem Integration</text>
    
    <!-- Action boxes -->
    <rect x="60" y="615" width="95" height="60" fill="#e65100" rx="5"/>
    <text x="107" y="635" text-anchor="middle" fill="white" font-weight="bold" font-size="10">MapReduce</text>
    <text x="107" y="655" text-anchor="middle" fill="white" font-size="8">Batch processing</text>
    
    <rect x="165" y="615" width="95" height="60" fill="#e65100" rx="5"/>
    <text x="212" y="635" text-anchor="middle" fill="white" font-weight="bold" font-size="10">Pig</text>
    <text x="212" y="655" text-anchor="middle" fill="white" font-size="8">Scripting</text>
    
    <rect x="270" y="615" width="95" height="60" fill="#e65100" rx="5"/>
    <text x="317" y="635" text-anchor="middle" fill="white" font-weight="bold" font-size="10">Hive</text>
    <text x="317" y="655" text-anchor="middle" fill="white" font-size="8">SQL queries</text>
    
    <rect x="375" y="615" width="95" height="60" fill="#e65100" rx="5"/>
    <text x="422" y="635" text-anchor="middle" fill="white" font-weight="bold" font-size="10">Sqoop</text>
    <text x="422" y="655" text-anchor="middle" fill="white" font-size="8">DB/HDFS transfer</text>
    
    <rect x="480" y="615" width="95" height="60" fill="#e65100" rx="5"/>
    <text x="527" y="635" text-anchor="middle" fill="white" font-weight="bold" font-size="10">Shell</text>
    <text x="527" y="655" text-anchor="middle" fill="white" font-size="8">Custom scripts</text>
    
    <rect x="585" y="615" width="95" height="60" fill="#e65100" rx="5"/>
    <text x="632" y="635" text-anchor="middle" fill="white" font-weight="bold" font-size="10">Spark</text>
    <text x="632" y="655" text-anchor="middle" fill="white" font-size="8">In-memory compute</text>
    
    <rect x="690" y="615" width="60" height="60" fill="#e65100" rx="5"/>
    <text x="720" y="640" text-anchor="middle" fill="white" font-weight="bold" font-size="9">Java</text>
    <text x="720" y="660" text-anchor="middle" fill="white" font-size="7">Custom</text>
  </g>
  
  <!-- Step 7: Decision Nodes -->
  <g class="step" id="step7" data-narration="Decision nodes provide conditional branching using switch-case-default expressions for dynamic workflow paths based on conditions.">
    <rect x="40" y="695" width="720" height="100" fill="url(#purpleGradient)" rx="10" filter="url(#shadow)"/>
    <text x="60" y="712" class="step-title">Decision Nodes - Conditional Branching</text>
    
    <!-- Decision diagram -->
    <rect x="60" y="725" width="100" height="50" fill="#9c27b0" rx="8"/>
    <text x="110" y="745" text-anchor="middle" fill="white" font-weight="bold" font-size="10">DECISION</text>
    <text x="110" y="763" text-anchor="middle" fill="white" font-size="8">check-quality</text>
    
    <path d="M160 750 L190 750" stroke="#333" stroke-width="2" marker-end="url(#arrowBlue)"/>
    
    <rect x="200" y="725" width="100" height="50" fill="#4caf50" rx="8"/>
    <text x="250" y="745" text-anchor="middle" fill="white" font-weight="bold" font-size="9">High Quality</text>
    <text x="250" y="763" text-anchor="middle" fill="white" font-size="8">Advanced processing</text>
    
    <path d="M110 775 L110 800 L400 800" stroke="#333" stroke-width="2" marker-end="url(#arrowBlue)" fill="none"/>
    
    <!-- Switch code -->
    <rect x="350" y="720" width="400" height="65" fill="white" rx="5" stroke="#9c27b0" stroke-width="1"/>
    <text x="365" y="738" class="code-text">&lt;decision name="check-quality"&gt;</text>
    <text x="380" y="752" class="code-text">&lt;switch&gt;</text>
    <text x="395" y="766" class="code-text">&lt;case to="high-quality"&gt;${score gt 0.9}&lt;/case&gt;</text>
    <text x="395" y="780" class="code-text">&lt;default to="normal-processing"/&gt;</text>
    <text x="380" y="794" class="code-text">&lt;/switch&gt;</text>
  </g>
  
  <!-- Step 8: Fork and Join -->
  <g class="step" id="step8" data-narration="Fork nodes split execution into parallel paths, while join nodes synchronize all parallel branches before continuing the workflow.">
    <rect x="40" y="805" width="720" height="110" fill="url(#tealGradient)" rx="10" filter="url(#shadow)"/>
    <text x="60" y="822" class="step-title">Fork and Join - Parallel Execution</text>
    
    <!-- Fork diagram -->
    <rect x="60" y="835" width="70" height="35" fill="#00bcd4" rx="5"/>
    <text x="95" y="857" text-anchor="middle" fill="white" font-weight="bold" font-size="10">FORK</text>
    
    <!-- Parallel paths -->
    <path d="M130 852 L160 820" stroke="#333" stroke-width="2"/>
    <path d="M130 852 L160 852" stroke="#333" stroke-width="2"/>
    <path d="M130 852 L160 885" stroke="#333" stroke-width="2"/>
    
    <rect x="170" y="805" width="100" height="35" fill="#ff9800" rx="5"/>
    <text x="220" y="822" text-anchor="middle" fill="white" font-size="9">Temperature</text>
    <text x="220" y="835" text-anchor="middle" fill="white" font-size="8">MapReduce</text>
    
    <rect x="170" y="837" width="100" height="35" fill="#ff9800" rx="5"/>
    <text x="220" y="854" text-anchor="middle" fill="white" font-size="9">Pressure</text>
    <text x="220" y="867" text-anchor="middle" fill="white" font-size="8">MapReduce</text>
    
    <rect x="170" y="870" width="100" height="35" fill="#ff9800" rx="5"/>
    <text x="220" y="887" text-anchor="middle" fill="white" font-size="9">Humidity</text>
    <text x="220" y="900" text-anchor="middle" fill="white" font-size="8">MapReduce</text>
    
    <!-- Join -->
    <path d="M270 820 L300 820" stroke="#333" stroke-width="2"/>
    <path d="M270 852 L300 852" stroke="#333" stroke-width="2"/>
    <path d="M270 885 L300 885" stroke="#333" stroke-width="2"/>
    
    <rect x="310" y="835" width="70" height="35" fill="#009688" rx="5"/>
    <text x="345" y="857" text-anchor="middle" fill="white" font-weight="bold" font-size="10">JOIN</text>
    
    <path d="M380 852 L410 852" stroke="#333" stroke-width="2" marker-end="url(#arrowGreen)"/>
    
    <rect x="420" y="835" width="100" height="35" fill="#4caf50" rx="5"/>
    <text x="470" y="852" text-anchor="middle" fill="white" font-weight="bold" font-size="9">Consolidate</text>
    <text x="470" y="865" text-anchor="middle" fill="white" font-size="8">Results</text>
    
    <!-- Explanation -->
    <rect x="540" y="835" width="210" height="70" fill="white" rx="5"/>
    <text x="550" y="850" class="step-body-small" font-weight="bold">Fork:</text>
    <text x="550" y="865" class="step-body-small">Splits workflow into</text>
    <text x="550" y="878" class="step-body-small">parallel branches</text>
    <text x="550" y="893" class="step-body-small" font-weight="bold">Join:</text>
    <text x="550" y="908" class="step-body-small">Synchronizes all paths</text>
  </g>
  
  <!-- Step 9: Coordinator -->
  <g class="step" id="step9" data-narration="Coordinators schedule workflows based on time (cron-like) or data availability triggers for recurring job execution.">
    <rect x="40" y="925" width="720" height="110" fill="url(#blueGradient)" rx="10" filter="url(#shadow)"/>
    <text x="60" y="942" class="step-title">Oozie Coordinator - Time &amp; Data-Based Scheduling</text>
    
    <!-- Time-based -->
    <rect x="60" y="955" width="320" height="70" fill="white" rx="5" stroke="#1976d2" stroke-width="1"/>
    <text x="70" y="970" class="step-body-small" font-weight="bold" fill="#1976d2">Time-Based Scheduling</text>
    <text x="70" y="985" class="code-text">frequency="${coord:hours(1)}"</text>
    <text x="70" y="1000" class="code-text">start="2024-01-01T00:00Z"</text>
    <text x="70" y="1015" class="code-text">timezone="UTC"</text>
    
    <!-- Arrow -->
    <path d="M390 990 L430 990" stroke="#1976d2" stroke-width="2" marker-end="url(#arrowBlue)"/>
    
    <!-- Data-based -->
    <rect x="440" y="955" width="310" height="70" fill="white" rx="5" stroke="#388e3c" stroke-width="1"/>
    <text x="450" y="970" class="step-body-small" font-weight="bold" fill="#388e3c">Data-Availability Trigger</text>
    <text x="450" y="985" class="code-text">&lt;dataset name="sensor-data"&gt;</text>
    <text x="450" y="1000" class="code-text">&lt;uri-template&gt;/data/${YEAR}...&lt;/&gt;</text>
    <text x="450" y="1015" class="code-text">&lt;/dataset&gt;</text>
    
    <!-- Use cases -->
    <rect x="60" y="1035" width="690" height="30" fill="#e3f2fd" rx="5"/>
    <text x="70" y="1053" class="step-body-small">Use Cases: Daily sensor aggregation | Hourly anomaly detection | Real-time alert generation</text>
  </g>
  
  <!-- Step 10: Bundle -->
  <g class="step" id="step10" data-narration="Bundles group multiple coordinators for unified lifecycle management, enabling start/stop of related workflows together.">
    <rect x="40" y="1045" width="720" height="90" fill="url(#redGradient)" rx="10" filter="url(#shadow)"/>
    <text x="60" y="1062" class="step-title">Bundle - Group Multiple Coordinators</text>
    
    <!-- Bundle diagram -->
    <rect x="60" y="1075" width="120" height="50" fill="#c62828" rx="8"/>
    <text x="120" y="1095" text-anchor="middle" fill="white" font-weight="bold" font-size="11">BUNDLE</text>
    <text x="120" y="1113" text-anchor="middle" fill="white" font-size="9">iot-analytics</text>
    
    <path d="M180 1100 L220 1100" stroke="#c62828" stroke-width="2" marker-end="url(#arrowRed)"/>
    
    <!-- Coordinators -->
    <rect x="230" y="1075" width="150" height="40" fill="#7b1fa2" rx="5"/>
    <text x="305" y="1092" text-anchor="middle" fill="white" font-weight="bold" font-size="9">hourly-alerts</text>
    <text x="305" y="1107" text-anchor="middle" fill="white" font-size="8">Coord frequency: 1hr</text>
    
    <rect x="230" y="1120" width="150" height="40" fill="#7b1fa2" rx="5"/>
    <text x="305" y="1137" text-anchor="middle" fill="white" font-weight="bold" font-size="9">daily-reports</text>
    <text x="305" y="1152" text-anchor="middle" fill="white" font-size="8">Coord frequency: 1day</text>
    
    <rect x="390" y="1075" width="150" height="40" fill="#7b1fa2" rx="5"/>
    <text x="465" y="1092" text-anchor="middle" fill="white" font-weight="bold" font-size="9">weekly-trends</text>
    <text x="465" y="1107" text-anchor="middle" fill="white" font-size="8">Coord frequency: 1week</text>
    
    <rect x="390" y="1120" width="150" height="40" fill="#7b1fa2" rx="5"/>
    <text x="465" y="1137" text-anchor="middle" fill="white" font-weight="bold" font-size="9">monthly-backup</text>
    <text x="465" y="1152" text-anchor="middle" fill="white" font-size="8">Coord frequency: 1month</text>
    
    <!-- Benefits -->
    <rect x="550" y="1080" width="200" height="60" fill="white" rx="5"/>
    <text x="560" y="1095" class="step-body-small" font-weight="bold">Benefits:</text>
    <text x="560" y="1110" class="step-body-small">• Start/stop all together</text>
    <text x="560" y="1125" class="step-body-small">• Unified lifecycle mgmt</text>
    <text x="560" y="1140" class="step-body-small">• Group related pipelines</text>
  </g>
  
  <!-- Step 11: IoT Pipeline Example -->
  <g class="step" id="step11" data-narration="Real IoT pipelines include data ingestion, cleaning, parallel analysis, insights generation, and database export for reporting.">
    <rect x="40" y="1145" width="720" height="110" fill="url(#greenGradient)" rx="10" filter="url(#shadow)"/>
    <text x="60" y="1162" class="step-title">IoT Data Pipeline Example</text>
    
    <!-- Pipeline flow -->
    <rect x="60" y="1175" width="90" height="35" fill="#1976d2" rx="5"/>
    <text x="105" y="1192" text-anchor="middle" fill="white" font-size="9" font-weight="bold">Data Ingestion</text>
    <text x="105" y="1206" text-anchor="middle" fill="white" font-size="7">MapReduce</text>
    
    <path d="M150 1192 L180 1192" stroke="#333" stroke-width="2" marker-end="url(#arrowGreen)"/>
    
    <rect x="190" y="1175" width="90" height="35" fill="#e65100" rx="5"/>
    <text x="235" y="1192" text-anchor="middle" fill="white" font-size="9" font-weight="bold">Data Cleaning</text>
    <text x="235" y="1206" text-anchor="middle" fill="white" font-size="7">Pig</text>
    
    <path d="M280 1192 L310 1192" stroke="#333" stroke-width="2" marker-end="url(#arrowGreen)"/>
    
    <!-- Fork -->
    <rect x="320" y="1175" width="50" height="35" fill="#00bcd4" rx="5"/>
    <text x="345" y="1192" text-anchor="middle" fill="white" font-size="8" font-weight="bold">FORK</text>
    
    <!-- Parallel -->
    <path d="M370 1180 L400 1160" stroke="#333" stroke-width="1.5"/>
    <rect x="410" y="1150" width="80" height="30" fill="#ff9800" rx="4"/>
    <text x="450" y="1167" text-anchor="middle" fill="white" font-size="8">Temp</text>
    
    <path d="M370 1192 L400 1192" stroke="#333" stroke-width="1.5"/>
    <rect x="410" y="1180" width="80" height="30" fill="#ff9800" rx="4"/>
    <text x="450" y="1197" text-anchor="middle" fill="white" font-size="8">Pressure</text>
    
    <path d="M370 1205 L400 1225" stroke="#333" stroke-width="1.5"/>
    <rect x="410" y="1210" width="80" height="30" fill="#ff9800" rx="4"/>
    <text x="450" y="1227" text-anchor="middle" fill="white" font-size="8">Humidity</text>
    
    <!-- Join -->
    <path d="M490 1160 L520 1192" stroke="#333" stroke-width="1.5"/>
    <path d="M490 1192 L520 1192" stroke="#333" stroke-width="1.5"/>
    <path d="M490 1225 L520 1192" stroke="#333" stroke-width="1.5"/>
    <rect x="530" y="1175" width="50" height="35" fill="#009688" rx="5"/>
    <text x="555" y="1192" text-anchor="middle" fill="white" font-size="8" font-weight="bold">JOIN</text>
    
    <path d="M580 1192 L610 1192" stroke="#333" stroke-width="2" marker-end="url(#arrowGreen)"/>
    
    <rect x="620" y="1175" width="80" height="35" fill="#9c27b0" rx="5"/>
    <text x="660" y="1192" text-anchor="middle" fill="white" font-size="8" font-weight="bold">Hive</text>
    <text x="660" y="1206" text-anchor="middle" fill="white" font-size="7">Insights</text>
    
    <path d="M700 1192 L720 1192" stroke="#333" stroke-width="2" marker-end="url(#arrowGreen)"/>
    
    <rect x="370" y="1235" width="180" height="25" fill="#f44336" rx="4"/>
    <text x="460" y="1251" text-anchor="middle" fill="white" font-size="8">Sqoop Export to DB</text>
  </g>
  
  <!-- Step 12: CLI & Management -->
  <g class="step" id="step12" data-narration="Oozie provides command-line tools for submitting, monitoring, suspending, resuming, and killing workflow jobs.">
    <rect x="40" y="1265" width="720" height="100" fill="url(#orangeGradient)" rx="10" filter="url(#shadow)"/>
    <text x="60" y="1282" class="step-title">Oozie CLI &amp; Job Management</text>
    
    <!-- Commands -->
    <rect x="60" y="1295" width="320" height="60" fill="white" rx="5"/>
    <text x="70" y="1312" class="step-body-small" font-weight="bold">Submit &amp; Run</text>
    <text x="70" y="1328" class="code-text">oozie job -oozie http://localhost:11000/oozie -config job.properties -run</text>
    <text x="70" y="1345" class="code-text">oozie job -info &lt;job-id&gt; | -log &lt;job-id&gt; | -jobs</text>
    
    <rect x="390" y="1295" width="320" height="60" fill="white" rx="5"/>
    <text x="400" y="1312" class="step-body-small" font-weight="bold">Job Control</text>
    <text x="400" y="1328" class="code-text">-suspend &lt;id&gt; | -resume &lt;id&gt; | -kill &lt;id&gt;</text>
    <text x="400" y="1345" class="code-text">-rerun &lt;id&gt; (retry failed workflow)</text>
    
    <!-- Status indicators -->
    <circle cx="80" cy="1375" r="8" fill="#4caf50"/>
    <text x="95" y="1378" class="step-body-small">RUNNING</text>
    <circle cx="170" cy="1375" r="8" fill="#2196f3"/>
    <text x="185" y="1378" class="step-body-small">SUCCEEDED</text>
    <circle cx="280" cy="1375" r="8" fill="#f44336"/>
    <text x="295" y="1378" class="step-body-small">FAILED</text>
    <circle cx="370" cy="1375" r="8" fill="#ff9800"/>
    <text x="385" y="1378" class="step-body-small">SUSPENDED</text>
    <circle cx="480" cy="1375" r="8" fill="#9e9e9e"/>
    <text x="495" y="1378" class="step-body-small">KILLED</text>
  </g>
  
  <!-- Step 13: Advantages & Limitations -->
  <g class="step" id="step13" data-narration="Oozie offers workflow orchestration, scheduling, and fault tolerance, but has verbose XML configuration and a learning curve.">
    <rect x="40" y="1375" width="720" height="100" fill="url(#tealGradient)" rx="10" filter="url(#shadow)"/>
    <text x="60" y="1392" class="step-title">Advantages &amp; Limitations</text>
    
    <!-- Advantages -->
    <rect x="60" y="1405" width="340" height="60" fill="#e8f5e9" rx="5" stroke="#4caf50" stroke-width="1"/>
    <text x="70" y="1420" class="step-body-small" font-weight="bold" fill="#2e7d32">✓ Advantages</text>
    <text x="70" y="1435" class="step-body-small">• Workflow orchestration for complex pipelines</text>
    <text x="70" y="1450" class="step-body-small">• Time &amp; data-based scheduling</text>
    <text x="70" y="1465" class="step-body-small">• Native Hadoop ecosystem integration</text>
    
    <!-- Limitations -->
    <rect x="410" y="1405" width="340" height="60" fill="#ffebee" rx="5" stroke="#f44336" stroke-width="1"/>
    <text x="420" y="1420" class="step-body-small" font-weight="bold" fill="#c62828">✗ Limitations</text>
    <text x="420" y="1435" class="step-body-small">• Verbose XML configuration</text>
    <text x="420" y="1450" class="step-body-small">• Basic web UI compared to modern tools</text>
    <text x="420" y="1465" class="step-body-small">• Steep learning curve for debugging</text>
  </g>
  
  <!-- Step 14: Key Takeaways -->
  <g class="step" id="step14" data-narration="Key takeaways: Oozie manages Hadoop workflows through Workflows (DAGs), Coordinators (scheduling), and Bundles (grouping).">
    <rect x="40" y="1485" width="720" height="80" fill="url(#titleGradient)" rx="10" filter="url(#shadow)"/>
    <text x="400" y="1510" text-anchor="middle" class="title-text" fill="white" font-size="16">Key Takeaways for Exams</text>
    
    <!-- Summary points -->
    <text x="80" y="1535" class="step-body" fill="white">1. Workflow: DAG of actions with ok/error paths</text>
    <text x="80" y="1550" class="step-body" fill="white">2. Control Nodes: start, end, kill, decision, fork, join</text>
    <text x="350" y="1535" class="step-body" fill="white">3. Action Nodes: MR, Pig, Hive, Sqoop, Shell, Spark</text>
    <text x="350" y="1550" class="step-body" fill="white">4. Coordinator: time-based &amp; data-triggered scheduling</text>
    <text x="620" y="1535" class="step-body" fill="white">5. Bundle: groups multiple coordinators</text>
  </g>
  
  <!-- Step animations - SMIL for line drawing effects -->
  <g>
    <!-- Animated workflow path -->
    <path d="M100 430 L180 430" stroke="#4caf50" stroke-width="2" fill="none" stroke-dasharray="500" stroke-dashoffset="500">
      <animate attributeName="stroke-dashoffset" from="500" to="0" dur="1s" begin="0.5s" fill="freeze"/>
    </path>
    
    <!-- Animated fork paths -->
    <path d="M345 852 L370 820" stroke="#333" stroke-width="2" fill="none" stroke-dasharray="100" stroke-dashoffset="100">
      <animate attributeName="stroke-dashoffset" from="100" to="0" dur="0.8s" begin="1s" fill="freeze"/>
    </path>
    <path d="M345 852 L370 885" stroke="#333" stroke-width="2" fill="none" stroke-dasharray="100" stroke-dashoffset="100">
      <animate attributeName="stroke-dashoffset" from="100" to="0" dur="0.8s" begin="1.2s" fill="freeze"/>
    </path>
  </g>
</svg>