<svg xmlns="http://www.w3.org/2000/svg" viewBox="0 0 800 1500">
  <defs>
    <linearGradient id="titleGrad" x1="0%" y1="0%" x2="100%" y2="100%">
      <stop offset="0%" stop-color="#1976d2"/>
      <stop offset="100%" stop-color="#1565c0"/>
    </linearGradient>
    <linearGradient id="errorGrad" x1="0%" y1="0%" x2="100%" y2="100%">
      <stop offset="0%" stop-color="#ffebee"/>
      <stop offset="100%" stop-color="#ffcdd2"/>
    </linearGradient>
    <linearGradient id="exceptionGrad" x1="0%" y1="0%" x2="100%" y2="100%">
      <stop offset="0%" stop-color="#e3f2fd"/>
      <stop offset="100%" stop-color="#bbdefb"/>
    </linearGradient>
    <linearGradient id="checkedGrad" x1="0%" y1="0%" x2="100%" y2="100%">
      <stop offset="0%" stop-color="#e8f5e9"/>
      <stop offset="100%" stop-color="#c8e6c9"/>
    </linearGradient>
    <linearGradient id="uncheckedGrad" x1="0%" y1="0%" x2="100%" y2="100%">
      <stop offset="0%" stop-color="#fff3e0"/>
      <stop offset="100%" stop-color="#ffe0b2"/>
    </linearGradient>
    <linearGradient id="runtimeGrad" x1="0%" y1="0%" x2="100%" y2="100%">
      <stop offset="0%" stop-color="#f3e5f5"/>
      <stop offset="100%" stop-color="#e1bee7"/>
    </linearGradient>
    <linearGradient id="summaryGrad" x1="0%" y1="0%" x2="100%" y2="100%">
      <stop offset="0%" stop-color="#e0f7fa"/>
      <stop offset="100%" stop-color="#b2ebf2"/>
    </linearGradient>
    <filter id="shadow" x="-20%" y="-20%" width="140%" height="140%">
      <feDropShadow dx="2" dy="3" stdDeviation="3" flood-opacity="0.2"/>
    </filter>
    <marker id="arrowBlue" markerWidth="10" markerHeight="10" refX="9" refY="3" orient="auto">
      <path d="M0,0 L0,6 L9,3 z" fill="#1976d2"/>
    </marker>
    <marker id="arrowRed" markerWidth="10" markerHeight="10" refX="9" refY="3" orient="auto">
      <path d="M0,0 L0,6 L9,3 z" fill="#f44336"/>
    </marker>
    <marker id="arrowGreen" markerWidth="10" markerHeight="10" refX="9" refY="3" orient="auto">
      <path d="M0,0 L0,6 L9,3 z" fill="#388e3c"/>
    </marker>
    <marker id="arrowOrange" markerWidth="10" markerHeight="10" refX="9" refY="3" orient="auto">
      <path d="M0,0 L0,6 L9,3 z" fill="#ff9800"/>
    </marker>
  </defs>
  
  <style>
    @keyframes fadeInSlide {
      from { opacity: 0; transform: translateY(20px); }
      to { opacity: 1; transform: translateY(0); }
    }
    @keyframes scaleIn {
      from { opacity: 0; transform: scale(0.85); }
      to { opacity: 1; transform: scale(1); }
    }
    @keyframes textReveal {
      from { opacity: 0; transform: translateX(-10px); }
      to { opacity: 1; transform: translateX(0); }
    }
    @keyframes pulse {
      0%, 100% { transform: scale(1); }
      50% { transform: scale(1.03); }
    }
    @keyframes drawLine {
      from { stroke-dashoffset: 1000; }
      to { stroke-dashoffset: 0; }
    }
    @keyframes growHeight {
      from { transform: scaleY(0); transform-origin: top; }
      to { transform: scaleY(1); transform-origin: top; }
    }
    .step { animation: fadeInSlide 0.6s ease-out; }
    .step rect {
      animation: scaleIn 0.5s cubic-bezier(0.34, 1.56, 0.64, 1);
      transform-origin: center;
    }
    .step text { animation: textReveal 0.4s ease-out 0.2s backwards; }
    .title-text { font-size: 28px; font-weight: bold; fill: white; }
    .subtitle-text { font-size: 14px; fill: #546e7a; }
    .section-text { font-size: 12px; fill: #37474f; font-weight: 600; }
    .body-text { font-size: 11px; fill: #37474f; }
    .code-text { font-size: 10px; fill: #263238; font-family: monospace; }
    .label-text { font-size: 10px; fill: #1976d2; font-weight: 600; }
    .arrow-line { stroke-dasharray: 1000; animation: drawLine 1s ease-out forwards; }
    .hierarchy-line { stroke-dasharray: 200; animation: drawLine 0.8s ease-out forwards; }
  </style>
  
  <rect width="800" height="1500" fill="#f8f9fa"/>
  
  <!-- Step 0: Title -->
  <g class="step" id="step0" data-narration="Welcome to Exception Types in Java. We'll explore the complete exception hierarchy and learn to handle errors effectively.">
    <rect x="0" y="0" width="800" height="55" fill="url(#titleGrad)" rx="0"/>
    <text x="400" y="35" text-anchor="middle" class="title-text">Exception Types in Java</text>
    <text x="400" y="48" text-anchor="middle" font-size="11" fill="#e3f2fd">Understanding Error Handling in Java Programming</text>
  </g>
  
  <!-- Step 1: What are Exceptions -->
  <g class="step" id="step1" data-narration="Exceptions are events that disrupt program flow. They occur during execution and must be handled to prevent program crashes.">
    <rect x="20" y="65" width="760" height="85" fill="white" rx="8" filter="url(#shadow)"/>
    <text x="40" y="85" class="label-text" fill="#1976d2">What are Exceptions?</text>
    <text x="40" y="105" class="body-text">Exceptions are events that occur during program execution, disrupting the normal flow.</text>
    <text x="40" y="122" class="body-text">They can be caught and handled to prevent program termination.</text>
    <rect x="500" y="75" width="260" height="65" fill="#e3f2fd" rx="6"/>
    <text x="510" y="95" class="code-text" fill="#1565c0">try {"</text>
    <text x="520" y="110" class="code-text" fill="#1565c0">  // Risky code</text>
    <text x="520" y="125" class="code-text" fill="#1565c0">} catch (Exception e) {</text>
    <text x="530" y="140" class="code-text" fill="#1565c0">  // Handle it</text>
    <text x="510" y="152" class="code-text" fill="#1565c0">}</text>
  </g>
  
  <!-- Step 2: Throwable Hierarchy -->
  <g class="step" id="step2" data-narration="The Throwable class is the root. It branches into Error for JVM problems and Exception for program exceptions.">
    <rect x="20" y="160" width="760" height="95" fill="white" rx="8" filter="url(#shadow)"/>
    <text x="40" y="180" class="label-text" fill="#1976d2">Throwable Hierarchy - Root of All Exceptions</text>
    
    <!-- Root Throwable -->
    <rect x="330" y="195" width="140" height="35" fill="#37474f" rx="6"/>
    <text x="400" y="218" text-anchor="middle" fill="white" font-weight="bold" font-size="12">Throwable</text>
    
    <!-- Arrows -->
    <path d="M400,230 L400,250 L260,250 L260,270" class="hierarchy-line" stroke="#546e7a" stroke-width="2" fill="none" marker-end="url(#arrowBlue)"/>
    <path d="M400,230 L540,250 L540,270" class="hierarchy-line" stroke="#546e7a" stroke-width="2" fill="none" marker-end="url(#arrowBlue)"/>
    
    <!-- Error branch -->
    <rect x="180" y="270" width="160" height="35" fill="#f44336" rx="6"/>
    <text x="260" y="293" text-anchor="middle" fill="white" font-weight="bold" font-size="12">Error (unchecked)</text>
    
    <!-- Exception branch -->
    <rect x="460" y="270" width="160" height="35" fill="#388e3c" rx="6"/>
    <text x="540" y="293" text-anchor="middle" fill="white" font-weight="bold" font-size="12">Exception</text>
  </g>
  
  <!-- Step 3: Error Class -->
  <g class="step" id="step3" data-narration="Error represents serious JVM problems like OutOfMemoryError and StackOverflowError. These should generally not be caught.">
    <rect x="20" y="265" width="760" height="90" fill="white" rx="8" filter="url(#shadow)"/>
    <rect x="20" y="265" width="5" height="90" fill="#f44336" rx="2"/>
    <text x="40" y="285" class="label-text" fill="#f44336">Error Class - JVM Level Problems</text>
    <text x="40" y="305" class="body-text">Serious problems that applications should not catch. They indicate JVM issues.</text>
    <text x="40" y="320" class="body-text">Examples:</text>
    
    <rect x="40" y="330" width="200" height="18" fill="#ffebee" rx="4"/>
    <text x="50" y="344" class="code-text" fill="#c62828">OutOfMemoryError</text>
    
    <rect x="250" y="330" width="200" height="18" fill="#ffebee" rx="4"/>
    <text x="260" y="344" class="code-text" fill="#c62828">StackOverflowError</text>
    
    <rect x="580" y="285" width="180" height="60" fill="#f44336" opacity="0.1" rx="6"/>
    <text x="590" y="305" class="section-text" fill="#f44336">DO NOT CATCH</text>
    <text x="590" y="320" class="body-text">Let the JVM handle</text>
    <text x="590" y="335" class="body-text">these errors</text>
  </g>
  
  <!-- Step 4: Error Example -->
  <g class="step" id="step4" data-narration="StackOverflowError happens with infinite recursion when the call stack exceeds its limit.">
    <rect x="20" y="365" width="760" height="75" fill="white" rx="8" filter="url(#shadow)"/>
    <text x="40" y="385" class="label-text" fill="#1976d2">Example: StackOverflowError (Infinite Recursion)</text>
    <rect x="40" y="400" width="350" height="30" fill="#f5f5f5" rx="4"/>
    <text x="50" y="418" class="code-text" fill="#263238">void infinite() {"</text>
    <text x="70" y="432" class="code-text" fill="#263238">    infinite(); // Keeps calling itself</text>
    <text x="50" y="446" class="code-text" fill="#263238">}</text>
    
    <path d="M420,420 L500,420 L500,450 L560,450" stroke="#f44336" stroke-width="2" fill="none" stroke-dasharray="5,3"/>
    <text x="570" y="455" class="body-text" fill="#f44336">Call Stack Overflow!</text>
  </g>
  
  <!-- Step 5: Exception Overview -->
  <g class="step" id="step5" data-narration="The Exception class is the base for all program exceptions. It has two main types: checked and unchecked.">
    <rect x="20" y="450" width="760" height="85" fill="white" rx="8" filter="url(#shadow)"/>
    <rect x="20" y="450" width="5" height="85" fill="#388e3c" rx="2"/>
    <text x="40" y="470" class="label-text" fill="#388e3c">Exception Class - Program Exceptions</text>
    <text x="40" y="490" class="body-text">Base class for all exceptions that programs can handle.</text>
    <text x="40" y="505" class="body-text">Divided into two categories:</text>
    
    <!-- Two branches -->
    <rect x="40" y="515" width="340" height="12" fill="#388e3c" rx="3" opacity="0.2"/>
    <text x="45" y="524" class="section-text" fill="#388e3c">Checked Exceptions (must handle)</text>
    
    <rect x="400" y="515" width="340" height="12" fill="#ff9800" rx="3" opacity="0.2"/>
    <text x="405" y="524" class="section-text" fill="#ff9800">Unchecked Exceptions (RuntimeException)</text>
  </g>
  
  <!-- Step 6: Checked Exceptions -->
  <g class="step" id="step6" data-narration="Checked exceptions are enforced by the compiler. You must handle them with try-catch or declare them with throws.">
    <rect x="20" y="545" width="760" height="95" fill="white" rx="8" filter="url(#shadow)"/>
    <rect x="20" y="545" width="5" height="95" fill="#388e3c" rx="2"/>
    <text x="40" y="565" class="label-text" fill="#388e3c">Checked Exceptions</text>
    <text x="40" y="585" class="body-text">Enforced by compiler. Must be handled (try-catch) or declared (throws).</text>
    <text x="40" y="600" class="body-text">Common Examples:</text>
    
    <rect x="40" y="610" width="210" height="22" fill="#e8f5e9" rx="4"/>
    <text x="50" y="626" class="code-text" fill="#2e7d32">IOException</text>
    
    <rect x="260" y="610" width="210" height="22" fill="#e8f5e9" rx="4"/>
    <text x="270" y="626" class="code-text" fill="#2e7d32">SQLException</text>
    
    <rect x="480" y="610" width="280" height="22" fill="#e8f5e9" rx="4"/>
    <text x="490" y="626" class="code-text" fill="#2e7d32">ClassNotFoundException</text>
  </g>
  
  <!-- Step 7: Checked Exception Handling -->
  <g class="step" id="step7" data-narration="Here's how to handle checked exceptions with try-catch blocks. The compiler ensures these are properly handled.">
    <rect x="20" y="650" width="760" height="100" fill="white" rx="8" filter="url(#shadow)"/>
    <text x="40" y="670" class="label-text" fill="#1976d2">Handling Checked Exceptions</text>
    <text x="40" y="690" class="body-text">Try-catch block handles the exception:</text>
    
    <rect x="40" y="700" width="330" height="42" fill="#f5f5f5" rx="4"/>
    <text x="50" y="718" class="code-text" fill="#263238">try {"</text>
    <text x="60" y="732" class="code-text" fill="#263238">    FileInputStream fis = new FileInputStream("file.txt");</text>
    <text x="50" y="746" class="code-text" fill="#263238">} catch (IOException e) {</text>
    <text x="60" y="760" class="code-text" fill="#263238">    System.out.println("Error: " + e.getMessage());</text>
    <text x="50" y="772" class="code-text" fill="#263238">}</text>
    
    <!-- Alternative: throws -->
    <rect x="390" y="700" width="370" height="42" fill="#e3f2fd" rx="4"/>
    <text x="400" y="718" class="code-text" fill="#1565c0">// Or declare with throws</text>
    <text x="400" y="732" class="code-text" fill="#1565c0">void readFile() throws IOException {"</text>
    <text x="420" y="746" class="code-text" fill="#1565c0">    // File operations</text>
    <text x="400" y="760" class="code-text" fill="#1565c0">}</text>
  </g>
  
  <!-- Step 8: Unchecked Exceptions -->
  <g class="step" id="step8" data-narration="Unchecked exceptions (RuntimeException) are not checked by the compiler. They're usually programming bugs.">
    <rect x="20" y="760" width="760" height="90" fill="white" rx="8" filter="url(#shadow)"/>
    <rect x="20" y="760" width="5" height="90" fill="#ff9800" rx="2"/>
    <text x="40" y="780" class="label-text" fill="#ff9800">Unchecked Exceptions (RuntimeException)</text>
    <text x="40" y="800" class="body-text">NOT enforced by compiler. Usually programming bugs that should be fixed.</text>
    <text x="40" y="815" class="body-text">Common Examples:</text>
    
    <rect x="40" y="825" width="220" height="18" fill="#fff3e0" rx="4"/>
    <text x="50" y="839" class="code-text" fill="#e65100">NullPointerException</text>
    
    <rect x="270" y="825" width="220" height="18" fill="#fff3e0" rx="4"/>
    <text x="280" y="839" class="code-text" fill="#e65100">ArithmeticException</text>
    
    <rect x="500" y="825" width="260" height="18" fill="#fff3e0" rx="4"/>
    <text x="510" y="839" class="code-text" fill="#e65100">ArrayIndexOutOfBoundsException</text>
  </g>
  
  <!-- Step 9: NullPointerException -->
  <g class="step" id="step9" data-narration="NullPointerException occurs when you try to use a null reference. It's a common programming bug to fix.">
    <rect x="20" y="860" width="760" height="85" fill="white" rx="8" filter="url(#shadow)"/>
    <text x="40" y="880" class="label-text" fill="#1976d2">Example: NullPointerException</text>
    <text x="40" y="900" class="body-text">Occurs when accessing methods/fields on a null reference:</text>
    
    <rect x="40" y="915" width="320" height="22" fill="#f5f5f5" rx="4"/>
    <text x="50" y="931" class="code-text" fill="#263238">String s = null;</text>
    <text x="140" y="931" fill="#f44336" font-size="10">// s is null</text>
    
    <rect x="40" y="940" width="320" height="22" fill="#f5f5f5" rx="4"/>
    <text x="50" y="956" class="code-text" fill="#263238">s.length(); // NullPointerException!</text>
    
    <rect x="580" y="880" width="180" height="55" fill="#ffebee" rx="6"/>
    <text x="590" y="905" class="body-text" fill="#c62828" font-weight="bold">FIX:</text>
    <text x="590" y="922" class="code-text" fill="#c62828">Check for null</text>
    <text x="590" y="937" class="code-text" fill="#c62828">before using</text>
  </g>
  
  <!-- Step 10: ArithmeticException -->
  <g class="step" id="step10" data-narration="ArithmeticException happens on invalid arithmetic like division by zero. It's a bug to fix, not handle.">
    <rect x="20" y="955" width="760" height="85" fill="white" rx="8" filter="url(#shadow)"/>
    <text x="40" y="975" class="label-text" fill="#1976d2">Example: ArithmeticException</text>
    <text x="40" y="995" class="body-text">Division by zero causes this:</text>
    
    <rect x="40" y="1010" width="300" height="22" fill="#f5f5f5" rx="4"/>
    <text x="50" y="1026" class="code-text" fill="#263238">int x = 10 / 0; // ArithmeticException</text>
    
    <rect x="40" y="1035" width="300" height="22" fill="#f5f5f5" rx="4"/>
    <text x="50" y="1051" class="code-text" fill="#263238">int y = 5 % 0; // Also ArithmeticException</text>
    
    <rect x="580" y="975" width="180" height="55" fill="#ffebee" rx="6"/>
    <text x="590" y="1000" class="body-text" fill="#c62828" font-weight="bold">FIX:</text>
    <text x="590" y="1017" class="code-text" fill="#c62828">Check divisor != 0</text>
    <text x="590" y="1032" class="code-text" fill="#c62828">before dividing</text>
  </g>
  
  <!-- Step 11: ArrayIndexOutOfBoundsException -->
  <g class="step" id="step11" data-narration="ArrayIndexOutOfBoundsException occurs when accessing an invalid array index. Always check array bounds.">
    <rect x="20" y="1050" width="760" height="85" fill="white" rx="8" filter="url(#shadow)"/>
    <text x="40" y="1070" class="label-text" fill="#1976d2">Example: ArrayIndexOutOfBoundsException</text>
    <text x="40" y="1090" class="body-text">Accessing array beyond its size:</text>
    
    <rect x="40" y="1105" width="280" height="22" fill="#f5f5f5" rx="4"/>
    <text x="50" y="1121" class="code-text" fill="#263238">int[] a = {1, 2, 3}; // size = 3</text>
    
    <rect x="40" y="1130" width="280" height="22" fill="#f5f5f5" rx="4"/>
    <text x="50" y="1146" class="code-text" fill="#263238">a[5] = 10; // ArrayIndexOutOfBounds!</text>
    
    <rect x="580" y="1070" width="180" height="55" fill="#ffebee" rx="6"/>
    <text x="590" y="1095" class="body-text" fill="#c62828" font-weight="bold">FIX:</text>
    <text x="590" y="1112" class="code-text" fill="#c62828">Use a.length</text>
    <text x="590" y="1127" class="code-text" fill="#c62828">to check bounds</text>
  </g>
  
  <!-- Step 12: RuntimeException Subclasses -->
  <g class="step" id="step12" data-narration="RuntimeException has many subclasses. ClassCastException and NumberFormatException are also unchecked.">
    <rect x="20" y="1145" width="760" height="80" fill="white" rx="8" filter="url(#shadow)"/>
    <text x="40" y="1165" class="label-text" fill="#9c27b0">More RuntimeException Subclasses</text>
    <text x="40" y="1185" class="body-text">These are also unchecked exceptions:</text>
    
    <rect x="40" y="1195" width="230" height="18" fill="#f3e5f5" rx="4"/>
    <text x="50" y="1209" class="code-text" fill="#6a1b9a">ClassCastException</text>
    
    <rect x="280" y="1195" width="230" height="18" fill="#f3e5f5" rx="4"/>
    <text x="290" y="1209" class="code-text" fill="#6a1b9a">NumberFormatException</text>
    
    <rect x="520" y="1195" width="240" height="18" fill="#f3e5f5" rx="4"/>
    <text x="530" y="1209" class="code-text" fill="#6a1b9a">IllegalArgumentException</text>
  </g>
  
  <!-- Step 13: Comparison Table -->
  <g class="step" id="step13" data-narration="Compare checked vs unchecked: compiler enforcement and handling requirements differ. Key for exam success.">
    <rect x="20" y="1235" width="760" height="100" fill="white" rx="8" filter="url(#shadow)"/>
    <text x="40" y="1255" class="label-text" fill="#1976d2">Comparison: Checked vs Unchecked Exceptions</text>
    
    <!-- Table Header -->
    <rect x="40" y="1270" width="200" height="25" fill="#e3f2fd" rx="4"/>
    <text x="140" y="1288" text-anchor="middle" class="section-text" fill="#1976d2">Feature</text>
    
    <rect x="240" y="1270" width="270" height="25" fill="#e8f5e9" rx="4"/>
    <text x="375" y="1288" text-anchor="middle" class="section-text" fill="#388e3c">Checked</text>
    
    <rect x="510" y="1270" width="270" height="25" fill="#fff3e0" rx="4"/>
    <text x="645" y="1288" text-anchor="middle" class="section-text" fill="#ff9800">Unchecked</text>
    
    <!-- Row 1 -->
    <rect x="40" y="1295" width="200" height="20" fill="#f5f5f5" rx="3"/>
    <text x="140" y="1310" text-anchor="middle" class="body-text">Compiler Check</text>
    <rect x="240" y="1295" width="270" height="20" fill="#e8f5e9" rx="3"/>
    <text x="375" y="1310" text-anchor="middle" class="body-text" fill="#2e7d32">Yes</text>
    <rect x="510" y="1295" width="270" height="20" fill="#fff3e0" rx="3"/>
    <text x="645" y="1310" text-anchor="middle" class="body-text" fill="#e65100">No</text>
    
    <!-- Row 2 -->
    <rect x="40" y="1315" width="200" height="20" fill="#f5f5f5" rx="3"/>
    <text x="140" y="1330" text-anchor="middle" class="body-text">Must Handle</text>
    <rect x="240" y="1315" width="270" height="20" fill="#e8f5e9" rx="3"/>
    <text x="375" y="1330" text-anchor="middle" class="body-text" fill="#2e7d32">Yes (try-catch)</text>
    <rect x="510" y="1315" width="270" height="20" fill="#fff3e0" rx="3"/>
    <text x="645" y="1330" text-anchor="middle" class="body-text" fill="#e65100">Not required</text>
  </g>
  
  <!-- Step 14: Key Takeaways -->
  <g class="step" id="step14" data-narration="Remember: Throwable is root, Error is unchecked, Exception has checked and unchecked types. Checked must be handled.">
    <rect x="20" y="1345" width="760" height="80" fill="white" rx="8" filter="url(#shadow)"/>
    <text x="40" y="1365" class="label-text" fill="#1976d2">Key Takeaways</text>
    
    <rect x="40" y="1380" width="160" height="35" fill="#e3f2fd" rx="4"/>
    <text x="50" y="1395" class="body-text" fill="#1565c0" font-weight="600">Throwable</text>
    <text x="50" y="1410" class="body-text" fill="#1565c0">Root class</text>
    
    <rect x="210" y="1380" width="160" height="35" fill="#ffebee" rx="4"/>
    <text x="220" y="1395" class="body-text" fill="#c62828" font-weight="600">Error</text>
    <text x="220" y="1410" class="body-text" fill="#c62828">Don't catch</text>
    
    <rect x="380" y="1380" width="160" height="35" fill="#e8f5e9" rx="4"/>
    <text x="390" y="1395" class="body-text" fill="#2e7d32" font-weight="600">Checked</text>
    <text x="390" y="1410" class="body-text" fill="#2e7d32">Must handle</text>
    
    <rect x="550" y="1380" width="160" height="35" fill="#fff3e0" rx="4"/>
    <text x="560" y="1395" class="body-text" fill="#e65100" font-weight="600">Unchecked</text>
    <text x="560" y="1410" class="body-text" fill="#e65100">Fix bugs</text>
  </g>
  
  <!-- Step 15: Exam Tips -->
  <g class="step" id="step15" data-narration="For exams, focus on the hierarchy and know which exceptions are checked versus unchecked. Practice identifying exception types in code.">
    <rect x="20" y="1435" width="760" height="55" fill="#e0f7fa" rx="8" filter="url(#shadow)"/>
    <text x="40" y="1455" class="label-text" fill="#00838f">Exam Tips</text>
    <text x="40" y="1475" class="body-text" fill="#006064">Focus on the hierarchy and difference between checked and unchecked exceptions. Identify common exceptions in code.</text>
    <text x="650" y="1475" text-anchor="end" class="body-text" fill="#006064" font-weight="bold">Study Hard!</text>
  </g>
</svg>