<svg xmlns="http://www.w3.org/2000/svg" width="420" height="400" data-topic-id="blockchain-technology-4-1-introduction-to-blockchain" viewBox="0 0 420 400">
  <defs>
    <linearGradient id="pastel-gradient" x1="0%" y1="0%" x2="100%" y2="0%">
      <stop offset="0%" stop-color="#ADD8E6" stop-opacity="1"/>
      <stop offset="100%" stop-color="#C7E5F5" stop-opacity="1"/>
    </linearGradient>
    <style>
      .node {
        stroke: #2E4053;
        stroke-width: 2;
        fill: #ADD8E6;
      }
      .link {
        stroke: #2E4053;
        stroke-width: 2;
        stroke-dasharray: 5,5;
      }
    </style>
  </defs>
  <rect x="10" y="10" width="400" height="380" style="fill: url(#pastel-gradient)"/>
  <title>Chapter 4: Blockchain Technology</title>
  <text x="10" y="50" text-anchor="middle" font-size="24" fill="#2E4053">Introduction to Blockchain</text>
  <text x="10" y="140" text-anchor="start" font-size="18" fill="#2E4053">Definition</text>
  <rect x="20" y="150" width="350" height="50" style="fill:#F7F7F7"/>
  <text x="30" y="170" text-anchor="start" font-size="18" fill="#2E4053">Blockchain is a distributed digital ledger technology that enables secure, transparent, and tamper-proof record-keeping.</text>
  <animateTransform attributeName="transform" type="rotate" from="0" to="360" dur="1000" begin="0s"/>
  <animateTransform attributeName="transform" type="rotate" from="0" to="360" dur="1000" begin="200s"/>
  <animateTransform attributeName="transform" type="rotate" from="0" to="360" dur="1000" begin="400s"/>
  <animateTransform attributeName="transform" type="rotate" from="0" to="360" dur="1000" begin="600s"/>
  <rect x="20" y="220" width="350" height="50" style="fill:#F7F7F7"/>
  <text x="30" y="240" text-anchor="start" font-size="18" fill="#2E4053">Characteristics</text>
  <g>
    <circle cx="150" cy="240" r="10" fill="#2E4053"/>
    <text x="150" y="250" text-anchor="middle" font-size="18" fill="#2E4053">Decentralized</text>
    <line x1="130" y1="240" x2="170" y2="240" style="stroke:#2E4053;stroke-width:2"/>
  </g>
  <g>
    <circle cx="250" cy="240" r="10" fill="#2E4053"/>
    <text x="250" y="250" text-anchor="middle" font-size="18" fill="#2E4053">Distributed</text>
    <line x1="240" y1="240" x2="260" y2="240" style="stroke:#2E4053;stroke-width:2"/>
  </g>
  <g>
    <circle cx="350" cy="240" r="10" fill="#2E4053"/>
    <text x="350" y="250" text-anchor="middle" font-size="18" fill="#2E4053">Immutable</text>
    <line x1="340" y1="240" x2="360" y2="240" style="stroke:#2E4053;stroke-width:2"/>
  </g>
  <rect x="20" y="310" width="350" height="50" style="fill:#F7F7F7"/>
  <text x="30" y="330" text-anchor="start" font-size="18" fill="#2E4053">Network</text>
  <g>
    <circle cx="150" cy="310" r="10" fill="#2E4053"/>
    <text x="150" y="320" text-anchor="middle" font-size="18" fill="#2E4053">Nodes</text>
    <line x1="140" y1="310" x2="160" y2="310" style="stroke:#2E4053;stroke-width:2"/>
  </g>
  <g>
    <circle cx="250" cy="310" r="10" fill="#2E4053"/>
    <text x="250" y="320" text-anchor="middle" font-size="18" fill="#2E4053">Transactions</text>
    <line x1="240" y1="310" x2="260" y2="310" style="stroke:#2E4053;stroke-width:2"/>
  </g>
  <g>
    <circle cx="350" cy="310" r="10" fill="#2E4053"/>
    <text x="350" y="320" text-anchor="middle" font-size="18" fill="#2E4053">Blocks</text>
    <line x1="340" y1="310" x2="360" y2="310" style="stroke:#2E4053;stroke-width:2"/>
  </g>
  <rect x="20" y="390" width="350" height="50" style="fill:#F7F7F7"/>
  <text x="30" y="410" text-anchor="start" font-size="18" fill="#2E4053">Footer</text>
  <g>
    <text x="10" y="410" text-anchor="start" font-size="18" fill="#2E4053">Chapter 4: Blockchain Technology</text>
  </g>
</svg>