<svg viewBox="0 0 800 1160" xmlns="http://www.w3.org/2000/svg">
  <defs>
    <linearGradient id="cpuGrad" x1="0%" y1="0%" x2="100%" y2="100%">
      <stop offset="0%" stop-color="#bbdefb"/>
      <stop offset="100%" stop-color="#1976d2"/>
    </linearGradient>
    <linearGradient id="memGrad" x1="0%" y1="0%" x2="100%" y2="100%">
      <stop offset="0%" stop-color="#c8e6c9"/>
      <stop offset="100%" stop-color="#388e3c"/>
    </linearGradient>
    <linearGradient id="regGrad" x1="0%" y1="0%" x2="100%" y2="100%">
      <stop offset="0%" stop-color="#ffe0b2"/>
      <stop offset="100%" stop-color="#ff9800"/>
    </linearGradient>
    <filter id="shadow" x="-20%" y="-20%" width="140%" height="140%">
      <feDropShadow dx="2" dy="2" stdDeviation="3" flood-opacity="0.3"/>
    </filter>
    <marker id="arrowBlue" markerWidth="10" markerHeight="10" refX="9" refY="3" orient="auto">
      <path d="M0,0 L0,6 L9,3 z" fill="#1976d2"/>
    </marker>
    <marker id="arrowGreen" markerWidth="10" markerHeight="10" refX="9" refY="3" orient="auto">
      <path d="M0,0 L0,6 L9,3 z" fill="#388e3c"/>
    </marker>
    <marker id="arrowOrange" markerWidth="10" markerHeight="10" refX="9" refY="3" orient="auto">
      <path d="M0,0 L0,6 L9,3 z" fill="#ff9800"/>
    </marker>
  </defs>
  <style>
    @keyframes fadeInSlide {
      from { opacity: 0; transform: translateY(20px); }
      to { opacity: 1; transform: translateY(0); }
    }
    @keyframes scaleIn {
      from { opacity: 0; transform: scale(0.85); }
      to { opacity: 1; transform: scale(1); }
    }
    @keyframes textReveal {
      from { opacity: 0; transform: translateX(-10px); }
      to { opacity: 1; transform: translateX(0); }
    }
    @keyframes pulse {
      0%, 100% { transform: scale(1); }
      50% { transform: scale(1.05); }
    }
    @keyframes drawLine {
      from { stroke-dashoffset: 300; }
      to { stroke-dashoffset: 0; }
    }
    @keyframes blink {
      0%, 100% { opacity: 1; }
      50% { opacity: 0.3; }
    }
    .step { animation: fadeInSlide 0.6s ease-out; }
    .step rect {
      animation: scaleIn 0.5s cubic-bezier(0.34, 1.56, 0.64, 1);
      transform-origin: center;
    }
    .step text { animation: textReveal 0.4s ease-out 0.2s backwards; }
    .bus-line {
      stroke-dasharray: 300;
      stroke-dashoffset: 300;
      animation: drawLine 1s ease-out forwards;
    }
    .blink-anim {
      animation: blink 1s ease-in-out infinite;
    }
  </style>
  <rect width="800" height="1160" fill="#f8f9fa"/>

  <!-- STEP 0: Title -->
  <g class="step" id="step0" data-narration="Welcome to learning how computers fetch data from memory, a fundamental operation in every computing device.">
    <rect x="10" y="10" width="780" height="45" rx="10" fill="url(#cpuGrad)" filter="url(#shadow)"/>
    <text x="400" y="42" text-anchor="middle" font-size="20" font-weight="bold" fill="#0d47a1">Fetching A Word From Memory</text>
  </g>

  <!-- STEP 1: Introduction - CPU & Memory -->
  <g class="step" id="step1" data-narration="The CPU and memory work together. The CPU computes while memory stores instructions and data needed for operations.">
    <rect x="20" y="65" width="760" height="85" rx="8" fill="white" filter="url(#shadow)"/>
    <rect x="20" y="65" width="760" height="25" rx="8" fill="#e3f2fd"/>
    <text x="30" y="82" font-size="12" font-weight="bold" fill="#1976d2">SECTION 1: Introduction</text>
    
    <rect x="50" y="105" width="120" height="35" rx="5" fill="url(#cpuGrad)"/>
    <text x="110" y="128" text-anchor="middle" font-size="12" font-weight="bold" fill="white">CPU</text>
    
    <path d="M170 122 L250 122" stroke="#1976d2" stroke-width="2" marker-end="url(#arrowBlue)" class="bus-line"/>
    
    <rect x="260" y="105" width="140" height="35" rx="5" fill="url(#memGrad)"/>
    <text x="330" y="128" text-anchor="middle" font-size="12" font-weight="bold" fill="white">MAIN MEMORY (RAM)</text>
    
    <path d="M400 122 L480 122" stroke="#388e3c" stroke-width="2" marker-end="url(#arrowGreen)" class="bus-line"/>
    
    <text x="500" y="118" font-size="10" fill="#666">Data &amp; Instructions</text>
    <text x="500" y="132" font-size="10" fill="#666">Flow</text>
  </g>

  <!-- STEP 2: Fetch-Decode-Execute Overview -->
  <g class="step" id="step2" data-narration="Memory fetch is the first step in the fetch-decode-execute cycle, the fundamental operation driving all computer programs.">
    <rect x="20" y="160" width="760" height="85" rx="8" fill="white" filter="url(#shadow)"/>
    
    <rect x="40" y="180" width="200" height="50" rx="8" fill="#e8f5e9" stroke="#388e3c" stroke-width="2"/>
    <text x="140" y="205" text-anchor="middle" font-size="11" font-weight="bold" fill="#2e7d32">1. FETCH</text>
    <text x="140" y="218" text-anchor="middle" font-size="9" fill="#388e3c">Get instruction/data</text>
    
    <text x="260" y="205" font-size="14" fill="#ccc">→</text>
    
    <rect x="280" y="180" width="200" height="50" rx="8" fill="#fff3e0" stroke="#ff9800" stroke-width="2"/>
    <text x="380" y="205" text-anchor="middle" font-size="11" font-weight="bold" fill="#e65100">2. DECODE</text>
    <text x="380" y="218" text-anchor="middle" font-size="9" fill="#ff9800">Interpret instruction</text>
    
    <text x="500" y="205" font-size="14" fill="#ccc">→</text>
    
    <rect x="520" y="180" width="200" height="50" rx="8" fill="#f3e5f5" stroke="#9c27b0" stroke-width="2"/>
    <text x="620" y="205" text-anchor="middle" font-size="11" font-weight="bold" fill="#7b1fa2">3. EXECUTE</text>
    <text x="620" y="218" text-anchor="middle" font-size="9" fill="#9c27b0">Perform operation</text>
    
    <text x="400" y="245" text-anchor="middle" font-size="9" fill="#666">The fundamental cycle that runs in every computer</text>
  </g>

  <!-- STEP 3: Key Registers - MAR and MDR -->
  <g class="step" id="step3" data-narration="Two critical registers enable memory access: MAR holds addresses, and MDR holds the actual data being transferred.">
    <rect x="20" y="255" width="760" height="95" rx="8" fill="white" filter="url(#shadow)"/>
    <rect x="20" y="255" width="760" height="25" rx="8" fill="#fff3e0"/>
    <text x="30" y="272" font-size="12" font-weight="bold" fill="#ff9800">SECTION 2: Key Registers</text>
    
    <!-- MAR -->
    <rect x="50" y="295" width="140" height="45" rx="6" fill="url(#regGrad)" stroke="#e65100" stroke-width="2"/>
    <text x="120" y="315" text-anchor="middle" font-size="12" font-weight="bold" fill="#fff">MAR</text>
    <text x="120" y="330" text-anchor="middle" font-size="9" fill="#fff">Address Register</text>
    
    <path d="M120 295 L120 275 L200 275 L200 255" stroke="#ff9800" stroke-width="2" fill="none" marker-end="url(#arrowOrange)" class="bus-line"/>
    <text x="210" y="260" font-size="9" fill="#666">Holds address</text>
    
    <!-- MDR -->
    <rect x="250" y="295" width="140" height="45" rx="6" fill="url(#regGrad)" stroke="#e65100" stroke-width="2"/>
    <text x="320" y="315" text-anchor="middle" font-size="12" font-weight="bold" fill="#fff">MDR</text>
    <text x="320" y="330" text-anchor="middle" font-size="9" fill="#fff">Data Register</text>
    
    <path d="M320 340 L320 360 L420 360" stroke="#ff9800" stroke-width="2" fill="none" marker-end="url(#arrowOrange)" class="bus-line"/>
    <text x="430" y="365" font-size="9" fill="#666">Holds data</text>
    
    <!-- CPU Box -->
    <rect x="450" y="290" width="150" height="55" rx="6" fill="url(#cpuGrad)"/>
    <text x="525" y="310" text-anchor="middle" font-size="11" font-weight="bold" fill="white">CPU Internal</text>
    <text x="525" y="325" text-anchor="middle" font-size="9" fill="white">Registers</text>
    
    <!-- Memory Box -->
    <rect x="620" y="295" width="140" height="45" rx="6" fill="url(#memGrad)"/>
    <text x="690" y="315" text-anchor="middle" font-size="11" font-weight="bold" fill="white">MEMORY</text>
    <text x="690" y="330" text-anchor="middle" font-size="9" fill="white">RAM Unit</text>
  </g>

  <!-- STEP 4: MAR Detailed -->
  <g class="step" id="step4" data-narration="The Memory Address Register specifies which memory location to access, determining the maximum addressable memory size.">
    <rect x="20" y="360" width="760" height="90" rx="8" fill="white" filter="url(#shadow)"/>
    
    <rect x="40" y="380" width="180" height="60" rx="8" fill="url(#regGrad)" stroke="#e65100" stroke-width="2"/>
    <text x="130" y="405" text-anchor="middle" font-size="14" font-weight="bold" fill="#fff">MAR</text>
    <text x="130" y="425" text-anchor="middle" font-size="10" fill="#fff3e0">Memory Address Register</text>
    
    <text x="240" y="400" font-size="10" fill="#666">Contains the</text>
    <text x="240" y="415" font-size="10" font-weight="bold" fill="#1976d2">memory address</text>
    <text x="240" y="430" font-size="10" fill="#666">to read from or write to</text>
    
    <rect x="450" y="390" width="140" height="50" rx="6" fill="#e3f2fd" stroke="#1976d2" stroke-width="1"/>
    <text x="520" y="410" text-anchor="middle" font-size="10" fill="#666">32-bit MAR</text>
    <text x="520" y="428" text-anchor="middle" font-size="9" fill="#1976d2">= 2³² addresses</text>
    
    <rect x="610" y="390" width="150" height="50" rx="6" fill="#e3f2fd" stroke="#1976d2" stroke-width="1"/>
    <text x="685" y="410" text-anchor="middle" font-size="10" fill="#666">64-bit MAR</text>
    <text x="685" y="428" text-anchor="middle" font-size="9" fill="#1976d2">= 2⁶⁴ addresses</text>
  </g>

  <!-- STEP 5: MDR Detailed -->
  <g class="step" id="step5" data-narration="The Memory Data Register acts as a buffer, holding data either read from memory or waiting to be written to memory.">
    <rect x="20" y="460" width="760" height="90" rx="8" fill="white" filter="url(#shadow)"/>
    
    <rect x="40" y="480" width="180" height="60" rx="8" fill="url(#regGrad)" stroke="#e65100" stroke-width="2"/>
    <text x="130" y="505" text-anchor="middle" font-size="14" font-weight="bold" fill="#fff">MDR</text>
    <text x="130" y="525" text-anchor="middle" font-size="10" fill="#fff3e0">Memory Data Register</text>
    
    <text x="240" y="495" font-size="10" fill="#666">Holds data</text>
    <text x="240" y="510" font-size="10" font-weight="bold" fill="#388e3c">read from memory</text>
    <text x="240" y="525" font-size="10" fill="#666">or to be written</text>
    
    <rect x="450" y="490" width="300" height="50" rx="6" fill="#e8f5e9" stroke="#388e3c" stroke-width="1"/>
    <text x="600" y="510" text-anchor="middle" font-size="10" fill="#666">For Read Operation:</text>
    <text x="600" y="527" text-anchor="middle" font-size="10" fill="#2e7d32">Data flows from Memory → MDR → CPU</text>
  </g>

  <!-- STEP 6: Read Control Line -->
  <g class="step" id="step6" data-narration="The Read control signal tells memory to output data. Without this signal, memory remains passive and does not respond.">
    <rect x="20" y="560" width="760" height="90" rx="8" fill="white" filter="url(#shadow)"/>
    <rect x="20" y="560" width="760" height="25" rx="8" fill="#f3e5f5"/>
    <text x="30" y="577" font-size="12" font-weight="bold" fill="#9c27b0">SECTION 3: Control &amp; The Fetch Sequence</text>
    
    <rect x="40" y="600" width="200" height="40" rx="6" fill="#f3e5f5" stroke="#9c27b0" stroke-width="2"/>
    <text x="140" y="620" text-anchor="middle" font-size="12" font-weight="bold" fill="#7b1fa2">MemRead Control Signal</text>
    <text x="140" y="632" text-anchor="middle" font-size="9" fill="#9c27b0">(Read = 1 / High)</text>
    
    <text x="260" y="615" font-size="10" fill="#666">Activates memory</text>
    <text x="260" y="630" font-size="10" fill="#666">to place data on bus</text>
    
    <!-- Signal visualization -->
    <rect x="450" y="600" width="80" height="35" rx="4" fill="#e0e0e0"/>
    <text x="490" y="615" text-anchor="middle" font-size="8" fill="#666">Signal</text>
    <path d="M460 625 L510 625" stroke="#666" stroke-width="2"/>
    <circle cx="470" cy="625" r="4" fill="#757575" class="blink-anim"/>
    <circle cx="490" cy="625" r="4" fill="#757575"/>
    <circle cx="510" cy="625" r="4" fill="#757575"/>
    
    <rect x="550" y="600" width="210" height="40" rx="6" fill="#fff3e0" stroke="#ff9800"/>
    <text x="655" y="618" text-anchor="middle" font-size="10" fill="#666">Memory is passive</text>
    <text x="655" y="632" text-anchor="middle" font-size="9" fill="#e65100">Requires explicit command!</text>
  </g>

  <!-- STEP 7: Fetch Sequence Steps 1-3 -->
  <g class="step" id="step7" data-narration="First, the CPU loads the desired address into the MAR. Then it activates the Read signal, and memory decodes the address.">
    <rect x="20" y="660" width="760" height="95" rx="8" fill="white" filter="url(#shadow)"/>
    
    <text x="30" y="680" font-size="11" font-weight="bold" fill="#1976d2">Fetch Sequence:</text>
    
    <!-- Step 1 -->
    <rect x="40" y="690" width="220" height="55" rx="6" fill="#e3f2fd" stroke="#1976d2"/>
    <text x="60" y="708" font-size="10" font-weight="bold" fill="#1976d2">Step 1:</text>
    <text x="60" y="722" font-size="9" fill="#666">Address → MAR</text>
    <rect x="180" y="700" width="70" height="20" rx="3" fill="white" stroke="#ff9800"/>
    <text x="215" y="714" text-anchor="middle" font-size="8" fill="#e65100">2050</text>
    
    <!-- Arrow -->
    <text x="275" y="720" font-size="16" fill="#ccc">→</text>
    
    <!-- Step 2 -->
    <rect x="295" y="690" width="220" height="55" rx="6" fill="#f3e5f5" stroke="#9c27b0"/>
    <text x="315" y="708" font-size="10" font-weight="bold" fill="#9c27b0">Step 2:</text>
    <text x="315" y="722" font-size="9" fill="#666">MemRead = 1</text>
    <rect x="430" y="700" width="70" height="20" rx="3" fill="#f3e5f5" stroke="#9c27b0"/>
    <text x="465" y="714" text-anchor="middle" font-size="8" fill="#7b1fa2">ACTIVE</text>
    
    <!-- Arrow -->
    <text x="530" y="720" font-size="16" fill="#ccc">→</text>
    
    <!-- Step 3 -->
    <rect x="550" y="690" width="200" height="55" rx="6" fill="#e8f5e9" stroke="#388e3c"/>
    <text x="570" y="708" font-size="10" font-weight="bold" fill="#388e3c">Step 3:</text>
    <text x="570" y="722" font-size="9" fill="#666">Memory decodes address</text>
    <rect x="650" y="700" width="80" height="20" rx="3" fill="#e8f5e9"/>
    <text x="690" y="714" text-anchor="middle" font-size="8" fill="#2e7d32">Locate 2050</text>
  </g>

  <!-- STEP 8: Fetch Sequence Steps 4-5 -->
  <g class="step" id="step8" data-narration="Memory places the data onto the bus, which gets loaded into the MDR. Then the CPU transfers this data to its internal registers.">
    <rect x="20" y="765" width="760" height="95" rx="8" fill="white" filter="url(#shadow)"/>
    
    <!-- Data bus visualization -->
    <rect x="40" y="780" width="720" height="70" rx="6" fill="#fafafa" stroke="#e0e0e0"/>
    <text x="50" y="798" font-size="10" fill="#666">DATA BUS</text>
    
    <!-- Memory to MDR -->
    <path d="M200 815 L350 815" stroke="#388e3c" stroke-width="3" marker-end="url(#arrowGreen)" class="bus-line"/>
    <text x="275" y="805" text-anchor="middle" font-size="9" fill="#388e3c">0xABCD1234</text>
    
    <!-- Step 4 -->
    <rect x="60" y="820" width="130" height="40" rx="4" fill="#e8f5e9" stroke="#388e3c"/>
    <text x="125" y="838" text-anchor="middle" font-size="9" font-weight="bold" fill="#2e7d32">Step 4:</text>
    <text x="125" y="852" text-anchor="middle" font-size="8" fill="#666">Data → MDR</text>
    
    <!-- MDR box -->
    <rect x="350" y="790" width="80" height="50" rx="4" fill="url(#regGrad)" stroke="#e65100"/>
    <text x="390" y="810" text-anchor="middle" font-size="9" font-weight="bold" fill="#fff">MDR</text>
    <text x="390" y="825" text-anchor="middle" font-size="7" fill="#fff3e0">0xABCD1234</text>
    
    <!-- Arrow to register -->
    <path d="M430 815 L520 815" stroke="#ff9800" stroke-width="2" marker-end="url(#arrowOrange)" class="bus-line"/>
    
    <!-- Step 5 -->
    <rect x="530" y="820" width="130" height="40" rx="4" fill="#e3f2fd" stroke="#1976d2"/>
    <text x="595" y="838" text-anchor="middle" font-size="9" font-weight="bold" fill="#1976d2">Step 5:</text>
    <text x="595" y="852" text-anchor="middle" font-size="8" fill="#666">MDR → Register</text>
    
    <!-- CPU Register -->
    <rect x="660" y="790" width="80" height="50" rx="4" fill="url(#cpuGrad)" stroke="#1565c0"/>
    <text x="700" y="810" text-anchor="middle" font-size="9" font-weight="bold" fill="#fff">R1</text>
    <text x="700" y="825" text-anchor="middle" font-size="7" fill="#e3f2fd">0xABCD1234</text>
  </g>

  <!-- STEP 9: Clock and Wait States -->
  <g class="step" id="step9" data-narration="Memory operations take time. The CPU waits for memory to respond, introducing wait states in the system clock cycle.">
    <rect x="20" y="870" width="760" height="85" rx="8" fill="white" filter="url(#shadow)"/>
    
    <rect x="40" y="890" width="160" height="55" rx="6" fill="#e3f2fd" stroke="#1976d2"/>
    <text x="120" y="910" text-anchor="middle" font-size="11" font-weight="bold" fill="#1976d2">System Clock</text>
    <text x="120" y="928" text-anchor="middle" font-size="9" fill="#666">Synchronizes operations</text>
    
    <!-- Clock wave -->
    <path d="M220 915 L250 915 L250 905 L280 905 L280 915 L310 915" stroke="#1976d2" stroke-width="2" fill="none"/>
    <text x="295" y="928" text-anchor="middle" font-size="8" fill="#666">Clock</text>
    
    <text x="350" y="910" font-size="10" fill="#666">CPU activates MemRead</text>
    <text x="350" y="928" font-size="10" fill="#666">then waits for memory</text>
    
    <!-- Wait state visualization -->
    <rect x="520" y="890" width="120" height="55" rx="6" fill="#fff3e0" stroke="#ff9800"/>
    <text x="580" y="910" text-anchor="middle" font-size="10" font-weight="bold" fill="#e65100">Wait States</text>
    <text x="580" y="928" text-anchor="middle" font-size="9" fill="#666">Memory latency</text>
    
    <text x="660" y="910" font-size="9" fill="#666">Time between</text>
    <text x="660" y="925" font-size="9" fill="#666">request and data</text>
    <text x="660" y="940" font-size="9" fill="#666">availability</text>
  </g>

  <!-- STEP 10: Complete Example -->
  <g class="step" id="step10" data-narration="Let's trace fetching value 0xABCD1234 from address 2050 into register R1, completing the full memory fetch operation.">
    <rect x="20" y="965" width="760" height="85" rx="8" fill="white" filter="url(#shadow)"/>
    <rect x="20" y="965" width="760" height="25" rx="8" fill="#e8f5e9"/>
    <text x="30" y="982" font-size="12" font-weight="bold" fill="#388e3c">Example: Fetch from Address 2050</text>
    
    <!-- Visual flow -->
    <rect x="50" y="1005" width="100" height="35" rx="4" fill="white" stroke="#ff9800"/>
    <text x="100" y="1022" text-anchor="middle" font-size="9" fill="#e65100">MAR</text>
    <text x="100" y="1034" text-anchor="middle" font-size="8" fill="#666">2050</text>
    
    <text x="165" y="1025" font-size="14" fill="#1976d2">→</text>
    
    <rect x="180" y="1005" width="100" height="35" rx="4" fill="#f3e5f5" stroke="#9c27b0"/>
    <text x="230" y="1022" text-anchor="middle" font-size="9" fill="#7b1fa2">MemRead=1</text>
    <text x="230" y="1034" text-anchor="middle" font-size="8" fill="#666">Signal</text>
    
    <text x="295" y="1025" font-size="14" fill="#388e3c">→</text>
    
    <rect x="310" y="1000" width="120" height="45" rx="4" fill="#e8f5e9" stroke="#388e3c"/>
    <text x="370" y="1018" text-anchor="middle" font-size="9" fill="#2e7d32">MEMORY[2050]</text>
    <text x="370" y="1033" text-anchor="middle" font-size="8" fill="#666">= 0xABCD1234</text>
    
    <text x="445" y="1025" font-size="14" fill="#388e3c">→</text>
    
    <rect x="460" y="1005" width="100" height="35" rx="4" fill="white" stroke="#e65100"/>
    <text x="510" y="1022" text-anchor="middle" font-size="9" fill="#e65100">MDR</text>
    <text x="510" y="1034" text-anchor="middle" font-size="8" fill="#666">0xABCD1234</text>
    
    <text x="575" y="1025" font-size="14" fill="#ff9800">→</text>
    
    <rect x="590" y="1005" width="80" height="35" rx="4" fill="url(#cpuGrad)" stroke="#1565c0"/>
    <text x="630" y="1022" text-anchor="middle" font-size="9" font-weight="bold" fill="white">R1</text>
    <text x="630" y="1034" text-anchor="middle" font-size="8" fill="#e3f2fd">0xABCD1234</text>
    
    <text x="700" y="1025" font-size="10" fill="#2e7d32" font-weight="bold">Complete!</text>
  </g>

  <!-- STEP 11: Summary -->
  <g class="step" id="step11" data-narration="In summary: MAR holds addresses, MDR holds data, MemRead triggers reads, and this fetch operation is fundamental to computer performance.">
    <rect x="20" y="1060" width="760" height="90" rx="8" fill="white" filter="url(#shadow)"/>
    <rect x="20" y="1060" width="760" height="25" rx="8" fill="#e3f2fd"/>
    <text x="30" y="1077" font-size="12" font-weight="bold" fill="#1976d2">SECTION 4: Key Takeaways</text>
    
    <!-- Key points -->
    <rect x="40" y="1095" width="170" height="45" rx="6" fill="#fff3e0"/>
    <text x="125" y="1112" text-anchor="middle" font-size="10" font-weight="bold" fill="#e65100">MAR</text>
    <text x="125" y="1128" text-anchor="middle" font-size="8" fill="#666">Holds memory address</text>
    
    <rect x="220" y="1095" width="170" height="45" rx="6" fill="#fff3e0"/>
    <text x="305" y="1112" text-anchor="middle" font-size="10" font-weight="bold" fill="#e65100">MDR</text>
    <text x="305" y="1128" text-anchor="middle" font-size="8" fill="#666">Holds data word</text>
    
    <rect x="400" y="1095" width="170" height="45" rx="6" fill="#f3e5f5"/>
    <text x="485" y="1112" text-anchor="middle" font-size="10" font-weight="bold" fill="#9c27b0">MemRead</text>
    <text x="485" y="1128" text-anchor="middle" font-size="8" fill="#666">Control signal = 1</text>
    
    <rect x="580" y="1095" width="180" height="45" rx="6" fill="#e8f5e9"/>
    <text x="670" y="1112" text-anchor="middle" font-size="10" font-weight="bold" fill="#388e3c">Fetch Sequence</text>
    <text x="670" y="1128" text-anchor="middle" font-size="8" fill="#666">Addr→MAR→Read→MDR→Reg</text>
  </g>
</svg>