<svg width="420" height="400" viewBox="0 0 420 400" xmlns="http://www.w3.org/2000/svg" xmlns:xlink="http://www.w3.org/1999/xlink" data-topic-id="chapter13-132-135" data-slug="chapter-13-132-to-135">
  <defs>
    <linearGradient id="pastel-gradient" x1="0%" y1="0%" x2="100%" y2="0%">
      <stop offset="0%" stop-color="#C7B8EA" stop-opacity="1" />
      <stop offset="100%" stop-color="#C5CAE9" stop-opacity="1" />
    </linearGradient>
  </defs>
  <title>Chapter 13: Information Retrieval</title>
  <rect x="10" y="10" width="400" height="380" fill="url(#pastel-gradient)" rx="10"/>
  <path d="M 10 50 L 40 70 L 70 90 L 100 110 L 130 130 L 160 150 L 190 170 L 220 190 L 250 210 L 280 230 L 310 250 L 340 270 L 370 290 L 400 310 Z" fill="none"/>
  <g transform="translate(20, 20)">
    <rect x="0" y="0" width="100" height="50" fill="#3498DB" rx="5"/>
    <text x="10" y="10" font-size="18" font-family="Arial" fill="#FFFFFF" data-narration="Definition: A search engine is a software system that retrieves and ranks relevant documents from a large database of web pages based on a given search query.">Definition</text>
    <animateTransform attributeName="transform" type="translate" from="0,0" to="0,50" dur="3s" begin="0s"/>
  </g>
  <g transform="translate(140, 20)">
    <rect x="0" y="0" width="100" height="50" fill="#2EC4B0" rx="5"/>
    <text x="10" y="10" font-size="18" font-family="Arial" fill="#FFFFFF" data-narration="History: The first search engine, Archie, was developed in 1990. It indexed FTP archives and allowed users to search for files using keywords. Other early search engines include Veronica (1993) and Jughead (1994).">History</text>
    <animateTransform attributeName="transform" type="translate" from="0,0" to="0,50" dur="3s" begin="3s"/>
  </g>
  <g transform="translate(260, 20)">
    <rect x="0" y="0" width="100" height="50" fill="#F1C40F" rx="5"/>
    <text x="10" y="10" font-size="18" font-family="Arial" fill="#FFFFFF" data-narration="Characteristics: Search engines build an index of web pages, which is a database of links, keywords, and other metadata. Search engines parse the user's search query to determine what they are looking for. Search engines rank the retrieved documents based on relevance, authority, and other factors.">Characteristics</text>
    <animateTransform attributeName="transform" type="translate" from="0,0" to="0,50" dur="3s" begin="6s"/>
  </g>
  <g transform="translate(380, 20)">
    <rect x="0" y="0" width="100" height="50" fill="#E74C3C" rx="5"/>
    <text x="10" y="10" font-size="18" font-family="Arial" fill="#FFFFFF" data-narration="Example: Google's PageRank algorithm uses a weighted link analysis to rank web pages. The algorithm assigns a score to each page based on: Number of incoming links: Pages with more incoming links are considered more relevant. Quality of incoming links: Pages with links from high-quality sources are considered more relevant. Page content: Pages with high-quality and relevant content are considered more relevant.">Example</text>
    <animateTransform attributeName="transform" type="translate" from="0,0" to="0,50" dur="3s" begin="9s"/>
  </g>
  <g transform="translate(20, 250)">
    <rect x="0" y="0" width="100" height="50" fill="#EDBCB6" rx="5"/>
    <text x="10" y="10" font-size="18" font-family="Arial" fill="#FFFFFF" data-narration="Key Concepts: Crawling: Search engines send 'crawlers' or 'spiders' to discover and index new web pages. Indexing: Search engines build an index of web pages and store it in a database. Query: The user's search query is used to retrieve relevant documents.">Key Concepts</text>
    <animateTransform attributeName="transform" type="translate" from="0,0" to="0,50" dur="3s" begin="12s"/>
  </g>
  <g transform="translate(140, 250)">
    <rect x="0" y="0" width="100" height="50" fill="#2EC4B0" rx="5"/>
    <text x="10" y="10" font-size="18" font-family="Arial" fill="#FFFFFF" data-narration="Best Practices: Use specific keywords to get more accurate results. Use quotes to search for exact phrases. Use site: operator to search within a specific website.">Best Practices</text>
    <animateTransform attributeName="transform" type="translate" from="0,0" to="0,50" dur="3s" begin="15s"/>
  </g>
  <g transform="translate(260, 250)">
    <rect x="0" y="0" width="100" height="50" fill="#F1C40F" rx="5"/>
    <text x="10" y="10" font-size="18" font-family="Arial" fill="#FFFFFF" data-narration="Conclusion: Search engines play a vital role in helping us find relevant information on the internet. By understanding how search engines work, we can use them more effectively and efficiently.">Conclusion</text>
    <animateTransform attributeName="transform" type="translate" from="0,0" to="0,50" dur="3s" begin="18s"/>
  </g>
  <g transform="translate(380, 250)">
    <rect x="0" y="0" width="100" height="50" fill="#E74C3C" rx="5"/>
    <text x="10" y="10" font-size="18" font-family="Arial" fill="#FFFFFF" data-narration="References: Archie (1990), Veronica (1993), Jughead (1994).">References</text>
    <animateTransform attributeName="transform" type="translate" from="0,0" to="0,50" dur="3s" begin="21s"/>
  </g>
  <path d="M 10 380 L 40 400 L 70 420 L 100 440 L 130 460 L 160 480 L 190 500 L 220 520 L 250 540 L 280 560 L 310 580 L 340 600 L 370 620 L 400 640 Z" fill="none"/>
  <rect x="10" y="320" width="100" height="20" fill="#3498DB" rx="5"/>
  <text x="10" y="330" font-size="18" font-family="Arial" fill="#FFFFFF">Chapter 13: Information Retrieval</text>
  <rect x="10" y="360" width="100" height="20" fill="#2EC4B0" rx="5"/>
  <text x="10" y="370" font-size="18" font-family="Arial" fill="#FFFFFF">To Learn More...</text>
</svg>