<svg width="420" height="400" data-topic-id="insert-null-values-to-the-employee-table-and-verify-the-result">
  <defs>
    <linearGradient id=" PastelColorsGradient" x1="0%" y1="0%" x2="100%" y2="0%">
      <stop offset="0%" stop-color="#C9E4CA" stop-opacity="1"/>
      <stop offset="100%" stop-color="#E0F0E0" stop-opacity="1"/>
    </linearGradient>
  </defs>
  <rect x="50" y="50" width="320" height="300" fill="url(#PastelColorsGradient)"/>
  
  <g transform="translate(50, 50)">
    <rect x="0" y="0" width="100" height="50" fill="#3498db" rx="5"/>
    <text x="15" y="15" font-size="14" font-family="Arial, sans-serif" fill="#fff">Insert Null Values To The Employee Table And Verify the Result</text>
  </g>
  
  <g transform="translate(60, 60)">
    <rect x="0" y="0" width="100" height="50" fill="#2ecc71" rx="5"/>
    <text x="15" y="15" font-size="14" font-family="Arial, sans-serif" fill="#fff">Insert Null Values into the Employee Table</text>
  </g>
  
  <g transform="translate(60, 110)">
    <rect x="0" y="0" width="100" height="50" fill="#e74c3c" rx="5"/>
    <text x="15" y="15" font-size="14" font-family="Arial, sans-serif" fill="#fff">Using the `NULL` Keyword</text>
  </g>
  
  <g transform="translate(60, 170)">
    <rect x="0" y="0" width="100" height="50" fill="#2ecc71" rx="5"/>
    <text x="15" y="15" font-size="14" font-family="Arial, sans-serif" fill="#fff">INSERT INTO Employee (Name, Age, Department) VALUES ('John Doe', NULL, 'HR');</text>
  </g>
  
  <g transform="translate(60, 230)">
    <rect x="0" y="0" width="100" height="50" fill="#e74c3c" rx="5"/>
    <text x="15" y="15" font-size="14" font-family="Arial, sans-serif" fill="#fff">Using the `NULL` Keyword</text>
  </g>
  
  <g transform="translate(60, 290)">
    <rect x="0" y="0" width="100" height="50" fill="#2ecc71" rx="5"/>
    <text x="15" y="15" font-size="14" font-family="Arial, sans-serif" fill="#fff">INSERT INTO Employee (Name, Age, Department) VALUES ('Jane Doe', '', 'Finance');</text>
  </g>
  
  <g transform="translate(60, 350)">
    <rect x="0" y="0" width="100" height="50" fill="#e74c3c" rx="5"/>
    <text x="15" y="15" font-size="14" font-family="Arial, sans-serif" fill="#fff">Verifying the Result</text>
  </g>
  
  <g transform="translate(60, 410)">
    <rect x="0" y="0" width="100" height="50" fill="#2ecc71" rx="5"/>
    <text x="15" y="15" font-size="14" font-family="Arial, sans-serif" fill="#fff">SELECT * FROM Employee;</text>
  </g>
  
  <g transform="translate(60, 470)">
    <rect x="0" y="0" width="100" height="50" fill="#e74c3c" rx="5"/>
    <text x="15" y="15" font-size="14" font-family="Arial, sans-serif" fill="#fff">Using the </text>
  </g>
  
  <g transform="translate(60, 530)">
    <rect x="0" y="0" width="100" height="50" fill="#2ecc71" rx="5"/>
    <text x="15" y="15" font-size="14" font-family="Arial, sans-serif" fill="#fff"> </text>
  </g>
  
  <g transform="translate(60, 590)">
    <rect x="0" y="0" width="100" height="50" fill="#e74c3c" rx="5"/>
    <text x="15" y="15" font-size="14" font-family="Arial, sans-serif" fill="#fff"> </text>
  </g>
</svg>