<svg viewBox="0 0 800 1400" xmlns="http://www.w3.org/2000/svg">
  <defs>
    <linearGradient id="blueGrad" x1="0%" y1="0%" x2="100%" y2="100%">
      <stop offset="0%" style="stop-color:#e3f2fd"/>
      <stop offset="100%" style="stop-color:#bbdefb"/>
    </linearGradient>
    <linearGradient id="greenGrad" x1="0%" y1="0%" x2="100%" y2="100%">
      <stop offset="0%" style="stop-color:#e8f5e9"/>
      <stop offset="100%" style="stop-color:#c8e6c9"/>
    </linearGradient>
    <linearGradient id="orangeGrad" x1="0%" y1="0%" x2="100%" y2="100%">
      <stop offset="0%" style="stop-color:#fff3e0"/>
      <stop offset="100%" style="stop-color:#ffe0b2"/>
    </linearGradient>
    <linearGradient id="purpleGrad" x1="0%" y1="0%" x2="100%" y2="100%">
      <stop offset="0%" style="stop-color:#f3e5f5"/>
      <stop offset="100%" style="stop-color:#e1bee7"/>
    </linearGradient>
    <linearGradient id="redGrad" x1="0%" y1="0%" x2="100%" y2="100%">
      <stop offset="0%" style="stop-color:#ffebee"/>
      <stop offset="100%" style="stop-color:#ffcdd2"/>
    </linearGradient>
    <linearGradient id="titleGrad" x1="0%" y1="0%" x2="100%" y2="0%">
      <stop offset="0%" style="stop-color:#1976d2"/>
      <stop offset="100%" style="stop-color:#1565c0"/>
    </linearGradient>
    <marker id="arrowBlue" markerWidth="10" markerHeight="10" refX="9" refY="3" orient="auto">
      <path d="M0,0 L0,6 L9,3 z" fill="#1976d2"/>
    </marker>
    <marker id="arrowGreen" markerWidth="10" markerHeight="10" refX="9" refY="3" orient="auto">
      <path d="M0,0 L0,6 L9,3 z" fill="#388e3c"/>
    </marker>
    <filter id="shadow" x="-20%" y="-20%" width="140%" height="140%">
      <feDropShadow dx="2" dy="2" stdDeviation="3" flood-opacity="0.2"/>
    </filter>
    <style>
      @keyframes fadeInSlide {
        from { opacity: 0; transform: translateY(20px); }
        to { opacity: 1; transform: translateY(0); }
      }
      @keyframes scaleIn {
        from { opacity: 0; transform: scale(0.85); }
        to { opacity: 1; transform: scale(1); }
      }
      @keyframes textReveal {
        from { opacity: 0; transform: translateX(-10px); }
        to { opacity: 1; transform: translateX(0); }
      }
      @keyframes pulse {
        0%, 100% { transform: scale(1); }
        50% { transform: scale(1.03); }
      }
      @keyframes drawLine {
        from { stroke-dashoffset: 500; }
        to { stroke-dashoffset: 0; }
      }
      @keyframes buildFormula {
        from { opacity: 0; }
        to { opacity: 1; }
      }
      .step { animation: fadeInSlide 0.6s ease-out; }
      .step rect {
        animation: scaleIn 0.5s cubic-bezier(0.34, 1.56, 0.64, 1);
        transform-origin: center;
      }
      .step text { animation: textReveal 0.4s ease-out 0.2s backwards; }
      .title-text { font-family: Arial, sans-serif; font-weight: bold; font-size: 22px; fill: white; }
      .subtitle-text { font-family: Arial, sans-serif; font-size: 12px; fill: #555; }
      .body-text { font-family: Arial, sans-serif; font-size: 10px; fill: #333; }
      .label-text { font-family: Arial, sans-serif; font-size: 9px; fill: #666; }
      .formula-text { font-family: 'Courier New', monospace; font-size: 11px; fill: #1976d2; font-weight: bold; }
      .highlight-text { font-family: Arial, sans-serif; font-size: 11px; fill: #1976d2; font-weight: bold; }
      .gate { fill: white; stroke: #333; stroke-width: 2; }
      .connection { stroke: #555; stroke-width: 2; fill: none; }
      .animated-line {
        stroke-dasharray: 500;
        stroke-dashoffset: 500;
        animation: drawLine 1s ease-out forwards;
      }
    </style>
  </defs>
  
  <rect width="800" height="1400" fill="#f8f9fa"/>
  
  <!-- Title Section -->
  <g class="step" id="step0" data-narration="Welcome to Combinational Circuits - the foundation of digital logic that processes data without memory.">
    <rect x="0" y="0" width="800" height="50" fill="url(#titleGrad)"/>
    <text x="400" y="32" text-anchor="middle" class="title-text">COMBINATIONAL CIRCUITS</text>
    <text x="400" y="45" text-anchor="middle" fill="#bbdefb" font-family="Arial" font-size="10">2022 Scheme - CSE Branch</text>
  </g>
  
  <!-- Step 1: Definition -->
  <g class="step" id="step1" data-narration="A combinational circuit outputs depend only on current inputs - no memory, no history, just pure logic computation.">
    <rect x="20" y="60" width="760" height="90" rx="8" fill="url(#blueGrad)" filter="url(#shadow)"/>
    <text x="40" y="80" class="highlight-text">What is a Combinational Circuit?</text>
    <text x="40" y="100" class="body-text">A digital circuit where output depends</text>
    <text x="40" y="115" class="body-text">ONLY on present inputs - no memory or feedback.</text>
    <text x="40" y="135" class="label-text">Same input → Same output (always)</text>
    <circle cx="720" cy="105" r="30" fill="#1976d2" opacity="0.8"/>
    <text x="720" y="110" text-anchor="middle" fill="white" font-size="24" font-weight="bold">?</text>
  </g>
  
  <!-- Step 2: Block Diagram Overview -->
  <g class="step" id="step2" data-narration="The block diagram shows inputs flowing through combinational logic to produce outputs - a one-way data pipeline.">
    <rect x="20" y="160" width="760" height="90" rx="8" fill="url(#greenGrad)" filter="url(#shadow)"/>
    <text x="40" y="180" class="highlight-text">Block Diagram</text>
    <!-- Inputs -->
    <rect x="50" y="205" width="40" height="25" rx="3" fill="#bbdefb" stroke="#1976d2" stroke-width="1"/>
    <text x="70" y="220" text-anchor="middle" class="label-text">I₀</text>
    <rect x="50" y="235" width="40" height="25" rx="3" fill="#bbdefb" stroke="#1976d2" stroke-width="1"/>
    <text x="70" y="250" text-anchor="middle" class="label-text">I₁</text>
    <rect x="50" y="265" width="40" height="25" rx="3" fill="#bbdefb" stroke="#1976d2" stroke-width="1"/>
    <text x="70" y="280" text-anchor="middle" class="label-text">...</text>
    <!-- Combinational Logic Box -->
    <rect x="180" y="195" width="440" height="85" rx="8" fill="white" stroke="#388e3c" stroke-width="2"/>
    <text x="400" y="220" text-anchor="middle" class="highlight-text" fill="#388e3c">COMBINATIONAL LOGIC</text>
    <text x="400" y="235" text-anchor="middle" class="label-text">No Memory • No Feedback</text>
    <text x="400" y="250" text-anchor="middle" class="label-text">Y = f(I₀, I₁, ..., Iₙ₋₁)</text>
    <!-- Outputs -->
    <rect x="710" y="205" width="50" height="25" rx="3" fill="#c8e6c9" stroke="#388e3c" stroke-width="1"/>
    <text x="735" y="220" text-anchor="middle" class="label-text">Y₀</text>
    <rect x="710" y="235" width="50" height="25" rx="3" fill="#c8e6c9" stroke="#388e3c" stroke-width="1"/>
    <text x="735" y="250" text-anchor="middle" class="label-text">Y₁</text>
    <!-- Arrows -->
    <path d="M95 217 L175 217" stroke="#1976d2" stroke-width="2" marker-end="url(#arrowBlue)"/>
    <path d="M625 217 L705 217" stroke="#388e3c" stroke-width="2" marker-end="url(#arrowGreen)"/>
  </g>
  
  <!-- Step 3: Key Characteristics -->
  <g class="step" id="step3" data-narration="Four key properties define combinational circuits: no memory, no feedback, instant response, and Boolean function representation.">
    <rect x="20" y="260" width="760" height="95" rx="8" fill="url(#orangeGrad)" filter="url(#shadow)"/>
    <text x="40" y="280" class="highlight-text">Key Characteristics</text>
    <rect x="40" y="295" width="170" height="50" rx="5" fill="white" stroke="#ff9800" stroke-width="1"/>
    <text x="55" y="310" class="label-text">1. No Memory</text>
    <text x="55" y="325" class="label-text">Output = f(present inputs)</text>
    <rect x="220" y="295" width="170" height="50" rx="5" fill="white" stroke="#ff9800" stroke-width="1"/>
    <text x="235" y="310" class="label-text">2. No Feedback</text>
    <text x="235" y="325" class="label-text">Output never feeds back</text>
    <rect x="400" y="295" width="170" height="50" rx="5" fill="white" stroke="#ff9800" stroke-width="1"/>
    <text x="415" y="310" class="label-text">3. Instant Response</text>
    <text x="415" y="325" class="label-text">Immediate output change</text>
    <rect x="580" y="295" width="180" height="50" rx="5" fill="white" stroke="#ff9800" stroke-width="1"/>
    <text x="595" y="310" class="label-text">4. Boolean Functions</text>
    <text x="595" y="325" class="label-text">Y = Boolean expression</text>
  </g>
  
  <!-- Step 4: Analysis Process -->
  <g class="step" id="step4" data-narration="Analyzing a circuit involves labeling gate outputs, writing Boolean expressions, combining them, and building a truth table.">
    <rect x="20" y="365" width="760" height="95" rx="8" fill="url(#purpleGrad)" filter="url(#shadow)"/>
    <text x="40" y="385" class="highlight-text">Analysis Process: How to Understand a Circuit</text>
    <rect x="40" y="405" width="165" height="45" rx="5" fill="white" stroke="#9c27b0" stroke-width="1"/>
    <text x="50" y="420" class="label-text">Step 1: Label</text>
    <text x="50" y="435" class="label-text">Gate outputs</text>
    <rect x="215" y="405" width="165" height="45" rx="5" fill="white" stroke="#9c27b0" stroke-width="1"/>
    <text x="225" y="420" class="label-text">Step 2: Write</text>
    <text x="225" y="435" class="label-text">Boolean expressions</text>
    <rect x="390" y="405" width="165" height="45" rx="5" fill="white" stroke="#9c27b0" stroke-width="1"/>
    <text x="400" y="420" class="label-text">Step 3: Combine</text>
    <text x="400" y="435" class="label-text">Expressions</text>
    <rect x="565" y="405" width="165" height="45" rx="5" fill="white" stroke="#9c27b0" stroke-width="1"/>
    <text x="575" y="420" class="label-text">Step 4: Truth Table</text>
    <text x="575" y="435" class="label-text">(optional)</text>
  </g>
  
  <!-- Step 5: Analysis Example -->
  <g class="step" id="step5" data-narration="Let's analyze: Gate 1 computes T1 = A·B, Gate 2 computes T2 = B·C, then F = T1 + T2 = AB + BC = B(A + C).">
    <rect x="20" y="470" width="760" height="95" rx="8" fill="url(#blueGrad)" filter="url(#shadow)"/>
    <text x="40" y="490" class="highlight-text">Analysis Example</text>
    <!-- Logic Gates Visualization -->
    <rect x="60" y="510" width="50" height="35" rx="3" fill="white" stroke="#333" stroke-width="2"/>
    <text x="85" y="532" text-anchor="middle" class="label-text">AND</text>
    <rect x="180" y="510" width="50" height="35" rx="3" fill="white" stroke="#333" stroke-width="2"/>
    <text x="205" y="532" text-anchor="middle" class="label-text">AND</text>
    <rect x="320" y="505" width="55" height="45" rx="3" fill="white" stroke="#333" stroke-width="2"/>
    <text x="347" y="537" text-anchor="middle" class="label-text">OR</text>
    <!-- Labels -->
    <text x="55" y="560" class="label-text">A,B</text>
    <text x="175" y="560" class="label-text">B,C</text>
    <!-- Equations -->
    <text x="430" y="510" class="formula-text">T₁ = A · B</text>
    <text x="430" y="530" class="formula-text">T₂ = B · C</text>
    <text x="430" y="555" class="highlight-text">F = AB + BC = B(A + C)</text>
  </g>
  
  <!-- Step 6: Synthesis Process -->
  <g class="step" id="step6" data-narration="Synthesis reverses analysis: define inputs/outputs, create truth table, simplify with Boolean algebra or K-maps, then draw the circuit.">
    <rect x="20" y="575" width="760" height="95" rx="8" fill="url(#greenGrad)" filter="url(#shadow)"/>
    <text x="40" y="595" class="highlight-text">Synthesis (Design) Process</text>
    <rect x="40" y="615" width="160" height="45" rx="5" fill="white" stroke="#388e3c" stroke-width="1"/>
    <text x="50" y="630" class="label-text">1. Identify I/O</text>
    <text x="50" y="645" class="label-text">from specification</text>
    <rect x="210" y="615" width="160" height="45" rx="5" fill="white" stroke="#388e3c" stroke-width="1"/>
    <text x="220" y="630" class="label-text">2. Truth Table</text>
    <text x="220" y="645" class="label-text">Derive from specs</text>
    <rect x="380" y="615" width="160" height="45" rx="5" fill="white" stroke="#388e3c" stroke-width="1"/>
    <text x="390" y="630" class="label-text">3. Simplify</text>
    <text x="390" y="645" class="label-text">K-maps or Algebra</text>
    <rect x="550" y="615" width="180" height="45" rx="5" fill="white" stroke="#388e3c" stroke-width="1"/>
    <text x="560" y="630" class="label-text">4. Draw Circuit</text>
    <text x="560" y="645" class="label-text">Logic diagram</text>
  </g>
  
  <!-- Step 7: Types - Data Processing -->
  <g class="step" id="step7" data-narration="Data processing circuits perform arithmetic: Adders sum binary numbers, Comparators evaluate magnitude, and ALUs combine operations.">
    <rect x="20" y="680" width="760" height="95" rx="8" fill="url(#redGrad)" filter="url(#shadow)"/>
    <text x="40" y="700" class="highlight-text">Types of Combinational Circuits - Data Processing</text>
    <rect x="40" y="720" width="220" height="45" rx="5" fill="white" stroke="#f44336" stroke-width="1"/>
    <text x="55" y="735" class="label-text">Adders &amp; Subtractors</text>
    <text x="55" y="750" class="label-text">Binary arithmetic operations</text>
    <rect x="270" y="720" width="220" height="45" rx="5" fill="white" stroke="#f44336" stroke-width="1"/>
    <text x="285" y="735" class="label-text">Comparators</text>
    <text x="285" y="750" class="label-text">Compare two binary numbers</text>
    <rect x="500" y="720" width="260" height="45" rx="5" fill="white" stroke="#f44336" stroke-width="1"/>
    <text x="515" y="735" class="label-text">ALU (Arithmetic Logic Unit)</text>
    <text x="515" y="750" class="label-text">Multiple arithmetic &amp; logic ops</text>
  </g>
  
  <!-- Step 8: Types - Data Transfer -->
  <g class="step" id="step8" data-narration="Data transfer circuits route information: Multiplexers select one input to pass, while Demultiplexers direct one input to multiple outputs.">
    <rect x="20" y="785" width="760" height="95" rx="8" fill="url(#orangeGrad)" filter="url(#shadow)"/>
    <text x="40" y="805" class="highlight-text">Types - Data Transfer/Routing</text>
    <!-- MUX Visual -->
    <rect x="50" y="825" width="120" height="45" rx="5" fill="white" stroke="#ff9800" stroke-width="1"/>
    <text x="70" y="840" class="label-text">MULTIPLEXER</text>
    <text x="70" y="855" class="label-text">MUX: 2ⁿ→1</text>
    <text x="90" y="878" class="label-text" fill="#666">Select 1 of many inputs</text>
    <!-- Arrow -->
    <text x="200" y="850" fill="#ff9800" font-size="20">→</text>
    <!-- DEMUX Visual -->
    <rect x="230" y="825" width="120" height="45" rx="5" fill="white" stroke="#ff9800" stroke-width="1"/>
    <text x="250" y="840" class="label-text">DEMULTIPLEXER</text>
    <text x="250" y="855" class="label-text">DEMUX: 1→2ⁿ</text>
    <text x="265" y="878" class="label-text" fill="#666">Route to one of many</text>
    <!-- Explanation -->
    <rect x="400" y="825" width="360" height="45" rx="5" fill="white" stroke="#ff9800" stroke-width="1"/>
    <text x="420" y="845" class="body-text">MUX: 4-line to 1-line selector</text>
    <text x="420" y="862" class="body-text">DEMUX: 1-line to 4-line distributor</text>
  </g>
  
  <!-- Step 9: Types - Code Conversion -->
  <g class="step" id="step9" data-narration="Code conversion circuits transform between binary representations: Encoders compress inputs, Decoders expand codes, and specialized converters handle BCD, Gray code.">
    <rect x="20" y="890" width="760" height="95" rx="8" fill="url(#purpleGrad)" filter="url(#shadow)"/>
    <text x="40" y="910" class="highlight-text">Types - Code Conversion</text>
    <rect x="40" y="930" width="165" height="45" rx="5" fill="white" stroke="#9c27b0" stroke-width="1"/>
    <text x="55" y="948" class="label-text">ENCODERS</text>
    <text x="55" y="963" class="label-text">2ⁿ inputs → n outputs</text>
    <rect x="215" y="930" width="165" height="45" rx="5" fill="white" stroke="#9c27b0" stroke-width="1"/>
    <text x="230" y="948" class="label-text">DECODERS</text>
    <text x="230" y="963" class="label-text">n inputs → 2ⁿ outputs</text>
    <rect x="390" y="930" width="180" height="45" rx="5" fill="white" stroke="#9c27b0" stroke-width="1"/>
    <text x="405" y="948" class="label-text">CODE CONVERTERS</text>
    <text x="405" y="963" class="label-text">BCD ↔ Excess-3, Binary↔Gray</text>
    <rect x="580" y="930" width="180" height="45" rx="5" fill="white" stroke="#9c27b0" stroke-width="1"/>
    <text x="600" y="948" class="label-text">PRIORITY</text>
    <text x="600" y="963" class="label-text">ENCODER handles conflicts</text>
  </g>
  
  <!-- Step 10: Multi-Level vs Two-Level -->
  <g class="step" id="step10" data-narration="Two-level circuits are faster with two gate delays; multi-level circuits use factoring to reduce gates but add delay - a speed-versus-cost tradeoff.">
    <rect x="20" y="995" width="760" height="95" rx="8" fill="url(#blueGrad)" filter="url(#shadow)"/>
    <text x="40" y="1015" class="highlight-text">Two-Level vs Multi-Level Circuits</text>
    <!-- Two-Level -->
    <rect x="40" y="1035" width="330" height="45" rx="5" fill="white" stroke="#1976d2" stroke-width="1"/>
    <text x="55" y="1050" class="label-text">TWO-LEVEL CIRCUITS</text>
    <text x="55" y="1065" class="label-text">Direct SOP/POS • Max 2 gate delays • Faster</text>
    <!-- Multi-Level -->
    <rect x="410" y="1035" width="360" height="45" rx="5" fill="white" stroke="#1976d2" stroke-width="1"/>
    <text x="425" y="1050" class="label-text">MULTI-LEVEL CIRCUITS</text>
    <text x="425" y="1065" class="label-text">Intermediate gates • Fewer gates possible • Slower</text>
    <!-- Example -->
    <text x="205" y="1095" class="formula-text">F = A(B + CD) is 3 levels, not 2</text>
  </g>
  
  <!-- Step 11: Timing Considerations -->
  <g class="step" id="step11" data-narration="Real circuits have propagation delay causing glitches. The critical path is the longest input-to-output delay, determining circuit speed.">
    <rect x="20" y="1100" width="760" height="95" rx="8" fill="url(#greenGrad)" filter="url(#shadow)"/>
    <text x="40" y="1120" class="highlight-text">Timing Considerations</text>
    <rect x="40" y="1140" width="220" height="45" rx="5" fill="white" stroke="#388e3c" stroke-width="1"/>
    <text x="55" y="1158" class="label-text">Propagation Delay</text>
    <text x="55" y="1173" class="label-text">Signal time through gate</text>
    <rect x="270" y="1140" width="220" height="45" rx="5" fill="white" stroke="#388e3c" stroke-width="1"/>
    <text x="285" y="1158" class="label-text">Glitches / Hazards</text>
    <text x="285" y="1173" class="label-text">Momentary wrong outputs</text>
    <rect x="500" y="1140" width="260" height="45" rx="5" fill="white" stroke="#388e3c" stroke-width="1"/>
    <text x="515" y="1158" class="label-text">Critical Path</text>
    <text x="515" y="1173" class="label-text">Longest delay input → output</text>
  </g>
  
  <!-- Step 12: Key Points Summary -->
  <g class="step" id="step12" data-narration="Remember: No memory means output depends only on current inputs. Each output is a Boolean function. Analysis understands circuits, synthesis creates them.">
    <rect x="20" y="1205" width="760" height="90" rx="8" fill="url(#titleGrad)" filter="url(#shadow)"/>
    <text x="40" y="1225" class="title-text" fill="white">KEY POINTS</text>
    <text x="40" y="1245" class="label-text" fill="#bbdefb">1. No memory - output depends ONLY on current inputs</text>
    <text x="40" y="1262" class="label-text" fill="#bbdefb">2. Each output is a Boolean function of inputs</text>
    <text x="40" y="1279" class="label-text" fill="#bbdefb">3. Analysis → Understand circuit | Synthesis → Create circuit</text>
    <text x="480" y="1245" class="label-text" fill="#bbdefb">4. Types: Arithmetic, Routing, Code Conversion</text>
    <text x="480" y="1262" class="label-text" fill="#bbdefb">5. Two-level = faster | Multi-level = fewer gates</text>
  </g>
  
  <!-- Step 13: Applications -->
  <g class="step" id="step13" data-narration="Combinational circuits are everywhere: calculators, network routing, CPU instruction decoding, and keyboard encoding - the building blocks of all digital devices.">
    <rect x="20" y="1305" width="760" height="85" rx="8" fill="url(#orangeGrad)" filter="url(#shadow)"/>
    <text x="40" y="1325" class="highlight-text">Real-World Applications</text>
    <rect x="40" y="1345" width="150" height="35" rx="5" fill="white" stroke="#ff9800" stroke-width="1"/>
    <text x="55" y="1362" class="label-text">Calculators</text>
    <text x="55" y="1375" class="label-text">Arithmetic ops</text>
    <rect x="200" y="1345" width="150" height="35" rx="5" fill="white" stroke="#ff9800" stroke-width="1"/>
    <text x="215" y="1362" class="label-text">Network Switches</text>
    <text x="215" y="1375" class="label-text">Data routing</text>
    <rect x="360" y="1345" width="150" height="35" rx="5" fill="white" stroke="#ff9800" stroke-width="1"/>
    <text x="375" y="1362" class="label-text">CPU</text>
    <text x="375" y="1375" class="label-text">Instruction decode</text>
    <rect x="520" y="1345" width="150" height="35" rx="5" fill="white" stroke="#ff9800" stroke-width="1"/>
    <text x="535" y="1362" class="label-text">Keyboards</text>
    <text x="535" y="1375" class="label-text">Input encoding</text>
    <rect x="680" y="1345" width="80" height="35" rx="5" fill="#ff9800"/>
    <text x="720" y="1367" text-anchor="middle" fill="white" font-weight="bold">+ MORE</text>
  </g>
</svg>