<svg viewBox="0 0 800 1750" xmlns="http://www.w3.org/2000/svg">
  <defs>
    <linearGradient id="bgGrad" x1="0%" y1="0%" x2="100%" y2="100%">
      <stop offset="0%" stop-color="#f8f9fa"/>
      <stop offset="100%" stop-color="#e9ecef"/>
    </linearGradient>
    <linearGradient id="blueGrad" x1="0%" y1="0%" x2="100%" y2="100%">
      <stop offset="0%" stop-color="#1976d2"/>
      <stop offset="100%" stop-color="#1565c0"/>
    </linearGradient>
    <linearGradient id="greenGrad" x1="0%" y1="0%" x2="100%" y2="100%">
      <stop offset="0%" stop-color="#388e3c"/>
      <stop offset="100%" stop-color="#2e7d32"/>
    </linearGradient>
    <linearGradient id="orangeGrad" x1="0%" y1="0%" x2="100%" y2="100%">
      <stop offset="0%" stop-color="#ff9800"/>
      <stop offset="100%" stop-color="#f57c00"/>
    </linearGradient>
    <linearGradient id="purpleGrad" x1="0%" y1="0%" x2="100%" y2="100%">
      <stop offset="0%" stop-color="#7b1fa2"/>
      <stop offset="100%" stop-color="#6a1b9a"/>
    </linearGradient>
    <linearGradient id="redGrad" x1="0%" y1="0%" x2="100%" y2="100%">
      <stop offset="0%" stop-color="#d32f2f"/>
      <stop offset="100%" stop-color="#c62828"/>
    </linearGradient>
    <filter id="shadow" x="-20%" y="-20%" width="140%" height="140%">
      <feDropShadow dx="2" dy="3" stdDeviation="3" flood-opacity="0.2"/>
    </filter>
    <marker id="arrowBlue" markerWidth="10" markerHeight="10" refX="9" refY="3" orient="auto">
      <path d="M0,0 L0,6 L9,3 z" fill="#1976d2"/>
    </marker>
    <marker id="arrowGreen" markerWidth="10" markerHeight="10" refX="9" refY="3" orient="auto">
      <path d="M0,0 L0,6 L9,3 z" fill="#388e3c"/>
    </marker>
    <marker id="arrowOrange" markerWidth="10" markerHeight="10" refX="9" refY="3" orient="auto">
      <path d="M0,0 L0,6 L9,3 z" fill="#ff9800"/>
    </marker>
  </defs>
  
  <style>
    @keyframes fadeInSlide {
      from { opacity: 0; transform: translateY(20px); }
      to { opacity: 1; transform: translateY(0); }
    }
    @keyframes scaleIn {
      from { opacity: 0; transform: scale(0.85); }
      to { opacity: 1; transform: scale(1); }
    }
    @keyframes textReveal {
      from { opacity: 0; transform: translateX(-10px); }
      to { opacity: 1; transform: translateX(0); }
    }
    @keyframes pulse {
      0%, 100% { transform: scale(1); }
      50% { transform: scale(1.03); }
    }
    @keyframes drawLine {
      from { stroke-dashoffset: 300; }
      to { stroke-dashoffset: 0; }
    }
    @keyframes fadeIn {
      from { opacity: 0; }
      to { opacity: 1; }
    }
    .step { animation: fadeInSlide 0.6s ease-out; }
    .step rect {
      animation: scaleIn 0.5s cubic-bezier(0.34, 1.56, 0.64, 1);
      transform-origin: center;
    }
    .step text { animation: textReveal 0.4s ease-out 0.2s backwards; }
    .title-text { font-size: 22px; font-weight: bold; fill: #fff; }
    .subtitle-text { font-size: 14px; fill: #fff; }
    .body-text { font-size: 11px; fill: #333; }
    .label-text { font-size: 9px; fill: #555; }
    .highlight { fill: #1976d2; font-weight: bold; }
    .step-title { font-size: 13px; font-weight: bold; fill: #333; }
    
    #step0 rect { animation-delay: 0s; }
    #step0 text { animation-delay: 0.2s; }
    #step1 rect { animation-delay: 0.1s; }
    #step1 text { animation-delay: 0.3s; }
    #step2 rect { animation-delay: 0.2s; }
    #step2 text { animation-delay: 0.4s; }
  </style>

  <rect width="800" height="1750" fill="#f8f9fa"/>

  <!-- Step 0: Title Slide -->
  <g class="step" id="step0" data-narration="Welcome to Operating System Operations. We explore how OS manages hardware, provides services, and protects the system.">
    <rect x="20" y="20" width="760" height="50" rx="10" fill="url(#blueGrad)" filter="url(#shadow)"/>
    <text x="400" y="52" text-anchor="middle" class="title-text">Operating System Operations</text>
    <text x="400" y="68" text-anchor="middle" class="subtitle-text">Dual-Mode Operation, System Calls, Interrupts &amp; Resource Management</text>
  </g>

  <!-- Step 1: What is an Operating System -->
  <g class="step" id="step1" data-narration="An OS is system software that manages hardware and software resources, providing services to computer programs.">
    <rect x="40" y="90" width="720" height="80" rx="8" fill="#fff" filter="url(#shadow)"/>
    <rect x="40" y="90" width="8" height="80" rx="4" fill="url(#greenGrad)"/>
    <text x="60" y="115" class="step-title">What is an Operating System?</text>
    <text x="60" y="135" class="body-text" fill="#555">System software that manages computer</text>
    <text x="60" y="150" class="body-text" fill="#555">hardware and software resources, providing</text>
    <text x="60" y="165" class="body-text" fill="#555">common services for computer programs.</text>
    <g transform="translate(550, 105)">
      <circle r="25" fill="#e3f2fd" stroke="#1976d2" stroke-width="2"/>
      <text x="0" y="5" text-anchor="middle" font-size="10" fill="#1976d2">OS</text>
    </g>
  </g>

  <!-- Step 2: Why Dual-Mode Operation Matters -->
  <g class="step" id="step2" data-narration="Modern OS uses dual-mode operation to prevent user programs from interfering with critical system operations.">
    <rect x="40" y="185" width="720" height="80" rx="8" fill="#fff" filter="url(#shadow)"/>
    <rect x="40" y="185" width="8" height="80" rx="4" fill="url(#orangeGrad)"/>
    <text x="60" y="210" class="step-title">Why Dual-Mode Operation Matters</text>
    <text x="60" y="230" class="body-text">Protects system integrity by restricting user programs from executing</text>
    <text x="60" y="245" class="body-text">privileged instructions. Prevents accidental or malicious damage.</text>
    <g transform="translate(550, 215)">
      <rect x="-30" y="-20" width="60" height="40" rx="5" fill="#ffebee" stroke="#f44336" stroke-width="2"/>
      <text x="0" y="5" text-anchor="middle" font-size="9" fill="#c62828">Protected</text>
    </g>
  </g>

  <!-- Step 3: Dual-Mode Operation Overview -->
  <g class="step" id="step3" data-narration="Dual-mode operation consists of User Mode with limited privileges and Kernel Mode with full system privileges.">
    <rect x="40" y="280" width="350" height="100" rx="8" fill="#e3f2fd" stroke="#1976d2" stroke-width="2"/>
    <text x="215" y="305" text-anchor="middle" class="step-title" fill="#1976d2">USER MODE</text>
    <text x="215" y="325" text-anchor="middle" font-size="9" fill="#333">Limited privileges</text>
    <text x="215" y="340" text-anchor="middle" font-size="9" fill="#333">Cannot execute privileged</text>
    <text x="215" y="355" text-anchor="middle" font-size="9" fill="#333">instructions</text>
    <text x="215" y="370" text-anchor="middle" font-size="8" fill="#555">Restricted memory access</text>
    
    <rect x="410" y="280" width="350" height="100" rx="8" fill="#e8f5e9" stroke="#388e3c" stroke-width="2"/>
    <text x="585" y="305" text-anchor="middle" class="step-title" fill="#388e3c">KERNEL MODE</text>
    <text x="585" y="325" text-anchor="middle" font-size="9" fill="#333">Full privileges</text>
    <text x="585" y="340" text-anchor="middle" font-size="9" fill="#333">Can execute any instruction</text>
    <text x="585" y="355" text-anchor="middle" font-size="9" fill="#333">Complete hardware access</text>
    <text x="585" y="370" text-anchor="middle" font-size="8" fill="#555">For critical system operations</text>
    
    <path d="M390 330 L410 330" stroke="#333" stroke-width="2" marker-end="url(#arrowBlue)"/>
    <path d="M410 340 L390 340" stroke="#333" stroke-width="2" marker-end="url(#arrowGreen)"/>
    <text x="400" y="325" text-anchor="middle" font-size="8" fill="#555">System Calls /</text>
    <text x="400" y="338" text-anchor="middle" font-size="8" fill="#555">Interrupts</text>
  </g>

  <!-- Step 4: Mode Transition Details -->
  <g class="step" id="step4" data-narration="Transitions between modes occur through system calls or interrupts, carefully controlled by the operating system.">
    <rect x="40" y="395" width="720" height="90" rx="8" fill="#fff" filter="url(#shadow)"/>
    <text x="60" y="420" class="step-title">Mode Transition Mechanism</text>
    
    <g transform="translate(100, 445)">
      <rect x="0" y="0" width="100" height="30" rx="5" fill="#e3f2fd" stroke="#1976d2"/>
      <text x="50" y="20" text-anchor="middle" font-size="10" fill="#1976d2">User Program</text>
    </g>
    
    <path d="M200 460 L250 460" stroke="#333" stroke-width="2" marker-end="url(#arrowOrange)"/>
    <text x="225" y="450" text-anchor="middle" font-size="8" fill="#555">Trap/System Call</text>
    
    <g transform="translate(260, 445)">
      <rect x="0" y="0" width="100" height="30" rx="5" fill="#c8e6c9" stroke="#388e3c"/>
      <text x="50" y="20" text-anchor="middle" font-size="10" fill="#388e3c">Kernel Mode</text>
    </g>
    
    <path d="M360 460 L410 460" stroke="#333" stroke-width="2" marker-end="url(#arrowBlue)"/>
    <text x="385" y="450" text-anchor="middle" font-size="8" fill="#555">Execute Service</text>
    
    <g transform="translate(420, 445)">
      <rect x="0" y="0" width="100" height="30" rx="5" fill="#e3f2fd" stroke="#1976d2"/>
      <text x="50" y="20" text-anchor="middle" font-size="10" fill="#1976d2">Return to User</text>
    </g>
    
    <g transform="translate(550, 440)">
      <circle r="30" fill="#fff3e0" stroke="#ff9800" stroke-width="2"/>
      <text x="0" y="5" text-anchor="middle" font-size="9" fill="#e65100">Mode</text>
      <text x="0" y="18" text-anchor="middle" font-size="9" fill="#e65100">Switch</text>
    </g>
  </g>

  <!-- Step 5: System Calls Introduction -->
  <g class="step" id="step5" data-narration="System calls provide the interface between user programs and the OS, requesting services like file operations and process control.">
    <rect x="40" y="500" width="720" height="90" rx="8" fill="#f3e5f5" stroke="#9c27b0" stroke-width="2"/>
    <text x="60" y="525" class="step-title">System Calls: Bridge to OS Services</text>
    <text x="60" y="545" class="body-text">The interface between running programs and operating system.</text>
    <text x="60" y="560" class="body-text">User programs request services through system calls.</text>
    
    <g transform="translate(450, 520)">
      <rect x="0" y="0" width="80" height="25" rx="4" fill="#e3f2fd"/>
      <text x="40" y="17" text-anchor="middle" font-size="9" fill="#1976d2">User Program</text>
    </g>
    <path d="M490 535 L550 535" stroke="#9c27b0" stroke-width="2" marker-end="url(#arrowBlue)"/>
    <rect x="550" y="520" width="80" height="25" rx="4" fill="#e8f5e9"/>
    <text x="590" y="537" text-anchor="middle" font-size="9" fill="#388e3c">OS Kernel</text>
    <path d="M550 555 L490 555" stroke="#9c27b0" stroke-width="2" marker-end="url(#arrowBlue)"/>
    <text x="520" y="575" text-anchor="middle" font-size="8" fill="#555">Return Results</text>
  </g>

  <!-- Step 6: Types of System Calls -->
  <g class="step" id="step6" data-narration="Five main types: Process Control, File Management, Device Management, Information Maintenance, and Communication.">
    <rect x="40" y="605" width="720" height="130" rx="8" fill="#fff" filter="url(#shadow)"/>
    <text x="60" y="630" class="step-title">Types of System Calls</text>
    
    <g transform="translate(60, 650)">
      <rect x="0" y="0" width="130" height="75" rx="5" fill="#ffebee" stroke="#ef5350"/>
      <text x="65" y="18" text-anchor="middle" font-size="10" font-weight="bold" fill="#c62828">Process Control</text>
      <text x="65" y="35" text-anchor="middle" font-size="8" fill="#555">fork(), exec()</text>
      <text x="65" y="48" text-anchor="middle" font-size="8" fill="#555">exit(), wait()</text>
    </g>
    
    <g transform="translate(205, 650)">
      <rect x="0" y="0" width="130" height="75" rx="5" fill="#e3f2fd" stroke="#42a5f5"/>
      <text x="65" y="18" text-anchor="middle" font-size="10" font-weight="bold" fill="#1565c0">File Management</text>
      <text x="65" y="35" text-anchor="middle" font-size="8" fill="#555">open(), read()</text>
      <text x="65" y="48" text-anchor="middle" font-size="8" fill="#555">write(), close()</text>
    </g>
    
    <g transform="translate(350, 650)">
      <rect x="0" y="0" width="130" height="75" rx="5" fill="#fff3e0" stroke="#ffa726"/>
      <text x="65" y="18" text-anchor="middle" font-size="10" font-weight="bold" fill="#e65100">Device Mgmt</text>
      <text x="65" y="35" text-anchor="middle" font-size="8" fill="#555">ioctl(), read()</text>
      <text x="65" y="48" text-anchor="middle" font-size="8" fill="#555">write()</text>
    </g>
    
    <g transform="translate(495, 650)">
      <rect x="0" y="0" width="130" height="75" rx="5" fill="#e8f5e9" stroke="#66bb6a"/>
      <text x="65" y="18" text-anchor="middle" font-size="10" font-weight="bold" fill="#2e7d32">Info Maint</text>
      <text x="65" y="35" text-anchor="middle" font-size="8" fill="#555">getpid(), time()</text>
      <text x="65" y="48" text-anchor="middle" font-size="8" fill="#555">sysinfo()</text>
    </g>
    
    <g transform="translate(640, 650)">
      <rect x="0" y="0" width="120" height="75" rx="5" fill="#f3e5f5" stroke="#ab47bc"/>
      <text x="60" y="18" text-anchor="middle" font-size="10" font-weight="bold" fill="#6a1b9a">Communication</text>
      <text x="60" y="35" text-anchor="middle" font-size="8" fill="#555">pipe(), shmget()</text>
      <text x="60" y="48" text-anchor="middle" font-size="8" fill="#555">msgget()</text>
    </g>
  </g>

  <!-- Step 7: How System Calls Work (7 Steps) -->
  <g class="step" id="step7" data-narration="Seven-step process: prepare parameters, execute trap, switch to kernel, identify service, execute, return results, resume.">
    <rect x="40" y="750" width="720" height="160" rx="8" fill="#fff" filter="url(#shadow)"/>
    <text x="60" y="775" class="step-title">How System Calls Work (7-Step Process)</text>
    
    <g transform="translate(60, 795)">
      <rect x="0" y="0" width="95" height="22" rx="4" fill="#e3f2fd" stroke="#1976d2"/>
      <text x="47" y="15" text-anchor="middle" font-size="8" fill="#1565c0">1. Prepare Params</text>
    </g>
    <g transform="translate(165, 795)">
      <rect x="0" y="0" width="95" height="22" rx="4" fill="#e3f2fd" stroke="#1976d2"/>
      <text x="47" y="15" text-anchor="middle" font-size="8" fill="#1565c0">2. Trap Instruction</text>
    </g>
    <g transform="translate(270, 795)">
      <rect x="0" y="0" width="95" height="22" rx="4" fill="#e3f2fd" stroke="#1976d2"/>
      <text x="47" y="15" text-anchor="middle" font-size="8" fill="#1565c0">3. Switch Mode</text>
    </g>
    <g transform="translate(375, 795)">
      <rect x="0" y="0" width="95" height="22" rx="4" fill="#e3f2fd" stroke="#1976d2"/>
      <text x="47" y="15" text-anchor="middle" font-size="8" fill="#1565c0">4. Identify Call</text>
    </g>
    <g transform="translate(480, 795)">
      <rect x="0" y="0" width="95" height="22" rx="4" fill="#e3f2fd" stroke="#1976d2"/>
      <text x="47" y="15" text-anchor="middle" font-size="8" fill="#1565c0">5. Execute Service</text>
    </g>
    <g transform="translate(585, 795)">
      <rect x="0" y="0" width="95" height="22" rx="4" fill="#e3f2fd" stroke="#1976d2"/>
      <text x="47" y="15" text-anchor="middle" font-size="8" fill="#1565c0">6. Return Results</text>
    </g>
    <g transform="translate(665, 795)">
      <rect x="0" y="0" width="85" height="22" rx="4" fill="#e3f2fd" stroke="#1976d2"/>
      <text x="42" y="15" text-anchor="middle" font-size="8" fill="#1565c0">7. Resume</text>
    </g>
    
    <path d="M107 825 L160 825" stroke="#333" stroke-width="1" marker-end="url(#arrowBlue)"/>
    <path d="M212 825 L265 825" stroke="#333" stroke-width="1" marker-end="url(#arrowBlue)"/>
    <path d="M317 825 L370 825" stroke="#333" stroke-width="1" marker-end="url(#arrowBlue)"/>
    <path d="M422 825 L475 825" stroke="#333" stroke-width="1" marker-end="url(#arrowBlue)"/>
    <path d="M527 825 L580 825" stroke="#333" stroke-width="1" marker-end="url(#arrowBlue)"/>
    <path d="M632 825 L660 825" stroke="#333" stroke-width="1" marker-end="url(#arrowBlue)"/>
    
    <rect x="60" y="840" width="690" height="60" rx="5" fill="#f5f5f5"/>
    <text x="70" y="860" font-size="9" fill="#333">Program executes trap instruction CPU switches to kernel mode OS validates</text>
    <text x="70" y="878" font-size="9" fill="#333">system call number Executes service Returns control with results Program resumes</text>
  </g>

  <!-- Step 8: Interrupts and Traps -->
  <g class="step" id="step8" data-narration="Interrupts are signals requiring immediate attention. Hardware interrupts come from devices; software interrupts (traps) come from programs.">
    <rect x="40" y="925" width="350" height="100" rx="8" fill="#ffebee" stroke="#f44336" stroke-width="2"/>
    <text x="215" y="950" text-anchor="middle" class="step-title" fill="#c62828">Hardware Interrupts</text>
    <text x="215" y="970" text-anchor="middle" font-size="9" fill="#333">Generated by external devices</text>
    <text x="215" y="985" text-anchor="middle" font-size="9" fill="#333">I/O completion, timer expiration,</text>
    <text x="215" y="1000" text-anchor="middle" font-size="9" fill="#333">hardware errors</text>
    
    <rect x="410" y="925" width="350" height="100" rx="8" fill="#e8f5e9" stroke="#388e3c" stroke-width="2"/>
    <text x="585" y="950" text-anchor="middle" class="step-title" fill="#2e7d32">Software Interrupts (Traps)</text>
    <text x="585" y="970" text-anchor="middle" font-size="9" fill="#333">Generated by software</text>
    <text x="585" y="985" text-anchor="middle" font-size="9" fill="#333">System calls, division by zero,</text>
    <text x="585" y="1000" text-anchor="middle" font-size="9" fill="#333">page faults</text>
  </g>

  <!-- Step 9: Interrupt Handling Process -->
  <g class="step" id="step9" data-narration="Interrupt handling: save CPU state, identify interrupt source, execute handler, restore state, resume execution.">
    <rect x="40" y="1040" width="720" height="110" rx="8" fill="#fff" filter="url(#shadow)"/>
    <text x="60" y="1065" class="step-title">Interrupt Handling Process</text>
    
    <g transform="translate(60, 1085)">
      <circle r="25" fill="#e3f2fd" stroke="#1976d2" stroke-width="2"/>
      <text x="0" y="5" text-anchor="middle" font-size="9" fill="#1565c0">Save State</text>
    </g>
    <path d="M95 1110 L130 1110" stroke="#333" stroke-width="2" marker-end="url(#arrowBlue)"/>
    
    <g transform="translate(140, 1085)">
      <circle r="25" fill="#fff3e0" stroke="#ff9800" stroke-width="2"/>
      <text x="0" y="5" text-anchor="middle" font-size="9" fill="#e65100">Identify</text>
    </g>
    <path d="M175 1110 L210 1110" stroke="#333" stroke-width="2" marker-end="url(#arrowBlue)"/>
    
    <g transform="translate(220, 1085)">
      <circle r="25" fill="#e8f5e9" stroke="#388e3c" stroke-width="2"/>
      <text x="0" y="5" text-anchor="middle" font-size="9" fill="#2e7d32">Execute</text>
      <text x="0" y="18" text-anchor="middle" font-size="8" fill="#2e7d32">Handler</text>
    </g>
    <path d="M255 1110 L290 1110" stroke="#333" stroke-width="2" marker-end="url(#arrowBlue)"/>
    
    <g transform="translate(300, 1085)">
      <circle r="25" fill="#f3e5f5" stroke="#9c27b0" stroke-width="2"/>
      <text x="0" y="5" text-anchor="middle" font-size="9" fill="#6a1b9a">Restore</text>
      <text x="0" y="18" text-anchor="middle" font-size="8" fill="#6a1b9a">State</text>
    </g>
    <path d="M335 1110 L370 1110" stroke="#333" stroke-width="2" marker-end="url(#arrowBlue)"/>
    
    <g transform="translate(380, 1085)">
      <circle r="25" fill="#ffebee" stroke="#f44336" stroke-width="2"/>
      <text x="0" y="5" text-anchor="middle" font-size="9" fill="#c62828">Resume</text>
      <text x="0" y="18" text-anchor="middle" font-size="8" fill="#c62828">Execution</text>
    </g>
    
    <g transform="translate(500, 1080)">
      <rect x="0" y="0" width="240" height="65" rx="5" fill="#fafafa" stroke="#ddd"/>
      <text x="10" y="18" font-size="10" font-weight="bold" fill="#333">CPU State Includes:</text>
      <text x="10" y="35" font-size="9" fill="#555">- Registers</text>
      <text x="10" y="50" font-size="9" fill="#555">- Program Counter (PC)</text>
      <text x="10" y="65" font-size="9" fill="#555">- Processor Status Word (PSW)</text>
    </g>
  </g>

  <!-- Step 10: Timer Management -->
  <g class="step" id="step10" data-narration="Timers prevent CPU monopolization. When timer expires, interrupt generates allowing OS to regain control for preemptive scheduling.">
    <rect x="40" y="1165" width="720" height="90" rx="8" fill="#fff3e0" stroke="#ff9800" stroke-width="2"/>
    <text x="60" y="1190" class="step-title">Timer Management for Preemptive Scheduling</text>
    
    <g transform="translate(60, 1210)">
      <rect x="0" y="0" width="120" height="35" rx="5" fill="#e3f2fd" stroke="#1976d2"/>
      <text x="60" y="15" text-anchor="middle" font-size="9" fill="#1565c0">Set Timer Interval</text>
      <text x="60" y="28" text-anchor="middle" font-size="8" fill="#555">for process</text>
    </g>
    <path d="M190 1230 L240 1230" stroke="#333" stroke-width="2" marker-end="url(#arrowOrange)"/>
    
    <g transform="translate(250, 1210)">
      <rect x="0" y="0" width="120" height="35" rx="5" fill="#e3f2fd" stroke="#1976d2"/>
      <text x="60" y="15" text-anchor="middle" font-size="9" fill="#1565c0">Program Executes</text>
      <text x="60" y="28" text-anchor="middle" font-size="8" fill="#555">normally</text>
    </g>
    <path d="M380 1230 L430 1230" stroke="#333" stroke-width="2" marker-end="url(#arrowOrange)"/>
    
    <g transform="translate(440, 1210)">
      <rect x="0" y="0" width="120" height="35" rx="5" fill="#ffebee" stroke="#f44336"/>
      <text x="60" y="15" text-anchor="middle" font-size="9" fill="#c62828">Timer Expires</text>
      <text x="60" y="28" text-anchor="middle" font-size="8" fill="#555">interrupt</text>
    </g>
    <path d="M570 1230 L620 1230" stroke="#333" stroke-width="2" marker-end="url(#arrowOrange)"/>
    
    <g transform="translate(630, 1210)">
      <rect x="0" y="0" width="120" height="35" rx="5" fill="#e8f5e9" stroke="#388e3c"/>
      <text x="60" y="15" text-anchor="middle" font-size="9" fill="#2e7d32">OS Gains Control</text>
      <text x="60" y="28" text-anchor="middle" font-size="8" fill="#555">scheduling</text>
    </g>
  </g>

  <!-- Step 11: Process Management Operations -->
  <g class="step" id="step11" data-narration="Process management includes creation (allocating memory, initializing PCB), termination (releasing resources), and context switching.">
    <rect x="40" y="1270" width="720" height="100" rx="8" fill="#fff" filter="url(#shadow)"/>
    <text x="60" y="1295" class="step-title">Process Management Operations</text>
    
    <g transform="translate(60, 1315)">
      <rect x="0" y="0" width="150" height="45" rx="5" fill="#e8f5e9" stroke="#388e3c"/>
      <text x="75" y="18" text-anchor="middle" font-size="10" font-weight="bold" fill="#2e7d32">Process Creation</text>
      <text x="75" y="35" text-anchor="middle" font-size="8" fill="#555">Allocate memory, init PCB,</text>
      <text x="75" y="47" text-anchor="middle" font-size="8" fill="#555">setup address space</text>
    </g>
    
    <g transform="translate(225, 1315)">
      <rect x="0" y="0" width="150" height="45" rx="5" fill="#ffebee" stroke="#f44336"/>
      <text x="75" y="18" text-anchor="middle" font-size="10" font-weight="bold" fill="#c62828">Process Termination</text>
      <text x="75" y="35" text-anchor="middle" font-size="8" fill="#555">Release resources,</text>
      <text x="75" y="47" text-anchor="middle" font-size="8" fill="#555">deallocate memory</text>
    </g>
    
    <g transform="translate(390, 1315)">
      <rect x="0" y="0" width="150" height="45" rx="5" fill="#e3f2fd" stroke="#1976d2"/>
      <text x="75" y="18" text-anchor="middle" font-size="10" font-weight="bold" fill="#1565c0">Process Switching</text>
      <text x="75" y="35" text-anchor="middle" font-size="8" fill="#555">Save/restore state,</text>
      <text x="75" y="47" text-anchor="middle" font-size="8" fill="#555">update PCB</text>
    </g>
    
    <g transform="translate(560, 1315)">
      <rect x="0" y="0" width="190" height="45" rx="5" fill="#f3e5f5" stroke="#9c27b0"/>
      <text x="95" y="18" text-anchor="middle" font-size="10" font-weight="bold" fill="#6a1b9a">Process Control Block</text>
      <text x="95" y="35" text-anchor="middle" font-size="8" fill="#555">PID, State, PC, Registers,</text>
      <text x="95" y="47" text-anchor="middle" font-size="8" fill="#555">Memory info, I/O status</text>
    </g>
  </g>

  <!-- Step 12: Context Switching -->
  <g class="step" id="step12" data-narration="Context switching saves current process state to PCB, restores next process state, updates registers, then resumes execution.">
    <rect x="40" y="1385" width="720" height="90" rx="8" fill="#e3f2fd" stroke="#1976d2" stroke-width="2"/>
    <text x="60" y="1410" class="step-title">Context Switching Process</text>
    
    <g transform="translate(60, 1430)">
      <rect x="0" y="0" width="130" height="35" rx="5" fill="#fff" stroke="#1976d2"/>
      <text x="65" y="15" text-anchor="middle" font-size="9" fill="#1565c0">Save Process A State</text>
      <text x="65" y="28" text-anchor="middle" font-size="8" fill="#555">to PCB</text>
    </g>
    <path d="M200 1450 L250 1450" stroke="#1976d2" stroke-width="2" marker-end="url(#arrowBlue)"/>
    
    <g transform="translate(260, 1430)">
      <rect x="0" y="0" width="130" height="35" rx="5" fill="#fff" stroke="#1976d2"/>
      <text x="65" y="15" text-anchor="middle" font-size="9" fill="#1565c0">Update Process A PCB</text>
      <text x="65" y="28" text-anchor="middle" font-size="8" fill="#555">in queue</text>
    </g>
    <path d="M400 1450 L450 1450" stroke="#1976d2" stroke-width="2" marker-end="url(#arrowBlue)"/>
    
    <g transform="translate(460, 1430)">
      <rect x="0" y="0" width="130" height="35" rx="5" fill="#fff" stroke="#388e3c"/>
      <text x="65" y="15" text-anchor="middle" font-size="9" fill="#2e7d32">Restore Process B</text>
      <text x="65" y="28" text-anchor="middle" font-size="8" fill="#555">from PCB</text>
    </g>
    <path d="M600 1450 L650 1450" stroke="#388e3c" stroke-width="2" marker-end="url(#arrowGreen)"/>
    
    <g transform="translate(660, 1430)">
      <rect x="0" y="0" width="90" height="35" rx="5" fill="#e8f5e9" stroke="#388e3c"/>
      <text x="45" y="15" text-anchor="middle" font-size="9" fill="#2e7d32">Resume B</text>
      <text x="45" y="28" text-anchor="middle" font-size="8" fill="#555">Execution</text>
    </g>
  </g>

  <!-- Step 13: Resource Management Overview -->
  <g class="step" id="step13" data-narration="OS manages CPU, memory, I/O, and files. It ensures efficiency, fairness, isolation, and protection of system resources.">
    <rect x="40" y="1490" width="720" height="90" rx="8" fill="#fff" filter="url(#shadow)"/>
    <text x="60" y="1515" class="step-title">OS Resource Management</text>
    
    <g transform="translate(60, 1535)">
      <rect x="0" y="0" width="100" height="35" rx="5" fill="#ffebee" stroke="#ef5350"/>
      <text x="50" y="15" text-anchor="middle" font-size="10" font-weight="bold" fill="#c62828">CPU</text>
      <text x="50" y="28" text-anchor="middle" font-size="8" fill="#555">Scheduling</text>
    </g>
    <g transform="translate(175, 1535)">
      <rect x="0" y="0" width="100" height="35" rx="5" fill="#e3f2fd" stroke="#42a5f5"/>
      <text x="50" y="15" text-anchor="middle" font-size="10" font-weight="bold" fill="#1565c0">Memory</text>
      <text x="50" y="28" text-anchor="middle" font-size="8" fill="#555">Allocation</text>
    </g>
    <g transform="translate(290, 1535)">
      <rect x="0" y="0" width="100" height="35" rx="5" fill="#fff3e0" stroke="#ffa726"/>
      <text x="50" y="15" text-anchor="middle" font-size="10" font-weight="bold" fill="#e65100">I/O</text>
      <text x="50" y="28" text-anchor="middle" font-size="8" fill="#555">Device Mgmt</text>
    </g>
    <g transform="translate(405, 1535)">
      <rect x="0" y="0" width="100" height="35" rx="5" fill="#e8f5e9" stroke="#66bb6a"/>
      <text x="50" y="15" text-anchor="middle" font-size="10" font-weight="bold" fill="#2e7d32">File</text>
      <text x="50" y="28" text-anchor="middle" font-size="8" fill="#555">System</text>
    </g>
    <g transform="translate(520, 1535)">
      <rect x="0" y="0" width="100" height="35" rx="5" fill="#f3e5f5" stroke="#ab47bc"/>
      <text x="50" y="15" text-anchor="middle" font-size="10" font-weight="bold" fill="#6a1b9a">Security</text>
      <text x="50" y="28" text-anchor="middle" font-size="8" fill="#555">Protection</text>
    </g>
    
    <g transform="translate(640, 1535)">
      <rect x="0" y="0" width="110" height="35" rx="5" fill="#eceff1" stroke="#607d8b"/>
      <text x="55" y="15" text-anchor="middle" font-size="9" font-weight="bold" fill="#455a64">Goals:</text>
      <text x="55" y="28" text-anchor="middle" font-size="8" fill="#555">Efficiency, Fairness</text>
    </g>
  </g>

  <!-- Step 14: Real-World Example -->
  <g class="step" id="step14" data-narration="Web server example shows OS coordinating: network interrupt creates process, system calls handle file I/O, memory buffers, network transmission.">
    <rect x="40" y="1595" width="720" height="70" rx="8" fill="#fff3e0" stroke="#ff9800" stroke-width="2"/>
    <text x="60" y="1620" class="step-title">Real-World Example: Web Server</text>
    <text x="60" y="1640" class="body-text">Client request arrives OS creates process/thread System calls read files</text>
    <text x="60" y="1658" class="body-text">OS manages memory buffers Network system calls Process terminates after response</text>
  </g>

  <!-- Step 15: Key Takeaways -->
  <g class="step" id="step15" data-narration="Key points: dual-mode protects system, system calls bridge user-kernel, interrupts enable async events, OS manages all resources efficiently.">
    <rect x="40" y="1680" width="720" height="60" rx="8" fill="url(#blueGrad)" filter="url(#shadow)"/>
    <text x="400" y="1705" text-anchor="middle" class="title-text">Key Takeaways</text>
    <text x="400" y="1725" text-anchor="middle" font-size="11" fill="#fff">Dual-Mode Operation | System Calls | Interrupts | Process and Memory Management | Resource Management</text>
  </g>

  <style>
    .animated-line {
      stroke-dasharray: 300;
      stroke-dashoffset: 300;
      animation: drawLine 1.5s ease-out forwards;
    }
  </style>
</svg>