<svg width="420" height="400" xmlns="http://www.w3.org/2000/svg" data-topic-id="text-book-sections-81">
  <defs>
    <linearGradient id="pastel-gradient" x1="0%" y1="0%" x2="100%" y2="0%">
      <stop offset="0%" stop-color="#C7B8EA" stop-opacity="1"/>
      <stop offset="100%" stop-color="#C5CAE9" stop-opacity="1"/>
    </linearGradient>
  </defs>
  <rect fill="url(#pastel-gradient)" width="420" height="400" rx="10"/>
  <g transform="translate(10, 20)">
    <rect width="100" height="20" fill="#3498DB" rx="5"/>
    <text x="10" y="5" font-size="16" font-family="Arial" fill="#FFFFFF" text-anchor="start">Theory of Computation</text>
    <rect width="100" height="20" fill="#2ecc71" rx="5" transform="translate(120, 20)"/>
    <text x="120" y="5" font-size="16" font-family="Arial" fill="#FFFFFF" text-anchor="start">Module: 10 Hours</text>
    <rect width="100" height="20" fill="#e74c3c" rx="5" transform="translate(240, 20)"/>
    <text x="240" y="5" font-size="16" font-family="Arial" fill="#FFFFFF" text-anchor="start">Topic: TEXT BOOK: Sections 8.1</text>
    <rect width="420" height="150" fill="#fff" rx="10"/>
    <g transform="translate(20, 50)">
      <rect width="40" height="20" fill="#3498DB" rx="5"/>
      <text x="15" y="10" font-size="12" font-family="Arial" fill="#FFFFFF" text-anchor="start">Input</text>
      <rect width="40" height="20" fill="#2ecc71" rx="5" transform="translate(60, 10)"/>
      <text x="55" y="10" font-size="12" font-family="Arial" fill="#FFFFFF" text-anchor="start">Processing</text>
      <rect width="40" height="20" fill="#e74c3c" rx="5" transform="translate(120, 10)"/>
      <text x="125" y="10" font-size="12" font-family="Arial" fill="#FFFFFF" text-anchor="start">Output</text>
      <rect width="40" height="20" fill="#3498DB" rx="5" transform="translate(170, 10)"/>
      <text x="165" y="10" font-size="12" font-family="Arial" fill="#FFFFFF" text-anchor="start">Algorithm</text>
      <rect width="40" height="20" fill="#2ecc71" rx="5" transform="translate(215, 10)"/>
      <text x="240" y="10" font-size="12" font-family="Arial" fill="#FFFFFF" text-anchor="start">Programming Language</text>
      <rect width="40" height="20" fill="#e74c3c" rx="5" transform="translate(270, 10)"/>
      <text x="295" y="10" font-size="12" font-family="Arial" fill="#FFFFFF" text-anchor="start">Computer</text>
    </g>
    <rect width="420" height="50" fill="#fff" rx="10"/>
    <text x="10" y="30" font-size="14" font-family="Arial" fill="#3498DB" text-anchor="start">What is Computation?</text>
    <animateTransform attributeName="transform" type="translate" from="0,0" to="0,50" begin="0s" dur="2s" repeatCount="indefinite"/>
    <g transform="translate(10, 80)">
      <rect width="100" height="20" fill="#3498DB" rx="5"/>
      <text x="10" y="15" font-size="12" font-family="Arial" fill="#FFFFFF" text-anchor="start">Input: The input is the data that is used to start the computation.</text>
      <rect width="100" height="20" fill="#2ecc71" rx="5" transform="translate(60, 15)"/>
      <text x="55" y="15" font-size="12" font-family="Arial" fill="#FFFFFF" text-anchor="start">Processing: The processing phase involves applying a set of rules and algorithms to the input data to produce the output.</text>
      <rect width="100" height="20" fill="#e74c3c" rx="5" transform="translate(120, 15)"/>
      <text x="125" y="15" font-size="12" font-family="Arial" fill="#FFFFFF" text-anchor="start">Output: The output is the result of the computation, which is the final data produced by the processing phase.</text>
      <rect width="40" height="20" fill="#3498DB" rx="5" transform="translate(170, 15)"/>
      <text x="165" y="15" font-size="12" font-family="Arial" fill="#FFFFFF" text-anchor="start">Algorithm</text>
      <rect width="40" height="20" fill="#2ecc71" rx="5" transform="translate(215, 15)"/>
      <text x="240" y="15" font-size="12" font-family="Arial" fill="#FFFFFF" text-anchor="start">Programming Language</text>
      <rect width="40" height="20" fill="#e74c3c" rx="5" transform="translate(270, 15)"/>
      <text x="295" y="15" font-size="12" font-family="Arial" fill="#FFFFFF" text-anchor="start">Computer</text>
    </g>
    <rect width="420" height="50" fill="#fff" rx="10"/>
    <text x="10" y="110" font-size="14" font-family="Arial" fill="#3498DB" text-anchor="start">Types of Computations</text>
    <animateTransform attributeName="transform" type="translate" from="0,0" to="0,170" begin="2s" dur="2s" repeatCount="indefinite"/>
    <g transform="translate(10, 160)">
      <rect width="100" height="20" fill="#3498DB" rx="5"/>
      <text x="10" y="175" font-size="12" font-family="Arial" fill="#FFFFFF" text-anchor="start">Deterministic Computation</text>
      <rect width="100" height="20" fill="#2ecc71" rx="5" transform="translate(60, 175)"/>
      <text x="55" y="175" font-size="12" font-family="Arial" fill="#FFFFFF" text-anchor="start">Non-Deterministic Computation</text>
      <rect width="40" height="20" fill="#3498DB" rx="5" transform="translate(120, 175)"/>
      <text x="105" y="175" font-size="12" font-family="Arial" fill="#FFFFFF" text-anchor="start">Key Concepts</text>
      <rect width="40" height="20" fill="#2ecc71" rx="5" transform="translate(165, 175)"/>
      <text x="205" y="175" font-size="12" font-family="Arial" fill="#FFFFFF" text-anchor="start">Algorithm</text>
      <rect width="40" height="20" fill="#e74c3c" rx="5" transform="translate(215, 175)"/>
      <text x="255" y="175" font-size="12" font-family="Arial" fill="#FFFFFF" text-anchor="start">Programming Language</text>
      <rect width="40" height="20" fill="#3498DB" rx="5" transform="translate(270, 175)"/>
      <text x="310" y="175" font-size="12" font-family="Arial" fill="#FFFFFF" text-anchor="start">Computer</text>
    </g>
    <rect width="420" height="50" fill="#fff" rx="10"/>
    <text x="10" y="220" font-size="14" font-family="Arial" fill="#3498DB" text-anchor="start">Key Concepts</text>
    <animateTransform attributeName="transform" type="translate" from="0,0" to="0,270" begin="4s" dur="2s" repeatCount="indefinite"/>
    <g transform="translate(10, 270)">
      <rect width="100" height="20" fill="#3498DB" rx="5"/>
      <text x="10" y="275" font-size="12" font-family="Arial" fill="#FFFFFF" text-anchor="start">Algorithm</text>
      <rect width="100" height="20" fill="#2ecc71" rx="5" transform="translate(60, 275)"/>
      <text x="55" y="275" font-size="12" font-family="Arial" fill="#FFFFFF" text-anchor="start">Programming Language</text>
      <rect width="40" height="20" fill="#e74c3c" rx="5" transform="translate(120, 275)"/>
      <text x="155" y="275" font-size="12" font-family="Arial" fill="#FFFFFF" text-anchor="start">Computer</text>
      <rect width="40" height="20" fill="#3498DB" rx="5" transform="translate(205, 275)"/>
      <text x="245" y="275" font-size="12" font-family="Arial" fill="#FFFFFF" text-anchor="start">Examples</text>
      <rect width="40" height="20" fill="#2ecc71" rx="5" transform="translate(300, 275)"/>
      <text x="345" y="275" font-size="12" font-family="Arial" fill="#FFFFFF" text-anchor="start">Simple Calculator</text>
      <rect width="40" height="20" fill="#e74c3c" rx="5" transform="translate(385, 275)"/>
      <text x="365" y="275" font-size="12" font-family="Arial" fill="#FFFFFF" text-anchor="start">Chess Game</text>
    </g>
    <rect width="420" height="50" fill="#fff" rx="10"/>
    <text x="10" y="320" font-size="14" font-family="Arial" fill="#3498DB" text-anchor="start">Key Terminology</text>
    <animateTransform attributeName="transform" type="translate" from="0,0" to="0,390" begin="6s" dur="2s" repeatCount="indefinite"/>
    <g transform="translate(10, 390)">
      <rect width="100" height="20" fill="#3498DB" rx="5"/>
      <text x="10" y="395" font-size="12" font-family="Arial" fill="#FFFFFF" text-anchor="start">Algorithm</text>
      <rect width="100" height="20" fill="#2ecc71" rx="5" transform="translate(60, 395)"/>
      <text x="55" y="395" font-size="12" font-family="Arial" fill="#FFFFFF" text-anchor="start">Programming Language</text>
      <rect width="40" height="20" fill="#e74c3c" rx="5" transform="translate(120, 395)"/>
      <text x="155" y="395" font-size="12" font-family="Arial" fill="#FFFFFF" text-anchor="start">Computer</text>
    </g>
  </g>
</svg>