<svg xmlns="http://www.w3.org/2000/svg" width="420" height="400" data-topic-id="hadoop-overview-use-case-of-hadoop-hdfs" viewBox="0 0 420 400">
  <defs>
    <linearGradient id="pastel-gradient" x1="0%" y1="0%" x2="100%" y2="0%">
      <stop offset="0%" stop-color="#c7d2e3" stop-opacity="1"/>
      <stop offset="100%" stop-color="#a9e2f4" stop-opacity="1"/>
    </linearGradient>
  </defs>
  <title>Of Hadoop: Hadoop Overview and Use Case of Hadoop HDFS</title>
  <rect x="10" y="10" width="400" height="50" fill="url(#pastel-gradient)"/>
  <g transform="translate(10, 70)">
    <rect x="0" y="0" width="100" height="40" fill="#3498db" rx="10"/>
    <text x="10" y="10" font-size="18" fill="#ffffff" text-anchor="start">What is Hadoop?</text>
    <animateTransform attributeName="transform" type="translate" begin="0s" dur="2s" repeatCount="indefinite"/>
  </g>
  <g transform="translate(10, 130)">
    <rect x="0" y="0" width="100" height="40" fill="#3498db" rx="10"/>
    <text x="10" y="10" font-size="18" fill="#ffffff" text-anchor="start">Why Hadoop?</text>
    <animateTransform attributeName="transform" type="translate" begin="0.5s" dur="2s" repeatCount="indefinite"/>
  </g>
  <g transform="translate(10, 190)">
    <rect x="0" y="0" width="100" height="40" fill="#3498db" rx="10"/>
    <text x="10" y="10" font-size="18" fill="#ffffff" text-anchor="start">Why not RDBMS?</text>
    <animateTransform attributeName="transform" type="translate" begin="1s" dur="2s" repeatCount="indefinite"/>
  </g>
  <g transform="translate(10, 250)">
    <rect x="0" y="0" width="100" height="40" fill="#3498db" rx="10"/>
    <text x="10" y="10" font-size="18" fill="#ffffff" text-anchor="start">RDBMS vs Hadoop</text>
    <animateTransform attributeName="transform" type="translate" begin="1.5s" dur="2s" repeatCount="indefinite"/>
  </g>
  <g transform="translate(10, 310)">
    <rect x="0" y="0" width="100" height="40" fill="#3498db" rx="10"/>
    <text x="10" y="10" font-size="18" fill="#ffffff" text-anchor="start">Hadoop Overview</text>
    <animateTransform attributeName="transform" type="translate" begin="2s" dur="2s" repeatCount="indefinite"/>
  </g>
  <g transform="translate(10, 370)">
    <rect x="0" y="0" width="100" height="40" fill="#3498db" rx="10"/>
    <text x="10" y="10" font-size="18" fill="#ffffff" text-anchor="start">Use Case of Hadoop HDFS</text>
    <animateTransform attributeName="transform" type="translate" begin="2.5s" dur="2s" repeatCount="indefinite"/>
  </g>
  <g transform="translate(10, 10)">
    <rect x="0" y="0" width="100" height="40" fill="#3498db" rx="10"/>
    <text x="10" y="10" font-size="18" fill="#ffffff" text-anchor="start">Why Hadoop?</text>
    <animateTransform attributeName="transform" type="translate" begin="0s" dur="2s" repeatCount="indefinite"/>
    <line x1="120" y1="20" x2="120" y2="40" stroke="#3498db" stroke-width="2" marker-end="url(#arrow)"/>
    <text x="130" y="30" font-size="14" fill="#ffffff" text-anchor="start">Scalability</text>
  </g>
  <g transform="translate(10, 60)">
    <rect x="0" y="0" width="100" height="40" fill="#3498db" rx="10"/>
    <text x="10" y="10" font-size="18" fill="#ffffff" text-anchor="start">Why not RDBMS?</text>
    <animateTransform attributeName="transform" type="translate" begin="0.5s" dur="2s" repeatCount="indefinite"/>
    <line x1="120" y1="20" x2="120" y2="40" stroke="#3498db" stroke-width="2" marker-end="url(#arrow)"/>
    <text x="130" y="30" font-size="14" fill="#ffffff" text-anchor="start">Data size limitations</text>
  </g>
  <g transform="translate(10, 110)">
    <rect x="0" y="0" width="100" height="40" fill="#3498db" rx="10"/>
    <text x="10" y="10" font-size="18" fill="#ffffff" text-anchor="start">Why not RDBMS?</text>
    <animateTransform attributeName="transform" type="translate" begin="1s" dur="2s" repeatCount="indefinite"/>
    <line x1="120" y1="20" x2="120" y2="40" stroke="#3498db" stroke-width="2" marker-end="url(#arrow)"/>
    <text x="130" y="30" font-size="14" fill="#ffffff" text-anchor="start">Data structure limitations</text>
  </g>
  <g transform="translate(10, 160)">
    <rect x="0" y="0" width="100" height="40" fill="#3498db" rx="10"/>
    <text x="10" y="10" font-size="18" fill="#ffffff" text-anchor="start">RDBMS vs Hadoop</text>
    <animateTransform attributeName="transform" type="translate" begin="1.5s" dur="2s" repeatCount="indefinite"/>
    <line x1="120" y1="20" x2="120" y2="40" stroke="#3498db" stroke-width="2" marker-end="url(#arrow)"/>
    <text x="130" y="30" font-size="14" fill="#ffffff" text-anchor="start">Scalability</text>
  </g>
  <g transform="translate(10, 210)">
    <rect x="0" y="0" width="100" height="40" fill="#3498db" rx="10"/>
    <text x="10" y="10" font-size="18" fill="#ffffff" text-anchor="start">RDBMS vs Hadoop</text>
    <animateTransform attributeName="transform" type="translate" begin="2s" dur="2s" repeatCount="indefinite"/>
    <line x1="120" y1="20" x2="120" y2="40" stroke="#3498db" stroke-width="2" marker-end="url(#arrow)"/>
    <text x="130" y="30" font-size="14" fill="#ffffff" text-anchor="start">Flexibility</text>
  </g>
  <g transform="translate(10, 260)">
    <rect x="0" y="0" width="100" height="40" fill="#3498db" rx="10"/>
    <text x="10" y="10" font-size="18" fill="#ffffff" text-anchor="start">RDBMS vs Hadoop</text>
    <animateTransform attributeName="transform" type="translate" begin="2.5s" dur="2s" repeatCount="indefinite"/>
    <line x1="120" y1="20" x2="120" y2="40" stroke="#3498db" stroke-width="2" marker-end="url(#arrow)"/>
    <text x="130" y="30" font-size="14" fill="#ffffff" text-anchor="start">Cost-effectiveness</text>
  </g>
  <g transform="translate(10, 310)">
    <rect x="0" y="0" width="100" height="40" fill="#3498db" rx="10"/>
    <text x="10" y="10" font-size="18" fill="#ffffff" text-anchor="start">Hadoop Overview</text>
    <animateTransform attributeName="transform" type="translate" begin="3s" dur="2s" repeatCount="indefinite"/>
    <line x1="120" y1="20" x2="120" y2="40" stroke="#3498db" stroke-width="2" marker-end="url(#arrow)"/>
    <text x="130" y="30" font-size="14" fill="#ffffff" text-anchor="start">HDFS</text>
  </g>
  <g transform="translate(10, 370)">
    <rect x="0" y="0" width="100" height="40" fill="#3498db" rx="10"/>
    <text x="10" y="10" font-size="18" fill="#ffffff" text-anchor="start">Use Case of Hadoop HDFS</text>
    <animateTransform attributeName="transform" type="translate" begin="3.5s" dur="2s" repeatCount="indefinite"/>
    <line x1="120" y1="20" x2="120" y2="40" stroke="#3498db" stroke-width="2" marker-end="url(#arrow)"/>
    <text x="130" y="30" font-size="14" fill="#ffffff" text-anchor="start">Massive amounts of data</text>
  </g>
  <g transform="translate(10, 10)">
    <rect x="0" y="0" width="100" height="40" fill="#3498db" rx="10"/>
    <text x="10" y="10" font-size="18" fill="#ffffff" text-anchor="start">Advantages of Hadoop</text>
    <animateTransform attributeName="transform" type="translate" begin="0s" dur="2s" repeatCount="indefinite"/>
    <line x1="120" y1="20" x2="120" y2="40" stroke="#3498db" stroke-width="2" marker-end="url(#arrow)"/>
    <text x="130" y="30" font-size="14" fill="#ffffff" text-anchor="start">Scalability</text>
  </g>
  <g transform="translate(10, 60)">
    <rect x="0" y="0" width="100" height="40" fill="#3498db" rx="10"/>
    <text x="10" y="10" font-size="18" fill="#ffffff" text-anchor="start">Why not RDBMS?</text>
    <animateTransform attributeName="transform" type="translate" begin="0.5s" dur="2s" repeatCount="indefinite"/>
    <line x1="120" y1="20" x2="120" y2="40" stroke="#3498db" stroke-width="2" marker-end="url(#arrow)"/>
    <text x="130" y="30" font-size="14" fill="#ffffff" text-anchor="start">Data size limitations</text>
  </g>
  <g transform="translate(10, 110)">
    <rect x="0" y="0" width="100" height="40" fill="#3498db" rx="10"/>
    <text x="10" y="10" font-size="18" fill="#ffffff" text-anchor="start">Why not RDBMS?</text>
    <animateTransform attributeName="transform" type="translate" begin="1s" dur="2s" repeatCount="indefinite"/>
    <line x1="120" y1="20" x2="120" y2="40" stroke="#3498db" stroke-width="2" marker-end="url(#arrow)"/>
    <text x="130" y="30" font-size="14" fill="#ffffff" text-anchor="start">Data structure limitations</text>
  </g>
  <g transform="translate(10, 160)">
    <rect x="0" y="0" width="100" height="40" fill="#3498db" rx="10"/>
    <text x="10" y="10" font-size="18" fill="#ffffff" text-anchor="start">RDBMS vs Hadoop</text>
    <animateTransform attributeName="transform" type="translate" begin="1.5s" dur="2s" repeatCount="indefinite"/>
    <line x1="120" y1="20" x2="120" y2="40" stroke="#3498db" stroke-width="2" marker-end="url(#arrow)"/>
    <text x="130" y="30" font-size="14" fill="#ffffff" text-anchor="start">Scalability</text>
  </g>
  <g transform="translate(10, 210)">
    <rect x="0" y="0" width="100" height="40" fill="#3498db" rx="10"/>
    <text x="10" y="10" font-size="18" fill="#ffffff" text-anchor="start">RDBMS vs Hadoop</text>
    <animateTransform attributeName="transform" type="translate" begin="2s" dur="2s" repeatCount="indefinite"/>
    <line x1="120" y1="20" x2="120" y2="40" stroke="#3498db" stroke-width="2" marker-end="url(#arrow)"/>
    <text x="130" y="30" font-size="14" fill="#ffffff" text-anchor="start">Flexibility</text>
  </g>
  <g transform="translate(10, 260)">
    <rect x="0" y="0" width="100" height="40" fill="#3498db" rx="10"/>
    <text x="10" y="10" font-size="18" fill="#ffffff" text-anchor="start">RDBMS vs Hadoop</text>
    <animateTransform attributeName="transform" type="translate" begin="2.5s" dur="2s" repeatCount="indefinite"/>
    <line x1="120" y1="20" x2="120" y2="40" stroke="#3498db" stroke-width="2" marker-end="url(#arrow)"/>
    <text x="130" y="30" font-size="14" fill="#ffffff" text-anchor="start">Cost-effectiveness</text>
  </g>
  <g transform="translate(10, 310)">
    <rect x="0" y="0" width="100" height="40" fill="#3498db" rx="10"/>
    <text x="10" y="10" font-size="18" fill="#ffffff" text-anchor="start">Hadoop Overview</text>
    <animateTransform attributeName="transform" type="translate" begin="3s" dur="2s" repeatCount="indefinite"/>
    <line x1="120" y1="20" x2="120" y2="40" stroke="#3498db" stroke-width="2" marker-end="url(#arrow)"/>
    <text x="130" y="30" font-size="14" fill="#ffffff" text-anchor="start">HDFS</text>
  </g>
  <g transform="translate(10, 370)">
    <rect x="0" y="0" width="100" height="40" fill="#3498db" rx="10"/>
    <text x="10" y="10" font-size="18" fill="#ffffff" text-anchor="start">Use Case of Hadoop HDFS</text>
    <animateTransform attributeName="transform" type="translate" begin="3.5s" dur="2s" repeatCount="indefinite"/>
    <line x1="120" y1="20" x2="120" y2="40" stroke="#3498db" stroke-width="2" marker-end="url(#arrow)"/>
    <text x="130" y="30" font-size="14" fill="#ffffff" text-anchor="start">Massive amounts of data</text>
  </g>
  <rect x="10" y="10" width="400" height="50" fill="#3498db" rx="10"/>
  <text x="20" y="20" font-size="24" fill="#ffffff" text-anchor="start">Hadoop Overview and Use Case of Hadoop HDFS</text>
  <rect x="10" y="360" width="400" height="40" fill="#3498db" rx="10"/>
  <text x="20" y="370" font-size="18" fill="#ffffff" text-anchor="start">Footer</text>
</svg>