<svg xmlns="http://www.w3.org/2000/svg" width="420" height="400" viewBox="0 0 420 400" data-topic-id="binary-relations-properties">
  <defs>
    <linearGradient id="bgGradient" x1="0%" y1="0%" x2="100%" y2="100%">
      <stop offset="0%" style="stop-color:#e8f4f8;stop-opacity:1" />
      <stop offset="100%" style="stop-color:#d4e8f0;stop-opacity:1" />
    </linearGradient>
    <linearGradient id="cardGradient1" x1="0%" y1="0%" x2="100%" y2="100%">
      <stop offset="0%" style="stop-color:#fff5e6;stop-opacity:1" />
      <stop offset="100%" style="stop-color:#ffe0cc;stop-opacity:1" />
    </linearGradient>
    <linearGradient id="cardGradient2" x1="0%" y1="0%" x2="100%" y2="100%">
      <stop offset="0%" style="stop-color:#e6f5e6;stop-opacity:1" />
      <stop offset="100%" style="stop-color:#cce6cc;stop-opacity:1" />
    </linearGradient>
    <linearGradient id="cardGradient3" x1="0%" y1="0%" x2="100%" y2="100%">
      <stop offset="0%" style="stop-color:#e6e6ff;stop-opacity:1" />
      <stop offset="100%" style="stop-color:#ccccff;stop-opacity:1" />
    </linearGradient>
    <linearGradient id="cardGradient4" x1="0%" y1="0%" x2="100%" y2="100%">
      <stop offset="0%" style="stop-color:#fff0e6;stop-opacity:1" />
      <stop offset="100%" style="stop-color:#ffd9cc;stop-opacity:1" />
    </linearGradient>
    <filter id="shadow" x="-20%" y="-20%" width="140%" height="140%">
      <feDropShadow dx="2" dy="2" stdDeviation="3" flood-color="#888" flood-opacity="0.3"/>
    </filter>
  </defs>
  
  <style>
    @keyframes fadeIn {
      0% { opacity: 0; }
      100% { opacity: 1; }
    }
    @keyframes slideIn {
      0% { transform: translateX(-20px); opacity: 0; }
      100% { transform: translateX(0); opacity: 1; }
    }
    @keyframes pulse {
      0%, 100% { transform: scale(1); }
      50% { transform: scale(1.05); }
    }
    @keyframes drawLine {
      0% { stroke-dashoffset: 100; }
      100% { stroke-dashoffset: 0; }
    }
    .title-text { font-family: 'Segoe UI', Arial, sans-serif; font-size: 20px; font-weight: bold; fill: #2c3e50; }
    .label-text { font-family: 'Segoe UI', Arial, sans-serif; font-size: 14px; font-weight: 600; fill: #34495e; }
    .detail-text { font-family: 'Segoe UI', Arial, sans-serif; font-size: 11px; fill: #555; }
    .property-title { font-family: 'Segoe UI', Arial, sans-serif; font-size: 13px; font-weight: bold; fill: #2c3e50; }
    .property-desc { font-family: 'Segoe UI', Arial, sans-serif; font-size: 10px; fill: #555; }
    .card { filter: url(#shadow); }
    .anim-fade { animation: fadeIn 1s ease-out forwards; }
    .anim-slide { animation: slideIn 0.8s ease-out forwards; }
    .anim-pulse { animation: pulse 2s ease-in-out infinite; }
    .matrix-cell { font-family: monospace; font-size: 10px; fill: #333; }
  </style>
  
  <!-- Background -->
  <rect x="0" y="0" width="420" height="400" fill="url(#bgGradient)"/>
  
  <!-- Title Section -->
  <g class="anim-fade">
    <text x="210" y="28" text-anchor="middle" class="title-text">Binary Relations Properties</text>
    <line x1="60" y1="38" x2="360" y2="38" stroke="#3498db" stroke-width="2"/>
  </g>
  
  <!-- Definition Box -->
  <g class="anim-slide" data-narration="A binary relation R from set A to B is a subset of A×B. If (a,b)∈R, we write aRb.">
    <rect x="10" y="50" width="200" height="55" rx="5" fill="url(#cardGradient1)" stroke="#e67e22" stroke-width="1"/>
    <text x="20" y="68" class="label-text">Binary Relation R on A</text>
    <text x="20" y="82" class="detail-text">R ⊆ A × A (subset of Cartesian product)</text>
    <text x="20" y="96" class="detail-text">If (a,b)∈R, then aRb (a related to b)</text>
  </g>
  
  <!-- Property 1: Reflexive -->
  <g class="anim-fade" data-narration="Reflexive: For all a∈A, (a,a)∈R. Every element is related to itself.">
    <rect x="10" y="115" width="95" height="70" rx="5" fill="url(#cardGradient2)" stroke="#27ae60" stroke-width="1" class="card"/>
    <text x="20" y="133" class="property-title">Reflexive</text>
    <text x="20" y="147" class="property-desc">∀a∈A: aRa</text>
    <text x="20" y="160" class="property-desc">Diagonal elements</text>
    <text x="20" y="173" class="property-desc">are ALL 1s</text>
    <!-- Matrix visualization -->
    <g transform="translate(60, 135)">
      <rect x="0" y="0" width="35" height="35" fill="#fff" stroke="#27ae60" stroke-width="0.5"/>
      <text x="3" y="10" class="matrix-cell">1</text><text x="13" y="10" class="matrix-cell">0</text><text x="23" y="10" class="matrix-cell">0</text>
      <text x="3" y="20" class="matrix-cell">0</text><text x="13" y="20" class="matrix-cell">1</text><text x="23" y="20" class="matrix-cell">0</text>
      <text x="3" y="30" class="matrix-cell">0</text><text x="13" y="30" class="matrix-cell">0</text><text x="23" y="30" class="matrix-cell">1</text>
    </g>
  </g>
  
  <!-- Property 2: Symmetric -->
  <g class="anim-fade" data-narration="Symmetric: If aRb, then bRa. Pairs mirror across the diagonal.">
    <rect x="115" y="115" width="95" height="70" rx="5" fill="url(#cardGradient3)" stroke="#8e44ad" stroke-width="1" class="card"/>
    <text x="125" y="133" class="property-title">Symmetric</text>
    <text x="125" y="147" class="property-desc">aRb ⇒ bRa</text>
    <text x="125" y="160" class="property-desc">Upper triangle =</text>
    <text x="125" y="173" class="property-desc">Lower triangle</text>
    <!-- Matrix visualization -->
    <g transform="translate(165, 135)">
      <rect x="0" y="0" width="35" height="35" fill="#fff" stroke="#8e44ad" stroke-width="0.5"/>
      <text x="3" y="10" class="matrix-cell">1</text><text x="13" y="10" class="matrix-cell">1</text><text x="23" y="10" class="matrix-cell">0</text>
      <text x="3" y="20" class="matrix-cell">1</text><text x="13" y="20" class="matrix-cell">1</text><text x="23" y="20" class="matrix-cell">1</text>
      <text x="3" y="30" class="matrix-cell">0</text><text x="13" y="30" class="matrix-cell">1</text><text x="23" y="30" class="matrix-cell">1</text>
    </g>
  </g>
  
  <!-- Property 3: Antisymmetric -->
  <g class="anim-fade" data-narration="Antisymmetric: If aRb and bRa, then a=b. Only equal elements can be mutually related.">
    <rect x="10" y="195" width="95" height="70" rx="5" fill="url(#cardGradient4)" stroke="#e74c3c" stroke-width="1" class="card"/>
    <text x="20" y="213" class="property-title">Antisymmetric</text>
    <text x="20" y="227" class="property-desc">aRb ∧ bRa ⇒ a=b</text>
    <text x="20" y="240" class="property-desc">If both 1s, then</text>
    <text x="20" y="253" class="property-desc">a must equal b</text>
    <!-- Matrix visualization -->
    <g transform="translate(50, 215)">
      <rect x="0" y="0" width="35" height="35" fill="#fff" stroke="#e74c3c" stroke-width="0.5"/>
      <text x="3" y="10" class="matrix-cell">1</text><text x="13" y="10" class="matrix-cell">1</text><text x="23" y="10" class="matrix-cell">0</text>
      <text x="3" y="20" class="matrix-cell">0</text><text x="13" y="20" class="matrix-cell">1</text><text x="23" y="20" class="matrix-cell">1</text>
      <text x="3" y="30" class="matrix-cell">0</text><text x="13" y="30" class="matrix-cell">0</text><text x="23" y="30" class="matrix-cell">1</text>
    </g>
  </g>
  
  <!-- Property 4: Transitive -->
  <g class="anim-fade" data-narration="Transitive: If aRb and bRc, then aRc. Relations chain together.">
    <rect x="115" y="195" width="95" height="70" rx="5" fill="url(#cardGradient1)" stroke="#f39c12" stroke-width="1" class="card"/>
    <text x="125" y="213" class="property-title">Transitive</text>
    <text x="125" y="227" class="property-desc">aRb ∧ bRc ⇒ aRc</text>
    <text x="125" y="240" class="property-desc">Chain: a→b→c</text>
    <text x="125" y="253" class="property-desc">implies a→c</text>
    <!-- Visual chain -->
    <g transform="translate(155, 220)">
      <circle cx="5" cy="15" r="4" fill="#f39c12"/>
      <circle cx="25" cy="15" r="4" fill="#f39c12"/>
      <circle cx="25" cy="30" r="4" fill="#f39c12"/>
      <line x1="9" y1="15" x2="21" y2="15" stroke="#f39c12" stroke-width="1.5" stroke-dasharray="3,2">
        <animate attributeName="stroke-dashoffset" from="5" to="0" dur="1s" repeatCount="indefinite"/>
      </line>
      <line x1="25" y1="19" x2="25" y2="26" stroke="#f39c12" stroke-width="1.5"/>
      <line x1="9" y1="15" x2="21" y2="30" stroke="#e74c3c" stroke-width="1.5" stroke-dasharray="3,2">
        <animate attributeName="stroke-dashoffset" from="5" to="0" dur="1.5s" repeatCount="indefinite"/>
      </line>
      <text x="-5" y="18" class="detail-text" fill="#555">a</text>
      <text x="30" y="18" class="detail-text" fill="#555">b</text>
      <text x="30" y="33" class="detail-text" fill="#555">c</text>
    </g>
  </g>
  
  <!-- Special Relations Section -->
  <g class="anim-fade" data-narration="Important special relations: Equivalence relations are reflexive, symmetric, and transitive. Partial orders are reflexive, antisymmetric, and transitive.">
    <rect x="220" y="50" width="190" height="130" rx="5" fill="#f8f9fa" stroke="#3498db" stroke-width="1.5" class="card"/>
    <text x="230" y="70" class="property-title" fill="#2980b9">Special Relations</text>
    <line x1="230" y1="78" x2="400" y2="78" stroke="#3498db" stroke-width="1"/>
    
    <!-- Equivalence Relation -->
    <g>
      <rect x="230" y="85" width="85" height="40" rx="3" fill="#d5f5e3" stroke="#27ae60" stroke-width="1"/>
      <text x="238" y="100" class="label-text" font-size="11">Equivalence</text>
      <text x="238" y="113" class="detail-text">Reflexive + Symmetric</text>
      <text x="238" y="122" class="detail-text">+ Transitive</text>
    </g>
    
    <!-- Partial Order -->
    <g>
      <rect x="325" y="85" width="80" height="40" rx="3" fill="#fdebd0" stroke="#e67e22" stroke-width="1"/>
      <text x="333" y="100" class="label-text" font-size="11">Partial Order</text>
      <text x="333" y="113" class="detail-text">Reflexive +</text>
      <text x="333" y="122" class="detail-text">Antisymmetric + Trans.</text>
    </g>
    
    <!-- Arrow relationship -->
    <defs>
      <marker id="arrowhead" markerWidth="10" markerHeight="7" refX="9" refY="3.5" orient="auto">
        <polygon points="0 0, 10 3.5, 0 7" fill="#3498db"/>
      </marker>
    </defs>
    <line x1="315" y1="145" x2="325" y2="145" stroke="#3498db" stroke-width="1.5" marker-end="url(#arrowhead)"/>
    <text x="272" y="165" class="label-text" font-size="11" fill="#7f8c8d">Important in:</text>
    <text x="272" y="178" class="detail-text">• Database theory</text>
    <text x="272" y="190" class="detail-text">• Graph algorithms</text>
  </g>
  
  <!-- Matrix Key Legend -->
  <g class="anim-fade" data-narration="The matrix representation shows relation pairs. Rows represent 'from' elements, columns represent 'to' elements.">
    <rect x="220" y="190" width="190" height="75" rx="5" fill="#ecf0f1" stroke="#95a5a6" stroke-width="1"/>
    <text x="230" y="208" class="property-title" fill="#7f8c8d">Matrix Key</text>
    <text x="230" y="222" class="detail-text">Rows = "from" element</text>
    <text x="230" y="234" class="detail-text">Cols = "to" element</text>
    <text x="230" y="246" class="detail-text">1 = related, 0 = not related</text>
    
    <!-- Mini matrix example -->
    <g transform="translate(340, 212)">
      <rect x="0" y="0" width="30" height="30" fill="#fff" stroke="#7f8c8d" stroke-width="0.5"/>
      <text x="5" y="10" class="matrix-cell" font-size="8">a</text><text x="15" y="10" class="matrix-cell" font-size="8">b</text><text x="25" y="10" class="matrix-cell" font-size="8">c</text>
      <text x="5" y="20" class="matrix-cell" font-size="8">a</text><text x="5" y="30" class="matrix-cell" font-size="8">b</text>
      <rect x="10" y="10" width="8" height="8" fill="#27ae60"/>
      <rect x="20" y="20" width="8" height="8" fill="#27ae60"/>
    </g>
  </g>
  
  <!-- Example Set -->
  <g class="anim-fade" data-narration="Example set A = {1, 2, 3} with various relation examples">
    <rect x="10" y="275" width="400" height="115" rx="5" fill="#fef9e7" stroke="#f1c40f" stroke-width="1.5"/>
    <text x="20" y="295" class="property-title" fill="#9a7d0a">Examples on A = {1, 2, 3}</text>
    
    <!-- Example 1 -->
    <g>
      <text x="20" y="315" class="detail-text" font-weight="600">R1 = {(1,1), (2,2), (3,3)}</text>
      <text x="20" y="328" class="detail-text">Reflexive only</text>
      <rect x="130" y="318" width="12" height="12" fill="#fff" stroke="#27ae60" stroke-width="0.5"/>
      <text x="133" y="327" class="matrix-cell">1</text><text x="143" y="327" class="matrix-cell">0</text><text x="153" y="327" class="matrix-cell">0</text>
      <text x="133" y="337" class="matrix-cell">0</text><text x="143" y="337" class="matrix-cell">1</text><text x="153" y="337" class="matrix-cell">0</text>
      <text x="133" y="347" class="matrix-cell">0</text><text x="143" y="347" class="matrix-cell">0</text><text x="153" y="347" class="matrix-cell">1</text>
    </g>
    
    <!-- Example 2 -->
    <g>
      <text x="180" y="315" class="detail-text" font-weight="600">R2 = {(1,2), (2,1), (2,3), (3,2)}</text>
      <text x="180" y="328" class="detail-text">Symmetric only</text>
      <rect x="295" y="318" width="12" height="12" fill="#fff" stroke="#8e44ad" stroke-width="0.5"/>
      <text x="298" y="327" class="matrix-cell">0</text><text x="308" y="327" class="matrix-cell">1</text><text x="318" y="327" class="matrix-cell">0</text>
      <text x="298" y="337" class="matrix-cell">1</text><text x="308" y="337" class="matrix-cell">0</text><text x="318" y="337" class="matrix-cell">1</text>
      <text x="298" y="347" class="matrix-cell">0</text><text x="308" y="347" class="matrix-cell">1</text><text x="318" y="347" class="matrix-cell">0</text>
    </g>
    
    <!-- Example 3 -->
    <g>
      <text x="20" y="358" class="detail-text" font-weight="600">R3 = {(1,1), (1,2), (2,2), (2,3), (3,3)}</text>
      <text x="20" y="371" class="detail-text">Partial Order (≤)</text>
      <rect x="295" y="358" width="12" height="12" fill="#fff" stroke="#e67e22" stroke-width="0.5"/>
      <text x="298" y="367" class="matrix-cell">1</text><text x="308" y="367" class="matrix-cell">1</text><text x="318" y="367" class="matrix-cell">0</text>
      <text x="298" y="377" class="matrix-cell">0</text><text x="308" y="377" class="matrix-cell">1</text><text x="318" y="377" class="matrix-cell">1</text>
      <text x="298" y="387" class="matrix-cell">0</text><text x="308" y="387" class="matrix-cell">0</text><text x="318" y="387" class="matrix-cell">1</text>
    </g>
    
    <!-- Example 4 -->
    <g>
      <text x="180" y="358" class="detail-text" font-weight="600">R4 = {(1,2), (2,3), (1,3)}</text>
      <text x="180" y="371" class="detail-text">Transitive only</text>
    </g>
  </g>
  
  <!-- Animated highlight circles for emphasis -->
  <circle cx="57" cy="157" r="8" fill="none" stroke="#27ae60" stroke-width="2" class="anim-pulse"/>
  <circle cx="192" cy="157" r="8" fill="none" stroke="#8e44ad" stroke-width="2" class="anim-pulse"/>
  
</svg>