<svg width="420" height="400" data-topic-id="Coordination-And-Agreement-In-Group-Communication" xmlns="http://www.w3.org/2000/svg">
  <defs>
    <linearGradient id="pastel-gradient" x1="0%" y1="0%" x2="0%" y2="100%" color-stop="0%" color="#C9E4CA">
      <stop offset="0%" stop-color="#B2FFFC"/>
      <stop offset="100%" stop-color="#C9E4CA"/>
    </linearGradient>
  </defs>
  <title>Coordination and Agreement in Group Communication</title>
  <rect fill="url(#pastel-gradient)" width="100%" height="100%" rx="10"/>
  <g transform="translate(10, 50)">
    <rect fill="#F7F7F7" width="80" height="20" rx="5"/>
    <text x="10" y="15" font-size="16" font-family="Arial" font-weight="bold">Introduction</text>
    <rect fill="#F7F7F7" width="80" height="20" rx="5" transform="translate(0, 40)"/>
    <text x="10" y="35" font-size="16" font-family="Arial" font-weight="bold">Distributed Mutual Exclusion</text>
    <rect fill="#F7F7F7" width="80" height="20" rx="5" transform="translate(0, 65)"/>
    <text x="10" y="75" font-size="16" font-family="Arial" font-weight="bold">Coordination Protocols</text>
    <rect fill="#F7F7F7" width="80" height="20" rx="5" transform="translate(0, 100)"/>
    <text x="10" y="120" font-size="16" font-family="Arial" font-weight="bold">Token-based, Lock-based, Leader-based Protocols</text>
    <rect fill="#F7F7F7" width="80" height="20" rx="5" transform="translate(0, 145)"/>
    <text x="10" y="165" font-size="16" font-family="Arial" font-weight="bold">Example: Distributed File System</text>
    <rect fill="#F7F7F7" width="80" height="20" rx="5" transform="translate(0, 190)"/>
    <text x="10" y="215" font-size="16" font-family="Arial" font-weight="bold">Conclusion</text>
  </g>
  <g transform="translate(10, 250)">
    <rect fill="#F7F7F7" width="80" height="20" rx="5"/>
    <text x="10" y="15" font-size="16" font-family="Arial" font-weight="bold">References</text>
  </g>
  <g transform="translate(10, 285)">
    <rect fill="#F7F7F7" width="80" height="20" rx="5"/>
    <text x="10" y="15" font-size="16" font-family="Arial" font-weight="bold">Footnotes</text>
  </g>
</svg>