<svg xmlns="http://www.w3.org/2000/svg" viewBox="0 0 800 1560">
  <defs>
    <!-- Gradients -->
    <linearGradient id="blueGrad" x1="0%" y1="0%" x2="100%" y2="100%">
      <stop offset="0%" style="stop-color:#e3f2fd"/>
      <stop offset="100%" style="stop-color:#bbdefb"/>
    </linearGradient>
    <linearGradient id="greenGrad" x1="0%" y1="0%" x2="100%" y2="100%">
      <stop offset="0%" style="stop-color:#e8f5e9"/>
      <stop offset="100%" style="stop-color:#c8e6c9"/>
    </linearGradient>
    <linearGradient id="orangeGrad" x1="0%" y1="0%" x2="100%" y2="100%">
      <stop offset="0%" style="stop-color:#fff3e0"/>
      <stop offset="100%" style="stop-color:#ffe0b2"/>
    </linearGradient>
    <linearGradient id="purpleGrad" x1="0%" y1="0%" x2="100%" y2="100%">
      <stop offset="0%" style="stop-color:#f3e5f5"/>
      <stop offset="100%" style="stop-color:#e1bee7"/>
    </linearGradient>
    <linearGradient id="redGrad" x1="0%" y1="0%" x2="100%" y2="100%">
      <stop offset="0%" style="stop-color:#ffebee"/>
      <stop offset="100%" style="stop-color:#ffcdd2"/>
    </linearGradient>
    <linearGradient id="headerGrad" x1="0%" y1="0%" x2="100%" y2="0%">
      <stop offset="0%" style="stop-color:#1976d2"/>
      <stop offset="100%" style="stop-color:#1565c0"/>
    </linearGradient>
    
    <!-- Shadow filter -->
    <filter id="shadow" x="-10%" y="-10%" width="120%" height="120%">
      <feDropShadow dx="2" dy="2" stdDeviation="3" flood-opacity="0.15"/>
    </filter>
    
    <!-- Arrow marker -->
    <marker id="arrowBlue" markerWidth="10" markerHeight="10" refX="9" refY="3" orient="auto">
      <path d="M0,0 L0,6 L9,3 z" fill="#1976d2"/>
    </marker>
    <marker id="arrowGreen" markerWidth="10" markerHeight="10" refX="9" refY="3" orient="auto">
      <path d="M0,0 L0,6 L9,3 z" fill="#388e3c"/>
    </marker>
    <marker id="arrowOrange" markerWidth="10" markerHeight="10" refX="9" refY="3" orient="auto">
      <path d="M0,0 L0,6 L9,3 z" fill="#ff9800"/>
    </marker>
  </defs>
  
  <style>
    @keyframes fadeInSlide {
      from { opacity: 0; transform: translateY(20px); }
      to { opacity: 1; transform: translateY(0); }
    }
    @keyframes scaleIn {
      from { opacity: 0; transform: scale(0.85); }
      to { opacity: 1; transform: scale(1); }
    }
    @keyframes textReveal {
      from { opacity: 0; transform: translateX(-10px); }
      to { opacity: 1; transform: translateX(0); }
    }
    @keyframes pulse {
      0%, 100% { transform: scale(1); }
      50% { transform: scale(1.03); }
    }
    @keyframes drawLine {
      from { stroke-dashoffset: 300; }
      to { stroke-dashoffset: 0; }
    }
    @keyframes fillBar {
      from { width: 0; }
      to { width: var(--target-width); }
    }
    .step { animation: fadeInSlide 0.6s ease-out; }
    .step rect { animation: scaleIn 0.5s cubic-bezier(0.34, 1.56, 0.64, 1); transform-origin: center; }
    .step text { animation: textReveal 0.4s ease-out 0.2s backwards; }
    .animated-line { stroke-dasharray: 300; stroke-dashoffset: 300; animation: drawLine 1.5s ease-out forwards; }
    .pulse { animation: pulse 2s ease-in-out infinite; }
  </style>
  
  <!-- Background -->
  <rect width="800" height="1560" fill="#f8f9fa"/>
  
  <!-- Header -->
  <g class="step" id="step0" data-narration="Frame buffer is the core of modern display systems, storing pixel data for screen display.">
    <rect x="20" y="10" width="760" height="45" rx="8" fill="url(#headerGrad)" filter="url(#shadow)"/>
    <text x="400" y="42" font-family="Arial, sans-serif" font-size="20" font-weight="bold" fill="white" text-anchor="middle">Setting Frame Buffer Values</text>
  </g>

  <!-- SECTION 1: INTRODUCTION (y=60-260) -->
  
  <!-- Step 1: What is Frame Buffer -->
  <g class="step" id="step1" data-narration="A frame buffer is dedicated memory storing complete image data. Each pixel's color is mapped directly to screen positions.">
    <rect x="20" y="60" width="760" height="90" rx="8" fill="url(#blueGrad)" filter="url(#shadow)"/>
    <text x="40" y="85" font-family="Arial" font-size="14" font-weight="bold" fill="#1565c0">What is a Frame Buffer?</text>
    <text x="40" y="108" font-family="Arial" font-size="11" fill="#333">A dedicated video memory array that stores pixel values representing</text>
    <text x="40" y="122" font-family="Arial" font-size="11" fill="#333">the complete image to be displayed on screen.</text>
    
    <!-- Visual: Frame buffer representation -->
    <rect x="450" y="70" width="180" height="70" rx="4" fill="white" stroke="#1976d2" stroke-width="2"/>
    <rect x="460" y="80" width="12" height="10" rx="2" fill="#f44336"/>
    <rect x="476" y="80" width="12" height="10" rx="2" fill="#4caf50"/>
    <rect x="492" y="80" width="12" height="10" rx="2" fill="#2196f3"/>
    <rect x="510" y="80" width="12" height="10" rx="2" fill="#ff9800"/>
    <rect x="528" y="80" width="12" height="10" rx="2" fill="#9c27b0"/>
    <rect x="546" y="80" width="12" height="10" rx="2" fill="#00bcd4"/>
    <rect x="564" y="80" width="12" height="10" rx="2" fill="#f44336"/>
    <rect x="582" y="80" width="12" height="10" rx="2" fill="#4caf50"/>
    <rect x="460" y="94" width="12" height="10" rx="2" fill="#ffeb3b"/>
    <rect x="476" y="94" width="12" height="10" rx="2" fill="#e91e63"/>
    <rect x="492" y="94" width="12" height="10" rx="2" fill="#3f51b5"/>
    <rect x="510" y="94" width="12" height="10" rx="2" fill="#009688"/>
    <rect x="528" y="94" width="12" height="10" rx="2" fill="#ff5722"/>
    <rect x="544" y="94" width="60" height="10" rx="2" fill="#607d8b"/>
    <text x="540" y="120" font-family="Arial" font-size="9" fill="#666" text-anchor="middle">Pixels in Memory</text>
    <animate attributeName="opacity" from="0" to="1" dur="0.8s" begin="0.5s" fill="freeze"/>
  </g>

  <!-- Step 2: Frame Buffer Architecture -->
  <g class="step" id="step2" data-narration="The frame buffer is organized as a 2D array matching screen resolution. Each pixel holds RGB or RGBA color data.">
    <rect x="20" y="160" width="760" height="95" rx="8" fill="url(#greenGrad)" filter="url(#shadow)"/>
    <text x="40" y="185" font-family="Arial" font-size="14" font-weight="bold" fill="#2e7d32">Frame Buffer Architecture</text>
    <text x="40" y="208" font-family="Arial" font-size="11" fill="#333">2D array matching screen resolution (e.g., 1920×1080 = 2,073,600 pixels)</text>
    <text x="40" y="225" font-family="Arial" font-size="11" fill="#333">24-bit color: 8 bits each for R, G, B | 32-bit: adds 8-bit Alpha channel</text>
    
    <!-- Visual: Grid representation -->
    <rect x="450" y="175" width="160" height="70" rx="4" fill="white" stroke="#388e3c" stroke-width="1"/>
    <g stroke="#388e3c" stroke-width="0.5" fill="none">
      <line x1="470" y1="175" x2="470" y2="245"/>
      <line x1="490" y1="175" x2="490" y2="245"/>
      <line x1="510" y1="175" x2="510" y2="245"/>
      <line x1="530" y1="175" x2="530" y2="245"/>
      <line x1="550" y1="175" x2="550" y2="245"/>
      <line x1="570" y1="175" x2="570" y2="245"/>
      <line x1="590" y1="175" x2="590" y2="245"/>
      <line x1="610" y1="175" x2="610" y2="245"/>
      <line x1="450" y1="195" x2="610" y2="195"/>
      <line x1="450" y1="215" x2="610" y2="215"/>
      <line x1="450" y1="235" x2="610" y2="235"/>
    </g>
    <text x="530" y="260" font-family="Arial" font-size="9" fill="#666" text-anchor="middle">W × H Pixel Array</text>
  </g>

  <!-- SECTION 2: DEEP DIVE (y=265 onwards) -->
  
  <!-- Step 3: Coordinate System -->
  <g class="step" id="step3" data-narration="Screen coordinates start at top-left (0,0), with Y increasing downward—different from math Cartesian coordinates.">
    <rect x="20" y="265" width="760" height="95" rx="8" fill="url(#orangeGrad)" filter="url(#shadow)"/>
    <text x="40" y="290" font-family="Arial" font-size="14" font-weight="bold" fill="#e65100">Coordinate Systems</text>
    <text x="40" y="313" font-family="Arial" font-size="11" fill="#333">Screen coords: Origin (0,0) at TOP-LEFT, X→ right, Y↓ downward</text>
    <text x="40" y="330" font-family="Arial" font-size="11" fill="#333">Math coords: Origin at center/bottom, Y↑ upward—DIFFERENT from screen!</text>
    
    <!-- Visual: Coordinate comparison -->
    <rect x="450" y="275" width="140" height="75" rx="4" fill="white" stroke="#ff9800" stroke-width="2"/>
    <text x="520" y="290" font-family="Arial" font-size="10" fill="#e65100" text-anchor="middle">Screen Coords</text>
    <!-- Screen coord axes -->
    <line x1="460" y1="335" x2="540" y2="335" stroke="#ff9800" stroke-width="2" marker-end="url(#arrowOrange)"/>
    <line x1="460" y1="335" x2="460" y2="280" stroke="#ff9800" stroke-width="2" marker-end="url(#arrowOrange)"/>
    <circle cx="475" cy="320" r="6" fill="#ff9800"/>
    <text x="480" y="324" font-family="Arial" font-size="8" fill="#333">(x,y)</text>
    <text x="500" y="345" font-family="Arial" font-size="8" fill="#ff9800">X→</text>
    <text x="445" y="300" font-family="Arial" font-size="8" fill="#ff9800">Y↓</text>
    <text x="590" y="285" font-family="Arial" font-size="8" fill="#666" text-anchor="middle">(0,0)</text>
    <text x="590" y="340" font-family="Arial" font-size="8" fill="#666" text-anchor="middle">(W-1, H-1)</text>
  </g>

  <!-- Step 4: Memory Offset Calculation -->
  <g class="step" id="step4" data-narration="To set a pixel, calculate memory offset: offset = y × width + x. Then multiply by bytes per pixel for actual address.">
    <rect x="20" y="370" width="760" height="95" rx="8" fill="url(#purpleGrad)" filter="url(#shadow)"/>
    <text x="40" y="395" font-family="Arial" font-size="14" font-weight="bold" fill="#7b1fa2">Memory Offset Calculation</text>
    <text x="40" y="418" font-family="Arial" font-size="11" fill="#333">offset = y × width + x | For 640×480 buffer, pixel (100,200) → offset = 128,100</text>
    <text x="40" y="435" font-family="Arial" font-size="11" fill="#333">Then multiply by bytes-per-pixel for actual memory address in the frame buffer.</text>
    
    <!-- Visual: Formula -->
    <rect x="450" y="380" width="200" height="75" rx="6" fill="white" stroke="#9c27b0" stroke-width="2"/>
    <text x="550" y="410" font-family="Courier New" font-size="14" fill="#7b1fa2" text-anchor="middle">
      <tspan x="550" dy="0">offset = y × W + x</tspan>
    </text>
    <text x="550" y="435" font-family="Arial" font-size="10" fill="#666" text-anchor="middle">Example: 200×640+100 = 128,100</text>
    
    <!-- Animate the formula appearing -->
    <animate attributeName="opacity" from="0" to="1" dur="0.6s" begin="0.3s" fill="freeze"/>
  </g>

  <!-- Step 5: Color Models - RGB -->
  <g class="step" id="step5" data-narration="RGB model uses Red, Green, Blue channels (0-255 each). Pure colors: Red=(255,0,0), White=(255,255,255).">
    <rect x="20" y="475" width="760" height="95" rx="8" fill="url(#redGrad)" filter="url(#shadow)"/>
    <text x="40" y="500" font-family="Arial" font-size="14" font-weight="bold" fill="#c62828">RGB Color Model</text>
    <text x="40" y="523" font-family="Arial" font-size="11" fill="#333">Each pixel has R, G, B values (0-255). 24-bit: 8 bits per channel</text>
    <text x="40" y="540" font-family="Arial" font-size="11" fill="#333">Grayscale: I = 0.299×R + 0.587×G + 0.114×B</text>
    
    <!-- Visual: RGB color boxes -->
    <rect x="450" y="485" width="50" height="35" rx="4" fill="#f44336"/>
    <rect x="510" y="485" width="50" height="35" rx="4" fill="#4caf50"/>
    <rect x="570" y="485" width="50" height="35" rx="4" fill="#2196f3"/>
    <rect x="640" y="485" width="60" height="35" rx="4" fill="#9e9e9e"/>
    <text x="475" y="505" font-family="Arial" font-size="10" fill="white" text-anchor="middle">Red</text>
    <text x="535" y="505" font-family="Arial" font-size="10" fill="white" text-anchor="middle">Green</text>
    <text x="595" y="505" font-family="Arial" font-size="10" fill="white" text-anchor="middle">Blue</text>
    <text x="670" y="505" font-family="Arial" font-size="9" fill="white" text-anchor="middle">Gray</text>
    <text x="550" y="540" font-family="Courier New" font-size="11" fill="#c62828" text-anchor="middle">I = 0.299R + 0.587G + 0.114B</text>
  </g>

  <!-- Step 6: Color Packing -->
  <g class="step" id="step6" data-narration="RGB values pack into 32-bit integers: packed = (α&lt;&lt;24)|(R&lt;&lt;16)|(G&lt;&lt;8)|B. This enables efficient memory operations.">
    <rect x="20" y="580" width="760" height="95" rx="8" fill="url(#blueGrad)" filter="url(#shadow)"/>
    <text x="40" y="605" font-family="Arial" font-size="14" font-weight="bold" fill="#1565c0">Color Packing into 32-bit Integer</text>
    <text x="40" y="628" font-family="Arial" font-size="11" fill="#333">packed = (alpha &lt;&lt; 24) | (red &lt;&lt; 16) | (green &lt;&lt; 8) | blue</text>
    <text x="40" y="645" font-family="Arial" font-size="11" fill="#333">Example: RGB(180,75,230) + Alpha=255 → 0xFFB44BE6</text>
    
    <!-- Visual: Bit layout -->
    <rect x="450" y="590" width="280" height="75" rx="6" fill="white" stroke="#1976d2" stroke-width="2"/>
    <rect x="460" y="600" width="65" height="20" rx="3" fill="#e3f2fd" stroke="#1976d2"/>
    <text x="492" y="615" font-family="Arial" font-size="9" fill="#1976d2" text-anchor="middle">α (8 bits)</text>
    <rect x="530" y="600" width="65" height="20" rx="3" fill="#ffcdd2" stroke="#f44336"/>
    <text x="562" y="615" font-family="Arial" font-size="9" fill="#c62828" text-anchor="middle">R (8 bits)</text>
    <rect x="600" y="600" width="65" height="20" rx="3" fill="#c8e6c9" stroke="#388e3c"/>
    <text x="632" y="615" font-family="Arial" font-size="9" fill="#2e7d32" text-anchor="middle">G (8 bits)</text>
    <rect x="670" y="600" width="50" height="20" rx="3" fill="#bbdefb" stroke="#2196f3"/>
    <text x="695" y="615" font-family="Arial" font-size="9" fill="#1565c0" text-anchor="middle">B (8 bits)</text>
    <text x="560" y="655" font-family="Courier New" font-size="10" fill="#666" text-anchor="middle">0xFF B4 4B E6</text>
  </g>

  <!-- Step 7: DDA Algorithm Introduction -->
  <g class="step" id="step7" data-narration="DDA (Digital Differential Analyzer) uses incremental calculation to determine pixel positions along a line using floating-point math.">
    <rect x="20" y="685" width="760" height="100" rx="8" fill="url(#greenGrad)" filter="url(#shadow)"/>
    <text x="40" y="710" font-family="Arial" font-size="14" font-weight="bold" fill="#2e7d32">DDA Line Algorithm</text>
    <text x="40" y="733" font-family="Arial" font-size="11" fill="#333">Digital Differential Analyzer: increments along longer axis</text>
    <text x="40" y="750" font-family="Arial" font-size="11" fill="#333">x(k+1) = x(k) + dx/steps, y(k+1) = y(k) + dy/steps</text>
    <text x="40" y="767" font-family="Arial" font-size="11" fill="#333">Steps = max(|dx|, |dy|) for the line from (x1,y1) to (x2,y2)</text>
    
    <!-- Visual: DDA formula -->
    <rect x="450" y="695" width="220" height="80" rx="6" fill="white" stroke="#388e3c" stroke-width="2"/>
    <text x="560" y="720" font-family="Courier New" font-size="12" fill="#2e7d32" text-anchor="middle">dx = x₂ - x₁</text>
    <text x="560" y="740" font-family="Courier New" font-size="12" fill="#2e7d32" text-anchor="middle">dy = y₂ - y₁</text>
    <text x="560" y="760" font-family="Courier New" font-size="11" fill="#666" text-anchor="middle">steps = max(|dx|,|dy|)</text>
  </g>

  <!-- Step 8: DDA Example -->
  <g class="step" id="step8" data-narration="For line from (2,2) to (10,6), DDA calculates: dx=8, dy=4, steps=8, then increments x by 1, y by 0.5 each step.">
    <rect x="20" y="795" width="760" height="100" rx="8" fill="url(#orangeGrad)" filter="url(#shadow)"/>
    <text x="40" y="820" font-family="Arial" font-size="14" font-weight="bold" fill="#e65100">DDA Example: Line (2,2) to (10,6)</text>
    <text x="40" y="843" font-family="Arial" font-size="11" fill="#333">dx=8, dy=4, steps=8 | x_inc=1, y_inc=0.5</text>
    <text x="40" y="860" font-family="Arial" font-size="11" fill="#333">x: 2→3→4→5→6→7→8→9→10</text>
    <text x="40" y="877" font-family="Arial" font-size="11" fill="#333">y: 2→2.5→3→3.5→4→4.5→5→5.5→6</text>
    
    <!-- Visual: DDA result -->
    <rect x="350" y="805" width="150" height="80" rx="6" fill="white" stroke="#ff9800"/>
    <text x="425" y="825" font-family="Arial" font-size="10" fill="#e65100" text-anchor="middle">DDA Output</text>
    <g fill="#ff9800">
      <rect x="365" y="835" width="10" height="10" rx="2"/>
      <rect x="380" y="835" width="10" height="10" rx="2"/>
      <rect x="395" y="845" width="10" height="10" rx="2"/>
      <rect x="410" y="845" width="10" height="10" rx="2"/>
      <rect x="425" y="855" width="10" height="10" rx="2"/>
      <rect x="440" y="855" width="10" height="10" rx="2"/>
      <rect x="455" y="865" width="10" height="10" rx="2"/>
      <rect x="470" y="865" width="10" height="10" rx="2"/>
      <rect x="485" y="875" width="10" height="10" rx="2"/>
    </g>
    <text x="425" y="895" font-family="Arial" font-size="9" fill="#666" text-anchor="middle">9 pixels drawn</text>
  </g>

  <!-- Step 9: Bresenham's Algorithm -->
  <g class="step" id="step9" data-narration="Bresenham's algorithm uses only integer arithmetic for efficiency. It calculates a decision parameter to choose optimal pixels.">
    <rect x="20" y="905" width="760" height="100" rx="8" fill="url(#purpleGrad)" filter="url(#shadow)"/>
    <text x="40" y="930" font-family="Arial" font-size="14" font-weight="bold" fill="#7b1fa2">Bresenham's Line Algorithm</text>
    <text x="40" y="953" font-family="Arial" font-size="11" fill="#333">Uses ONLY integer arithmetic - FASTER than DDA</text>
    <text x="40" y="970" font-family="Arial" font-size="11" fill="#333">Initial p = 2×dy - dx | If p&lt;0: p += 2×dy else: p += 2×dy - 2×dx</text>
    <text x="40" y="987" font-family="Arial" font-size="11" fill="#333">Decision parameter determines whether to step Y or stay flat</text>
    
    <!-- Visual: Decision flowchart -->
    <rect x="450" y="915" width="220" height="80" rx="6" fill="white" stroke="#9c27b0"/>
    <text x="560" y="935" font-family="Arial" font-size="11" fill="#7b1fa2" text-anchor="middle">Decision Parameter</text>
    <rect x="470" y="945" width="80" height="18" rx="3" fill="#f3e5f5" stroke="#9c27b0"/>
    <text x="510" y="958" font-family="Arial" font-size="9" fill="#7b1fa2" text-anchor="middle">p &lt; 0?</text>
    <line x1="510" y1="963" x2="510" y2="975" stroke="#9c27b0" stroke-width="1.5"/>
    <text x="495" y="985" font-family="Arial" font-size="8" fill="#4caf50">YES</text>
    <text x="525" y="985" font-family="Arial" font-size="8" fill="#f44336">NO</text>
    <text x="480" y="992" font-family="Arial" font-size="8" fill="#333">plot lower</text>
    <text x="530" y="992" font-family="Arial" font-size="8" fill="#333">plot upper</text>
  </g>

  <!-- Step 10: Bresenham Example -->
  <g class="step" id="step10" data-narration="For line (2,2) to (10,6): p starts at 0. Trace through: plot each pixel, update p based on sign.">
    <rect x="20" y="1015" width="760" height="100" rx="8" fill="url(#redGrad)" filter="url(#shadow)"/>
    <text x="40" y="1040" font-family="Arial" font-size="14" font-weight="bold" fill="#c62828">Bresenham Example: Line (2,2) to (10,6)</text>
    <text x="40" y="1063" font-family="Arial" font-size="11" fill="#333">dx=8, dy=4, p=2×4-8=0</text>
    <text x="40" y="1080" font-family="Arial" font-size="11" fill="#333">Trace: (2,2)→(3,2)[p=8]→(4,3)[p=0]→(5,3)[p=8]→(6,4)[p=0]→(7,4)[p=8]→(8,5)[p=0]→(9,5)[p=8]→(10,6)</text>
    <text x="40" y="1097" font-family="Arial" font-size="11" fill="#333">Result: (2,2), (3,2), (4,3), (5,3), (6,4), (7,4), (8,5), (9,5), (10,6)</text>
    
    <!-- Visual: Bresenham result grid -->
    <rect x="450" y="1025" width="200" height="80" rx="6" fill="white" stroke="#f44336"/>
    <g fill="#f44336">
      <rect x="460" y="1075" width="10" height="10" rx="2"/>
      <rect x="475" y="1075" width="10" height="10" rx="2"/>
      <rect x="490" y="1060" width="10" height="10" rx="2"/>
      <rect x="505" y="1060" width="10" height="10" rx="2"/>
      <rect x="520" y="1045" width="10" height="10" rx="2"/>
      <rect x="535" y="1045" width="10" height="10" rx="2"/>
      <rect x="550" y="1030" width="10" height="10" rx="2"/>
      <rect x="565" y="1030" width="10" height="10" rx="2"/>
      <rect x="580" y="1015" width="10" height="10" rx="2"/>
    </g>
    <text x="520" y="1110" font-family="Arial" font-size="9" fill="#666" text-anchor="middle">Integer-only calculation</text>
  </g>

  <!-- Step 11: Circle Drawing - Midpoint Algorithm -->
  <g class="step" id="step11" data-narration="Midpoint circle algorithm exploits 8-way symmetry: draw one octant and reflect to get the rest—8x faster!">
    <rect x="20" y="1125" width="760" height="95" rx="8" fill="url(#blueGrad)" filter="url(#shadow)"/>
    <text x="40" y="1150" font-family="Arial" font-size="14" font-weight="bold" fill="#1565c0">Midpoint Circle Algorithm</text>
    <text x="40" y="1173" font-family="Arial" font-size="11" fill="#333">Uses 8-way symmetry: Draw ONE octant, mirror to get 7 more!</text>
    <text x="40" y="1190" font-family="Arial" font-size="11" fill="#333">p = x² + y² - r² | Decision at midpoint determines next pixel</text>
    <text x="40" y="1207" font-family="Arial" font-size="11" fill="#333">Symmetry points: (x,y), (y,x), (-y,x), (-x,y), (-x,-y), (-y,-x), (y,-x), (x,-y)</text>
    
    <!-- Visual: Circle symmetry -->
    <rect x="500" y="1135" width="120" height="75" rx="50" fill="none" stroke="#1976d2" stroke-width="2"/>
    <circle cx="560" cy="1172" r="4" fill="#1976d2"/>
    <text x="570" y="1176" font-family="Arial" font-size="8" fill="#333">(x,y)</text>
    <circle cx="590" cy="1190" r="4" fill="#1976d2"/>
    <circle cx="572" cy="1190" r="4" fill="#1976d2"/>
    <circle cx="530" cy="1190" r="4" fill="#1976d2"/>
    <circle cx="548" cy="1190" r="4" fill="#1976d2"/>
    <circle cx="548" cy="1155" r="4" fill="#1976d2"/>
    <circle cx="572" cy="1155" r="4" fill="#1976d2"/>
    <circle cx="590" cy="1155" r="4" fill="#1976d2"/>
    <text x="560" y="1220" font-family="Arial" font-size="9" fill="#666" text-anchor="middle">8-way symmetry</text>
  </g>

  <!-- Step 12: Polygon Filling -->
  <g class="step" id="step12" data-narration="Scanline fill processes polygons row-by-row, finding edge intersections and filling horizontal spans between them.">
    <rect x="20" y="1230" width="760" height="95" rx="8" fill="url(#greenGrad)" filter="url(#shadow)"/>
    <text x="40" y="1255" font-family="Arial" font-size="14" font-weight="bold" fill="#2e7d32">Polygon Filling: Scanline Algorithm</text>
    <text x="40" y="1278" font-family="Arial" font-size="11" fill="#333">Scanline fill: Process each row, find where scanline intersects polygon edges</text>
    <text x="40" y="1295" font-family="Arial" font-size="11" fill="#333">Fill horizontal spans between intersection pairs. Use edge tables for optimization.</text>
    <text x="40" y="1312" font-family="Arial" font-size="11" fill="#333">Flood fill: Start from seed point, fill outward until hitting boundary color</text>
    
    <!-- Visual: Scanline -->
    <rect x="450" y="1240" width="200" height="75" rx="6" fill="white" stroke="#388e3c"/>
    <polygon points="480,1305 550,1270 620,1305 550,1340" fill="#c8e6c9" stroke="#388e3c" stroke-width="1"/>
    <line x1="450" y1="1290" x2="650" y2="1290" stroke="#388e3c" stroke-width="1" stroke-dasharray="4"/>
    <line x1="550" y1="1290" x2="550" y2="1340" stroke="#f44336" stroke-width="2"/>
    <text x="620" y="1285" font-family="Arial" font-size="8" fill="#388e3c">scanline</text>
    <text x="660" y="1315" font-family="Arial" font-size="8" fill="#f44336" text-anchor="middle">fill</text>
  </g>

  <!-- SECTION 3: SUMMARY (y=1335+) -->
  
  <!-- Step 13: Anti-Aliasing -->
  <g class="step" id="step13" data-narration="Anti-aliasing reduces jagged edges by blending pixel intensities based on distance from ideal primitive edges.">
    <rect x="20" y="1335" width="760" height="90" rx="8" fill="url(#orangeGrad)" filter="url(#shadow)"/>
    <text x="40" y="1360" font-family="Arial" font-size="14" font-weight="bold" fill="#e65100">Anti-Aliasing</text>
    <text x="40" y="1383" font-family="Arial" font-size="11" fill="#333">Aliasing: Jagged stair-step edges | Anti-aliasing: Smooth edges via intensity modulation</text>
    <text x="40" y="1400" font-family="Arial" font-size="11" fill="#333">Supersampling: Render at higher res, downsample | Wu's algorithm: Calculate intensity based on distance</text>
    <text x="40" y="1417" font-family="Arial" font-size="11" fill="#333">Alpha channel stores transparency for proper compositing and blending</text>
    
    <!-- Visual: Aliased vs Anti-aliased -->
    <rect x="500" y="1345" width="130" height="70" rx="4" fill="white" stroke="#ff9800"/>
    <line x1="520" y1="1370" x2="600" y2="1370" stroke="#ff9800" stroke-width="1"/>
    <line x1="520" y1="1380" x2="600" y2="1380" stroke="#ff9800" stroke-width="1"/>
    <line x1="520" y1="1390" x2="600" y2="1390" stroke="#ff9800" stroke-width="1"/>
    <line x1="520" y1="1400" x2="600" y2="1400" stroke="#ff9800" stroke-width="1"/>
    <text x="565" y="1425" font-family="Arial" font-size="8" fill="#666" text-anchor="middle">Jagged edges</text>
  </g>

  <!-- Step 14: Key Takeaways -->
  <g class="step" id="step14" data-narration="Remember: screen coords have Y downward, offset = y×W+x, Bresenham uses integer math, circle uses 8-way symmetry.">
    <rect x="20" y="1435" width="760" height="95" rx="8" fill="url(#purpleGrad)" filter="url(#shadow)"/>
    <text x="40" y="1460" font-family="Arial" font-size="14" font-weight="bold" fill="#7b1fa2">Key Takeaways</text>
    <text x="40" y="1483" font-family="Arial" font-size="11" fill="#333">• Screen coords: Y increases DOWNWARD from top-left origin</text>
    <text x="40" y="1500" font-family="Arial" font-size="11" fill="#333">• Memory offset: offset = y × width + x (multiply by bytes-per-pixel)</text>
    <text x="40" y="1517" font-family="Arial" font-size="11" fill="#333">• Bresenham: Integer-only, faster than DDA | Circle: 8-way symmetry</text>
    
    <!-- Visual: Summary icons -->
    <rect x="450" y="1445" width="280" height="75" rx="6" fill="white" stroke="#9c27b0"/>
    <text x="590" y="1465" font-family="Arial" font-size="10" fill="#7b1fa2" text-anchor="middle">Formula Summary</text>
    <text x="470" y="1485" font-family="Courier New" font-size="10" fill="#333">offset = y×W + x</text>
    <text x="470" y="1502" font-family="Courier New" font-size="10" fill="#333">packed = (α&lt;&lt;24)|(R&lt;&lt;16)|(G&lt;&lt;8)|B</text>
    <text x="470" y="1519" font-family="Courier New" font-size="10" fill="#333">p = 2×dy - dx (Bresenham)</text>
  </g>

</svg>