<svg xmlns="http://www.w3.org/2000/svg" viewBox="0 0 800 1750">
  <defs>
    <!-- Gradients -->
    <linearGradient id="titleGrad" x1="0%" y1="0%" x2="100%" y2="100%">
      <stop offset="0%" style="stop-color:#1565c0"/>
      <stop offset="100%" style="stop-color:#0d47a1"/>
    </linearGradient>
    <linearGradient id="blueGrad" x1="0%" y1="0%" x2="100%" y2="100%">
      <stop offset="0%" style="stop-color:#e3f2fd"/>
      <stop offset="100%" style="stop-color:#bbdefb"/>
    </linearGradient>
    <linearGradient id="greenGrad" x1="0%" y1="0%" x2="100%" y2="100%">
      <stop offset="0%" style="stop-color:#e8f5e9"/>
      <stop offset="100%" style="stop-color:#c8e6c9"/>
    </linearGradient>
    <linearGradient id="orangeGrad" x1="0%" y1="0%" x2="100%" y2="100%">
      <stop offset="0%" style="stop-color:#fff3e0"/>
      <stop offset="100%" style="stop-color:#ffe0b2"/>
    </linearGradient>
    <linearGradient id="purpleGrad" x1="0%" y1="0%" x2="100%" y2="100%">
      <stop offset="0%" style="stop-color:#f3e5f5"/>
      <stop offset="100%" style="stop-color:#e1bee7"/>
    </linearGradient>
    <linearGradient id="redGrad" x1="0%" y1="0%" x2="100%" y2="100%">
      <stop offset="0%" style="stop-color:#ffebee"/>
      <stop offset="100%" style="stop-color:#ffcdd2"/>
    </linearGradient>
    <linearGradient id="cyanGrad" x1="0%" y1="0%" x2="100%" y2="100%">
      <stop offset="0%" style="stop-color:#e0f7fa"/>
      <stop offset="100%" style="stop-color:#b2ebf2"/>
    </linearGradient>
    <!-- Shadow filter -->
    <filter id="shadow" x="-20%" y="-20%" width="140%" height="140%">
      <feDropShadow dx="2" dy="2" stdDeviation="3" flood-opacity="0.15"/>
    </filter>
    <!-- Arrow marker -->
    <marker id="arrowBlue" markerWidth="10" markerHeight="10" refX="9" refY="3" orient="auto" markerUnits="strokeWidth">
      <path d="M0,0 L0,6 L9,3 z" fill="#1976d2"/>
    </marker>
    <marker id="arrowGreen" markerWidth="10" markerHeight="10" refX="9" refY="3" orient="auto" markerUnits="strokeWidth">
      <path d="M0,0 L0,6 L9,3 z" fill="#388e3c"/>
    </marker>
  </defs>
  
  <style>
    @keyframes fadeInSlide {
      from { opacity: 0; transform: translateY(20px); }
      to { opacity: 1; transform: translateY(0); }
    }
    @keyframes scaleIn {
      from { opacity: 0; transform: scale(0.85); }
      to { opacity: 1; transform: scale(1); }
    }
    @keyframes textReveal {
      from { opacity: 0; transform: translateX(-10px); }
      to { opacity: 1; transform: translateX(0); }
    }
    @keyframes pulse {
      0%, 100% { transform: scale(1); }
      50% { transform: scale(1.03); }
    }
    @keyframes drawLine {
      from { stroke-dashoffset: 200; }
      to { stroke-dashoffset: 0; }
    }
    .step { animation: fadeInSlide 0.6s ease-out; }
    .step rect {
      animation: scaleIn 0.5s cubic-bezier(0.34, 1.56, 0.64, 1);
      transform-origin: center;
    }
    .step text { animation: textReveal 0.4s ease-out 0.2s backwards; }
    .formula { font-family: 'Courier New', monospace; font-weight: bold; }
    .table-header { font-weight: bold; fill: #0d47a1; }
    .highlight { fill: #d32f2f; font-weight: bold; }
    .notation { fill: #7b1fa2; font-weight: bold; }
  </style>
  
  <!-- Background -->
  <rect width="800" height="1750" fill="#f8f9fa"/>
  
  <!-- Step 0: Title -->
  <g class="step" id="step0" data-narration="Welcome to Relational Algebra operations. Today we explore unary and binary operations that form the foundation of database queries.">
    <rect x="20" y="10" width="760" height="50" rx="10" fill="url(#titleGrad)" filter="url(#shadow)"/>
    <text x="400" y="42" text-anchor="middle" font-size="20" font-weight="bold" fill="white">Unary and Binary Relational Operations</text>
  </g>
  
  <!-- Step 1: Introduction -->
  <g class="step" id="step1" data-narration="Relational Algebra provides mathematical operations that work on tables to produce new relations, forming SQL's theoretical foundation.">
    <rect x="20" y="70" width="760" height="85" rx="8" fill="url(#blueGrad)" filter="url(#shadow)"/>
    <text x="40" y="95" font-size="14" font-weight="bold" fill="#1565c0">What is Relational Algebra?</text>
    <text x="40" y="115" font-size="11" fill="#424242">A set of mathematical operations that work on relations (tables) to produce new relations.</text>
    <text x="40" y="130" font-size="11" fill="#424242">Developed by E.F. Codd in 1970 as the theoretical foundation for database management systems.</text>
    <text x="520" y="100" font-size="12" font-weight="bold" fill="#0d47a1">Key Point:</text>
    <text x="520" y="120" font-size="11" fill="#424242">Forms the basis for</text>
    <text x="520" y="135" font-size="11" fill="#424242">SQL query optimization</text>
    <!-- Small database icon representation -->
    <rect x="680" y="85" width="60" height="55" rx="5" fill="#1976d2" opacity="0.8"/>
    <rect x="685" y="90" width="50" height="8" rx="2" fill="white"/>
    <rect x="685" y="102" width="50" height="8" rx="2" fill="white"/>
    <rect x="685" y="114" width="50" height="8" rx="2" fill="white"/>
    <rect x="685" y="126" width="50" height="8" rx="2" fill="white"/>
  </g>
  
  <!-- Step 2: Categorization Overview -->
  <g class="step" id="step2" data-narration="Operations are divided into two types: Unary operations work on a single relation, while binary operations combine two relations.">
    <rect x="20" y="165" width="760" height="85" rx="8" fill="url(#greenGrad)" filter="url(#shadow)"/>
    <text x="40" y="190" font-size="14" font-weight="bold" fill="#2e7d32">Two Types of Operations</text>
    <!-- Unary box -->
    <rect x="40" y="205" width="220" height="35" rx="5" fill="#4caf50"/>
    <text x="150" y="225" text-anchor="middle" font-size="12" font-weight="bold" fill="white">UNARY OPERATIONS</text>
    <text x="45" y="248" font-size="10" fill="#388e3c">Work on single relation:</text>
    <text x="45" y="260" font-size="10" fill="#1b5e20">SELECT (σ), PROJECT (π), RENAME (ρ)</text>
    <!-- Binary box -->
    <rect x="280" y="205" width="220" height="35" rx="5" fill="#ff9800"/>
    <text x="390" y="225" text-anchor="middle" font-size="12" font-weight="bold" fill="white">BINARY OPERATIONS</text>
    <text x="285" y="248" font-size="10" fill="#ef6c00">Combine two relations:</text>
    <text x="285" y="260" font-size="10" fill="#bf360c">UNION, INTERSECTION, DIFFERENCE, ×</text>
    <!-- Arrow -->
    <path d="M 520 195 L 620 195 L 610 185 M 620 195 L 610 205" stroke="#424242" stroke-width="2" fill="none"/>
    <text x="570" y="215" font-size="10" fill="#424242" text-anchor="middle">Union-compatible</text>
    <text x="570" y="227" font-size="10" fill="#424242" text-anchor="middle">relations required</text>
  </g>
  
  <!-- Step 3: SELECT Operation - Definition -->
  <g class="step" id="step3" data-narration="The SELECT operation extracts rows satisfying a condition, acting as a horizontal filter that reduces tuples based on a predicate.">
    <rect x="20" y="260" width="760" height="95" rx="8" fill="url(#orangeGrad)" filter="url(#shadow)"/>
    <text x="40" y="285" font-size="14" font-weight="bold" fill="#e65100">SELECT Operation (σ) - Horizontal Filter</text>
    <text x="40" y="305" font-size="11" fill="#424242">Notation: </text>
    <text x="100" y="305" font-size="12" class="formula" fill="#d84315">σ</text>
    <text x="112" y="305" font-size="10" fill="#424242">condition</text>
    <text x="165" y="305" font-size="11" fill="#424242">(R)</text>
    <text x="230" y="305" font-size="10" fill="#5d4037">Extracts rows satisfying condition</text>
    <!-- Properties box -->
    <rect x="40" y="315" width="350" height="30" rx="4" fill="#fff8e1"/>
    <text x="50" y="330" font-size="9" fill="#5d4037">• Commutative: σ</text>
    <text x="95" y="330" font-size="8" fill="#5d4037">c1</text>
    <text x="100" y="330" font-size="9" fill="#5d4037">(σ</text>
    <text x="117" y="330" font-size="8" fill="#5d4037">c2</text>
    <text x="122" y="330" font-size="9" fill="#5d4037">(R)) = σ</text>
    <text x="150" y="330" font-size="8" fill="#5d4037">c2</text>
    <text x="155" y="330" font-size="9" fill="#5d4037">(σ</text>
    <text x="172" y="330" font-size="8" fill="#5d4037">c1</text>
    <text x="177" y="330" font-size="9" fill="#5d4037">(R))</text>
    <text x="260" y="330" font-size="9" fill="#5d4037">• Same schema</text>
    <text x="340" y="330" font-size="9" fill="#5d4037">• Logical operators: ∧, ∨, ¬</text>
    <!-- Visual representation -->
    <rect x="420" y="315" width="350" height="30" rx="4" fill="#ffe0b2"/>
    <text x="430" y="330" font-size="10" fill="#e65100">σ</text>
    <text x="440" y="330" font-size="9" fill="#424242">Dept='IT'</text>
    <text x="500" y="330" font-size="9" fill="#5d4037">(EMPLOYEE)</text>
    <text x="620" y="330" font-size="10" fill="#2e7d32">→ Filters rows</text>
  </g>
  
  <!-- Step 4: SELECT Example -->
  <g class="step" id="step4" data-narration="Here is a practical SELECT example: extracting employees from the IT department, filtering horizontally to show only matching rows.">
    <rect x="20" y="365" width="760" height="110" rx="8" fill="url(#orangeGrad)" filter="url(#shadow)"/>
    <text x="40" y="390" font-size="13" font-weight="bold" fill="#e65100">SELECT Example</text>
    <!-- Input table -->
    <rect x="40" y="405" width="260" height="60" rx="4" fill="white" stroke="#bdbdbd"/>
    <text x="50" y="420" font-size="9" fill="#0d47a1" font-weight="bold">EMPLOYEE</text>
    <line x1="40" y1="425" x2="300" y2="425" stroke="#bdbdbd" stroke-width="1"/>
    <text x="50" y="438" font-size="8" fill="#424242">E01 | Alice | IT | 50000</text>
    <text x="50" y="450" font-size="8" fill="#424242">E02 | Bob | HR | 45000</text>
    <text x="50" y="462" font-size="8" fill="#424242">E03 | Charlie | IT | 55000</text>
    <!-- Arrow -->
    <path d="M 310 430 L 360 430" stroke="#e65100" stroke-width="2" marker-end="url(#arrowBlue)"/>
    <text x="320" y="420" font-size="10" fill="#e65100">σDept='IT'</text>
    <!-- Output table -->
    <rect x="370" y="405" width="200" height="60" rx="4" fill="white" stroke="#4caf50"/>
    <text x="380" y="420" font-size="9" fill="#2e7d32" font-weight="bold">Result</text>
    <line x1="370" y1="425" x2="570" y2="425" stroke="#4caf50" stroke-width="1"/>
    <text x="380" y="438" font-size="8" fill="#424242">E01 | Alice | IT | 50000</text>
    <text x="380" y="450" font-size="8" fill="#424242">E03 | Charlie | IT | 55000</text>
    <!-- Combined condition -->
    <rect x="40" y="470" width="380" height="0" rx="4" fill="white" stroke="#bdbdbd"/>
    <text x="40" y="478" font-size="9" fill="#424242">Combined: σ</text>
    <text x="90" y="478" font-size="8" fill="#d84315">Dept='IT' ∧ Salary>50000</text>
    <text x="200" y="478" font-size="9" fill="#424242">(EMPLOYEE)</text>
    <text x="300" y="478" font-size="8" fill="#2e7d32">→ Returns Charlie only</text>
  </g>
  
  <!-- Step 5: PROJECT Operation -->
  <g class="step" id="step5" data-narration="The PROJECT operation extracts specific columns, acting as a vertical filter while automatically eliminating duplicate tuples.">
    <rect x="20" y="485" width="760" height="95" rx="8" fill="url(#purpleGrad)" filter="url(#shadow)"/>
    <text x="40" y="510" font-size="14" font-weight="bold" fill="#7b1fa2">PROJECT Operation (π) - Vertical Filter</text>
    <text x="40" y="530" font-size="11" fill="#424242">Notation: </text>
    <text x="100" y="530" font-size="12" class="formula" fill="#9c27b0">π</text>
    <text x="112" y="530" font-size="10" fill="#424242">attr1,attr2,...</text>
    <text x="165" y="530" font-size="11" fill="#424242">(R)</text>
    <text x="220" y="530" font-size="10" fill="#6a1b9a">Extracts specified columns</text>
    <!-- Properties -->
    <rect x="40" y="540" width="350" height="30" rx="4" fill="#f3e5f5"/>
    <text x="50" y="555" font-size="9" fill="#4a148c">• Result contains only specified attributes</text>
    <text x="240" y="555" font-size="9" fill="#4a148c">• Duplicates eliminated</text>
    <text x="50" y="568" font-size="9" fill="#4a148c">• Not commutative: π</text>
    <text x="110" y="568" font-size="8" fill="#4a148c">A</text>
    <text x="115" y="568" font-size="9" fill="#4a148c">(π</text>
    <text x="130" y="568" font-size="8" fill="#4a148c">AB</text>
    <text x="145" y="568" font-size="9" fill="#4a148c">(R)) ≠ π</text>
    <text x="175" y="568" font-size="8" fill="#4a148c">AB</text>
    <text x="185" y="568" font-size="9" fill="#4a148c">(R)</text>
    <!-- Visual -->
    <rect x="420" y="540" width="350" height="30" rx="4" fill="#e1bee7"/>
    <text x="430" y="555" font-size="10" fill="#7b1fa2">π</text>
    <text x="440" y="555" font-size="9" fill="#424242">Name, Dept</text>
    <text x="510" y="555" font-size="9" fill="#5d4037">(EMPLOYEE)</text>
    <text x="620" y="555" font-size="10" fill="#2e7d32">→ Filters columns</text>
  </g>
  
  <!-- Step 6: PROJECT Example -->
  <g class="step" id="step6" data-narration="PROJECT removes unwanted columns and eliminates duplicates. Notice how multiple IT employees become one IT entry in the result.">
    <rect x="20" y="590" width="760" height="100" rx="8" fill="url(#purpleGrad)" filter="url(#shadow)"/>
    <text x="40" y="615" font-size="13" font-weight="bold" fill="#7b1fa2">PROJECT Example</text>
    <!-- Input table -->
    <rect x="40" y="630" width="260" height="50" rx="4" fill="white" stroke="#bdbdbd"/>
    <text x="50" y="645" font-size="9" fill="#0d47a1" font-weight="bold">EMPLOYEE</text>
    <line x1="40" y1="650" x2="300" y2="650" stroke="#bdbdbd" stroke-width="1"/>
    <text x="50" y="663" font-size="8" fill="#424242">E01 | Alice | IT</text>
    <text x="50" y="675" font-size="8" fill="#424242">E03 | Charlie | IT</text>
    <!-- Arrow -->
    <path d="M 310 650 L 360 650" stroke="#9c27b0" stroke-width="2" marker-end="url(#arrowBlue)"/>
    <text x="320" y="640" font-size="10" fill="#9c27b0">πName,Dept</text>
    <!-- Output table -->
    <rect x="370" y="630" width="180" height="50" rx="4" fill="white" stroke="#9c27b0"/>
    <text x="380" y="645" font-size="9" fill="#7b1fa2" font-weight="bold">Result</text>
    <line x1="370" y1="650" x2="550" y2="650" stroke="#9c27b0" stroke-width="1"/>
    <text x="380" y="663" font-size="8" fill="#424242">Alice | IT</text>
    <text x="380" y="675" font-size="8" fill="#424242">Charlie | IT</text>
    <!-- Duplicate elimination example -->
    <rect x="570" y="630" width="200" height="50" rx="4" fill="#fce4ec"/>
    <text x="580" y="645" font-size="9" fill="#c2185b" font-weight="bold">Duplicates Removed</text>
    <line x1="570" y1="650" x2="770" y2="650" stroke="#e91e63" stroke-width="1"/>
    <text x="580" y="663" font-size="8" fill="#424242">π</text>
    <text x="595" y="663" font-size="8" fill="#424242">Dept</text>
    <text x="620" y="663" font-size="8" fill="#5d4037">(EMPLOYEE)</text>
    <text x="580" y="676" font-size="8" fill="#424242">→ IT, HR, Sales</text>
  </g>
  
  <!-- Step 7: RENAME Operation -->
  <g class="step" id="step7" data-narration="The RENAME operation changes relation or attribute names, essential for self-joins and avoiding ambiguity in complex queries.">
    <rect x="20" y="700" width="760" height="85" rx="8" fill="url(#cyanGrad)" filter="url(#shadow)"/>
    <text x="40" y="725" font-size="14" font-weight="bold" fill="#00838f">RENAME Operation (ρ)</text>
    <text x="40" y="745" font-size="11" fill="#424242">Notation: </text>
    <text x="100" y="745" font-size="12" class="formula" fill="#0097a7">ρ</text>
    <text x="112" y="745" font-size="10" fill="#424242">S</text>
    <text x="125" y="745" font-size="11" fill="#424242">(R) - rename relation to S</text>
    <text x="260" y="745" font-size="11" fill="#006064">OR</text>
    <text x="300" y="745" font-size="10" fill="#424242">ρ</text>
    <text x="315" y="745" font-size="9" fill="#424242">S(A1,A2,...)</text>
    <text x="375" y="745" font-size="11" fill="#424242">(R)</text>
    <!-- Examples -->
    <rect x="40" y="755" width="730" height="22" rx="4" fill="#b2ebf2"/>
    <text x="50" y="770" font-size="9" fill="#006064">ρ</text>
    <text x="60" y="770" font-size="9" fill="#424242">EMP</text>
    <text x="90" y="770" font-size="9" fill="#5d4037">(EMPLOYEE)</text>
    <text x="180" y="770" font-size="9" fill="#006064">→ Renames to EMP</text>
    <text x="280" y="770" font-size="9" fill="#006064">ρ</text>
    <text x="290" y="770" font-size="9" fill="#424242">EMP(ID,Name,Dept,Pay)</text>
    <text x="400" y="770" font-size="9" fill="#5d4037">(EMPLOYEE)</text>
    <text x="520" y="770" font-size="9" fill="#006064">→ Renames relation and attributes</text>
  </g>
  
  <!-- Step 8: UNION Operation -->
  <g class="step" id="step8" data-narration="UNION combines all tuples from two relations, eliminating duplicates. Both relations must be union-compatible with matching attributes.">
    <rect x="20" y="795" width="760" height="105" rx="8" fill="url(#greenGrad)" filter="url(#shadow)"/>
    <text x="40" y="820" font-size="14" font-weight="bold" fill="#2e7d32">UNION Operation (∪)</text>
    <text x="40" y="840" font-size="11" fill="#424242">Notation: R ∪ S - combines all tuples from both relations</text>
    <!-- Union compatibility -->
    <rect x="40" y="850" width="280" height="22" rx="4" fill="#c8e6c9"/>
    <text x="50" y="865" font-size="9" fill="#1b5e20">Union Compatibility Required:</text>
    <text x="180" y="865" font-size="9" fill="#1b5e20">Same # of attributes</text>
    <text x="270" y="865" font-size="9" fill="#1b5e20">Compatible domains</text>
    <!-- Tables -->
    <rect x="340" y="815" width="130" height="50" rx="4" fill="white" stroke="#388e3c"/>
    <text x="350" y="830" font-size="9" fill="#2e7d32" font-weight="bold">STUDENT_CS</text>
    <line x1="340" y1="835" x2="470" y2="835" stroke="#388e3c"/>
    <text x="350" y="848" font-size="8" fill="#424242">Alice, Bob, Charlie</text>
    <text x="350" y="860" font-size="8" fill="#424242">Grades A, A, B</text>
    <text x="455" y="832" font-size="10" fill="#388e3c">∪</text>
    <rect x="475" y="815" width="130" height="50" rx="4" fill="white" stroke="#ff9800"/>
    <text x="485" y="830" font-size="9" fill="#ef6c00" font-weight="bold">STUDENT_IT</text>
    <line x1="475" y1="835" x2="605" y2="835" stroke="#ff9800"/>
    <text x="485" y="848" font-size="8" fill="#424242">Bob, Charlie, David</text>
    <text x="485" y="860" font-size="8" fill="#424242">Grades A, B, A</text>
    <text x="590" y="820" font-size="10" fill="#2e7d32">=</text>
    <rect x="610" y="815" width="160" height="50" rx="4" fill="white" stroke="#2e7d32"/>
    <text x="620" y="830" font-size="9" fill="#2e7d32" font-weight="bold">Result</text>
    <line x1="610" y1="835" x2="770" y2="835" stroke="#2e7d32"/>
    <text x="620" y="848" font-size="8" fill="#424242">Alice, Bob, Charlie, David</text>
    <text x="620" y="860" font-size="8" fill="#424242">All unique tuples</text>
    <!-- Properties -->
    <rect x="40" y="878" width="350" height="15" rx="3" fill="#e8f5e9"/>
    <text x="50" y="889" font-size="8" fill="#2e7d32">• Commutative: R ∪ S = S ∪ R</text>
    <text x="200" y="889" font-size="8" fill="#2e7d32">• Associative: (R ∪ S) ∪ T = R ∪ (S ∪ T)</text>
  </g>
  
  <!-- Step 9: SET DIFFERENCE -->
  <g class="step" id="step9" data-narration="SET DIFFERENCE returns tuples in the first relation but not in the second. The order matters - R minus S is different from S minus R.">
    <rect x="20" y="910" width="760" height="95" rx="8" fill="url(#redGrad)" filter="url(#shadow)"/>
    <text x="40" y="935" font-size="14" font-weight="bold" fill="#c62828">SET DIFFERENCE Operation (−)</text>
    <text x="40" y="955" font-size="11" fill="#424242">Notation: R − S - tuples in R but not in S</text>
    <!-- Visual -->
    <rect x="40" y="965" width="150" height="30" rx="4" fill="white" stroke="#388e3c"/>
    <text x="50" y="978" font-size="9" fill="#2e7d32" font-weight="bold">STUDENT_CS</text>
    <text x="130" y="978" font-size="8" fill="#424242">Alice, Bob</text>
    <text x="185" y="978" font-size="10" fill="#c62828">−</text>
    <rect x="200" y="965" width="150" height="30" rx="4" fill="white" stroke="#ff9800"/>
    <text x="210" y="978" font-size="9" fill="#ef6c00" font-weight="bold">STUDENT_IT</text>
    <text x="290" y="978" font-size="8" fill="#424242">Bob, Charlie</text>
    <text x="355" y="978" font-size="10" fill="#c62828">=</text>
    <rect x="370" y="965" width="100" height="30" rx="4" fill="white" stroke="#c62828"/>
    <text x="380" y="978" font-size="9" fill="#c62828" font-weight="bold">Result</text>
    <text x="420" y="978" font-size="8" fill="#424242">Alice only</text>
    <!-- Important note -->
    <rect x="500" y="965" width="270" height="30" rx="4" fill="#ffcdd2"/>
    <text x="510" y="978" font-size="9" fill="#b71c1c">⚠ NOT Commutative:</text>
    <text x="600" y="978" font-size="8" fill="#424242">R − S ≠ S − R</text>
    <text x="510" y="990" font-size="8" fill="#5d4037">Order of operands matters!</text>
  </g>
  
  <!-- Step 10: INTERSECTION -->
  <g class="step" id="step10" data-narration="INTERSECTION returns tuples that exist in BOTH relations. It is commutative and can be expressed using set difference operations.">
    <rect x="20" y="1015" width="760" height="85" rx="8" fill="url(#blueGrad)" filter="url(#shadow)"/>
    <text x="40" y="1040" font-size="14" font-weight="bold" fill="#1565c0">INTERSECTION Operation (∩)</text>
    <text x="40" y="1060" font-size="11" fill="#424242">Notation: R ∩ S - tuples in both R and S</text>
    <!-- Visual -->
    <rect x="40" y="1070" width="150" height="25" rx="4" fill="white" stroke="#388e3c"/>
    <text x="50" y="1083" font-size="9" fill="#2e7d32" font-weight="bold">STUDENT_CS</text>
    <text x="120" y="1083" font-size="8" fill="#424242">Bob, Charlie</text>
    <text x="185" y="1083" font-size="10" fill="#1565c0">∩</text>
    <rect x="200" y="1070" width="150" height="25" rx="4" fill="white" stroke="#ff9800"/>
    <text x="210" y="1083" font-size="9" fill="#ef6c00" font-weight="bold">STUDENT_IT</text>
    <text x="280" y="1083" font-size="8" fill="#424242">Bob, Charlie</text>
    <text x="355" y="1083" font-size="10" fill="#1565c0">=</text>
    <rect x="370" y="1070" width="100" height="25" rx="4" fill="white" stroke="#1565c0"/>
    <text x="380" y="1083" font-size="9" fill="#1565c0" font-weight="bold">Result</text>
    <text x="420" y="1083" font-size="8" fill="#424242">Bob, Charlie</text>
    <!-- Properties -->
    <rect x="490" y="1070" width="280" height="22" rx="4" fill="#e3f2fd"/>
    <text x="500" y="1083" font-size="8" fill="#0d47a1">• Commutative: R ∩ S = S ∩ R</text>
    <text x="640" y="1083" font-size="8" fill="#0d47a1">• R ∩ S = R − (R − S)</text>
  </g>
  
  <!-- Step 11: CARTESIAN PRODUCT -->
  <g class="step" id="step11" data-narration="CARTESIAN PRODUCT combines every tuple from the first relation with every tuple from the second, creating all possible combinations.">
    <rect x="20" y="1110" width="760" height="110" rx="8" fill="url(#orangeGrad)" filter="url(#shadow)"/>
    <text x="40" y="1135" font-size="14" font-weight="bold" fill="#e65100">CARTESIAN PRODUCT Operation (×)</text>
    <text x="40" y="1155" font-size="11" fill="#424242">Notation: R × S - combines every tuple from R with every tuple from S</text>
    <!-- Input tables -->
    <rect x="40" y="1165" width="120" height="50" rx="4" fill="white" stroke="#388e3c"/>
    <text x="50" y="1180" font-size="9" fill="#2e7d32" font-weight="bold">R(A,B)</text>
    <line x1="40" y1="1185" x2="160" y2="1185" stroke="#388e3c"/>
    <text x="50" y="1198" font-size="8" fill="#424242">a1,b1</text>
    <text x="50" y="1210" font-size="8" fill="#424242">a2,b2</text>
    <text x="155" y="1180" font-size="10" fill="#e65100">×</text>
    <rect x="170" y="1165" width="120" height="50" rx="4" fill="white" stroke="#ff9800"/>
    <text x="180" y="1180" font-size="9" fill="#ef6c00" font-weight="bold">S(C,D)</text>
    <line x1="170" y1="1185" x2="290" y2="1185" stroke="#ff9800"/>
    <text x="180" y="1198" font-size="8" fill="#424242">c1,d1</text>
    <text x="180" y="1210" font-size="8" fill="#424242">c2,d2</text>
    <!-- Output -->
    <text x="310" y="1180" font-size="10" fill="#e65100">=</text>
    <rect x="330" y="1165" width="200" height="50" rx="4" fill="white" stroke="#e65100"/>
    <text x="340" y="1180" font-size="9" fill="#e65100" font-weight="bold">Result: A,B,C,D</text>
    <line x1="330" y1="1185" x2="530" y2="1185" stroke="#e65100"/>
    <text x="340" y="1198" font-size="7" fill="#424242">a1,b1,c1,d1 | a1,b1,c2,d2</text>
    <text x="340" y="1210" font-size="7" fill="#424242">a2,b2,c1,d1 | a2,b2,c2,d2</text>
    <!-- Formula -->
    <rect x="550" y="1165" width="220" height="22" rx="4" fill="#ffe0b2"/>
    <text x="560" y="1179" font-size="9" fill="#5d4037">Degree = degree(R) + degree(S)</text>
    <text x="560" y="1192" font-size="9" fill="#5d4037">Cardinality = |R| × |S|</text>
    <text x="680" y="1192" font-size="9" fill="#2e7d32">= 2 × 2 = 4</text>
  </g>
  
  <!-- Step 12: Comparison Table -->
  <g class="step" id="step12" data-narration="This table summarizes key properties: operation types, union compatibility requirements, and commutative behavior for all operations.">
    <rect x="20" y="1230" width="760" height="100" rx="8" fill="url(#blueGrad)" filter="url(#shadow)"/>
    <text x="40" y="1255" font-size="14" font-weight="bold" fill="#0d47a1">Operations Comparison</text>
    <!-- Table header -->
    <rect x="40" y="1265" width="740" height="20" rx="3" fill="#1565c0"/>
    <text x="50" y="1279" font-size="8" font-weight="bold" fill="white">Operation</text>
    <text x="150" y="1279" font-size="8" font-weight="bold" fill="white">Type</text>
    <text x="250" y="1279" font-size="8" font-weight="bold" fill="white">Notation</text>
    <text x="400" y="1279" font-size="8" font-weight="bold" fill="white">Union-Compat</text>
    <text x="550" y="1279" font-size="8" font-weight="bold" fill="white">Commutative</text>
    <text x="680" y="1279" font-size="8" font-weight="bold" fill="white">Effect</text>
    <!-- Row 1 -->
    <rect x="40" y="1285" width="740" height="18" rx="2" fill="#e3f2fd"/>
    <text x="50" y="1298" font-size="8" fill="#1565c0">SELECT (σ)</text>
    <text x="150" y="1298" font-size="8" fill="#424242">Unary</text>
    <text x="250" y="1298" font-size="8" fill="#5d4037">σ</text>
    <text x="280" y="1298" font-size="8" fill="#424242">cond</text>
    <text x="400" y="1298" font-size="8" fill="#2e7d32">No</text>
    <text x="550" y="1298" font-size="8" fill="#2e7d32">Yes</text>
    <text x="680" y="1298" font-size="8" fill="#424242">Filters rows</text>
    <!-- Row 2 -->
    <rect x="40" y="1303" width="740" height="18" rx="2" fill="#f3e5f5"/>
    <text x="50" y="1316" font-size="8" fill="#7b1fa2">PROJECT (π)</text>
    <text x="150" y="1316" font-size="8" fill="#424242">Unary</text>
    <text x="250" y="1316" font-size="8" fill="#5d4037">π</text>
    <text x="275" y="1316" font-size="8" fill="#424242">attrs</text>
    <text x="400" y="1316" font-size="8" fill="#2e7d32">No</text>
    <text x="550" y="1316" font-size="8" fill="#c62828">No</text>
    <text x="680" y="1316" font-size="8" fill="#424242">Filters cols</text>
    <!-- Row 3 -->
    <rect x="40" y="1321" width="740" height="18" rx="2" fill="#e8f5e9"/>
    <text x="50" y="1334" font-size="8" fill="#388e3c">UNION (∪)</text>
    <text x="150" y="1334" font-size="8" fill="#424242">Binary</text>
    <text x="250" y="1334" font-size="8" fill="#5d4037">R ∪ S</text>
    <text x="400" y="1334" font-size="8" fill="#c62828">Yes</text>
    <text x="550" y="1334" font-size="8" fill="#2e7d32">Yes</text>
    <text x="680" y="1334" font-size="8" fill="#424242">Combines all</text>
    <!-- Row 4 -->
    <rect x="40" y="1339" width="740" height="18" rx="2" fill="#ffebee"/>
    <text x="50" y="1352" font-size="8" fill="#c62828">DIFFERENCE (−)</text>
    <text x="150" y="1352" font-size="8" fill="#424242">Binary</text>
    <text x="250" y="1352" font-size="8" fill="#5d4037">R − S</text>
    <text x="400" y="1352" font-size="8" fill="#c62828">Yes</text>
    <text x="550" y="1352" font-size="8" fill="#c62828">No</text>
    <text x="680" y="1352" font-size="8" fill="#424242">R not in S</text>
  </g>
  
  <!-- Step 13: Combined Operations Example -->
  <g class="step" id="step13" data-narration="Complex queries combine multiple operations. Here we apply SELECT to filter, then PROJECT to extract names, solving the query step by step.">
    <rect x="20" y="1340" width="760" height="115" rx="8" fill="url(#greenGrad)" filter="url(#shadow)"/>
    <text x="40" y="1365" font-size="14" font-weight="bold" fill="#2e7d32">Combined Operations Example</text>
    <text x="40" y="1385" font-size="11" fill="#424242">Query: Find names of IT employees with salary > 50000</text>
    <!-- Query expression -->
    <rect x="40" y="1395" width="350" height="22" rx="4" fill="#c8e6c9"/>
    <text x="50" y="1410" font-size="10" fill="#1b5e20">π</text>
    <text x="60" y="1410" font-size="10" fill="#5d4037">Name</text>
    <text x="80" y="1410" font-size="10" fill="#1b5e20">(σ</text>
    <text x="95" y="1410" font-size="9" fill="#5d4037">Dept='IT' ∧ Salary>50000</text>
    <text x="195" y="1410" font-size="10" fill="#1b5e20">(EMPLOYEE))</text>
    <!-- Step 1 -->
    <rect x="40" y="1425" width="350" height="25" rx="4" fill="white" stroke="#388e3c"/>
    <text x="50" y="1440" font-size="9" fill="#2e7d32">Step 1: σ</text>
    <text x="80" y="1440" font-size="9" fill="#424242">Dept='IT' ∧ Salary>50000</text>
    <text x="200" y="1440" font-size="9" fill="#5d4037">(EMPLOYEE)</text>
    <text x="300" y="1440" font-size="8" fill="#2e7d32">→ Result: Charlie</text>
    <!-- Step 2 -->
    <rect x="40" y="1455" width="350" height="25" rx="4" fill="white" stroke="#9c27b0"/>
    <text x="50" y="1470" font-size="9" fill="#7b1fa2">Step 2: π</text>
    <text x="65" y="1470" font-size="9" fill="#424242">Name</text>
    <text x="95" y="1470" font-size="9" fill="#5d4037">(Step1 Result)</text>
    <text x="180" y="1470" font-size="8" fill="#7b1fa2">→ Final: Charlie</text>
    <!-- Alternative representation -->
    <rect x="410" y="1395" width="360" height="80" rx="4" fill="#fff8e1"/>
    <text x="420" y="1415" font-size="10" font-weight="bold" fill="#5d4037">Cartesian Product with Join</text>
    <text x="420" y="1435" font-size="9" fill="#424242">π</text>
    <text x="435" y="1435" font-size="9" fill="#424242">EmpID, Name, DeptName</text>
    <text x="530" y="1435" font-size="9" fill="#5d4037">(σ</text>
    <text x="545" y="1435" font-size="8" fill="#424242">DEPT.DeptID = EMP.DeptID</text>
    <text x="620" y="1435" font-size="9" fill="#5d4037">(DEPT × EMP))</text>
    <text x="420" y="1455" font-size="8" fill="#5d4037">Used to join tables with selection condition</text>
    <text x="420" y="1470" font-size="8" fill="#5d4037">Often followed by SELECT for meaningful results</text>
  </g>
  
  <!-- Step 14: Summary - Key Formulas -->
  <g class="step" id="step14" data-narration="Let us summarize the key formulas: SELECT extracts rows, PROJECT extracts columns, and binary operations combine relations in different ways.">
    <rect x="20" y="1465" width="760" height="100" rx="8" fill="url(#titleGrad)" filter="url(#shadow)"/>
    <text x="40" y="1490" font-size="16" font-weight="bold" fill="white">Key Formulas Summary</text>
    <!-- Formulas grid -->
    <rect x="40" y="1505" width="720" height="50" rx="4" fill="rgba(255,255,255,0.9)"/>
    <!-- Row 1 -->
    <text x="50" y="1522" font-size="10" fill="#e65100">σ</text>
    <text x="65" y="1522" font-size="9" fill="#424242">condition</text>
    <text x="105" y="1522" font-size="9" fill="#5d4037">(R)</text>
    <text x="130" y="1522" font-size="8" fill="#5d4037">SELECT - rows</text>
    <text x="200" y="1522" font-size="10" fill="#9c27b0">π</text>
    <text x="215" y="1522" font-size="9" fill="#424242">attrs</text>
    <text x="245" y="1522" font-size="9" fill="#5d4037">(R)</text>
    <text x="270" y="1522" font-size="8" fill="#5d4037">PROJECT - columns</text>
    <text x="350" y="1522" font-size="10" fill="#00838f">ρ</text>
    <text x="365" y="1522" font-size="9" fill="#424242">S</text>
    <text x="385" y="1522" font-size="9" fill="#5d4037">(R)</text>
    <text x="410" y="1522" font-size="8" fill="#5d4037">RENAME</text>
    <!-- Row 2 -->
  </g>
</svg>