<svg width="420" height="400" data-topic-id="textbook-ch" xmlns="http://www.w3.org/2000/svg">
  <defs>
    <linearGradient id="gradient" x1="0%" y1="0%" x2="100%" y2="0%">
      <stop offset="0%" stop-color="#FFC5C5"/>
      <stop offset="100%" stop-color="#C5C8E2"/>
    </linearGradient>
  </defs>
  <rect x="0" y="0" width="420" height="400" fill="url(#gradient)"/>
  <g transform="translate(20, 20)">
    <text x="50%" y="80" font-size="24" font-family="Arial" fill="#2E4053">Data Communications</text>
    <text x="50%" y="150" font-size="18" font-family="Arial" fill="#2E4053">What is Data Communications?</text>
    <rect x="0" y="170" width="400" height="130" fill="#F7F7F7" rx="10"/>
    <g transform="translate(15, 180)">
      <animate attributeName="opacity" dur="3s" begin="0s" repeatCount="indefinite"/>
      <animate attributeName="x" dur="3s" begin="0s" repeatCount="indefinite"/>
      <animate attributeName="y" dur="3s" begin="0s" repeatCount="indefinite"/>
      <rect x="0" y="0" width="40" height="40" fill="#FF69B4" rx="10"/>
      <text x="10" y="10" font-size="12" font-family="Arial" fill="#2E4053">Sender</text>
      <text x="10" y="25" font-size="12" font-family="Arial" fill="#2E4053">Receiver</text>
      <rect x="60" y="0" width="40" height="40" fill="#FF69B4" rx="10"/>
      <text x="70" y="10" font-size="12" font-family="Arial" fill="#2E4053">Communication Channel</text>
      <rect x="120" y="0" width="40" height="40" fill="#FF69B4" rx="10"/>
      <text x="130" y="10" font-size="12" font-family="Arial" fill="#2E4053">Error-Checking Mechanism</text>
    </g>
    <rect x="0" y="300" width="400" height="100" fill="#F7F7F7" rx="10"/>
    <g transform="translate(15, 310)">
      <animate attributeName="opacity" dur="3s" begin="0s" repeatCount="indefinite"/>
      <animate attributeName="x" dur="3s" begin="0s" repeatCount="indefinite"/>
      <animate attributeName="y" dur="3s" begin="0s" repeatCount="indefinite"/>
      <rect x="0" y="0" width="40" height="40" fill="#FF69B4" rx="10"/>
      <text x="10" y="10" font-size="12" font-family="Arial" fill="#2E4053">Types of Data Communications</text>
      <rect x="60" y="0" width="40" height="40" fill="#FF69B4" rx="10"/>
      <text x="70" y="10" font-size="12" font-family="Arial" fill="#2E4053">Store-and-Forward</text>
      <rect x="120" y="0" width="40" height="40" fill="#FF69B4" rx="10"/>
      <text x="130" y="10" font-size="12" font-family="Arial" fill="#2E4053">Store-and-Forward with Error-Correction</text>
      <rect x="0" y="90" width="40" height="40" fill="#FF69B4" rx="10"/>
      <text x="10" y="100" font-size="12" font-family="Arial" fill="#2E4053">Network Topologies</text>
      <rect x="60" y="90" width="40" height="40" fill="#FF69B4" rx="10"/>
      <text x="70" y="100" font-size="12" font-family="Arial" fill="#2E4053">Bus Topology</text>
      <rect x="120" y="90" width="40" height="40" fill="#FF69B4" rx="10"/>
      <text x="130" y="100" font-size="12" font-family="Arial" fill="#2E4053">Star Topology</text>
      <rect x="0" y="180" width="40" height="40" fill="#FF69B4" rx="10"/>
      <text x="10" y="190" font-size="12" font-family="Arial" fill="#2E4053">Ring Topology</text>
      <rect x="60" y="180" width="40" height="40" fill="#FF69B4" rx="10"/>
      <text x="70" y="190" font-size="12" font-family="Arial" fill="#2E4053">Mesh Topology</text>
    </g>
    <rect x="0" y="0" width="100" height="20" fill="#FF69B4" rx="10"/>
    <text x="10" y="5" font-size="12" font-family="Arial" fill="#2E4053">Textbook Ch</text>
    <rect x="0" y="130" width="100" height="20" fill="#FF69B4" rx="10"/>
    <text x="10" y="135" font-size="12" font-family="Arial" fill="#2E4053">Data Communications Study Material</text>
    <rect x="0" y="270" width="100" height="20" fill="#FF69B4" rx="10"/>
    <text x="10" y="275" font-size="12" font-family="Arial" fill="#2E4053">Network Topologies Study Material</text>
  </g>
  <path d="M 150 100 L 220 150 L 220 200 L 160 200 L 150 150 Z" stroke="#2E4053" stroke-width="2" fill="none"/>
  <path d="M 150 200 L 220 250 L 220 300 L 160 300 L 150 250 Z" stroke="#2E4053" stroke-width="2" fill="none"/>
  <path d="M 250 100 L 320 150 L 320 200 L 280 200 L 250 150 Z" stroke="#2E4053" stroke-width="2" fill="none"/>
  <path d="M 250 200 L 320 250 L 320 300 L 280 300 L 250 250 Z" stroke="#2E4053" stroke-width="2" fill="none"/>
  <g transform="translate(20, 250)">
    <rect x="0" y="0" width="100" height="20" fill="#FF69B4" rx="10"/>
    <text x="10" y="5" font-size="12" font-family="Arial" fill="#2E4053">Types of Data Communications</text>
    <rect x="0" y="30" width="100" height="20" fill="#FF69B4" rx="10"/>
    <text x="10" y="35" font-size="12" font-family="Arial" fill="#2E4053">Store-and-Forward</text>
    <rect x="0" y="60" width="100" height="20" fill="#FF69B4" rx="10"/>
    <text x="10" y="65" font-size="12" font-family="Arial" fill="#2E4053">Store-and-Forward with Error-Correction</text>
    <rect x="0" y="90" width="100" height="20" fill="#FF69B4" rx="10"/>
    <text x="10" y="95" font-size="12" font-family="Arial" fill="#2E4053">Network Topologies</text>
  </g>
  <g transform="translate(20, 350)">
    <rect x="0" y="0" width="100" height="20" fill="#FF69B4" rx="10"/>
    <text x="10" y="5" font-size="12" font-family="Arial" fill="#2E4053">Network Topologies</text>
    <rect x="0" y="30" width="100" height="20" fill="#FF69B4" rx="10"/>
    <text x="10" y="35" font-size="12" font-family="Arial" fill="#2E4053">Bus Topology</text>
    <rect x="0" y="60" width="100" height="20" fill="#FF69B4" rx="10"/>
    <text x="10" y="65" font-size="12" font-family="Arial" fill="#2E4053">Star Topology</text>
    <rect x="0" y="90" width="100" height="20" fill="#FF69B4" rx="10"/>
    <text x="10" y="95" font-size="12" font-family="Arial" fill="#2E4053">Ring Topology</text>
    <rect x="0" y="120" width="100" height="20" fill="#FF69B4" rx="10"/>
    <text x="10" y="125" font-size="12" font-family="Arial" fill="#2E4053">Mesh Topology</text>
  </g>
  <g transform="translate(20, 450)">
    <rect x="0" y="0" width="100" height="20" fill="#FF69B4" rx="10"/>
    <text x="10" y="5" font-size="12" font-family="Arial" fill="#2E4053">Error-Checking Mechanism</text>
    <rect x="0" y="30" width="100" height="20" fill="#FF69B4" rx="10"/>
    <text x="10" y="35" font-size="12" font-family="Arial" fill="#2E4053">Sender</text>
    <rect x="0" y="60" width="100" height="20" fill="#FF69B4" rx="10"/>
    <text x="10" y="65" font-size="12" font-family="Arial" fill="#2E4053">Receiver</text>
  </g>
</svg>