<svg xmlns="http://www.w3.org/2000/svg" viewBox="0 0 800 1450">
  <defs>
    <linearGradient id="blueGrad" x1="0%" y1="0%" x2="100%" y2="100%">
      <stop offset="0%" stop-color="#e3f2fd"/>
      <stop offset="100%" stop-color="#bbdefb"/>
    </linearGradient>
    <linearGradient id="greenGrad" x1="0%" y1="0%" x2="100%" y2="100%">
      <stop offset="0%" stop-color="#e8f5e9"/>
      <stop offset="100%" stop-color="#c8e6c9"/>
    </linearGradient>
    <linearGradient id="orangeGrad" x1="0%" y1="0%" x2="100%" y2="100%">
      <stop offset="0%" stop-color="#fff3e0"/>
      <stop offset="100%" stop-color="#ffe0b2"/>
    </linearGradient>
    <linearGradient id="purpleGrad" x1="0%" y1="0%" x2="100%" y2="100%">
      <stop offset="0%" stop-color="#f3e5f5"/>
      <stop offset="100%" stop-color="#e1bee7"/>
    </linearGradient>
    <linearGradient id="redGrad" x1="0%" y1="0%" x2="100%" y2="100%">
      <stop offset="0%" stop-color="#ffebee"/>
      <stop offset="100%" stop-color="#ffcdd2"/>
    </linearGradient>
    <linearGradient id="titleGrad" x1="0%" y1="0%" x2="100%" y2="0%">
      <stop offset="0%" stop-color="#1976d2"/>
      <stop offset="100%" stop-color="#1565c0"/>
    </linearGradient>
    <filter id="shadow" x="-20%" y="-20%" width="140%" height="140%">
      <feDropShadow dx="2" dy="2" stdDeviation="3" flood-opacity="0.2"/>
    </filter>
    <marker id="arrowBlue" markerWidth="10" markerHeight="10" refX="9" refY="3" orient="auto">
      <path d="M0,0 L0,6 L9,3 z" fill="#1976d2"/>
    </marker>
    <marker id="arrowGreen" markerWidth="10" markerHeight="10" refX="9" refY="3" orient="auto">
      <path d="M0,0 L0,6 L9,3 z" fill="#388e3c"/>
    </marker>
  </defs>
  
  <style>
    @keyframes fadeInSlide {
      from { opacity: 0; transform: translateY(20px); }
      to { opacity: 1; transform: translateY(0); }
    }
    @keyframes scaleIn {
      from { opacity: 0; transform: scale(0.85); }
      to { opacity: 1; transform: scale(1); }
    }
    @keyframes textReveal {
      from { opacity: 0; transform: translateX(-10px); }
      to { opacity: 1; transform: translateX(0); }
    }
    @keyframes drawLine {
      from { stroke-dashoffset: 300; }
      to { stroke-dashoffset: 0; }
    }
    @keyframes pulse {
      0%, 100% { transform: scale(1); }
      50% { transform: scale(1.05); }
    }
    .step { animation: fadeInSlide 0.6s ease-out; }
    .step rect {
      animation: scaleIn 0.5s cubic-bezier(0.34, 1.56, 0.64, 1);
      transform-origin: center;
    }
    .step text { animation: textReveal 0.4s ease-out 0.2s backwards; }
    .title-anim { animation: scaleIn 0.8s cubic-bezier(0.34, 1.56, 0.64, 1); }
    .draw-line {
      stroke-dasharray: 300;
      stroke-dashoffset: 300;
      animation: drawLine 1.5s ease-out forwards;
    }
    .pulse-anim { animation: pulse 2s ease-in-out infinite; }
  </style>
  
  <rect width="800" height="1450" fill="#f8f9fa"/>
  
  <!-- Step 0: Title -->
  <g class="step" id="step0" data-narration="Welcome to Transaction Processing - the backbone of reliable database management systems ensuring data integrity.">
    <rect x="50" y="15" width="700" height="45" rx="10" fill="url(#titleGrad)" filter="url(#shadow)"/>
    <text x="400" y="42" text-anchor="middle" font-size="20" font-weight="bold" fill="white">Introduction to Transaction Processing</text>
    <text x="400" y="65" text-anchor="middle" font-size="12" fill="#666">ACID Properties • Transaction States • Concurrency Control</text>
  </g>
  
  <!-- Step 1: What is a Transaction -->
  <g class="step" id="step1" data-narration="A transaction is a logical unit of work containing database operations that transforms data from one consistent state to another.">
    <rect x="30" y="70" width="740" height="85" rx="8" fill="url(#blueGrad)" filter="url(#shadow)"/>
    <text x="50" y="90" font-size="14" font-weight="bold" fill="#1976d2">What is a Transaction?</text>
    <rect x="50" y="100" width="680" height="2" fill="#1976d2"/>
    <text x="50" y="120" font-size="11" fill="#333">A logical unit of work consisting of one or more database operations</text>
    <text x="50" y="138" font-size="11" fill="#333">Transforms database from one consistent state to another</text>
    <g class="pulse-anim" transform-origin="700 100">
      <circle cx="700" cy="100" r="25" fill="#1976d2" opacity="0.2"/>
      <text x="700" y="105" text-anchor="middle" font-size="11" fill="#1976d2" font-weight="bold">DB</text>
    </g>
  </g>
  
  <!-- Step 2: Why It Matters -->
  <g class="step" id="step2" data-narration="Transaction processing ensures data integrity in banking, reservations, and e-commerce systems where reliability is critical.">
    <rect x="30" y="165" width="740" height="85" rx="8" fill="url(#orangeGrad)" filter="url(#shadow)"/>
    <text x="50" y="185" font-size="14" font-weight="bold" fill="#f57c00">Why Transaction Processing Matters</text>
    <rect x="50" y="195" width="680" height="2" fill="#f57c00"/>
    <circle cx="80" cy="220" r="12" fill="#ff9800"/>
    <text x="80" y="224" text-anchor="middle" font-size="8" fill="white">$</text>
    <text x="100" y="224" font-size="10" fill="#333">Banking Systems</text>
    <circle cx="200" cy="220" r="12" fill="#ff9800"/>
    <path d="M192 214 L200 220 L208 220 L200 230 Z" fill="white" stroke="#ff9800" stroke-width="1"/>
    <text x="220" y="224" font-size="10" fill="#333">Airline Reservations</text>
    <circle cx="350" cy="220" r="12" fill="#ff9800"/>
    <text x="350" y="222" text-anchor="middle" font-size="14" fill="white">🛒</text>
    <text x="370" y="224" font-size="10" fill="#333">E-Commerce</text>
    <text x="500" y="224" font-size="10" fill="#e65100">Without transactions: Data corruption, inconsistent states</text>
  </g>
  
  <!-- Step 3: ACID Properties Overview -->
  <g class="step" id="step3" data-narration="ACID properties define valid transactions: Atomicity, Consistency, Isolation, and Durability ensure reliable database operations.">
    <rect x="30" y="260" width="740" height="90" rx="8" fill="url(#greenGrad)" filter="url(#shadow)"/>
    <text x="50" y="280" font-size="14" font-weight="bold" fill="#388e3c">ACID Properties - The Foundation of Transactions</text>
    <rect x="50" y="290" width="680" height="2" fill="#388e3c"/>
    <g transform="translate(70, 305)">
      <rect x="0" y="0" width="130" height="35" rx="5" fill="#1976d2"/>
      <text x="65" y="15" text-anchor="middle" font-size="9" fill="white" font-weight="bold">A</text>
      <text x="65" y="27" text-anchor="middle" font-size="8" fill="white">tomicity</text>
    </g>
    <g transform="translate(220, 305)">
      <rect x="0" y="0" width="130" height="35" rx="5" fill="#388e3c"/>
      <text x="65" y="15" text-anchor="middle" font-size="9" fill="white" font-weight="bold">C</text>
      <text x="65" y="27" text-anchor="middle" font-size="8" fill="white">onsistency</text>
    </g>
    <g transform="translate(370, 305)">
      <rect x="0" y="0" width="130" height="35" rx="5" fill="#9c27b0"/>
      <text x="65" y="15" text-anchor="middle" font-size="9" fill="white" font-weight="bold">I</text>
      <text x="65" y="27" text-anchor="middle" font-size="8" fill="white">solation</text>
    </g>
    <g transform="translate(520, 305)">
      <rect x="0" y="0" width="130" height="35" rx="5" fill="#f57c00"/>
      <text x="65" y="15" text-anchor="middle" font-size="9" fill="white" font-weight="bold">D</text>
      <text x="65" y="27" text-anchor="middle" font-size="8" fill="white">urability</text>
    </g>
  </g>
  
  <!-- Step 4: Atomicity Explained -->
  <g class="step" id="step4" data-narration="Atomicity ensures all operations execute as a single unit - either all succeed or none do, with rollback on failure.">
    <rect x="30" y="360" width="740" height="90" rx="8" fill="url(#blueGrad)" filter="url(#shadow)"/>
    <text x="50" y="380" font-size="14" font-weight="bold" fill="#1976d2">Atomicity - All or Nothing</text>
    <rect x="50" y="390" width="680" height="2" fill="#1976d2"/>
    <text x="50" y="410" font-size="10" fill="#333">Transaction: Transfer Rs.1000 from Account A to B</text>
    <g transform="translate(50, 420)">
      <rect x="0" y="0" width="120" height="20" rx="4" fill="#e3f2fd" stroke="#1976d2" stroke-width="1"/>
      <text x="60" y="14" text-anchor="middle" font-size="9" fill="#1976d2">READ(A)→5000</text>
      <path d="M125 10 L135 10" stroke="#1976d2" stroke-width="2" marker-end="url(#arrowBlue)"/>
    </g>
    <g transform="translate(190, 420)">
      <rect x="0" y="0" width="120" height="20" rx="4" fill="#e3f2fd" stroke="#1976d2" stroke-width="1"/>
      <text x="60" y="14" text-anchor="middle" font-size="9" fill="#1976d2">A=5000-1000</text>
      <path d="M125 10 L135 10" stroke="#1976d2" stroke-width="2" marker-end="url(#arrowBlue)"/>
    </g>
    <g transform="translate(330, 420)">
      <rect x="0" y="0" width="120" height="20" rx="4" fill="#e3f2fd" stroke="#1976d2" stroke-width="1"/>
      <text x="60" y="14" text-anchor="middle" font-size="9" fill="#1976d2">READ(B)→3000</text>
      <path d="M125 10 L135 10" stroke="#1976d2" stroke-width="2" marker-end="url(#arrowBlue)"/>
    </g>
    <g transform="translate(470, 420)">
      <rect x="0" y="0" width="120" height="20" rx="4" fill="#e8f5e9" stroke="#388e3c" stroke-width="1"/>
      <text x="60" y="14" text-anchor="middle" font-size="9" fill="#388e3c">B=3000+1000</text>
    </g>
    <text x="50" y="448" font-size="10" fill="#d32f2f">If system fails after Step 2 → Rollback: A=5000 restored</text>
  </g>
  
  <!-- Step 5: Consistency Explained -->
  <g class="step" id="step5" data-narration="Consistency ensures transactions maintain all database constraints, transforming valid states to valid states only.">
    <rect x="30" y="460" width="740" height="90" rx="8" fill="url(#greenGrad)" filter="url(#shadow)"/>
    <text x="50" y="480" font-size="14" font-weight="bold" fill="#388e3c">Consistency - Valid State to Valid State</text>
    <rect x="50" y="490" width="680" height="2" fill="#388e3c"/>
    <text x="50" y="510" font-size="10" fill="#333">Constraint: Total Balance = Savings + Checking must always equal 8000</text>
    <g transform="translate(60, 520)">
      <rect x="0" y="0" width="150" height="25" rx="4" fill="#fff3e0" stroke="#ff9800"/>
      <text x="75" y="16" text-anchor="middle" font-size="10" fill="#333">Before: 5000 + 3000 = 8000</text>
    </g>
    <path d="M230 532 L260 532" stroke="#388e3c" stroke-width="2" marker-end="url(#arrowGreen)"/>
    <g transform="translate(270, 520)">
      <rect x="0" y="0" width="150" height="25" rx="4" fill="#e8f5e9" stroke="#388e3c"/>
      <text x="75" y="16" text-anchor="middle" font-size="10" fill="#333">After: 4000 + 4000 = 8000</text>
    </g>
    <text x="450" y="530" font-size="10" fill="#388e3c">✓ Constraint Satisfied</text>
    <text x="50" y="548" font-size="10" fill="#d32f2f">✗ If violation occurs → Transaction aborted, database restored</text>
  </g>
  
  <!-- Step 6: Isolation Explained -->
  <g class="step" id="step6" data-narration="Isolation ensures concurrent transactions appear serial - intermediate results remain invisible to other transactions.">
    <rect x="30" y="560" width="740" height="90" rx="8" fill="url(#purpleGrad)" filter="url(#shadow)"/>
    <text x="50" y="580" font-size="14" font-weight="bold" fill="#9c27b0">Isolation - Concurrent Appears Serial</text>
    <rect x="50" y="590" width="680" height="2" fill="#9c27b0"/>
    <g transform="translate(50, 605)">
      <text x="0" y="10" font-size="10" font-weight="bold" fill="#9c27b0">Transaction T1:</text>
      <rect x="90" y="0" width="80" height="18" rx="3" fill="#f3e5f5" stroke="#9c27b0"/>
      <text x="130" y="13" text-anchor="middle" font-size="8" fill="#9c27b0">WRITE(A)=4000</text>
    </g>
    <text x="240" y="615" font-size="10" fill="#666">← Intermediate value hidden!</text>
    <g transform="translate(50, 630)">
      <text x="0" y="10" font-size="10" font-weight="bold" fill="#666">Other T2 sees:</text>
      <rect x="90" y="0" width="80" height="18" rx="3" fill="#e0e0e0" stroke="#666"/>
      <text x="130" y="13" text-anchor="middle" font-size="8" fill="#666">A=5000 (old value)</text>
    </g>
    <text x="400" y="615" font-size="10" fill="#9c27b0">Only visible after COMMIT</text>
    <g transform="translate(400, 630)">
      <rect x="0" y="0" width="100" height="18" rx="3" fill="#ce93d8" stroke="#9c27b0"/>
      <text x="50" y="13" text-anchor="middle" font-size="8" fill="white">COMMIT → A=4000</text>
    </g>
  </g>
  
  <!-- Step 7: Durability Explained -->
  <g class="step" id="step7" data-narration="Durability guarantees committed transaction effects persist permanently, surviving system crashes through logging.">
    <rect x="30" y="660" width="740" height="85" rx="8" fill="url(#orangeGrad)" filter="url(#shadow)"/>
    <text x="50" y="680" font-size="14" font-weight="bold" fill="#f57c00">Durability - Committed Changes Persist</text>
    <rect x="50" y="690" width="680" height="2" fill="#f57c00"/>
    <g transform="translate(60, 705)">
      <rect x="0" y="0" width="120" height="30" rx="4" fill="#fff3e0" stroke="#f57c00"/>
      <text x="60" y="12" text-anchor="middle" font-size="8" fill="#333">Transaction</text>
      <text x="60" y="24" text-anchor="middle" font-size="9" font-weight="bold" fill="#f57c00">COMMIT</text>
    </g>
    <path d="M190 720 L220 720" stroke="#f57c00" stroke-width="2" marker-end="url(#arrowBlue)"/>
    <g transform="translate(230, 700)">
      <rect x="0" y="0" width="100" height="40" rx="4" fill="#ffe0b2" stroke="#f57c00"/>
      <text x="50" y="15" text-anchor="middle" font-size="8" fill="#333">Write to</text>
      <text x="50" y="28" text-anchor="middle" font-size="9" font-weight="bold" fill="#f57c00">Log File</text>
    </g>
    <path d="M340 720 L370 720" stroke="#f57c00" stroke-width="2" marker-end="url(#arrowBlue)"/>
    <g transform="translate(380, 705)">
      <rect x="0" y="0" width="80" height="30" rx="4" fill="#ffcc80" stroke="#ef6c00"/>
      <text x="40" y="20" text-anchor="middle" font-size="9" font-weight="bold" fill="#fff">DISK</text>
    </g>
    <path d="M470 720 L500 720" stroke="#388e3c" stroke-width="2" marker-end="url(#arrowGreen)"/>
    <text x="510" y="724" font-size="10" fill="#388e3c">Even if crash!</text>
  </g>
  
  <!-- Step 8: Transaction States -->
  <g class="step" id="step8" data-narration="Transactions move through five states: Active, Partially Committed, Committed, Failed, and Aborted during their lifecycle.">
    <rect x="30" y="755" width="740" height="110" rx="8" fill="url(#redGrad)" filter="url(#shadow)"/>
    <text x="50" y="775" font-size="14" font-weight="bold" fill="#d32f2f">Transaction States Lifecycle</text>
    <rect x="50" y="785" width="680" height="2" fill="#d32f2f"/>
    
    <!-- State diagram -->
    <g transform="translate(100, 800)">
      <ellipse cx="0" cy="0" rx="35" ry="20" fill="#e3f2fd" stroke="#1976d2" stroke-width="2"/>
      <text x="0" y="4" text-anchor="middle" font-size="9" fill="#1976d2" font-weight="bold">Active</text>
    </g>
    <path d="M145 800 L185 800" stroke="#1976d2" stroke-width="2" marker-end="url(#arrowBlue)" class="draw-line"/>
    
    <g transform="translate(200, 800)">
      <ellipse cx="0" cy="0" rx="50" ry="20" fill="#fff3e0" stroke="#f57c00" stroke-width="2"/>
      <text x="0" y="4" text-anchor="middle" font-size="9" fill="#f57c00" font-weight="bold">Partially Committed</text>
    </g>
    <path d="M260 800 L300 800" stroke="#f57c00" stroke-width="2" marker-end="url(#arrowBlue)" class="draw-line"/>
    
    <g transform="translate(315, 800)">
      <ellipse cx="0" cy="0" rx="35" ry="20" fill="#e8f5e9" stroke="#388e3c" stroke-width="2"/>
      <text x="0" y="4" text-anchor="middle" font-size="9" fill="#388e3c" font-weight="bold">Committed</text>
    </g>
    
    <path d="M130 820 L130 850 L200 850" stroke="#d32f2f" stroke-width="1.5" fill="none" marker-end="url(#arrowBlue)"/>
    <g transform="translate(200, 850)">
      <ellipse cx="0" cy="0" rx="30" ry="18" fill="#ffebee" stroke="#d32f2f" stroke-width="2"/>
      <text x="0" y="4" text-anchor="middle" font-size="8" fill="#d32f2f" font-weight="bold">Failed</text>
    </g>
    <path d="M240 850 L270 850" stroke="#d32f2f" stroke-width="2" marker-end="url(#arrowBlue)"/>
    <g transform="translate(285, 850)">
      <ellipse cx="0" cy="0" rx="35" ry="18" fill="#ffcdd2" stroke="#c62828" stroke-width="2"/>
      <text x="0" y="4" text-anchor="middle" font-size="8" fill="#c62828" font-weight="bold">Aborted</text>
    </g>
  </g>
  
  <!-- Step 9: Concurrency Problems - Lost Update & Dirty Read -->
  <g class="step" id="step9" data-narration="Concurrency problems include Lost Update where one transaction overwrites another's changes, and Dirty Read of uncommitted data.">
    <rect x="30" y="875" width="740" height="100" rx="8" fill="url(#blueGrad)" filter="url(#shadow)"/>
    <text x="50" y="895" font-size="14" font-weight="bold" fill="#1976d2">Concurrency Problems: Lost Update &amp; Dirty Read</text>
    <rect x="50" y="905" width="680" height="2" fill="#1976d2"/>
    
    <!-- Lost Update Table -->
    <g transform="translate(40, 915)">
      <text x="0" y="8" font-size="10" font-weight="bold" fill="#d32f2f">Lost Update:</text>
      <rect x="0" y="15" width="320" height="50" rx="3" fill="white" stroke="#d32f2f" stroke-width="1"/>
      <text x="5" y="28" font-size="7" fill="#666">Time</text>
      <text x="35" y="28" font-size="7" fill="#666">T1</text>
      <text x="90" y="28" font-size="7" fill="#666">T2</text>
      <line x1="0" y1="32" x2="320" y2="32" stroke="#ddd"/>
      <text x="5" y="45" font-size="7" fill="#333">t1</text>
      <text x="35" y="45" font-size="7" fill="#333">READ(X=100)</text>
      <text x="90" y="45" font-size="7" fill="#999">-</text>
      <line x1="0" y1="50" x2="320" y2="50" stroke="#ddd"/>
      <text x="5" y="60" font-size="7" fill="#333">t2</text>
      <text x="35" y="60" font-size="7" fill="#999">-</text>
      <text x="90" y="60" font-size="7" fill="#333">READ(X=100)</text>
      <line x1="0" y1="64" x2="320" y2="64" stroke="#ddd"/>
      <text x="5" y="75" font-size="7" fill="#333">t4</text>
      <text x="35" y="75" font-size="7" fill="#333">WRITE(X=150)</text>
      <text x="90" y="75" font-size="7" fill="#333">WRITE(X=200)</text>
    </g>
    <text x="370" y="930" font-size="9" fill="#d32f2f">✗ T1's update LOST!</text>
    <text x="370" y="945" font-size="9" fill="#333">Result: X=200 (should be 250)</text>
    
    <!-- Dirty Read -->
    <g transform="translate(40, 975)">
      <text x="0" y="0" font-size="10" font-weight="bold" fill="#f57c00">Dirty Read:</text>
      <rect x="0" y="8" width="280" height="35" rx="3" fill="white" stroke="#f57c00" stroke-width="1"/>
      <text x="5" y="20" font-size="7" fill="#333">T1: WRITE(X=500) → ROLLBACK</text>
      <text x="5" y="32" font-size="7" fill="#333">T2: READ(X=500) ← Reads uncommitted data!</text>
    </g>
  </g>
  
  <!-- Step 10: More Concurrency Problems -->
  <g class="step" id="step10" data-narration="Non-Repeatable Read occurs when a transaction sees different values on repeated reads of the same data.">
    <rect x="30" y="985" width="740" height="100" rx="8" fill="url(#purpleGrad)" filter="url(#shadow)"/>
    <text x="50" y="1005" font-size="14" font-weight="bold" fill="#9c27b0">More Concurrency: Non-Repeatable Read &amp; Phantom Read</text>
    <rect x="50" y="1015" width="680" height="2" fill="#9c27b0"/>
    
    <!-- Non-Repeatable Read -->
    <g transform="translate(40, 1025)">
      <text x="0" y="8" font-size="10" font-weight="bold" fill="#e65100">Non-Repeatable Read:</text>
      <rect x="0" y="15" width="340" height="50" rx="3" fill="white" stroke="#e65100" stroke-width="1"/>
      <text x="5" y="28" font-size="7" fill="#666">Time</text>
      <text x="40" y="28" font-size="7" fill="#666">T1</text>
      <text x="130" y="28" font-size="7" fill="#666">T2</text>
      <line x1="0" y1="32" x2="340" y2="32" stroke="#ddd"/>
      <text x="5" y="44" font-size="7" fill="#333">t1</text>
      <text x="40" y="44" font-size="7" fill="#333">READ(X)=100</text>
      <line x1="0" y1="47" x2="340" y2="47" stroke="#ddd"/>
      <text x="5" y="58" font-size="7" fill="#333">t2</text>
      <text x="40" y="58" font-size="7" fill="#999">-</text>
      <text x="130" y="58" font-size="7" fill="#333">WRITE(X)=200</text>
      <line x1="0" y1="61" x2="340" y2="61" stroke="#ddd"/>
      <text x="5" y="73" font-size="7" fill="#333">t3</text>
      <text x="40" y="73" font-size="7" fill="#333">READ(X)=200</text>
    </g>
    <text x="390" y="1045" font-size="9" fill="#e65100">✗ Different values!</text>
    <text x="390" y="1058" font-size="9" fill="#333">First read: 100, Second: 200</text>
    
    <!-- Phantom Read -->
    <g transform="translate(40, 1085)">
      <text x="0" y="0" font-size="10" font-weight="bold" fill="#7b1fa2">Phantom Read:</text>
      <rect x="0" y="8" width="300" height="30" rx="3" fill="white" stroke="#7b1fa2" stroke-width="1"/>
      <text x="5" y="22" font-size="7" fill="#333">T1: SELECT * FROM Accts WHERE type='SAVINGS' → 100 rows</text>
      <text x="5" y="34" font-size="7" fill="#333">T2: INSERT INTO Accts VALUES(...) → New row inserted</text>
      <text x="5" y="46" font-size="7" fill="#333">T1: SELECT * FROM Accts WHERE type='SAVINGS' → 101 rows!</text>
    </g>
  </g>
  
  <!-- Step 11: Schedules -->
  <g class="step" id="step11" data-narration="Schedules define operation order in concurrent transactions. Serial schedules execute transactions sequentially, ensuring consistency.">
    <rect x="30" y="1095" width="740" height="95" rx="8" fill="url(#greenGrad)" filter="url(#shadow)"/>
    <text x="50" y="1115" font-size="14" font-weight="bold" fill="#388e3c">Schedules: Serial vs Non-Serial</text>
    <rect x="50" y="1125" width="680" height="2" fill="#388e3c"/>
    
    <!-- Serial Schedule -->
    <g transform="translate(40, 1135)">
      <text x="0" y="8" font-size="10" font-weight="bold" fill="#388e3c">Serial Schedule:</text>
      <rect x="0" y="15" width="280" height="45" rx="3" fill="white" stroke="#388e3c" stroke-width="1"/>
      <text x="5" y="28" font-size="7" fill="#333">T1: READ(A) → WRITE(A) → COMMIT</text>
      <text x="5" y="40" font-size="7" fill="#333">T2: READ(A) → WRITE(A) → COMMIT</text>
      <text x="5" y="52" font-size="7" fill="#666">(Sequential execution)</text>
    </g>
    
    <!-- Non-Serial Schedule -->
    <g transform="translate(340, 1135)">
      <text x="0" y="8" font-size="10" font-weight="bold" fill="#f57c00">Non-Serial Schedule:</text>
      <rect x="0" y="15" width="280" height="45" rx="3" fill="white" stroke="#f57c00" stroke-width="1"/>
      <text x="5" y="28" font-size="7" fill="#333">T1: READ(A) →</text>
      <text x="100" y="28" font-size="7" fill="#333">T2: READ(A) →</text>
      <text x="200" y="28" font-size="7" fill="#333">T1: WRITE(A)</text>
      <text x="5" y="40" font-size="7" fill="#333">T2: WRITE(A) →</text>
      <text x="100" y="40" font-size="7" fill="#333">T1: COMMIT</text>
      <text x="200" y="40" font-size="7" fill="#333">T2: COMMIT</text>
      <text x="5" y="52" font-size="7" fill="#666">(Interleaved execution)</text>
    </g>
    
    <text x="40" y="1195" font-size="9" fill="#388e3c">✓ Serial always correct</text>
    <text x="180" y="1195" font-size="9" fill="#f57c00">⚠ Non-serial may need control</text>
  </g>
  
  <!-- Step 12: Lock-Based Protocols -->
  <g class="step" id="step12" data-narration="Lock-based protocols use Shared and Exclusive locks. Two-Phase Locking ensures serializability through growing and shrinking phases.">
    <rect x="30" y="1200" width="740" height="100" rx="8" fill="url(#orangeGrad)" filter="url(#shadow)"/>
    <text x="50" y="1220" font-size="14" font-weight="bold" fill="#f57c00">Lock-Based Protocols &amp; Two-Phase Locking (2PL)</text>
    <rect x="50" y="1230" width="680" height="2" fill="#f57c00"/>
    
    <!-- Lock Types -->
    <g transform="translate(40, 1240)">
      <text x="0" y="8" font-size="10" font-weight="bold" fill="#333">Lock Types:</text>
      <g transform="translate(0, 15)">
        <rect x="0" y="0" width="80" height="25" rx="4" fill="#e3f2fd" stroke="#1976d2"/>
        <text x="40" y="12" text-anchor="middle" font-size="9" fill="#1976d2" font-weight="bold">S-Lock</text>
        <text x="40" y="22" text-anchor="middle" font-size="7" fill="#666">Shared (Read)</text>
      </g>
      <g transform="translate(90, 15)">
        <rect x="0" y="0" width="80" height="25" rx="4" fill="#ffcdd2" stroke="#d32f2f"/>
        <text x="40" y="12" text-anchor="middle" font-size="9" fill="#d32f2f" font-weight="bold">X-Lock</text>
        <text x="40" y="22" text-anchor="middle" font-size="7" fill="#666">Exclusive (Write)</text>
      </g>
      <text x="180" y="17" font-size="8" fill="#666">S + S = ✓ Concurrent read</text>
      <text x="180" y="30" font-size="8" fill="#666">S + X = ✗ Blocked</text>
      <text x="180" y="43" font-size="8" fill="#666">X + X = ✗ Blocked</text>
    </g>
    
    <!-- 2PL Phases -->
    <g transform="translate(350, 1240)">
      <text x="0" y="8" font-size="10" font-weight="bold" fill="#f57c00">Two-Phase Locking:</text>
      <rect x="0" y="15" width="180" height="55" rx="4" fill="#fff3e0" stroke="#f57c00" stroke-width="1"/>
      <rect x="5" y="20" width="75" height="20" rx="3" fill="#c8e6c9" stroke="#388e3c"/>
      <text x="42" y="33" text-anchor="middle" font-size="8" fill="#388e3c" font-weight="bold">Growing</text>
      <text x="42" y="43" text-anchor="middle" font-size="6" fill="#666">Acquire locks</text>
      <rect x="85" y="20" width="85" height="20" rx="3" fill="#ffcdd2" stroke="#d32f2f"/>
      <text x="127" y="33" text-anchor="middle" font-size="8" fill="#d32f2f" font-weight="bold">Shrinking</text>
      <text x="127" y="43" text-anchor="middle" font-size="6" fill="#666">Release locks</text>
      <line x1="42" y1="45" x2="127" y2="45" stroke="#666" stroke-width="1" stroke-dasharray="3"/>
      <text x="85" y="58" text-anchor="middle" font-size="7" fill="#333">Cannot acquire after release!</text>
    </g>
  </g>
  
  <!-- Step 13: Key Takeaways -->
  <g class="step" id="step13" data-narration="Key takeaways: ACID properties ensure reliability, transactions have five states, and concurrency requires careful control mechanisms.">
    <rect x="30" y="1310" width="740" height="65" rx="8" fill="url(#blueGrad)" filter="url(#shadow)"/>
    <text x="50" y="1330" font-size="14" font-weight="bold" fill="#1976d2">Key Takeaways</text>
    <rect x="50" y="1340" width="680" height="2" fill="#1976d2"/>
    <text x="50" y="1360" font-size="10" fill="#333">• ACID: Atomicity (all-or-nothing) • Consistency (valid states) • Isolation (serial appearance) • Durability (permanent)</text>
    <text x="50" y="1378" font-size="10" fill="#333">• States: Active → Partially Committed → Committed (or Failed → Aborted)</text>
    <text x="50" y="1392" font-size="10" fill="#333">• 2PL: Growing Phase (acquire) → Shrinking Phase (release) ensures conflict-serializability</text>
  </g>
  
  <!-- Step 14: Exam Tips -->
  <g class="step" id="step14" data-narration="Remember: ACID is essential, serial schedules are always correct, locks prevent concurrency problems, and 2PL ensures serializability.">
    <rect x="30" y="1385" width="740" height="50" rx="8" fill="url(#greenGrad)" filter="url(#shadow)"/>
    <text x="50" y="1405" font-size="14" font-weight="bold" fill="#388e3c">Exam Tips</text>
    <rect x="50" y="1415" width="680" height="2" fill="#388e3c"/>
    <text x="50" y="1432" font-size="10" fill="#333">🎯 Memorize ACID • Know transaction state order • Serial = always correct • S-lock allows concurrent read, X-lock blocks all</text>
  </g>
</svg>