<svg width="420" height="400" data-topic-id="remote-invocation-introduction-request-reply-proto">
  <defs>
    <linearGradient id="pastel-gradient" x1="0%" y1="0%" x2="100%" y2="0%">
      <stop offset="0%" stop-color="#C7B8EA" stop-opacity="1"/>
      <stop offset="100%" stop-color="#B2FFFC" stop-opacity="1"/>
    </linearGradient>
  </defs>

  <title>Remote Invocation Introduction Request Reply Proto</title>

  <rect x="20" y="20" width="380" height="360" fill="url(#pastel-gradient)"/>
  <text x="20" y="40" font-size="24" font-family="Arial" text-anchor="middle">Remote Invocation Introduction</text>
  <text x="20" y="60" font-size="18" font-family="Arial" text-anchor="middle">Request Reply Proto</text>

  <section data-narration="Client-Server Architecture">
    <rect x="50" y="100" width="280" height="60" fill="#fff"/>
    <text x="50" y="110" font-size="18" font-family="Arial" text-anchor="middle">Client</text>
    <text x="50" y="130" font-size="18" font-family="Arial" text-anchor="middle">Server</text>
    <text x="50" y="150" font-size="18" font-family="Arial" text-anchor="middle">Architecture</text>
  </section>

  <section data-narration="Distributed Systems">
    <rect x="50" y="220" width="280" height="60" fill="#fff"/>
    <text x="50" y="230" font-size="18" font-family="Arial" text-anchor="middle">Distributed</text>
    <text x="50" y="250" font-size="18" font-family="Arial" text-anchor="middle">Systems</text>
    <text x="50" y="270" font-size="18" font-family="Arial" text-anchor="middle">Networking</text>
  </section>

  <section data-narration="Remote Procedure Call (RPC)">
    <rect x="50" y="310" width="280" height="60" fill="#fff"/>
    <text x="50" y="320" font-size="18" font-family="Arial" text-anchor="middle">Remote</text>
    <text x="50" y="340" font-size="18" font-family="Arial" text-anchor="middle">Procedure</text>
    <text x="50" y="360" font-size="18" font-family="Arial" text-anchor="middle">Call (RPC)</text>
  </section>

  <section data-narration="Request-Reply Protocols">
    <rect x="50" y="390" width="280" height="60" fill="#fff"/>
    <text x="50" y="400" font-size="18" font-family="Arial" text-anchor="middle">Request</text>
    <text x="50" y="420" font-size="18" font-family="Arial" text-anchor="middle">Reply</text>
    <text x="50" y="440" font-size="18" font-family="Arial" text-anchor="middle">Protocols</text>
  </section>

  <section data-narration="Key Components">
    <rect x="50" y="490" width="280" height="60" fill="#fff"/>
    <text x="50" y="500" font-size="18" font-family="Arial" text-anchor="middle">Request</text>
    <text x="50" y="520" font-size="18" font-family="Arial" text-anchor="middle">Reply</text>
    <text x="50" y="540" font-size="18" font-family="Arial" text-anchor="middle">Key</text>
    <text x="50" y="560" font-size="18" font-family="Arial" text-anchor="middle">Components</text>
  </section>

  <section data-narration="Example">
    <rect x="50" y="630" width="280" height="80" fill="#fff"/>
    <text x="50" y="640" font-size="18" font-family="Arial" text-anchor="middle">Example</text>
    <text x="50" y="660" font-size="18" font-family="Arial" text-anchor="middle">Client</text>
    <text x="50" y="680" font-size="18" font-family="Arial" text-anchor="middle">Server</text>
    <text x="50" y="700" font-size="18" font-family="Arial" text-anchor="middle">Request</text>
    <text x="50" y="720" font-size="18" font-family="Arial" text-anchor="middle">Reply</text>
    <text x="50" y="740" font-size="18" font-family="Arial" text-anchor="middle">Result</text>
  </section>

  <footer>
    <text x="20" y="380" font-size="18" font-family="Arial" text-anchor="middle">Remote Invocation Introduction Request Reply Proto</text>
  </footer>

  <animateTransform attributeName="transform" type="rotate" from="0 210 200" to="360 210 200" dur="10s" begin="0s" repeatCount="indefinite"/>
  <animateTransform attributeName="transform" type="rotate" from="0 210 200" to="360 210 200" dur="10s" begin="10s" repeatCount="indefinite"/>

  <g transform="translate(210, 200)">
    <line x1="50" y1="50" x2="50" y2="70" stroke="#3498db" stroke-width="2"/>
    <line x1="50" y1="70" x2="50" y2="90" stroke="#3498db" stroke-width="2"/>
    <line x1="50" y1="90" x2="50" y2="110" stroke="#3498db" stroke-width="2"/>
    <line x1="50" y1="110" x2="50" y2="130" stroke="#3498db" stroke-width="2"/>
    <line x1="50" y1="130" x2="50" y2="150" stroke="#3498db" stroke-width="2"/>
    <line x1="50" y1="150" x2="50" y2="170" stroke="#3498db" stroke-width="2"/>
    <line x1="50" y1="170" x2="50" y2="190" stroke="#3498db" stroke-width="2"/>
    <line x1="50" y1="190" x2="50" y2="210" stroke="#3498db" stroke-width="2"/>
    <line x1="50" y1="210" x2="50" y2="230" stroke="#3498db" stroke-width="2"/>
    <line x1="50" y1="230" x2="50" y2="250" stroke="#3498db" stroke-width="2"/>
    <line x1="50" y1="250" x2="50" y2="270" stroke="#3498db" stroke-width="2"/>
    <line x1="50" y1="270" x2="50" y2="290" stroke="#3498db" stroke-width="2"/>
    <line x1="50" y1="290" x2="50" y2="310" stroke="#3498db" stroke-width="2"/>
    <line x1="50" y1="310" x2="50" y2="330" stroke="#3498db" stroke-width="2"/>
    <line x1="50" y1="330" x2="50" y2="350" stroke="#3498db" stroke-width="2"/>
    <line x1="50" y1="350" x2="50" y2="370" stroke="#3498db" stroke-width="2"/>
    <line x1="50" y1="370" x2="50" y2="390" stroke="#3498db" stroke-width="2"/>
    <line x1="50" y1="390" x2="50" y2="410" stroke="#3498db" stroke-width="2"/>
    <line x1="50" y1="410" x2="50" y2="430" stroke="#3498db" stroke-width="2"/>
    <line x1="50" y1="430" x2="50" y2="450" stroke="#3498db" stroke-width="2"/>
    <line x1="50" y1="450" x2="50" y2="470" stroke="#3498db" stroke-width="2"/>
    <line x1="50" y1="470" x2="50" y2="490" stroke="#3498db" stroke-width="2"/>
  </g>

  <g transform="translate(210, 200)">
    <line x1="50" y1="50" x2="130" y2="70" stroke="#e74c3c" stroke-width="2"/>
    <line x1="50" y1="70" x2="130" y2="90" stroke="#e74c3c" stroke-width="2"/>
    <line x1="50" y1="90" x2="130" y2="110" stroke="#e74c3c" stroke-width="2"/>
    <line x1="50" y1="110" x2="130" y2="130" stroke="#e74c3c" stroke-width="2"/>
    <line x1="50" y1="130" x2="130" y2="150" stroke="#e74c3c" stroke-width="2"/>
    <line x1="50" y1="150" x2="130" y2="170" stroke="#e74c3c" stroke-width="2"/>
    <line x1="50" y1="170" x2="130" y2="190" stroke="#e74c3c" stroke-width="2"/>
    <line x1="50" y1="190" x2="130" y2="210" stroke="#e74c3c" stroke-width="2"/>
    <line x1="50" y1="210" x2="130" y2="230" stroke="#e74c3c" stroke-width="2"/>
    <line x1="50" y1="230" x2="130" y2="250" stroke="#e74c3c" stroke-width="2"/>
    <line x1="50" y1="250" x2="130" y2="270" stroke="#e74c3c" stroke-width="2"/>
    <line x1="50" y1="270" x2="130" y2="290" stroke="#e74c3c" stroke-width="2"/>
    <line x1="50" y1="290" x2="130" y2="310" stroke="#e74c3c" stroke-width="2"/>
    <line x1="50" y1="310" x2="130" y2="330" stroke="#e74c3c" stroke-width="2"/>
    <line x1="50" y1="330" x2="130" y2="350" stroke="#e74c3c" stroke-width="2"/>
    <line x1="50" y1="350" x2="130" y2="370" stroke="#e74c3c" stroke-width="2"/>
    <line x1="50" y1="370" x2="130" y2="390" stroke="#e74c3c" stroke-width="2"/>
    <line x1="50" y1="390" x2="130" y2="410" stroke="#e74c3c" stroke-width="2"/>
    <line x1="50" y1="410" x2="130" y2="430" stroke="#e74c3c" stroke-width="2"/>
    <line x1="50" y1="430" x2="130" y2="450" stroke="#e74c3c" stroke-width="2"/>
    <line x1="50" y1="450" x2="130" y2="470" stroke="#e74c3c" stroke-width="2"/>
    <line x1="50" y1="470" x2="130" y2="490" stroke="#e74c3c" stroke-width="2"/>
  </g>

  <g transform="translate(210, 200)">
    <line x1="50" y1="50" x2="70" y2="70" stroke="#2ecc71" stroke-width="2"/>
    <line x1="50" y1="70" x2="70" y2="90" stroke="#2ecc71" stroke-width="2"/>
    <line x1="50" y1="90" x2="70" y2="110" stroke="#2ecc71" stroke-width="2"/>
    <line x1="50" y1="110" x2="70" y2="130" stroke="#2ecc71" stroke-width="2"/>
    <line x1="50" y1="130" x2="70" y2="150" stroke="#2ecc71" stroke-width="2"/>
    <line x1="50" y1="150" x2="70" y2="170" stroke="#2ecc71" stroke-width="2"/>
    <line x1="50" y1="170" x2="70" y2="190" stroke="#2ecc71" stroke-width="2"/>
    <line x1="50" y1="190" x2="70" y2="210" stroke="#2ecc71" stroke-width="2"/>
    <line x1="50" y1="210" x2="70" y2="230" stroke="#2ecc71" stroke-width="2"/>
    <line x1="50" y1="230" x2="70" y2="250" stroke="#2ecc71" stroke-width="2"/>
    <line x1="50" y1="250" x2="70" y2="270" stroke="#2ecc71" stroke-width="2"/>
    <line x1="50" y1="270" x2="70" y2="290" stroke="#2ecc71" stroke-width="2"/>
    <line x1="50" y1="290" x2="70" y2="310" stroke="#2ecc71" stroke-width="2"/>
    <line x1="50" y1="310" x2="70" y2="330" stroke="#2ecc71" stroke-width="2"/>
    <line x1="50" y1="330" x2="70" y2="350" stroke="#2ecc71" stroke-width="2"/>
    <line x1="50" y1="350" x2="70" y2="370" stroke="#2ecc71" stroke-width="2"/>
    <line x1="50" y1="370" x2="70" y2="390" stroke="#2ecc71" stroke-width="2"/>
    <line x1="50" y1="390" x2="70" y2="410" stroke="#2ecc71" stroke-width="2"/>
    <line x1="50" y1="410" x2="70" y2="430" stroke="#2ecc71" stroke-width="2"/>
    <line x1="50" y1="430" x2="70" y2="450" stroke="#2ecc71" stroke-width="2"/>
    <line x1="50" y1="450" x2="70" y2="470" stroke="#2ecc71" stroke-width="2"/>
    <line x1="50" y1="470" x2="70" y2="490" stroke="#2ecc71" stroke-width="2"/>
  </g>

  <g transform="translate(210, 200)">
    <line x1="50" y1="50" x2="130" y2="70" stroke="#3e8e41" stroke-width="2"/>
    <line x1="50" y1="70" x2="130" y2="90" stroke="#3e8e41" stroke-width="2"/>
    <line x1="50" y1="90" x2="130" y2="110" stroke="#3e8e41" stroke-width="2"/>
    <line x1="50" y1="110" x2="130" y2="130" stroke="#3e8e41" stroke-width="2"/>
    <line x1="50" y1="130" x2="130" y2="150" stroke="#3e8e41" stroke-width="2"/>
    <line x1="50" y1="150" x2="130" y2="170" stroke="#3e8e41" stroke-width="2"/>
    <line x1="50" y1="170" x2="130" y2="190" stroke="#3e8e41" stroke-width="2"/>
    <line x1="50" y1="190" x2="130" y2="210" stroke="#3e8e41" stroke-width="2"/>
    <line x1="50" y1="210" x2="130" y2="230" stroke="#3e8e41" stroke-width="2"/>
    <line x1="50" y1="230" x2="130" y2="250" stroke="#3e8e41" stroke-width="2"/>
    <line x1="50" y1="250" x2="130" y2="270" stroke="#3e8e41" stroke-width="2"/>
    <line x1="50" y1="270" x2="130" y2="290" stroke="#3e8e41" stroke-width="2"/>
    <line x1="50" y1="290" x2="130" y2="310" stroke="#3e8e41" stroke-width="2"/>
    <line x1="50" y1="310" x2="130" y2="330" stroke="#3e8e41" stroke-width="2"/>
    <line x1="50" y1="330" x2="130" y2="350" stroke="#3e8e41" stroke-width="2"/>
    <line x1="50" y1="350" x2="130" y2="370" stroke="#3e8e41" stroke-width="2"/>
    <line x1="50" y1="370" x2="130" y2="390" stroke="#3e8e41" stroke-width="2"/>
    <line x1="50" y1="390" x2="130" y2="410" stroke="#3e8e41" stroke-width="2"/>
    <line x1="50" y1="410" x2="130" y2="430" stroke="#3e8e41" stroke-width="2"/>
    <line x1="50" y1="430" x2="130" y2="450" stroke="#3e8e41" stroke-width="2"/>
    <line x1="50" y1="450" x2="130" y2="470" stroke="#3e8e41" stroke-width="2"/>
    <line x1="50" y1="470" x2="130" y2="490" stroke="#3e8e41" stroke-width="2"/>
  </g>

  <g transform="translate(210, 200)">
    <line x1="50" y1="50" x2="70" y2="70" stroke="#9b59b6" stroke-width="2"/>
    <line x1="50" y1="70" x2="70" y2="90" stroke="#9b59b6" stroke-width="2"/>
    <line x1="50" y1="90" x2="70" y2="110" stroke="#9b59b6" stroke-width="2"/>
    <line x1="50" y1="110" x2="70" y2="130" stroke="#9b59b6" stroke-width="2"/>
    <line x1="50" y1="130" x2="70" y2="150" stroke="#9b59b6" stroke-width="2"/>
    <line x1="50" y1="150" x2="70" y2="170" stroke="#9b59b6" stroke-width="2"/>
    <line x1="50" y1="170" x2="70" y2="190" stroke="#9b59b6" stroke-width="2"/>
    <line x1="50" y1="190" x2="70" y2="210" stroke="#9b59b6" stroke-width="2"/>
    <line x1="50" y1="210" x2="70" y2="230" stroke="#9b59b6" stroke-width="2"/>
    <line x1="50" y1="230" x2="70" y2="250" stroke="#9b59b6" stroke-width="2"/>
    <line x1="50" y1="250" x2="70" y2="270" stroke="#9b59b6" stroke-width="2"/>
    <line x1="50" y1="270" x2="70" y2="290" stroke="#9b59b6" stroke-width="2"/>
    <line x1="50" y1="290" x2="70" y2="310" stroke="#9b59b6" stroke-width="2"/>
    <line x1="50" y1="310" x2="70" y2="330" stroke="#9b59b6" stroke-width="2"/>
    <line x1="50" y1="330" x2="70" y2="350" stroke="#9b59b6" stroke-width="2"/>
    <line x1="50" y1="350" x2="70" y2="370" stroke="#9b59b6" stroke-width="2"/>
    <line x1="50" y1="370" x2="70" y2="390" stroke="#9b59b6" stroke-width="2"/>
    <line x1="50" y1="390" x2="70" y2="410" stroke="#9b59b6" stroke-width="2"/>
    <line x1="50" y1="410" x2="70" y2="430" stroke="#9b59b6" stroke-width="2"/>
    <line x1="50" y1="430" x2="70" y2="450" stroke="#9b59b6" stroke-width="2"/>
    <line x1="50" y1="450" x2="70" y2="470" stroke="#9b59b6" stroke-width="2"/>
    <line x1="50" y1="470" x2="70" y2="490" stroke="#9b59b6" stroke-width="2"/>
  </g>

  <g transform="translate(210, 200)">
    <line x1="50" y1="50" x2="130" y2="70" stroke="#1abc9c" stroke-width="2"/>
    <line x1="50" y1="70" x2="130" y2="90" stroke="#1abc9c" stroke-width="2"/>
    <line x1="50" y1="90" x2="130" y2="110" stroke="#1abc9c" stroke-width="2"/>
    <line x1="50" y1="110" x2="130" y2="130" stroke="#1abc9c" stroke-width="2"/>
    <line x1="50" y1="130" x2="130" y2="150" stroke="#1abc9c" stroke-width="2"/>
    <line x1="50" y1="150" x2="130" y2="170" stroke="#1abc9c" stroke-width="2"/>
    <line x1="50" y1="170" x2="130" y2="190" stroke="#1abc9c" stroke-width="2"/>
    <line x1="50" y1="190" x2="130" y2="210" stroke="#1abc9c" stroke-width="2"/>
    <line x1="50" y1="210" x2="130" y2="230" stroke="#1abc9c" stroke-width="2"/>
    <line x1="50" y1="230" x2="130" y2="250" stroke="#1abc9c" stroke-width="2"/>
    <line x1="50" y1="250" x2="130" y2="270" stroke="#1abc9c" stroke-width="2"/>
    <line x1="50" y1="270" x2="130" y2="290" stroke="#1abc9c" stroke-width="2"/>
    <line x1="50" y1="290" x2="130" y2="310" stroke="#1abc9c" stroke-width="2"/>
    <line x1="50" y1="310" x2="130" y2="330" stroke="#1abc9c" stroke-width="2"/>
    <line x1="50" y1="330" x2="130" y2="350" stroke="#1abc9c" stroke-width="2"/>
    <line x1="50" y1="350" x2="130" y2="370" stroke="#1abc9c" stroke-width="2"/>
    <line x1="50" y1="370" x2="130" y2="390" stroke="#1abc9c" stroke-width="2"/>
    <line x1="50" y1="390" x2="130" y2="410" stroke="#1abc9c" stroke-width="2"/>
    <line x1="50" y1="410" x2="130" y2="430" stroke="#1abc9c" stroke-width="2"/>
    <line x1="50" y1="430" x2="130" y2="450" stroke="#1abc9c" stroke-width="2"/>
    <line x1="50" y1="450" x2="130" y2="470" stroke="#1abc9c" stroke-width="2"/>
    <line x1="50" y1="470" x2="130" y2="490" stroke="#1abc9c" stroke-width="2"/>
  </g>

  <animateTransform attributeName="transform" type="rotate" from="0 210 200" to="360 210 200" dur="10s" begin="0s" repeatCount="indefinite"/>
  <animateTransform attributeName="transform" type="rotate" from="0 210 200" to="360 210 200" dur="10s" begin="10s" repeatCount="indefinite"/>
</svg>