<svg width="420" height="400" data-topic-id="finding-sub-game-perfect-equilibria-of-finite-horizon-games">
  <defs>
    <linearGradient id="pastel-gradient" x1="0" y1="0" x2="0" y2="1">
      <stop offset="0%" stop-color="#C7B8EA" stop-opacity="1"/>
      <stop offset="100%" stop-color="#C0A5FF" stop-opacity="1"/>
    </linearGradient>
  </defs>
  <rect x="10" y="10" width="400" height="380" fill="url(#pastel-gradient)" rx="5"/>
  <g transform="translate(20, 20)">
    <rect x="0" y="0" width="100" height="40" fill="#3498db" rx="5"/>
    <text x="10" y="15" font-size="16" font-family="Arial" fill="#fff">Introduction</text>
    <text x="10" y="30" font-size="12" font-family="Arial" fill="#fff">Backward Induction</text>
  </g>
  <g transform="translate(140, 20)">
    <rect x="0" y="0" width="100" height="40" fill="#2ecc71" rx="5"/>
    <text x="10" y="15" font-size="16" font-family="Arial" fill="#fff">Definition</text>
    <text x="10" y="30" font-size="12" font-family="Arial" fill="#fff">Backward Induction Procedure</text>
  </g>
  <g transform="translate(280, 20)">
    <rect x="0" y="0" width="100" height="40" fill="#e74c3c" rx="5"/>
    <text x="10" y="15" font-size="16" font-family="Arial" fill="#fff">Key Concepts</text>
    <text x="10" y="30" font-size="12" font-family="Arial" fill="#fff">Sub-game Perfect Equilibrium</text>
  </g>
  <g transform="translate(20, 220)">
    <rect x="0" y="0" width="100" height="40" fill="#3498db" rx="5"/>
    <text x="10" y="15" font-size="16" font-family="Arial" fill="#fff">Sub-game Perfect Equilibrium Continuation</text>
    <animate xmlns="http://www.w3.org/2000/svg" begin="0s" dur="3s" repeatCount="indefinite">
      <path d="M 10 15 L 30 30" fill="#fff" opacity="0" />
      <path d="M 30 30 L 50 45" fill="#fff" opacity="1" />
    </animate>
  </g>
  <g transform="translate(140, 220)">
    <rect x="0" y="0" width="100" height="40" fill="#2ecc71" rx="5"/>
    <text x="10" y="15" font-size="16" font-family="Arial" fill="#fff">Transition Probabilities</text>
    <text x="10" y="30" font-size="12" font-family="Arial" fill="#fff">Expected Payoff</text>
  </g>
  <g transform="translate(280, 220)">
    <rect x="0" y="0" width="100" height="40" fill="#e74c3c" rx="5"/>
    <text x="10" y="15" font-size="16" font-family="Arial" fill="#fff">Backward Induction Tree</text>
    <text x="10" y="30" font-size="12" font-family="Arial" fill="#fff">Backward Induction Procedure</text>
  </g>
  <g transform="translate(20, 300)">
    <rect x="0" y="0" width="100" height="40" fill="#3498db" rx="5"/>
    <text x="10" y="15" font-size="16" font-family="Arial" fill="#fff">Conclusion</text>
  </g>
  <g transform="translate(140, 300)">
    <rect x="0" y="0" width="100" height="40" fill="#2ecc71" rx="5"/>
    <text x="10" y="15" font-size="16" font-family="Arial" fill="#fff">References</text>
  </g>
  <g transform="translate(280, 300)">
    <rect x="0" y="0" width="100" height="40" fill="#e74c3c" rx="5"/>
    <text x="10" y="15" font-size="16" font-family="Arial" fill="#fff">Appendix</text>
  </g>
  <rect x="10" y="380" width="400" height="10" fill="#3498db" rx="5"/>
  <text x="20" y="390" font-size="16" font-family="Arial" fill="#fff">Backward Induction for Finding Sub Game Perfect Equilibria of Finite Horizon Games</text>
  <rect x="10" y="400" width="400" height="10" fill="#3498db" rx="5"/>
  <text x="20" y="410" font-size="16" font-family="Arial" fill="#fff">&copy; 2023</text>
</svg>