<svg width="420" height="400" data-topic-id="8-hours" xmlns="http://www.w3.org/2000/svg"><defs><linearGradient id="pastelGradient" x1="0%" y1="0%" x2="100%" y2="0%"><stop offset="0%" stop-color="#C9E4CA"></stop><stop offset="100%" stop-color="#FFC5C5"></stop></linearGradient></defs><rect x="0" y="0" width="420" height="400" fill="url(#pastelGradient)"></rect><text x="20" y="20" font-size="24" font-family="Arial" fill="#3498db" data-narration="Overview of 8 hours optimization technique"></text><rect x="0" y="60" width="420" height="250" fill="#fff"></rect><g><rect x="20" y="80" width="100" height="50" fill="#fff" rx="10"></rect><text x="30" y="90" font-size="18" font-family="Arial" fill="#2ecc71" data-narration="Divide the problem into smaller sub-problems"></text><animate xlink:href="#subproblem1" begin="0s" dur="2s" repeatCount="indefinite"></animate></g><g><rect x="160" y="80" width="100" height="50" fill="#fff" rx="10"></rect><text x="170" y="90" font-size="18" font-family="Arial" fill="#2ecc71" data-narration="Solve each sub-problem separately"></text><animate xlink:href="#subproblem2" begin="2s" dur="2s" repeatCount="indefinite"></animate></g><g><rect x="300" y="80" width="100" height="50" fill="#fff" rx="10"></rect><text x="310" y="90" font-size="18" font-family="Arial" fill="#2ecc71" data-narration="Combine solutions from each sub-problem"></text><animate xlink:href="#subproblem3" begin="4s" dur="2s" repeatCount="indefinite"></animate></g><g><rect x="20" y="340" width="100" height="50" fill="#fff" rx="10"></rect><text x="30" y="350" font-size="18" font-family="Arial" fill="#2ecc71" data-narration="Key concepts of 8 hours optimization technique"></text><animate xlink:href="#keyConcepts" begin="6s" dur="2s" repeatCount="indefinite"></animate></g><g><rect x="160" y="340" width="100" height="50" fill="#fff" rx="10"></rect><text x="170" y="350" font-size="18" font-family="Arial" fill="#2ecc71" data-narration="Examples of 8 hours optimization technique"></text><animate xlink:href="#examples" begin="8s" dur="2s" repeatCount="indefinite"></animate></g><g><path d="M 20 20 L 100 100 L 380 200 Z" stroke="#3498db" stroke-width="2" fill="none"></path><path d="M 100 100 L 150 150 L 250 100 Z" stroke="#3498db" stroke-width="2" fill="none"></path><path d="M 250 100 L 300 150 L 400 100 Z" stroke="#3498db" stroke-width="2" fill="none"></path><path d="M 20 200 L 100 250 L 380 200 Z" stroke="#3498db" stroke-width="2" fill="none"></path><path d="M 100 250 L 150 300 L 250 250 Z" stroke="#3498db" stroke-width="2" fill="none"></path><path d="M 250 250 L 300 300 L 400 250 Z" stroke="#3498db" stroke-width="2" fill="none"></path><path d="M 100 300 L 150 350 L 250 300 Z" stroke="#3498db" stroke-width="2" fill="none"></path><path d="M 150 350 L 200 400 L 300 350 Z" stroke="#3498db" stroke-width="2" fill="none"></path><path d="M 200 400 L 250 450 L 350 400 Z" stroke="#3498db" stroke-width="2" fill="none"></path><path d="M 250 450 L 300 500 L 400 450 Z" stroke="#3498db" stroke-width="2" fill="none"></path><path d="M 300 500 L 350 550 L 400 500 Z" stroke="#3498db" stroke-width="2" fill="none"></path><path d="M 350 550 L 400 600 L 500 550 Z" stroke="#3498db" stroke-width="2" fill="none"></path><path d="M 400 600 L 450 650 L 550 600 Z" stroke="#3498db" stroke-width="2" fill="none"></path></g><rect x="20" y="20" width="380" height="20" fill="#3498db"></rect><text x="40" y="40" font-size="18" font-family="Arial" fill="#fff" data-narration="Title"></text><text x="20" y="380" font-size="18" font-family="Arial" fill="#fff" data-narration="Footer"></text></svg>