<svg width="420" height="400" data-topic-id="design-verilog-hdl-implement-simple-circuits" xmlns="http://www.w3.org/2000/svg">
  <defs>
    <linearGradient id="pastel-gradient" x1="0%" y1="0%" x2="100%" y2="0%">
      <stop offset="0%" stop-color="#C7B8EA" stop-opacity="1"/>
      <stop offset="100%" stop-color="#C9E4CA" stop-opacity="1"/>
    </linearGradient>
  </defs>
  <title>Design Verilog HDL to Implement Simple Circuits</title>
  <body>
    <rect x="10" y="10" width="400" height="380" fill="url(#pastel-gradient)"/>
    <text x="20" y="20" font-size="24" font-family="Arial" font-weight="bold">Introduction</text>
    <rect x="10" y="50" width="400" height="50" fill="#F0F0F0"/>
    <text x="20" y="60" font-size="18" font-family="Arial" data-narration="Designing Digital Circuits using Structurally-Signed Registers (SSR) in Verilog HDL">Designing Digital Circuits using Structurally-Signed Registers (SSR) in Verilog HDL</text>
    <g>
      <path d="M 200,20 L 220,20 L 220,40 L 200,40 Z" fill="#6495ED"/>
      <g transform="rotate(90 220 40)">
        <path d="M 220,40 L 240,40 L 240,60 L 220,60 Z" fill="#8BC34A"/>
      </g>
    </g>
    <g>
      <path d="M 200,100 L 220,100 L 220,120 L 200,120 Z" fill="#FF9800"/>
      <g transform="rotate(90 220 120)">
        <path d="M 220,120 L 240,120 L 240,140 L 220,140 Z" fill="#FF9800"/>
      </g>
    </g>
    <g>
      <path d="M 200,180 L 220,180 L 220,200 L 200,200 Z" fill="#2196F3"/>
      <g transform="rotate(90 220 200)">
        <path d="M 220,200 L 240,200 L 240,220 L 220,220 Z" fill="#2196F3"/>
      </g>
    </g>
    <g>
      <path d="M 200,250 L 220,250 L 220,270 L 200,270 Z" fill="#FFC107"/>
      <g transform="rotate(90 220 270)">
        <path d="M 220,270 L 240,270 L 240,290 L 220,290 Z" fill="#FFC107"/>
      </g>
    </g>
    <rect x="10" y="320" width="400" height="50" fill="#F0F0F0"/>
    <text x="20" y="330" font-size="18" font-family="Arial" data-narration="Conclusion">Conclusion</text>
    <rect x="10" y="380" width="400" height="20" fill="#F0F0F0"/>
    <text x="20" y="390" font-size="18" font-family="Arial" font-weight="bold">Design Verilog HDL to Implement Simple Circuits</text>
  </body>
</svg>