<svg viewBox="0 0 800 1420" xmlns="http://www.w3.org/2000/svg">
  <defs>
    <!-- Gradients -->
    <linearGradient id="titleGradient" x1="0%" y1="0%" x2="100%" y2="100%">
      <stop offset="0%" style="stop-color:#1565c0"/>
      <stop offset="100%" style="stop-color:#0d47a1"/>
    </linearGradient>
    <linearGradient id="blueGradient" x1="0%" y1="0%" x2="100%" y2="100%">
      <stop offset="0%" style="stop-color:#42a5f5"/>
      <stop offset="100%" style="stop-color:#1976d2"/>
    </linearGradient>
    <linearGradient id="greenGradient" x1="0%" y1="0%" x2="100%" y2="100%">
      <stop offset="0%" style="stop-color:#66bb6a"/>
      <stop offset="100%" style="stop-color:#388e3c"/>
    </linearGradient>
    <linearGradient id="orangeGradient" x1="0%" y1="0%" x2="100%" y2="100%">
      <stop offset="0%" style="stop-color:#ff7043"/>
      <stop offset="100%" style="stop-color:#ef6c00"/>
    </linearGradient>
    <linearGradient id="purpleGradient" x1="0%" y1="0%" x2="100%" y2="100%">
      <stop offset="0%" style="stop-color:#ab47bc"/>
      <stop offset="100%" style="stop-color:#7b1fa2"/>
    </linearGradient>
    <linearGradient id="tealGradient" x1="0%" y1="0%" x2="100%" y2="100%">
      <stop offset="0%" style="stop-color:#26a69a"/>
      <stop offset="100%" style="stop-color:#00897b"/>
    </linearGradient>
    <!-- Arrow marker -->
    <marker id="arrowBlue" markerWidth="10" markerHeight="10" refX="9" refY="3" orient="auto" markerUnits="strokeWidth">
      <path d="M0,0 L0,6 L9,3 z" fill="#1976d2"/>
    </marker>
    <marker id="arrowGreen" markerWidth="10" markerHeight="10" refX="9" refY="3" orient="auto" markerUnits="strokeWidth">
      <path d="M0,0 L0,6 L9,3 z" fill="#388e3c"/>
    </marker>
    <!-- Filters -->
    <filter id="shadow" x="-20%" y="-20%" width="140%" height="140%">
      <feDropShadow dx="2" dy="3" stdDeviation="3" flood-opacity="0.2"/>
    </filter>
  </defs>
  
  <style>
    @keyframes fadeInSlide {
      from { opacity: 0; transform: translateY(20px); }
      to { opacity: 1; transform: translateY(0); }
    }
    @keyframes scaleIn {
      from { opacity: 0; transform: scale(0.85); }
      to { opacity: 1; transform: scale(1); }
    }
    @keyframes textReveal {
      from { opacity: 0; transform: translateX(-10px); }
      to { opacity: 1; transform: translateX(0); }
    }
    @keyframes pulse {
      0%, 100% { transform: scale(1); }
      50% { transform: scale(1.03); }
    }
    @keyframes drawLine {
      from { stroke-dashoffset: 300; }
      to { stroke-dashoffset: 0; }
    }
    @keyframes fadeIn {
      from { opacity: 0; }
      to { opacity: 1; }
    }
    @keyframes glow {
      0%, 100% { filter: drop-shadow(0 0 2px currentColor); }
      50% { filter: drop-shadow(0 0 8px currentColor); }
    }
    .step { animation: fadeInSlide 0.6s ease-out; }
    .step rect {
      animation: scaleIn 0.5s cubic-bezier(0.34, 1.56, 0.64, 1);
      transform-origin: center;
    }
    .step text { animation: textReveal 0.4s ease-out 0.2s backwards; }
    .draw-line {
      stroke-dasharray: 300;
      stroke-dashoffset: 300;
      animation: drawLine 1.5s ease-out forwards;
    }
    .icon-pulse {
      animation: pulse 2s ease-in-out infinite;
      transform-origin: center;
    }
  </style>

  <!-- Background -->
  <rect width="800" height="1420" fill="#f8f9fa"/>
  
  <!-- ==================== STEP 0: TITLE ==================== -->
  <g class="step" id="step0">
    <rect x="20" y="10" width="760" height="45" rx="10" fill="url(#titleGradient)" filter="url(#shadow)"/>
    <text x="400" y="38" font-family="Arial, sans-serif" font-size="18" font-weight="bold" fill="white" text-anchor="middle">Case Study: IoT Design for Home Automation</text>
    <text x="400" y="55" font-family="Arial, sans-serif" font-size="10" fill="white" text-anchor="middle" opacity="0.9">Module 4 - university 2022 Scheme</text>
  </g>

  <!-- ==================== STEP 1: WHAT IS HOME AUTOMATION ==================== -->
  <g class="step" id="step1" data-narration="Home automation transforms ordinary houses into smart homes by connecting everyday devices to the internet, enabling remote monitoring, control, and automation.">
    <rect x="20" y="65" width="760" height="85" rx="8" fill="white" filter="url(#shadow)"/>
    <rect x="20" y="65" width="6" height="85" rx="3" fill="url(#blueGradient)"/>
    <text x="40" y="85" font-family="Arial, sans-serif" font-size="13" font-weight="bold" fill="#1565c0">What is Home Automation?</text>
    <text x="40" y="105" font-family="Arial, sans-serif" font-size="10" fill="#424242">Transforms conventional living spaces into "smart homes" by connecting</text>
    <text x="40" y="120" font-family="Arial, sans-serif" font-size="10" fill="#424242">everyday devices to the internet for remote control and automation.</text>
    <!-- Smart Home Icon -->
    <g transform="translate(680, 80)">
      <rect x="0" y="0" width="50" height="40" rx="5" fill="#e3f2fd"/>
      <rect x="5" y="10" width="40" height="8" rx="2" fill="#42a5f5"/>
      <rect x="5" y="22" width="18" height="8" rx="2" fill="#4caf50"/>
      <rect x="27" y="22" width="18" height="8" rx="2" fill="#ff9800"/>
      <circle cx="25" cy="5" r="4" fill="#1976d2" class="icon-pulse"/>
    </g>
  </g>

  <!-- ==================== STEP 2: LEARNING OBJECTIVES ==================== -->
  <g class="step" id="step2" data-narration="We will learn to analyze smart home architecture, understand sensors and actuators, explore communication protocols, and master cloud integration for remote access.">
    <rect x="20" y="160" width="760" height="85" rx="8" fill="white" filter="url(#shadow)"/>
    <rect x="20" y="160" width="6" height="85" rx="3" fill="url(#greenGradient)"/>
    <text x="40" y="180" font-family="Arial, sans-serif" font-size="13" font-weight="bold" fill="#2e7d32">Learning Objectives</text>
    <g transform="translate(40, 200)">
      <circle cx="0" cy="0" r="8" fill="#4caf50"/>
      <text x="15" y="4" font-family="Arial, sans-serif" font-size="9" fill="#424242">Analyze smart home system architecture</text>
      <circle cx="200" cy="0" r="8" fill="#2196f3"/>
      <text x="215" y="4" font-family="Arial, sans-serif" font-size="9" fill="#424242">Understand sensors &amp; actuators</text>
      <circle cx="400" cy="0" r="8" fill="#ff9800"/>
      <text x="415" y="4" font-family="Arial, sans-serif" font-size="9" fill="#424242">Explore communication protocols</text>
      <circle cx="580" cy="0" r="8" fill="#9c27b0"/>
      <text x="595" y="4" font-family="Arial, sans-serif" font-size="9" fill="#424242">Master cloud integration</text>
    </g>
  </g>

  <!-- ==================== STEP 3: IOT ARCHITECTURE OVERVIEW ==================== -->
  <g class="step" id="step3" data-narration="A smart home follows the four-layer IoT architecture: Devices at the bottom, Communication, Cloud Processing, and Application layer at the top.">
    <rect x="20" y="255" width="760" height="100" rx="8" fill="white" filter="url(#shadow)"/>
    <rect x="20" y="255" width="6" height="100" rx="3" fill="url(#purpleGradient)"/>
    <text x="40" y="275" font-family="Arial, sans-serif" font-size="13" font-weight="bold" fill="#7b1fa2">Four-Layer IoT Architecture</text>
    <!-- Layer Stack -->
    <g transform="translate(50, 290)">
      <!-- Application Layer -->
      <rect x="0" y="0" width="140" height="22" rx="4" fill="#ab47bc" opacity="0.9"/>
      <text x="70" y="14" font-family="Arial, sans-serif" font-size="8" fill="white" text-anchor="middle">APPLICATION</text>
      <!-- Cloud Layer -->
      <rect x="0" y="26" width="140" height="22" rx="4" fill="#7b1fa2" opacity="0.9"/>
      <text x="70" y="40" font-family="Arial, sans-serif" font-size="8" fill="white" text-anchor="middle">CLOUD/PROCESSING</text>
      <!-- Communication Layer -->
      <rect x="0" y="52" width="140" height="22" rx="4" fill="#5c6bc0" opacity="0.9"/>
      <text x="70" y="66" font-family="Arial, sans-serif" font-size="8" fill="white" text-anchor="middle">COMMUNICATION</text>
      <!-- Devices Layer -->
      <rect x="0" y="78" width="140" height="22" rx="4" fill="#26a69a" opacity="0.9"/>
      <text x="70" y="92" font-family="Arial, sans-serif" font-size="8" fill="white" text-anchor="middle">DEVICES</text>
    </g>
    <text x="220" y="305" font-family="Arial, sans-serif" font-size="9" fill="#424242">Smart Home follows standard IoT</text>
    <text x="220" y="320" font-family="Arial, sans-serif" font-size="9" fill="#424242">layered architecture from physical</text>
    <text x="220" y="335" font-family="Arial, sans-serif" font-size="9" fill="#424242">devices to user interface.</text>
    <!-- Connecting arrows -->
    <path d="M195,305 L210,305" stroke="#7b1fa2" stroke-width="2" marker-end="url(#arrowBlue)"/>
  </g>

  <!-- ==================== STEP 4: SENSING LAYER ==================== -->
  <g class="step" id="step4" data-narration="The Sensing layer uses sensors to collect environmental data: temperature sensors for AC control, motion sensors for security, and light sensors for automated blinds.">
    <rect x="20" y="365" width="760" height="110" rx="8" fill="white" filter="url(#shadow)"/>
    <rect x="20" y="365" width="6" height="110" rx="3" fill="url(#blueGradient)"/>
    <text x="40" y="385" font-family="Arial, sans-serif" font-size="13" font-weight="bold" fill="#1565c0">Layer 1: Sensing &amp; Actuation - Sensors</text>
    
    <!-- Sensor Cards -->
    <g transform="translate(45, 400)">
      <!-- Temperature Sensor -->
      <rect x="0" y="0" width="110" height="55" rx="6" fill="#e3f2fd"/>
      <circle cx="30" cy="20" r="12" fill="#1976d2"/>
      <path d="M30,14 L30,20 M26,18 L30,14 L34,18" stroke="white" stroke-width="2" fill="none"/>
      <text x="55" y="18" font-family="Arial, sans-serif" font-size="9" font-weight="bold" fill="#1565c0">Temperature</text>
      <text x="55" y="32" font-family="Arial, sans-serif" font-size="7" fill="#424242">For AC control</text>
      <text x="55" y="44" font-family="Arial, sans-serif" font-size="7" fill="#424242">DHT11, DS18B20</text>
      
      <!-- Motion Sensor -->
      <rect x="120" y="0" width="110" height="55" rx="6" fill="#e3f2fd"/>
      <path d="M130,35 Q145,10 160,35" fill="#1976d2"/>
      <circle cx="145" cy="25" r="4" fill="#ffeb3b"/>
      <text x="175" y="18" font-family="Arial, sans-serif" font-size="9" font-weight="bold" fill="#1565c0">Motion</text>
      <text x="175" y="32" font-family="Arial, sans-serif" font-size="7" fill="#424242">For security lights</text>
      <text x="175" y="44" font-family="Arial, sans-serif" font-size="7" fill="#424242">PIR Sensor</text>
      
      <!-- Light Sensor -->
      <rect x="240" y="0" width="110" height="55" rx="6" fill="#e3f2fd"/>
      <circle cx="270" cy="22" r="10" fill="#ff9800" opacity="0.8"/>
      <path d="M270,12 L275,17 L270,22 L265,17 Z" fill="#ff9800"/>
      <text x="295" y="18" font-family="Arial, sans-serif" font-size="9" font-weight="bold" fill="#1565c0">Light (LDR)</text>
      <text x="295" y="32" font-family="Arial, sans-serif" font-size="7" fill="#424242">For blinds/lighting</text>
      <text x="295" y="44" font-family="Arial, sans-serif" font-size="7" fill="#424242">Photoresistor</text>
      
      <!-- Gas/Smoke Sensor -->
      <rect x="360" y="0" width="110" height="55" rx="6" fill="#e3f2fd"/>
      <rect x="375" y="10" width="20" height="20" rx="2" fill="#f44336"/>
      <path d="M385,10 L385,5 M380,8 L385,5 L390,8" stroke="#f44336" stroke-width="2" fill="none"/>
      <text x="400" y="18" font-family="Arial, sans-serif" font-size="9" font-weight="bold" fill="#1565c0">Gas/Smoke</text>
      <text x="400" y="32" font-family="Arial, sans-serif" font-size="7" fill="#424242">For safety alerts</text>
      <text x="400" y="44" font-family="Arial, sans-serif" font-size="7" fill="#424242">MQ-2, MQ-135</text>
    </g>
  </g>

  <!-- ==================== STEP 5: ACTUATION LAYER ==================== -->
  <g class="step" id="step5" data-narration="Actuators perform physical actions based on commands: smart relays switch lights, motor controllers operate blinds, smart locks secure doors, and solenoid valves control water.">
    <rect x="20" y="485" width="760" height="95" rx="8" fill="white" filter="url(#shadow)"/>
    <rect x="20" y="485" width="6" height="95" rx="3" fill="url(#greenGradient)"/>
    <text x="40" y="505" font-family="Arial, sans-serif" font-size="13" font-weight="bold" fill="#2e7d32">Layer 1: Sensing &amp; Actuation - Actuators</text>
    
    <!-- Actuator Cards -->
    <g transform="translate(45, 520)">
      <!-- Relay -->
      <rect x="0" y="0" width="130" height="40" rx="6" fill="#e8f5e9"/>
      <rect x="10" y="10" width="25" height="20" rx="2" fill="#388e3c"/>
      <text x="42" y="20" font-family="Arial, sans-serif" font-size="8" font-weight="bold" fill="#2e7d32">Smart Relay</text>
      <text x="42" y="32" font-family="Arial, sans-serif" font-size="7" fill="#424242">Switch lights/fans on/off</text>
      
      <!-- Motor Controller -->
      <rect x="140" y="0" width="130" height="40" rx="6" fill="#e8f5e9"/>
      <circle cx="165" cy="20" r="10" fill="#388e3c"/>
      <path d="M165,10 L165,18 M165,22 L165,30 M158,18 L162,20 L158,22" stroke="white" stroke-width="1.5" fill="none"/>
      <text x="185" y="20" font-family="Arial, sans-serif" font-size="8" font-weight="bold" fill="#2e7d32">Motor Controller</text>
      <text x="185" y="32" font-family="Arial, sans-serif" font-size="7" fill="#424242">Automated blinds/shades</text>
      
      <!-- Smart Lock -->
      <rect x="280" y="0" width="130" height="40" rx="6" fill="#e8f5e9"/>
      <rect x="295" y="10" width="15" height="20" rx="2" fill="#388e3c"/>
      <circle cx="322" cy="20" r="3" fill="#ff9800"/>
      <text x="330" y="20" font-family="Arial, sans-serif" font-size="8" font-weight="bold" fill="#2e7d32">Smart Lock</text>
      <text x="330" y="32" font-family="Arial, sans-serif" font-size="7" fill="#424242">Keyless door security</text>
      
      <!-- Solenoid Valve -->
      <rect x="420" y="0" width="130" height="40" rx="6" fill="#e8f5e9"/>
      <rect x="435" y="12" width="20" height="16" rx="2" fill="#388e3c"/>
      <path d="M455,20 L465,20" stroke="#388e3c" stroke-width="3"/>
      <text x="470" y="20" font-family="Arial, sans-serif" font-size="8" font-weight="bold" fill="#2e7d32">Solenoid Valve</text>
      <text x="470" y="32" font-family="Arial, sans-serif" font-size="7" fill="#424242">Water/gas control</text>
    </g>
  </g>

  <!-- ==================== STEP 6: EDGE DEVICES ==================== -->
  <g class="step" id="step6" data-narration="Edge devices like ESP32 and Raspberry Pi serve as local brains, reading sensor data, driving actuators, and handling local communication with the gateway.">
    <rect x="20" y="590" width="760" height="85" rx="8" fill="white" filter="url(#shadow)"/>
    <rect x="20" y="590" width="6" height="85" rx="3" fill="url(#tealGradient)"/>
    <text x="40" y="610" font-family="Arial, sans-serif" font-size="13" font-weight="bold" fill="#00897b">Edge Devices - The Local Brains</text>
    
    <!-- ESP32 -->
    <g transform="translate(45, 625)">
      <rect x="0" y="0" width="100" height="35" rx="5" fill="#b2dfdb"/>
      <text x="50" y="15" font-family="Arial, sans-serif" font-size="10" font-weight="bold" fill="#00695c" text-anchor="middle">ESP32</text>
      <text x="50" y="28" font-family="Arial, sans-serif" font-size="7" fill="#00695c" text-anchor="middle">Wi-Fi + Bluetooth</text>
    </g>
    
    <!-- Raspberry Pi -->
    <g transform="translate(160, 625)">
      <rect x="0" y="0" width="100" height="35" rx="5" fill="#b2dfdb"/>
      <text x="50" y="15" font-family="Arial, sans-serif" font-size="10" font-weight="bold" fill="#00695c" text-anchor="middle">Raspberry Pi</text>
      <text x="50" y="28" font-family="Arial, sans-serif" font-size="7" fill="#00695c" text-anchor="middle">Full Computer</text>
    </g>
    
    <!-- Arduino -->
    <g transform="translate(275, 625)">
      <rect x="0" y="0" width="100" height="35" rx="5" fill="#b2dfdb"/>
      <text x="50" y="15" font-family="Arial, sans-serif" font-size="10" font-weight="bold" fill="#00695c" text-anchor="middle">Arduino</text>
      <text x="50" y="28" font-family="Arial, sans-serif" font-size="7" fill="#00695c" text-anchor="middle">MCU Board</text>
    </g>
    
    <text x="400" y="640" font-family="Arial, sans-serif" font-size="9" fill="#424242">Read sensor data, run local logic,</text>
    <text x="400" y="655" font-family="Arial, sans-serif" font-size="9" fill="#424242">drive actuators, communicate with gateway</text>
  </g>

  <!-- ==================== STEP 7: COMMUNICATION LAYER - PAN ==================== -->
  <g class="step" id="step7" data-narration="The Communication layer uses PAN protocols like Zigbee, Z-Wave, and BLE for low-power battery-operated sensors connecting to a central home gateway.">
    <rect x="20" y="685" width="760" height="100" rx="8" fill="white" filter="url(#shadow)"/>
    <rect x="20" y="685" width="6" height="100" rx="3" fill="url(#orangeGradient)"/>
    <text x="40" y="705" font-family="Arial, sans-serif" font-size="13" font-weight="bold" fill="#ef6c00">Layer 2: Communication - PAN (Short Range)</text>
    
    <!-- Protocol Cards -->
    <g transform="translate(45, 720)">
      <!-- Zigbee -->
      <rect x="0" y="0" width="120" height="50" rx="6" fill="#fff3e0"/>
      <text x="60" y="18" font-family="Arial, sans-serif" font-size="11" font-weight="bold" fill="#e65100" text-anchor="middle">Zigbee</text>
      <text x="60" y="35" font-family="Arial, sans-serif" font-size="8" fill="#424242" text-anchor="middle">Low-power mesh network</text>
      <text x="60" y="44" font-family="Arial, sans-serif" font-size="7" fill="#757575" text-anchor="middle">10-100m range</text>
      
      <!-- Z-Wave -->
      <rect x="130" y="0" width="120" height="50" rx="6" fill="#fff3e0"/>
      <text x="190" y="18" font-family="Arial, sans-serif" font-size="11" font-weight="bold" fill="#e65100" text-anchor="middle">Z-Wave</text>
      <text x="190" y="35" font-family="Arial, sans-serif" font-size="8" fill="#424242" text-anchor="middle">Optimized for home</text>
      <text x="190" y="44" font-family="Arial, sans-serif" font-size="7" fill="#757575" text-anchor="middle">Up to 100m</text>
      
      <!-- BLE -->
      <rect x="260" y="0" width="120" height="50" rx="6" fill="#fff3e0"/>
      <text x="320" y="18" font-family="Arial, sans-serif" font-size="11" font-weight="bold" fill="#e65100" text-anchor="middle">BLE</text>
      <text x="320" y="35" font-family="Arial, sans-serif" font-size="8" fill="#424242" text-anchor="middle">Bluetooth Low Energy</text>
      <text x="320" y="44" font-family="Arial, sans-serif" font-size="7" fill="#757575" text-anchor="middle">10-30m range</text>
    </g>
    
    <text x="450" y="735" font-family="Arial, sans-serif" font-size="9" fill="#424242">Connect sensors to gateway</text>
    <text x="450" y="750" font-family="Arial, sans-serif" font-size="9" fill="#424242">Battery-operated devices</text>
  </g>

  <!-- ==================== STEP 8: COMMUNICATION LAYER - LAN/WAN ==================== -->
  <g class="step" id="step8" data-narration="LAN uses Wi-Fi for high-bandwidth devices like cameras. The home gateway connects to the internet (WAN) for cloud communication.">
    <rect x="20" y="795" width="760" height="75" rx="8" fill="white" filter="url(#shadow)"/>
    <rect x="20" y="795" width="6" height="75" rx="3" fill="url(#orangeGradient)"/>
    <text x="40" y="815" font-family="Arial, sans-serif" font-size="13" font-weight="bold" fill="#ef6c00">Layer 2: Communication - LAN/WAN</text>
    
    <!-- Network Diagram -->
    <g transform="translate(50, 830)">
      <!-- Wi-Fi Router -->
      <rect x="0" y="0" width="60" height="30" rx="4" fill="#ffe0b2"/>
      <circle cx="20" cy="15" r="4" fill="#f57c00"/>
      <text x="30" y="18" font-family="Arial, sans-serif" font-size="7" fill="#424242">Wi-Fi</text>
      <!-- Arrow -->
      <path d="M70,15 L100,15" stroke="#ff9800" stroke-width="2" marker-end="url(#arrowBlue)"/>
      <!-- Cloud -->
      <ellipse cx="150" cy="15" rx="30" ry="15" fill="#e1f5fe"/>
      <text x="150" y="18" font-family="Arial, sans-serif" font-size="8" fill="#0277bd" text-anchor="middle">CLOUD</text>
    </g>
    
    <text x="220" y="840" font-family="Arial, sans-serif" font-size="9" fill="#424242">Wi-Fi for cameras, gateways</text>
    <text x="220" y="855" font-family="Arial, sans-serif" font-size="9" fill="#424242">Broadband to cloud platforms</text>
  </g>

  <!-- ==================== STEP 9: CLOUD PROCESSING LAYER ==================== -->
  <g class="step" id="step9" data-narration="Cloud platforms like AWS IoT, Google Cloud, and Azure receive telemetry data, apply rules, and host mobile app backends for remote user access.">
    <rect x="20" y="880" width="760" height="100" rx="8" fill="white" filter="url(#shadow)"/>
    <rect x="20" y="880" width="6" height="100" rx="3" fill="url(#blueGradient)"/>
    <text x="40" y="900" font-family="Arial, sans-serif" font-size="13" font-weight="bold" fill="#1565c0">Layer 3: Cloud/Processing Layer</text>
    
    <!-- Cloud Platform Cards -->
    <g transform="translate(45, 915)">
      <!-- AWS IoT -->
      <rect x="0" y="0" width="120" height="50" rx="6" fill="#e3f2fd"/>
      <text x="60" y="18" font-family="Arial, sans-serif" font-size="10" font-weight="bold" fill="#1565c0" text-anchor="middle">AWS IoT Core</text>
      <text x="60" y="35" font-family="Arial, sans-serif" font-size="7" fill="#424242" text-anchor="middle">Amazon Web Services</text>
      
      <!-- Google Cloud -->
      <rect x="130" y="0" width="120" height="50" rx="6" fill="#e3f2fd"/>
      <text x="190" y="18" font-family="Arial, sans-serif" font-size="10" font-weight="bold" fill="#1565c0" text-anchor="middle">Google Cloud IoT</text>
      <text x="190" y="35" font-family="Arial, sans-serif" font-size="7" fill="#424242" text-anchor="middle">Firebase + Cloud IoT</text>
      
      <!-- Azure -->
      <rect x="260" y="0" width="120" height="50" rx="6" fill="#e3f2fd"/>
      <text x="320" y="18" font-family="Arial, sans-serif" font-size="10" font-weight="bold" fill="#1565c0" text-anchor="middle">Azure IoT Hub</text>
      <text x="320" y="35" font-family="Arial, sans-serif" font-size="7" fill="#424242" text-anchor="middle">Microsoft Azure</text>
    </g>
    
    <text x="420" y="935" font-family="Arial, sans-serif" font-size="9" fill="#424242">Receive telemetry data</text>
    <text x="420" y="950" font-family="Arial, sans-serif" font-size="9" fill="#424242">Apply rules: if temp &gt;30°C, turn on AC</text>
    <text x="420" y="965" font-family="Arial, sans-serif" font-size="9" fill="#424242">Host mobile app backend</text>
  </g>

  <!-- ==================== STEP 10: APPLICATION LAYER ==================== -->
  <g class="step" id="step10" data-narration="The Application layer provides user interfaces: mobile apps for primary control, voice assistants like Alexa for hands-free commands, and web dashboards for detailed monitoring.">
    <rect x="20" y="990" width="760" height="85" rx="8" fill="white" filter="url(#shadow)"/>
    <rect x="20" y="990" width="6" height="85" rx="3" fill="url(#purpleGradient)"/>
    <text x="40" y="1010" font-family="Arial, sans-serif" font-size="13" font-weight="bold" fill="#7b1fa2">Layer 4: Application Layer - User Interface</text>
    
    <!-- UI Cards -->
    <g transform="translate(50, 1025)">
      <!-- Mobile App -->
      <rect x="0" y="0" width="90" height="40" rx="6" fill="#f3e5f5"/>
      <rect x="25" y="8" width="40" height="30" rx="4" fill="#9c27b0"/>
      <rect x="28" y="12" width="34" height="22" fill="#e1bee7"/>
      <text x="45" y="40" font-family="Arial, sans-serif" font-size="7" fill="#7b1fa2" text-anchor="middle">Mobile App</text>
      
      <!-- Voice Assistant -->
      <rect x="110" y="0" width="90" height="40" rx="6" fill="#f3e5f5"/>
      <circle cx="155" cy="20" r="12" fill="#9c27b0"/>
      <path d="M150,16 Q155,10 160,16" stroke="white" stroke-width="2" fill="none"/>
      <text x="155" y="40" font-family="Arial, sans-serif" font-size="7" fill="#7b1fa2" text-anchor="middle">Voice</text>
      
      <!-- Web Dashboard -->
      <rect x="220" y="0" width="90" height="40" rx="6" fill="#f3e5f5"/>
      <rect x="235" y="8" width="60" height="24" rx="2" fill="#9c27b0"/>
      <rect x="238" y="11" width="54" height="8" fill="#e1bee7"/>
      <rect x="238" y="22" width="20" height="7" fill="#e1bee7"/>
      <text x="265" y="40" font-family="Arial, sans-serif" font-size="7" fill="#7b1fa2" text-anchor="middle">Web Dashboard</text>
    </g>
    
    <text x="340" y="1045" font-family="Arial, sans-serif" font-size="9" fill="#424242">Control from anywhere</text>
    <circle cx="330" cy="1042" r="3" fill="#4caf50"/>
    <text x="340" y="1060" font-family="Arial, sans-serif" font-size="9" fill="#424242">Voice commands with Alexa/Google</text>
  </g>

  <!-- ==================== STEP 11: PRACTICAL EXAMPLE ==================== -->
  <g class="step" id="step11" data-narration="Let's build an automated lighting system: PIR sensor detects motion, LDR measures light, ESP32 runs the rule, relay switches the light, cloud notifies the user.">
    <rect x="20" y="1085" width="760" height="115" rx="8" fill="white" filter="url(#shadow)"/>
    <rect x="20" y="1085" width="6" height="115" rx="3" fill="url(#tealGradient)"/>
    <text x="40" y="1105" font-family="Arial, sans-serif" font-size="13" font-weight="bold" fill="#00897b">Practical Example: Automated Lighting System</text>
    
    <!-- System Flow -->
    <g transform="translate(45, 1120)">
      <!-- Sensor 1: PIR -->
      <rect x="0" y="0" width="80" height="65" rx="6" fill="#b2dfdb"/>
      <path d="M25,35 Q40,10 55,35" fill="#00897b"/>
      <circle cx="40" cy="25" r="4" fill="#ffeb3b"/>
      <text x="40" y="58" font-family="Arial, sans-serif" font-size="8" fill="#004d40" text-anchor="middle">PIR Sensor</text>
      
      <!-- Sensor 2: LDR -->
      <rect x="90" y="0" width="80" height="65" rx="6" fill="#b2dfdb"/>
      <circle cx="115" cy="25" r="10" fill="#ff9800"/>
      <text x="130" y="18" font-family="Arial, sans-serif" font-size="8" fill="#004d40">LDR</text>
      <text x="130" y="35" font-family="Arial, sans-serif" font-size="7" fill="#004d40">Light Sensor</text>
      <text x="130" y="58" font-family="Arial, sans-serif" font-size="8" fill="#004d40" text-anchor="middle"></text>
      
      <!-- ESP32 -->
      <rect x="180" y="10" width="70" height="45" rx="6" fill="#00897b"/>
      <text x="215" y="30" font-family="Arial, sans-serif" font-size="9" fill="white" text-anchor="middle">ESP32</text>
      <text x="215" y="44" font-family="Arial, sans-serif" font-size="7" fill="white" text-anchor="middle">Rule Logic</text>
      
      <!-- Relay -->
      <rect x="260" y="10" width="70" height="45" rx="6" fill="#00897b"/>
      <rect x="270" y="18" width="20" height="15" fill="#004d40"/>
      <text x="295" y="30" font-family="Arial, sans-serif" font-size="8" fill="white">Relay</text>
      <text x="295" y="44" font-family="Arial, sans-serif" font-size="7" fill="white">Switch</text>
      
      <!-- Light Bulb -->
      <rect x="340" y="15" width="50" height="40" rx="25" fill="#ffeb3b"/>
      <rect x="355" y="50" width="20" height="10" fill="#fbc02d"/>
      <text x="365" y="40" font-family="Arial, sans-serif" font-size="8" fill="#004d40" text-anchor="middle">Light</text>
      
      <!-- Cloud -->
      <ellipse cx="530" cy="32" rx="35" ry="20" fill="#e1f5fe"/>
      <text x="530" y="36" font-family="Arial, sans-serif" font-size="8" fill="#0277bd" text-anchor="middle">CLOUD</text>
      
      <!-- Arrows -->
      <path d="M85,32 L87,32" stroke="#004d40" stroke-width="2" marker-end="url(#arrowGreen)"/>
      <path d="M175,32 L177,32" stroke="#004d40" stroke-width="2" marker-end="url(#arrowGreen)"/>
      <path d="M255,32 L257,32" stroke="#004d40" stroke-width="2" marker-end="url(#arrowGreen)"/>
      <path d="M395,32 L430,32" stroke="#004d40" stroke-width="2" marker-end="url(#arrowGreen)"/>
      <path d="M450,32 L490,32" stroke="#004d40" stroke-width="2" marker-end="url(#arrowGreen)"/>
    </g>
  </g>

  <!-- ==================== STEP 12: DESIGN CONSIDERATIONS ==================== -->
  <g class="step" id="step12" data-narration="Key design considerations include interoperability between brands, security against unauthorized access, power management for batteries, and user experience with simple controls.">
    <rect x="20" y="1210" width="760" height="85" rx="8" fill="white" filter="url(#shadow)"/>
    <rect x="20" y="1210" width="6" height="85" rx="3" fill="url(#orangeGradient)"/>
    <text x="40" y="1230" font-family="Arial, sans-serif" font-size="13" font-weight="bold" fill="#ef6c00">Design Considerations</text>
    
    <!-- Consideration Cards -->
    <g transform="translate(45, 1245)">
      <!-- Interoperability -->
      <rect x="0" y="0" width="115" height="38" rx="6" fill="#fff3e0"/>
      <circle cx="15" cy="19" r="8" fill="#ff9800"/>
      <text x="30" y="22" font-family="Arial, sans-serif" font-size="8" font-weight="bold" fill="#424242">Interoperability</text>
      <text x="95" y="22" font-family="Arial, sans-serif" font-size="7" fill="#757575" text-anchor="middle">Devices work together</text>
      
      <!-- Security -->
      <rect x="125" y="0" width="115" height="38" rx="6" fill="#ffebee"/>
      <circle cx="140" cy="19" r="8" fill="#f44336"/>
      <text x="155" y="22" font-family="Arial, sans-serif" font-size="8" font-weight="bold" fill="#424242">Security</text>
      <text x="220" y="22" font-family="Arial, sans-serif" font-size="7" fill="#757575" text-anchor="middle">Prevent unauthorized access</text>
      
      <!-- Power Management -->
      <rect x="250" y="0" width="115" height="38" rx="6" fill="#e8f5e9"/>
      <circle cx="265" cy="19" r="8" fill="#4caf50"/>
      <text x="280" y="22" font-family="Arial, sans-serif" font-size="8" font-weight="bold" fill="#424242">Power</text>
      <text x="345" y="22" font-family="Arial, sans-serif" font-size="7" fill="#757575" text-anchor="middle">Battery life</text>
      
      <!-- User Experience -->
      <rect x="375" y="0" width="115" height="38" rx="6" fill="#e3f2fd"/>
      <circle cx="390" cy="19" r="8" fill="#2196f3"/>
      <text x="405" y="22" font-family="Arial, sans-serif" font-size="8" font-weight="bold" fill="#424242">UX</text>
      <text x="470" y="22" font-family="Arial, sans-serif" font-size="7" fill="#757575" text-anchor="middle">Simple app control</text>
    </g>
  </g>

  <!-- ==================== STEP 13: SUMMARY ==================== -->
  <g class="step" id="step13" data-narration="In summary, home automation demonstrates the complete IoT stack: sensors and actuators, hybrid communication, cloud processing, and user-friendly applications for comfort, security, and energy efficiency.">
    <rect x="20" y="1305" width="760" height="100" rx="8" fill="url(#titleGradient)" filter="url(#shadow)"/>
    <text x="400" y="1330" font-family="Arial, sans-serif" font-size="14" font-weight="bold" fill="white" text-anchor="middle">Key Takeaways</text>
    
    <!-- Summary Points -->
    <g transform="translate(40, 1350)">
      <text x="10" y="0" font-family="Arial, sans-serif" font-size="10" fill="white" font-weight="bold">1.</text>
      <text x="30" y="0" font-family="Arial, sans-serif" font-size="10" fill="white">Four-layer IoT architecture: Devices → Communication → Cloud → Application</text>
      
      <text x="10" y="18" font-family="Arial, sans-serif" font-size="10" fill="white" font-weight="bold">2.</text>
      <text x="30" y="18" font-family="Arial, sans-serif" font-size="10" fill="white">Hybrid communication: Zigbee/BLE for sensors, Wi-Fi for bandwidth devices</text>
      
      <text x="10" y="36" font-family="Arial, sans-serif" font-size="10" fill="white" font-weight="bold">3.</text>
      <text x="30" y="36" font-family="Arial, sans-serif" font-size="10" fill="white">Edge vs Cloud: Quick local responses vs complex analytics</text>
      
      <text x="10" y="54" font-family="Arial, sans-serif" font-size="10" fill="white" font-weight="bold">4.</text>
      <text x="30" y="54" font-family="Arial, sans-serif" font-size="10" fill="white">Benefits: Energy efficiency, security, remote control, comfort</text>
    </g>
  </g>
</svg>