<svg width="420" height="400" data-topic-id="process-management-process-concept">
  <defs>
    <linearGradient id="pastel-gradient" x1="0%" y1="0%" x2="100%" y2="100%">
      <stop offset="0%" stop-color="#C7B8EA" />
      <stop offset="100%" stop-color="#C5CAE9" />
    </linearGradient>
  </defs>
  <title>Process Management: Process Concept</title>
  <text x="50%" y="20%" font-size="24" font-family="Arial" text-anchor="middle" fill="#3498db">Process Management: Process Concept</text>

  <rect width="100%" height="10%" fill="url(#pastel-gradient)" rx="5" />
  <rect x="0" y="30%" width="100%" height="50%" fill="#f9f9f9" rx="5" />
  <text x="10%" y="40%" font-size="18" font-family="Arial" text-anchor="start" fill="#2ecc71" data-narration="What is a Process?" >What is a Process?</text>

  <rect x="0" y="90%" width="100%" height="10%" fill="#f9f9f9" rx="5" />
  <rect x="0" y="100%" width="100%" height="50%" fill="#f9f9f9" rx="5" />
  <text x="10%" y="110%" font-size="18" font-family="Arial" text-anchor="start" fill="#2ecc71" data-narration="Characteristics of a Process" >Characteristics of a Process</text>
  <g>
    <path d="M 20 120 L 30 130 L 40 140" stroke="#2ecc71" stroke-width="2" fill="none" />
    <path d="M 50 120 L 60 130 L 70 140" stroke="#2ecc71" stroke-width="2" fill="none" />
    <path d="M 80 120 L 90 130 L 100 140" stroke="#2ecc71" stroke-width="2" fill="none" />
  </g>

  <rect x="0" y="160%" width="100%" height="10%" fill="#f9f9f9" rx="5" />
  <rect x="0" y="170%" width="100%" height="50%" fill="#f9f9f9" rx="5" />
  <text x="10%" y="180%" font-size="18" font-family="Arial" text-anchor="start" fill="#2ecc71" data-narration="Types of Processes" >Types of Processes</text>
  <g>
    <path d="M 20 200 L 30 210 L 40 220" stroke="#2ecc71" stroke-width="2" fill="none" />
    <path d="M 50 200 L 60 210 L 70 220" stroke="#2ecc71" stroke-width="2" fill="none" />
    <path d="M 80 200 L 90 210 L 100 220" stroke="#2ecc71" stroke-width="2" fill="none" />
    <path d="M 110 200 L 120 210 L 130 220" stroke="#2ecc71" stroke-width="2" fill="none" />
  </g>

  <rect x="0" y="220%" width="100%" height="10%" fill="#f9f9f9" rx="5" />
  <rect x="0" y="230%" width="100%" height="50%" fill="#f9f9f9" rx="5" />
  <text x="10%" y="240%" font-size="18" font-family="Arial" text-anchor="start" fill="#2ecc71" data-narration="Process Management" >Process Management</text>
  <g>
    <path d="M 20 260 L 30 270 L 40 280" stroke="#2ecc71" stroke-width="2" fill="none" />
    <path d="M 50 260 L 60 270 L 70 280" stroke="#2ecc71" stroke-width="2" fill="none" />
    <path d="M 80 260 L 90 270 L 100 280" stroke="#2ecc71" stroke-width="2" fill="none" />
    <path d="M 110 260 L 120 270 L 130 280" stroke="#2ecc71" stroke-width="2" fill="none" />
  </g>

  <rect x="0" y="280%" width="100%" height="10%" fill="#f9f9f9" rx="5" />
  <rect x="0" y="290%" width="100%" height="50%" fill="#f9f9f9" rx="5" />
  <text x="10%" y="300%" font-size="18" font-family="Arial" text-anchor="start" fill="#2ecc71" data-narration="Conclusion" >Conclusion</text>

  <rect x="0" y="360%" width="100%" height="10%" fill="#f9f9f9" rx="5" />
  <rect x="0" y="370%" width="100%" height="50%" fill="#f9f9f9" rx="5" />
  <text x="10%" y="380%" font-size="18" font-family="Arial" text-anchor="start" fill="#2ecc71" data-narration="References" >References</text>

  <footer>
    <text x="50%" y="390%" font-size="18" font-family="Arial" text-anchor="middle" fill="#3498db">Process Management: Process Concept</text>
  </footer>
  <animate xmlns="http://www.w3.org/2000/svg" attributeName="opacity" from="1" to="0" dur="10s" begin="0s" repeatCount="indefinite" />
  <animate xmlns="http://www.w3.org/2000/svg" attributeName="opacity" from="0" to="1" dur="10s" begin="5s" repeatCount="indefinite" />
  <animate xmlns="http://www.w3.org/2000/svg" attributeName="opacity" from="0" to="1" dur="10s" begin="10s" repeatCount="indefinite" />
</svg>