<svg xmlns="http://www.w3.org/2000/svg" viewBox="0 0 800 1750">
  <defs>
    <!-- Gradients -->
    <linearGradient id="titleGradient" x1="0%" y1="0%" x2="100%" y2="100%">
      <stop offset="0%" stop-color="#1a237e"/>
      <stop offset="100%" stop-color="#3949ab"/>
    </linearGradient>
    <linearGradient id="blueGradient" x1="0%" y1="0%" x2="0%" y2="100%">
      <stop offset="0%" stop-color="#e3f2fd"/>
      <stop offset="100%" stop-color="#bbdefb"/>
    </linearGradient>
    <linearGradient id="greenGradient" x1="0%" y1="0%" x2="0%" y2="100%">
      <stop offset="0%" stop-color="#e8f5e9"/>
      <stop offset="100%" stop-color="#c8e6c9"/>
    </linearGradient>
    <linearGradient id="orangeGradient" x1="0%" y1="0%" x2="0%" y2="100%">
      <stop offset="0%" stop-color="#fff3e0"/>
      <stop offset="100%" stop-color="#ffe0b2"/>
    </linearGradient>
    <linearGradient id="purpleGradient" x1="0%" y1="0%" x2="0%" y2="100%">
      <stop offset="0%" stop-color="#f3e5f5"/>
      <stop offset="100%" stop-color="#e1bee7"/>
    </linearGradient>
    <linearGradient id="redGradient" x1="0%" y1="0%" x2="0%" y2="100%">
      <stop offset="0%" stop-color="#ffebee"/>
      <stop offset="100%" stop-color="#ffcdd2"/>
    </linearGradient>
    <linearGradient id="tealGradient" x1="0%" y1="0%" x2="0%" y2="100%">
      <stop offset="0%" stop-color="#e0f2f1"/>
      <stop offset="100%" stop-color="#b2dfdb"/>
    </linearGradient>
    
    <!-- Arrow marker -->
    <marker id="arrowBlue" markerWidth="10" markerHeight="10" refX="9" refY="3" orient="auto" markerUnits="strokeWidth">
      <path d="M0,0 L0,6 L9,3 z" fill="#1976d2"/>
    </marker>
    
    <!-- Drop shadow filter -->
    <filter id="shadow" x="-20%" y="-20%" width="140%" height="140%">
      <feDropShadow dx="2" dy="2" stdDeviation="3" flood-color="#000" flood-opacity="0.2"/>
    </filter>
  </defs>
  
  <!-- Background -->
  <rect width="800" height="1750" fill="#f8f9fa"/>
  
  <style>
    @keyframes fadeInSlide {
      from { opacity: 0; transform: translateY(20px); }
      to { opacity: 1; transform: translateY(0); }
    }
    @keyframes scaleIn {
      from { opacity: 0; transform: scale(0.85); }
      to { opacity: 1; transform: scale(1); }
    }
    @keyframes textReveal {
      from { opacity: 0; transform: translateX(-10px); }
      to { opacity: 1; transform: translateX(0); }
    }
    @keyframes pulse {
      0%, 100% { transform: scale(1); }
      50% { transform: scale(1.03); }
    }
    @keyframes drawLine {
      from { stroke-dashoffset: 300; }
      to { stroke-dashoffset: 0; }
    }
    @keyframes expandWidth {
      from { width: 0; }
      to { width: 180px; }
    }
    @keyframes slideIn {
      from { transform: translateX(-30px); opacity: 0; }
      to { transform: translateX(0); opacity: 1; }
    }
    @keyframes fadeIn {
      from { opacity: 0; }
      to { opacity: 1; }
    }
    .step { animation: fadeInSlide 0.6s ease-out; }
    .step rect { animation: scaleIn 0.5s cubic-bezier(0.34, 1.56, 0.64, 1); transform-origin: center; }
    .step text { animation: textReveal 0.4s ease-out 0.2s backwards; }
    .tree-line { stroke-dasharray: 300; animation: drawLine 1s ease-out forwards; }
    .bar-anim { animation: expandWidth 0.8s ease-out forwards; }
    .pulse-anim { animation: pulse 2s ease-in-out infinite; }
  </style>
  
  <!-- Step 0: Title -->
  <g class="step" id="step0" data-narration="Welcome to Directory Services - the backbone of enterprise identity management and network resource organization.">
    <rect x="50" y="10" width="700" height="50" rx="10" fill="url(#titleGradient)" filter="url(#shadow)"/>
    <text x="400" y="42" text-anchor="middle" font-family="Arial, sans-serif" font-size="24" font-weight="bold" fill="white">Directory Services</text>
  </g>
  
  <!-- Step 1: What is a Directory Service -->
  <g class="step" id="step1" data-narration="A directory service is a specialized database optimized for storing and retrieving information about network objects like users and printers.">
    <rect x="50" y="70" width="700" height="90" rx="8" fill="url(#blueGradient)" filter="url(#shadow)"/>
    <text x="70" y="95" font-family="Arial" font-size="13" font-weight="bold" fill="#1565c0">What is a Directory Service?</text>
    <rect x="70" y="105" width="200" height="4" rx="2" fill="#1976d2"/>
    <text x="70" y="125" font-family="Arial" font-size="10" fill="#424242">A specialized database system that stores</text>
    <text x="70" y="140" font-family="Arial" font-size="10" fill="#424242">information about network objects in a</text>
    <text x="70" y="155" font-family="Arial" font-size="10" fill="#424242">hierarchical structure.</text>
    <!-- Icon representation -->
    <rect x="400" y="90" width="60" height="60" rx="8" fill="#1976d2" opacity="0.1"/>
    <circle cx="430" cy="110" r="8" fill="#1976d2"/>
    <line x1="430" y1="118" x2="430" y2="135" stroke="#1976d2" stroke-width="2"/>
    <line x1="420" y1="135" x2="440" y2="135" stroke="#1976d2" stroke-width="2"/>
    <circle cx="415" cy="125" r="5" fill="#1976d2" opacity="0.6"/>
    <circle cx="445" cy="125" r="5" fill="#1976d2" opacity="0.6"/>
  </g>
  
  <!-- Step 2: Key Purposes -->
  <g class="step" id="step2" data-narration="Directory services serve four main purposes: centralized identity management, resource discovery, authentication, and name resolution.">
    <rect x="50" y="170" width="700" height="90" rx="8" fill="url(#greenGradient)" filter="url(#shadow)"/>
    <text x="70" y="195" font-family="Arial" font-size="13" font-weight="bold" fill="#2e7d32">Key Purposes</text>
    <rect x="70" y="205" width="150" height="4" rx="2" fill="#388e3c"/>
    
    <!-- Purpose boxes -->
    <rect x="70" y="220" width="160" height="30" rx="5" fill="#fff" stroke="#388e3c" stroke-width="1"/>
    <text x="150" y="240" text-anchor="middle" font-family="Arial" font-size="9" fill="#2e7d32">Centralized Identity</text>
    
    <rect x="240" y="220" width="160" height="30" rx="5" fill="#fff" stroke="#388e3c" stroke-width="1"/>
    <text x="320" y="240" text-anchor="middle" font-family="Arial" font-size="9" fill="#2e7d32">Resource Discovery</text>
    
    <rect x="410" y="220" width="160" height="30" rx="5" fill="#fff" stroke="#388e3c" stroke-width="1"/>
    <text x="490" y="240" text-anchor="middle" font-family="Arial" font-size="9" fill="#2e7d32">Authentication</text>
    
    <rect x="580" y="220" width="160" height="30" rx="5" fill="#fff" stroke="#388e3c" stroke-width="1"/>
    <text x="660" y="240" text-anchor="middle" font-family="Arial" font-size="9" fill="#2e7d32">Name Resolution</text>
  </g>
  
  <!-- Step 3: X.500 Standard -->
  <g class="step" id="step3" data-narration="X.500 is the international standard for directory services, defining the DIB, DIT, DAP protocol, and schema framework.">
    <rect x="50" y="270" width="700" height="90" rx="8" fill="url(#orangeGradient)" filter="url(#shadow)"/>
    <text x="70" y="295" font-family="Arial" font-size="13" font-weight="bold" fill="#e65100">X.500 Standard</text>
    <rect x="70" y="305" width="120" height="4" rx="2" fill="#f57c00"/>
    <text x="70" y="325" font-family="Arial" font-size="10" fill="#424242">International standard (ITU-T/ISO) for directory services</text>
    
    <!-- X.500 components -->
    <rect x="70" y="335" width="150" height="18" rx="4" fill="#fff" stroke="#f57c00"/>
    <text x="145" y="348" text-anchor="middle" font-family="Arial" font-size="8" fill="#e65100">DIB</text>
    
    <rect x="230" y="335" width="150" height="18" rx="4" fill="#fff" stroke="#f57c00"/>
    <text x="305" y="348" text-anchor="middle" font-family="Arial" font-size="8" fill="#e65100">DIT</text>
    
    <rect x="390" y="335" width="150" height="18" rx="4" fill="#fff" stroke="#f57c00"/>
    <text x="465" y="348" text-anchor="middle" font-family="Arial" font-size="8" fill="#e65100">DAP Protocol</text>
    
    <rect x="550" y="335" width="150" height="18" rx="4" fill="#fff" stroke="#f57c00"/>
    <text x="625" y="348" text-anchor="middle" font-family="Arial" font-size="8" fill="#e65100">Schema</text>
    
    <text x="650" y="295" font-family="Arial" font-size="9" fill="#757575">Foundation of modern DS</text>
  </g>
  
  <!-- Step 4: LDAP Protocol -->
  <g class="step" id="step4" data-narration="LDAP is the lightweight protocol for accessing directory services, simpler than X.500's DAP, operating over TCP/IP with powerful search operations.">
    <rect x="50" y="370" width="700" height="90" rx="8" fill="url(#purpleGradient)" filter="url(#shadow)"/>
    <text x="70" y="395" font-family="Arial" font-size="13" font-weight="bold" fill="#7b1fa2">LDAP - Lightweight Directory Access Protocol</text>
    <rect x="70" y="405" width="280" height="4" rx="2" fill="#9c27b0"/>
    
    <!-- LDAP characteristics -->
    <rect x="70" y="420" width="130" height="30" rx="5" fill="#fff" stroke="#9c27b0" stroke-width="1"/>
    <text x="135" y="435" text-anchor="middle" font-family="Arial" font-size="8" fill="#7b1fa2">TCP/IP Based</text>
    <text x="135" y="445" text-anchor="middle" font-family="Arial" font-size="7" fill="#9c27b0">Port 389 / 636</text>
    
    <rect x="210" y="420" width="130" height="30" rx="5" fill="#fff" stroke="#9c27b0" stroke-width="1"/>
    <text x="275" y="435" text-anchor="middle" font-family="Arial" font-size="8" fill="#7b1fa2">Client-Server</text>
    <text x="275" y="445" text-anchor="middle" font-family="Arial" font-size="7" fill="#9c27b0">Architecture</text>
    
    <rect x="350" y="420" width="130" height="30" rx="5" fill="#fff" stroke="#9c27b0" stroke-width="1"/>
    <text x="415" y="435" text-anchor="middle" font-family="Arial" font-size="8" fill="#7b1fa2">Search</text>
    <text x="415" y="445" text-anchor="middle" font-family="Arial" font-size="7" fill="#9c27b0">Powerful Filtering</text>
    
    <rect x="490" y="420" width="130" height="30" rx="5" fill="#fff" stroke="#9c27b0" stroke-width="1"/>
    <text x="555" y="435" text-anchor="middle" font-family="Arial" font-size="8" fill="#7b1fa2">Standard Ops</text>
    <text x="555" y="445" text-anchor="middle" font-family="Arial" font-size="7" fill="#9c27b0">Add, Delete, Modify</text>
    
    <rect x="630" y="420" width="100" height="30" rx="5" fill="#9c27b0"/>
    <text x="680" y="440" text-anchor="middle" font-family="Arial" font-size="9" fill="white">Lightweight</text>
  </g>
  
  <!-- Step 5: DIT Structure -->
  <g class="step" id="step5" data-narration="The Directory Information Tree organizes entries hierarchically with root, organizations, OUs, and leaf nodes representing objects.">
    <rect x="50" y="470" width="700" height="110" rx="8" fill="url(#tealGradient)" filter="url(#shadow)"/>
    <text x="70" y="495" font-family="Arial" font-size="13" font-weight="bold" fill="#00695c">Directory Information Tree (DIT)</text>
    <rect x="70" y="505" width="180" height="4" rx="2" fill="#00897b"/>
    
    <!-- Tree diagram -->
    <g transform="translate(100, 530)">
      <!-- Root -->
      <circle cx="300" cy="0" r="12" fill="#004d40" stroke="#00897b" stroke-width="2"/>
      <text x="300" y="4" text-anchor="middle" font-size="8" fill="white">Root</text>
      
      <!-- Lines -->
      <line x1="300" y1="12" x2="220" y2="50" stroke="#00897b" stroke-width="2" class="tree-line"/>
      <line x1="300" y1="12" x2="380" y2="50" stroke="#00897b" stroke-width="2" class="tree-line"/>
      
      <!-- Level 1 -->
      <circle cx="220" cy="50" r="14" fill="#00695c" stroke="#00897b" stroke-width="2"/>
      <text x="220" y="54" text-anchor="middle" font-size="8" fill="white">dc=com</text>
      
      <circle cx="380" cy="50" r="14" fill="#00695c" stroke="#00897b" stroke-width="2"/>
      <text x="380" y="54" text-anchor="middle" font-size="8" fill="white">dc=edu</text>
      
      <!-- Lines to level 2 -->
      <line x1="220" y1="64" x2="170" y2="90" stroke="#00897b" stroke-width="2" class="tree-line"/>
      <line x1="220" y1="64" x2="270" y2="90" stroke="#00897b" stroke-width="2" class="tree-line"/>
      <line x1="380" y1="64" x2="340" y2="90" stroke="#00897b" stroke-width="2" class="tree-line"/>
      <line x1="380" y1="64" x2="420" y2="90" stroke="#00897b" stroke-width="2" class="tree-line"/>
      
      <!-- Level 2 -->
      <rect x="155" y="90" width="30" height="20" rx="4" fill="#00897b"/>
      <text x="170" y="104" text-anchor="middle" font-size="7" fill="white">org</text>
      
      <rect x="255" y="90" width="30" height="20" rx="4" fill="#00897b"/>
      <text x="270" y="104" text-anchor="middle" font-size="7" fill="white">ou</text>
      
      <rect x="325" y="90" width="30" height="20" rx="4" fill="#00897b"/>
      <text x="340" y="104" text-anchor="middle" font-size="7" fill="white">dc</text>
      
      <rect x="405" y="90" width="30" height="20" rx="4" fill="#00897b"/>
      <text x="420" y="104" text-anchor="middle" font-size="7" fill="white">ou</text>
      
      <!-- Lines to leaf -->
      <line x1="270" y1="110" x2="270" y2="130" stroke="#00897b" stroke-width="2" class="tree-line"/>
      
      <!-- Leaf -->
      <ellipse cx="270" cy="140" rx="20" ry="10" fill="#26a69a"/>
      <text x="270" y="143" text-anchor="middle" font-size="7" fill="white">user</text>
    </g>
    
    <!-- Labels -->
    <text x="70" y="565" font-family="Arial" font-size="9" fill="#00695c">Root Entry</text>
    <text x="70" y="575" font-family="Arial" font-size="9" fill="#00695c">Organization Entries</text>
    <text x="70" y="585" font-family="Arial" font-size="9" fill="#00695c">Organizational Units</text>
    <text x="70" y="595" font-family="Arial" font-size="9" fill="#00695c">Leaf Entries</text>
  </g>
  
  <!-- Step 6: DN and RDN -->
  <g class="step" id="step6" data-narration="A Distinguished Name uniquely identifies entries with full path, while RDN is the relative name at each hierarchy level.">
    <rect x="50" y="590" width="700" height="90" rx="8" fill="url(#blueGradient)" filter="url(#shadow)"/>
    <text x="70" y="615" font-family="Arial" font-size="13" font-weight="bold" fill="#1565c0">Distinguished Name (DN) vs RDN</text>
    <rect x="70" y="625" width="240" height="4" rx="2" fill="#1976d2"/>
    
    <!-- DN Example -->
    <rect x="70" y="640" width="300" height="30" rx="5" fill="#fff" stroke="#1976d2"/>
    <text x="220" y="660" text-anchor="middle" font-family="monospace" font-size="11" fill="#1565c0">uid=john,ou=students,dc=university,dc=edu</text>
    
    <!-- Breakdown -->
    <rect x="380" y="640" width="60" height="25" rx="4" fill="#e3f2fd" stroke="#1976d2"/>
    <text x="410" y="655" text-anchor="middle" font-family="Arial" font-size="8" fill="#1565c0">RDN</text>
    <text x="410" y="662" text-anchor="middle" font-family="Arial" font-size="7" fill="#1565c0">uid=john</text>
    
    <rect x="450" y="640" width="60" height="25" rx="4" fill="#e3f2fd" stroke="#1976d2"/>
    <text x="480" y="655" text-anchor="middle" font-family="Arial" font-size="8" fill="#1565c0">RDN</text>
    <text x="480" y="662" text-anchor="middle" font-family="Arial" font-size="7" fill="#1565c0">ou=students</text>
    
    <rect x="520" y="640" width="60" height="25" rx="4" fill="#e3f2fd" stroke="#1976d2"/>
    <text x="550" y="655" text-anchor="middle" font-family="Arial" font-size="8" fill="#1565c0">RDN</text>
    <text x="550" y="662" text-anchor="middle" font-family="Arial" font-size="7" fill="#1565c0">dc=university</text>
    
    <rect x="590" y="640" width="60" height="25" rx="4" fill="#e3f2fd" stroke="#1976d2"/>
    <text x="620" y="655" text-anchor="middle" font-family="Arial" font-size="8" fill="#1565c0">RDN</text>
    <text x="620" y="662" text-anchor="middle" font-family="Arial" font-size="7" fill="#1565c0">dc=edu</text>
    
    <text x="660" y="615" font-family="Arial" font-size="9" fill="#757575">Full path from leaf to root</text>
  </g>
  
  <!-- Step 7: Object Classes and Attributes -->
  <g class="step" id="step7" data-narration="Object classes define categories of objects, specifying mandatory and optional attributes that entries can contain according to the schema.">
    <rect x="50" y="690" width="700" height="100" rx="8" fill="url(#greenGradient)" filter="url(#shadow)"/>
    <text x="70" y="715" font-family="Arial" font-size="13" font-weight="bold" fill="#2e7d32">Object Classes and Attributes</text>
    <rect x="70" y="725" width="200" height="4" rx="2" fill="#388e3c"/>
    
    <!-- Object Class -->
    <rect x="70" y="740" width="200" height="40" rx="6" fill="#fff" stroke="#388e3c"/>
    <text x="170" y="758" text-anchor="middle" font-family="Arial" font-size="10" font-weight="bold" fill="#2e7d32">Object Class: inetOrgPerson</text>
    <text x="170" y="772" text-anchor="middle" font-family="Arial" font-size="8" fill="#388e3c">Defines category of objects</text>
    
    <!-- Arrow -->
    <path d="M285 760 L315 760" stroke="#388e3c" stroke-width="2" marker-end="url(#arrowBlue)"/>
    
    <!-- Attributes -->
    <rect x="330" y="740" width="350" height="40" rx="6" fill="#fff" stroke="#388e3c"/>
    <text x="505" y="755" text-anchor="middle" font-family="Arial" font-size="9" fill="#2e7d32">Attributes</text>
    
    <!-- Attribute list -->
    <rect x="340" y="765" width="70" height="12" rx="3" fill="#c8e6c9"/>
    <text x="375" y="773" text-anchor="middle" font-family="monospace" font-size="7" fill="#2e7d32">cn *</text>
    <rect x="420" y="765" width="70" height="12" rx="3" fill="#c8e6c9"/>
    <text x="455" y="773" text-anchor="middle" font-family="monospace" font-size="7" fill="#2e7d32">sn *</text>
    <rect x="500" y="765" width="70" height="12" rx="3" fill="#e8f5e9"/>
    <text x="535" y="773" text-anchor="middle" font-family="monospace" font-size="7" fill="#388e3c">mail</text>
    <rect x="580" y="765" width="70" height="12" rx="3" fill="#e8f5e9"/>
    <text x="615" y="773" text-anchor="middle" font-family="monospace" font-size="7" fill="#388e3c">telephone</text>
    
    <text x="70" y="798" font-family="Arial" font-size="8" fill="#2e7d32">* = Mandatory</text>
    <text x="130" y="798" font-family="Arial" font-size="8" fill="#388e3c">Schema enforces structure</text>
  </g>
  
  <!-- Step 8: Active Directory -->
  <g class="step" id="step8" data-narration="Microsoft Active Directory is the most prevalent enterprise directory, extending LDAP with domain services, certificates, and federation.">
    <rect x="50" y="800" width="700" height="90" rx="8" fill="url(#orangeGradient)" filter="url(#shadow)"/>
    <text x="70" y="825" font-family="Arial" font-size="13" font-weight="bold" fill="#e65100">Microsoft Active Directory</text>
    <rect x="70" y="835" width="160" height="4" rx="2" fill="#f57c00"/>
    <text x="70" y="855" font-family="Arial" font-size="10" fill="#424242">Most prevalent enterprise directory service implementation</text>
    
    <!-- AD Features -->
    <rect x="70" y="865" width="160" height="18" rx="4" fill="#fff" stroke="#f57c00"/>
    <text x="150" y="878" text-anchor="middle" font-size="8" fill="#e65100">Domain Services</text>
    
    <rect x="240" y="865" width="160" height="18" rx="4" fill="#fff" stroke="#f57c00"/>
    <text x="320" y="878" text-anchor="middle" font-size="8" fill="#e65100">Certificate Services</text>
    
    <rect x="410" y="865" width="160" height="18" rx="4" fill="#fff" stroke="#f57c00"/>
    <text x="490" y="878" text-anchor="middle" font-size="8" fill="#e65100">Federation Services</text>
    
    <rect x="580" y="865" width="160" height="18" rx="4" fill="#fff" stroke="#f57c00"/>
    <text x="660" y="878" text-anchor="middle" font-size="8" fill="#e65100">AD LDS</text>
    
    <text x="680" y="825" font-family="Arial" font-size="9" fill="#757575">Extends LDAP</text>
  </g>
  
  <!-- Step 9: Directory vs Relational Database -->
  <g class="step" id="step9" data-narration="Directory services are read-optimized hierarchical databases, while relational databases are designed for complex transactions with tabular data.">
    <rect x="50" y="900" width="700" height="100" rx="8" fill="url(#redGradient)" filter="url(#shadow)"/>
    <text x="70" y="925" font-family="Arial" font-size="13" font-weight="bold" fill="#c62828">Directory Service vs Relational Database</text>
    <rect x="70" y="935" width="280" height="4" rx="2" fill="#f44336"/>
    
    <!-- Comparison table -->
    <rect x="70" y="950" width="310" height="40" rx="6" fill="#e3f2fd" stroke="#1976d2"/>
    <text x="225" y="965" text-anchor="middle" font-size="10" font-weight="bold" fill="#1565c0">Directory Service</text>
    <text x="225" y="980" text-anchor="middle" font-size="8" fill="#424242">Read-optimized | Hierarchical | Simple queries</text>
    <text x="225" y="990" text-anchor="middle" font-size="8" fill="#424242">Built-in replication | Strict schema</text>
    
    <rect x="390" y="950" width="310" height="40" rx="6" fill="#fff3e0" stroke="#f57c00"/>
    <text x="545" y="965" text-anchor="middle" font-size="10" font-weight="bold" fill="#e65100">Relational Database</text>
    <text x="545" y="980" text-anchor="middle" font-size="8" fill="#424242">Transaction processing | Tabular | Complex SQL</text>
    <text x="545" y="990" text-anchor="middle" font-size="8" fill="#424242">Balanced R/W | Flexible schemas</text>
    
    <!-- Visual comparison -->
    <g transform="translate(150, 1000)">
      <rect x="0" y="0" width="60" height="60" rx="5" fill="#e3f2fd" stroke="#1976d2" stroke-width="2"/>
      <text x="30" y="20" text-anchor="middle" font-size="8" fill="#1565c0">Tree</text>
      <path d="M30 30 L10 55 M30 30 L30 55 M30 30 L50 55" stroke="#1976d2" stroke-width="2" fill="none"/>
    </g>
    <g transform="translate(520, 1000)">
      <rect x="0" y="0" width="60" height="60" rx="5" fill="#fff3e0" stroke="#f57c00" stroke-width="2"/>
      <text x="30" y="20" text-anchor="middle" font-size="8" fill="#e65100">Tables</text>
      <line x1="10" y1="35" x2="50" y2="35" stroke="#f57c00" stroke-width="2"/>
      <line x1="10" y1="45" x2="50" y2="45" stroke="#f57c00" stroke-width="2"/>
      <line x1="30" y1="30" x2="30" y2="50" stroke="#f57c00" stroke-width="2"/>
    </g>
  </g>
  
  <!-- Step 10: LDAP Operations -->
  <g class="step" id="step10" data-narration="LDAP supports seven operations: Bind, Search, Add, Delete, Modify, Compare, and Unbind for directory management.">
    <rect x="50" y="1010" width="700" height="90" rx="8" fill="url(#purpleGradient)" filter="url(#shadow)"/>
    <text x="70" y="1035" font-family="Arial" font-size="13" font-weight="bold" fill="#7b1fa2">LDAP Operations</text>
    <rect x="70" y="1045" width="120" height="4" rx="2" fill="#9c27b0"/>
    
    <!-- Operations as blocks -->
    <rect x="70" y="1060" width="80" height="25" rx="4" fill="#9c27b0"/>
    <text x="110" y="1077" text-anchor="middle" font-size="9" fill="white" font-weight="bold">Bind</text>
    
    <rect x="160" y="1060" width="80" height="25" rx="4" fill="#9c27b0"/>
    <text x="200" y="1077" text-anchor="middle" font-size="9" fill="white" font-weight="bold">Search</text>
    
    <rect x="250" y="1060" width="80" height="25" rx="4" fill="#9c27b0"/>
    <text x="290" y="1077" text-anchor="middle" font-size="9" fill="white" font-weight="bold">Add</text>
    
    <rect x="340" y="1060" width="80" height="25" rx="4" fill="#9c27b0"/>
    <text x="380" y="1077" text-anchor="middle" font-size="9" fill="white" font-weight="bold">Delete</text>
    
    <rect x="430" y="1060" width="80" height="25" rx="4" fill="#9c27b0"/>
    <text x="470" y="1077" text-anchor="middle" font-size="9" fill="white" font-weight="bold">Modify</text>
    
    <rect x="520" y="1060" width="80" height="25" rx="4" fill="#9c27b0"/>
    <text x="560" y="1077" text-anchor="middle" font-size="9" fill="white" font-weight="bold">Compare</text>
    
    <rect x="610" y="1060" width="80" height="25" rx="4" fill="#9c27b0"/>
    <text x="650" y="1077" text-anchor="middle" font-size="9" fill="white" font-weight="bold">Unbind</text>
    
    <!-- Descriptions -->
    <text x="70" y="1102" font-family="Arial" font-size="8" fill="#7b1fa2">Authenticate</text>
    <text x="160" y="1102" font-family="Arial" font-size="8" fill="#7b1fa2">Query directory</text>
    <text x="260" y="1102" font-family="Arial" font-size="8" fill="#7b1fa2">Create entry</text>
    <text x="350" y="1102" font-family="Arial" font-size="8" fill="#7b1fa2">Remove entry</text>
    <text x="440" y="1102" font-family="Arial" font-size="8" fill="#7b1fa2">Update entry</text>
    <text x="530" y="1102" font-family="Arial" font-size="8" fill="#7b1fa2">Test attribute</text>
    <text x="620" y="1102" font-family="Arial" font-size="8" fill="#7b1fa2">Close conn</text>
  </g>
  
  <!-- Step 11: LDAP Search Example -->
  <g class="step" id="step11" data-narration="An LDAP search specifies base DN, scope, filter, and attributes to retrieve matching entries from the directory hierarchy.">
    <rect x="50" y="1110" width="700" height="100" rx="8" fill="url(#tealGradient)" filter="url(#shadow)"/>
    <text x="70" y="1135" font-family="Arial" font-size="13" font-weight="bold" fill="#00695c">LDAP Search Operation Example</text>
    <rect x="70" y="1145" width="200" height="4" rx="2" fill="#00897b"/>
    
    <!-- Search parameters -->
    <rect x="70" y="1160" width="180" height="40" rx="5" fill="#fff" stroke="#00897b"/>
    <text x="160" y="1175" text-anchor="middle" font-size="9" font-weight="bold" fill="#00695c">Base DN</text>
    <text x="160" y="1190" text-anchor="middle" font-size="8" fill="#00897b">ou=students,dc=university,dc=edu</text>
    
    <rect x="260" y="1160" width="80" height="40" rx="5" fill="#fff" stroke="#00897b"/>
    <text x="300" y="1175" text-anchor="middle" font-size="9" font-weight="bold" fill="#00695c">Scope</text>
    <text x="300" y="1190" text-anchor="middle" font-size="8" fill="#00897b">subtree</text>
    
    <rect x="350" y="1160" width="250" height="40" rx="5" fill="#fff" stroke="#00897b"/>
    <text x="475" y="1175" text-anchor="middle" font-size="9" font-weight="bold" fill="#00695c">Filter</text>
    <text x="475" y="1190" text-anchor="middle" font-size="8" fill="#00897b">(objectClass=inetOrgPerson)(department=CS)</text>
    
    <!-- Flow -->
    <text x="70" y="1222" font-family="Arial" font-size="8" fill="#00695c">Search Flow:</text>
    <rect x="130" y="1210" width="70" height="18" rx="4" fill="#004d40"/>
    <text x="165" y="1222" text-anchor="middle" font-size="7" fill="white">Client</text>
    
    <path d="M205 1219 L245 1219" stroke="#00897b" stroke-width="2" marker-end="url(#arrowBlue)"/>
    
    <rect x="250" y="1210" width="70" height="18" rx="4" fill="#004d40"/>
    <text x="285" y="1222" text-anchor="middle" font-size="7" fill="white">LDAP Server</text>
    
    <path d="M325 1219 L365 1219" stroke="#00897b" stroke-width="2" marker-end="url(#arrowBlue)"/>
    
    <rect x="370" y="1210" width="100" height="18" rx="4" fill="#004d40"/>
    <text x="420" y="1222" text-anchor="middle" font-size="7" fill="white">Matching Entries</text>
  </g>
  
  <!-- Step 12: User Authentication -->
  <g class="step" id="step12" data-narration="User authentication involves binding with credentials, retrieving the user entry, comparing password hashes, and returning the result.">
    <rect x="50" y="1220" width="700" height="100" rx="8" fill="url(#blueGradient)" filter="url(#shadow)"/>
    <text x="70" y="1245" font-family="Arial" font-size="13" font-weight="bold" fill="#1565c0">User Authentication via LDAP</text>
    <rect x="70" y="1255" width="220" height="4" rx="2" fill="#1976d2"/>
    
    <!-- Authentication steps -->
    <g transform="translate(70, 1275)">
      <circle cx="15" cy="15" r="12" fill="#1976d2"/>
      <text x="15" y="19" text-anchor="middle" font-size="10" fill="white">1</text>
      <text x="40" y="19" font-family="Arial" font-size="9" fill="#424242">Client sends Bind request with DN</text>
    </g>
    
    <g transform="translate(250, 1275)">
      <circle cx="15" cy="15" r="12" fill="#1976d2"/>
      <text x="15" y="19" text-anchor="middle" font-size="10" fill="white">2</text>
      <text x="40" y="19" font-family="Arial" font-size="9" fill="#424242">Server retrieves user entry</text>
    </g>
    
    <g transform="translate(430, 1275)">
      <circle cx="15" cy="15" r="12" fill="#1976d2"/>
      <text x="15" y="19" text-anchor="middle" font-size="10" fill="white">3</text>
      <text x="40" y="19" font-family="Arial" font-size="9" fill="#424242">Compare password hash</text>
    </g>
    
    <g transform="translate(610, 1275)">
      <circle cx="15" cy="15" r="12" fill="#1976d2"/>
      <text x="15" y="19" text-anchor="middle" font-size="10" fill="white">4</text>
      <text x="40" y="19" font-family="Arial" font-size="9" fill="#424242">Return success/failure</text>
    </g>
    
    <!-- Visual flow -->
    <rect x="120" y="1305" width="150" height="8" rx="4" fill="#e3f2fd">
      <animate attributeName="width" from="0" to="150" dur="1s" fill="freeze"/>
    </rect>
    <rect x="120" y="1305" width="150" height="8" rx="4" fill="#1976d2" opacity="0.5">
      <animate attributeName="width" from="0" to="150" dur="1s" fill="freeze" begin="0.3s"/>
    </rect>
    <rect x="280" y="1305" width="150" height="8" rx="4" fill="#e3f2fd">
      <animate attributeName="width" from="0" to="150" dur="1s" fill="freeze" begin="0.6s"/>
    </rect>
    <rect x="280" y="1305" width="150" height="8" rx="4" fill="#1976d2" opacity="0.5">
      <animate attributeName="width" from="0" to="150" dur="1s" fill="freeze" begin="0.9s"/>
    </rect>
    <rect x="440" y="1305" width="150" height="8" rx="4" fill="#e3f2fd">
      <animate attributeName="width" from="0" to="150" dur="1s" fill="freeze" begin="1.2s"/>
    </rect>
    <rect x="440" y="1305" width="150" height="8" rx="4" fill="#1976d2" opacity="0.5">
      <animate attributeName="width" from="0" to="150" dur="1s" fill="freeze" begin="1.5s"/>
    </rect>
    <rect x="600" y="1305" width="80" height="8" rx="4" fill="#e3f2fd">
      <animate attributeName="width" from="0" to="80" dur="1s" fill="freeze" begin="1.8s"/>
    </rect>
    <rect x="600" y="1305" width="80" height="8" rx="4" fill="#4caf50">
      <animate attributeName="width" from="0" to="80" dur="1s" fill="freeze" begin="2.1s"/>
    </rect>
  </g>
  
  <!-- Step 13: Replication Strategies -->
  <g class="step" id="step13" data-narration="Directory services use replication strategies like master-slave and multi-master to ensure high availability and performance across locations.">
    <rect x="50" y="1330" width="700" height="90" rx="8" fill="url(#orangeGradient)" filter="url(#shadow)"/>
    <text x="70" y="1355" font-family="Arial" font-size="13" font-weight="bold" fill="#e65100">Replication & Distribution</text>
    <rect x="70" y="1365" width="180" height="4" rx="2" fill="#f57c00"/>
    
    <!-- Master-Slave -->
    <rect x="70" y="1380" width="250" height="30" rx="5" fill="#fff" stroke="#f57c00"/>
    <text x="195" y="1398" text-anchor="middle" font-size="9" fill="#e65100">Master-Slave Replication</text>
    <text x="195" y="1408" text-anchor="middle" font-size="7" fill="#757575">One master for updates, multiple slaves for reads</text>
    
    <!-- Multi-Master -->
    <rect x="330" y="1380" width="250" height="30" rx="5" fill="#fff" stroke="#f57c00"/>
    <text x="455" y="1398" text-anchor="middle" font-size="9" fill="#e65100">Multi-Master Replication</text>
    <text x="455" y="1408" text-anchor="middle" font-size="7" fill="#757575">Multiple servers accept updates, sync changes</text>
    
    <!-- Other strategies -->
    <rect x="590" y="1380" width="80" height="30" rx="5" fill="#f57c00"/>
    <text x="630" y="1398" text-anchor="middle" font-size="8" fill="white">Referrals</text>
    <text x="630" y="1408" text-anchor="middle" font-size="6" fill="white">Partitioning</text>
    
    <!-- Benefits -->
    <text x="70" y="1428" font-family="Arial" font-size="8" fill="#e65100">Benefits:</text>
    <text x="120" y="1428" font-family="Arial" font-size="8" fill="#424242">Fault tolerance | Load distribution | Geographic performance</text>
  </g>
  
  <!-- Step 14: Summary - Key Points -->
  <g class="step" id="step14" data-narration="In summary, directory services provide hierarchical organization, LDAP enables standardized access, and they're essential for enterprise identity management.">
    <rect x="50" y="1430" width="700" height="100" rx="8" fill="url(#titleGradient)" filter="url(#shadow)"/>
    <text x="400" y="1460" text-anchor="middle" font-family="Arial" font-size="16" font-weight="bold" fill="white">Summary - Key Points</text>
    <rect x="300" y="1470" width="200" height="3" rx="2" fill="white" opacity="0.5"/>
    
    <!-- Key takeaways -->
    <g transform="translate(70, 1485)">
      <circle cx="10" cy="10" r="8" fill="white" opacity="0.3"/>
      <text x="10" y="14" text-anchor="middle" font-size="10" fill="white">1</text>
      <text x="30" y="14" font-family="Arial" font-size="10" fill="white">Directory services are read-optimized hierarchical databases</text>
    </g>
    
    <g transform="translate(70, 1505)">
      <circle cx="10" cy="10" r="8" fill="white" opacity="0.3"/>
      <text x="10" y="14" text-anchor="middle" font-size="10" fill="white">2</text>
      <text x="30" y="14" font-family="Arial" font-size="10" fill="white">LDAP is the standard protocol for directory access</text>
    </g>
    
    <g transform="translate(70" y="1525)">
      <circle cx="10" cy="10" r="8" fill="white" opacity="0.3"/>
      <text x="10" y="14" text-anchor="middle" font-size="10" fill="white">3</text>
      <text x="30" y="14" font-family="Arial" font-size="10" fill="white">DIT organizes entries hierarchically with DN as unique identifier</text>
    </g>
    
    <g transform="translate(70, 1525)">
      <circle cx="10" cy="10" r="8" fill="white" opacity="0.3"/>
      <text x="10" y="14" text-anchor="middle" font-size="10" fill="white">4</text>
      <text x="30" y="14" font-family="Arial" font-size="10" fill="white">Active Directory is Microsoft's enterprise implementation</text>
    </g>
    
    <g transform="translate(400, 1485)">
  </g>
  </g>
</svg>