<svg width="420" height="400" data-topic-id="textbook-1-ch-natural-language-processing">
  <defs>
    <linearGradient id="pastel-gradient" x1="0%" y1="0%" x2="100%" y2="100%">
      <stop offset="0%" stop-color="#C7B8EA" stop-opacity="1"/>
      <stop offset="100%" stop-color="#E0C5C5" stop-opacity="1"/>
    </linearGradient>
    <style>
      .section {
        background: url(#pastel-gradient) no-repeat;
        height: 60px;
        padding: 20px;
        margin-bottom: 20px;
        border-radius: 10px;
        box-shadow: 0 0 10px rgba(0, 0, 0, 0.1);
      }
      .label {
        font-size: 18px;
        font-weight: bold;
        color: #3498db;
      }
      .annotation {
        font-size: 14px;
        color: #666;
      }
      .arrow {
        fill: #ff9900;
      }
    </style>
  </defs>
  <title>Natural Language Processing: Textbook 1 Ch</title>
  <rect x="10" y="10" width="400" height="60" style="fill: #fff; border: 1px solid #ccc; border-radius: 10px 10px 0 0"/>
  <rect x="10" y="80" width="400" height="60" style="fill: #fff; border: 1px solid #ccc; border-radius: 10px 10px 0 0"/>
  <rect x="10" y="150" width="400" height="60" style="fill: #fff; border: 1px solid #ccc; border-radius: 10px 10px 0 0"/>
  <rect x="10" y="220" width="400" height="60" style="fill: #fff; border: 1px solid #ccc; border-radius: 10px 10px 0 0"/>
  <rect x="10" y="290" width="400" height="60" style="fill: #fff; border: 1px solid #ccc; border-radius: 10px 10px 0 0"/>
  <g transform="translate(20, 10)">
    <rect x="0" y="0" width="100" height="60" class="section" data-narration="Regular Expressions"/>
    <g transform="translate(130, 10)">
      <rect x="0" y="0" width="100" height="60" class="section" data-narration="Finite-State Automata"/>
    </g>
    <g transform="translate(240, 10)">
      <rect x="0" y="0" width="100" height="60" class="section" data-narration="Word Level Analysis"/>
      <g transform="translate(130, 10)">
        <path d="M 50,10 L 140,10 L 140,90 L 50,90 Z" class="arrow"/>
      </g>
    </g>
    <g transform="translate(340, 10)">
      <rect x="0" y="0" width="100" height="60" class="section" data-narration="Key Concepts"/>
      <g transform="translate(130, 10)">
        <path d="M 50,10 L 140,10 L 140,90 L 50,90 Z" class="arrow"/>
      </g>
    </g>
  </g>
  <rect x="10" y="350" width="400" height="30" style="fill: #fff; border: 1px solid #ccc; border-radius: 10px 10px 0 0"/>
  <text x="20" y="370" font-size="18" font-weight="bold" color="#3498db">Finite-State Automata</text>
  <text x="20" y="390" font-size="14" color="#666">created by <a href="#">Author Name</a></text>
</svg>