<svg xmlns="http://www.w3.org/2000/svg" viewBox="0 0 800 1500">
  <defs>
    <linearGradient id="blueGrad" x1="0%" y1="0%" x2="100%" y2="100%">
      <stop offset="0%" stop-color="#e3f2fd"/>
      <stop offset="100%" stop-color="#bbdefb"/>
    </linearGradient>
    <linearGradient id="greenGrad" x1="0%" y1="0%" x2="100%" y2="100%">
      <stop offset="0%" stop-color="#e8f5e9"/>
      <stop offset="100%" stop-color="#c8e6c9"/>
    </linearGradient>
    <linearGradient id="orangeGrad" x1="0%" y1="0%" x2="100%" y2="100%">
      <stop offset="0%" stop-color="#fff3e0"/>
      <stop offset="100%" stop-color="#ffe0b2"/>
    </linearGradient>
    <linearGradient id="purpleGrad" x1="0%" y1="0%" x2="100%" y2="100%">
      <stop offset="0%" stop-color="#f3e5f5"/>
      <stop offset="100%" stop-color="#e1bee7"/>
    </linearGradient>
    <linearGradient id="redGrad" x1="0%" y1="0%" x2="100%" y2="100%">
      <stop offset="0%" stop-color="#ffebee"/>
      <stop offset="100%" stop-color="#ffcdd2"/>
    </linearGradient>
    <filter id="shadow" x="-20%" y="-20%" width="140%" height="140%">
      <feDropShadow dx="2" dy="3" stdDeviation="3" flood-opacity="0.15"/>
    </filter>
    <marker id="arrowBlue" markerWidth="10" markerHeight="10" refX="9" refY="3" orient="auto">
      <path d="M0,0 L0,6 L9,3 z" fill="#1976d2"/>
    </marker>
    <marker id="arrowGreen" markerWidth="10" markerHeight="10" refX="9" refY="3" orient="auto">
      <path d="M0,0 L0,6 L9,3 z" fill="#388e3c"/>
    </marker>
  </style>
  
  <style>
    @keyframes fadeInSlide {
      from { opacity: 0; transform: translateY(20px); }
      to { opacity: 1; transform: translateY(0); }
    }
    @keyframes scaleIn {
      from { opacity: 0; transform: scale(0.85); }
      to { opacity: 1; transform: scale(1); }
    }
    @keyframes textReveal {
      from { opacity: 0; transform: translateX(-10px); }
      to { opacity: 1; transform: translateX(0); }
    }
    @keyframes drawLine {
      from { stroke-dashoffset: 500; }
      to { stroke-dashoffset: 0; }
    }
    @keyframes pulse {
      0%, 100% { transform: scale(1); }
      50% { transform: scale(1.03); }
    }
    @keyframes matrixBuild {
      from { opacity: 0; }
      to { opacity: 1; }
    }
    .step { animation: fadeInSlide 0.6s ease-out; }
    .step rect {
      animation: scaleIn 0.5s cubic-bezier(0.34, 1.56, 0.64, 1);
      transform-origin: center;
    }
    .step text { animation: textReveal 0.4s ease-out 0.2s backwards; }
    .formula { font-family: 'Courier New', monospace; font-weight: bold; }
    .matrix-line { stroke-dasharray: 500; stroke-dashoffset: 500; animation: drawLine 1s ease-out forwards; }
    .pulse-anim { animation: pulse 2s infinite; }
  </style>

  <rect width="800" height="1500" fill="#f8f9fa"/>

  <!-- Step 0: Title -->
  <g class="step" id="step0" data-narration="Welcome to this lecture on Translation and Scaling in 2D Computer Graphics. These are foundational transformations.">
    <rect x="50" y="10" width="700" height="45" rx="10" fill="url(#blueGrad)" filter="url(#shadow)"/>
    <text x="400" y="42" text-anchor="middle" font-size="22" font-weight="bold" fill="#1565c0">Translation and Scaling in 2D Computer Graphics</text>
    <text x="400" y="58" text-anchor="middle" font-size="11" fill="#666">Fundamental Geometric Transformations</text>
  </g>

  <!-- Step 1: Why Transformations Matter -->
  <g class="step" id="step1" data-narration="Transformations allow us to move, resize, and rotate objects. They are essential for animations, games, CAD, and virtual reality applications.">
    <rect x="50" y="65" width="700" height="90" rx="10" fill="url(#greenGrad)" filter="url(#shadow)"/>
    <text x="70" y="90" font-size="13" font-weight="bold" fill="#2e7d32">Why Do Transformations Matter?</text>
    <text x="70" y="110" font-size="10" fill="#333">Transformations are the backbone of all visual manipulations in computer graphics.</text>
    <text x="70" y="128" font-size="10" fill="#333">They enable animations, UI design, 3D rendering, and more.</text>
    <!-- Icons -->
    <rect x="550" y="85" width="40" height="30" rx="4" fill="#4caf50" opacity="0.7">
      <animate attributeName="x" values="550;560;550" dur="2s" repeatCount="indefinite"/>
    </rect>
    <rect x="600" y="95" width="25" height="25" rx="3" fill="#2196f3" transform="rotate(15 612.5 107.5)">
      <animate attributeName="transform" values="rotate(15 612.5 107.5);rotate(-15 612.5 107.5);rotate(15 612.5 107.5)" dur="3s" repeatCount="indefinite"/>
    </rect>
    <circle cx="685" cy="100" r="15" fill="#ff9800" opacity="0.8">
      <animate attributeName="r" values="15;18;15" dur="2s" repeatCount="indefinite"/>
    </circle>
    <text x="650" y="140" font-size="9" fill="#666">Move • Resize • Rotate</text>
  </g>

  <!-- Step 2: Homogeneous Coordinates -->
  <g class="step" id="step2" data-narration="Homogeneous coordinates represent 2D points in 3D as (x, y, 1). This allows all transformations to be expressed as matrix multiplications.">
    <rect x="50" y="165" width="700" height="95" rx="10" fill="url(#purpleGrad)" filter="url(#shadow)"/>
    <text x="70" y="190" font-size="13" font-weight="bold" fill="#7b1fa2">Homogeneous Coordinates</text>
    <text x="70" y="212" font-size="10" fill="#333">In 2D Cartesian: point (x, y)</text>
    <text x="70" y="228" font-size="10" fill="#333">In Homogeneous: point (x, y, 1) — we add a third coordinate w = 1</text>
    <text x="70" y="244" font-size="10" fill="#333">This enables both translation and scaling to use matrix multiplication!</text>
    <!-- Visual representation -->
    <rect x="400" y="185" width="60" height="60" rx="8" fill="#fff" stroke="#9c27b0" stroke-width="2"/>
    <text x="430" y="215" text-anchor="middle" font-size="11" fill="#333">2D Point</text>
    <text x="430" y="235" text-anchor="middle" font-size="10" fill="#666">(x, y)</text>
    <path d="M465 215 L510 215" stroke="#9c27b0" stroke-width="2" marker-end="url(#arrowBlue)"/>
    <rect x="520" y="185" width="80" height="60" rx="8" fill="#fff" stroke="#9c27b0" stroke-width="2"/>
    <text x="560" y="215" text-anchor="middle" font-size="11" fill="#333">Homogeneous</text>
    <text x="560" y="235" text-anchor="middle" font-size="10" fill="#666">(x, y, 1)</text>
  </g>

  <!-- Step 3: Translation Concept -->
  <g class="step" id="step3" data-narration="Translation moves every point by the same distance (tx, ty). It preserves shape, size, angles, and parallelism - a rigid body transformation.">
    <rect x="50" y="270" width="700" height="95" rx="10" fill="url(#orangeGrad)" filter="url(#shadow)"/>
    <text x="70" y="295" font-size="13" font-weight="bold" fill="#e65100">Translation: Moving Objects</text>
    <text x="70" y="318" font-size="10" fill="#333">Every point moves by (tx, ty): x' = x + tx, y' = y + ty</text>
    <text x="70" y="335" font-size="10" fill="#333">Preserves: parallelism, angles, shape, size. Only position changes.</text>
    <text x="70" y="352" font-size="10" fill="#333">Commutative: T1 × T2 = T2 × T1 (order doesn't matter)</text>
    <!-- Visual: translation arrow -->
    <g transform="translate(450, 290)">
      <polygon points="0,0 30,15 30,5 60,5 60,25 30,25 30,15" fill="#ff9800" class="pulse-anim"/>
    </g>
    <text x="530" y="350" font-size="9" fill="#666">Original → Translated</text>
  </g>

  <!-- Step 4: Translation Matrix -->
  <g class="step" id="step4" data-narration="The translation matrix T(tx, ty) is a 3×3 matrix. When multiplied with [x, y, 1], it produces [x+tx, y+ty, 1].">
    <rect x="50" y="375" width="700" height="95" rx="10" fill="url(#blueGrad)" filter="url(#shadow)"/>
    <text x="70" y="400" font-size="13" font-weight="bold" fill="#1565c0">Translation Matrix T(tx, ty)</text>
    <!-- Matrix -->
    <g transform="translate(100, 420)">
      <rect x="0" y="0" width="150" height="45" rx="5" fill="#fff" stroke="#1976d2" stroke-width="2"/>
      <line x1="50" y1="0" x2="50" y2="45" stroke="#1976d2" stroke-width="2"/>
      <line x1="100" y1="0" x2="100" y2="45" stroke="#1976d2" stroke-width="2"/>
      <text x="25" y="28" text-anchor="middle" font-size="12" fill="#333" class="formula">1</text>
      <text x="75" y="28" text-anchor="middle" font-size="12" fill="#333" class="formula">0</text>
      <text x="125" y="28" text-anchor="middle" font-size="12" fill="#e65100" class="formula">tx</text>
    </g>
    <g transform="translate(100, 425)">
      <rect x="0" y="0" width="150" height="45" rx="5" fill="#fff" stroke="#1976d2" stroke-width="2"/>
      <line x1="50" y1="0" x2="50" y2="45" stroke="#1976d2" stroke-width="2"/>
      <line x1="100" y1="0" x2="100" y2="45" stroke="#1976d2" stroke-width="2"/>
      <text x="25" y="28" text-anchor="middle" font-size="12" fill="#333" class="formula">0</text>
      <text x="75" y="28" text-anchor="middle" font-size="12" fill="#333" class="formula">1</text>
      <text x="125" y="28" text-anchor="middle" font-size="12" fill="#e65100" class="formula">ty</text>
    </g>
    <g transform="translate(100, 430)">
      <rect x="0" y="0" width="150" height="45" rx="5" fill="#fff" stroke="#1976d2" stroke-width="2"/>
      <line x1="50" y1="0" x2="50" y2="45" stroke="#1976d2" stroke-width="2"/>
      <line x1="100" y1="0" x2="100" y2="45" stroke="#1976d2" stroke-width="2"/>
      <text x="25" y="28" text-anchor="middle" font-size="12" fill="#333" class="formula">0</text>
      <text x="75" y="28" text-anchor="middle" font-size="12" fill="#333" class="formula">0</text>
      <text x="125" y="28" text-anchor="middle" font-size="12" fill="#333" class="formula">1</text>
    </g>
    <text x="280" y="450" font-size="10" fill="#333">×</text>
    <g transform="translate(300, 435)">
      <rect x="0" y="0" width="40" height="60" rx="5" fill="#fff" stroke="#666" stroke-width="1"/>
      <text x="20" y="22" text-anchor="middle" font-size="10" fill="#333">x</text>
      <text x="20" y="42" text-anchor="middle" font-size="10" fill="#333">y</text>
      <text x="20" y="55" text-anchor="middle" font-size="9" fill="#333">1</text>
    </g>
    <text x="355" y="450" font-size="10" fill="#333">=</text>
    <g transform="translate(375, 435)">
      <rect x="0" y="0" width="60" height="60" rx="5" fill="#e8f5e9" stroke="#388e3c" stroke-width="2"/>
      <text x="30" y="22" text-anchor="middle" font-size="10" fill="#333">x+tx</text>
      <text x="30" y="42" text-anchor="middle" font-size="10" fill="#333">y+ty</text>
      <text x="30" y="55" text-anchor="middle" font-size="9" fill="#333">1</text>
    </g>
  </g>

  <!-- Step 5: Translation Example -->
  <g class="step" id="step5" data-narration="Let's translate triangle ABC by tx=4, ty=-2. Vertex A(2,3) becomes A'(6,1), B(5,3)→B'(9,1), C(2,7)→C'(6,5).">
    <rect x="50" y="480" width="700" height="95" rx="10" fill="url(#greenGrad)" filter="url(#shadow)"/>
    <text x="70" y="505" font-size="13" font-weight="bold" fill="#2e7d32">Example: Translate Triangle by (4, -2)</text>
    <!-- Original triangle -->
    <g transform="translate(80, 530)">
      <polygon points="0,40 30,40 0,10" fill="#fff" stroke="#388e3c" stroke-width="2"/>
      <text x="5" y="55" font-size="9" fill="#333">A(2,3)</text>
      <text x="25" y="55" font-size="9" fill="#333">B(5,3)</text>
      <text x="-5" y="20" font-size="9" fill="#333">C(2,7)</text>
    </g>
    <path d="M130 555 L170 555" stroke="#ff9800" stroke-width="3" marker-end="url(#arrowGreen)"/>
    <!-- Translated triangle -->
    <g transform="translate(190, 530)">
      <polygon points="0,40 30,40 0,10" fill="#c8e6c9" stroke="#388e3c" stroke-width="2"/>
      <text x="5" y="55" font-size="9" fill="#333">A'(6,1)</text>
      <text x="25" y="55" font-size="9" fill="#333">B'(9,1)</text>
      <text x="-5" y="20" font-size="9" fill="#333">C'(6,5)</text>
    </g>
    <!-- Matrix calculation -->
    <g transform="translate(400, 515)">
      <text x="0" y="0" font-size="10" fill="#333" class="formula">|1 0 4| |2| |6|</text>
      <text x="0" y="15" font-size="10" fill="#333" class="formula">|0 1-2|×|3|=|1|</text>
      <text x="0" y="30" font-size="10" fill="#333" class="formula">|0 0 1| |1| |1|</text>
    </g>
  </g>

  <!-- Step 6: Scaling Concept -->
  <g class="step" id="step6" data-narration="Scaling changes object size by multiplying coordinates by (sx, sy). Uniform scaling uses equal factors; non-uniform uses different values.">
    <rect x="50" y="585" width="700" height="95" rx="10" fill="url(#redGrad)" filter="url(#shadow)"/>
    <text x="70" y="610" font-size="13" font-weight="bold" fill="#c62828">Scaling: Resizing Objects</text>
    <text x="70" y="633" font-size="10" fill="#333">Formula: x' = x × sx, y' = y × sy</text>
    <text x="70" y="650" font-size="10" fill="#333">Uniform: sx = sy (same in all directions) | Non-uniform: sx ≠ sy (different per axis)</text>
    <text x="70" y="667" font-size="10" fill="#333">sx,sy &gt; 1: enlarge | 0-1: shrink | negative: reflect</text>
    <!-- Visual comparison -->
    <rect x="450" y="610" width="30" height="20" rx="2" fill="#fff" stroke="#f44336" stroke-width="1.5"/>
    <text x="465" y="645" text-anchor="middle" font-size="8" fill="#666">Original</text>
    <rect x="500" y="600" width="60" height="40" rx="2" fill="#ffcdd2" stroke="#f44336" stroke-width="1.5"/>
    <text x="530" y="655" text-anchor="middle" font-size="8" fill="#666">sx=2, sy=2</text>
    <rect x="580" y="615" width="45" height="15" rx="2" fill="#ffcdd2" stroke="#f44336" stroke-width="1.5" stroke-dasharray="3,2"/>
    <text x="602" y="645" text-anchor="middle" font-size="8" fill="#666">sx=1.5</text>
  </g>

  <!-- Step 7: Scaling Matrix -->
  <g class="step" id="step7" data-narration="The scaling matrix S(sx, sy) multiplies coordinates. The identity matrix S(1,1) leaves objects unchanged.">
    <rect x="50" y="690" width="700" height="95" rx="10" fill="url(#blueGrad)" filter="url(#shadow)"/>
    <text x="70" y="715" font-size="13" font-weight="bold" fill="#1565c0">Scaling Matrix S(sx, sy)</text>
    <!-- Matrix -->
    <g transform="translate(100, 735)">
      <rect x="0" y="0" width="150" height="45" rx="5" fill="#fff" stroke="#1976d2" stroke-width="2"/>
      <line x1="50" y1="0" x2="50" y2="45" stroke="#1976d2" stroke-width="2"/>
      <line x1="100" y1="0" x2="100" y2="45" stroke="#1976d2" stroke-width="2"/>
      <text x="25" y="28" text-anchor="middle" font-size="12" fill="#e65100" class="formula">sx</text>
      <text x="75" y="28" text-anchor="middle" font-size="12" fill="#333" class="formula">0</text>
      <text x="125" y="28" text-anchor="middle" font-size="12" fill="#333" class="formula">0</text>
    </g>
    <g transform="translate(100, 740)">
      <rect x="0" y="0" width="150" height="45" rx="5" fill="#fff" stroke="#1976d2" stroke-width="2"/>
      <line x1="50" y1="0" x2="50" y2="45" stroke="#1976d2" stroke-width="2"/>
      <line x1="100" y1="0" x2="100" y2="45" stroke="#1976d2" stroke-width="2"/>
      <text x="25" y="28" text-anchor="middle" font-size="12" fill="#333" class="formula">0</text>
      <text x="75" y="28" text-anchor="middle" font-size="12" fill="#e65100" class="formula">sy</text>
      <text x="125" y="28" text-anchor="middle" font-size="12" fill="#333" class="formula">0</text>
    </g>
    <g transform="translate(100, 745)">
      <rect x="0" y="0" width="150" height="45" rx="5" fill="#fff" stroke="#1976d2" stroke-width="2"/>
      <line x1="50" y1="0" x2="50" y2="45" stroke="#1976d2" stroke-width="2"/>
      <line x1="100" y1="0" x2="100" y2="45" stroke="#1976d2" stroke-width="2"/>
      <text x="25" y="28" text-anchor="middle" font-size="12" fill="#333" class="formula">0</text>
      <text x="75" y="28" text-anchor="middle" font-size="12" fill="#333" class="formula">0</text>
      <text x="125" y="28" text-anchor="middle" font-size="12" fill="#333" class="formula">1</text>
    </g>
    <text x="280" y="760" font-size="10" fill="#333">×</text>
    <g transform="translate(300, 745)">
      <rect x="0" y="0" width="40" height="60" rx="5" fill="#fff" stroke="#666" stroke-width="1"/>
      <text x="20" y="22" text-anchor="middle" font-size="10" fill="#333">x</text>
      <text x="20" y="42" text-anchor="middle" font-size="10" fill="#333">y</text>
      <text x="20" y="55" text-anchor="middle" font-size="9" fill="#333">1</text>
    </g>
    <text x="355" y="760" font-size="10" fill="#333">=</text>
    <g transform="translate(375, 745)">
      <rect x="0" y="0" width="70" height="60" rx="5" fill="#e8f5e9" stroke="#388e3c" stroke-width="2"/>
      <text x="35" y="22" text-anchor="middle" font-size="10" fill="#333">x×sx</text>
      <text x="35" y="42" text-anchor="middle" font-size="10" fill="#333">y×sy</text>
      <text x="35" y="55" text-anchor="middle" font-size="9" fill="#333">1</text>
    </g>
  </g>

  <!-- Step 8: Scaling Example -->
  <g class="step" id="step8" data-narration="For rectangle with scale factor 2.5: P1(1,1)→(2.5,2.5), P2(4,1)→(10,2.5), P3(4,3)→(10,7.5), P4(1,3)→(2.5,7.5).">
    <rect x="50" y="795" width="700" height="95" rx="10" fill="url(#greenGrad)" filter="url(#shadow)"/>
    <text x="70" y="820" font-size="13" font-weight="bold" fill="#2e7d32">Example: Scale Rectangle by 2.5 (Uniform)</text>
    <!-- Original rectangle -->
    <g transform="translate(80, 840)">
      <rect x="0" y="0" width="30" height="20" rx="2" fill="#fff" stroke="#388e3c" stroke-width="2"/>
      <text x="0" y="35" font-size="9" fill="#333">P1(1,1)</text>
      <text x="20" y="-5" font-size="9" fill="#333">P2(4,1)</text>
    </g>
    <path d="M130 855 L170 855" stroke="#ff9800" stroke-width="3" marker-end="url(#arrowGreen)"/>
    <!-- Scaled rectangle -->
    <g transform="translate(190, 810)">
      <rect x="0" y="0" width="75" height="50" rx="2" fill="#c8e6c9" stroke="#388e3c" stroke-width="2"/>
      <text x="0" y="65" font-size="9" fill="#333">P1'(2.5,2.5)</text>
      <text x="55" y="-5" font-size="9" fill="#333">P2'(10,2.5)</text>
    </g>
    <!-- Calculation -->
    <g transform="translate(350, 820)">
      <text x="0" y="0" font-size="10" fill="#333" class="formula">P1: (1×2.5, 1×2.5) = (2.5, 2.5)</text>
      <text x="0" y="18" font-size="10" fill="#333" class="formula">P2: (4×2.5, 1×2.5) = (10, 2.5)</text>
      <text x="0" y="36" font-size="10" fill="#333" class="formula">P3: (4×2.5, 3×2.5) = (10, 7.5)</text>
      <text x="0" y="54" font-size="10" fill="#333" class="formula">P4: (1×2.5, 3×2.5) = (2.5, 7.5)</text>
    </g>
  </g>

  <!-- Step 9: Fixed Point Scaling Concept -->
  <g class="step" id="step9" data-narration="By default, scaling occurs about the origin. To scale about a fixed point, we translate it to origin, scale, then translate back.">
    <rect x="50" y="900" width="700" height="95" rx="10" fill="url(#purpleGrad)" filter="url(#shadow)"/>
    <text x="70" y="925" font-size="13" font-weight="bold" fill="#7b1fa2">Fixed Point (Pivot) Scaling</text>
    <text x="70" y="948" font-size="10" fill="#333">Default scaling is about origin (0,0). For scaling about point (xf, yf):</text>
    <text x="70" y="965" font-size="10" fill="#333">1. Translate so fixed point moves to origin: T(-xf, -yf)</text>
    <text x="70" y="982" font-size="10" fill="#333">2. Apply scaling: S(sx, sy) | 3. Translate back: T(xf, yf)</text>
    <!-- Visual flow -->
    <g transform="translate(450, 935)">
      <rect x="0" y="0" width="50" height="35" rx="4" fill="#fff" stroke="#9c27b0"/>
      <text x="25" y="22" text-anchor="middle" font-size="9" fill="#333">Object</text>
    </g>
    <path d="M505 17 L545 17" stroke="#9c27b0" stroke-width="2" marker-end="url(#arrowBlue)"/>
    <circle cx="580" cy="17" r="8" fill="#ff9800"/>
    <text x="580" y="35" text-anchor="middle" font-size="8" fill="#666">xf,yf</text>
    <path d="M590 17 L630 17" stroke="#9c27b0" stroke-width="2" marker-end="url(#arrowBlue)"/>
    <text x="610" y="55" text-anchor="middle" font-size="8" fill="#666" font-weight="bold">Fixed!</text>
  </g>

  <!-- Step 10: Fixed Point Matrix -->
  <g class="step" id="step10" data-narration="The composite matrix is M = T(xf, yf) × S(sx, sy) × T(-xf, -yf). Transformations apply right-to-left: T(-xf,-yf) first, then S, then T.">
    <rect x="50" y="1005" width="700" height="95" rx="10" fill="url(#orangeGrad)" filter="url(#shadow)"/>
    <text x="70" y="1030" font-size="13" font-weight="bold" fill="#e65100">Fixed Point Scaling Matrix</text>
    <!-- Composite matrix formula -->
    <g transform="translate(70, 1050)">
      <text x="0" y="0" font-size="12" fill="#333" font-weight="bold">M = T(xf, yf) × S(sx, sy) × T(-xf, -yf)</text>
    </g>
    <g transform="translate(70, 1075)">
      <text x="0" y="0" font-size="10" fill="#666">Applying right-to-left: T(-xf,-yf) → S(sx,sy) → T(xf,yf)</text>
    </g>
    <!-- Visual three-step -->
    <g transform="translate(400, 1045)">
      <rect x="0" y="0" width="70" height="50" rx="5" fill="#fff3e0" stroke="#ff9800"/>
      <text x="35" y="20" text-anchor="middle" font-size="9" fill="#333">Translate</text>
      <text x="35" y="35" text-anchor="middle" font-size="8" fill="#666">to origin</text>
      <text x="35" y="45" text-anchor="middle" font-size="8" fill="#e65100">T(-xf,-yf)</text>
    </g>
    <path d="M475 25 L510 25" stroke="#ff9800" stroke-width="2" marker-end="url(#arrowGreen)"/>
    <g transform="translate(520, 1045)">
      <rect x="0" y="0" width="70" height="50" rx="5" fill="#fff3e0" stroke="#ff9800"/>
      <text x="35" y="20" text-anchor="middle" font-size="9" fill="#333">Scale</text>
      <text x="35" y="35" text-anchor="middle" font-size="8" fill="#666">uniformly</text>
      <text x="35" y="45" text-anchor="middle" font-size="8" fill="#e65100">S(sx,sy)</text>
    </g>
    <path d="M595 25 L630 25" stroke="#ff9800" stroke-width="2" marker-end="url(#arrowGreen)"/>
    <g transform="translate(640, 1045)">
      <rect x="0" y="0" width="70" height="50" rx="5" fill="#fff3e0" stroke="#ff9800"/>
      <text x="35" y="20" text-anchor="middle" font-size="9" fill="#333">Translate</text>
      <text x="35" y="35" text-anchor="middle" font-size="8" fill="#666">back</text>
      <text x="35" y="45" text-anchor="middle" font-size="8" fill="#e65100">T(xf,yf)</text>
    </g>
  </g>

  <!-- Step 11: Fixed Point Example -->
  <g class="step" id="step11" data-narration="Scale line AB from A(2,4),B(6,8) by 0.5 about F(4,6). After three steps: A'(3,5), B'(5,7), F stays at (4,6)!">
    <rect x="50" y="1110" width="700" height="95" rx="10" fill="url(#redGrad)" filter="url(#shadow)"/>
    <text x="70" y="1135" font-size="13" font-weight="bold" fill="#c62828">Example: Scale Line by 0.5 about Fixed Point F(4,6)</text>
    <!-- Original line with fixed point -->
    <g transform="translate(80, 1155)">
      <line x1="0" y1="40" x2="40" y2="0" stroke="#f44336" stroke-width="3"/>
      <circle cx="20" cy="20" r="6" fill="#ff9800"/>
      <text x="15" y="35" font-size="8" fill="#333">A(2,4)</text>
      <text x="30" y="10" font-size="8" fill="#333">B(6,8)</text>
      <text x="25" y="25" font-size="8" fill="#e65100" font-weight="bold">F</text>
    </g>
    <!-- Scaled line -->
    <g transform="translate(160, 1165)">
      <line x1="0" y1="40" x2="40" y2="0" stroke="#f44336" stroke-width="3" stroke-dasharray="5,3"/>
      <circle cx="20" cy="20" r="6" fill="#ff9800"/>
      <text x="5" y="60" font-size="8" fill="#333">A'(3,5)</text>
      <text x="25" y="60" font-size="8" fill="#333">B'(5,7)</text>
    </g>
    <!-- Calculation -->
    <g transform="translate(350, 1155)">
      <text x="0" y="0" font-size="9" fill="#333">For A(2,4):</text>
      <text x="0" y="15" font-size="9" fill="#333">1. T(-4,-6): (2-4,4-6)=(-2,-2)</text>
      <text x="0" y="30" font-size="9" fill="#333">2. S(0.5): (-2×0.5,-2×0.5)=(-1,-1)</text>
      <text x="0" y="45" font-size="9" fill="#333">3. T(4,6): (-1+4,-1+6)=(3,5)</text>
      <text x="0" y="60" font-size="9" fill="#2e7d32" font-weight="bold">F stays at (4,6)!</text>
    </g>
    <g transform="translate(530, 1155)">
      <text x="0" y="0" font-size="9" fill="#333">For B(6,8):</text>
      <text x="0" y="15" font-size="9" fill="#333">1. T(-4,-6): (6-4,8-6)=(2,2)</text>
      <text x="0" y="30" font-size="9" fill="#333">2. S(0.5): (2×0.5,2×0.5)=(1,1)</text>
      <text x="0" y="45" font-size="9" fill="#333">3. T(4,6): (1+4,1+6)=(5,7)</text>
    </g>
  </g>

  <!-- Step 12: Composite Transformations -->
  <g class="step" id="step12" data-narration="Multiple transformations combine into one matrix via multiplication. Remember: right-to-left application! M = T × S means S first, then T.">
    <rect x="50" y="1215" width="700" height="95" rx="10" fill="url(#blueGrad)" filter="url(#shadow)"/>
    <text x="70" y="1240" font-size="13" font-weight="bold" fill="#1565c0">Composite Transformations</text>
    <text x="70" y="1263" font-size="10" fill="#333">Combine transformations by matrix multiplication: M = T × S</text>
    <text x="70" y="1280" font-size="10" fill="#333">CRITICAL: Matrix multiplication is NOT commutative! Order matters!</text>
    <text x="70" y="1297" font-size="10" fill="#c62828">Transformations apply RIGHT-TO-LEFT: M = T × S applies S first, then T</text>
    <!-- Visual comparison -->
    <g transform="translate(450, 1245)">
      <rect x="0" y="0" width="100" height="40" rx="4" fill="#e3f2fd" stroke="#1976d2"/>
      <text x="50" y="18" text-anchor="middle" font-size="10" fill="#333">M = T × S</text>
      <text x="50" y="32" text-anchor="middle" font-size="8" fill="#666">S first, then T</text>
    </g>
    <g transform="translate(580, 1245)">
      <rect x="0" y="0" width="100" height="40" rx="4" fill="#ffebee" stroke="#f44336"/>
      <text x="50" y="18" text-anchor="middle" font-size="10" fill="#333">S × T ≠ T × S</text>
      <text x="50" y="32" text-anchor="middle" font-size="8" fill="#666">Different result!</text>
    </g>
  </g>

  <!-- Step 13: Key Formulas Summary -->
  <g class="step" id="step13" data-narration="Summary of key formulas: Translation matrix, Scaling matrix, Fixed point scaling formula, and transformation equations.">
    <rect x="50" y="1320" width="700" height="85" rx="10" fill="url(#greenGrad)" filter="url(#shadow)"/>
    <text x="70" y="1345" font-size="13" font-weight="bold" fill="#2e7d32">Key Formulas Summary</text>
    <!-- Formula cards -->
    <g transform="translate(80, 1360)">
      <rect x="0" y="0" width="160" height="35" rx="4" fill="#fff" stroke="#388e3c"/>
      <text x="80" y="15" text-anchor="middle" font-size="9" fill="#333">Translation: x'=x+tx, y'=y+ty</text>
      <text x="80" y="28" text-anchor="middle" font-size="8" fill="#666">T(tx,ty)</text>
    </g>
    <g transform="translate(250, 1360)">
      <rect x="0" y="0" width="160" height="35" rx="4" fill="#fff" stroke="#388e3c"/>
      <text x="80" y="15" text-anchor="middle" font-size="9" fill="#333">Scaling: x'=x×sx, y'=y×sy</text>
      <text x="80" y="28" text-anchor="middle" font-size="8" fill="#666">S(sx,sy)</text>
    </g>
    <g transform="translate(420, 1360)">
      <rect x="0" y="0" width="160" height="35" rx="4" fill="#fff" stroke="#388e3c"/>
      <text x="80" y="15" text-anchor="middle" font-size="9" fill="#333">Fixed Point Scale</text>
      <text x="80" y="28" text-anchor="middle" font-size="8" fill="#666">T×S×T</text>
    </g>
    <g transform="translate(590, 1360)">
      <rect x="0" y="0" width="160" height="35" rx="4" fill="#fff" stroke="#388e3c"/>
      <text x="80" y="15" text-anchor="middle" font-size="9" fill="#333">Homogeneous: (x,y,1)</text>
      <text x="80" y="28" text-anchor="middle" font-size="8" fill="#666">3×3 matrices</text>
    </g>
  </g>

  <!-- Step 14: Exam Tips & Key Takeaways -->
  <g class="step" id="step14" data-narration="Remember: translation is commutative but scaling is not. Negative scale factors cause reflection. Practice matrix derivation step by step!">
    <rect x="50" y="1415" width="700" height="70" rx="10" fill="url(#orangeGrad)" filter="url(#shadow)"/>
    <text x="70" y="1440" font-size="13" font-weight="bold" fill="#e65100">Exam Tips & Key Takeaways</text>
    <text x="70" y="1460" font-size="9" fill="#333">• Remember: right-to-left transformation application | w=1 for homogeneous coords</text>
    <text x="70" y="1475" font-size="9" fill="#333">• Fixed point scaling: translate→scale→translate back | Negative sx/sy = reflection</text>
    <text x="70" y="1490" font-size="9" fill="#333">• Translation preserves shape; scaling changes size | Always verify with test points</text>
  </g>
</svg>