<svg xmlns="http://www.w3.org/2000/svg" viewBox="0 0 800 1500">
  <defs>
    <!-- Gradients -->
    <linearGradient id="titleGrad" x1="0%" y1="0%" x2="100%" y2="100%">
      <stop offset="0%" style="stop-color:#1a237e"/>
      <stop offset="100%" style="stop-color:#283593"/>
    </linearGradient>
    <linearGradient id="blueGrad" x1="0%" y1="0%" x2="100%" y2="100%">
      <stop offset="0%" style="stop-color:#1976d2"/>
      <stop offset="100%" style="stop-color:#1565c0"/>
    </linearGradient>
    <linearGradient id="greenGrad" x1="0%" y1="0%" x2="100%" y2="100%">
      <stop offset="0%" style="stop-color:#388e3c"/>
      <stop offset="100%" style="stop-color:#2e7d32"/>
    </linearGradient>
    <linearGradient id="orangeGrad" x1="0%" y1="0%" x2="100%" y2="100%">
      <stop offset="0%" style="stop-color:#ff9800"/>
      <stop offset="100%" style="stop-color:#f57c00"/>
    </linearGradient>
    <linearGradient id="purpleGrad" x1="0%" y1="0%" x2="100%" y2="100%">
      <stop offset="0%" style="stop-color:#7b1fa2"/>
      <stop offset="100%" style="stop-color:#6a1b9a"/>
    </linearGradient>
    <linearGradient id="redGrad" x1="0%" y1="0%" x2="100%" y2="100%">
      <stop offset="0%" style="stop-color:#d32f2f"/>
      <stop offset="100%" style="stop-color:#c62828"/>
    </linearGradient>
    <linearGradient id="tealGrad" x1="0%" y1="0%" x2="100%" y2="100%">
      <stop offset="0%" style="stop-color:#00796b"/>
      <stop offset="100%" style="stop-color:#00695c"/>
    </linearGradient>
    <!-- Arrow marker -->
    <marker id="arrowhead" markerWidth="10" markerHeight="7" refX="9" refY="3.5" orient="auto">
      <polygon points="0 0, 10 3.5, 0 7" fill="#546e7a"/>
    </marker>
    <!-- Shadow filter -->
    <filter id="shadow" x="-20%" y="-20%" width="140%" height="140%">
      <feDropShadow dx="2" dy="3" stdDeviation="3" flood-opacity="0.2"/>
    </filter>
  </defs>
  
  <style>
    @keyframes fadeInSlide {
      from { opacity: 0; transform: translateY(20px); }
      to { opacity: 1; transform: translateY(0); }
    }
    @keyframes scaleIn {
      from { opacity: 0; transform: scale(0.85); }
      to { opacity: 1; transform: scale(1); }
    }
    @keyframes textReveal {
      from { opacity: 0; transform: translateX(-10px); }
      to { opacity: 1; transform: translateX(0); }
    }
    @keyframes pulse {
      0%, 100% { transform: scale(1); }
      50% { transform: scale(1.03); }
    }
    @keyframes drawLine {
      from { stroke-dashoffset: 300; }
      to { stroke-dashoffset: 0; }
    }
    .step { animation: fadeInSlide 0.6s ease-out; }
    .step rect {
      animation: scaleIn 0.5s cubic-bezier(0.34, 1.56, 0.64, 1);
      transform-origin: center;
    }
    .step text { animation: textReveal 0.4s ease-out 0.2s backwards; }
    .code-text { font-family: 'Courier New', monospace; font-size: 10px; }
    .title-text { font-family: Arial, sans-serif; font-weight: bold; }
  </style>

  <!-- Background -->
  <rect width="800" height="1500" fill="#f8f9fa"/>
  
  <!-- STEP 0: Title -->
  <g class="step" id="step0" data-narration="Welcome to C Programming Fundamentals. Learn the building blocks of one of the world's most influential programming languages.">
    <rect x="0" y="0" width="800" height="55" fill="url(#titleGrad)" rx="0"/>
    <text x="400" y="35" text-anchor="middle" fill="white" font-size="24" font-weight="bold" font-family="Arial">Fundamentals of C Programming</text>
    <text x="400" y="48" text-anchor="middle" fill="#b3e5fc" font-size="12" font-family="Arial">Establishing The Ground Work</text>
  </g>

  <!-- STEP 1: Introduction to C -->
  <g class="step" id="step1" data-narration="C was developed by Dennis Ritchie at Bell Labs in 1972. It forms the foundation for languages like C++, Java, Python, and C#.">
    <rect x="20" y="65" width="760" height="85" fill="white" rx="10" filter="url(#shadow)"/>
    <rect x="20" y="65" width="8" height="85" fill="url(#blueGrad)" rx="10"/>
    <text x="40" y="85" fill="#1565c0" font-size="13" font-weight="bold" font-family="Arial">Introduction to C Language</text>
    <text x="40" y="105" fill="#455a64" font-size="11" font-family="Arial">Developed by Dennis Ritchie at Bell Laboratories in 1972</text>
    <text x="40" y="122" fill="#607d8b" font-size="10" font-family="Arial">Foundation for C++, Java, Python, and C#. Essential for system software,</text>
    <text x="40" y="137" fill="#607d8b" font-size="10" font-family="Arial">embedded systems, and application development.</text>
    <!-- Animated circle -->
    <circle cx="720" cy="108" r="25" fill="#e3f2fd" stroke="#1976d2" stroke-width="2">
      <animate attributeName="r" values="25;28;25" dur="2s" repeatCount="indefinite"/>
    </circle>
    <text x="720" y="112" text-anchor="middle" fill="#1565c0" font-size="24" font-weight="bold">C</text>
  </g>

  <!-- STEP 2: Why Learn C -->
  <g class="step" id="step2" data-narration="Learning C develops computational thinking, problem-solving skills, and algorithmic approaches that transfer to any programming paradigm.">
    <rect x="20" y="160" width="760" height="85" fill="white" rx="10" filter="url(#shadow)"/>
    <rect x="20" y="160" width="8" height="85" fill="url(#greenGrad)" rx="10"/>
    <text x="40" y="180" fill="#2e7d32" font-size="13" font-weight="bold" font-family="Arial">Why Learn C Fundamentals?</text>
    <!-- Icons row -->
    <g transform="translate(40, 195)">
      <rect x="0" y="0" width="110" height="40" fill="#e8f5e9" rx="5"/>
      <text x="55" y="18" text-anchor="middle" fill="#388e3c" font-size="9">Computational</text>
      <text x="55" y="30" text-anchor="middle" fill="#388e3c" font-size="9">Thinking</text>
      
      <rect x="120" y="0" width="110" height="40" fill="#e8f5e9" rx="5"/>
      <text x="175" y="18" text-anchor="middle" fill="#388e3c" font-size="9">Problem</text>
      <text x="175" y="30" text-anchor="middle" fill="#388e3c" font-size="9">Solving</text>
      
      <rect x="240" y="0" width="110" height="40" fill="#e8f5e9" rx="5"/>
      <text x="295" y="18" text-anchor="middle" fill="#388e3c" font-size="9">Algorithm</text>
      <text x="295" y="30" text-anchor="middle" fill="#388e3c" font-size="9">Design</text>
    </g>
    <text x="400" y="232" fill="#607d8b" font-size="10" font-family="Arial" text-anchor="middle">Essential for GATE exams and core IT company placements</text>
  </g>

  <!-- STEP 3: Structure of C Program -->
  <g class="step" id="step3" data-narration="Every C program has a specific structure: preprocessor directives, main function as entry point, declarations, and executable statements.">
    <rect x="20" y="255" width="760" height="95" fill="white" rx="10" filter="url(#shadow)"/>
    <rect x="20" y="255" width="8" height="95" fill="url(#purpleGrad)" rx="10"/>
    <text x="40" y="275" fill="#6a1b9a" font-size="13" font-weight="bold" font-family="Arial">Structure of a C Program</text>
    
    <!-- Code blocks representation -->
    <g transform="translate(40, 290)">
      <rect x="0" y="0" width="180" height="50" fill="#f3e5f5" rx="5"/>
      <text x="90" y="18" text-anchor="middle" fill="#7b1fa2" font-size="9" font-family="monospace">// Preprocessor Directives</text>
      <text x="90" y="32" text-anchor="middle" fill="#7b1fa2" font-size="9" font-family="monospace">#include &lt;stdio.h&gt;</text>
      
      <rect x="190" y="0" width="180" height="50" fill="#e8eaf6" rx="5"/>
      <text x="280" y="18" text-anchor="middle" fill="#3949ab" font-size="9" font-family="monospace">// Main Function</text>
      <text x="280" y="32" text-anchor="middle" fill="#3949ab" font-size="9" font-family="monospace">int main() { ... }</text>
      
      <rect x="380" y="0" width="180" height="50" fill="#e0f2f1" rx="5"/>
      <text x="470" y="18" text-anchor="middle" fill="#00695c" font-size="9" font-family="monospace">// Declarations</text>
      <text x="470" y="32" text-anchor="middle" fill="#00695c" font-size="9" font-family="monospace">int a, b, sum;</text>
      
      <rect x="570" y="0" width="180" height="50" fill="#fff3e0" rx="5"/>
      <text x="660" y="18" text-anchor="middle" fill="#e65100" font-size="9" font-family="monospace">// Executable Statements</text>
      <text x="660" y="32" text-anchor="middle" fill="#e65100" font-size="9" font-family="monospace">printf("Sum = %d", sum);</text>
    </g>
  </g>

  <!-- STEP 4: Data Types -->
  <g class="step" id="step4" data-narration="C provides primary data types: int for integers, float for single precision, double for double precision, and char for characters.">
    <rect x="20" y="360" width="760" height="90" fill="white" rx="10" filter="url(#shadow)"/>
    <rect x="20" y="360" width="8" height="90" fill="url(#orangeGrad)" rx="10"/>
    <text x="40" y="380" fill="#e65100" font-size="13" font-weight="bold" font-family="Arial">Data Types in C</text>
    
    <!-- Data type boxes -->
    <g transform="translate(40, 395)">
      <rect x="0" y="0" width="170" height="45" fill="#fff3e0" rx="8"/>
      <text x="85" y="18" text-anchor="middle" fill="#e65100" font-size="14" font-weight="bold">int</text>
      <text x="85" y="35" text-anchor="middle" fill="#bf360c" font-size="9">4 bytes | -2B to +2B</text>
      
      <rect x="180" y="0" width="170" height="45" fill="#e3f2fd" rx="8"/>
      <text x="265" y="18" text-anchor="middle" fill="#1565c0" font-size="14" font-weight="bold">float</text>
      <text x="265" y="35" text-anchor="middle" fill="#0d47a1" font-size="9">4 bytes | ~6-7 digits</text>
      
      <rect x="360" y="0" width="170" height="45" fill="#e8f5e9" rx="8"/>
      <text x="445" y="18" text-anchor="middle" fill="#2e7d32" font-size="14" font-weight="bold">double</text>
      <text x="445" y="35" text-anchor="middle" fill="#1b5e20" font-size="9">8 bytes | ~15-16 digits</text>
      
      <rect x="540" y="0" width="170" height="45" fill="#fce4ec" rx="8"/>
      <text x="625" y="18" text-anchor="middle" fill="#c2185b" font-size="14" font-weight="bold">char</text>
      <text x="625" y="35" text-anchor="middle" fill="#880e4f" font-size="9">1 byte | ASCII 0-127</text>
    </g>
  </g>

  <!-- STEP 5: Variables -->
  <g class="step" id="step5" data-narration="Variables are named memory locations storing values that change during execution. They must follow naming rules: begin with letter/underscore, case-sensitive, no keywords.">
    <rect x="20" y="460" width="760" height="90" fill="white" rx="10" filter="url(#shadow)"/>
    <rect x="20" y="460" width="8" height="90" fill="url(#tealGrad)" rx="10"/>
    <text x="40" y="480" fill="#00695c" font-size="13" font-weight="bold" font-family="Arial">Variables</text>
    
    <!-- Variable declaration example -->
    <g transform="translate(40, 500)">
      <rect x="0" y="0" width="200" height="40" fill="#e0f2f1" rx="5"/>
      <text x="100" y="25" text-anchor="middle" fill="#004d40" font-size="11" font-family="monospace">int age = 25;</text>
      
      <!-- Arrow to explanation -->
      <line x1="210" y1="20" x2="250" y2="20" stroke="#546e7a" stroke-width="2" marker-end="url(#arrowhead)"/>
      
      <!-- Memory visualization -->
      <rect x="260" y="0" width="120" height="40" fill="#b2dfdb" rx="5"/>
      <text x="320" y="15" text-anchor="middle" fill="#004d40" font-size="9">Memory Address</text>
      <text x="320" y="28" text-anchor="middle" fill="#004d40" font-size="10" font-family="monospace">0x1000: age</text>
    </g>
    
    <!-- Rules -->
    <text x="450" y="505" fill="#455a64" font-size="9">Rules:</text>
    <text x="450" y="520" fill="#607d8b" font-size="8">• Begin with letter or _</text>
    <text x="450" y="532" fill="#607d8b" font-size="8">• Case-sensitive</text>
    <text x="450" y="544" fill="#607d8b" font-size="8">• No C keywords</text>
    <text x="580" y="505" fill="#455a64" font-size="9">Naming:</text>
    <text x="580" y="520" fill="#607d8b" font-size="8">• Use meaningful names</text>
    <text x="580" y="532" fill="#607d8b" font-size="8">• snake_case or camelCase</text>
    <text x="580" y="544" fill="#607d8b" font-size="8">• max_value, studentAge</text>
  </g>

  <!-- STEP 6: Constants -->
  <g class="step" id="step6" data-narration="Constants are fixed values that never change. Use #define for macros or const keyword for read-only variables.">
    <rect x="20" y="560" width="760" height="85" fill="white" rx="10" filter="url(#shadow)"/>
    <rect x="20" y="560" width="8" height="85" fill="url(#redGrad)" rx="10"/>
    <text x="40" y="580" fill="#c62828" font-size="13" font-weight="bold" font-family="Arial">Constants</text>
    
    <!-- Constant examples -->
    <g transform="translate(40, 600)">
      <rect x="0" y="0" width="300" height="35" fill="#ffebee" rx="5"/>
      <text x="150" y="22" text-anchor="middle" fill="#b71c1c" font-size="10" font-family="monospace">#define PI 3.14159</text>
      <text x="720" y="18" text-anchor="middle" fill="#78909c" font-size="8">Preprocessor directive (macro)</text>
      
      <rect x="0" y="40" width="300" height="35" fill="#ffebee" rx="5"/>
      <text x="150" y="62" text-anchor="middle" fill="#b71c1c" font-size="10" font-family="monospace">const int MAX = 100;</text>
    </g>
  </g>

  <!-- STEP 7: Operators - Arithmetic -->
  <g class="step" id="step7" data-narration="Arithmetic operators perform mathematical calculations: addition (+), subtraction (-), multiplication (*), division (/), and modulus (%).">
    <rect x="20" y="655" width="760" height="90" fill="white" rx="10" filter="url(#shadow)"/>
    <rect x="20" y="655" width="8" height="90" fill="url(#blueGrad)" rx="10"/>
    <text x="40" y="675" fill="#1565c0" font-size="13" font-weight="bold" font-family="Arial">Operators: Arithmetic</text>
    
    <!-- Operator table -->
    <g transform="translate(40, 695)">
      <rect x="0" y="0" width="700" height="40" fill="#e3f2fd" rx="5"/>
      <text x="60" y="18" fill="#0d47a1" font-size="11" font-family="monospace">+</text>
      <text x="60" y="32" fill="#1565c0" font-size="9">Addition</text>
      <text x="140" y="18" fill="#0d47a1" font-size="11" font-family="monospace">-</text>
      <text x="140" y="32" fill="#1565c0" font-size="9">Subtraction</text>
      <text x="220" y="18" fill="#0d47a1" font-size="11" font-family="monospace">*</text>
      <text x="220" y="32" fill="#1565c0" font-size="9">Multiplication</text>
      <text x="300" y="18" fill="#0d47a1" font-size="11" font-family="monospace">/</text>
      <text x="300" y="32" fill="#1565c0" font-size="9">Division</text>
      <text x="380" y="18" fill="#0d47a1" font-size="11" font-family="monospace">%</text>
      <text x="380" y="32" fill="#1565c0" font-size="9">Modulus</text>
      
      <!-- Example -->
      <text x="480" y="18" fill="#455a64" font-size="10">Example: 17 / 5 = 3 (int)</text>
      <text x="480" y="32" fill="#455a64" font-size="10">17.0 / 5 = 3.4 (float)</text>
    </g>
  </g>

  <!-- STEP 8: Operators - Relational & Logical -->
  <g class="step" id="step8" data-narration="Relational operators compare values (==, !=, &gt;, &lt;, &gt;=, &lt;=). Logical operators combine conditions (&amp;&amp;, ||, !).">
    <rect x="20" y="755" width="760" height="85" fill="white" rx="10" filter="url(#shadow)"/>
    <rect x="20" y="755" width="8" height="85" fill="url(#greenGrad)" rx="10"/>
    <text x="40" y="775" fill="#2e7d32" font-size="13" font-weight="bold" font-family="Arial">Operators: Relational &amp; Logical</text>
    
    <g transform="translate(40, 795)">
      <!-- Relational -->
      <rect x="0" y="0" width="340" height="35" fill="#e8f5e9" rx="5"/>
      <text x="30" y="22" fill="#1b5e20" font-size="10" font-family="monospace">==  !=  &gt;  &lt;  &gt;=  &lt;=</text>
      <text x="200" y="22" fill="#2e7d32" font-size="9">Relational Operators</text>
      
      <!-- Logical -->
      <rect x="350" y="0" width="340" height="35" fill="#e8f5e9" rx="5"/>
      <text x="380" y="22" fill="#1b5e20" font-size="10" font-family="monospace">&amp;&amp;  ||  !</text>
      <text x="520" y="22" fill="#2e7d32" font-size="9">Logical AND, OR, NOT</text>
    </g>
    
    <!-- Example -->
    <g transform="translate(40, 820)">
      <rect x="0" y="0" width="700" height="15" fill="#fff9c4" rx="3"/>
      <text x="350" y="11" text-anchor="middle" fill="#f57f17" font-size="9">Example: (a &gt; 5) &amp;&amp; (b &lt; 10) - both conditions must be true</text>
    </g>
  </g>

  <!-- STEP 9: Increment/Decrement -->
  <g class="step" id="step9" data-narration="Increment (++) adds 1, decrement (--) subtracts 1. Prefix increments before use; postfix increments after returning original value.">
    <rect x="20" y="850" width="760" height="90" fill="white" rx="10" filter="url(#shadow)"/>
    <rect x="20" y="850" width="8" height="90" fill="url(#purpleGrad)" rx="10"/>
    <text x="40" y="870" fill="#6a1b9a" font-size="13" font-weight="bold" font-family="Arial">Increment &amp; Decrement Operators</text>
    
    <g transform="translate(40, 890)">
      <!-- Prefix -->
      <rect x="0" y="0" width="230" height="40" fill="#f3e5f5" rx="5"/>
      <text x="115" y="18" text-anchor="middle" fill="#4a148c" font-size="10" font-family="monospace">y = ++x;  // Pre-increment</text>
      <text x="115" y="32" text-anchor="middle" fill="#7b1fa2" font-size="9">First increment x, then assign</text>
      
      <!-- Postfix -->
      <rect x="240" y="0" width="230" height="40" fill="#f3e5f5" rx="5"/>
      <text x="355" y="18" text-anchor="middle" fill="#4a148c" font-size="10" font-family="monospace">y = x++;  // Post-increment</text>
      <text x="355" y="32" text-anchor="middle" fill="#7b1fa2" font-size="9">First assign, then increment</text>
    </g>
    
    <!-- Visual example -->
    <g transform="translate(40, 920)">
      <rect x="0" y="0" width="700" height="15" fill="#e1bee7" rx="3"/>
      <text x="30" y="11" fill="#4a148c" font-size="9" font-family="monospace">int x=5, y;</text>
      <text x="180" y="11" fill="#4a148c" font-size="9">y=++x → x=6, y=6</text>
      <text x="400" y="11" fill="#4a148c" font-size="9">y=x++ → x=6, y=5</text>
    </g>
  </g>

  <!-- STEP 10: Assignment Operators -->
  <g class="step" id="step10" data-narration="Assignment operators combine arithmetic with assignment: +=, -=, *=, /=, %= provide shorthand for operations like x = x + 5 becoming x += 5.">
    <rect x="20" y="950" width="760" height="70" fill="white" rx="10" filter="url(#shadow)"/>
    <rect x="20" y="950" width="8" height="70" fill="url(#orangeGrad)" rx="10"/>
    <text x="40" y="970" fill="#e65100" font-size="13" font-weight="bold" font-family="Arial">Assignment Operators</text>
    
    <g transform="translate(40, 990)">
      <rect x="0" y="0" width="700" height="25" fill="#fff3e0" rx="5"/>
      <text x="80" y="17" fill="#e65100" font-size="10" font-family="monospace">+=  -=  *=  /=  %=</text>
      <text x="250" y="17" fill="#bf360c" font-size="10">Compound Assignment</text>
      
      <text x="450" y="17" fill="#455a64" font-size="9">x += 5</text>
      <text x="560" y="17" fill="#455a64" font-size="9" font-family="monospace">means</text>
      <text x="630" y="17" fill="#455a64" font-size="9">x = x + 5</text>
    </g>
  </g>

  <!-- STEP 11: printf and Format Specifiers -->
  <g class="step" id="step11" data-narration="printf() outputs data using format specifiers: %d for int, %f for float, %c for char, %s for string. Use %.2f for 2 decimal places.">
    <rect x="20" y="1030" width="760" height="90" fill="white" rx="10" filter="url(#shadow)"/>
    <rect x="20" y="1030" width="8" height="90" fill="url(#tealGrad)" rx="10"/>
    <text x="40" y="1050" fill="#00695c" font-size="13" font-weight="bold" font-family="Arial">printf() &amp; Format Specifiers</text>
    
    <g transform="translate(40, 1070)">
      <rect x="0" y="0" width="150" height="40" fill="#b2dfdb" rx="5"/>
      <text x="75" y="18" text-anchor="middle" fill="#004d40" font-size="10" font-family="monospace">%d</text>
      <text x="75" y="32" text-anchor="middle" fill="#00796b" font-size="9">int</text>
      
      <rect x="160" y="0" width="150" height="40" fill="#b2dfdb" rx="5"/>
      <text x="235" y="18" text-anchor="middle" fill="#004d40" font-size="10" font-family="monospace">%f</text>
      <text x="235" y="32" text-anchor="middle" fill="#00796b" font-size="9">float/double</text>
      
      <rect x="320" y="0" width="150" height="40" fill="#b2dfdb" rx="5"/>
      <text x="395" y="18" text-anchor="middle" fill="#004d40" font-size="10" font-family="monospace">%c</text>
      <text x="395" y="32" text-anchor="middle" fill="#00796b" font-size="9">char</text>
      
      <rect x="480" y="0" width="150" height="40" fill="#b2dfdb" rx="5"/>
      <text x="555" y="18" text-anchor="middle" fill="#004d40" font-size="10" font-family="monospace">%s</text>
      <text x="555" y="32" text-anchor="middle" fill="#00796b" font-size="9">string</text>
    </g>
    
    <!-- Example -->
    <g transform="translate(40, 1105)">
      <rect x="0" y="0" width="700" height="12" fill="#e0f2f1" rx="3"/>
      <text x="350" y="10" text-anchor="middle" fill="#004d40" font-size="9" font-family="monospace">printf("Area = %.2f", area);</text>
    </g>
  </g>

  <!-- STEP 12: scanf() -->
  <g class="step" id="step12" data-narration="scanf() reads input using format specifiers. IMPORTANT: Always use &amp;amp; (address-of operator) for variables, except for character arrays.">
    <rect x="20" y="1130" width="760" height="70" fill="white" rx="10" filter="url(#shadow)"/>
    <rect x="20" y="1130" width="8" height="70" fill="url(#redGrad)" rx="10"/>
    <text x="40" y="1150" fill="#c62828" font-size="13" font-weight="bold" font-family="Arial">scanf() - Input Function</text>
    
    <g transform="translate(40, 1170)">
      <rect x="0" y="0" width="350" height="25" fill="#ffebee" rx="5"/>
      <text x="175" y="17" text-anchor="middle" fill="#b71c1c" font-size="10" font-family="monospace">scanf("%d %f", &amp;a, &amp;b);</text>
      
      <rect x="360" y="0" width="350" height="25" fill="#ffcdd2" rx="5"/>
      <text x="535" y="17" text-anchor="middle" fill="#c62828" font-size="9">⚠ Always use &amp; for variables!</text>
    </g>
  </g>

  <!-- STEP 13: Type Conversion -->
  <g class="step" id="step13" data-narration="Type conversion happens implicitly or explicitly. Integer division truncates decimals. Use 3.0 or explicit cast (float) for floating-point results.">
    <rect x="20" y="1210" width="760" height="85" fill="white" rx="10" filter="url(#shadow)"/>
    <rect x="20" y="1210" width="8" height="85" fill="url(#blueGrad)" rx="10"/>
    <text x="40" y="1230" fill="#1565c0" font-size="13" font-weight="bold" font-family="Arial">Type Conversion</text>
    
    <g transform="translate(40, 1250)">
      <!-- Implicit -->
      <rect x="0" y="0" width="340" height="35" fill="#e3f2fd" rx="5"/>
      <text x="30" y="15" fill="#0d47a1" font-size="9">Implicit (Automatic)</text>
      <text x="30" y="28" fill="#1565c0" font-size="9" font-family="monospace">average = (a + b) / 3.0;  // 3.0 makes it float division</text>
      
      <!-- Explicit -->
      <rect x="350" y="0" width="340" height="35" fill="#e3f2fd" rx="5"/>
      <text x="380" y="15" fill="#0d47a1" font-size="9">Explicit (Type Casting)</text>
      <text x="380" y="28" fill="#1565c0" font-size="9" font-family="monospace">average = (float)(a + b) / 3;</text>
    </g>
  </g>

  <!-- STEP 14: Operator Precedence -->
  <g class="step" id="step14" data-narration="Operator precedence hierarchy: Parentheses first, then unary, multiplicative, additive, relational, logical, assignment. Use parentheses to clarify!">
    <rect x="20" y="1305" width="760" height="85" fill="white" rx="10" filter="url(#shadow)"/>
    <rect x="20" y="1305" width="8" height="85" fill="url(#greenGrad)" rx="10"/>
    <text x="40" y="1325" fill="#2e7d32" font-size="13" font-weight="bold" font-family="Arial">Operator Precedence</text>
    
    <!-- Precedence hierarchy -->
    <g transform="translate(40, 1345)">
      <rect x="0" y="0" width="700" height="35" fill="#e8f5e9" rx="5"/>
      <text x="40" y="15" fill="#1b5e20" font-size="8">Highest</text>
      <text x="100" y="15" fill="#2e7d32" font-size="9" font-family="monospace">()</text>
      <text x="150" y="15" fill="#455a64" font-size="9">→</text>
      <text x="190" y="15" fill="#2e7d32" font-size="9" font-family="monospace">++ -- !</text>
      <text x="280" y="15" fill="#455a64" font-size="9">→</text>
      <text x="320" y="15" fill="#2e7d32" font-size="9" font-family="monospace">* / %</text>
      <text x="400" y="15" fill="#455a64" font-size="9">→</text>
      <text x="440" y="15" fill="#2e7d32" font-size="9" font-family="monospace">+ -</text>
      <text x="520" y="15" fill="#455a64" font-size="9">→</text>
      <text x="560" y="15" fill="#2e7d32" font-size="9" font-family="monospace">&lt; &gt; &lt;= &gt;=</text>
      <text x="660" y="15" fill="#455a64" font-size="9">→</text>
      
      <text x="40" y="28" fill="#455a64" font-size="8">Lowest</text>
      <text x="100" y="28" fill="#2e7d32" font-size="9" font-family="monospace">= += -=</text>
    </g>
  </g>

  <!-- STEP 15: Exam Tips Summary -->
  <g class="step" id="step15" data-narration="Remember these key exam tips: use correct format specifiers, use &amp;amp; in scanf, operator precedence matters, integer vs float division, and sizeof() returns bytes.">
    <rect x="20" y="1400" width="760" height="85" fill="white" rx="10" filter="url(#shadow)"/>
    <rect x="20" y="1400" width="8" height="85" fill="url(#orangeGrad)" rx="10"/>
    <text x="40" y="1420" fill="#e65100" font-size="13" font-weight="bold" font-family="Arial">📝 Exam Tips &amp; Common Mistakes</text>
    
    <g transform="translate(40, 1440)">
      <!-- Tips row 1 -->
      <rect x="0" y="0" width="220" height="20" fill="#fff3e0" rx="4"/>
      <text x="15" y="14" fill="#e65100" font-size="8">⚠ Wrong format spec = undefined behavior</text>
      
      <rect x="230" y="0" width="220" height="20" fill="#fff3e0" rx="4"/>
      <text x="245" y="14" fill="#e65100" font-size="8">⚠ Forgot &amp; in scanf = crash/wrong value</text>
      
      <rect x="460" y="0" width="220" height="20" fill="#fff3e0" rx="4"/>
      <text x="475" y="14" fill="#e65100" font-size="8">⚠ Confusing = with == in conditions</text>
      
      <!-- Tips row 2 -->
      <rect x="0" y="25" width="220" height="20" fill="#e8f5e9" rx="4"/>
      <text x="15" y="39" fill="#2e7d32" font-size="8">✓ Use () to clarify precedence</text>
      
      <rect x="230" y="25" width="220" height="20" fill="#e8f5e9" rx="4"/>
      <text x="245" y="39" fill="#2e7d32" font-size="8">✓ Use 3.0 for float division</text>
      
      <rect x="460" y="25" width="220" height="20" fill="#e8f5e9" rx="4"/>
      <text x="475" y="39" fill="#2e7d32" font-size="8">✓ sizeof(int) = 4 bytes</text>
    </g>
  </g>
</svg>