<svg width="420" height="400" data-topic-id="second-order-linear-homogeneous-recurrence-rel">
  <rect x="0" y="0" width="420" height="400" fill="#C7B8EA"/>
  <title>Second Order Linear Homogeneous Recurrence Relation with Constant Coefficients</title>
  <text x="50%" y="40" font-size="24" text-anchor="middle">Introduction</text>
  <rect x="0" y="60" width="420" height="20" fill="#E0E0E0" rx="5"}/>
  <text x="50%" y="80" font-size="18" text-anchor="middle">Definition</text>
  <rect x="0" y="100" width="420" height="20" fill="#E0E0E0" rx="5"}/>
  <text x="50%" y="120" font-size="18" text-anchor="middle">Types of Recurrence Relations</text>
  <rect x="0" y="140" width="420" height="20" fill="#E0E0E0" rx="5"}/>
  <text x="50%" y="160" font-size="18" text-anchor="middle">Constant Coefficients</text>
  <rect x="0" y="180" width="420" height="20" fill="#E0E0E0" rx="5"}/>
  <text x="50%" y="200" font-size="18" text-anchor="middle">Homogeneous Recurrence Relations</text>
  <rect x="0" y="220" width="420" height="20" fill="#E0E0E0" rx="5"}/>
  <text x="50%" y="240" font-size="18" text-anchor="middle">Examples</text>
  <rect x="0" y="260" width="420" height="20" fill="#E0E0E0" rx="5"}/>
  <text x="50%" y="280" font-size="18" text-anchor="middle">Solving Second Order Linear Homogeneous Recurrence Relations with Constant Coefficients</text>
  <rect x="0" y="300" width="420" height="20" fill="#E0E0E0" rx="5"}/>
  <text x="50%" y="320" font-size="18" text-anchor="middle">Conclusion</text>

  <!-- Gradient background -->
  <linearGradient id="gradient" x1="0%" y1="0%" x2="100%" y2="0%">
    <stop offset="0%" stop-color="#C7B8EA"/>
    <stop offset="50%" stop-color="#A9C5E4"/>
    <stop offset="100%" stop-color="#C7B8EA"/>
  </linearGradient>

  <rect x="0" y="0" width="420" height="400" fill="url(#gradient)"/>

  <!-- Section 1: Introduction -->
  <g transform="translate(50, 60)">
    <rect width="200" height="20" fill="#E0E0E0" rx="5"/>
    <text x="0" y="5" font-size="18" text-anchor="middle">What is a Recurrence Relation?</text>
    <animateTransform attributeName="transform" type="translate" from="0,0" to="100,0" begin="0s"dur="2s" repeatCount="1"/>
  </g>

  <!-- Section 2: Definition -->
  <g transform="translate(50, 100)">
    <rect width="200" height="20" fill="#E0E0E0" rx="5"/>
    <text x="0" y="5" font-size="18" text-anchor="middle">Definition</text>
    <animateTransform attributeName="transform" type="translate" from="0,0" to="0,100" begin="2s"dur="2s" repeatCount="1"/>
  </g>

  <!-- Section 3: Types of Recurrence Relations -->
  <g transform="translate(50, 140)">
    <rect width="200" height="20" fill="#E0E0E0" rx="5"/>
    <text x="0" y="5" font-size="18" text-anchor="middle">Types of Recurrence Relations</text>
    <animateTransform attributeName="transform" type="translate" from="0,0" to="-100,0" begin="4s"dur="2s" repeatCount="1"/>
  </g>

  <!-- Section 4: Constant Coefficients -->
  <g transform="translate(50, 180)">
    <rect width="200" height="20" fill="#E0E0E0" rx="5"/>
    <text x="0" y="5" font-size="18" text-anchor="middle">Constant Coefficients</text>
    <animateTransform attributeName="transform" type="translate" from="0,0" to="0,180" begin="6s"dur="2s" repeatCount="1"/>
  </g>

  <!-- Section 5: Homogeneous Recurrence Relations -->
  <g transform="translate(50, 220)">
    <rect width="200" height="20" fill="#E0E0E0" rx="5"/>
    <text x="0" y="5" font-size="18" text-anchor="middle">Homogeneous Recurrence Relations</text>
    <animateTransform attributeName="transform" type="translate" from="0,0" to="-100,0" begin="8s"dur="2s" repeatCount="1"/>
  </g>

  <!-- Section 6: Examples -->
  <g transform="translate(50, 260)">
    <rect width="200" height="20" fill="#E0E0E0" rx="5"/>
    <text x="0" y="5" font-size="18" text-anchor="middle">Examples</text>
    <animateTransform attributeName="transform" type="translate" from="0,0" to="0,260" begin="10s"dur="2s" repeatCount="1"/>
  </g>

  <!-- Section 7: Solving Second Order Linear Homogeneous Recurrence Relations with Constant Coefficients -->
  <g transform="translate(50, 300)">
    <rect width="200" height="20" fill="#E0E0E0" rx="5"/>
    <text x="0" y="5" font-size="18" text-anchor="middle">Solving Second Order Linear Homogeneous Recurrence Relations with Constant Coefficients</text>
    <animateTransform attributeName="transform" type="translate" from="0,0" to="0,300" begin="12s"dur="2s" repeatCount="1"/>
  </g>

  <!-- Section 8: Conclusion -->
  <g transform="translate(50, 340)">
    <rect width="200" height="20" fill="#E0E0E0" rx="5"/>
    <text x="0" y="5" font-size="18" text-anchor="middle">Conclusion</text>
    <animateTransform attributeName="transform" type="translate" from="0,0" to="0,340" begin="14s"dur="2s" repeatCount="1"/>
  </g>

  <!-- Arrow markers for connections -->
  <line x1="50" y1="100" x2="150" y2="100" stroke="#E0E0E0" stroke-width="2"/>
  <line x1="50" y1="140" x2="150" y2="140" stroke="#E0E0E0" stroke-width="2"/>
  <line x1="50" y1="180" x2="150" y2="180" stroke="#E0E0E0" stroke-width="2"/>
  <line x1="50" y1="220" x2="150" y2="220" stroke="#E0E0E0" stroke-width="2"/>
  <line x1="50" y1="260" x2="150" y2="260" stroke="#E0E0E0" stroke-width="2"/>
  <line x1="50" y1="300" x2="150" y2="300" stroke="#E0E0E0" stroke-width="2"/>
  <line x1="150" y1="100" x2="250" y2="100" stroke="#E0E0E0" stroke-width="2"/>
  <line x1="150" y1="140" x2="250" y2="140" stroke="#E0E0E0" stroke-width="2"/>
  <line x1="150" y1="180" x2="250" y2="180" stroke="#E0E0E0" stroke-width="2"/>
  <line x1="150" y1="220" x2="250" y2="220" stroke="#E0E0E0" stroke-width="2"/>
  <line x1="150" y1="260" x2="250" y2="260" stroke="#E0E0E0" stroke-width="2"/>
  <line x1="150" y1="300" x2="250" y2="300" stroke="#E0E0E0" stroke-width="2"/>

  <text x="50%" y="20" font-size="36" text-anchor="middle">Second Order Linear Homogeneous Recurrence Relation with Constant Coefficients</text>
  <text x="50%" y="370" font-size="36" text-anchor="middle">End of Animation</text>

</svg>