<svg xmlns="http://www.w3.org/2000/svg" viewBox="0 0 800 1500">
  <defs>
    <linearGradient id="blueGrad" x1="0%" y1="0%" x2="100%" y2="100%">
      <stop offset="0%" style="stop-color:#e3f2fd"/>
      <stop offset="100%" style="stop-color:#bbdefb"/>
    </linearGradient>
    <linearGradient id="greenGrad" x1="0%" y1="0%" x2="100%" y2="100%">
      <stop offset="0%" style="stop-color:#e8f5e9"/>
      <stop offset="100%" style="stop-color:#c8e6c9"/>
    </linearGradient>
    <linearGradient id="orangeGrad" x1="0%" y1="0%" x2="100%" y2="100%">
      <stop offset="0%" style="stop-color:#fff3e0"/>
      <stop offset="100%" style="stop-color:#ffe0b2"/>
    </linearGradient>
    <linearGradient id="purpleGrad" x1="0%" y1="0%" x2="100%" y2="100%">
      <stop offset="0%" style="stop-color:#f3e5f5"/>
      <stop offset="100%" style="stop-color:#e1bee7"/>
    </linearGradient>
    <linearGradient id="redGrad" x1="0%" y1="0%" x2="100%" y2="100%">
      <stop offset="0%" style="stop-color:#ffebee"/>
      <stop offset="100%" style="stop-color:#ffcdd2"/>
    </linearGradient>
    <filter id="shadow" x="-10%" y="-10%" width="120%" height="120%">
      <feDropShadow dx="2" dy="2" stdDeviation="3" flood-opacity="0.2"/>
    </filter>
    <marker id="arrowBlue" markerWidth="10" markerHeight="10" refX="9" refY="3" orient="auto">
      <path d="M0,0 L0,6 L9,3 z" fill="#1976d2"/>
    </marker>
    <marker id="arrowGreen" markerWidth="10" markerHeight="10" refX="9" refY="3" orient="auto">
      <path d="M0,0 L0,6 L9,3 z" fill="#388e3c"/>
    </marker>
  </defs>
  
  <style>
    @keyframes fadeInSlide {
      from { opacity: 0; transform: translateY(20px); }
      to { opacity: 1; transform: translateY(0); }
    }
    @keyframes scaleIn {
      from { opacity: 0; transform: scale(0.85); }
      to { opacity: 1; transform: scale(1); }
    }
    @keyframes textReveal {
      from { opacity: 0; transform: translateX(-10px); }
      to { opacity: 1; transform: translateX(0); }
    }
    @keyframes drawLine {
      from { stroke-dashoffset: 200; }
      to { stroke-dashoffset: 0; }
    }
    .step { animation: fadeInSlide 0.6s ease-out; }
    .step rect {
      animation: scaleIn 0.5s cubic-bezier(0.34, 1.56, 0.64, 1);
      transform-origin: center;
    }
    .step text { animation: textReveal 0.4s ease-out 0.2s backwards; }
    .formula { font-family: 'Times New Roman', serif; font-style: italic; }
    .title-text { font-family: Arial, sans-serif; font-weight: bold; }
  </style>

  <!-- Background -->
  <rect width="800" height="1500" fill="#f8f9fa"/>

  <!-- Step 0: Title -->
  <g class="step" id="step0" data-narration="Welcome to Logic fundamentals. We'll explore Propositional and Predicate Logic step by step.">
    <rect x="0" y="0" width="800" height="50" fill="#1976d2"/>
    <text x="400" y="32" text-anchor="middle" fill="white" font-size="20" font-weight="bold">Propositional and Predicate Logic</text>
  </g>

  <!-- Step 1: Why Logic Matters -->
  <g class="step" id="step1" data-narration="Logic is the foundation of computer science. It enables circuit design, AI, database queries, and program verification.">
    <rect x="40" y="60" width="720" height="85" rx="10" fill="url(#blueGrad)" filter="url(#shadow)"/>
    <text x="60" y="85" fill="#1976d2" font-size="14" font-weight="bold">Why Logic Matters in CSE</text>
    <text x="60" y="105" fill="#333" font-size="11">• Circuit Design • Database Queries • AI &amp; ML • Program Verification</text>
    <text x="60" y="125" fill="#333" font-size="11">• Automated Theorem Proving • Algorithm Analysis</text>
  </g>

  <!-- Step 2: What is a Proposition? -->
  <g class="step" id="step2" data-narration="A proposition is a declarative statement that is either TRUE or FALSE, but never both. Let's see examples.">
    <rect x="40" y="160" width="350" height="90" rx="10" fill="url(#greenGrad)" filter="url(#shadow)"/>
    <text x="60" y="185" fill="#388e3c" font-size="13" font-weight="bold">✓ Proposition (Declarative)</text>
    <text x="60" y="205" fill="#333" font-size="10">"2 + 2 = 4" (True)</text>
    <text x="60" y="220" fill="#333" font-size="10">"5 is even" (False)</text>
    <text x="60" y="235" fill="#333" font-size="10">"It is raining" (Context-dependent)</text>
    
    <rect x="410" y="160" width="350" height="90" rx="10" fill="url(#redGrad)" filter="url(#shadow)"/>
    <text x="430" y="185" fill="#f44336" font-size="13" font-weight="bold">✗ Not a Proposition</text>
    <text x="430" y="205" fill="#333" font-size="10">"What time is it?" (Question)</text>
    <text x="430" y="220" fill="#333" font-size="10">"Close the door!" (Command)</text>
    <text x="430" y="235" fill="#333" font-size="10">"x + 3 = 5" (Open sentence)</text>
  </g>

  <!-- Step 3: Five Logical Connectives -->
  <g class="step" id="step3" data-narration="Five connectives combine propositions: Negation ¬, Conjunction ∧, Disjunction ∨, Implication →, and Biconditional ↔.">
    <rect x="40" y="265" width="720" height="90" rx="10" fill="url(#orangeGrad)" filter="url(#shadow)"/>
    <text x="60" y="290" fill="#e65100" font-size="13" font-weight="bold">Five Logical Connectives</text>
    <g transform="translate(60, 310)">
      <rect x="0" y="0" width="120" height="30" rx="5" fill="#fff" stroke="#ff9800"/>
      <text x="60" y="20" text-anchor="middle" fill="#333" font-size="11">¬ Negation</text>
      <rect x="130" y="0" width="120" height="30" rx="5" fill="#fff" stroke="#ff9800"/>
      <text x="190" y="20" text-anchor="middle" fill="#333" font-size="11">∧ Conjunction</text>
      <rect x="260" y="0" width="120" height="30" rx="5" fill="#fff" stroke="#ff9800"/>
      <text x="320" y="20" text-anchor="middle" fill="#333" font-size="11">∨ Disjunction</text>
      <rect x="390" y="0" width="120" height="30" rx="5" fill="#fff" stroke="#ff9800"/>
      <text x="450" y="20" text-anchor="middle" fill="#333" font-size="11">→ Implication</text>
      <rect x="520" y="0" width="120" height="30" rx="5" fill="#fff" stroke="#ff9800"/>
      <text x="580" y="20" text-anchor="middle" fill="#333" font-size="11">↔ Biconditional</text>
    </g>
  </g>

  <!-- Step 4: Truth Tables -->
  <g class="step" id="step4" data-narration="Truth tables show all possible truth value combinations. For n propositions, we need 2^n rows. Watch the patterns.">
    <rect x="40" y="370" width="720" height="115" rx="10" fill="url(#blueGrad)" filter="url(#shadow)"/>
    <text x="60" y="395" fill="#1976d2" font-size="13" font-weight="bold">Truth Table Fundamentals</text>
    <text x="60" y="415" fill="#333" font-size="10">Truth tables list ALL combinations of truth values for propositions.</text>
    <text x="60" y="430" fill="#333" font-size="10">For 2 propositions (P, Q): 2² = 4 rows. For 3 propositions: 2³ = 8 rows.</text>
    
    <!-- Mini truth table -->
    <g transform="translate(100, 445)">
      <rect x="0" y="0" width="40" height="25" fill="#e3f2fd" stroke="#1976d2"/>
      <text x="20" y="17" text-anchor="middle" fill="#1976d2" font-size="10" font-weight="bold">P</text>
      <rect x="40" y="0" width="40" height="25" fill="#e3f2fd" stroke="#1976d2"/>
      <text x="60" y="17" text-anchor="middle" fill="#1976d2" font-size="10" font-weight="bold">Q</text>
      <rect x="80" y="0" width="40" height="25" fill="#e3f2fd" stroke="#1976d2"/>
      <text x="100" y="17" text-anchor="middle" fill="#1976d2" font-size="10" font-weight="bold">P∧Q</text>
      <rect x="120" y="0" width="40" height="25" fill="#e3f2fd" stroke="#1976d2"/>
      <text x="140" y="17" text-anchor="middle" fill="#1976d2" font-size="10" font-weight="bold">P∨Q</text>
      
      <rect x="0" y="25" width="40" height="20" fill="#fff"/>
      <text x="20" y="40" text-anchor="middle" fill="#333" font-size="10">T</text>
      <rect x="40" y="25" width="40" height="20" fill="#fff"/>
      <text x="60" y="40" text-anchor="middle" fill="#333" font-size="10">T</text>
      <rect x="80" y="25" width="40" height="20" fill="#4caf50"/>
      <text x="100" y="40" text-anchor="middle" fill="#fff" font-size="10">T</text>
      <rect x="120" y="25" width="40" height="20" fill="#4caf50"/>
      <text x="140" y="40" text-anchor="middle" fill="#fff" font-size="10">T</text>
      
      <rect x="0" y="45" width="40" height="20" fill="#fff"/>
      <text x="20" y="60" text-anchor="middle" fill="#333" font-size="10">T</text>
      <rect x="40" y="45" width="40" height="20" fill="#fff"/>
      <text x="60" y="60" text-anchor="middle" fill="#333" font-size="10">F</text>
      <rect x="80" y="45" width="40" height="20" fill="#f44336"/>
      <text x="100" y="60" text-anchor="middle" fill="#fff" font-size="10">F</text>
      <rect x="120" y="45" width="40" height="20" fill="#4caf50"/>
      <text x="140" y="60" text-anchor="middle" fill="#fff" font-size="10">T</text>
      
      <rect x="0" y="65" width="40" height="20" fill="#fff"/>
      <text x="20" y="80" text-anchor="middle" fill="#333" font-size="10">F</text>
      <rect x="40" y="65" width="40" height="20" fill="#fff"/>
      <text x="60" y="80" text-anchor="middle" fill="#333" font-size="10">T</text>
      <rect x="80" y="65" width="40" height="20" fill="#f44336"/>
      <text x="100" y="80" text-anchor="middle" fill="#fff" font-size="10">F</text>
      <rect x="120" y="65" width="40" height="20" fill="#4caf50"/>
      <text x="140" y="80" text-anchor="middle" fill="#fff" font-size="10">T</text>
      
      <rect x="0" y="85" width="40" height="20" fill="#fff"/>
      <text x="20" y="100" text-anchor="middle" fill="#333" font-size="10">F</text>
      <rect x="40" y="85" width="40" height="20" fill="#fff"/>
      <text x="60" y="100" text-anchor="middle" fill="#333" font-size="10">F</text>
      <rect x="80" y="85" width="40" height="20" fill="#f44336"/>
      <text x="100" y="100" text-anchor="middle" fill="#fff" font-size="10">F</text>
      <rect x="120" y="85" width="40" height="20" fill="#f44336"/>
      <text x="140" y="100" text-anchor="middle" fill="#fff" font-size="10">F</text>
    </g>
    <text x="500" y="465" fill="#333" font-size="10">∧ (AND): True only when BOTH are true</text>
    <text x="500" y="480" fill="#333" font-size="10">∨ (OR): True when AT LEAST one is true</text>
  </g>

  <!-- Step 5: Implication - The Tricky One -->
  <g class="step" id="step5" data-narration="Implication P → Q is FALSE only when P is TRUE and Q is FALSE. This is the most common exam trap!">
    <rect x="40" y="500" width="720" height="95" rx="10" fill="url(#purpleGrad)" filter="url(#shadow)"/>
    <text x="60" y="525" fill="#9c27b0" font-size="13" font-weight="bold">Implication (→) - THE KEY TO TRUTH TABLES</text>
    <text x="60" y="545" fill="#333" font-size="11">P → Q means "If P then Q"</text>
    <text x="60" y="560" fill="#333" font-size="11">Only FALSE when P=TRUE and Q=FALSE</text>
    
    <!-- Implication truth table -->
    <g transform="translate(350, 520)">
      <rect x="0" y="0" width="35" height="20" fill="#f3e5f5" stroke="#9c27b0"/>
      <text x="17" y="14" text-anchor="middle" fill="#9c27b0" font-size="9">P</text>
      <rect x="35" y="0" width="35" height="20" fill="#f3e5f5" stroke="#9c27b0"/>
      <text x="52" y="14" text-anchor="middle" fill="#9c27b0" font-size="9">Q</text>
      <rect x="70" y="0" width="60" height="20" fill="#f3e5f5" stroke="#9c27b0"/>
      <text x="100" y="14" text-anchor="middle" fill="#9c27b0" font-size="9">P→Q</text>
      
      <rect x="0" y="20" width="35" height="18" fill="#fff"/>
      <text x="17" y="34" text-anchor="middle" fill="#333" font-size="9">T</text>
      <rect x="35" y="20" width="35" height="18" fill="#fff"/>
      <text x="52" y="34" text-anchor="middle" fill="#333" font-size="9">T</text>
      <rect x="70" y="20" width="60" height="18" fill="#4caf50"/>
      <text x="100" y="34" text-anchor="middle" fill="#fff" font-size="9">T ✓</text>
      
      <rect x="0" y="38" width="35" height="18" fill="#fff"/>
      <text x="17" y="52" text-anchor="middle" fill="#333" font-size="9">T</text>
      <rect x="35" y="38" width="35" height="18" fill="#fff"/>
      <text x="52" y="52" text-anchor="middle" fill="#333" font-size="9">F</text>
      <rect x="70" y="38" width="60" height="18" fill="#f44336"/>
      <text x="100" y="52" text-anchor="middle" fill="#fff" font-size="9">F ✗</text>
      
      <rect x="0" y="56" width="35" height="18" fill="#fff"/>
      <text x="17" y="70" text-anchor="middle" fill="#333" font-size="9">F</text>
      <rect x="35" y="56" width="35" height="18" fill="#fff"/>
      <text x="52" y="70" text-anchor="middle" fill="#333" font-size="9">T</text>
      <rect x="70" y="56" width="60" height="18" fill="#4caf50"/>
      <text x="100" y="70" text-anchor="middle" fill="#fff" font-size="9">T ✓</text>
      
      <rect x="0" y="74" width="35" height="18" fill="#fff"/>
      <text x="17" y="88" text-anchor="middle" fill="#333" font-size="9">F</text>
      <rect x="35" y="74" width="35" height="18" fill="#fff"/>
      <text x="52" y="88" text-anchor="middle" fill="#333" font-size="9">F</text>
      <rect x="70" y="74" width="60" height="18" fill="#4caf50"/>
      <text x="100" y="88" text-anchor="middle" fill="#fff" font-size="9">T ✓</text>
    </g>
  </g>

  <!-- Step 6: Tautology, Contradiction, Contingency -->
  <g class="step" id="step6" data-narration="Tautology is always TRUE. Contradiction is always FALSE. Contingency depends on truth values.">
    <rect x="40" y="610" width="720" height="85" rx="10" fill="url(#greenGrad)" filter="url(#shadow)"/>
    <text x="60" y="635" fill="#388e3c" font-size="13" font-weight="bold">Three Types of Propositions</text>
    
    <rect x="60" y="650" width="200" height="35" rx="8" fill="#4caf50"/>
    <text x="160" y="670" text-anchor="middle" fill="white" font-size="11" font-weight="bold">Tautology</text>
    <text x="160" y="682" text-anchor="middle" fill="white" font-size="9">Always TRUE (e.g., P ∨ ¬P)</text>
    
    <rect x="280" y="650" width="200" height="35" rx="8" fill="#f44336"/>
    <text x="380" y="670" text-anchor="middle" fill="white" font-size="11" font-weight="bold">Contradiction</text>
    <text x="380" y="682" text-anchor="middle" fill="white" font-size="9">Always FALSE (e.g., P ∧ ¬P)</text>
    
    <rect x="500" y="650" width="200" height="35" rx="8" fill="#ff9800"/>
    <text x="600" y="670" text-anchor="middle" fill="white" font-size="11" font-weight="bold">Contingency</text>
    <text x="600" y="682" text-anchor="middle" fill="white" font-size="9">Depends on values (e.g., P → Q)</text>
  </g>

  <!-- Step 7: De Morgan's Laws -->
  <g class="step" id="step7" data-narration="De Morgan's Laws: ¬(P ∧ Q) ≡ ¬P ∨ ¬Q and ¬(P ∨ Q) ≡ ¬P ∧ ¬Q. Distribute negation and flip the connective.">
    <rect x="40" y="710" width="720" height="85" rx="10" fill="url(#orangeGrad)" filter="url(#shadow)"/>
    <text x="60" y="735" fill="#e65100" font-size="13" font-weight="bold">De Morgan's Laws - Essential Equivalences</text>
    
    <g transform="translate(60, 755)">
      <rect x="0" y="0" width="280" height="28" rx="5" fill="#fff" stroke="#ff9800"/>
      <text x="140" y="18" text-anchor="middle" fill="#333" font-size="11" class="formula">¬(P ∧ Q) ≡ ¬P ∨ ¬Q</text>
      <rect x="300" y="0" width="280" height="28" rx="5" fill="#fff" stroke="#ff9800"/>
      <text x="440" y="18" text-anchor="middle" fill="#333" font-size="11" class="formula">¬(P ∨ Q) ≡ ¬P ∧ ¬Q</text>
    </g>
    <text x="60" y="790" fill="#666" font-size="10">Implication Equivalence: P → Q ≡ ¬P ∨ Q</text>
  </g>

  <!-- Step 8: Predicate Logic Introduction -->
  <g class="step" id="step8" data-narration="Predicate logic extends propositional logic with predicates and variables. A predicate becomes a proposition when variables are assigned.">
    <rect x="40" y="810" width="720" height="85" rx="10" fill="url(#blueGrad)" filter="url(#shadow)"/>
    <text x="60" y="835" fill="#1976d2" font-size="13" font-weight="bold">Predicate Logic - Moving Beyond Propositions</text>
    <text x="60" y="855" fill="#333" font-size="11">Predicate: Statement with variables that becomes proposition when values are assigned</text>
    <text x="60" y="870" fill="#333" font-size="11">Example: P(x) = "x is a prime number" → P(5) = True, P(4) = False</text>
  </g>

  <!-- Step 9: Quantifiers -->
  <g class="step" id="step9" data-narration="Universal ∀ means 'for all' - statement must be true for every value. Existential ∃ means 'there exists' - at least one value satisfies.">
    <rect x="40" y="910" width="720" height="95" rx="10" fill="url(#greenGrad)" filter="url(#shadow)"/>
    <text x="60" y="935" fill="#388e3c" font-size="13" font-weight="bold">Quantifiers - Universal (∀) and Existential (∃)</text>
    
    <rect x="60" y="950" width="300" height="45" rx="8" fill="#4caf50"/>
    <text x="210" y="970" text-anchor="middle" fill="white" font-size="12" font-weight="bold">Universal Quantifier ∀</text>
    <text x="210" y="985" text-anchor="middle" fill="white" font-size="10">"For all" — ∀x P(x) means P(x) is true for every x</text>
    
    <rect x="380" y="950" width="300" height="45" rx="8" fill="#9c27b0"/>
    <text x="530" y="970" text-anchor="middle" fill="white" font-size="12" font-weight="bold">Existential Quantifier ∃</text>
    <text x="530" y="985" text-anchor="middle" fill="white" font-size="10">"There exists" — ∃x P(x) means at least one x makes P(x) true</text>
  </g>

  <!-- Step 10: Translation Rules -->
  <g class="step" id="step10" data-narration="Translation rule: 'Every' → ∀ with → (implication). 'Some/Exists' → ∃ with ∧ (conjunction). This is crucial for exams!">
    <rect x="40" y="1020" width="720" height="95" rx="10" fill="url(#purpleGrad)" filter="url(#shadow)"/>
    <text x="60" y="1045" fill="#9c27b0" font-size="13" font-weight="bold">Predicate Logic Translation Rules</text>
    
    <rect x="60" y="1060" width="320" height="45" rx="8" fill="#fff" stroke="#9c27b0"/>
    <text x="220" y="1078" text-anchor="middle" fill="#333" font-size="11">"Every student passed"</text>
    <text x="220" y="1093" text-anchor="middle" fill="#9c27b0" font-size="11" font-weight="bold">∀x (S(x) → P(x))</text>
    
    <rect x="400" y="1060" width="320" height="45" rx="8" fill="#fff" stroke="#9c27b0"/>
    <text x="560" y="1078" text-anchor="middle" fill="#333" font-size="11">"Some student passed"</text>
    <text x="560" y="1093" text-anchor="middle" fill="#9c27b0" font-size="11" font-weight="bold">∃x (S(x) ∧ P(x))</text>
  </g>

  <!-- Step 11: Rules of Inference -->
  <g class="step" id="step11" data-narration="Rules of inference prove conclusions from premises. Modus Ponens and Modus Tollens are the most commonly used rules.">
    <rect x="40" y="1130" width="720" height="105" rx="10" fill="url(#blueGrad)" filter="url(#shadow)"/>
    <text x="60" y="1155" fill="#1976d2" font-size="13" font-weight="bold">Rules of Inference - The Proof Tools</text>
    
    <!-- Modus Ponens -->
    <rect x="60" y="1170" width="210" height="55" rx="8" fill="#e3f2fd" stroke="#1976d2"/>
    <text x="165" y="1188" text-anchor="middle" fill="#1976d2" font-size="11" font-weight="bold">Modus Ponens</text>
    <text x="165" y="1203" text-anchor="middle" fill="#333" font-size="9">P → Q, P</text>
    <text x="165" y="1216" text-anchor="middle" fill="#1976d2" font-size="10" font-weight="bold">∴ Q</text>
    
    <!-- Modus Tollens -->
    <rect x="290" y="1170" width="210" height="55" rx="8" fill="#e3f2fd" stroke="#1976d2"/>
    <text x="395" y="1188" text-anchor="middle" fill="#1976d2" font-size="11" font-weight="bold">Modus Tollens</text>
    <text x="395" y="1203" text-anchor="middle" fill="#333" font-size="9">P → Q, ¬Q</text>
    <text x="395" y="1216" text-anchor="middle" fill="#1976d2" font-size="10" font-weight="bold">∴ ¬P</text>
    
    <!-- Other rules -->
    <rect x="520" y="1170" width="200" height="55" rx="8" fill="#e3f2fd" stroke="#1976d2"/>
    <text x="620" y="1188" text-anchor="middle" fill="#1976d2" font-size="11" font-weight="bold">More Rules</text>
    <text x="620" y="1205" text-anchor="middle" fill="#333" font-size="8">Hypothetical Syllogism</text>
    <text x="620" y="1218" text-anchor="middle" fill="#333" font-size="8">Disjunctive Syllogism</text>
  </g>

  <!-- Step 12: Worked Example -->
  <g class="step" id="step12" data-narration="Let's prove: Given 'If it rains, ground gets wet' and 'It rains', conclude 'Ground gets wet' using Modus Ponens.">
    <rect x="40" y="1250" width="720" height="95" rx="10" fill="url(#orangeGrad)" filter="url(#shadow)"/>
    <text x="60" y="1275" fill="#e65100" font-size="13" font-weight="bold">Example: Proof Using Modus Ponens</text>
    
    <rect x="60" y="1290" width="680" height="45" rx="8" fill="#fff" stroke="#ff9800"/>
    <text x="70" y="1310" fill="#333" font-size="10">Given: (1) R → W (If it rains, ground gets wet)</text>
    <text x="70" y="1325" fill="#333" font-size="10">Given: (2) R (It rains)</text>
    <text x="350" y="1317" fill="#e65100" font-size="11" font-weight="bold">By Modus Ponens: ∴ W (Ground gets wet)</text>
  </g>

  <!-- Step 13: Summary -->
  <g class="step" id="step13" data-narration="Key takeaways: Propositions are True/False statements. Five connectives build compound propositions. Implication is key in truth tables.">
    <rect x="40" y="1360" width="720" height="110" rx="10" fill="url(#blueGrad)" filter="url(#shadow)"/>
    <text x="60" y="1385" fill="#1976d2" font-size="14" font-weight="bold">Key Takeaways - Exam Essentials</text>
    
    <g transform="translate(60, 1400)">
      <circle cx="10" cy="10" r="4" fill="#1976d2"/>
      <text x="25" y="14" fill="#333" font-size="10">Proposition: declarative statement, True or False</text>
      <circle cx="350" cy="10" r="4" fill="#1976d2"/>
      <text x="365" y="14" fill="#333" font-size="10">5 Connectives: ¬, ∧, ∨, →, ↔</text>
      
      <circle cx="10" cy="28" r="4" fill="#1976d2"/>
      <text x="25" y="32" fill="#333" font-size="10">P→Q is FALSE only when P=T, Q=F</text>
      <circle cx="350" cy="28" r="4" fill="#1976d2"/>
      <text x="365" y="32" fill="#333" font-size="10">∀ = "for all", ∃ = "there exists"</text>
      
      <circle cx="10" cy="46" r="4" fill="#1976d2"/>
      <text x="25" y="50" fill="#333" font-size="10">Every → ∀ with → ; Some → ∃ with ∧</text>
      <circle cx="350" cy="46" r="4" fill="#1976d2"/>
      <text x="365" y="50" fill="#333" font-size="10">De Morgan: ¬(P∧Q)≡¬P∨¬Q</text>
      
      <circle cx="10" cy="64" r="4" fill="#1976d2"/>
      <text x="25" y="68" fill="#333" font-size="10">Modus Ponens: P→Q, P ⊢ Q</text>
      <circle cx="350" cy="64" r="4" fill="#1976d2"/>
      <text x="365" y="68" fill="#333" font-size="10">Modus Tollens: P→Q, ¬Q ⊢ ¬P</text>
    </g>
  </g>

</svg>