<svg width="420" height="400" data-topic-id="find Its Length" xmlns="http://www.w3.org/2000/svg">
  <rect x="0" y="0" width="420" height="400" fill="#C7B8EA" />
  <defs>
    <linearGradient id="pastel-gradient" x1="0%" y1="0%" x2="100%" y2="0%">
      <stop offset="0%" stop-color="#C2E9F2" />
      <stop offset="100%" stop-color="#C7B8EA" />
    </linearGradient>
  </defs>
  <rect x="50" y="50" width="320" height="300" fill="url(#pastel-gradient)" rx="10" />
  <title Find Its Length</title>
  <g transform="translate(60, 60)">
    <rect x="0" y="0" width="100" height="50" fill="#66CCCC" rx="5" />
    <text x="10" y="15" font-size="14" font-family="Arial" fill="#2E4053" data-narration="What is the $length Operator?">
      What is the $length Operator?
    </text>
    <animate transform="translate(0, -5)" begin="0s" dur="2s" repeat="forever" />
    <rect x="0" y="0" width="100" height="50" fill="#FFC107" rx="5" />
    <text x="10" y="25" font-size="14" font-family="Arial" fill="#2E4053" data-narration="How to Use the $length Operator">
      How to Use the $length Operator
    </text>
    <animate transform="translate(0, -10)" begin="2s" dur="2s" repeat="forever" />
    <rect x="0" y="0" width="100" height="50" fill="#2E4053" rx="5" />
    <text x="10" y="35" font-size="14" font-family="Arial" fill="#66CCCC" data-narration="Example">
      Example
    </text>
    <animate transform="translate(0, -15)" begin="4s" dur="2s" repeat="forever" />
    <rect x="0" y="0" width="100" height="50" fill="#66CCCC" rx="5" />
    <text x="10" y="45" font-size="14" font-family="Arial" fill="#2E4053" data-narration="Key Concepts">
      Key Concepts
    </text>
    <animate transform="translate(0, -20)" begin="6s" dur="2s" repeat="forever" />
    <rect x="0" y="0" width="100" height="50" fill="#FFC107" rx="5" />
    <text x="10" y="55" font-size="14" font-family="Arial" fill="#2E4053" data-narration="Use Cases">
      Use Cases
    </text>
    <animate transform="translate(0, -25)" begin="8s" dur="2s" repeat="forever" />
    <rect x="0" y="0" width="100" height="50" fill="#2E4053" rx="5" />
    <text x="10" y="65" font-size="14" font-family="Arial" fill="#66CCCC" data-narration="Best Practices">
      Best Practices
    </text>
    <animate transform="translate(0, -30)" begin="10s" dur="2s" repeat="forever" />
    <rect x="0" y="0" width="100" height="50" fill="#FFC107" rx="5" />
    <text x="10" y="75" font-size="14" font-family="Arial" fill="#2E4053" data-narration="Troubleshooting Tips">
      Troubleshooting Tips
    </text>
    <animate transform="translate(0, -35)" begin="12s" dur="2s" repeat="forever" />
    <rect x="0" y="0" width="100" height="50" fill="#2E4053" rx="5" />
    <text x="10" y="85" font-size="14" font-family="Arial" fill="#66CCCC" data-narration="Conclusion">
      Conclusion
    </text>
    <animate transform="translate(0, -40)" begin="14s" dur="2s" repeat="forever" />
    <g transform="translate(60, 90)">
      <rect x="0" y="0" width="100" height="50" fill="#2E4053" rx="5" />
      <text x="10" y="15" font-size="14" font-family="Arial" fill="#66CCCC" data-narration="References">
        References
      </text>
      <animate transform="translate(0, -5)" begin="16s" dur="2s" repeat="forever" />
      <rect x="0" y="0" width="100" height="50" fill="#FFC107" rx="5" />
      <text x="10" y="25" font-size="14" font-family="Arial" fill="#2E4053" data-narration="Links">
        Links
      </text>
      <animate transform="translate(0, -10)" begin="18s" dur="2s" repeat="forever" />
      <rect x="0" y="0" width="100" height="50" fill="#2E4053" rx="5" />
      <text x="10" y="35" font-size="14" font-family="Arial" fill="#66CCCC" data-narration="Additional Resources">
        Additional Resources
      </text>
      <animate transform="translate(0, -15)" begin="20s" dur="2s" repeat="forever" />
    </g>
  </g>
</svg>