<svg width="420" height="400" viewBox="0 0 420 400" xmlns="http://www.w3.org/2000/svg" xmlns:xlink="http://www.w3.org/1999/xlink" style="background:linear-gradient(to bottom, #C7B8EA, #A1C9F2);">
  <defs>
    <linearGradient id="color1" x1="0%" y1="0%" x2="100%" y2="0%">
      <stop offset="0%" stop-color="#C7B8EA" stop-opacity="1"/>
      <stop offset="100%" stop-color="#A1C9F2" stop-opacity="1"/>
    </linearGradient>
  </defs>
  <title>Also Find The Score Of Words</title>
  <desc>Animated Educational SVG Diagram for the Topic: Also Find The Score Of Words</desc>
  <animateTransform attributeName="transform" type="rotate" from="0 210 200" to="360 210 200" dur="10000" repeatCount="indefinite"/>
  <g transform="translate(10 10)">
    <rect width="400" height="380" fill="url(#color1)" rx="10"/>
    <path d="M 10 10 L 130 50" stroke="#2E4053" stroke-width="2" stroke-linecap="round" stroke-linejoin="round"/>
    <path d="M 10 150 L 350 300" stroke="#2E4053" stroke-width="2" stroke-linecap="round" stroke-linejoin="round"/>
    <path d="M 10 60 L 140 100" stroke="#2E4053" stroke-width="2" stroke-linecap="round" stroke-linejoin="round"/>
    <path d="M 260 60 L 290 100" stroke="#2E4053" stroke-width="2" stroke-linecap="round" stroke-linejoin="round"/>
    <g data-narration="Tokenization" transform="translate(10 120)">
      <rect width="80" height="30" fill="#F7F7F7" rx="5"/>
      <text x="10" y="15" font-size="14" font-family="Arial, sans-serif" text-anchor="middle">Tokenization</text>
    </g>
    <g data-narration="Word Embedding" transform="translate(10 160)">
      <rect width="80" height="30" fill="#F7F7F7" rx="5"/>
      <text x="10" y="15" font-size="14" font-family="Arial, sans-serif" text-anchor="middle">Word Embedding</text>
    </g>
    <g data-narration="Similarity Calculation" transform="translate(10 200)">
      <rect width="80" height="30" fill="#F7F7F7" rx="5"/>
      <text x="10" y="15" font-size="14" font-family="Arial, sans-serif" text-anchor="middle">Similarity Calculation</text>
    </g>
    <g data-narration="Scoring" transform="translate(10 240)">
      <rect width="80" height="30" fill="#F7F7F7" rx="5"/>
      <text x="10" y="15" font-size="14" font-family="Arial, sans-serif" text-anchor="middle">Scoring</text>
    </g>
    <path d="M 240 10 L 260 20" stroke="#2E4053" stroke-width="2" stroke-linecap="round" stroke-linejoin="round"/>
    <path d="M 300 10 L 320 20" stroke="#2E4053" stroke-width="2" stroke-linecap="round" stroke-linejoin="round"/>
    <g data-topic-id="also-find-the-score-of-words" data-slugified-name="also-find-the-score-of-words">
      <rect width="100" height="20" fill="#F7F7F7" rx="5"/>
      <text x="10" y="15" font-size="14" font-family="Arial, sans-serif" text-anchor="middle">Also Find The Score Of Words</text>
      <path d="M 10 10 L 30 20" stroke="#2E4053" stroke-width="2" stroke-linecap="round" stroke-linejoin="round"/>
      <path d="M 60 10 L 80 20" stroke="#2E4053" stroke-width="2" stroke-linecap="round" stroke-linejoin="round"/>
      <path d="M 110 10 L 130 20" stroke="#2E4053" stroke-width="2" stroke-linecap="round" stroke-linejoin="round"/>
      <path d="M 150 10 L 170 20" stroke="#2E4053" stroke-width="2" stroke-linecap="round" stroke-linejoin="round"/>
      <path d="M 190 10 L 210 20" stroke="#2E4053" stroke-width="2" stroke-linecap="round" stroke-linejoin="round"/>
      <path d="M 230 10 L 250 20" stroke="#2E4053" stroke-width="2" stroke-linecap="round" stroke-linejoin="round"/>
      <path d="M 270 10 L 290 20" stroke="#2E4053" stroke-width="2" stroke-linecap="round" stroke-linejoin="round"/>
      <path d="M 310 10 L 330 20" stroke="#2E4053" stroke-width="2" stroke-linecap="round" stroke-linejoin="round"/>
      <path d="M 350 10 L 370 20" stroke="#2E4053" stroke-width="2" stroke-linecap="round" stroke-linejoin="round"/>
      <path d="M 400 10 L 420 20" stroke="#2E4053" stroke-width="2" stroke-linecap="round" stroke-linejoin="round"/>
    </g>
  </g>
  <g transform="translate(10 380)">
    <rect width="400" height="20" fill="#F7F7F7" rx="5"/>
    <text x="10" y="15" font-size="14" font-family="Arial, sans-serif" text-anchor="middle" fill="#2E4053">Footer</text>
  </g>
</svg>