<svg xmlns="http://www.w3.org/2000/svg" viewBox="0 0 800 1050">
  <defs>
    <!-- Gradients -->
    <linearGradient id="titleGradient" x1="0%" y1="0%" x2="100%" y2="100%">
      <stop offset="0%" stop-color="#1565c0"/>
      <stop offset="100%" stop-color="#0d47a1"/>
    </linearGradient>
    <linearGradient id="blueGradient" x1="0%" y1="0%" x2="0%" y2="100%">
      <stop offset="0%" stop-color="#e3f2fd"/>
      <stop offset="100%" stop-color="#bbdefb"/>
    </linearGradient>
    <linearGradient id="greenGradient" x1="0%" y1="0%" x2="0%" y2="100%">
      <stop offset="0%" stop-color="#e8f5e9"/>
      <stop offset="100%" stop-color="#c8e6c9"/>
    </linearGradient>
    <linearGradient id="orangeGradient" x1="0%" y1="0%" x2="0%" y2="100%">
      <stop offset="0%" stop-color="#fff3e0"/>
      <stop offset="100%" stop-color="#ffe0b2"/>
    </linearGradient>
    <linearGradient id="purpleGradient" x1="0%" y1="0%" x2="0%" y2="100%">
      <stop offset="0%" stop-color="#f3e5f5"/>
      <stop offset="100%" stop-color="#e1bee7"/>
    </linearGradient>
    <linearGradient id="redGradient" x1="0%" y1="0%" x2="0%" y2="100%">
      <stop offset="0%" stop-color="#ffebee"/>
      <stop offset="100%" stop-color="#ffcdd2"/>
    </linearGradient>
    <linearGradient id="memoryGradient" x1="0%" y1="0%" x2="0%" y2="100%">
      <stop offset="0%" stop-color="#263238"/>
      <stop offset="100%" stop-color="#37474f"/>
    </linearGradient>
    
    <!-- Shadow filter -->
    <filter id="shadow" x="-10%" y="-10%" width="120%" height="120%">
      <feDropShadow dx="2" dy="2" stdDeviation="3" flood-opacity="0.2"/>
    </filter>
    
    <!-- Arrow marker -->
    <marker id="arrowBlue" markerWidth="10" markerHeight="10" refX="9" refY="3" orient="auto">
      <path d="M0,0 L0,6 L9,3 z" fill="#1976d2"/>
    </marker>
    <marker id="arrowGreen" markerWidth="10" markerHeight="10" refX="9" refY="3" orient="auto">
      <path d="M0,0 L0,6 L9,3 z" fill="#388e3c"/>
    </marker>
  </defs>
  
  <style>
    @keyframes fadeInSlide {
      from { opacity: 0; transform: translateY(20px); }
      to { opacity: 1; transform: translateY(0); }
    }
    @keyframes scaleIn {
      from { opacity: 0; transform: scale(0.85); }
      to { opacity: 1; transform: scale(1); }
    }
    @keyframes textReveal {
      from { opacity: 0; transform: translateX(-10px); }
      to { opacity: 1; transform: translateX(0); }
    }
    @keyframes pulse {
      0%, 100% { transform: scale(1); }
      50% { transform: scale(1.03); }
    }
    @keyframes drawLine {
      from { stroke-dashoffset: 500; }
      to { stroke-dashoffset: 0; }
    }
    .step { animation: fadeInSlide 0.6s ease-out; }
    .step rect { animation: scaleIn 0.5s cubic-bezier(0.34, 1.56, 0.64, 1); transform-origin: center; }
    .step text { animation: textReveal 0.4s ease-out 0.2s backwards; }
    .title-text { font-family: 'Segoe UI', sans-serif; font-size: 22px; fill: white; font-weight: bold; }
    .section-title { font-family: 'Segoe UI', sans-serif; font-size: 14px; fill: #1565c0; font-weight: bold; }
    .body-text { font-family: 'Segoe UI', sans-serif; font-size: 10px; fill: #424242; }
    .code-text { font-family: 'Consolas', monospace; font-size: 8px; fill: #37474f; }
    .label-text { font-family: 'Segoe UI', sans-serif; font-size: 9px; fill: #5c6bc0; font-weight: bold; }
    .highlight { fill: #ff9800; font-weight: bold; }
    .animated-line {
      stroke-dasharray: 500;
      stroke-dashoffset: 500;
      animation: drawLine 1.5s ease-out forwards;
    }
  </style>
  
  <!-- Background -->
  <rect width="800" height="1050" fill="#f8f9fa"/>
  
  <!-- Step 0: Title -->
  <g class="step" id="step0">
    <rect x="0" y="0" width="800" height="50" fill="url(#titleGradient)" rx="0"/>
    <text x="400" y="32" text-anchor="middle" class="title-text">GPU Programming Overview</text>
    <text x="400" y="44" text-anchor="middle" font-family="Segoe UI" font-size="11" fill="#bbdefb">Understanding Parallel Computing with GPUs</text>
  </g>
  
  <!-- Step 1: What is GPU Programming -->
  <g class="step" id="step1" data-narration="GPU programming leverages thousands of simple cores for parallel computations, evolving from graphics rendering to general-purpose computing.">
    <rect x="20" y="60" width="760" height="85" fill="url(#blueGradient)" rx="8" filter="url(#shadow)"/>
    <text x="40" y="82" class="section-title">What is GPU Programming?</text>
    <text x="40" y="100" class="body-text">GPU programming writes code that uses</text>
    <text x="40" y="115" class="body-text">massively parallel GPU architecture to</text>
    <text x="40" y="130" class="body-text">accelerate computational tasks beyond CPU.</text>
    <!-- GPU Icon representation -->
    <rect x="600" y="70" width="150" height="65" fill="#1565c0" rx="6"/>
    <text x="675" y="95" text-anchor="middle" fill="white" font-size="12" font-weight="bold">GPU</text>
    <text x="675" y="115" text-anchor="middle" fill="#bbdefb" font-size="10">1000s of Cores</text>
    <text x="675" y="130" text-anchor="middle" fill="#bbdefb" font-size="10">Parallel Processing</text>
  </g>
  
  <!-- Step 2: CPU vs GPU Architecture -->
  <g class="step" id="step2" data-narration="CPUs have few complex cores for sequential tasks; GPUs have thousands of simple cores optimized for data-parallel throughput computing.">
    <rect x="20" y="160" width="370" height="90" fill="url(#greenGradient)" rx="8" filter="url(#shadow)"/>
    <text x="35" y="182" class="section-title">CPU Architecture</text>
    <text x="35" y="200" class="body-text">• Few cores (2-64), complex</text>
    <text x="35" y="215" class="body-text">• Large cache, hierarchical</text>
    <text x="35" y="230" class="body-text">• Sequential processing</text>
    <text x="35" y="245" class="body-text">• Low latency tolerance</text>
    <!-- CPU Visual -->
    <rect x="300" y="185" width="60" height="40" fill="#388e3c" rx="4"/>
    <rect x="305" y="190" width="18" height="30" fill="#2e7d32" rx="2"/>
    <rect x="327" y="190" width="18" height="30" fill="#2e7d32" rx="2"/>
    <rect x="349" y="190" width="18" height="30" fill="#2e7d32" rx="2"/>
    
    <rect x="400" y="160" width="370" height="90" fill="url(#orangeGradient)" rx="8" filter="url(#shadow)"/>
    <text x="420" y="182" class="section-title">GPU Architecture</text>
    <text x="420" y="200" class="body-text">• Thousands of simple cores</text>
    <text x="420" y="215" class="body-text">• Smaller shared cache</text>
    <text x="420" y="230" class="body-text">• Data-parallel throughput</text>
    <text x="420" y="245" class="body-text">• High latency tolerance</text>
    <!-- GPU Visual - Many small cores -->
    <rect x="680" y="185" width="70" height="50" fill="#ff9800" rx="4"/>
    <g fill="#f57c00">
      <rect x="685" y="190" width="8" height="8" rx="1"/>
      <rect x="698" y="190" width="8" height="8" rx="1"/>
      <rect x="711" y="190" width="8" height="8" rx="1"/>
      <rect x="724" y="190" width="8" height="8" rx="1"/>
      <rect x="685" y="202" width="8" height="8" rx="1"/>
      <rect x="698" y="202" width="8" height="8" rx="1"/>
      <rect x="711" y="202" width="8" height="8" rx="1"/>
      <rect x="724" y="202" width="8" height="8" rx="1"/>
      <rect x="685" y="214" width="8" height="8" rx="1"/>
      <rect x="698" y="214" width="8" height="8" rx="1"/>
      <rect x="711" y="214" width="8" height="8" rx="1"/>
      <rect x="724" y="214" width="8" height="8" rx="1"/>
      <rect x="685" y="226" width="8" height="8" rx="1"/>
      <rect x="698" y="226" width="8" height="8" rx="1"/>
      <rect x="711" y="226" width="8" height="8" rx="1"/>
      <rect x="724" y="226" width="8" height="8" rx="1"/>
    </g>
  </g>
  
  <!-- Step 3: Memory Hierarchy -->
  <g class="step" id="step3" data-narration="GPU memory hierarchy includes fast per-thread registers, fast shared memory per block, cached constant memory, and slow global memory.">
    <rect x="20" y="265" width="760" height="95" fill="url(#purpleGradient)" rx="8" filter="url(#shadow)"/>
    <text x="35" y="287" class="section-title">GPU Memory Hierarchy</text>
    
    <!-- Memory pyramid -->
    <rect x="50" y="305" width="80" height="35" fill="#9c27b0" rx="4"/>
    <text x="90" y="328" text-anchor="middle" fill="white" font-size="9" font-weight="bold">Registers</text>
    <text x="90" y="340" text-anchor="middle" fill="#f3e5f5" font-size="7">Per-thread</text>
    
    <rect x="140" y="305" width="80" height="35" fill="#7b1fa2" rx="4"/>
    <text x="180" y="328" text-anchor="middle" fill="white" font-size="9" font-weight="bold">Shared Mem</text>
    <text x="180" y="340" text-anchor="middle" fill="#f3e5f5" font-size="7">Per-block</text>
    
    <rect x="230" y="305" width="80" height="35" fill="#6a1b9a" rx="4"/>
    <text x="270" y="328" text-anchor="middle" fill="white" font-size="9" font-weight="bold">Constant</text>
    <text x="270" y="340" text-anchor="middle" fill="#f3e5f5" font-size="7">Cached</text>
    
    <rect x="320" y="305" width="80" height="35" fill="#4a148c" rx="4"/>
    <text x="360" y="328" text-anchor="middle" fill="white" font-size="9" font-weight="bold">Global</text>
    <text x="360" y="340" text-anchor="middle" fill="#f3e5f5" font-size="7">DRAM</text>
    
    <!-- Speed indicators -->
    <text x="430" y="295" class="body-text" fill="#5c6bc0">Speed ↑</text>
    <line x1="430" y1="305" x2="430" y2="335" stroke="#5c6bc0" stroke-width="2" marker-end="url(#arrowBlue)"/>
    <text x="430" y1="350" class="body-text" fill="#5c6bc0">Capacity ↓</text>
    
    <!-- Host-Device transfer -->
    <rect x="500" y="295" width="260" height="55" fill="#263238" rx="6"/>
    <text x="630" y="315" text-anchor="middle" fill="#90a4ae" font-size="9">PCIe Bus Transfer</text>
    <text x="520" y="335" fill="#b0bec5" font-size="8">Host (CPU) ←→ Device (GPU)</text>
    <text x="520" y="348" fill="#ff9800" font-size="8">cudaMemcpy() - can be bottleneck!</text>
  </g>
  
  <!-- Step 4: Thread Hierarchy -->
  <g class="step" id="step4" data-narration="GPU threads organize hierarchically: individual threads execute code, blocks group threads sharing memory, and grids contain all blocks running a kernel.">
    <rect x="20" y="375" width="760" height="90" fill="url(#blueGradient)" rx="8" filter="url(#shadow)"/>
    <text x="35" y="397" class="section-title">Thread Hierarchy: Thread → Block → Grid</text>
    
    <!-- Grid representation -->
    <rect x="40" y="410" width="300" height="45" fill="#1976d2" rx="4" opacity="0.3"/>
    <text x="190" y="430" text-anchor="middle" fill="#1565c0" font-size="10" font-weight="bold">GRID</text>
    
    <!-- Blocks inside grid -->
    <rect x="50" y="418" width="80" height="30" fill="#1976d2" rx="3"/>
    <rect x="145" y="418" width="80" height="30" fill="#1976d2" rx="3"/>
    <rect x="240" y="418" width="80" height="30" fill="#1976d2" rx="3"/>
    <text x="90" y="437" text-anchor="middle" fill="white" font-size="7">Block</text>
    <text x="185" y="437" text-anchor="middle" fill="white" font-size="7">Block</text>
    <text x="280" y="437" text-anchor="middle" fill="white" font-size="7">Block</text>
    
    <!-- Single block expanded -->
    <rect x="360" y="410" width="130" height="45" fill="#42a5f5" rx="4"/>
    <text x="425" y="428" text-anchor="middle" fill="white" font-size="10" font-weight="bold">BLOCK</text>
    <text x="425" y="440" text-anchor="middle" fill="#e3f2fd" font-size="7">Thread 0,1,2...N-1</text>
    <text x="425" y="452" text-anchor="middle" fill="#e3f2fd" font-size="7">Shared Memory</text>
    
    <!-- Thread -->
    <rect x="510" y="420" width="60" height="30" fill="#90caf9" rx="3"/>
    <text x="540" y="440" text-anchor="middle" fill="#1565c0" font-size="9" font-weight="bold">Thread</text>
    
    <!-- Arrow labels -->
    <text x="320" y="445" class="body-text" font-size="8">Contains</text>
    <text x="500" y="445" class="body-text" font-size="8">Executes</text>
  </g>
  
  <!-- Step 5: Kernel Execution -->
  <g class="step" id="step5" data-narration="A kernel is a GPU function marked with __global__. Threads calculate their index using block and thread IDs to process different data elements.">
    <rect x="20" y="480" width="760" height="105" fill="url(#orangeGradient)" rx="8" filter="url(#shadow)"/>
    <text x="35" y="502" class="section-title">Kernel Execution: Computing Thread Index</text>
    
    <!-- Formula -->
    <rect x="35" y="520" width="280" height="55" fill="white" rx="4" stroke="#ff9800" stroke-width="1"/>
    <text x="175" y="542" text-anchor="middle" font-family="Consolas" font-size="12" fill="#37474f">i = blockIdx.x × blockDim.x</text>
    <text x="175" y="560" text-anchor="middle" font-family="Consolas" font-size="12" fill="#37474f">+ threadIdx.x</text>
    <line x1="50" y1="548" x2="100" y2="548" stroke="#ff9800" stroke-width="2"/>
    <line x1="140" y1="548" x2="200" y2="548" stroke="#ff9800" stroke-width="2"/>
    
    <!-- Code example -->
    <rect x="330" y="515" width="435" height="60" fill="#263238" rx="4"/>
    <text x="345" y="535" font-family="Consolas" font-size="9" fill="#80cbc4">__global__ void vectorAdd(float* A, float* B,</text>
    <text x="345" y="550" font-family="Consolas" font-size="9" fill="#80cbc4">float* C, int n) {</text>
    <text x="360" y="565" font-family="Consolas" font-size="9" fill="#ffb74d">int i = blockIdx.x * blockDim.x + threadIdx.x;</text>
    <text x="360" y="580" font-family="Consolas" font-size="9" fill="#80cbc4">if (i &lt; n) C[i] = A[i] + B[i]; }</text>
    
    <!-- Launch syntax -->
    <rect x="35" y="585" width="280" height="0" fill="#fff3e0" rx="4"/>
    <text x="175" y="598" text-anchor="middle" font-family="Consolas" font-size="10" fill="#e65100">kernel&lt;&lt;&lt;blocks, threads&gt;&gt;&gt;(args)</text>
  </g>
  
  <!-- Step 6: CUDA Memory Types -->
  <g class="step" id="step6" data-narration="CUDA provides five memory types: global for all threads, shared for fast block communication, registers for fastest per-thread storage.">
    <rect x="20" y="600" width="760" height="85" fill="url(#greenGradient)" rx="8" filter="url(#shadow)"/>
    <text x="35" y="622" class="section-title">CUDA Memory Types</text>
    
    <!-- Memory cards -->
    <rect x="40" y="640" width="135" height="35" fill="#388e3c" rx="4"/>
    <text x="107" y="655" text-anchor="middle" fill="white" font-size="9" font-weight="bold">Global Memory</text>
    <text x="107" y="670" text-anchor="middle" fill="#c8e6c9" font-size="7">Large, high-latency</text>
    
    <rect x="185" y="640" width="135" height="35" fill="#43a047" rx="4"/>
    <text x="252" y="655" text-anchor="middle" fill="white" font-size="9" font-weight="bold">Shared Memory</text>
    <text x="252" y="670" text-anchor="middle" fill="#c8e6c9" font-size="7">Fast, per-block</text>
    
    <rect x="330" y="640" width="135" height="35" fill="#4caf50" rx="4"/>
    <text x="397" y="655" text-anchor="middle" fill="white" font-size="9" font-weight="bold">Registers</text>
    <text x="397" y="670" text-anchor="middle" fill="#c8e6c9" font-size="7">Fastest, per-thread</text>
    
    <rect x="475" y="640" width="135" height="35" fill="#66bb6a" rx="4"/>
    <text x="542" y="655" text-anchor="middle" fill="white" font-size="9" font-weight="bold">Constant</text>
    <text x="542" y="670" text-anchor="middle" fill="#c8e6c9" font-size="7">Read-only, cached</text>
    
    <rect x="620" y="640" width="145" height="35" fill="#81c784" rx="4"/>
    <text x="692" y="655" text-anchor="middle" fill="white" font-size="9" font-weight="bold">Texture</text>
    <text x="692" y="670" text-anchor="middle" fill="#c8e6c9" font-size="7">Special access</text>
  </g>
  
  <!-- Step 7: Amdahl's Law -->
  <g class="step" id="step7" data-narration="Amdahl's Law calculates maximum GPU speedup: speedup equals one divided by the sum of serial portion and parallel portion divided by processor count.">
    <rect x="20" y="700" width="760" height="85" fill="url(#redGradient)" rx="8" filter="url(#shadow)"/>
    <text x="35" y="722" class="section-title">Amdahl's Law: Theoretical Speedup</text>
    
    <!-- Formula -->
    <rect x="35" y="740" width="200" height="35" fill="white" rx="4" stroke="#f44336"/>
    <text x="135" y="762" text-anchor="middle" font-family="Consolas" font-size="14" fill="#37474f">Speedup = 1 / [(1-P) + (P/N)]</text>
    
    <!-- Explanation -->
    <text x="255" y="755" class="body-text">P = parallelizable portion (0-1)</text>
    <text x="255" y="770" class="body-text">N = number of GPU cores</text>
    
    <!-- Example -->
    <rect x="450" y="740" width="315" height="35" fill="#f44336" rx="4"/>
    <text x="607" y="758" text-anchor="middle" fill="white" font-size="10">Example: P=0.9, N=10</text>
    <text x="607" y="773" text-anchor="middle" fill="#ffcdd2" font-size="10">Speedup ≈ 5.26x</text>
    
    <!-- Note -->
    <text x="35" y="795" class="body-text" fill="#f44336">⚠ Data transfer time adds to sequential portion - can limit speedup!</text>
  </g>
  
  <!-- Step 8: CUDA Workflow -->
  <g class="step" id="step8" data-narration="The CUDA workflow involves allocating host and device memory, copying data to GPU, launching kernels, then copying results back.">
    <rect x="20" y="800" width="760" height="90" fill="url(#purpleGradient)" rx="8" filter="url(#shadow)"/>
    <text x="35" y="822" class="section-title">CUDA Programming Workflow</text>
    
    <!-- Workflow steps -->
    <g transform="translate(30, 0)">
      <rect x="35" y="840" width="100" height="40" fill="#9c27b0" rx="4"/>
      <text x="85" y="858" text-anchor="middle" fill="white" font-size="8" font-weight="bold">1. Allocate</text>
      <text x="85" y="872" text-anchor="middle" fill="#f3e5f5" font-size="7">malloc + cudaMalloc</text>
      
      <rect x="145" y="840" width="100" height="40" fill="#ab47bc" rx="4"/>
      <text x="195" y="858" text-anchor="middle" fill="white" font-size="8" font-weight="bold">2. Copy to GPU</text>
      <text x="195" y="872" text-anchor="middle" fill="#f3e5f5" font-size="7">cudaMemcpy (H→D)</text>
      
      <rect x="255" y="840" width="100" height="40" fill="#ba68c8" rx="4"/>
      <text x="305" y="858" text-anchor="middle" fill="white" font-size="8" font-weight="bold">3. Launch Kernel</text>
      <text x="305" y="872" text-anchor="middle" fill="#f3e5f5" font-size="7">kernel&lt;&lt;&lt;...&gt;&gt;&gt;()</text>
      
      <rect x="365" y="840" width="100" height="40" fill="#ce93d8" rx="4"/>
      <text x="415" y="858" text-anchor="middle" fill="white" font-size="8" font-weight="bold">4. Copy Result</text>
      <text x="415" y="872" text-anchor="middle" fill="#f3e5f5" font-size="7">cudaMemcpy (D→H)</text>
      
      <rect x="475" y="840" width="100" height="40" fill="#e1bee7" rx="4"/>
      <text x="525" y="858" text-anchor="middle" fill="#7b1fa2" font-size="8" font-weight="bold">5. Free Memory</text>
      <text x="525" y="872" text-anchor="middle" fill="#7b1fa2" font-size="7">free + cudaFree</text>
      
      <!-- Arrows -->
      <path d="M135 860 L145 860" stroke="#9c27b0" stroke-width="2" marker-end="url(#arrowBlue)"/>
      <path d="M245 860 L255 860" stroke="#9c27b0" stroke-width="2" marker-end="url(#arrowBlue)"/>
      <path d="M355 860 L365 860" stroke="#9c27b0" stroke-width="2" marker-end="url(#arrowBlue)"/>
      <path d="M465 860 L475 860" stroke="#9c27b0" stroke-width="2" marker-end="url(#arrowBlue)"/>
    </g>
  </g>
  
  <!-- Step 9: Key Takeaways -->
  <g class="step" id="step9" data-narration="Remember: GPUs excel at parallel tasks, use thread hierarchy effectively, optimize memory access patterns, and minimize CPU-GPU transfers.">
    <rect x="20" y="905" width="760" height="75" fill="url(#blueGradient)" rx="8" filter="url(#shadow)"/>
    <text x="35" y="927" class="section-title" fill="#0d47a1">Key Takeaways</text>
    
    <!-- Key points -->
    <rect x="40" y="940" width="175" height="30" fill="#1976d2" rx="4"/>
    <text x="127" y="958" text-anchor="middle" fill="white" font-size="9">CPU vs GPU Architecture</text>
    
    <rect x="225" y="940" width="175" height="30" fill="#1976d2" rx="4"/>
    <text x="312" y="958" text-anchor="middle" fill="white" font-size="9">Thread Hierarchy</text>
    
    <rect x="410" y="940" width="175" height="30" fill="#1976d2" rx="4"/>
    <text x="497" y="958" text-anchor="middle" fill="white" font-size="9">Memory Optimization</text>
    
    <rect x="595" y="940" width="175" height="30" fill="#1976d2" rx="4"/>
    <text x="682" y="958" text-anchor="middle" fill="white" font-size="9">Amdahl's Law</text>
    
    <!-- Bottom line -->
    <text x="400" y="985" text-anchor="middle" font-size="11" fill="#1565c0" font-weight="bold">GPU Programming: Unlock Massive Parallelism for Data-Intensive Applications!</text>
  </g>
  
  <!-- Step indicator dots at bottom -->
  <g transform="translate(350, 1020)">
    <circle cx="10" cy="10" r="4" fill="#1976d2"/>
    <circle cx="30" cy="10" r="4" fill="#42a5f5"/>
    <circle cx="50" cy="10" r="4" fill="#64b5f6"/>
    <circle cx="70" cy="10" r="4" fill="#90caf9"/>
    <circle cx="90" cy="10" r="4" fill="#bbdefb"/>
    <text x="110" y="14" font-size="10" fill="#78909c">10 steps</text>
  </g>
</svg>