<svg xmlns="http://www.w3.org/2000/svg" viewBox="0 0 420 400" width="420" height="400" data-topic-id="ideation">
  <defs>
    <linearGradient id="bgGrad" x1="0%" y1="0%" x2="100%" y2="100%">
      <stop offset="0%" stop-color="#E8EAF6"/>
      <stop offset="100%" stop-color="#C5CAE9"/>
    </linearGradient>
    <linearGradient id="ideateGlow" x1="0%" y1="0%" x2="100%" y2="100%">
      <stop offset="0%" stop-color="#3949AB"/>
      <stop offset="100%" stop-color="#1A237E"/>
    </linearGradient>
    <linearGradient id="cardGrad1" x1="0%" y1="0%" x2="0%" y2="100%">
      <stop offset="0%" stop-color="#FFFFFF"/>
      <stop offset="100%" stop-color="#E8EAF6"/>
    </linearGradient>
    <filter id="shadow">
      <feDropShadow dx="1" dy="1" stdDeviation="2" flood-color="#00000033"/>
    </filter>
  </defs>

  <!-- Background -->
  <rect width="420" height="400" fill="url(#bgGrad)" rx="12"/>

  <!-- Group 1: Title -->
  <g opacity="0" data-narration="Ideation in UI UX Design. The creative process of generating a broad set of solutions and ideas.">
    <animate attributeName="opacity" from="0" to="1" begin="0.3s" dur="0.5s" fill="freeze"/>
    <text x="210" y="32" text-anchor="middle" font-family="Arial, sans-serif" font-size="18" font-weight="bold" fill="#3949AB">Ideation in UI/UX Design</text>
    <line x1="100" y1="39" x2="320" y2="39" stroke="#3949AB" stroke-width="2.5" stroke-linecap="round"/>
    <circle cx="100" cy="39" r="3" fill="#E65100"/>
    <circle cx="320" cy="39" r="3" fill="#E65100"/>
    <text x="210" y="53" text-anchor="middle" font-family="Arial, sans-serif" font-size="9" fill="#00695C" font-style="italic">Generating creative solutions through structured techniques</text>
  </g>

  <!-- Group 2: Design Thinking - 5 Stages -->
  <g opacity="0" data-narration="The Design Thinking process has five stages: Empathize, Define, Ideate, Prototype, and Test. Ideation is the third and most creative stage where ideas flow freely.">
    <animate attributeName="opacity" from="0" to="1" begin="1.5s" dur="0.5s" fill="freeze"/>

    <!-- Stage 1: Empathize -->
    <circle cx="50" cy="82" r="18" fill="#FFFFFF" stroke="#3949AB" stroke-width="1.5"/>
    <text x="50" y="79" text-anchor="middle" font-family="Arial, sans-serif" font-size="6.5" font-weight="bold" fill="#3949AB">Empa-</text>
    <text x="50" y="88" text-anchor="middle" font-family="Arial, sans-serif" font-size="6.5" font-weight="bold" fill="#3949AB">thize</text>
    <ellipse cx="50" cy="72" rx="5" ry="3" fill="none" stroke="#3949AB" stroke-width="0.8"/>
    <circle cx="50" cy="72" r="1.5" fill="#3949AB"/>

    <!-- Arrow 1-2 -->
    <line x1="69" y1="82" x2="87" y2="82" stroke="#3949AB" stroke-width="1.2"/>
    <polygon points="87,79 93,82 87,85" fill="#3949AB"/>

    <!-- Stage 2: Define -->
    <circle cx="114" cy="82" r="18" fill="#FFFFFF" stroke="#3949AB" stroke-width="1.5"/>
    <text x="114" y="85" text-anchor="middle" font-family="Arial, sans-serif" font-size="7" font-weight="bold" fill="#3949AB">Define</text>
    <circle cx="114" cy="74" r="4" fill="none" stroke="#3949AB" stroke-width="0.7"/>
    <circle cx="114" cy="74" r="1.5" fill="#3949AB"/>

    <!-- Arrow 2-3 -->
    <line x1="133" y1="82" x2="151" y2="82" stroke="#3949AB" stroke-width="1.2"/>
    <polygon points="151,79 157,82 151,85" fill="#3949AB"/>

    <!-- Stage 3: Ideate (HIGHLIGHTED) -->
    <circle cx="180" cy="82" r="22" fill="url(#ideateGlow)" stroke="#E65100" stroke-width="2.5"/>
    <text x="180" y="86" text-anchor="middle" font-family="Arial, sans-serif" font-size="8" font-weight="bold" fill="#FFFFFF">Ideate</text>
    <path d="M177,70 Q180,64 183,70 L182,73 L178,73 Z" fill="#FFD54F" stroke="#E65100" stroke-width="0.6"/>
    <line x1="179" y1="73" x2="181" y2="73" stroke="#E65100" stroke-width="0.5"/>

    <!-- Arrow 3-4 -->
    <line x1="203" y1="82" x2="221" y2="82" stroke="#3949AB" stroke-width="1.2"/>
    <polygon points="221,79 227,82 221,85" fill="#3949AB"/>

    <!-- Stage 4: Prototype -->
    <circle cx="248" cy="82" r="18" fill="#FFFFFF" stroke="#3949AB" stroke-width="1.5"/>
    <text x="248" y="79" text-anchor="middle" font-family="Arial, sans-serif" font-size="6" font-weight="bold" fill="#3949AB">Proto-</text>
    <text x="248" y="88" text-anchor="middle" font-family="Arial, sans-serif" font-size="6" font-weight="bold" fill="#3949AB">type</text>
    <rect x="243" y="69" width="7" height="7" fill="none" stroke="#3949AB" stroke-width="0.7" rx="1"/>
    <line x1="245" y1="69" x2="248" y2="66" stroke="#3949AB" stroke-width="0.5"/>
    <line x1="250" y1="69" x2="253" y2="66" stroke="#3949AB" stroke-width="0.5"/>

    <!-- Arrow 4-5 -->
    <line x1="267" y1="82" x2="285" y2="82" stroke="#3949AB" stroke-width="1.2"/>
    <polygon points="285,79 291,82 285,85" fill="#3949AB"/>

    <!-- Stage 5: Test -->
    <circle cx="312" cy="82" r="18" fill="#FFFFFF" stroke="#3949AB" stroke-width="1.5"/>
    <text x="312" y="85" text-anchor="middle" font-family="Arial, sans-serif" font-size="7" font-weight="bold" fill="#3949AB">Test</text>
    <polyline points="306,74 310,78 318,70" fill="none" stroke="#00695C" stroke-width="1.2" stroke-linecap="round"/>

    <!-- Label -->
    <text x="345" y="78" font-family="Arial, sans-serif" font-size="7" fill="#C62828" font-weight="bold">Design</text>
    <text x="345" y="88" font-family="Arial, sans-serif" font-size="7" fill="#C62828" font-weight="bold">Thinking</text>
  </g>

  <!-- Group 3: Brainstorming Techniques -->
  <g opacity="0" data-narration="Key brainstorming techniques include Mind Mapping with a central idea branching outward, Sketching ideas quickly, How Might We questions to reframe challenges, and Crazy Eights for rapid idea generation in eight minutes.">
    <animate attributeName="opacity" from="0" to="1" begin="3.0s" dur="0.5s" fill="freeze"/>

    <text x="16" y="122" font-family="Arial, sans-serif" font-size="10" font-weight="bold" fill="#00695C">Brainstorming Techniques</text>

    <!-- Mind Mapping -->
    <g transform="translate(65,168)">
      <circle cx="0" cy="0" r="16" fill="#3949AB" stroke="#1A237E" stroke-width="1"/>
      <text x="0" y="1" text-anchor="middle" font-family="Arial, sans-serif" font-size="5" fill="#FFFFFF" font-weight="bold">IDEA</text>
      <line x1="14" y1="-8" x2="38" y2="-20" stroke="#E65100" stroke-width="1.2"/>
      <circle cx="38" cy="-20" r="8" fill="#FFF3E0" stroke="#E65100" stroke-width="0.8"/>
      <text x="38" y="-18" text-anchor="middle" font-family="Arial, sans-serif" font-size="4.5" fill="#E65100">User</text>
      <line x1="14" y1="8" x2="38" y2="20" stroke="#00695C" stroke-width="1.2"/>
      <circle cx="38" cy="20" r="8" fill="#E0F2F1" stroke="#00695C" stroke-width="0.8"/>
      <text x="38" y="22" text-anchor="middle" font-family="Arial, sans-serif" font-size="4.5" fill="#00695C">Flow</text>
      <line x1="-14" y1="-8" x2="-38" y2="-18" stroke="#C62828" stroke-width="1.2"/>
      <circle cx="-38" cy="-18" r="8" fill="#FFEBEE" stroke="#C62828" stroke-width="0.8"/>
      <text x="-38" y="-16" text-anchor="middle" font-family="Arial, sans-serif" font-size="4.5" fill="#C62828">Pain</text>
      <line x1="-14" y1="8" x2="-38" y2="18" stroke="#3949AB" stroke-width="1.2"/>
      <circle cx="-38" cy="18" r="8" fill="#E8EAF6" stroke="#3949AB" stroke-width="0.8"/>
      <text x="-38" y="20" text-anchor="middle" font-family="Arial, sans-serif" font-size="4.5" fill="#3949AB">Goal</text>
      <text x="0" y="32" text-anchor="middle" font-family="Arial, sans-serif" font-size="7" font-weight="bold" fill="#3949AB">Mind Mapping</text>
    </g>

    <!-- Sketching -->
    <g transform="translate(175,168)">
      <rect x="-28" y="-24" width="56" height="42" fill="#FFFFFF" stroke="#00695C" stroke-width="1" rx="4" filter="url(#shadow)"/>
      <line x1="-12" y1="8" x2="8" y2="-12" stroke="#E65100" stroke-width="2" stroke-linecap="round"/>
      <polygon points="8,-12 12,-8 6,-6" fill="#E65100"/>
      <line x1="-14" y1="10" x2="-12" y2="8" stroke="#FFD54F" stroke-width="2" stroke-linecap="round"/>
      <line x1="-18" y1="-16" x2="0" y2="-16" stroke="#BDBDBD" stroke-width="0.6"/>
      <line x1="-18" y1="-12" x2="10" y2="-12" stroke="#BDBDBD" stroke-width="0.6"/>
      <line x1="-18" y1="-8" x2="5" y2="-8" stroke="#BDBDBD" stroke-width="0.6"/>
      <text x="0" y="32" text-anchor="middle" font-family="Arial, sans-serif" font-size="7" font-weight="bold" fill="#00695C">Sketching</text>
    </g>

    <!-- How Might We -->
    <g transform="translate(280,168)">
      <rect x="-34" y="-24" width="68" height="42" fill="#FFF3E0" stroke="#E65100" stroke-width="1" rx="6" filter="url(#shadow)"/>
      <text x="0" y="-10" text-anchor="middle" font-family="monospace" font-size="8" font-weight="bold" fill="#E65100">HMW?</text>
      <text x="0" y="2" text-anchor="middle" font-family="Arial, sans-serif" font-size="5.5" fill="#E65100">&quot;How might we</text>
      <text x="0" y="10" text-anchor="middle" font-family="Arial, sans-serif" font-size="5.5" fill="#E65100">improve...?&quot;</text>
      <text x="0" y="32" text-anchor="middle" font-family="Arial, sans-serif" font-size="7" font-weight="bold" fill="#E65100">HMW Questions</text>
    </g>

    <!-- Crazy 8s -->
    <g transform="translate(385,168)">
      <g transform="translate(-22,-24)">
        <rect x="0" y="0" width="10" height="10" fill="#E8EAF6" stroke="#3949AB" stroke-width="0.6" rx="1"/>
        <rect x="12" y="0" width="10" height="10" fill="#E8EAF6" stroke="#3949AB" stroke-width="0.6" rx="1"/>
        <rect x="24" y="0" width="10" height="10" fill="#E8EAF6" stroke="#3949AB" stroke-width="0.6" rx="1"/>
        <rect x="36" y="0" width="10" height="10" fill="#E8EAF6" stroke="#3949AB" stroke-width="0.6" rx="1"/>
        <rect x="0" y="12" width="10" height="10" fill="#E8EAF6" stroke="#3949AB" stroke-width="0.6" rx="1"/>
        <rect x="12" y="12" width="10" height="10" fill="#E8EAF6" stroke="#3949AB" stroke-width="0.6" rx="1"/>
        <rect x="24" y="12" width="10" height="10" fill="#E8EAF6" stroke="#3949AB" stroke-width="0.6" rx="1"/>
        <rect x="36" y="12" width="10" height="10" fill="#E8EAF6" stroke="#3949AB" stroke-width="0.6" rx="1"/>
        <line x1="2" y1="5" x2="8" y2="5" stroke="#3949AB" stroke-width="0.4"/>
        <circle cx="17" cy="5" r="2" fill="none" stroke="#3949AB" stroke-width="0.4"/>
        <rect x="26" y="2" width="6" height="6" fill="none" stroke="#3949AB" stroke-width="0.4"/>
        <line x1="38" y1="2" x2="44" y2="8" stroke="#3949AB" stroke-width="0.4"/>
        <line x1="2" y1="17" x2="8" y2="17" stroke="#3949AB" stroke-width="0.4"/>
        <path d="M14,20 Q17,14 20,20" fill="none" stroke="#3949AB" stroke-width="0.4"/>
        <line x1="26" y1="14" x2="32" y2="20" stroke="#3949AB" stroke-width="0.4"/>
        <circle cx="41" cy="17" r="3" fill="none" stroke="#3949AB" stroke-width="0.4"/>
      </g>
      <circle cx="0" cy="1" r="5" fill="none" stroke="#C62828" stroke-width="0.8"/>
      <line x1="0" y1="1" x2="0" y2="-2" stroke="#C62828" stroke-width="0.6"/>
      <line x1="0" y1="1" x2="2" y2="1" stroke="#C62828" stroke-width="0.6"/>
      <text x="8" y="3" font-family="monospace" font-size="5" fill="#C62828" font-weight="bold">8min</text>
      <text x="0" y="32" text-anchor="middle" font-family="Arial, sans-serif" font-size="7" font-weight="bold" fill="#C62828">Crazy 8s</text>
    </g>
  </g>

  <!-- Group 4: Ideation Methods as Cards -->
  <g opacity="0" data-narration="Popular ideation methods include SCAMPER which uses prompts like Substitute, Combine, Adapt, and Modify. Worst Possible Idea inverts thinking. Brainwriting allows silent written idea generation. And Storyboarding maps out user journeys visually.">
    <animate attributeName="opacity" from="0" to="1" begin="4.5s" dur="0.5s" fill="freeze"/>

    <text x="16" y="218" font-family="Arial, sans-serif" font-size="10" font-weight="bold" fill="#E65100">Ideation Methods</text>

    <!-- Card 1: SCAMPER -->
    <g transform="translate(16,226)">
      <rect x="0" y="0" width="90" height="58" fill="#FFFFFF" stroke="#3949AB" stroke-width="1.2" rx="6" filter="url(#shadow)"/>
      <rect x="0" y="0" width="90" height="14" fill="#3949AB" rx="6"/>
      <rect x="0" y="7" width="90" height="7" fill="#3949AB"/>
      <text x="45" y="10" text-anchor="middle" font-family="Arial, sans-serif" font-size="8" font-weight="bold" fill="#FFFFFF">SCAMPER</text>
      <text x="8" y="24" font-family="monospace" font-size="5" fill="#3949AB">S - Substitute</text>
      <text x="8" y="31" font-family="monospace" font-size="5" fill="#3949AB">C - Combine</text>
      <text x="8" y="38" font-family="monospace" font-size="5" fill="#3949AB">A - Adapt</text>
      <text x="8" y="45" font-family="monospace" font-size="5" fill="#3949AB">M - Modify</text>
      <text x="8" y="52" font-family="monospace" font-size="5" fill="#3949AB">P/E/R ...</text>
    </g>

    <!-- Card 2: Worst Possible Idea -->
    <g transform="translate(116,226)">
      <rect x="0" y="0" width="90" height="58" fill="#FFFFFF" stroke="#C62828" stroke-width="1.2" rx="6" filter="url(#shadow)"/>
      <rect x="0" y="0" width="90" height="14" fill="#C62828" rx="6"/>
      <rect x="0" y="7" width="90" height="7" fill="#C62828"/>
      <text x="45" y="10" text-anchor="middle" font-family="Arial, sans-serif" font-size="7" font-weight="bold" fill="#FFFFFF">Worst Idea</text>
      <!-- X mark icon instead of emoji -->
      <circle cx="45" cy="30" r="8" fill="#FFEBEE" stroke="#C62828" stroke-width="0.8"/>
      <line x1="40" y1="25" x2="50" y2="35" stroke="#C62828" stroke-width="1.5" stroke-linecap="round"/>
      <line x1="50" y1="25" x2="40" y2="35" stroke="#C62828" stroke-width="1.5" stroke-linecap="round"/>
      <text x="45" y="46" text-anchor="middle" font-family="Arial, sans-serif" font-size="5.5" fill="#C62828">Flip bad ideas</text>
      <text x="45" y="53" text-anchor="middle" font-family="Arial, sans-serif" font-size="5.5" fill="#C62828">into good ones</text>
    </g>

    <!-- Card 3: Brainwriting -->
    <g transform="translate(216,226)">
      <rect x="0" y="0" width="90" height="58" fill="#FFFFFF" stroke="#00695C" stroke-width="1.2" rx="6" filter="url(#shadow)"/>
      <rect x="0" y="0" width="90" height="14" fill="#00695C" rx="6"/>
      <rect x="0" y="7" width="90" height="7" fill="#00695C"/>
      <text x="45" y="10" text-anchor="middle" font-family="Arial, sans-serif" font-size="7" font-weight="bold" fill="#FFFFFF">Brainwriting</text>
      <!-- People writing silently as simple icons -->
      <circle cx="25" cy="28" r="4" fill="#E0F2F1" stroke="#00695C" stroke-width="0.6"/>
      <line x1="25" y1="32" x2="25" y2="38" stroke="#00695C" stroke-width="0.6"/>
      <circle cx="45" cy="28" r="4" fill="#E0F2F1" stroke="#00695C" stroke-width="0.6"/>
      <line x1="45" y1="32" x2="45" y2="38" stroke="#00695C" stroke-width="0.6"/>
      <circle cx="65" cy="28" r="4" fill="#E0F2F1" stroke="#00695C" stroke-width="0.6"/>
      <line x1="65" y1="32" x2="65" y2="38" stroke="#00695C" stroke-width="0.6"/>
      <text x="45" y="47" text-anchor="middle" font-family="Arial, sans-serif" font-size="5.5" fill="#00695C">Silent written</text>
      <text x="45" y="54" text-anchor="middle" font-family="Arial, sans-serif" font-size="5.5" fill="#00695C">idea generation</text>
    </g>

    <!-- Card 4: Storyboarding -->
    <g transform="translate(316,226)">
      <rect x="0" y="0" width="90" height="58" fill="#FFFFFF" stroke="#E65100" stroke-width="1.2" rx="6" filter="url(#shadow)"/>
      <rect x="0" y="0" width="90" height="14" fill="#E65100" rx="6"/>
      <rect x="0" y="7" width="90" height="7" fill="#E65100"/>
      <text x="45" y="10" text-anchor="middle" font-family="Arial, sans-serif" font-size="7" font-weight="bold" fill="#FFFFFF">Storyboarding</text>
      <!-- Storyboard frames -->
      <rect x="8" y="20" width="20" height="15" fill="#FFF3E0" stroke="#E65100" stroke-width="0.6" rx="1"/>
      <rect x="34" y="20" width="20" height="15" fill="#FFF3E0" stroke="#E65100" stroke-width="0.6" rx="1"/>
      <rect x="60" y="20" width="20" height="15" fill="#FFF3E0" stroke="#E65100" stroke-width="0.6" rx="1"/>
      <!-- Simple stick figures in frames -->
      <circle cx="18" cy="25" r="2" fill="none" stroke="#E65100" stroke-width="0.5"/>
      <line x1="18" y1="27" x2="18" y2="32" stroke="#E65100" stroke-width="0.5"/>
      <line x1="30" y1="28" x2="34" y2="28" stroke="#E65100" stroke-width="0.8" stroke-dasharray="1,1"/>
      <circle cx="44" cy="25" r="2" fill="none" stroke="#E65100" stroke-width="0.5"/>
      <line x1="44" y1="27" x2="44" y2="32" stroke="#E65100" stroke-width="0.5"/>
      <rect x="42" y="30" width="5" height="3" fill="none" stroke="#E65100" stroke-width="0.4"/>
      <line x1="56" y1="28" x2="60" y2="28" stroke="#E65100" stroke-width="0.8" stroke-dasharray="1,1"/>
      <circle cx="70" cy="25" r="2" fill="none" stroke="#00695C" stroke-width="0.5"/>
      <line x1="70" y1="27" x2="70" y2="32" stroke="#00695C" stroke-width="0.5"/>
      <text x="45" y="45" text-anchor="middle" font-family="Arial, sans-serif" font-size="5.5" fill="#E65100">Map the user</text>
      <text x="45" y="53" text-anchor="middle" font-family="Arial, sans-serif" font-size="5.5" fill="#E65100">journey visually</text>
    </g>
  </g>

  <!-- Group 5: Convergent vs Divergent Thinking (Diamond) -->
  <g opacity="0" data-narration="Ideation uses both divergent and convergent thinking. In the divergent phase, you generate as many ideas as possible expanding outward. In the convergent phase, you filter and select the best ideas, narrowing down to actionable solutions.">
    <animate attributeName="opacity" from="0" to="1" begin="6.0s" dur="0.5s" fill="freeze"/>

    <text x="16" y="304" font-family="Arial, sans-serif" font-size="10" font-weight="bold" fill="#3949AB">Divergent &amp; Convergent Thinking</text>

    <!-- Diamond shape -->
    <g transform="translate(22,312)">
      <!-- Diverge triangle (left) -->
      <polygon points="0,22 120,0 120,44" fill="#FFF3E0" stroke="#E65100" stroke-width="1.2" opacity="0.7"/>
      <text x="55" y="19" text-anchor="middle" font-family="Arial, sans-serif" font-size="7" font-weight="bold" fill="#E65100">DIVERGE</text>
      <text x="55" y="30" text-anchor="middle" font-family="Arial, sans-serif" font-size="5.5" fill="#E65100">Many ideas</text>

      <!-- Small idea dots expanding -->
      <circle cx="30" cy="22" r="2" fill="#E65100"/>
      <circle cx="50" cy="12" r="2" fill="#E65100" opacity="0.7"/>
      <circle cx="50" cy="32" r="2" fill="#E65100" opacity="0.7"/>
      <circle cx="70" cy="6" r="2" fill="#E65100" opacity="0.5"/>
      <circle cx="70" cy="22" r="2" fill="#E65100" opacity="0.5"/>
      <circle cx="70" cy="38" r="2" fill="#E65100" opacity="0.5"/>
      <circle cx="90" cy="3" r="2" fill="#E65100" opacity="0.3"/>
      <circle cx="90" cy="15" r="2" fill="#E65100" opacity="0.3"/>
      <circle cx="90" cy="29" r="2" fill="#E65100" opacity="0.3"/>
      <circle cx="90" cy="41" r="2" fill="#E65100" opacity="0.3"/>

      <!-- Converge triangle (right) -->
      <polygon points="120,0 120,44 240,22" fill="#E0F2F1" stroke="#00695C" stroke-width="1.2" opacity="0.7"/>
      <text x="168" y="19" text-anchor="middle" font-family="Arial, sans-serif" font-size="7" font-weight="bold" fill="#00695C">CONVERGE</text>
      <text x="168" y="30" text-anchor="middle" font-family="Arial, sans-serif" font-size="5.5" fill="#00695C">Best ideas</text>

      <!-- Filtering dots converging -->
      <circle cx="150" cy="5" r="2" fill="#00695C" opacity="0.3"/>
      <circle cx="150" cy="17" r="2" fill="#00695C" opacity="0.5"/>
      <circle cx="150" cy="27" r="2" fill="#00695C" opacity="0.5"/>
      <circle cx="150" cy="39" r="2" fill="#00695C" opacity="0.3"/>
      <circle cx="180" cy="14" r="2" fill="#00695C" opacity="0.6"/>
      <circle cx="180" cy="30" r="2" fill="#00695C" opacity="0.6"/>
      <circle cx="210" cy="20" r="3" fill="#00695C"/>

      <!-- Center line -->
      <line x1="120" y1="-2" x2="120" y2="46" stroke="#3949AB" stroke-width="1" stroke-dasharray="3,2"/>

      <!-- Arrow labels -->
      <text x="120" y="54" text-anchor="middle" font-family="Arial, sans-serif" font-size="6" fill="#3949AB" font-style="italic">Widest point = most ideas</text>

      <!-- Solution star -->
      <polygon points="240,22 243,19 246,22 243,25" fill="#00695C"/>
      <text x="260" y="18" font-family="Arial, sans-serif" font-size="6" font-weight="bold" fill="#00695C">Best</text>
      <text x="260" y="26" font-family="Arial, sans-serif" font-size="6" font-weight="bold" fill="#00695C">Solution</text>
    </g>
  </g>

  <!-- Group 6: Key Principles -->
  <g opacity="0" data-narration="Remember four key principles of effective ideation. Quantity over quality, generate as many ideas as possible. Defer judgment, no criticism during ideation. Build on others ideas to create even better solutions. And go wild, the craziest ideas often lead to breakthrough innovations.">
    <animate attributeName="opacity" from="0" to="1" begin="7.5s" dur="0.5s" fill="freeze"/>

    <text x="16" y="383" font-family="Arial, sans-serif" font-size="10" font-weight="bold" fill="#C62828">Key Principles of Ideation</text>

    <!-- Principle 1 -->
    <g transform="translate(16,388)">
      <circle cx="6" cy="4" r="5" fill="#3949AB"/>
      <text x="6" y="6" text-anchor="middle" font-family="Arial, sans-serif" font-size="6" font-weight="bold" fill="#FFFFFF">1</text>
      <text x="16" y="7" font-family="Arial, sans-serif" font-size="7" fill="#3949AB" font-weight="bold">Quantity over quality</text>
    </g>

    <!-- Principle 2 -->
    <g transform="translate(140,388)">
      <circle cx="6" cy="4" r="5" fill="#00695C"/>
      <text x="6" y="6" text-anchor="middle" font-family="Arial, sans-serif" font-size="6" font-weight="bold" fill="#FFFFFF">2</text>
      <text x="16" y="7" font-family="Arial, sans-serif" font-size="7" fill="#00695C" font-weight="bold">Defer judgment</text>
    </g>

    <!-- Principle 3 -->
    <g transform="translate(250,388)">
      <circle cx="6" cy="4" r="5" fill="#E65100"/>
      <text x="6" y="6" text-anchor="middle" font-family="Arial, sans-serif" font-size="6" font-weight="bold" fill="#FFFFFF">3</text>
      <text x="16" y="7" font-family="Arial, sans-serif" font-size="7" fill="#E65100" font-weight="bold">Build on ideas</text>
    </g>

    <!-- Principle 4 -->
    <g transform="translate(352,388)">
      <circle cx="6" cy="4" r="5" fill="#C62828"/>
      <text x="6" y="6" text-anchor="middle" font-family="Arial, sans-serif" font-size="6" font-weight="bold" fill="#FFFFFF">4</text>
      <text x="16" y="7" font-family="Arial, sans-serif" font-size="7" fill="#C62828" font-weight="bold">Go wild!</text>
    </g>
  </g>
</svg>
