<svg width="420" height="400" data-topic-id="record-both-serial-and-parallel-execution-times">
  <title>Record Both Serial and Parallel Execution Times</title>
  <style>
    body {
      background-image: linear-gradient(to bottom, #66CCCC, #66CCCC 50%, #ADD8E6 50%);
      color: #000;
    }
    text {
      font-size: 18px;
      font-weight: bold;
    }
    .section {
      margin-bottom: 20px;
    }
    .data-narration {
      margin-left: 10px;
    }
  </style>
  <defs>
    <linearGradient id="gradient" x1="0%" y1="0%" x2="100%" y2="0%">
      <stop offset="0%" stop-color="#ADD8E6" stop-opacity="1"/>
      <stop offset="100%" stop-color="#66CCCC" stop-opacity="1"/>
    </linearGradient>
  </defs>
  <rect x="10" y="10" width="400" height="380" style="fill: url(#gradient)"/>
  <path d="M 20 10 C 30 10 40 20 50 30 L 150 30 C 160 30 170 20 180 10 Z" stroke="#000" stroke-width="2"/>
  <g transform="translate(30, 20)">
    <rect x="-20" y="-10" width="60" height="40" style="fill: none" stroke="#000" stroke-width="2"/>
    <text x="0" y="0" data-narration="Serial Execution Time" style="font-size: 18px; font-weight: bold;">Serial Execution Time</text>
    <animateTransform attribute="transform" type="rotate" from="0 50 50" to="360 50 50" dur="10s" repeatCount="indefinite"/>
    <path d="M 0 0 L 50 0 L 50 50 Z" stroke="#000" stroke-width="2"/>
  </g>
  <g transform="translate(220, 20)">
    <rect x="-20" y="-10" width="60" height="40" style="fill: none" stroke="#000" stroke-width="2"/>
    <text x="0" y="0" data-narration="Parallel Execution Time" style="font-size: 18px; font-weight: bold;">Parallel Execution Time</text>
    <animateTransform attribute="transform" type="rotate" from="0 100 50" to="360 100 50" dur="10s" repeatCount="indefinite"/>
    <path d="M 0 0 L 100 0 L 100 50 Z" stroke="#000" stroke-width="2"/>
  </g>
  <g transform="translate(410, 20)">
    <rect x="-20" y="-10" width="60" height="40" style="fill: none" stroke="#000" stroke-width="2"/>
    <text x="0" y="0" data-narration="Synchronization" style="font-size: 18px; font-weight: bold;">Synchronization</text>
    <path d="M 0 0 L 30 20 L 50 40 L 70 20 Z" stroke="#000" stroke-width="2"/>
  </g>
  <g transform="translate(220, 100)">
    <rect x="-20" y="-10" width="60" height="40" style="fill: none" stroke="#000" stroke-width="2"/>
    <text x="0" y="0" data-narration="Barriers" style="font-size: 18px; font-weight: bold;">Barriers</text>
    <animateTransform attribute="transform" type="rotate" from="0 100 70" to="360 100 70" dur="10s" repeatCount="indefinite"/>
    <path d="M 0 0 L 100 0 L 100 40 Z" stroke="#000" stroke-width="2"/>
  </g>
  <g transform="translate(410, 100)">
    <rect x="-20" y="-10" width="60" height="40" style="fill: none" stroke="#000" stroke-width="2"/>
    <text x="0" y="0" data-narration="Load Balancing" style="font-size: 18px; font-weight: bold;">Load Balancing</text>
    <path d="M 0 0 L 70 0 L 90 20 L 110 0 Z" stroke="#000" stroke-width="2"/>
  </g>
  <g transform="translate(30, 180)">
    <rect x="-20" y="-10" width="60" height="40" style="fill: none" stroke="#000" stroke-width="2"/>
    <text x="0" y="0" data-narration="Recording Execution Times" style="font-size: 18px; font-weight: bold;">Recording Execution Times</text>
    <animateTransform attribute="transform" type="rotate" from="0 50 50" to="360 50 50" dur="10s" repeatCount="indefinite"/>
    <path d="M 0 0 L 50 0 L 50 50 Z" stroke="#000" stroke-width="2"/>
  </g>
  <g transform="translate(220, 180)">
    <rect x="-20" y="-10" width="60" height="40" style="fill: none" stroke="#000" stroke-width="2"/>
    <text x="0" y="0" data-narration="Importance of Parallelism" style="font-size: 18px; font-weight: bold;">Importance of Parallelism</text>
    <animateTransform attribute="transform" type="rotate" from="0 100 50" to="360 100 50" dur="10s" repeatCount="indefinite"/>
    <path d="M 0 0 L 100 0 L 100 50 Z" stroke="#000" stroke-width="2"/>
  </g>
  <g transform="translate(410, 180)">
    <rect x="-20" y="-10" width="60" height="40" style="fill: none" stroke="#000" stroke-width="2"/>
    <text x="0" y="0" data-narration="Challenges in Parallel Computing" style="font-size: 18px; font-weight: bold;">Challenges in Parallel Computing</text>
    <animateTransform attribute="transform" type="rotate" from="0 100 70" to="360 100 70" dur="10s" repeatCount="indefinite"/>
    <path d="M 0 0 L 100 0 L 100 40 Z" stroke="#000" stroke-width="2"/>
  </g>
  <g transform="translate(30, 250)">
    <rect x="-20" y="-10" width="60" height="40" style="fill: none" stroke="#000" stroke-width="2"/>
    <text x="0" y="0" data-narration="Real-World Applications" style="font-size: 18px; font-weight: bold;">Real-World Applications</text>
    <animateTransform attribute="transform" type="rotate" from="0 50 50" to="360 50 50" dur="10s" repeatCount="indefinite"/>
    <path d="M 0 0 L 50 0 L 50 50 Z" stroke="#000" stroke-width="2"/>
  </g>
  <g transform="translate(220, 250)">
    <rect x="-20" y="-10" width="60" height="40" style="fill: none" stroke="#000" stroke-width="2"/>
    <text x="0" y="0" data-narration="Benefits of Parallel Computing" style="font-size: 18px; font-weight: bold;">Benefits of Parallel Computing</text>
    <animateTransform attribute="transform" type="rotate" from="0 100 50" to="360 100 50" dur="10s" repeatCount="indefinite"/>
    <path d="M 0 0 L 100 0 L 100 50 Z" stroke="#000" stroke-width="2"/>
  </g>
  <g transform="translate(410, 250)">
    <rect x="-20" y="-10" width="60" height="40" style="fill: none" stroke="#000" stroke-width="2"/>
    <text x="0" y="0" data-narration="Future of Computing" style="font-size: 18px; font-weight: bold;">Future of Computing</text>
    <animateTransform attribute="transform" type="rotate" from="0 100 70" to="360 100 70" dur="10s" repeatCount="indefinite"/>
    <path d="M 0 0 L 100 0 L 100 40 Z" stroke="#000" stroke-width="2"/>
  </g>
  <rect x="10" y="330" width="400" height="50" style="fill: none" stroke="#000" stroke-width="2"/>
  <text x="20" y="340" style="font-size: 18px; font-weight: bold;">Record Both Serial and Parallel Execution Times</text>
</svg>