<svg width="420" height="400" data-topic-id="python-programming-data-science-module-6-text-book-1-chapter-3-32" xmlns="http://www.w3.org/2000/svg">
  <!-- Title -->
  <title>Data Types and Variables in Python</title>
  
  <!-- Gradient Background -->
  <defs>
    <linearGradient id="pastel-gradient" x1="0%" y1="0%" x2="100%" y2="0%">
      <stop offset="0%" stop-color="#CDC8C5" stop-opacity="1"/>
      <stop offset="100%" stop-color="#C9E4CA" stop-opacity="1"/>
    </linearGradient>
  </defs>
  <rect x="10" y="50" width="400" height="300" fill="url(#pastel-gradient)"/>
  
  <!-- Section 1: Integers -->
  <g data-narration="Section 1: Integers">
    <rect x="10" y="100" width="400" height="50" fill="#F9F9F9" rx="5"/>
    <text x="20" y="110" font-size="16" font-family=" Arial" fill="#1B1B1B">Integers</text>
    <animateTransform begin="0s" dur="2s" type="translate" x="20" y="150"/>
    <line x1="20" y1="150" x2="400" y2="150" stroke="#1B1B1B" stroke-width="2"/>
    <text x="20" y="170" font-size="14" font-family="Arial" fill="#1B1B1B">Whole numbers can be positive or negative.</text>
  </g>
  
  <!-- Section 2: Floating Point Numbers -->
  <g data-narration="Section 2: Floating Point Numbers">
    <rect x="10" y="220" width="400" height="50" fill="#F9F9F9" rx="5"/>
    <text x="20" y="230" font-size="16" font-family="Arial" fill="#1B1B1B">Floating Point Numbers</text>
    <animateTransform begin="2s" dur="2s" type="translate" x="20" y="280"/>
    <line x1="20" y1="280" x2="400" y2="280" stroke="#1B1B1B" stroke-width="2"/>
    <text x="20" y="300" font-size="14" font-family="Arial" fill="#1B1B1B">Decimal numbers with a fractional part.</text>
  </g>
  
  <!-- Section 3: Strings -->
  <g data-narration="Section 3: Strings">
    <rect x="10" y="330" width="400" height="50" fill="#F9F9F9" rx="5"/>
    <text x="20" y="340" font-size="16" font-family="Arial" fill="#1B1B1B">Strings</text>
    <animateTransform begin="4s" dur="2s" type="translate" x="20" y="390"/>
    <line x1="20" y1="390" x2="400" y2="390" stroke="#1B1B1B" stroke-width="2"/>
    <text x="20" y="410" font-size="14" font-family="Arial" fill="#1B1B1B">Sequences of characters enclosed in quotes.</text>
  </g>
  
  <!-- Section 4: Boolean Values -->
  <g data-narration="Section 4: Boolean Values">
    <rect x="10" y="450" width="400" height="50" fill="#F9F9F9" rx="5"/>
    <text x="20" y="460" font-size="16" font-family="Arial" fill="#1B1B1B">Boolean Values</text>
    <animateTransform begin="6s" dur="2s" type="translate" x="20" y="510"/>
    <line x1="20" y1="510" x2="400" y2="510" stroke="#1B1B1B" stroke-width="2"/>
    <text x="20" y="530" font-size="14" font-family="Arial" fill="#1B1B1B">True or False values used in conditional statements.</text>
  </g>
  
  <!-- Section 5: Lists -->
  <g data-narration="Section 5: Lists">
    <rect x="10" y="550" width="400" height="50" fill="#F9F9F9" rx="5"/>
    <text x="20" y="560" font-size="16" font-family="Arial" fill="#1B1B1B">Lists</text>
    <animateTransform begin="8s" dur="2s" type="translate" x="20" y="610"/>
    <line x1="20" y1="610" x2="400" y2="610" stroke="#1B1B1B" stroke-width="2"/>
    <text x="20" y="630" font-size="14" font-family="Arial" fill="#1B1B1B">Ordered collections of values of any data type.</text>
  </g>
  
  <!-- Section 6: Tuples -->
  <g data-narration="Section 6: Tuples">
    <rect x="10" y="670" width="400" height="50" fill="#F9F9F9" rx="5"/>
    <text x="20" y="680" font-size="16" font-family="Arial" fill="#1B1B1B">Tuples</text>
    <animateTransform begin="10s" dur="2s" type="translate" x="20" y="730"/>
    <line x1="20" y1="730" x2="400" y2="730" stroke="#1B1B1B" stroke-width="2"/>
    <text x="20" y="750" font-size="14" font-family="Arial" fill="#1B1B1B">Ordered, immutable collections of values of any data type.</text>
  </g>
  
  <!-- Section 7: Dictionaries -->
  <g data-narration="Section 7: Dictionaries">
    <rect x="10" y="850" width="400" height="50" fill="#F9F9F9" rx="5"/>
    <text x="20" y="860" font-size="16" font-family="Arial" fill="#1B1B1B">Dictionaries</text>
    <animateTransform begin="12s" dur="2s" type="translate" x="20" y="910"/>
    <line x1="20" y1="910" x2="400" y2="910" stroke="#1B1B1B" stroke-width="2"/>
    <text x="20" y="930" font-size="14" font-family="Arial" fill="#1B1B1B">Unordered collections of key-value pairs of any data type.</text>
  </g>
  
  <!-- Section 8: Sets -->
  <g data-narration="Section 8: Sets">
    <rect x="10" y="970" width="400" height="50" fill="#F9F9F9" rx="5"/>
    <text x="20" y="980" font-size="16" font-family="Arial" fill="#1B1B1B">Sets</text>
    <animateTransform begin="14s" dur="2s" type="translate" x="20" y="1030"/>
    <line x1="20" y1="1030" x2="400" y2="1030" stroke="#1B1B1B" stroke-width="2"/>
    <text x="20" y="1050" font-size="14" font-family="Arial" fill="#1B1B1B">Unordered collections of unique values of any data type.</text>
  </g>
  
  <!-- Footer -->
  <text x="20" y="375" font-size="16" font-family="Arial" fill="#1B1B1B">Data Types and Variables in Python</text>
</svg>