<svg width="420" height="400" data-topic-id="dynamic-programming-three-basic-examples-the-knapsack-problem-and-memory">
  <defs>
    <linearGradient id="pastel-gradient" x1="0%" y1="0%" x2="100%" y2="0%">
      <stop offset="0%" stop-color="#C7B8EA" stop-opacity="1" />
      <stop offset="50%" stop-color="#C5CAE9" stop-opacity="1" />
      <stop offset="100%" stop-color="#C2E5F5" stop-opacity="1" />
    </linearGradient>
  </defs>

  <title>Chapter 9: Dynamic Programming - Three Basic Examples, The Knapsack Problem and Memory</title>

  <rect x="10" y="20" width="400" height="380" fill="url(#pastel-gradient)" rx="10" data-narration="Introduction to Dynamic Programming" opacity=".9" />

  <g data-narration="Key Characteristics of Dynamic Programming">
    <rect x="10" y="60" width="400" height="50" fill="#E0D8F7" rx="10" />
    <text x="20" y="70" font-size="16" font-family="Arial" fill="#333">Optimal Substructure</text>
    <rect x="10" y="90" width="400" height="50" fill="#E0D8F7" rx="10" />
    <text x="20" y="100" font-size="16" font-family="Arial" fill="#333">Overlapping Subproblems</text>
  </g>

  <g data-narration="Basic Steps of Dynamic Programming">
    <rect x="10" y="150" width="400" height="200" fill="#E0D8F7" rx="10" />
    <g transform="translate(10, 180)">
      <animate attributeName="opacity" begin="0s" dur="2s" repeatCount="indefinite" />
      <path d="M 10 10 L 60 10 L 60 60 L 10 60 Z" fill="#3498DB" stroke="#333" stroke-width="2" />
    </g>
    <g transform="translate(10, 260)">
      <animate attributeName="opacity" begin="2s" dur="2s" repeatCount="indefinite" />
      <path d="M 10 10 L 60 10 L 60 60 L 10 60 Z" fill="#E74C3C" stroke="#333" stroke-width="2" />
    </g>
  </g>

  <g data-narration="Example 1: Fibonacci Series">
    <rect x="10" y="360" width="400" height="30" fill="#F1C40F" rx="10" />
    <animate attributeName="opacity" begin="4s" dur="2s" repeatCount="indefinite" />
    <text x="20" y="370" font-size="16" font-family="Arial" fill="#333">Fibonacci Series</text>
    <path d="M 20 20 L 80 20 L 80 80 L 20 80 Z" fill="#2EC4B5" stroke="#333" stroke-width="2" />
  </g>

  <g data-narration="Fibonacci Series Example Code (Python)">
    <rect x="10" y="400" width="400" height="30" fill="#F1C40F" rx="10" />
    <animate attributeName="opacity" begin="6s" dur="2s" repeatCount="indefinite" />
    <text x="20" y="410" font-size="16" font-family="Arial" fill="#333">Fibonacci Series Example Code</text>
    <path d="M 20 20 L 80 20 L 80 80 L 20 80 Z" fill="#2EC4B5" stroke="#333" stroke-width="2" />
  </g>

  <footer>
    <text x="10" y="420" font-size="16" font-family="Arial" fill="#333">Chapter 9: Dynamic Programming - Three Basic Examples, The Knapsack Problem and Memory</text>
  </footer>
</svg>