<svg width="420" height="400" data-topic-id="statistical-experiments-and-significance-testing">
    <rect x="0" y="0" width="420" height="400" fill="#C7B8EA"/>
    <title>Chapter 3: Statistical Experiments and Significance Testing</title>
    <rect x="50" y="50" width="320" height="300" fill="#ADD8E6"/>
    <rect x="140" y="120" width="240" height="180" fill="#F7D2C4"/>
    <animateTransform attributeName="transform" type="translate" from="0,0" to="0,-100" dur="2s" repeatCount="indefinite"/>
    <g transform="rotate(45 170 100)">
        <rect x="0" y="0" width="20" height="20" fill="#00B3E6" opacity="0"/>
        <text x="10" y="5" text-anchor="middle" font-size="16" fill="#007bff">Definition of Statistical Experiments</text>
        <animateTransform attributeName="transform" type="translate" from="0,0" to="0,-20" dur="1s" repeatCount="indefinite"/>
    </g>
    <g transform="rotate(-45 170 100)">
        <rect x="0" y="0" width="20" height="20" fill="#FFC107" opacity="0"/>
        <text x="10" y="5" text-anchor="middle" font-size="16" fill="#ffc107">Definition of Significance Testing</text>
        <animateTransform attributeName="transform" type="translate" from="0,0" to="0,-20" dur="1s" repeatCount="indefinite"/>
    </g>
    <g transform="rotate(0 170 100)">
        <rect x="0" y="0" width="20" height="20" fill="#1ABC9C" opacity="0"/>
        <text x="10" y="5" text-anchor="middle" font-size="16" fill="#1abc9c">A/B Testing</text>
        <animateTransform attributeName="transform" type="translate" from="0,0" to="0,-20" dur="1s" repeatCount="indefinite"/>
    </g>
    <g transform="rotate(-90 170 100)">
        <rect x="0" y="0" width="20" height="20" fill="#33CC33" opacity="0"/>
        <text x="10" y="5" text-anchor="middle" font-size="16" fill="#33cc33">How A/B Testing Works</text>
        <animateTransform attributeName="transform" type="translate" from="0,0" to="0,-20" dur="1s" repeatCount="indefinite"/>
    </g>
    <g transform="rotate(90 170 100)">
        <rect x="0" y="0" width="20" height="20" fill="#66CCCC" opacity="0"/>
        <text x="10" y="5" text-anchor="middle" font-size="16" fill="#66cccc">Example of A/B Testing</text>
        <animateTransform attributeName="transform" type="translate" from="0,0" to="0,-20" dur="1s" repeatCount="indefinite"/>
    </g>
    <g transform="rotate(0 170 100)">
        <rect x="0" y="0" width="20" height="20" fill="#E91E63" opacity="0"/>
        <text x="10" y="5" text-anchor="middle" font-size="16" fill="#e91e63">Conclusion</text>
        <animateTransform attributeName="transform" type="translate" from="0,0" to="0,-20" dur="1s" repeatCount="indefinite"/>
    </g>
    <rect x="50" y="300" width="320" height="100" fill="#ADD8E6"/>
    <rect x="140" y="260" width="240" height="140" fill="#F7D2C4"/>
    <rect x="50" y="320" width="320" height="80" fill="#C7B8EA"/>
    <g>
        <rect x="-50" y="0" width="100" height="400" fill="#ADD8E6"/>
        <rect x="-140" y="0" width="200" height="400" fill="#F7D2C4"/>
        <rect x="-50" y="0" width="100" height="400" fill="#C7B8EA"/>
    </g>
    <g>
        <rect x="50" y="50" width="320" height="300" fill="#ADD8E6"/>
        <rect x="140" y="120" width="240" height="180" fill="#F7D2C4"/>
        <rect x="50" y="50" width="320" height="300" fill="#C7B8EA"/>
    </g>
    <g>
        <rect x="140" y="120" width="240" height="180" fill="#F7D2C4"/>
        <rect x="50" y="50" width="320" height="300" fill="#ADD8E6"/>
        <rect x="140" y="120" width="240" height="180" fill="#C7B8EA"/>
    </g>
    <g>
        <rect x="50" y="50" width="320" height="300" fill="#ADD8E6"/>
        <rect x="140" y="120" width="240" height="180" fill="#F7D2C4"/>
        <rect x="50" y="50" width="320" height="300" fill="#C7B8EA"/>
    </g>
    <g>
        <rect x="140" y="120" width="240" height="180" fill="#F7D2C4"/>
        <rect x="50" y="50" width="320" height="300" fill="#ADD8E6"/>
        <rect x="140" y="120" width="240" height="180" fill="#C7B8EA"/>
    </g>
    <g>
        <rect x="50" y="50" width="320" height="300" fill="#ADD8E6"/>
        <rect x="140" y="120" width="240" height="180" fill="#F7D2C4"/>
        <rect x="50" y="50" width="320" height="300" fill="#C7B8EA"/>
    </g>
    <g>
        <rect x="140" y="120" width="240" height="180" fill="#F7D2C4"/>
        <rect x="50" y="50" width="320" height="300" fill="#ADD8E6"/>
        <rect x="140" y="120" width="240" height="180" fill="#C7B8EA"/>
    </g>
    <rect x="50" y="320" width="320" height="80" fill="#C7B8EA"/>
    <rect x="140" y="260" width="240" height="140" fill="#F7D2C4"/>
    <rect x="50" y="300" width="320" height="100" fill="#ADD8E6"/>
    <rect x="140" y="260" width="240" height="140" fill="#F7D2C4"/>
    <rect x="50" y="320" width="320" height="80" fill="#C7B8EA"/>
    <g>
        <rect x="-50" y="320" width="100" height="80" fill="#ADD8E6"/>
        <rect x="-140" y="260" width="200" height="140" fill="#F7D2C4"/>
        <rect x="-50" y="320" width="100" height="80" fill="#C7B8EA"/>
    </g>
    <g>
        <rect x="50" y="320" width="320" height="80" fill="#ADD8E6"/>
        <rect x="140" y="260" width="240" height="140" fill="#F7D2C4"/>
        <rect x="50" y="320" width="320" height="80" fill="#C7B8EA"/>
    </g>
    <g>
        <rect x="140" y="260" width="240" height="140" fill="#F7D2C4"/>
        <rect x="50" y="320" width="320" height="80" fill="#ADD8E6"/>
        <rect x="140" y="260" width="240" height="140" fill="#C7B8EA"/>
    </g>
    <g>
        <rect x="50" y="320" width="320" height="80" fill="#ADD8E6"/>
        <rect x="140" y="260" width="240" height="140" fill="#F7D2C4"/>
        <rect x="50" y="320" width="320" height="80" fill="#C7B8EA"/>
    </g>
    <g>
        <rect x="140" y="260" width="240" height="140" fill="#F7D2C4"/>
        <rect x="50" y="320" width="320" height="80" fill="#ADD8E6"/>
        <rect x="140" y="260" width="240" height="140" fill="#C7B8EA"/>
    </g>
    <g>
        <rect x="50" y="320" width="320" height="80" fill="#ADD8E6"/>
        <rect x="140" y="260" width="240" height="140" fill="#F7D2C4"/>
        <rect x="50" y="320" width="320" height="80" fill="#C7B8EA"/>
    </g>
    <g>
        <rect x="50" y="320" width="320" height="80" fill="#ADD8E6"/>
        <rect x="140" y="260" width="240" height="140" fill="#F7D2C4"/>
        <rect x="50" y="320" width="320" height="80" fill="#C7B8EA"/>
    </g>
    <g>
        <rect x="140" y="260" width="240" height="140" fill="#F7D2C4"/>
        <rect x="50" y="320" width="320" height="80" fill="#ADD8E6"/>
        <rect x="140" y="260" width="240" height="140" fill="#C7B8EA"/>
    </g>
    <g>
        <rect x="50" y="320" width="320" height="80" fill="#ADD8E6"/>
        <rect x="140" y="260" width="240" height="140" fill="#F7D2C4"/>
        <rect x="50" y="320" width="320" height="80" fill="#C7B8EA"/>
    </g>
    <g>
        <rect x="140" y="260" width="240" height="140" fill="#F7D2C4"/>
        <rect x="50" y="320" width="320" height="80" fill="#ADD8E6"/>
        <rect x="140" y="260" width="240" height="140" fill="#C7B8EA"/>
    </g>
    <g>
        <rect x="50" y="320" width="320" height="80" fill="#ADD8E6"/>
        <rect x="140" y="260" width="240" height="140" fill="#F7D2C4"/>
        <rect x="50" y="320" width="320" height="80" fill="#C7B8EA"/>
    </g>
    <g>
        <rect x="140" y="260" width="240" height="140" fill="#F7D2C4"/>
        <rect x="50" y="320" width="320" height="80" fill="#ADD8E6"/>
        <rect x="140" y="260" width="240" height="140" fill="#C7B8EA"/>
    </g>
    <g>
        <rect x="50" y="320" width="320" height="80" fill="#ADD8E6"/>
        <rect x="140" y="260" width="240" height="140" fill="#F7D2C4"/>
        <rect x="50" y="320" width="320" height="80" fill="#C7B8EA"/>
    </g>
    <g>
        <rect x="50" y="320" width="320" height="80" fill="#ADD8E6"/>
        <rect x="140" y="260" width="240" height="140" fill="#F7D2C4"/>
        <rect x="50" y="320" width="320" height="80" fill="#C7B8EA"/>
    </g>
    <g>
        <rect x="140" y="260" width="240" height="140" fill="#F7D2C4"/>
        <rect x="50" y="320" width="320" height="80" fill="#ADD8E6"/>
        <rect x="140" y="260" width="240" height="140" fill="#C7B8EA"/>
    </g>
    <g>
        <rect x="140" y="260" width="240" height="140" fill="#F7D2C4"/>
        <rect x="50" y="320" width="320" height="80" fill="#ADD8E6"/>
        <rect x="140" y="260" width="240" height="140" fill="#C7B8EA"/>
    </g>
    <g>
        <rect x="50" y="320" width="320" height="80" fill="#ADD8E6"/>
        <rect x="140" y="260" width="240" height="140" fill="#F7D2C4"/>
        <rect x="50" y="320" width="320" height="80" fill="#C7B8EA"/>
    </g>
    <g>
        <rect x="50" y="320" width="320" height="80" fill="#ADD8E6"/>
        <rect x="140" y="260" width="240" height="140" fill="#F7D2C4"/>
        <rect x="50" y="320" width="320" height="80" fill="#C7B8EA"/>
    </g>
    <g>
        <rect x="140" y="260" width="240" height="140" fill="#F7D2C4"/>
        <rect x="50" y="320" width="320" height="80" fill="#ADD8E6"/>
        <rect x="140" y="260" width="240" height="140" fill="#C7B8EA"/>
    </g>
    <g>
        <rect x="50" y="320" width="320" height="80" fill="#ADD8E6"/>
        <rect x="140" y="260" width="240" height="140" fill="#F7D2C4"/>
        <rect x="50" y="320" width="320" height="80" fill="#C7B8EA"/>
    </g>
    <g>
        <rect x="140" y="260" width="240" height="140" fill="#F7D2C4"/>
        <rect x="50" y="320" width="320" height="80" fill="#ADD8E6"/>
        <rect x="140" y="260" width="240" height="140" fill="#C7B8EA"/>
    </g>
    <g>
        <rect x="50" y="320" width="320" height="80" fill="#ADD8E6"/>
        <rect x="140" y="260" width="240" height="140" fill="#F7D2C4"/>
        <rect x="50" y="320" width="320" height="80" fill="#C7B8EA"/>
    </g>
    <g>
        <rect x="140" y="260" width="240" height="140" fill="#F7D2C4"/>
        <rect x="50" y="320" width="320" height="80" fill="#ADD8E6"/>
        <rect x="140" y="260" width="240" height="140" fill="#C7B8EA"/>
    </g>
    <g>
        <rect x="50" y="320" width="320" height="80" fill="#ADD8E6"/>
        <rect x="140" y="260" width="240" height="140" fill="#F7D2C4"/>
        <rect x="50" y="320" width="320" height="80" fill="#C7B8EA"/>
    </g>
    <g>
        <rect x="140" y="260" width="240" height="140" fill="#F7D2C4"/>
        <rect x="50" y="320" width="320" height="80" fill="#ADD8E6"/>
        <rect x="140" y="260" width="240" height="140" fill="#C7B8EA"/>
    </g>
    <g>
        <rect x="50" y="320" width="320" height="80" fill="#ADD8E6"/>
        <rect x="140" y="260" width="240" height="140" fill="#F7D2C4"/>
        <rect x="50" y="320" width="320" height="80" fill="#C7B8EA"/>
    </g>
</svg>