<svg width="420" height="400" data-topic-id="strategies-and-outcomes">
  <defs>
    <style>
      .title {
        font-size: 24px;
        font-weight: bold;
        color: #2f4f7f;
        text-align: center;
        margin-bottom: 20px;
      }
      .footer {
        font-size: 14px;
        font-weight: normal;
        color: #333;
        text-align: center;
        margin-top: 20px;
      }
    </style>
  </defs>
  <rect x="0" y="0" width="420" height="400" fill="#add8e6" rx="10">
    <animate attributeName="opacity" dur="4s" begin="0s" fill="freeze" />
  </rect>
  <g transform="translate(10, 10)">
    <rect width="400" height="350" fill="#fff" rx="10" />
    <text class="title" x="50%" y="20%" dominant-baseline="middle" text-anchor="middle">Strategies and Outcomes</text>
    <path d="M 10 20 L 10 250 Z" fill="#2f4f7f" stroke="#fff" stroke-width="2" />
    <path d="M 10 250 L 10 350 Z" fill="#2f4f7f" stroke="#fff" stroke-width="2" />
    <path d="M 20 20 L 120 250 Z" fill="#2f4f7f" stroke="#fff" stroke-width="2" />
    <path d="M 30 20 L 120 250 Z" fill="#2f4f7f" stroke="#fff" stroke-width="2" />
    <rect x="50" y="50" width="120" height="150" fill="#f7fcfe" rx="10" data-narration="Strategy" />
    <rect x="220" y="50" width="120" height="150" fill="#f7fcfe" rx="10" data-narration="Outcome" />
    <rect x="50" y="220" width="120" height="150" fill="#f7fcfe" rx="10" data-narration="Mixed Strategy" />
    <rect x="220" y="220" width="120" height="150" fill="#f7fcfe" rx="10" data-narration="Pure Strategy" />
    <g transform="translate(150, 150)">
      <rect width="50" height="20" fill="#8bc34a" rx="5" data-narration="Probability Distribution" />
      <rect width="50" height="20" fill="#f44336" rx="5" data-narration="Expected Value" />
    </g>
    <g transform="translate(250, 150)">
      <rect width="50" height="20" fill="#03a9f4" rx="5" data-narration="Game Payoffs" />
      <rect width="50" height="20" fill="#8bc34a" rx="5" data-narration="Strategy Space" />
    </g>
    <g transform="translate(350, 150)">
      <rect width="50" height="20" fill="#ff9800" rx="5" data-narration="Game Theory" />
      <rect width="50" height="20" fill="#03a9f4" rx="5" data-narration="Mixed Strategies" />
    </g>
    <g transform="translate(10, 350)">
      <text class="footer" x="50%" y="80%" dominant-baseline="middle" text-anchor="middle">Content Created by [Your Name]</text>
    </g>
  </g>
</svg>