<svg xmlns="http://www.w3.org/2000/svg" viewBox="0 0 800 1900">
  <rect width="800" height="1900" fill="#f8f9fa"/>
  
  <defs>
    <linearGradient id="bgGrad" x1="0%" y1="0%" x2="100%" y2="100%">
      <stop offset="0%" style="stop-color:#f8f9fa"/>
      <stop offset="100%" style="stop-color:#e9ecef"/>
    </linearGradient>
    <linearGradient id="blueGrad" x1="0%" y1="0%" x2="100%" y2="100%">
      <stop offset="0%" style="stop-color:#e3f2fd"/>
      <stop offset="100%" style="stop-color:#bbdefb"/>
    </linearGradient>
    <linearGradient id="greenGrad" x1="0%" y1="0%" x2="100%" y2="100%">
      <stop offset="0%" style="stop-color:#e8f5e9"/>
      <stop offset="100%" style="stop-color:#c8e6c9"/>
    </linearGradient>
    <linearGradient id="orangeGrad" x1="0%" y1="0%" x2="100%" y2="100%">
      <stop offset="0%" style="stop-color:#fff3e0"/>
      <stop offset="100%" style="stop-color:#ffe0b2"/>
    </linearGradient>
    <linearGradient id="purpleGrad" x1="0%" y1="0%" x2="100%" y2="100%">
      <stop offset="0%" style="stop-color:#f3e5f5"/>
      <stop offset="100%" style="stop-color:#e1bee7"/>
    </linearGradient>
    <linearGradient id="redGrad" x1="0%" y1="0%" x2="100%" y2="100%">
      <stop offset="0%" style="stop-color:#ffebee"/>
      <stop offset="100%" style="stop-color:#ffcdd2"/>
    </linearGradient>
    <linearGradient id="tealGrad" x1="0%" y1="0%" x2="100%" y2="100%">
      <stop offset="0%" style="stop-color:#e0f2f1"/>
      <stop offset="100%" style="stop-color:#b2dfdb"/>
    </linearGradient>
    <filter id="shadow" x="-20%" y="-20%" width="140%" height="140%">
      <feDropShadow dx="2" dy="3" stdDeviation="3" flood-opacity="0.15"/>
    </filter>
    <marker id="arrowBlue" markerWidth="10" markerHeight="10" refX="9" refY="3" orient="auto" markerUnits="strokeWidth">
      <path d="M0,0 L0,6 L9,3 z" fill="#1976d2"/>
    </marker>
    <marker id="arrowGreen" markerWidth="10" markerHeight="10" refX="9" refY="3" orient="auto" markerUnits="strokeWidth">
      <path d="M0,0 L0,6 L9,3 z" fill="#388e3c"/>
    </marker>
  </defs>
  
  <style>
    @keyframes fadeInSlide {
      from { opacity: 0; transform: translateY(20px); }
      to { opacity: 1; transform: translateY(0); }
    }
    @keyframes scaleIn {
      from { opacity: 0; transform: scale(0.85); }
      to { opacity: 1; transform: scale(1); }
    }
    @keyframes textReveal {
      from { opacity: 0; transform: translateX(-10px); }
      to { opacity: 1; transform: translateX(0); }
    }
    @keyframes pulse {
      0%, 100% { transform: scale(1); }
      50% { transform: scale(1.03); }
    }
    .step { animation: fadeInSlide 0.6s ease-out; }
    .step rect {
      animation: scaleIn 0.5s cubic-bezier(0.34, 1.56, 0.64, 1);
      transform-origin: center;
    }
    .step text { animation: textReveal 0.4s ease-out 0.2s backwards; }
    .formula { font-family: 'Courier New', monospace; font-size: 11px; }
    .title-text { font-family: Arial, sans-serif; font-weight: bold; font-size: 14px; }
    .body-text { font-family: Arial, sans-serif; font-size: 10px; }
    .label-text { font-family: Arial, sans-serif; font-size: 8px; }
  </style>

  <!-- STEP 0: Title -->
  <g class="step" id="step0" data-narration="Software Project Management covers all activities from project initiation through closure to deliver software successfully.">
    <rect x="40" y="20" width="720" height="50" rx="10" fill="url(#blueGrad)" filter="url(#shadow)"/>
    <text x="400" y="52" text-anchor="middle" class="title-text" fill="#1565c0">Activities Covered by Software Project Management</text>
    <text x="400" y="70" text-anchor="middle" class="body-text" fill="#546e7a">2022 Scheme - CSE Branch</text>
  </g>

  <!-- STEP 1: Introduction - What is SPM -->
  <g class="step" id="step1" data-narration="SPM applies knowledge and skills to plan, execute, monitor, and control software projects to meet stakeholder requirements.">
    <rect x="40" y="80" width="720" height="85" rx="8" fill="white" filter="url(#shadow)"/>
    <rect x="40" y="80" width="8" height="85" rx="8" fill="#1976d2"/>
    <text x="60" y="100" class="title-text" fill="#1976d2">What is Software Project Management?</text>
    <text x="60" y="118" class="body-text" fill="#37474f">The application of knowledge, skills, tools, and techniques to plan, execute,</text>
    <text x="60" y="132" class="body-text" fill="#37474f">monitor, and control software development projects to meet stakeholder requirements.</text>
    <text x="60" y="150" class="label-text" fill="#78909c">SPM addresses unique challenges: time, cost, quality, and changing requirements</text>
  </g>

  <!-- STEP 2: Why SPM Matters -->
  <g class="step" id="step2" data-narration="Research shows significant percentage of software projects fail due to inadequate management practices, making SPM crucial.">
    <rect x="40" y="175" width="720" height="85" rx="8" fill="white" filter="url(#shadow)"/>
    <rect x="40" y="175" width="8" height="85" rx="8" fill="#ff9800"/>
    <text x="60" y="195" class="title-text" fill="#e65100">Why SPM Matters</text>
    <text x="60" y="215" class="body-text" fill="#37474f">• Ensures projects delivered on time, within budget, with required quality</text>
    <text x="60" y="230" class="body-text" fill="#37474f">• Research shows significant % of software projects fail due to poor management</text>
    <text x="60" y="245" class="label-text" fill="#78909c">Essential for academic success and professional practice in software industry</text>
  </g>

  <!-- STEP 3: Project Initiation & Planning -->
  <g class="step" id="step3" data-narration="Project initiation identifies the need for a new system and defines scope. Planning creates detailed project plans with WBS and schedules.">
    <rect x="40" y="270" width="720" height="95" rx="8" fill="white" filter="url(#shadow)"/>
    <rect x="40" y="270" width="8" height="95" rx="8" fill="#4caf50"/>
    <text x="60" y="290" class="title-text" fill="#2e7d32">1. Project Initiation and Planning</text>
    <rect x="60" y="300" width="140" height="50" rx="5" fill="url(#greenGrad)"/>
    <text x="80" y="318" class="body-text" fill="#2e7d32" font-weight="bold">Initiation</text>
    <text x="80" y="333" class="label-text" fill="#558b2f">• Identify need</text>
    <text x="80" y="343" class="label-text" fill="#558b2f">• Feasibility study</text>
    <path d="M210 325 L250 325" stroke="#4caf50" stroke-width="2" marker-end="url(#arrowGreen)"/>
    <rect x="260" y="300" width="180" height="50" rx="5" fill="url(#greenGrad)"/>
    <text x="280" y="318" class="body-text" fill="#2e7d32" font-weight="bold">Planning</text>
    <text x="280" y="333" class="label-text" fill="#558b2f">• Work Breakdown Structure</text>
    <text x="280" y="343" class="label-text" fill="#558b2f">• Schedules &amp; Resource Allocation</text>
    <text x="450" y="318" class="label-text" fill="#78909c">Foundation for all subsequent activities</text>
  </g>

  <!-- STEP 4: Project Estimation -->
  <g class="step" id="step4" data-narration="Project estimation predicts effort, duration, and cost using techniques like Function Points, COCOMO, and story points.">
    <rect x="40" y="375" width="720" height="100" rx="8" fill="white" filter="url(#shadow)"/>
    <rect x="40" y="375" width="8" height="100" rx="8" fill="#9c27b0"/>
    <text x="60" y="395" class="title-text" fill="#7b1fa2">2. Project Estimation Activities</text>
    <text x="60" y="415" class="body-text" fill="#37474f">Predicting effort (person-hours), duration (calendar time), and cost (financial resources)</text>
    <rect x="60" y="425" width="330" height="40" rx="5" fill="url(#purpleGrad)"/>
    <text x="70" y="442" class="label-text" fill="#6a1b9a">Estimation Techniques:</text>
    <text x="200" y="442" class="label-text" fill="#6a1b9a">• Function Point Analysis</text>
    <text x="320" y="442" class="label-text" fill="#6a1b9a">• COCOMO</text>
    <text x="70" y="456" class="label-text" fill="#6a1b9a">• Story Points</text>
    <text x="160" y="456" class="label-text" fill="#6a1b9a">• Analogous Estimation</text>
    <text x="420" y="440" class="formula" fill="#7b1fa2">Effort = FP / Productivity</text>
    <text x="420" y="455" class="body-text" fill="#37474f">Accuracy directly impacts project success</text>
  </g>

  <!-- STEP 5: Resource Management -->
  <g class="step" id="step5" data-narration="Resource management identifies, acquires, and deploys human, physical, and intangible resources needed for project success.">
    <rect x="40" y="485" width="720" height="90" rx="8" fill="white" filter="url(#shadow)"/>
    <rect x="40" y="485" width="8" height="90" rx="8" fill="#00acc1"/>
    <text x="60" y="505" class="title-text" fill="#00838f">3. Resource Management</text>
    <rect x="60" y="518" width="150" height="50" rx="5" fill="url(#tealGrad)"/>
    <text x="75" y="535" class="label-text" fill="#00695c">Human Resources</text>
    <text x="75" y="548" class="label-text" fill="#00695c">• Team formation</text>
    <text x="75" y="560" class="label-text" fill="#00695c">• Role assignment</text>
    <rect x="220" y="518" width="150" height="50" rx="5" fill="url(#tealGrad)"/>
    <text x="235" y="535" class="label-text" fill="#00695c">Physical Resources</text>
    <text x="235" y="548" class="label-text" fill="#00695c">• Hardware/Software</text>
    <text x="235" y="560" class="label-text" fill="#00695c">• Facilities</text>
    <rect x="380" y="518" width="150" height="50" rx="5" fill="url(#tealGrad)"/>
    <text x="395" y="535" class="label-text" fill="#00695c">Intangible Resources</text>
    <text x="395" y="548" class="label-text" fill="#00695c">• Knowledge</text>
    <text x="395" y="560" class="label-text" fill="#00695c">• Information</text>
    <text x="550" y="535" class="body-text" fill="#37474f">Resource leveling &amp;</text>
    <text x="550" y="550" class="body-text" fill="#37474f">smoothing techniques</text>
  </g>

  <!-- STEP 6: Risk Management -->
  <g class="step" id="step6" data-narration="Risk management proactively identifies, analyzes, and responds to potential risks through mitigation, transfer, avoidance, or acceptance.">
    <rect x="40" y="585" width="720" height="105" rx="8" fill="white" filter="url(#shadow)"/>
    <rect x="40" y="585" width="8" height="105" rx="8" fill="#f44336"/>
    <text x="60" y="605" class="title-text" fill="#c62828">4. Risk Management</text>
    <text x="60" y="625" class="body-text" fill="#37474f">Proactive process: Identify → Analyze → Respond → Monitor</text>
    <rect x="60" y="635" width="680" height="45" rx="5" fill="url(#redGrad)"/>
    <text x="75" y="655" class="label-text" fill="#c62828" font-weight="bold">Risk Response Strategies:</text>
    <text x="200" y="655" class="label-text" fill="#c62828">MITIGATE</text>
    <text x="290" y="655" class="label-text" fill="#c62828">TRANSFER</text>
    <text x="390" y="655" class="label-text" fill="#c62828">AVOID</text>
    <text x="470" y="655" class="label-text" fill="#c62828">ACCEPT</text>
    <text x="560" y="655" class="label-text" fill="#78909c">Continuous process</text>
    <line x1="60" y1="690" x2="740" y2="690" stroke="#ffcdd2" stroke-width="1" stroke-dasharray="5,5"/>
    <text x="60" y="705" class="label-text" fill="#78909c">Technical | Requirements | Personnel | External | Organizational</text>
  </g>

  <!-- STEP 7: Project Scheduling & Tracking -->
  <g class="step" id="step7" data-narration="Project scheduling uses Gantt charts, CPM, and PERT. Tracking monitors progress against plans using Earned Value Management.">
    <rect x="40" y="700" width="720" height="95" rx="8" fill="white" filter="url(#shadow)"/>
    <rect x="40" y="700" width="8" height="95" rx="8" fill="#ff5722"/>
    <text x="60" y="720" class="title-text" fill="#d84315">5. Project Scheduling and Tracking</text>
    <rect x="60" y="732" width="250" height="50" rx="5" fill="url(#orangeGrad)"/>
    <text x="75" y="750" class="body-text" fill="#e65100" font-weight="bold">Scheduling Techniques</text>
    <text x="75" y="765" class="label-text" fill="#e65100">• Gantt Charts</text>
    <text x="160" y="765" class="label-text" fill="#e65100">• CPM</text>
    <text x="210" y="765" class="label-text" fill="#e65100">• PERT</text>
    <rect x="320" y="732" width="250" height="50" rx="5" fill="url(#orangeGrad)"/>
    <text x="335" y="750" class="body-text" fill="#e65100" font-weight="bold">Tracking Methods</text>
    <text x="335" y="765" class="label-text" fill="#e65100">• Progress Monitoring</text>
    <text x="450" y="765" class="label-text" fill="#e65100">• Earned Value Management</text>
    <text x="590" y="755" class="body-text" fill="#37474f">EVM integrates</text>
    <text x="590" y="770" class="body-text" fill="#37474f">cost, schedule, scope</text>
  </g>

  <!-- STEP 8: Quality Management -->
  <g class="step" id="step8" data-narration="Quality management ensures software meets standards through planning, assurance (process), and control (product inspection).">
    <rect x="40" y="805" width="720" height="95" rx="8" fill="white" filter="url(#shadow)"/>
    <rect x="40" y="805" width="8" height="95" rx="8" fill="#3f51b5"/>
    <text x="60" y="825" class="title-text" fill="#283593">6. Quality Management</text>
    <rect x="60" y="838" width="210" height="52" rx="5" fill="url(#blueGrad)"/>
    <text x="80" y="855" class="body-text" fill="#1565c0" font-weight="bold">Quality Planning</text>
    <text x="80" y="870" class="label-text" fill="#1565c0">Define quality standards</text>
    <text x="80" y="882" class="label-text" fill="#1565c0">and procedures</text>
    <path d="M280 864 L310 864" stroke="#3f51b5" stroke-width="2" marker-end="url(#arrowBlue)"/>
    <rect x="320" y="838" width="210" height="52" rx="5" fill="url(#blueGrad)"/>
    <text x="340" y="855" class="body-text" fill="#1565c0" font-weight="bold">Quality Assurance</text>
    <text x="340" y="870" class="label-text" fill="#1565c0">Process-oriented</text>
    <text x="340" y="882" class="label-text" fill="#1565c0">Prevention focus</text>
    <path d="M540 864 L570 864" stroke="#3f51b5" stroke-width="2" marker-end="url(#arrowBlue)"/>
    <rect x="580" y="838" width="170" height="52" rx="5" fill="url(#blueGrad)"/>
    <text x="600" y="855" class="body-text" fill="#1565c0" font-weight="bold">Quality Control</text>
    <text x="600" y="870" class="label-text" fill="#1565c0">Product-oriented</text>
    <text x="600" y="882" class="label-text" fill="#1565c0">Inspection focus</text>
  </g>

  <!-- STEP 9: Configuration Management -->
  <g class="step" id="step9" data-narration="Configuration management tracks and controls changes to software artifacts, preventing chaos in multi-developer projects.">
    <rect x="40" y="910" width="720" height="85" rx="8" fill="white" filter="url(#shadow)"/>
    <rect x="40" y="910" width="8" height="85" rx="8" fill="#009688"/>
    <text x="60" y="930" class="title-text" fill="#00695c">7. Configuration Management</text>
    <text x="60" y="950" class="body-text" fill="#37474f">Four Key Activities:</text>
    <rect x="60" y="962" width="155" height="25" rx="4" fill="url(#tealGrad)"/>
    <text x="70" y="978" class="label-text" fill="#00695c">Identification</text>
    <rect x="225" y="962" width="155" height="25" rx="4" fill="url(#tealGrad)"/>
    <text x="235" y="978" class="label-text" fill="#00695c">Control</text>
    <rect x="390" y="962" width="155" height="25" rx="4" fill="url(#tealGrad)"/>
    <text x="400" y="978" class="label-text" fill="#00695c">Status Accounting</text>
    <rect x="555" y="962" width="155" height="25" rx="4" fill="url(#tealGrad)"/>
    <text x="565" y="978" class="label-text" fill="#00695c">Auditing</text>
  </g>

  <!-- STEP 10: Communication Management -->
  <g class="step" id="step10" data-narration="Communication management ensures efficient information exchange among stakeholders through planned channels and regular meetings.">
    <rect x="40" y="1005" width="720" height="80" rx="8" fill="white" filter="url(#shadow)"/>
    <rect x="40" y="1005" width="8" height="80" rx="8" fill="#8e24aa"/>
    <text x="60" y="1025" class="title-text" fill="#6a1b9a">8. Communication Management</text>
    <rect x="60" y="1038" width="230" height="38" rx="5" fill="url(#purpleGrad)"/>
    <text x="75" y="1053" class="label-text" fill="#6a1b9a">Identify stakeholders</text>
    <text x="75" y="1068" class="label-text" fill="#6a1b9a">determine communication needs</text>
    <rect x="300" y="1038" width="200" height="38" rx="5" fill="url(#purpleGrad)"/>
    <text x="315" y="1053" class="label-text" fill="#6a1b9a">Develop communication</text>
    <text x="315" y="1068" class="label-text" fill="#6a1b9a">plan (what, when, who)</text>
    <rect x="510" y="1038" width="240" height="38" rx="5" fill="url(#purpleGrad)"/>
    <text x="525" y="1053" class="label-text" fill="#6a1b9a">Regular meetings, reports,</text>
    <text x="525" y="1068" class="label-text" fill="#6a1b9a">collaboration tools</text>
  </g>

  <!-- STEP 11: Project Closure -->
  <g class="step" id="step11" data-narration="Project closure formally completes the project through delivery, post-project reviews, and documenting lessons learned.">
    <rect x="40" y="1095" width="720" height="80" rx="8" fill="white" filter="url(#shadow)"/>
    <rect x="40" y="1095" width="8" height="80" rx="8" fill="#5d4037"/>
    <text x="60" y="1115" class="title-text" fill="#3e2723">9. Project Closure</text>
    <rect x="60" y="1128" width="180" height="38" rx="5" fill="#efebe9"/>
    <text x="75" y="1143" class="label-text" fill="#5d4037">Deliver final product</text>
    <text x="75" y="1158" class="label-text" fill="#5d4037">to client</text>
    <rect x="250" y="1128" width="180" height="38" rx="5" fill="#efebe9"/>
    <text x="265" y="1143" class="label-text" fill="#5d4037">Post-project reviews</text>
    <text x="265" y="1158" class="label-text" fill="#5d4037">(retrospectives)</text>
    <rect x="440" y="1128" width="180" height="38" rx="5" fill="#efebe9"/>
    <text x="455" y="1143" class="label-text" fill="#5d4037">Document lessons</text>
    <text x="455" y="1158" class="label-text" fill="#5d4037">learned</text>
    <rect x="630" y="1128" width="120" height="38" rx="5" fill="#efebe9"/>
    <text x="645" y="1143" class="label-text" fill="#5d4037">Release</text>
    <text x="645" y="1158" class="label-text" fill="#5d4037">archive resources</text>
  </g>

  <!-- STEP 12: Example - Function Point Analysis -->
  <g class="step" id="step12" data-narration="Function Point Analysis estimates effort: 50 FP at 20 FP/person-month yields 2.5 person-months, costing approximately Rs 2,10,000.">
    <rect x="40" y="1185" width="720" height="105" rx="8" fill="white" filter="url(#shadow)"/>
    <rect x="40" y="1185" width="8" height="105" rx="8" fill="#1976d2"/>
    <text x="60" y="1205" class="title-text" fill="#1565c0">Example 1: Function Point Analysis (E-Commerce Project)</text>
    <text x="60" y="1225" class="body-text" fill="#37474f">50 Function Points estimated with productivity rate of 20 FP/person-month</text>
    <rect x="60" y="1235" width="320" height="45" rx="5" fill="url(#blueGrad)"/>
    <text x="75" y="1252" class="formula" fill="#1565c0">Effort = FP / Productivity = 50 / 20 = 2.5 person-months</text>
    <text x="75" y="1268" class="formula" fill="#1565c0">Labor Cost = 2.5 x Rs 50,000 = Rs 1,25,000</text>
    <rect x="390" y="1235" width="360" height="45" rx="5" fill="url(#blueGrad)"/>
    <text x="405" y="1252" class="formula" fill="#1565c0">Infrastructure: Rs 50,000 + Contingency (20%): Rs 35,000</text>
    <text x="405" y="1268" class="formula" fill="#1565c0">Total Project Cost Estimate: Rs 2,10,000</text>
  </g>

  <!-- STEP 13: Example - Risk Management -->
  <g class="step" id="step13" data-narration="Risk response strategies include cross-training, documentation, external consultants, and contingency plans for schedule adjustments.">
    <rect x="40" y="1300" width="720" height="90" rx="8" fill="white" filter="url(#shadow)"/>
    <rect x="40" y="1300" width="8" height="90" rx="8" fill="#f44336"/>
    <text x="60" y="1320" class="title-text" fill="#c62828">Example 2: Risk Management (Mobile App Development)</text>
    <text x="60" y="1340" class="body-text" fill="#37474f">Risk: Key developer unavailability (Probability: 40%, Impact: High - 2 week delay)</text>
    <rect x="60" y="1352" width="680" height="28" rx="4" fill="url(#redGrad)"/>
    <text x="75" y="1368" class="label-text" fill="#c62828">MITIGATE: Cross-train team, maintain documentation, establish external consultant relationships</text>
    <rect x="60" y="1385" width="680" height="1" stroke="#ffcdd2" stroke-dasharray="4,2"/>
    <rect x="60" y="1392" width="680" height="1" stroke="#ffcdd2" stroke-dasharray="4,2"/>
    <text x="75" y="1408" class="label-text" fill="#78909c">CONTINGENCY: Reallocate work, adjust schedule if risk materializes</text>
  </g>

  <!-- STEP 14: Example - Earned Value Analysis -->
  <g class="step" id="step14" data-narration="EVM shows project behind schedule (SPI=0.8) and over budget (CPI=0.89). EAC predicts Rs 12,36,000 needed to complete.">
    <rect x="40" y="1400" width="720" height="95" rx="8" fill="white" filter="url(#shadow)"/>
    <rect x="40" y="1400" width="8" height="95" rx="8" fill="#ff9800"/>
    <text x="60" y="1420" class="title-text" fill="#e65100">Example 3: Earned Value Analysis (Rs 10L Project, Month 5)</text>
    <rect x="60" y="1432" width="210" height="53" rx="5" fill="url(#orangeGrad)"/>
    <text x="75" y="1448" class="formula" fill="#e65100">PV = Rs 5,00,000</text>
    <text x="75" y="1463" class="formula" fill="#e65100">EV = Rs 4,00,000</text>
    <text x="75" y="1478" class="formula" fill="#e65100">AC = Rs 4,50,000</text>
    <rect x="280" y="1432" width="230" height="53" rx="5" fill="url(#orangeGrad)"/>
    <text x="295" y="1448" class="formula" fill="#e65100">SPI = EV/PV = 0.8</text>
    <text x="295" y="1463" class="formula" fill="#e65100">CPI = EV/AC = 0.89</text>
    <text x="295" y="1478" class="body-text" fill="#e65100">Behind schedule, over budget!</text>
    <rect x="520" y="1432" width="220" height="53" rx="5" fill="url(#orangeGrad)"/>
    <text x="535" y="1448" class="formula" fill="#e65100">EAC = BAC/CPI</text>
    <text x="535" y="1463" class="formula" fill="#e65100">= Rs 10,00,000/0.89</text>
    <text x="535" y="1478" class="formula" fill="#e65100">= Rs 12,36,000</text>
  </g>

  <!-- STEP 15: Key Formulas Summary -->
  <g class="step" id="step15" data-narration="Key formulas: Function Points, Effort, SPI, CPI, EAC, and ETC - essential for SPM exam numerical problems.">
    <rect x="40" y="1505" width="720" height="120" rx="8" fill="white" filter="url(#shadow)"/>
    <rect x="40" y="1505" width="8" height="120" rx="8" fill="#7b1fa2"/>
    <text x="60" y="1525" class="title-text" fill="#6a1b9a">KEY FORMULAS SUMMARY</text>
    <rect x="60" y="1538" width="340" height="75" rx="5" fill="url(#purpleGrad)"/>
    <text x="75" y="1555" class="formula" fill="#6a1b9a">Function Points: FP = Count x [0.65 + 0.01x(VAF)]</text>
    <text x="75" y="1573" class="formula" fill="#6a1b9a">Effort (person-months) = FP / Productivity Rate</text>
    <text x="75" y="1591" class="formula" fill="#6a1b9a">Cost = Effort x Rate + Infrastructure + Contingency</text>
    <rect x="410" y="1538" width="340" height="75" rx="5" fill="url(#purpleGrad)"/>
    <text x="425" y="1555" class="formula" fill="#6a1b9a">SPI = EV / PV (Schedule Performance Index)</text>
    <text x="425" y="1573" class="formula" fill="#6a1b9a">CPI = EV / AC (Cost Performance Index)</text>
    <text x="425" y="1591" class="formula" fill="#6a1b9a">EAC = BAC / CPI, ETC = EAC - AC</text>
  </g>

  <!-- STEP 16: Exam Tips & Common Mistakes -->
  <g class="step" id="step16" data-narration="Remember: QA is process-oriented (prevention), QC is product-oriented (inspection). Practice EVM numerical problems for exams.">
    <rect x="40" y="1635" width="720" height="105" rx="8" fill="white" filter="url(#shadow)"/>
    <rect x="40" y="1635" width="8" height="105" rx="8" fill="#388e3c"/>
    <text x="60" y="1655" class="title-text" fill="#2e7d32">EXAM TIPS and COMMON MISTAKES</text>
    <rect x="60" y="1668" width="330" height="62" rx="5" fill="url(#greenGrad)"/>
    <text x="75" y="1683" class="label-text" fill="#2e7d32" font-weight="bold">COMMON MISTAKES:</text>
    <text x="75" y="1698" class="label-text" fill="#2e7d32">• Confusing QA (process/prevention) with QC (product/inspection)</text>
    <text x="75" y="1713" class="label-text" fill="#2e7d32">• Treating risk management as one-time activity</text>
    <text x="75" y="1723" class="label-text" fill="#2e7d32">• Skipping project closure and lessons learned</text>
    <rect x="400" y="1668" width="350" height="62" rx="5" fill="url(#greenGrad)"/>
    <text x="415" y="1683" class="label-text" fill="#2e7d32" font-weight="bold">EXAM TIPS:</text>
    <text x="415" y="1698" class="label-text" fill="#2e7d32">• 5 process groups: Initiating, Planning, Executing,</text>
    <text x="415" y="1713" class="label-text" fill="#2e7d32">  Monitoring and Controlling, Closing</text>
    <text x="415" y="1723" class="label-text" fill="#2e7d32">• SPI/CPI less than 1 = behind schedule/over budget</text>
  </g>

  <!-- STEP 17: Summary -->
  <g class="step" id="step17" data-narration="SPM activities span the entire project lifecycle, integrating estimation, risk, quality, configuration, communication, and closure.">
    <rect x="40" y="1750" width="720" height="85" rx="8" fill="url(#blueGrad)" filter="url(#shadow)"/>
    <text x="400" y="1775" text-anchor="middle" class="title-text" fill="#1565c0">SUMMARY</text>
    <text x="400" y="1795" text-anchor="middle" class="body-text" fill="#37474f">9 Key SPM Activities: Initiation Planning Estimation Resource Risk</text>
    <text x="400" y="1812" text-anchor="middle" class="body-text" fill="#37474f">Scheduling Quality Configuration Communication Closure</text>
    <text x="400" y="1830" text-anchor="middle" class="label-text" fill="#78909c">All activities documented and integrated for successful project delivery</text>
  </g>
</svg>