<svg width="420" height="400" data-topic-id="switching-packet-switching-and-its-types">
  <title>Switching Packet Switching And Its Types</title>
  <defs>
    <linearGradient id="grad" x1="0%" y1="0%" x2="100%" y2="0%">
      <stop offset="0%" stop-color="#8e24aa" stop-opacity="1"/>
      <stop offset="100%" stop-color="#34a85a" stop-opacity="1"/>
    </linearGradient>
  </defs>
  <rect x="10" y="10" width="400" height="360" fill="url(#grad)"/>
  <g transform="translate(20, 50)">
    <rect width="150" height="40" fill="#fff" rx="5">
      <text x="5" y="10" font-size="16" font-weight="bold" text-anchor="start">Packet Switching</text>
    </rect>
    <rect width="150" height="40" fill="#fff" rx="5" opacity="0.5" transform="translate(0, 50)">
      <text x="5" y="10" font-size="16" font-weight="bold" text-anchor="start">Definition and Explanation</text>
    </rect>
    <rect width="150" height="40" fill="#fff" rx="5" opacity="0.5" transform="translate(0, 100)">
      <text x="5" y="10" font-size="16" font-weight="bold" text-anchor="start">Types of Packet Switching</text>
    </rect>
    <rect width="150" height="40" fill="#fff" rx="5" opacity="0.5" transform="translate(0, 150)">
      <text x="5" y="10" font-size="16" font-weight="bold" text-anchor="start">Store-and-Forward Switching</text>
    </rect>
    <rect width="150" height="40" fill="#fff" rx="5" opacity="0.5" transform="translate(0, 200)">
      <text x="5" y="10" font-size="16" font-weight="bold" text-anchor="start">Circuit Switching</text>
    </rect>
    <rect width="150" height="40" fill="#fff" rx="5" opacity="0.5" transform="translate(0, 250)">
      <text x="5" y="10" font-size="16" font-weight="bold" text-anchor="start">Comparison</text>
    </rect>
  </g>
  <animate transform="translate(0, 330) rotate(360)" dur="10s" repeatCount="indefinite"/>
  <animate transform="translate(0, 330) rotate(360)" dur="10s" repeatCount="indefinite"/>
  <animate transform="translate(0, 330) rotate(360)" dur="10s" repeatCount="indefinite"/>
  <animate transform="translate(0, 330) rotate(360)" dur="10s" repeatCount="indefinite"/>
  <animate transform="translate(0, 330) rotate(360)" dur="10s" repeatCount="indefinite"/>
  <animate transform="translate(0, 330) rotate(360)" dur="10s" repeatCount="indefinite"/>
  <g>
    <path d="M 20,10 L 70,10" stroke="#000" stroke-width="2" fill="none"/>
    <path d="M 20,30 L 70,30" stroke="#000" stroke-width="2" fill="none"/>
    <path d="M 20,50 L 70,50" stroke="#000" stroke-width="2" fill="none"/>
    <path d="M 20,70 L 70,70" stroke="#000" stroke-width="2" fill="none"/>
    <path d="M 20,90 L 70,90" stroke="#000" stroke-width="2" fill="none"/>
  </g>
  <g>
    <path d="M 20,110 L 70,110" stroke="#000" stroke-width="2" fill="none"/>
    <path d="M 20,130 L 70,130" stroke="#000" stroke-width="2" fill="none"/>
    <path d="M 20,150 L 70,150" stroke="#000" stroke-width="2" fill="none"/>
    <path d="M 20,170 L 70,170" stroke="#000" stroke-width="2" fill="none"/>
    <path d="M 20,190 L 70,190" stroke="#000" stroke-width="2" fill="none"/>
  </g>
  <footer>
    <text x="190" y="350" font-size="16" text-anchor="start">Switching Packet Switching And Its Types</text>
  </footer>
</svg>