<svg xmlns="http://www.w3.org/2000/svg" viewBox="0 0 800 1700">
  <defs>
    <linearGradient id="titleGrad" x1="0%" y1="0%" x2="100%" y2="100%">
      <stop offset="0%" style="stop-color:#1976d2"/>
      <stop offset="100%" style="stop-color:#1565c0"/>
    </linearGradient>
    <linearGradient id="blueGrad" x1="0%" y1="0%" x2="100%" y2="100%">
      <stop offset="0%" style="stop-color:#e3f2fd"/>
      <stop offset="100%" style="stop-color:#bbdefb"/>
    </linearGradient>
    <linearGradient id="greenGrad" x1="0%" y1="0%" x2="100%" y2="100%">
      <stop offset="0%" style="stop-color:#e8f5e9"/>
      <stop offset="100%" style="stop-color:#c8e6c9"/>
    </linearGradient>
    <linearGradient id="orangeGrad" x1="0%" y1="0%" x2="100%" y2="100%">
      <stop offset="0%" style="stop-color:#fff3e0"/>
      <stop offset="100%" style="stop-color:#ffe0b2"/>
    </linearGradient>
    <linearGradient id="purpleGrad" x1="0%" y1="0%" x2="100%" y2="100%">
      <stop offset="0%" style="stop-color:#f3e5f5"/>
      <stop offset="100%" style="stop-color:#e1bee7"/>
    </linearGradient>
    <linearGradient id="redGrad" x1="0%" y1="0%" x2="100%" y2="100%">
      <stop offset="0%" style="stop-color:#ffebee"/>
      <stop offset="100%" style="stop-color:#ffcdd2"/>
    </linearGradient>
    <filter id="shadow" x="-20%" y="-20%" width="140%" height="140%">
      <feDropShadow dx="2" dy="2" stdDeviation="3" flood-color="#00000033"/>
    </filter>
    <marker id="arrowBlue" markerWidth="10" markerHeight="10" refX="9" refY="3" orient="auto">
      <path d="M0,0 L0,6 L9,3 z" fill="#1976d2"/>
    </marker>
    <marker id="arrowGreen" markerWidth="10" markerHeight="10" refX="9" refY="3" orient="auto">
      <path d="M0,0 L0,6 L9,3 z" fill="#388e3c"/>
    </marker>
  </defs>
  
  <style>
    @keyframes fadeInSlide {
      from { opacity: 0; transform: translateY(20px); }
      to { opacity: 1; transform: translateY(0); }
    }
    @keyframes scaleIn {
      from { opacity: 0; transform: scale(0.85); }
      to { opacity: 1; transform: scale(1); }
    }
    @keyframes textReveal {
      from { opacity: 0; transform: translateX(-10px); }
      to { opacity: 1; transform: translateX(0); }
    }
    @keyframes pulse {
      0%, 100% { transform: scale(1); }
      50% { transform: scale(1.03); }
    }
    @keyframes drawLine {
      from { stroke-dashoffset: 200; }
      to { stroke-dashoffset: 0; }
    }
    .step { animation: fadeInSlide 0.6s ease-out; }
    .step rect {
      animation: scaleIn 0.5s cubic-bezier(0.34, 1.56, 0.64, 1);
      transform-origin: center;
    }
    .step text { animation: textReveal 0.4s ease-out 0.2s backwards; }
    .title-text { font-size: 22px; font-weight: bold; fill: white; }
    .section-title { font-size: 14px; font-weight: bold; fill: #333; }
    .body-text { font-size: 10px; fill: #444; }
    .code-text { font-size: 9px; font-family: monospace; fill: #333; }
    .label-text { font-size: 8px; fill: #666; }
    .flag-text { font-size: 7px; fill: #1976d2; font-weight: bold; }
  </style>
  
  <rect width="800" height="1700" fill="#f8f9fa"/>
  
  <!-- STEP 0: Title -->
  <g class="step" id="step0" data-narration="Welcome to Data Processing Instructions in 8051 Microcontroller. This module covers essential operations for arithmetic, logical, and data manipulation.">
    <rect x="20" y="15" width="760" height="50" rx="10" fill="url(#titleGrad)" filter="url(#shadow)"/>
    <text x="400" y="45" text-anchor="middle" class="title-text">Data Processing Instructions in 8051</text>
  </g>
  
  <!-- STEP 1: Introduction -->
  <g class="step" id="step1" data-narration="Data processing instructions enable the CPU to perform arithmetic, logical, and data manipulation operations essential for embedded systems programming.">
    <rect x="20" y="75" width="760" height="85" rx="8" fill="url(#blueGrad)" filter="url(#shadow)"/>
    <text x="40" y="95" class="section-title">Introduction</text>
    <text x="40" y="115" class="body-text">Data processing instructions form the backbone of 8051 programming, enabling the CPU to</text>
    <text x="40" y="130" class="body-text">perform arithmetic, logical, and data manipulation operations on 8-bit data in registers</text>
    <text x="40" y="145" class="body-text">and memory locations. These instructions determine code density and execution speed.</text>
  </g>
  
  <!-- STEP 2: Classification Overview -->
  <g class="step" id="step2" data-narration="The 8051 instruction set is categorized into four main groups: Arithmetic, Logical, Data Transfer, and Boolean Manipulation instructions.">
    <rect x="20" y="170" width="760" height="85" rx="8" fill="url(#greenGrad)" filter="url(#shadow)"/>
    <text x="40" y="190" class="section-title">Classification of Data Processing Instructions</text>
    <rect x="40" y="205" width="165" height="40" rx="5" fill="#fff" stroke="#388e3c" stroke-width="1"/>
    <text x="122" y="220" text-anchor="middle" class="body-text" font-weight="bold">ARITHMETIC</text>
    <text x="122" y="235" text-anchor="middle" class="label-text">ADD, ADDC, SUBB, INC,</text>
    <text x="122" y="245" text-anchor="middle" class="label-text">DEC, MUL, DIV, DA</text>
    
    <rect x="215" y="205" width="165" height="40" rx="5" fill="#fff" stroke="#1976d2" stroke-width="1"/>
    <text x="297" y="220" text-anchor="middle" class="body-text" font-weight="bold">LOGICAL</text>
    <text x="297" y="235" text-anchor="middle" class="label-text">ANL, ORL, XRL, CLR,</text>
    <text x="297" y="245" text-anchor="middle" class="label-text">CPL, RL, RR, SWAP</text>
    
    <rect x="390" y="205" width="165" height="40" rx="5" fill="#fff" stroke="#ff9800" stroke-width="1"/>
    <text x="472" y="220" text-anchor="middle" class="body-text" font-weight="bold">DATA TRANSFER</text>
    <text x="472" y="235" text-anchor="middle" class="label-text">MOV, MOVX, XCH,</text>
    <text x="472" y="245" text-anchor="middle" class="label-text">PUSH, POP, DPTR</text>
    
    <rect x="565" y="205" width="165" height="40" rx="5" fill="#fff" stroke="#9c27b0" stroke-width="1"/>
    <text x="647" y="220" text-anchor="middle" class="body-text" font-weight="bold">BOOLEAN</text>
    <text x="647" y="235" text-anchor="middle" class="label-text">CLR, SETB, CPL,</text>
    <text x="647" y="245" text-anchor="middle" class="label-text">ANL, ORL (bit-level)</text>
  </g>
  
  <!-- STEP 3: Arithmetic - ADD, ADDC -->
  <g class="step" id="step3" data-narration="ADD instruction adds register content to accumulator, setting carry flag if overflow occurs. ADDC includes the carry flag in addition for multi-byte operations.">
    <rect x="20" y="265" width="760" height="95" rx="8" fill="url(#orangeGrad)" filter="url(#shadow)"/>
    <text x="40" y="285" class="section-title">Arithmetic Instructions: ADD &amp; ADDC</text>
    
    <rect x="40" y="300" width="340" height="50" rx="5" fill="#fff" stroke="#ff9800"/>
    <text x="50" y="318" class="code-text" font-weight="bold">ADD A, Rn</text>
    <text x="50" y="335" class="label-text">A = A + Rn (R0-R7), C=1 if carry from bit7</text>
    <text x="240" y="318" class="body-text" fill="#e65100">Example:</text>
    <text x="240" y="335" class="code-text">45H + 28H = 6DH</text>
    
    <rect x="390" y="300" width="340" height="50" rx="5" fill="#fff" stroke="#ff9800"/>
    <text x="400" y="318" class="code-text" font-weight="bold">ADDC A, Rn</text>
    <text x="400" y="335" class="label-text">A = A + Rn + C, for multi-byte addition</text>
    <text x="580" y="318" class="body-text" fill="#e65100">Example:</text>
    <text x="580" y="335" class="code-text">FFH + 01H + C=1 = 01H</text>
  </g>
  
  <!-- STEP 4: Arithmetic - SUBB, INC, DEC -->
  <g class="step" id="step4" data-narration="SUBB subtracts register and carry from accumulator. INC and DEC add or subtract 1 without affecting the carry flag, unlike other arithmetic operations.">
    <rect x="20" y="370" width="760" height="95" rx="8" fill="url(#orangeGrad)" filter="url(#shadow)"/>
    <text x="40" y="390" class="section-title">Arithmetic Instructions: SUBB, INC &amp; DEC</text>
    
    <rect x="40" y="405" width="230" height="50" rx="5" fill="#fff" stroke="#ff9800"/>
    <text x="50" y="423" class="code-text" font-weight="bold">SUBB A, Rn</text>
    <text x="50" y="440" class="label-text">A = A - Rn - C, C=1 if borrow</text>
    <text x="180" y="423" class="body-text" fill="#e65100">C must be cleared</text>
    <text x="180" y="440" class="code-text" fill="#666">for simple subtraction</text>
    
    <rect x="280" y="405" width="230" height="50" rx="5" fill="#fff" stroke="#ff9800"/>
    <text x="290" y="423" class="code-text" font-weight="bold">INC A/Direct/@Ri</text>
    <text x="290" y="440" class="label-text">Adds 1 to operand, C unaffected!</text>
    <text x="420" y="423" class="body-text" fill="#e65100">Example:</text>
    <text x="420" y="440" class="code-text">FFH + 1 = 00H (no carry)</text>
    
    <rect x="520" y="405" width="230" height="50" rx="5" fill="#fff" stroke="#ff9800"/>
    <text x="530" y="423" class="code-text" font-weight="bold">DEC A/Direct/@Ri</text>
    <text x="530" y="440" class="label-text">Subtracts 1, C unaffected</text>
    <text x="660" y="423" class="body-text" fill="#e65100">Example:</text>
    <text x="660" y="440" class="code-text">00H - 1 = FFH</text>
  </g>
  
  <!-- STEP 5: Arithmetic - MUL, DIV, DA -->
  <g class="step" id="step5" data-narration="MUL multiplies A by B (result: A=low byte, B=high byte). DIV divides A by B (A=quotient, B=remainder). DA adjusts BCD addition results.">
    <rect x="20" y="475" width="760" height="95" rx="8" fill="url(#orangeGrad)" filter="url(#shadow)"/>
    <text x="40" y="495" class="section-title">Arithmetic Instructions: MUL, DIV &amp; DA</text>
    
    <rect x="40" y="510" width="230" height="50" rx="5" fill="#fff" stroke="#f44336"/>
    <text x="50" y="528" class="code-text" font-weight="bold">MUL AB</text>
    <text x="50" y="545" class="label-text">A × B → A=low, B=high</text>
    <text x="180" y="528" class="body-text" fill="#c62828">C=0 always, OV=1 if B≠0</text>
    <text x="180" y="545" class="code-text">30H × 05H = E0H(A),00H(B)</text>
    
    <rect x="280" y="510" width="230" height="50" rx="5" fill="#fff" stroke="#f44336"/>
    <text x="290" y="528" class="code-text" font-weight="bold">DIV AB</text>
    <text x="290" y="545" class="label-text">A ÷ B → A=quotient, B=remainder</text>
    <text x="420" y="528" class="body-text" fill="#c62828">C=0, OV=0 always</text>
    <text x="420" y="545" class="code-text">25H ÷ 04H = 09H(A),01H(B)</text>
    
    <rect x="520" y="510" width="230" height="50" rx="5" fill="#fff" stroke="#f44336"/>
    <text x="530" y="528" class="code-text" font-weight="bold">DA A</text>
    <text x="530" y="545" class="label-text">Decimal Adjust after ADD/ADDC</text>
    <text x="660" y="528" class="body-text" fill="#c62828">Converts binary to BCD</text>
    <text x="660" y="545" class="code-text">45H+67H→ACH→112 BCD</text>
  </g>
  
  <!-- STEP 6: Logical - ANL, ORL, XRL -->
  <g class="step" id="step6" data-narration="Logical instructions perform bitwise operations: ANL clears bits, ORL sets bits, XRL complements bits. These are essential for masking operations.">
    <rect x="20" y="580" width="760" height="95" rx="8" fill="url(#purpleGrad)" filter="url(#shadow)"/>
    <text x="40" y="600" class="section-title">Logical Instructions: ANL, ORL &amp; XRL</text>
    
    <rect x="40" y="615" width="230" height="50" rx="5" fill="#fff" stroke="#9c27b0"/>
    <text x="50" y="633" class="code-text" font-weight="bold">ANL A, Rn/Direct/#Data</text>
    <text x="50" y="650" class="label-text">Bitwise AND - clears bits (masking)</text>
    <text x="180" y="633" class="body-text" fill="#6a1b9a">Example:</text>
    <text x="180" y="650" class="code-text">55H AND 0FH = 05H</text>
    
    <rect x="280" y="615" width="230" height="50" rx="5" fill="#fff" stroke="#9c27b0"/>
    <text x="290" y="633" class="code-text" font-weight="bold">ORL A, Rn/Direct/#Data</text>
    <text x="290" y="650" class="label-text">Bitwise OR - sets bits</text>
    <text x="420" y="633" class="body-text" fill="#6a1b9a">Example:</text>
    <text x="420" y="650" class="code-text">05H OR F0H = F5H</text>
    
    <rect x="520" y="615" width="230" height="50" rx="5" fill="#fff" stroke="#9c27b0"/>
    <text x="530" y="633" class="code-text" font-weight="bold">XRL A, Rn/Direct/#Data</text>
    <text x="530" y="650" class="label-text">Bitwise XOR - complement/toggle</text>
    <text x="660" y="633" class="body-text" fill="#6a1b9a">Example:</text>
    <text x="660" y="650" class="code-text">55H XOR 0FH = 5AH</text>
  </g>
  
  <!-- STEP 7: Logical - CLR, CPL, SWAP -->
  <g class="step" id="step7" data-narration="CLR clears accumulator to zero. CPL complements all bits. SWAP exchanges upper and lower nibbles - useful for BCD digit manipulation.">
    <rect x="20" y="685" width="760" height="95" rx="8" fill="url(#purpleGrad)" filter="url(#shadow)"/>
    <text x="40" y="705" class="section-title">Logical Instructions: CLR, CPL &amp; SWAP</text>
    
    <rect x="40" y="720" width="220" height="50" rx="5" fill="#fff" stroke="#9c27b0"/>
    <text x="50" y="738" class="code-text" font-weight="bold">CLR A</text>
    <text x="50" y="755" class="label-text">Set all accumulator bits to 0</text>
    <text x="170" y="738" class="body-text" fill="#6a1b9a">Faster than:</text>
    <text x="170" y="755" class="code-text">MOV A, #00H</text>
    
    <rect x="270" y="720" width="220" height="50" rx="5" fill="#fff" stroke="#9c27b0"/>
    <text x="280" y="738" class="code-text" font-weight="bold">CPL A</text>
    <text x="280" y="755" class="label-text">Complement all bits (0→1, 1→0)</text>
    <text x="400" y="738" class="body-text" fill="#6a1b9a">Example:</text>
    <text x="400" y="755" class="code-text">55H → AAH</text>
    
    <rect x="500" y="720" width="250" height="50" rx="5" fill="#fff" stroke="#9c27b0"/>
    <text x="510" y="738" class="code-text" font-weight="bold">SWAP A</text>
    <text x="510" y="755" class="label-text">Exchange upper and lower nibbles</text>
    <text x="650" y="738" class="body-text" fill="#6a1b9a">Example:</text>
    <text x="650" y="755" class="code-text">12H → 21H</text>
  </g>
  
  <!-- STEP 8: Rotate Instructions -->
  <g class="step" id="step8" data-narration="Rotate instructions shift bits: RL/RR rotate without carry, RLC/RRC use carry as part of rotation. No flags affected except through carry.">
    <rect x="20" y="790" width="760" height="95" rx="8" fill="url(#purpleGrad)" filter="url(#shadow)"/>
    <text x="40" y="810" class="section-title">Rotate Instructions</text>
    
    <rect x="40" y="825" width="165" height="50" rx="5" fill="#fff" stroke="#9c27b0"/>
    <text x="50" y="843" class="code-text" font-weight="bold">RL A</text>
    <text x="50" y="860" class="label-text">Rotate Left (bit7→bit0)</text>
    <text x="120" y="860" class="flag-text">No C involved</text>
    
    <rect x="215" y="825" width="165" height="50" rx="5" fill="#fff" stroke="#9c27b0"/>
    <text x="225" y="843" class="code-text" font-weight="bold">RLC A</text>
    <text x="225" y="860" class="label-text">Rotate Left through Carry</text>
    <text x="295" y="860" class="flag-text">C→bit0, bit7→C</text>
    
    <rect x="390" y="825" width="165" height="50" rx="5" fill="#fff" stroke="#9c27b0"/>
    <text x="400" y="843" class="code-text" font-weight="bold">RR A</text>
    <text x="400" y="860" class="label-text">Rotate Right (bit0→bit7)</text>
    <text x="470" y="860" class="flag-text">No C involved</text>
    
    <rect x="565" y="825" width="165" height="50" rx="5" fill="#fff" stroke="#9c27b0"/>
    <text x="575" y="843" class="code-text" font-weight="bold">RRC A</text>
    <text x="575" y="860" class="label-text">Rotate Right through Carry</text>
    <text x="645" y="860" class="flag-text">C→bit7, bit0→C</text>
  </g>
  
  <!-- STEP 9: Data Transfer - MOV -->
  <g class="step" id="step9" data-narration="MOV instructions copy data between accumulator, registers, and memory locations using various addressing modes: register, direct, indirect, and immediate.">
    <rect x="20" y="895" width="760" height="95" rx="8" fill="url(#blueGrad)" filter="url(#shadow)"/>
    <text x="40" y="915" class="section-title">Data Transfer Instructions: MOV</text>
    
    <rect x="40" y="930" width="175" height="50" rx="5" fill="#fff" stroke="#1976d2"/>
    <text x="50" y="948" class="code-text" font-weight="bold">MOV A, Rn/Direct/#Data</text>
    <text x="50" y="965" class="label-text">Move TO accumulator</text>
    <text x="130" y="965" class="flag-text">Register/Direct/Immediate</text>
    
    <rect x="225" y="930" width="175" height="50" rx="5" fill="#fff" stroke="#1976d2"/>
    <text x="235" y="948" class="code-text" font-weight="bold">MOV Rn, A/Direct/#Data</text>
    <text x="235" y="965" class="label-text">Move FROM accumulator</text>
    <text x="315" y="965" class="flag-text">Register addressing</text>
    
    <rect x="410" y="930" width="175" height="50" rx="5" fill="#fff" stroke="#1976d2"/>
    <text x="420" y="948" class="code-text" font-weight="bold">MOV Direct, A/Rn/@Ri/#Data</text>
    <text x="420" y="965" class="label-text">Move TO RAM/SFR</text>
    <text x="500" y="965" class="flag-text">Direct addressing</text>
    
    <rect x="595" y="930" width="175" height="50" rx="5" fill="#fff" stroke="#1976d2"/>
    <text x="605" y="948" class="code-text" font-weight="bold">MOV DPTR, #Data16</text>
    <text x="605" y="965" class="label-text">Load 16-bit pointer</text>
    <text x="685" y="965" class="flag-text">For external memory</text>
  </g>
  
  <!-- STEP 10: Data Transfer - MOVX, XCH, PUSH/POP -->
  <g class="step" id="step10" data-narration="MOVX accesses external 64KB RAM. XCH swaps accumulator with operand. XCHD swaps only nibbles. PUSH/POP manage the stack for saving registers.">
    <rect x="20" y="1000" width="760" height="95" rx="8" fill="url(#blueGrad)" filter="url(#shadow)"/>
    <text x="40" y="1020" class="section-title">Data Transfer: MOVX, XCH, Stack Operations</text>
    
    <rect x="40" y="1035" width="220" height="50" rx="5" fill="#fff" stroke="#1976d2"/>
    <text x="50" y="1053" class="code-text" font-weight="bold">MOVX A, @Ri/@DPTR</text>
    <text x="50" y="1070" class="label-text">Read from external RAM</text>
    <text x="170" y="1070" class="flag-text">64KB space</text>
    
    <rect x="270" y="1035" width="220" height="50" rx="5" fill="#fff" stroke="#1976d2"/>
    <text x="280" y="1053" class="code-text" font-weight="bold">MOVX @Ri/@DPTR, A</text>
    <text x="280" y="1070" class="label-text">Write to external RAM</text>
    <text x="400" y="1070" class="flag-text">64KB space</text>
    
    <rect x="500" y="1035" width="130" height="50" rx="5" fill="#fff" stroke="#1976d2"/>
    <text x="510" y="1053" class="code-text" font-weight="bold">XCH A, Rn/@Ri</text>
    <text x="510" y="1070" class="label-text">Exchange entire A</text>
    
    <rect x="640" y="1035" width="130" height="50" rx="5" fill="#fff" stroke="#1976d2"/>
    <text x="650" y="1053" class="code-text" font-weight="bold">XCHD A, @Ri</text>
    <text x="650" y="1070" class="label-text">Exchange nibbles</text>
  </g>
  
  <!-- STEP 11: Boolean - CLR, SETB, CPL -->
  <g class="step" id="step11" data-narration="Boolean instructions manipulate individual bits in the bit-addressable area (20H-2FH) and SFRs. CLR clears, SETB sets, and CPL complements bits.">
    <rect x="20" y="1105" width="760" height="95" rx="8" fill="url(#redGrad)" filter="url(#shadow)"/>
    <text x="40" y="1125" class="section-title">Boolean Variable Manipulation: Bit-Level Operations</text>
    
    <rect x="40" y="1140" width="165" height="50" rx="5" fill="#fff" stroke="#f44336"/>
    <text x="50" y="1158" class="code-text" font-weight="bold">CLR C / CLR Bit</text>
    <text x="50" y="1175" class="label-text">Set carry/bit to 0</text>
    <text x="120" y="1175" class="flag-text">Bit: 20H-2FH, 80H-FFH</text>
    
    <rect x="215" y="1140" width="165" height="50" rx="5" fill="#fff" stroke="#f44336"/>
    <text x="225" y="1158" class="code-text" font-weight="bold">SETB C / SETB Bit</text>
    <text x="225" y="1175" class="label-text">Set carry/bit to 1</text>
    <text x="295" y="1175" class="flag-text">Direct bit addressing</text>
    
    <rect x="390" y="1140" width="165" height="50" rx="5" fill="#fff" stroke="#f44336"/>
    <text x="400" y="1158" class="code-text" font-weight="bold">CPL C / CPL Bit</text>
    <text x="400" y="1175" class="label-text">Complement carry/bit</text>
    <text x="470" y="1175" class="flag-text">Toggle bit value</text>
    
    <rect x="565" y="1140" width="185" height="50" rx="5" fill="#fff" stroke="#f44336"/>
    <text x="575" y="1158" class="code-text" font-weight="bold">MOV C, Bit / MOV Bit, C</text>
    <text x="575" y="1175" class="label-text">Copy between bit and C</text>
    <text x="660" y="1175" class="flag-text">Bit-addressable area</text>
  </g>
  
  <!-- STEP 12: Boolean - ANL, ORL (bit-level) -->
  <g class="step" id="step12" data-narration="Bit-level ANL and ORL perform logical operations between carry and a specified bit. Useful for conditional bit operations and status checking.">
    <rect x="20" y="1210" width="760" height="95" rx="8" fill="url(#redGrad)" filter="url(#shadow)"/>
    <text x="40" y="1230" class="section-title">Boolean: ANL/ORL for Bit Operations</text>
    
    <rect x="40" y="1245" width="345" height="50" rx="5" fill="#fff" stroke="#f44336"/>
    <text x="50" y="1263" class="code-text" font-weight="bold">ANL C, Bit / ANL C, /Bit</text>
    <text x="50" y="1280" class="label-text">Carry = Carry AND (bit OR NOT bit)</text>
    <text x="250" y="1263" class="body-text" fill="#c62828">Used for conditional</text>
    <text x="250" y="1280" class="label-text">bit operations</text>
    
    <rect x="395" y="1245" width="345" height="50" rx="5" fill="#fff" stroke="#f44336"/>
    <text x="405" y="1263" class="code-text" font-weight="bold">ORL C, Bit / ORL C, /Bit</text>
    <text x="405" y="1280" class="label-text">Carry = Carry OR (bit OR NOT bit)</text>
    <text x="605" y="1263" class="body-text" fill="#c62828">Used for combining</text>
    <text x="605" y="1280" class="label-text">multiple bit conditions</text>
  </g>
  
  <!-- STEP 13: Example - Multi-byte Addition -->
  <g class="step" id="step13" data-narration="For 16-bit addition: ADD the LSB bytes, then ADDC the MSB bytes to propagate carry. This technique extends to any multi-byte arithmetic.">
    <rect x="20" y="1315" width="760" height="95" rx="8" fill="url(#greenGrad)" filter="url(#shadow)"/>
    <text x="40" y="1335" class="section-title">Example 1: 16-bit Addition</text>
    <text x="40" y="1355" class="body-text">Problem: Add Number1 (1234H) at 30H-31H and Number2 (5678H) at 32H-33H, result at 40H-41H</text>
    
    <rect x="40" y="1365" width="720" height="35" rx="5" fill="#fff" stroke="#388e3c"/>
    <text x="50" y="1383" class="code-text">MOV A,30H : ADD A,32H : MOV 40H,A : MOV A,31H : ADDC A,33H : MOV 41H,A</text>
    <text x="580" y="1383" class="body-text" fill="#2e7d32">Result: 68ACH</text>
  </g>
  
  <!-- STEP 14: Examples - BCD and Bit Manipulation -->
  <g class="step" id="step14" data-narration="BCD addition uses DA instruction after ADD/ADDC to convert binary result to valid BCD format. Bit manipulation controls I/O ports efficiently.">
    <rect x="20" y="1420" width="760" height="95" rx="8" fill="url(#greenGrad)" filter="url(#shadow)"/>
    <text x="40" y="1440" class="section-title">Examples 2 &amp; 3: BCD Addition &amp; Bit Control</text>
    
    <rect x="40" y="1455" width="345" height="50" rx="5" fill="#fff" stroke="#388e3c"/>
    <text x="50" y="1473" class="code-text" font-weight="bold">Example 2: BCD Addition</text>
    <text x="50" y="1490" class="label-text">MOV A,#45H : ADD A,#67H : DA A</text>
    <text x="250" y="1473" class="body-text" fill="#2e7d32">45+67=112 BCD</text>
    <text x="250" y="1490" class="label-text">Result: 12H with C=1</text>
    
    <rect x="395" y="1455" width="345" height="50" rx="5" fill="#fff" stroke="#388e3c"/>
    <text x="405" y="1473" class="code-text" font-weight="bold">Example 3: Set Port Bit</text>
    <text x="405" y="1490" class="label-text">SETB P1.3 (direct bit set)</text>
    <text x="550" y="1473" class="label-text">OR: MOV A,P1 : ORL A,#08H : MOV P1,A</text>
  </g>
  
  <!-- STEP 15: Summary Table -->
  <g class="step" id="step15" data-narration="This comprehensive table summarizes all data processing instructions, their operations, and flag effects for quick reference during exam preparation.">
    <rect x="20" y="1525" width="760" height="150" rx="8" fill="url(#blueGrad)" filter="url(#shadow)"/>
    <text x="40" y="1545" class="section-title">Summary: Flag Effects Reference</text>
    
    <rect x="40" y="1555" width="720" height="110" rx="5" fill="#fff"/>
    <text x="50" y="1573" class="label-text" font-weight="bold">Instruction</text>
    <text x="160" y="1573" class="label-text" font-weight="bold">C</text>
    <text x="220" y="1573" class="label-text" font-weight="bold">AC</text>
    <text x="290" y="1573" class="label-text" font-weight="bold">OV</text>
    <text x="370" y="1573" class="label-text" font-weight="bold">Instruction</text>
    <text x="470" y="1573" class="label-text" font-weight="bold">C</text>
    <text x="530" y="1573" class="label-text" font-weight="bold">AC</text>
    <text x="590" y="1573" class="label-text" font-weight="bold">OV</text>
    
    <line x1="40" y1="1580" x2="760" y2="1580" stroke="#e0e0e0"/>
    <text x="50" y="1600" class="code-text">ADD</text>
    <text x="160" y="1600" class="flag-text">±</text>
    <text x="220" y="1600" class="flag-text">±</text>
    <text x="290" y="1600" class="flag-text">±</text>
    <text x="370" y="1600" class="code-text">INC/DEC</text>
    <text x="470" y="1600" class="flag-text">-</text>
    <text x="530" y="1600" class="flag-text">-</text>
    <text x="590" y="1600" class="flag-text">-</text>
    
    <line x1="40" y1="1610" x2="760" y2="1610" stroke="#e0e0e0"/>
    <text x="50" y="1630" class="code-text">ADDC/SUBB</text>
    <text x="160" y="1630" class="flag-text">±</text>
    <text x="220" y="1630" class="flag-text">±</text>
    <text x="290" y="1630" class="flag-text">±</text>
    <text x="370" y="1630" class="code-text">MUL</text>
    <text x="470" y="1630" class="flag-text">0</text>
    <text x="530" y="1630" class="flag-text">-</text>
    <text x="590" y="1630" class="flag-text">±</text>
    
    <line x1="40" y1="1640" x2="760" y2="1640" stroke="#e0e0e0"/>
    <text x="50" y="1660" class="code-text">DIV</text>
    <text x="160" y="1660" class="flag-text">0</text>
    <text x="220" y="1660" class="flag-text">-</text>
    <text x="290" y="1660" class="flag-text">0</text>
    <text x="370" y="1660" class="code-text">ANL/ORL/XRL</text>
    <text x="470" y="1660" class="flag-text">-</text>
    <text x="530" y="1660" class="flag-text">0</text>
    <text x="590" y="1660" class="flag-text">-</text>
    
    <text x="680" y="1670" class="label-text" fill="#666">±=affected, -=unchanged</text>
  </g>
</svg>