<svg xmlns="http://www.w3.org/2000/svg" viewBox="0 0 800 1560">
  <defs>
    <!-- Gradients -->
    <linearGradient id="blueGrad" x1="0%" y1="0%" x2="100%" y2="100%">
      <stop offset="0%" style="stop-color:#e3f2fd"/>
      <stop offset="100%" style="stop-color:#1976d2"/>
    </linearGradient>
    <linearGradient id="greenGrad" x1="0%" y1="0%" x2="100%" y2="100%">
      <stop offset="0%" style="stop-color:#e8f5e9"/>
      <stop offset="100%" style="stop-color:#388e3c"/>
    </linearGradient>
    <linearGradient id="orangeGrad" x1="0%" y1="0%" x2="100%" y2="100%">
      <stop offset="0%" style="stop-color:#fff3e0"/>
      <stop offset="100%" style="stop-color:#ff9800"/>
    </linearGradient>
    <linearGradient id="purpleGrad" x1="0%" y1="0%" x2="100%" y2="100%">
      <stop offset="0%" style="stop-color:#f3e5f5"/>
      <stop offset="100%" style="stop-color:#9c27b0"/>
    </linearGradient>
    <linearGradient id="redGrad" x1="0%" y1="0%" x2="100%" y2="100%">
      <stop offset="0%" style="stop-color:#ffebee"/>
      <stop offset="100%" style="stop-color:#f44336"/>
    </linearGradient>
    <linearGradient id="pipelineGrad" x1="0%" y1="0%" x2="100%" y2="0%">
      <stop offset="0%" style="stop-color:#42a5f5"/>
      <stop offset="50%" style="stop-color:#7e57c2"/>
      <stop offset="100%" style="stop-color:#26a69a"/>
    </linearGradient>
    <linearGradient id="shaderGrad" x1="0%" y1="0%" x2="0%" y2="100%">
      <stop offset="0%" style="stop-color:#1a237e"/>
      <stop offset="100%" style="stop-color:#283593"/>
    </linearGradient>
    
    <!-- Drop shadow filter -->
    <filter id="shadow" x="-20%" y="-20%" width="140%" height="140%">
      <feDropShadow dx="2" dy="2" stdDeviation="3" flood-opacity="0.2"/>
    </filter>
    
    <!-- Arrow marker -->
    <marker id="arrow" markerWidth="10" markerHeight="10" refX="9" refY="3" orient="auto" markerUnits="strokeWidth">
      <path d="M0,0 L0,6 L9,3 z" fill="#1976d2"/>
    </marker>
    <marker id="arrowGreen" markerWidth="10" markerHeight="10" refX="9" refY="3" orient="auto" markerUnits="strokeWidth">
      <path d="M0,0 L0,6 L9,3 z" fill="#388e3c"/>
    </marker>
  </defs>
  
  <style>
    @keyframes fadeInSlide {
      from { opacity: 0; transform: translateY(20px); }
      to { opacity: 1; transform: translateY(0); }
    }
    @keyframes scaleIn {
      from { opacity: 0; transform: scale(0.85); }
      to { opacity: 1; transform: scale(1); }
    }
    @keyframes textReveal {
      from { opacity: 0; transform: translateX(-10px); }
      to { opacity: 1; transform: translateX(0); }
    }
    @keyframes pulse {
      0%, 100% { transform: scale(1); }
      50% { transform: scale(1.03); }
    }
    @keyframes drawLine {
      from { stroke-dashoffset: 1000; }
      to { stroke-dashoffset: 0; }
    }
    @keyframes flowDash {
      to { stroke-dashoffset: -100; }
    }
    .step { animation: fadeInSlide 0.6s ease-out; }
    .step rect {
      animation: scaleIn 0.5s cubic-bezier(0.34, 1.56, 0.64, 1);
      transform-origin: center;
    }
    .step text { animation: textReveal 0.4s ease-out 0.2s backwards; }
    .pipeline-box { animation: scaleIn 0.6s ease-out; transform-origin: center; }
    .flow-line {
      stroke-dasharray: 10, 10;
      animation: flowDash 2s linear infinite;
    }
    code {
      font-family: 'Consolas', 'Monaco', monospace;
      font-size: 10px;
    }
  </style>
  
  <!-- Background -->
  <rect width="800" height="1560" fill="#f8f9fa"/>
  
  <!-- ==================== SECTION 1: INTRODUCTION ==================== -->
  
  <!-- Step 0: Title -->
  <g class="step" id="step0" data-narration="Welcome to Programmable Pipelines - the foundation of modern GPU rendering that revolutionized graphics programming.">
    <rect x="20" y="10" width="760" height="50" rx="10" fill="url(#blueGrad)" filter="url(#shadow)"/>
    <text x="400" y="42" text-anchor="middle" font-family="Arial" font-size="22" font-weight="bold" fill="#0d47a1">Programmable Pipelines</text>
    <text x="400" y="55" text-anchor="middle" font-family="Arial" font-size="11" fill="#1565c0">Modern GPU Architecture &amp; Shader Programming</text>
  </g>
  
  <!-- Step 1: What is Programmable Pipeline? -->
  <g class="step" id="step1" data-narration="A programmable pipeline replaces fixed hardware operations with customizable shaders, giving developers unprecedented control over rendering.">
    <rect x="20" y="70" width="760" height="90" rx="8" fill="white" filter="url(#shadow)"/>
    <rect x="20" y="70" width="760" height="90" rx="8" fill="url(#greenGrad)" opacity="0.1"/>
    
    <text x="40" y="95" font-family="Arial" font-size="14" font-weight="bold" fill="#2e7d32">What is a Programmable Pipeline?</text>
    
    <rect x="40" y="110" width="200" height="40" rx="6" fill="#e8f5e9" stroke="#388e3c" stroke-width="1"/>
    <text x="50" y="125" font-family="Arial" font-size="10" fill="#2e7d32">Fixed-Function Pipeline</text>
    <text x="50" y="140" font-family="Arial" font-size="9" fill="#388e3c">Hardwired operations</text>
    
    <path d="M250 130 L300 130" stroke="#388e3c" stroke-width="2" marker-end="url(#arrowGreen)"/>
    <text x="265" y="120" font-family="Arial" font-size="9" fill="#388e3c" font-style="italic">Evolution</text>
    
    <rect x="310" y="110" width="200" height="40" rx="6" fill="#e3f2fd" stroke="#1976d2" stroke-width="1"/>
    <text x="320" y="125" font-family="Arial" font-size="10" fill="#1565c0">Programmable Pipeline</text>
    <text x="320" y="140" font-family="Arial" font-size="9" fill="#1976d2">Custom shaders</text>
    
    <rect x="520" y="110" width="240" height="40" rx="6" fill="#fff3e0" stroke="#ff9800" stroke-width="1"/>
    <text x="530" y="125" font-family="Arial" font-size="10" fill="#e65100">Key Advantages:</text>
    <text x="530" y="140" font-family="Arial" font-size="9" fill="#f57c00">Flexibility • Better Visuals • Per-pixel effects</text>
  </g>
  
  <!-- Step 2: Evolution Timeline -->
  <g class="step" id="step2" data-narration="The journey from fixed-function to programmable began in 2001 with GeForce 3, enabling vertex and pixel shaders for custom effects.">
    <rect x="20" y="170" width="760" height="90" rx="8" fill="white" filter="url(#shadow)"/>
    <rect x="20" y="170" width="760" height="90" rx="8" fill="url(#orangeGrad)" opacity="0.1"/>
    
    <text x="40" y="195" font-family="Arial" font-size="14" font-weight="bold" fill="#e65100">Evolution Timeline</text>
    
    <!-- Timeline -->
    <line x1="60" y1="240" x2="740" y2="240" stroke="#ff9800" stroke-width="3"/>
    <circle cx="100" cy="240" r="8" fill="#ff9800">
      <animate attributeName="r" values="0;8;8;0" dur="1s" begin="0s" repeatCount="1"/>
    </circle>
    <circle cx="280" cy="240" r="8" fill="#ff9800">
      <animate attributeName="r" values="0;8;8;0" dur="1s" begin="0.3s" repeatCount="1"/>
    </circle>
    <circle cx="460" cy="240" r="8" fill="#ff9800">
      <animate attributeName="r" values="0;8;8;0" dur="1s" begin="0.6s" repeatCount="1"/>
    </circle>
    <circle cx="640" cy="240" r="8" fill="#ff9800">
      <animate attributeName="r" values="0;8;8;0" dur="1s" begin="0.9s" repeatCount="1"/>
    </circle>
    
    <text x="85" y="225" font-family="Arial" font-size="9" fill="#e65100" text-anchor="middle">2001</text>
    <text x="100" y="255" font-family="Arial" font-size="8" fill="#e65100" text-anchor="middle">GeForce 3</text>
    <text x="100" y="267" font-family="Arial" font-size="7" fill="#f57c00">First programmable</text>
    
    <text x="265" y="225" font-family="Arial" font-size="9" fill="#e65100" text-anchor="middle">2006</text>
    <text x="280" y="255" font-family="Arial" font-size="8" fill="#e65100" text-anchor="middle">DirectX 10</text>
    <text x="280" y="267" font-family="Arial" font-size="7" fill="#f57c00">Geometry shaders</text>
    
    <text x="445" y="225" font-family="Arial" font-size="9" fill="#e65100" text-anchor="middle">2010</text>
    <text x="460" y="255" font-family="Arial" font-size="8" fill="#e65100" text-anchor="middle">DirectX 11</text>
    <text x="460" y="267" font-family="Arial" font-size="7" fill="#f57c00">Tessellation</text>
    
    <text x="625" y="225" font-family="Arial" font-size="9" fill="#e65100" text-anchor="middle">2014+</text>
    <text x="640" y="255" font-family="Arial" font-size="8" fill="#e65100" text-anchor="middle">DirectX 12</text>
    <text x="640" y="267" font-family="Arial" font-size="7" fill="#f57c00">Compute shaders</text>
  </g>
  
  <!-- ==================== SECTION 2: DEEP DIVE ==================== -->
  
  <!-- Step 3: Pipeline Architecture Overview -->
  <g class="step" id="step3" data-narration="The modern graphics pipeline flows from input assembly through vertex processing, rasterization, fragment shading, and finally output merging.">
    <rect x="20" y="270" width="760" height="100" rx="8" fill="white" filter="url(#shadow)"/>
    <rect x="20" y="270" width="760" height="100" rx="8" fill="url(#blueGrad)" opacity="0.1"/>
    
    <text x="40" y="295" font-family="Arial" font-size="14" font-weight="bold" fill="#1565c0">Modern Programmable Graphics Pipeline</text>
    
    <!-- Pipeline flow diagram -->
    <g class="pipeline-box">
      <rect x="50" y="315" width="80" height="45" rx="5" fill="#e3f2fd" stroke="#1976d2" stroke-width="2"/>
      <text x="90" y="335" text-anchor="middle" font-family="Arial" font-size="9" fill="#1565c0" font-weight="bold">Input</text>
      <text x="90" y="348" text-anchor="middle" font-family="Arial" font-size="8" fill="#1565c0">Assembler</text>
    </g>
    
    <path d="M130 337 L160 337" stroke="#1976d2" stroke-width="2" class="flow-line"/>
    
    <g class="pipeline-box">
      <rect x="160" y="315" width="80" height="45" rx="5" fill="#e8f5e9" stroke="#388e3c" stroke-width="2"/>
      <text x="200" y="335" text-anchor="middle" font-family="Arial" font-size="9" fill="#2e7d32" font-weight="bold">Vertex</text>
      <text x="200" y="348" text-anchor="middle" font-family="Arial" font-size="8" fill="#2e7d32">Shader</text>
    </g>
    
    <path d="M240 337 L270 337" stroke="#1976d2" stroke-width="2" class="flow-line"/>
    
    <g class="pipeline-box">
      <rect x="270" y="315" width="50" height="45" rx="5" fill="#fff3e0" stroke="#ff9800" stroke-width="2"/>
      <text x="295" y="335" text-anchor="middle" font-family="Arial" font-size="8" fill="#e65100" font-weight="bold">Tess</text>
      <text x="295" y="348" text-anchor="middle" font-family="Arial" font-size="7" fill="#e65100">Optional</text>
    </g>
    
    <path d="M320 337 L350 337" stroke="#1976d2" stroke-width="2" class="flow-line"/>
    
    <g class="pipeline-box">
      <rect x="350" y="315" width="80" height="45" rx="5" fill="#f3e5f5" stroke="#9c27b0" stroke-width="2"/>
      <text x="390" y="335" text-anchor="middle" font-family="Arial" font-size="9" fill="#6a1b9a" font-weight="bold">Geometry</text>
      <text x="390" y="348" text-anchor="middle" font-family="Arial" font-size="8" fill="#6a1b9a">Shader</text>
    </g>
    
    <path d="M430 337 L460 337" stroke="#1976d2" stroke-width="2" class="flow-line"/>
    
    <g class="pipeline-box">
      <rect x="460" y="315" width="80" height="45" rx="5" fill="#ffebee" stroke="#f44336" stroke-width="2"/>
      <text x="500" y="335" text-anchor="middle" font-family="Arial" font-size="9" fill="#c62828" font-weight="bold">Rasterizer</text>
      <text x="500" y="348" text-anchor="middle" font-family="Arial" font-size="8" fill="#c62828">Fragments</text>
    </g>
    
    <path d="M540 337 L570 337" stroke="#1976d2" stroke-width="2" class="flow-line"/>
    
    <g class="pipeline-box">
      <rect x="570" y="315" width="80" height="45" rx="5" fill="#e0f7fa" stroke="#00838f" stroke-width="2"/>
      <text x="610" y="335" text-anchor="middle" font-family="Arial" font-size="9" fill="#006064" font-weight="bold">Fragment</text>
      <text x="610" y="348" text-anchor="middle" font-family="Arial" font-size="8" fill="#006064">Shader</text>
    </g>
    
    <path d="M650 337 L680 337" stroke="#1976d2" stroke-width="2" class="flow-line"/>
    
    <g class="pipeline-box">
      <rect x="680" y="315" width="80" height="45" rx="5" fill="#fce4ec" stroke="#ad1457" stroke-width="2"/>
      <text x="720" y="335" text-anchor="middle" font-family="Arial" font-size="9" fill="#880e4f" font-weight="bold">Output</text>
      <text x="720" y="348" text-anchor="middle" font-family="Arial" font-size="8" fill="#880e4f">Merger</text>
    </g>
  </g>
  
  <!-- Step 4: Input Assembler & Vertex Shader -->
  <g class="step" id="step4" data-narration="The Input Assembler collects vertices from memory, and the Vertex Shader transforms each vertex through model-view-projection matrices.">
    <rect x="20" y="380" width="370" height="95" rx="8" fill="white" filter="url(#shadow)"/>
    <rect x="20" y="380" width="370" height="95" rx="8" fill="url(#greenGrad)" opacity="0.1"/>
    
    <text x="40" y="405" font-family="Arial" font-size="13" font-weight="bold" fill="#2e7d32">Input Assembler &amp; Vertex Shader</text>
    
    <rect x="40" y="420" width="150" height="45" rx="5" fill="#e8f5e9" stroke="#388e3c"/>
    <text x="50" y="435" font-family="Arial" font-size="9" fill="#2e7d32">Input Assembler</text>
    <text x="50" y="450" font-family="Arial" font-size="8" fill="#388e3c">Collects vertices &amp; indices</text>
    <text x="50" y="462" font-family="Arial" font-size="7" fill="#388e3c">→ Primitives (triangles)</text>
    
    <path d="M200 442 L240 442" stroke="#388e3c" stroke-width="2" marker-end="url(#arrowGreen)"/>
    
    <rect x="250" y="420" width="130" height="45" rx="5" fill="#e8f5e9" stroke="#388e3c"/>
    <text x="260" y="435" font-family="Arial" font-size="9" fill="#2e7d32">Vertex Shader</text>
    <text x="260" y="450" font-family="Arial" font-size="8" fill="#388e3c">Per-vertex operations</text>
    <text x="260" y="462" font-family="Arial" font-size="7" fill="#388e3c">Coordinate transforms</text>
    
    <!-- Step 4b: Coordinate Transformation Formula -->
    <rect x="400" y="380" width="380" height="95" rx="8" fill="white" filter="url(#shadow)"/>
    <rect x="400" y="380" width="380" height="95" rx="8" fill="url(#blueGrad)" opacity="0.1"/>
    
    <text x="420" y="405" font-family="Arial" font-size="13" font-weight="bold" fill="#1565c0">Coordinate Transformation</text>
    
    <text x="430" y="430" font-family="Arial" font-size="11" fill="#0d47a1">Model → World → View → Projection → Clip</text>
    
    <!-- Animated formula -->
    <text x="450" y="455" font-family="Consolas" font-size="12" fill="#1565c0" font-weight="bold">
      <tspan fill="#1976d2">gl_Position</tspan> = 
      <tspan fill="#388e3c">Projection</tspan> ×
      <tspan fill="#ff9800">View</tspan> ×
      <tspan fill="#9c27b0">Model</tspan> ×
      <tspan fill="#f44336">Vertex</tspan>
    </text>
    
    <text x="440" y="475" font-family="Arial" font-size="9" fill="#1565c0">Normal Transform: NormalMatrix = transpose(inverse(ModelMatrix))</text>
  </g>
  
  <!-- Step 5: Tessellation & Geometry Shader -->
  <g class="step" id="step5" data-narration="Tessellation dynamically subdivides primitives for detail, while Geometry Shaders can create or destroy entire primitives for effects.">
    <rect x="20" y="485" width="760" height="90" rx="8" fill="white" filter="url(#shadow)"/>
    <rect x="20" y="485" width="760" height="90" rx="8" fill="url(#orangeGrad)" opacity="0.1"/>
    
    <text x="40" y="510" font-family="Arial" font-size="13" font-weight="bold" fill="#e65100">Tessellation &amp; Geometry Shader</text>
    
    <!-- Tessellation -->
    <rect x="40" y="525" width="220" height="40" rx="5" fill="#fff3e0" stroke="#ff9800"/>
    <text x="50" y="545" font-family="Arial" font-size="10" fill="#e65100" font-weight="bold">Tessellation Stages</text>
    <text x="150" y="545" font-family="Arial" font-size="9" fill="#f57c00">Hull Shader + Tessellator + Domain Shader</text>
    <text x="50" y="560" font-family="Arial" font-size="8" fill="#f57c00">Dynamic LOD based on distance</text>
    
    <!-- Visual tessellation -->
    <rect x="270" y="525" width="60" height="40" rx="3" fill="#ffcc80" stroke="#ef6c00"/>
    <polygon points="300,535 320,555 280,555" fill="none" stroke="#ef6c00" stroke-width="1"/>
    <text x="300" y="545" text-anchor="middle" font-family="Arial" font-size="7" fill="#e65100">1 Triangle</text>
    
    <path d="M335" y1="545" y2="545" stroke="#ff9800" stroke-width="1"/>
    <polygon points="350,535 350,555 370,545" fill="#ffcc80" stroke="#ef6c00"/>
    <polygon points="350,535 370,545 350,555" fill="#ffcc80" stroke="#ef6c00" opacity="0.5"/>
    <polygon points="350,535 390,545 370,545" fill="#ffcc80" stroke="#ef6c00"/>
    <text x="370" y="545" text-anchor="middle" font-family="Arial" font-size="7" fill="#e65100">4 Triangles</text>
    
    <!-- Geometry Shader -->
    <rect x="450" y="525" width="320" height="40" rx="5" fill="#f3e5f5" stroke="#9c27b0"/>
    <text x="460" y="545" font-family="Arial" font-size="10" fill="#6a1b9a" font-weight="bold">Geometry Shader</text>
    <text x="580" y="545" font-family="Arial" font-size="9" fill="#7b1fa2">Processes entire primitives → can add/delete geometry</text>
    <text x="460" y="560" font-family="Arial" font-size="8" fill="#8e24aa">Uses: Billboard particles, shadow volumes, wireframe</text>
  </g>
  
  <!-- Step 6: Rasterizer -->
  <g class="step" id="step6" data-narration="The Rasterizer converts primitives into fragments, interpolating vertex attributes across the surface for per-fragment processing.">
    <rect x="20" y="585" width="760" height="85" rx="8" fill="white" filter="url(#shadow)"/>
    <rect x="20" y="585" width="760" height="85" rx="8" fill="url(#redGrad)" opacity="0.1"/>
    
    <text x="40" y="610" font-family="Arial" font-size="13" font-weight="bold" fill="#c62828">Rasterizer: Primitives → Fragments</text>
    
    <!-- Visual representation -->
    <rect x="40" y="625" width="120" height="35" rx="4" fill="#ffebee" stroke="#f44336"/>
    <polygon points="100,635 85,655 115,655" fill="none" stroke="#c62828" stroke-width="2"/>
    <text x="100" y="648" text-anchor="middle" font-family="Arial" font-size="8" fill="#c62828">Primitive</text>
    <text x="100" y="658" text-anchor="middle" font-family="Arial" font-size="7" fill="#c62828">(triangle)</text>
    
    <path d="M170 642 L210 642" stroke="#f44336" stroke-width="2" marker-end="url(#arrow)"/>
    
    <!-- Grid of fragments -->
    <g>
      <rect x="220" y="625" width="100" height="35" rx="2" fill="#ffcdd2"/>
      <rect x="222" y="627" width="8" height="8" fill="#ef5350"/>
      <rect x="232" y="627" width="8" height="8" fill="#ef5350"/>
      <rect x="242" y="627" width="8" height="8" fill="#ef5350"/>
      <rect x="252" y="627" width="8" height="8" fill="#ef5350"/>
      <rect x="262" y="627" width="8" height="8" fill="#ef5350"/>
      <rect x="272" y="627" width="8" height="8" fill="#ef5350"/>
      <rect x="282" y="627" width="8" height="8" fill="#ef5350"/>
      <rect x="292" y="627" width="8" height="8" fill="#ef5350"/>
      <rect x="302" y="627" width="8" height="8" fill="#ef5350"/>
      <rect x="222" y="637" width="8" height="8" fill="#ef5350"/>
      <rect x="232" y="637" width="8" height="8" fill="#ef5350"/>
      <rect x="242" y="637" width="8" height="8" fill="#ef5350"/>
      <rect x="252" y="637" width="8" height="8" fill="#ef5350"/>
      <rect x="262" y="637" width="8" height="8" fill="#ef5350"/>
      <rect x="272" y="637" width="8" height="8" fill="#ef5350"/>
      <rect x="282" y="637" width="8" height="8" fill="#ef5350"/>
      <rect x="292" y="637" width="8" height="8" fill="#ef5350"/>
      <rect x="302" y="637" width="8" height="8" fill="#ef5350"/>
      <rect x="222" y="647" width="8" height="8" fill="#ef5350"/>
      <rect x="232" y="647" width="8" height="8" fill="#ef5350"/>
      <rect x="242" y="647" width="8" height="8" fill="#ef5350"/>
      <rect x="252" y="647" width="8" height="8" fill="#ef5350"/>
      <rect x="262" y="647" width="8" height="8" fill="#ef5350"/>
      <rect x="272" y="647" width="8" height="8" fill="#ef5350"/>
      <rect x="282" y="647" width="8" height="8" fill="#ef5350"/>
      <rect x="292" y="647" width="8" height="8" fill="#ef5350"/>
      <rect x="302" y="647" width="8" height="8" fill="#ef5350"/>
      <text x="270" y="665" text-anchor="middle" font-family="Arial" font-size="8" fill="#c62828">Fragments</text>
    </g>
    
    <text x="400" y="630" font-family="Arial" font-size="9" fill="#c62828">Operations:</text>
    <text x="400" y="645" font-family="Arial" font-size="8" fill="#c62828">• Interpolates vertex attributes</text>
    <text x="400" y="658" font-family="Arial" font-size="8" fill="#c62828">• Clipping &amp; scissor testing</text>
    <text x="400" y="671" font-family="Arial" font-size="8" fill="#c62828">• Depth/fragment generation</text>
    
    <rect x="550" y="625" width="220" height="35" rx="4" fill="#ffcdd2" stroke="#c62828"/>
    <text x="560" y="640" font-family="Arial" font-size="9" fill="#c62828" font-weight="bold">Key Insight:</text>
    <text x="560" y="654" font-family="Arial" font-size="8" fill="#b71c1c">Vertex outputs → interpolated → Fragment inputs</text>
  </g>
  
  <!-- Step 7: Fragment Shader -->
  <g class="step" id="step7" data-narration="The Fragment Shader computes final pixel colors through per-fragment operations like texture sampling and per-pixel lighting calculations.">
    <rect x="20" y="680" width="760" height="95" rx="8" fill="white" filter="url(#shadow)"/>
    <rect x="20" y="680" width="760" height="95" rx="8" fill="url(#blueGrad)" opacity="0.1"/>
    
    <text x="40" y="705" font-family="Arial" font-size="13" font-weight="bold" fill="#1565c0">Fragment Shader (Pixel Shader)</text>
    
    <rect x="40" y="720" width="200" height="45" rx="5" fill="#e0f7fa" stroke="#00838f"/>
    <text x="50" y="738" font-family="Arial" font-size="10" fill="#006064" font-weight="bold">Fragment Shader Role</text>
    <text x="50" y="755" font-family="Arial" font-size="9" fill="#006064">Determines final pixel color</text>
    <text x="50" y="768" font-family="Arial" font-size="8" fill="#00838f">Per-fragment operations</text>
    
    <rect x="260" y="720" width="220" height="45" rx="5" fill="#e3f2fd" stroke="#1976d2"/>
    <text x="270" y="738" font-family="Arial" font-size="10" fill="#1565c0" font-weight="bold">Common Operations</text>
    <text x="270" y="752" font-family="Arial" font-size="8" fill="#1565c0">• Texture sampling (tex2D, texture)</text>
    <text x="270" y="764" font-family="Arial" font-size="8" fill="#1565c0">• Per-pixel lighting (Phong, Blinn-Phong)</text>
    <text x="270" y="776" font-family="Arial" font-size="8" fill="#1565c0">• Fog, transparency handling</text>
    
    <rect x="500" y="720" width="270" height="45" rx="5" fill="#fff3e0" stroke="#ff9800"/>
    <text x="510" y="738" font-family="Arial" font-size="10" fill="#e65100" font-weight="bold">Gouraud vs Phong</text>
    <text x="510" y="752" font-family="Arial" font-size="8" fill="#f57c00">Gouraud: Lighting at vertices, interpolated</text>
    <text x="510" y="764" font-family="Arial" font-size="8" fill="#f57c00">Phong: Interpolate normals, compute per-pixel</text>
    <text x="510" y="776" font-family="Arial" font-size="8" fill="#e65100">Result: Smoother specular highlights</text>
  </g>
  
  <!-- Step 8: Output Merger -->
  <g class="step" id="step8" data-narration="The Output Merger combines fragment colors with the framebuffer through depth testing, stencil operations, and blending.">
    <rect x="20" y="785" width="760" height="70" rx="8" fill="white" filter="url(#shadow)"/>
    <rect x="20" y="785" width="760" height="70" rx="8" fill="url(#purpleGrad)" opacity="0.1"/>
    
    <text x="40" y="810" font-family="Arial" font-size="13" font-weight="bold" fill="#6a1b9a">Output Merger: Final Composition</text>
    
    <rect x="40" y="825" width="150" height="22" rx="4" fill="#f3e5f5" stroke="#9c27b0"/>
    <text x="50" y="841" font-family="Arial" font-size="9" fill="#6a1b9a">Depth Testing</text>
    
    <rect x="200" y="825" width="150" height="22" rx="4" fill="#f3e5f5" stroke="#9c27b0"/>
    <text x="210" y="841" font-family="Arial" font-size="9" fill="#6a1b9a">Stencil Testing</text>
    
    <rect x="360" y="825" width="150" height="22" rx="4" fill="#f3e5f5" stroke="#9c27b0"/>
    <text x="370" y="841" font-family="Arial" font-size="9" fill="#6a1b9a">Blending</text>
    
    <rect x="520" y="825" width="150" height="22" rx="4" fill="#f3e5f5" stroke="#9c27b0"/>
    <text x="530" y="841" font-family="Arial" font-size="9" fill="#6a1b9a">Write Masking</text>
    
    <text x="700" y="835" font-family="Arial" font-size="9" fill="#7b1fa2">→ Framebuffer</text>
    <text x="700" y="850" font-family="Arial" font-size="9" fill="#7b1fa2">→ Display</text>
  </g>
  
  <!-- Step 9: Shader Code Example - Vertex Shader -->
  <g class="step" id="step9" data-narration="Here's a vertex shader that transforms positions through model-view-projection matrices and passes data to the fragment shader.">
    <rect x="20" y="865" width="760" height="100" rx="8" fill="white" filter="url(#shadow)"/>
    <rect x="20" y="865" width="760" height="100" rx="8" fill="url(#shaderGrad)" opacity="0.1"/>
    
    <text x="40" y="890" font-family="Arial" font-size="13" font-weight="bold" fill="#1a237e">Example 1: Vertex Shader (GLSL)</text>
    
    <rect x="40" y="905" width="350" height="50" rx="5" fill="#1a237e"/>
    <text x="50" y="920" font-family="Consolas" font-size="9" fill="#64b5f6">// Vertex attributes</text>
    <text x="50" y="935" font-family="Consolas" font-size="8" fill="#90caf9">layout(location=0) in vec3 aPosition;</text>
    <text x="50" y="948" font-family="Consolas" font-size="8" fill="#90caf9">layout(location=1) in vec3 aNormal;</text>
    
    <rect x="400" y="905" width="370" height="50" rx="5" fill="#1a237e"/>
    <text x="410" y="920" font-family="Consolas" font-size="9" fill="#64b5f6">// Uniform matrices from app</text>
    <text x="410" y="935" font-family="Consolas" font-size="8" fill="#90caf9">uniform mat4 modelMatrix;</text>
    <text x="410" y="948" font-family="Consolas" font-size="8" fill="#90caf9">uniform mat4 viewMatrix, projectionMatrix;</text>
    
    <rect x="40" y="960" width="730" height="1" stroke="#3949ab" stroke-width="1"/>
    
    <rect x="40" y="965" width="730" height="1" stroke="#3949ab" stroke-width="1"/>
    
    <text x="50" y="980" font-family="Consolas" font-size="9" fill="#64b5f6">// Transform position: Model → World → View → Clip</text>
    <text x="50" y="995" font-family="Consolas" font-size="8" fill="#bbdefb" font-weight="bold">gl_Position = projectionMatrix * viewMatrix * modelMatrix * vec4(aPosition, 1.0);</text>
    
    <text x="50" y="1010" font-family="Consolas" font-size="9" fill="#64b5f6">// Transform normal: use normalMatrix (inverse-transpose)</text>
    <text x="50" y="1025" font-family="Consolas" font-size="8" fill="#bbdefb" font-weight="bold">vNormal = normalMatrix * aNormal;  // Pass to fragment shader</text>
    
    <text x="580" y="1020" font-family="Arial" font-size="9" fill="#1a237e" font-style="italic">Output: gl_Position, varyings → interpolated → fragment shader</text>
  </g>
  
  <!-- Step 10: Fragment Shader - Phong Lighting -->
  <g class="step" id="step10" data-narration="This fragment shader implements Blinn-Phong lighting with ambient, diffuse, and specular components computed per-pixel for smooth results.">
    <rect x="20" y="975" width="760" height="110" rx="8" fill="white" filter="url(#shadow)"/>
    <rect x="20" y="975" width="760" height="110" rx="8" fill="url(#shaderGrad)" opacity="0.1"/>
    
    <text x="40" y="1000" font-family="Arial" font-size="13" font-weight="bold" fill="#1a237e">Example 2: Fragment Shader - Blinn-Phong Lighting</text>
    
    <rect x="40" y="1015" width="300" height="60" rx="5" fill="#1a237e"/>
    <text x="50" y="1030" font-family="Consolas" font-size="8" fill="#64b5f6">// Receive interpolated from vertex</text>
    <text x="50" y="1045" font-family="Consolas" font-size="8" fill="#90caf9">in vec3 vNormal; in vec3 vFragPos;</text>
    <text x="50" y="1060" font-family="Consolas" font-size="8" fill="#64b5f6">// Lighting uniforms</text>
    <text x="50" y="1075" font-family="Consolas" font-size="8" fill="#90caf9">uniform vec3 lightPos, viewPos, lightColor, objColor;</text>
    
    <!-- Formula cards -->
    <rect x="350" y="1015" width="200" height="25" rx="4" fill="#fff3e0" stroke="#ff9800"/>
    <text x="360" y="1030" font-family="Consolas" font-size="9" fill="#e65100">Ambient</text>
    <text x="450" y="1030" font-family="Consolas" font-size="9" fill="#e65100">ambientStrength * lightColor</text>
    
    <rect x="350" y="1045" width="200" height="25" rx="4" fill="#e8f5e9" stroke="#388e3c"/>
    <text x="360" y="1060" font-family="Consolas" font-size="9" fill="#2e7d32">Diffuse</text>
    <text x="450" y="1060" font-family="Consolas" font-size="9" fill="#2e7d32">max(dot(N,L), 0) * lightColor</text>
    
    <rect x="560" y="1015" width="210" height="25" rx="4" fill="#f3e5f5" stroke="#9c27b0"/>
    <text x="570" y="1030" font-family="Consolas" font-size="9" fill="#6a1b9a">Specular</text>
    <text x="670" y="1030" font-family="Consolas" font-size="9" fill="#6a1b9a">pow(max(dot(R,V),0),32)</text>
    
    <rect x="560" y="1045" width="210" height="25" rx="4" fill="#e0f7fa" stroke="#00838f"/>
    <text x="570" y="1060" font-family="Consolas" font-size="9" fill="#006064">Blinn-Phong</text>
    <text x="670" y="1060" font-family="Consolas" font-size="9" fill="#006064">pow(max(dot(H,N),0),32)</text>
    
    <rect x="40" y="1080" width="730" height="1" stroke="#3949ab"/>
    
    <text x="50" y="1098" font-family="Consolas" font-size="9" fill="#bbdefb">vec3 ambient = 0.1 * lightColor;</text>
    <text x="250" y="1098" font-family="Consolas" font-size="9" fill="#bbdefb">vec3 L = normalize(lightPos - fragPos);</text>
    <text x="450" y="1098" font-family="Consolas" font-size="9" fill="#bbdefb">float diff = max(dot(N, L), 0.0);</text>
    <text x="640" y="1098" font-family="Consolas" font-size="9" fill="#bbdefb">vec3 result = (ambient + diffuse + specular) * objColor;</text>
    
    <text x="50" y="1115" font-family="Consolas" font-size="9" fill="#bbdefb">fragColor = vec4(result, 1.0);</text>
    <text x="180" y="1115" font-family="Arial" font-size="9" fill="#1a237e">← Output final pixel color</text>
  </g>
  
  <!-- Step 11: Texture Sampling Example -->
  <g class="step" id="step11" data-narration="Texture sampling in fragment shaders fetches color values using interpolated texture coordinates for detailed surface materials.">
    <rect x="20" y="1095" width="760" height="80" rx="8" fill="white" filter="url(#shadow)"/>
    <rect x="20" y="1095" width="760" height="80" rx="8" fill="url(#blueGrad)" opacity="0.1"/>
    
    <text x="40" y="1120" font-family="Arial" font-size="13" font-weight="bold" fill="#1565c0">Example 3: Texture Sampling &amp; Multi-texturing</text>
    
    <!-- GLSL Code -->
    <rect x="40" y="1135" width="350" height="30" rx="4" fill="#1a237e"/>
    <text x="50" y="1150" font-family="Consolas" font-size="9" fill="#90caf9">uniform sampler2D diffuseTex, specularTex, normalTex;</text>
    <text x="50" y="1165" font-family="Consolas" font-size="9" fill="#90caf9">in vec2 vTexCoord;  // Interpolated from vertex</text>
    
    <rect x="400" y="1135" width="200" height="30" rx="4" fill="#e8f5e9" stroke="#388e3c"/>
    <text x="410" y="1155" font-family="Consolas" font-size="10" fill="#2e7d32">// Sample textures</text>
    <text x="410" y="1170" font-family="Consolas" font-size="9" fill="#388e3c">vec4 diffColor = texture(diffuseTex, vTexCoord);</text>
    
    <!-- Visual texture -->
    <rect x="610" y="1135" width="160" height="30" rx="4" fill="#fff8e1" stroke="#ffb300"/>
    <rect x="620" y="1143" width="24" height="14" fill="#8d6e63"/>
    <rect x="646" y="1143" width="24" height="14" fill="#a1887f"/>
    <rect x="672" y="1143" width="24" height="14" fill="#bcaaa4"/>
    <rect x="698" y="1143" width="24" height="14" fill="#d7ccc8"/>
    <rect x="620" y="1159" width="24" height="2" fill="#8d6e63"/>
    <text x="700" y="1145" font-family="Arial" font-size="7" fill="#f57f17">Diffuse</text>
    <text x="700" y="1155" font-family="Arial" font-size="7" fill="#f57f17">Map</text>
    
    <rect x="610" y="1170" width="160" height="1" stroke="#ffb300"/>
    
    <rect x="610" y="1175" width="160" height="30" rx="4" fill="#e3f2fd" stroke="#1976d2"/>
    <rect x="620" y="1183" width="24" height="14" fill="#424242"/>
    <rect x="646" y="1183" width="24" height="14" fill="#757575"/>
    <rect x="672" y="1183" width="24" height="14" fill="#bdbdbd"/>
    <rect x="698" y="1183" width="24" height="14" fill="#eeeeee"/>
    <text x="700" y="1185" font-family="Arial" font-size="7" fill="#1565c0">Specular</text>
    <text x="700" y="1195" font-family="Arial" font-size="7" fill="#1565c0">Map</text>
    
    <text x="40" y="1200" font-family="Arial" font-size="9" fill="#1565c0">// Alpha testing for transparency:</text>
    <text x="40" y="1215" font-family="Consolas" font-size="9" fill="#1976d2">if(diffColor.a &lt; 0.1) discard;  // Skip transparent fragments</text>
  </g>
  
  <!-- Step 12: Uniform Variables -->
  <g class="step" id="step12" data-narration="Uniform variables pass data from the application to shaders, remaining constant across all vertices and fragments during a draw call.">
    <rect x="20" y="1185" width="760" height="65" rx="8" fill="white" filter="url(#shadow)"/>
    <rect x="20" y="1185" width="760" height="65" rx="8" fill="url(#greenGrad)" opacity="0.1"/>
    
    <text x="40" y="1210" font-family="Arial" font-size="13" font-weight="bold" fill="#2e7d32">Uniform Variables: App → Shader Communication</text>
    
</svg>