<svg viewBox="0 0 800 1400" xmlns="http://www.w3.org/2000/svg">
  <defs>
    <!-- Gradients -->
    <linearGradient id="titleGradient" x1="0%" y1="0%" x2="100%" y2="100%">
      <stop offset="0%" stop-color="#1565c0"/>
      <stop offset="100%" stop-color="#42a5f5"/>
    </linearGradient>
    <linearGradient id="blueGradient" x1="0%" y1="0%" x2="100%" y2="100%">
      <stop offset="0%" stop-color="#e3f2fd"/>
      <stop offset="100%" stop-color="#bbdefb"/>
    </linearGradient>
    <linearGradient id="greenGradient" x1="0%" y1="0%" x2="100%" y2="100%">
      <stop offset="0%" stop-color="#e8f5e9"/>
      <stop offset="100%" stop-color="#c8e6c9"/>
    </linearGradient>
    <linearGradient id="orangeGradient" x1="0%" y1="0%" x2="100%" y2="100%">
      <stop offset="0%" stop-color="#fff3e0"/>
      <stop offset="100%" stop-color="#ffe0b2"/>
    </linearGradient>
    <linearGradient id="redGradient" x1="0%" y1="0%" x2="100%" y2="100%">
      <stop offset="0%" stop-color="#ffebee"/>
      <stop offset="100%" stop-color="#ffcdd2"/>
    </linearGradient>
    <linearGradient id="purpleGradient" x1="0%" y1="0%" x2="100%" y2="100%">
      <stop offset="0%" stop-color="#f3e5f5"/>
      <stop offset="100%" stop-color="#e1bee7"/>
    </linearGradient>
    <linearGradient id="codeGradient" x1="0%" y1="0%" x2="0%" y2="100%">
      <stop offset="0%" stop-color="#263238"/>
      <stop offset="100%" stop-color="#37474f"/>
    </linearGradient>
    
    <!-- Arrow marker -->
    <marker id="arrowBlue" markerWidth="10" markerHeight="10" refX="9" refY="3" orient="auto">
      <path d="M0,0 L0,6 L9,3 z" fill="#1976d2"/>
    </marker>
    <marker id="arrowGreen" markerWidth="10" markerHeight="10" refX="9" refY="3" orient="auto">
      <path d="M0,0 L0,6 L9,3 z" fill="#388e3c"/>
    </marker>
    <marker id="arrowOrange" markerWidth="10" markerHeight="10" refX="9" refY="3" orient="auto">
      <path d="M0,0 L0,6 L9,3 z" fill="#ff9800"/>
    </marker>
    
    <!-- Drop shadow filter -->
    <filter id="shadow" x="-20%" y="-20%" width="140%" height="140%">
      <feDropShadow dx="2" dy="3" stdDeviation="3" flood-opacity="0.2"/>
    </filter>
  </defs>
  
  <style>
    @keyframes fadeInSlide {
      from { opacity: 0; transform: translateY(20px); }
      to { opacity: 1; transform: translateY(0); }
    }
    @keyframes scaleIn {
      from { opacity: 0; transform: scale(0.85); }
      to { opacity: 1; transform: scale(1); }
    }
    @keyframes textReveal {
      from { opacity: 0; transform: translateX(-10px); }
      to { opacity: 1; transform: translateX(0); }
    }
    @keyframes pulse {
      0%, 100% { transform: scale(1); }
      50% { transform: scale(1.03); }
    }
    @keyframes drawLine {
      from { stroke-dashoffset: 300; }
      to { stroke-dashoffset: 0; }
    }
    @keyframes typeCode {
      from { width: 0; }
      to { width: 100%; }
    }
    .step { animation: fadeInSlide 0.6s ease-out; }
    .step rect { animation: scaleIn 0.5s cubic-bezier(0.34, 1.56, 0.64, 1); transform-origin: center; }
    .step text { animation: textReveal 0.4s ease-out 0.2s backwards; }
    .title-text { font-size: 28px; font-weight: bold; fill: white; }
    .step-title { font-size: 14px; font-weight: bold; fill: #333; }
    .step-body { font-size: 10px; fill: #555; }
    .code-text { font-size: 9px; font-family: monospace; fill: #aed581; }
    .keyword { fill: #82b1ff; }
    .function { fill: #ffcc80; }
    .number { fill: #f48fb1; }
    .comment { fill: #78909c; }
    .highlight { fill: #ff9800; font-weight: bold; }
  </style>
  
  <!-- Background -->
  <rect width="800" height="1400" fill="#f8f9fa"/>
  
  <!-- STEP 0: Title Card -->
  <g class="step" id="step0">
    <rect x="0" y="0" width="800" height="55" fill="url(#titleGradient)" rx="0"/>
    <text x="400" y="38" text-anchor="middle" class="title-text">Recursion</text>
    <text x="400" y="50" text-anchor="middle" font-size="10" fill="#e3f2fd">A Fundamental Programming Technique</text>
  </g>
  
  <!-- STEP 1: What is Recursion? -->
  <g class="step" id="step1" data-narration="Recursion is a technique where a method calls itself to solve problems by breaking them into simpler sub-problems of the same type.">
    <rect x="20" y="65" width="760" height="85" fill="url(#blueGradient)" rx="8" filter="url(#shadow)"/>
    <text x="40" y="85" class="step-title" fill="#1565c0">What is Recursion?</text>
    <rect x="40" y="95" width="4" height="45" fill="#1976d2" rx="2"/>
    <text x="55" y="108" class="step-body">A programming technique where a method calls</text>
    <text x="55" y="122" class="step-body">itself to solve a problem by breaking it down into</text>
    <text x="55" y="136" class="step-body">simpler sub-problems of the same type.</text>
    <!-- Visual: Method calling itself -->
    <rect x="580" y="85" width="180" height="50" fill="white" rx="5" stroke="#1976d2" stroke-width="2"/>
    <text x="670" y="112" text-anchor="middle" font-size="11" font-family="monospace" fill="#333">method()</text>
    <path d="M640,120 L600,120" stroke="#1976d2" stroke-width="2" marker-end="url(#arrowBlue)">
      <animate attributeName="d" from="M670,130 L670,130" to="M600,120" dur="1s" fill="freeze"/>
    </path>
  </g>
  
  <!-- STEP 2: Components of Recursion -->
  <g class="step" id="step2" data-narration="Every recursive method needs two essential parts: a base case that stops recursion, and a recursive case that calls itself with modified parameters.">
    <rect x="20" y="165" width="370" height="85" fill="url(#greenGradient)" rx="8" filter="url(#shadow)"/>
    <text x="40" y="185" class="step-title" fill="#388e3c">Base Case</text>
    <rect x="40" y="195" width="4" height="45" fill="#388e3c" rx="2"/>
    <text x="55" y="208" class="step-body">Condition that stops the recursion.</text>
    <text x="55" y="222" class="step-body">Smallest input solved directly.</text>
    <text x="55" y="236" class="step-body" fill="#388e3c" font-weight="bold">Example: if (n == 0) return 1;</text>
    
    <rect x="410" y="165" width="370" height="85" fill="url(#orangeGradient)" rx="8" filter="url(#shadow)"/>
    <text x="430" y="185" class="step-title" fill="#f57c00">Recursive Case</text>
    <rect x="430" y="195" width="4" height="45" fill="#ff9800" rx="2"/>
    <text x="445" y="208" class="step-body">Method calls itself with</text>
    <text x="445" y="222" class="step-body">modified parameters.</text>
    <text x="445" y="236" class="step-body" fill="#f57c00" font-weight="bold">Example: return n * fact(n-1);</text>
  </g>
  
  <!-- STEP 3: How Recursion Works -->
  <g class="step" id="step3" data-narration="When a method calls itself, a new stack frame is created. Each call is added to the stack until reaching the base case, then they return in reverse order.">
    <rect x="20" y="265" width="760" height="90" fill="url(#purpleGradient)" rx="8" filter="url(#shadow)"/>
    <text x="40" y="285" class="step-title" fill="#7b1fa2">How Recursion Works - Execution Stack</text>
    
    <!-- Stack visualization -->
    <rect x="50" y="295" width="100" height="50" fill="#fafafa" rx="3" stroke="#7b1fa2" stroke-width="1"/>
    <text x="100" y="315" text-anchor="middle" font-size="9" fill="#333">Stack Frame 1</text>
    <text x="100" y="330" text-anchor="middle" font-size="8" fill="#666">fact(3)</text>
    
    <rect x="160" y="295" width="100" height="50" fill="#fafafa" rx="3" stroke="#7b1fa2" stroke-width="1"/>
    <text x="210" y="315" text-anchor="middle" font-size="9" fill="#333">Stack Frame 2</text>
    <text x="210" y="330" text-anchor="middle" font-size="8" fill="#666">fact(2)</text>
    
    <rect x="270" y="295" width="100" height="50" fill="#fafafa" rx="3" stroke="#7b1fa2" stroke-width="1"/>
    <text x="320" y="315" text-anchor="middle" font-size="9" fill="#333">Stack Frame 3</text>
    <text x="320" y="330" text-anchor="middle" font-size="8" fill="#666">fact(1)</text>
    
    <text x="420" y="305" font-size="10" fill="#7b1fa2" font-weight="bold">↓ Base Case Reached!</text>
    <text x="420" y="320" font-size="9" fill="#666">Returns 1</text>
    <text x="420" y="335" font-size="9" fill="#666">Frames pop off</text>
    <text x="420" y="350" font-size="9" fill="#666">returning values</text>
    
    <!-- Arrow showing stack growth -->
    <path d="M200,275 L200,290" stroke="#7b1fa2" stroke-width="2" marker-end="url(#arrowBlue)" stroke-dasharray="5,5">
      <animate attributeName="d" values="M200,275 L200,275;M200,275 L200,290" dur="1s" fill="freeze"/>
    </path>
    <text x="220" y="285" font-size="8" fill="#7b1fa2">Stack grows down</text>
  </g>
  
  <!-- STEP 4: Factorial - Code -->
  <g class="step" id="step4" data-narration="Let's examine the factorial function. The base case returns 1 when n is 0 or 1. The recursive case multiplies n by factorial of n-1.">
    <rect x="20" y="370" width="760" height="95" fill="#263238" rx="8" filter="url(#shadow)"/>
    <text x="40" y="390" class="step-title" fill="white">Example: Factorial</text>
    
    <text x="50" y="415" class="code-text"><tspan class="keyword">public static</tspan> <tspan class="function">int</tspan> <tspan class="highlight">factorial</tspan>(<tspan class="function">int</tspan> n) {</text>
    <text x="70" y="432" class="code-text"><tspan class="comment">// Base case</tspan></text>
    <text x="70" y="447" class="code-text"><tspan class="keyword">if</tspan> (n == 0 || n == 1) {</text>
    <text x="90" y="462" class="code-text"><tspan class="keyword">return</tspan> <tspan class="number">1</tspan>;</text>
    <text x="70" y="477" class="code-text">}</text>
    <text x="70" y="492" class="code-text"><tspan class="comment">// Recursive case</tspan></text>
    <text x="70" y="507" class="code-text"><tspan class="keyword">return</tspan> n * <tspan class="highlight">factorial</tspan>(n - <tspan class="number">1</tspan>);</text>
    <text x="50" y="522" class="code-text">}</text>
    
    <!-- Base case highlight -->
    <rect x="65" y="425" width="180" height="25" fill="#388e3c" rx="3" opacity="0.3">
      <animate attributeName="opacity" values="0;0.3;0.5;0.3" dur="2s" repeatCount="indefinite"/>
    </rect>
    <!-- Recursive case highlight -->
    <rect x="65" y="485" width="200" height="25" fill="#ff9800" rx="3" opacity="0.3">
      <animate attributeName="opacity" values="0;0.3;0.5;0.3" dur="2s" repeatCount="indefinite" begin="1s"/>
    </rect>
  </g>
  
  <!-- STEP 5: Factorial Trace -->
  <g class="step" id="step5" data-narration="For factorial(5), we multiply 5×4×3×2×1 to get 120. Each recursive call adds to the stack until the base case returns 1.">
    <rect x="20" y="480" width="760" height="85" fill="url(#greenGradient)" rx="8" filter="url(#shadow)"/>
    <text x="40" y="500" class="step-title" fill="#388e3c">Factorial(5) = 5 × 4 × 3 × 2 × 1 = 120</text>
    
    <!-- Visual multiplication chain -->
    <g transform="translate(50, 520)">
      <rect x="0" y="0" width="50" height="30" fill="#1976d2" rx="4"/>
      <text x="25" y="20" text-anchor="middle" fill="white" font-size="11">5 ×</text>
      
      <rect x="55" y="0" width="50" height="30" fill="#1976d2" rx="4"/>
      <text x="80" y="20" text-anchor="middle" fill="white" font-size="11">4 ×</text>
      
      <rect x="110" y="0" width="50" height="30" fill="#1976d2" rx="4"/>
      <text x="135" y="20" text-anchor="middle" fill="white" font-size="11">3 ×</text>
      
      <rect x="165" y="0" width="50" height="30" fill="#1976d2" rx="4"/>
      <text x="190" y="20" text-anchor="middle" fill="white" font-size="11">2 ×</text>
      
      <rect x="220" y="0" width="50" height="30" fill="#388e3c" rx="4"/>
      <text x="245" y="20" text-anchor="middle" fill="white" font-size="11">1</text>
      
      <text x="300" y="20" font-size="14" fill="#388e3c" font-weight="bold">= 120</text>
    </g>
    
    <!-- Stack trace explanation -->
    <text x="450" y="515" font-size="9" fill="#666">factorial(5)</text>
    <path d="M500,512 L520,512" stroke="#388e3c" stroke-width="1" marker-end="url(#arrowGreen)"/>
    <text x="530" y="515" font-size="9" fill="#666">factorial(4)</text>
    <path d="M590,512 L610,512" stroke="#388e3c" stroke-width="1" marker-end="url(#arrowGreen)"/>
    <text x="620" y="515" font-size="9" fill="#666">... → 1 (base)</text>
  </g>
  
  <!-- STEP 6: Fibonacci - Code -->
  <g class="step" id="step6" data-narration="The Fibonacci sequence has each number as the sum of the two preceding ones. Base case returns n when n is 0 or 1.">
    <rect x="20" y="580" width="760" height="95" fill="#263238" rx="8" filter="url(#shadow)"/>
    <text x="40" y="600" class="step-title" fill="white">Example: Fibonacci</text>
    
    <text x="50" y="625" class="code-text"><tspan class="keyword">public static</tspan> <tspan class="function">int</tspan> <tspan class="highlight">fibonacci</tspan>(<tspan class="function">int</tspan> n) {</text>
    <text x="70" y="642" class="code-text"><tspan class="comment">// Base case</tspan></text>
    <text x="70" y="657" class="code-text"><tspan class="keyword">if</tspan> (n &lt;= <tspan class="number">1</tspan>) {</text>
    <text x="90" y="672" class="code-text"><tspan class="keyword">return</tspan> n;</text>
    <text x="70" y="687" class="code-text">}</text>
    <text x="70" y="702" class="code-text"><tspan class="comment">// Recursive case</tspan></text>
    <text x="70" y="717" class="code-text"><tspan class="keyword">return</tspan> <tspan class="highlight">fibonacci</span>(n - <tspan class="number">1</tspan>) + <tspan class="highlight">fibonacci</tspan>(n - <tspan class="number">2</tspan>);</text>
    <text x="50" y="732" class="code-text">}</text>
    
    <!-- Note about the two recursive calls -->
    <rect x="350" y="630" width="200" height="50" fill="#ff9800" rx="4" opacity="0.2"/>
    <text x="450" y="655" text-anchor="middle" font-size="9" fill="#ff9800">Two recursive calls!</text>
    <text x="450" y="672" text-anchor="middle" font-size="8" fill="#666">Creates a tree structure</text>
  </g>
  
  <!-- STEP 7: Fibonacci Sequence -->
  <g class="step" id="step7" data-narration="The Fibonacci sequence is: 0, 1, 1, 2, 3, 5, 8, 13, 21, 34... Each number is the sum of the two preceding numbers.">
    <rect x="20" y="690" width="760" height="85" fill="url(#orangeGradient)" rx="8" filter="url(#shadow)"/>
    <text x="40" y="710" class="step-title" fill="#f57c00">Fibonacci Sequence</text>
    
    <!-- Sequence visualization -->
    <g transform="translate(50, 730)">
      <rect x="0" y="0" width="40" height="30" fill="#e0e0e0" rx="3"/>
      <text x="20" y="20" text-anchor="middle" fill="#666" font-size="10">0</text>
      
      <rect x="45" y="0" width="40" height="30" fill="#e0e0e0" rx="3"/>
      <text x="65" y="20" text-anchor="middle" fill="#666" font-size="10">1</text>
      
      <text x="95" y="18" font-size="10" fill="#ff9800">+</text>
      
      <rect x="110" y="0" width="40" height="30" fill="#e0e0e0" rx="3"/>
      <text x="130" y="20" text-anchor="middle" fill="#666" font-size="10">1</text>
      
      <text x="160" y="18" font-size="10" fill="#ff9800">=</text>
      
      <rect x="175" y="0" width="40" height="30" fill="#ff9800" rx="3"/>
      <text x="195" y="20" text-anchor="middle" fill="white" font-size="10" font-weight="bold">2</text>
      
      <rect x="220" y="0" width="40" height="30" fill="#e0e0e0" rx="3"/>
      <text x="240" y="20" text-anchor="middle" fill="#666" font-size="10">1</text>
      
      <text x="270" y="18" font-size="10" fill="#ff9800">+</text>
      
      <rect x="285" y="0" width="40" height="30" fill="#e0e0e0" rx="3"/>
      <text x="305" y="20" text-anchor="middle" fill="#666" font-size="10">2</text>
      
      <text x="335" y="18" font-size="10" fill="#ff9800">=</text>
      
      <rect x="350" y="0" width="40" height="30" fill="#ff9800" rx="3"/>
      <text x="370" y="20" text-anchor="middle" fill="white" font-size="10" font-weight="bold">3</text>
      
      <rect x="395" y="0" width="40" height="30" fill="#e0e0e0" rx="3"/>
      <text x="415" y="20" text-anchor="middle" fill="#666" font-size="10">2</text>
      
      <text x="445" y="18" font-size="10" fill="#ff9800">+</text>
      
      <rect x="460" y="0" width="40" height="30" fill="#e0e0e0" rx="3"/>
      <text x="480" y="20" text-anchor="middle" fill="#666" font-size="10">3</text>
      
      <text x="510" y="18" font-size="10" fill="#ff9800">=</text>
      
      <rect x="525" y="0" width="40" height="30" fill="#ff9800" rx="3"/>
      <text x="545" y="20" text-anchor="middle" fill="white" font-size="10" font-weight="bold">5</text>
    </g>
    
    <text x="600" y="745" font-size="9" fill="#666">fibonacci(5) = 5</text>
  </g>
  
  <!-- STEP 8: Advantages -->
  <g class="step" id="step8" data-narration="Recursion offers clean and elegant code structure. It naturally solves complex problems and is excellent for traversing trees and graphs.">
    <rect x="20" y="790" width="370" height="85" fill="url(#greenGradient)" rx="8" filter="url(#shadow)"/>
    <text x="40" y="810" class="step-title" fill="#388e3c">✓ Advantages of Recursion</text>
    
    <g transform="translate(50, 830)">
      <circle cx="5" cy="0" r="4" fill="#388e3c"/>
      <text x="18" y="4" font-size="9" fill="#333">Clean and elegant code</text>
      
      <circle cx="5" cy="20" r="4" fill="#388e3c"/>
      <text x="18" y="24" font-size="9" fill="#333">Solves complex problems naturally</text>
      
      <circle cx="5" cy="40" r="4" fill="#388e3c"/>
      <text x="18" y="44" font-size="9" fill="#333">Good for tree/graph traversal</text>
    </g>
    
    <!-- Tree icon -->
    <g transform="translate(300, 835)">
      <line x1="20" y1="40" x2="20" y2="20" stroke="#388e3c" stroke-width="2"/>
      <line x1="20" y1="20" x2="5" y2="5" stroke="#388e3c" stroke-width="2"/>
      <line x1="20" y1="20" x2="35" y2="5" stroke="#388e3c" stroke-width="2"/>
      <line x1="5" y1="5" x2="0" y2="-8" stroke="#388e3c" stroke-width="2"/>
      <line x1="5" y1="5" x2="10" y2="-8" stroke="#388e3c" stroke-width="2"/>
      <line x1="35" y1="5" x2="30" y2="-8" stroke="#388e3c" stroke-width="2"/>
      <line x1="35" y1="5" x2="40" y2="-8" stroke="#388e3c" stroke-width="2"/>
      <circle cx="20" cy="40" r="4" fill="#388e3c"/>
      <circle cx="20" cy="20" r="4" fill="#388e3c"/>
      <circle cx="5" cy="5" r="3" fill="#388e3c"/>
      <circle cx="35" cy="5" r="3" fill="#388e3c"/>
    </g>
  </g>
  
  <!-- STEP 9: Disadvantages -->
  <g class="step" id="step9" data-narration="Recursion can cause stack overflow with deep calls. It uses more memory due to stack frames and may be slower than iterative solutions.">
    <rect x="410" y="790" width="370" height="85" fill="url(#redGradient)" rx="8" filter="url(#shadow)"/>
    <text x="430" y="810" class="step-title" fill="#d32f2f">✗ Disadvantages of Recursion</text>
    
    <g transform="translate(440, 830)">
      <circle cx="5" cy="0" r="4" fill="#f44336"/>
      <text x="18" y="4" font-size="9" fill="#333">Can cause stack overflow</text>
      
      <circle cx="5" cy="20" r="4" fill="#f44336"/>
      <text x="18" y="24" font-size="9" fill="#333">Higher memory usage</text>
      
      <circle cx="5" cy="40" r="4" fill="#f44336"/>
      <text x="18" y="44" font-size="9" fill="#333">May be slower than iteration</text>
    </g>
    
    <!-- Stack overflow visual -->
    <rect x="700" y="835" width="60" height="35" fill="#f44336" rx="3" opacity="0.7">
      <animate attributeName="opacity" values="0.7;0.4;0.7" dur="1s" repeatCount="indefinite"/>
    </rect>
    <text x="730" y="852" text-anchor="middle" fill="white" font-size="8" font-weight="bold">STACK</text>
    <text x="730" y="862" text-anchor="middle" fill="white" font-size="8" font-weight="bold">OVERFLOW</text>
  </g>
  
  <!-- STEP 10: Comparison with Iteration -->
  <g class="step" id="step10" data-narration="Comparing recursion vs iteration: recursion has higher memory but cleaner code; iteration is faster and uses less memory but code is more complex.">
    <rect x="20" y="890" width="760" height="90" fill="url(#blueGradient)" rx="8" filter="url(#shadow)"/>
    <text x="40" y="910" class="step-title" fill="#1565c0">Recursion vs Iteration Comparison</text>
    
    <!-- Comparison table -->
    <g transform="translate(50, 925)">
      <rect x="0" y="0" width="200" height="45" fill="#1976d2" rx="4"/>
      <text x="100" y="18" text-anchor="middle" fill="white" font-size="11" font-weight="bold">Feature</text>
      <text x="100" y="35" text-anchor="middle" fill="white" font-size="10">Recursion</text>
      
      <rect x="205" y="0" width="200" height="45" fill="#388e3c" rx="4"/>
      <text x="305" y="18" text-anchor="middle" fill="white" font-size="11" font-weight="bold">Feature</text>
      <text x="305" y="35" text-anchor="middle" fill="white" font-size="10">Iteration</text>
      
      <!-- Row 1 -->
      <rect x="0" y="50" width="100" height="30" fill="#e3f2fd" rx="3"/>
      <text x="50" y="70" text-anchor="middle" font-size="9" fill="#333">Memory</text>
      <rect x="105" y="50" width="100" height="30" fill="#ffebee" rx="3"/>
      <text x="155" y="70" text-anchor="middle" font-size="9" fill="#d32f2f">Higher</text>
      <rect x="205" y="50" width="100" height="30" fill="#e8f5e9" rx="3"/>
      <text x="255" y="70" text-anchor="middle" font-size="9" fill="#388e3c">Lower</text>
      <rect x="310" y="50" width="100" height="30" fill="#e3f2fd" rx="3"/>
      <text x="360" y="70" text-anchor="middle" font-size="9" fill="#333">Iteration</text>
      
      <!-- Row 2 -->
      <rect x="0" y="85" width="100" height="30" fill="#e3f2fd" rx="3"/>
      <text x="50" y="105" text-anchor="middle" font-size="9" fill="#333">Speed</text>
      <rect x="105" y="85" width="100" height="30" fill="#fff3e0" rx="3"/>
      <text x="155" y="105" text-anchor="middle" font-size="9" fill="#f57c00">Slower</text>
      <rect x="205" y="85" width="100" height="30" fill="#e8f5e9" rx="3"/>
      <text x="255" y="105" text-anchor="middle" font-size="9" fill="#388e3c">Faster</text>
      <rect x="310" y="85" width="100" height="30" fill="#e3f2fd" rx="3"/>
      <text x="360" y="105" text-anchor="middle" font-size="9" fill="#333">Iteration</text>
    </g>
  </g>
  
  <!-- STEP 11: Real-World Applications -->
  <g class="step" id="step11" data-narration="Recursion is used in tree and graph traversal, parsing expressions, and solving hierarchical data structure problems naturally.">
    <rect x="20" y="995" width="760" height="85" fill="url(#purpleGradient)" rx="8" filter="url(#shadow)"/>
    <text x="40" y="1015" class="step-title" fill="#7b1fa2">Real-World Applications of Recursion</text>
    
    <g transform="translate(60, 1035)">
      <!-- Application 1: Tree traversal -->
      <rect x="0" y="0" width="220" height="35" fill="white" rx="4" stroke="#7b1fa2" stroke-width="1"/>
      <text x="110" y="18" text-anchor="middle" font-size="10" fill="#333">Tree/Graph Traversal</text>
      <text x="110" y="30" text-anchor="middle" font-size="8" fill="#666">DFS, BFS algorithms</text>
      
      <!-- Application 2: Parsing -->
      <rect x="240" y="0" width="220" height="35" fill="white" rx="4" stroke="#7b1fa2" stroke-width="1"/>
      <text x="350" y="18" text-anchor="middle" font-size="10" fill="#333">Parsing Expressions</text>
      <text x="350" y="30" text-anchor="middle" font-size="8" fill="#666">Compilers, calculators</text>
      
      <!-- Application 3: Complex problems -->
      <rect x="480" y="0" width="220" height="35" fill="white" rx="4" stroke="#7b1fa2" stroke-width="1"/>
      <text x="590" y="18" text-anchor="middle" font-size="10" fill="#333">Hierarchical Data</text>
      <text x="590" y="30" text-anchor="middle" font-size="8" fill="#666">File systems, org charts</text>
    </g>
  </g>
  
  <!-- STEP 12: Exam Tips -->
  <g class="step" id="step12" data-narration="For exams, focus on identifying base cases and recursive cases in code. Practice factorial and Fibonacci problems thoroughly.">
    <rect x="20" y="1095" width="760" height="85" fill="url(#orangeGradient)" rx="8" filter="url(#shadow)"/>
    <text x="40" y="1115" class="step-title" fill="#f57c00">📝 Exam Tips</text>
    
    <g transform="translate(50, 1135)">
      <rect x="0" y="0" width="220" height="35" fill="white" rx="4" stroke="#ff9800" stroke-width="1"/>
      <text x="20" y="15" font-size="12" fill="#ff9800" font-weight="bold">1.</text>
      <text x="40" y="15" font-size="9" fill="#333">Identify base case and</text>
      <text x="40" y="27" font-size="9" fill="#333">recursive case in code</text>
      
      <rect x="240" y="0" width="220" height="35" fill="white" rx="4" stroke="#ff9800" stroke-width="1"/>
      <text x="260" y="15" font-size="12" fill="#ff9800" font-weight="bold">2.</text>
      <text x="280" y="15" font-size="9" fill="#333">Understand stack trace</text>
      <text x="280" y="27" font-size="9" fill="#333">execution flow</text>
      
      <rect x="480" y="0" width="220" height="35" fill="white" rx="4" stroke="#ff9800" stroke-width="1"/>
      <text x="500" y="15" font-size="12" fill="#ff9800" font-weight="bold">3.</text>
      <text x="520" y="15" font-size="9" fill="#333">Practice factorial and</text>
      <text x="520" y="27" font-size="9" fill="#333">Fibonacci problems</text>
    </g>
  </g>
  
  <!-- STEP 13: Key Takeaways -->
  <g class="step" id="step13" data-narration="In summary: recursion breaks problems into smaller sub-problems using base case and recursive case. Use it for elegance but beware of stack overflow and memory issues.">
    <rect x="20" y="1195" width="760" height="85" fill="url(#titleGradient)" rx="8" filter="url(#shadow)"/>
    <text x="400" y="1215" text-anchor="middle" class="step-title" fill="white" font-size="14">Key Takeaways</text>
    
    <g transform="translate(50, 1235)">
      <circle cx="10" cy="10" r="5" fill="white"/>
      <text x="25" y="14" font-size="10" fill="white">Recursion solves problems by self-calling with simpler inputs</text>
      
      <circle cx="10" cy="30" r="5" fill="white"/>
      <text x="25" y="34" font-size="10" fill="white">Base case stops recursion; recursive case calls itself</text>
      
      <circle cx="10" cy="50" r="5" fill="white"/>
      <text x="25" y="54" font-size="10" fill="white">Useful for trees, graphs, hierarchical data - but watch memory!</text>
    </g>
    
    <!-- Final visual: method calling itself -->
    <rect x="600" y="1230" width="140" height="40" fill="white" rx="5" opacity="0.9"/>
    <text x="670" y="1255" text-anchor="middle" font-size="11" font-family="monospace" fill="#1565c0">factorial(n)</text>
    <path d="M670,1260 L670,1275 L620,1275 L620,1255" fill="none" stroke="white" stroke-width="2" marker-end="url(#arrowBlue)">
      <animate attributeName="d" values="M670,1260 L670,1260 L670,1260 L670,1260;M670,1260 L670,1275 L620,1275 L620,1255" dur="1.5s" fill="freeze"/>
    </path>
  </g>
</svg>