<svg width="420" height="400" viewBox="0 0 420 400" xmlns="http://www.w3.org/2000/svg" data-topic-id="stacks-introduction-stack-operations-stack-implementation">
  <style>
    .pastel-gradient {
      background-image: linear-gradient(to bottom, #c9e4ca, #a5e9d1, #87ceeb);
    }
  </style>

  <rect class="pastel-gradient" x="0" y="0" width="420" height="400" rx="10" />
  <g transform="translate(20, 20)">
    <rect width="380" height="350" rx="10" />
    <g transform="translate(10, 10)">
      <rect width="100" height="50" rx="5" />
      <text x="0" y="10" text-anchor="start" font-size="16" font-family="Arial, sans-serif" fill="#1a1d23">Stacks: Introduction, Stack Operations, Stack Implementation</text>
      <text x="10" y="50" text-anchor="start" font-size="14" font-family="Arial, sans-serif" fill="#1a1d23" data-narration>Definition of a Stack</text>
      <rect x="0" y="60" width="100" height="20" rx="5" />
      <text x="0" y="70" text-anchor="start" font-size="14" font-family="Arial, sans-serif" fill="#1a1d23" data-narration="A stack is a linear data structure that follows the Last-In-First-Out (LIFO) principle. It is called a stack because it is similar to a physical stack of plates. Plates are added and removed from the top of the stack.</text>
    </g>
    <g transform="translate(50, 70)">
      <rect width="100" height="50" rx="5" />
      <text x="0" y="20" text-anchor="start" font-size="14" font-family="Arial, sans-serif" fill="#1a1d23" data-narration="Properties of a Stack</text>
      <rect x="0" y="30" width="100" height="20" rx="5" />
      <text x="0" y="40" text-anchor="start" font-size="14" font-family="Arial, sans-serif" fill="#1a1d23" data-narration="Elements in a stack are added and removed from the top using two operations: push and pop. The last element inserted into the stack is the first one to be removed.</text>
    </g>
    <g transform="translate(100, 70)">
      <rect width="100" height="50" rx="5" />
      <text x="0" y="20" text-anchor="start" font-size="14" font-family="Arial, sans-serif" fill="#1a1d23" data-narration="Types of Stacks</text>
      <rect x="0" y="30" width="100" height="20" rx="5" />
      <text x="0" y="40" text-anchor="start" font-size="14" font-family="Arial, sans-serif" fill="#1a1d23" data-narration="Array Stack: A stack implemented using an array. Link Stack: A stack implemented using linked lists.</text>
    </g>
    <g transform="translate(50, 170)">
      <rect width="100" height="50" rx="5" />
      <text x="0" y="20" text-anchor="start" font-size="14" font-family="Arial, sans-serif" fill="#1a1d23" data-narration="Push Operation</text>
      <rect x="0" y="30" width="100" height="20" rx="5" />
      <text x="0" y="40" text-anchor="start" font-size="14" font-family="Arial, sans-serif" fill="#1a1d23" data-narration="The push operation adds an element to the top of the stack. Example: stack.push(5) adds 5 to the top of the stack.</text>
    </g>
    <g transform="translate(50, 230)">
      <rect width="100" height="50" rx="5" />
      <text x="0" y="20" text-anchor="start" font-size="14" font-family="Arial, sans-serif" fill="#1a1d23" data-narration="Pop Operation</text>
      <rect x="0" y="30" width="100" height="20" rx="5" />
      <text x="0" y="40" text-anchor="start" font-size="14" font-family="Arial, sans-serif" fill="#1a1d23" data-narration="The pop operation removes the top element from the stack. Example: stack.pop() removes the top element from the stack.</text>
    </g>
    <g transform="translate(50, 290)">
      <rect width="100" height="50" rx="5" />
      <text x="0" y="20" text-anchor="start" font-size="14" font-family="Arial, sans-serif" fill="#1a1d23" data-narration="Peek Operation</text>
      <rect x="0" y="30" width="100" height="20" rx="5" />
      <text x="0" y="40" text-anchor="start" font-size="14" font-family="Arial, sans-serif" fill="#1a1d23" data-narration="The peek operation returns the top element of the stack without removing it. Example: stack.peek() returns the top element of the stack without removing it.</text>
    </g>
    <g transform="translate(50, 350)">
      <rect width="100" height="50" rx="5" />
      <text x="0" y="20" text-anchor="start" font-size="14" font-family="Arial, sans-serif" fill="#1a1d23" data-narration="isEmpty Operation</text>
      <rect x="0" y="30" width="100" height="20" rx="5" />
      <text x="0" y="40" text-anchor="start" font-size="14" font-family="Arial, sans-serif" fill="#1a1d23" data-narration="The isEmpty operation checks if the stack is empty. Example: stack.isEmpty() returns true if the stack is empty, false otherwise.</text>
    </g>
    <g transform="translate(200, 70)">
      <rect width="100" height="50" rx="5" />
      <text x="0" y="20" text-anchor="start" font-size="14" font-family="Arial, sans-serif" fill="#1a1d23" data-narration="Array Stack Implementation</text>
      <rect x="0" y="30" width="100" height="20" rx="5" />
      <text x="0" y="40" text-anchor="start" font-size="14" font-family="Arial, sans-serif" fill="#1a1d23" data-narration="An array stack is implemented using an array. The push operation adds an element to the top of the array, and the pop operation removes the top element from the array.</text>
    </g>
    <g transform="translate(200, 230)">
      <rect width="100" height="50" rx="5" />
      <text x="0" y="20" text-anchor="start" font-size="14" font-family="Arial, sans-serif" fill="#1a1d23" data-narration="Link Stack Implementation</text>
      <rect x="0" y="30" width="100" height="20" rx="5" />
      <text x="0" y="40" text-anchor="start" font-size="14" font-family="Arial, sans-serif" fill="#1a1d23" data-narration="A link stack is implemented using linked lists. The push operation adds an element to the top of the linked list, and the pop operation removes the top element from the linked list.</text>
    </g>
    <g transform="translate(250, 70)">
      <rect x="-10" y="20" width="40" height="20" rx="5" />
      <text x="0" y="30" text-anchor="start" font-size="14" font-family="Arial, sans-serif" fill="#1a1d23" data-narration="Push Operation</text>
      <rect x="0" y="40" width="40" height="20" rx="5" />
      <text x="0" y="50" text-anchor="start" font-size="14" font-family="Arial, sans-serif" fill="#1a1d23" data-narration="The push operation adds an element to the top of the stack. Example: stack.push(5) adds 5 to the top of the stack.</text>
    </g>
    <g transform="translate(250, 230)">
      <rect x="-10" y="20" width="40" height="20" rx="5" />
      <text x="0" y="30" text-anchor="start" font-size="14" font-family="Arial, sans-serif" fill="#1a1d23" data-narration="Pop Operation</text>
      <rect x="0" y="40" width="40" height="20" rx="5" />
      <text x="0" y="50" text-anchor="start" font-size="14" font-family="Arial, sans-serif" fill="#1a1d23" data-narration="The pop operation removes the top element from the stack. Example: stack.pop() removes the top element from the stack.</text>
    </g>
    <g transform="translate(250, 290)">
      <rect x="-10" y="20" width="40" height="20" rx="5" />
      <text x="0" y="30" text-anchor="start" font-size="14" font-family="Arial, sans-serif" fill="#1a1d23" data-narration="Peek Operation</text>
      <rect x="0" y="40" width="40" height="20" rx="5" />
      <text x="0" y="50" text-anchor="start" font-size="14" font-family="Arial, sans-serif" fill="#1a1d23" data-narration="The peek operation returns the top element of the stack without removing it. Example: stack.peek() returns the top element of the stack without removing it.</text>
    </g>
    <g transform="translate(250, 350)">
      <rect x="-10" y="20" width="40" height="20" rx="5" />
      <text x="0" y="30" text-anchor="start" font-size="14" font-family="Arial, sans-serif" fill="#1a1d23" data-narration="isEmpty Operation</text>
      <rect x="0" y="40" width="40" height="20" rx="5" />
      <text x="0" y="50" text-anchor="start" font-size="14" font-family="Arial, sans-serif" fill="#1a1d23" data-narration="The isEmpty operation checks if the stack is empty. Example: stack.isEmpty() returns true if the stack is empty, false otherwise.</text>
    </g>
    <g transform="translate(400, 70)">
      <rect x="0" y="0" width="100" height="50" rx="5" />
      <text x="0" y="10" text-anchor="start" font-size="14" font-family="Arial, sans-serif" fill="#1a1d23" data-narration="Applications of Stacks"></text>
      <rect x="0" y="20" width="100" height="30" rx="5" />
      <text x="0" y="30" text-anchor="start" font-size="14" font-family="Arial, sans-serif" fill="#1a1d23" data-narration="Stacks are used in a variety of applications, including parsing expressions, implementing recursive algorithms, and evaluating postfix notation.</text>
    </g>
    <g transform="translate(400, 110)">
      <rect x="0" y="0" width="100" height="50" rx="5" />
      <text x="0" y="10" text-anchor="start" font-size="14" font-family="Arial, sans-serif" fill="#1a1d23" data-narration="Parsing Expressions"></text>
      <rect x="0" y="20" width="100" height="30" rx="5" />
      <text x="0" y="30" text-anchor="start" font-size="14" font-family="Arial, sans-serif" fill="#1a1d23" data-narration="Stacks are used to parse expressions by scanning the input string and pushing and popping tokens onto the stack until the end of the string is reached.</text>
    </g>
    <g transform="translate(400, 150)">
      <rect x="0" y="0" width="100" height="50" rx="5" />
      <text x="0" y="10" text-anchor="start" font-size="14" font-family="Arial, sans-serif" fill="#1a1d23" data-narration="Implementing Recursive Algorithms"></text>
      <rect x="0" y="20" width="100" height="30" rx="5" />
      <text x="0" y="30" text-anchor="start" font-size="14" font-family="Arial, sans-serif" fill="#1a1d23" data-narration="Stacks are used to implement recursive algorithms by pushing and popping values onto the stack as needed.</text>
    </g>
    <g transform="translate(400, 190)">
      <rect x="0" y="0" width="100" height="50" rx="5" />
      <text x="0" y="10" text-anchor="start" font-size="14" font-family="Arial, sans-serif" fill="#1a1d23" data-narration="Evaluating Postfix Notation"></text>
      <rect x="0" y="20" width="100" height="30" rx="5" />
      <text x="0" y="30" text-anchor="start" font-size="14" font-family="Arial, sans-serif" fill="#1a1d23" data-narration="Stacks are used to evaluate postfix notation by pushing and popping values onto the stack as needed.</text>
    </g>
  </g>
  <g transform="translate(0, 380)">
    <rect width="420" height="20" rx="10" />
    <text x="10" y="10" text-anchor="start" font-size="14" font-family="Arial, sans-serif" fill="#1a1d23">Stacks: Introduction, Stack Operations, Stack Implementation</text>
  </g>
</svg>