<svg xmlns="http://www.w3.org/2000/svg" viewBox="0 0 800 1400">
  <defs>
    <linearGradient id="blueGrad" x1="0%" y1="0%" x2="100%" y2="100%">
      <stop offset="0%" style="stop-color:#e3f2fd"/>
      <stop offset="100%" style="stop-color:#bbdefb"/>
    </linearGradient>
    <linearGradient id="greenGrad" x1="0%" y1="0%" x2="100%" y2="100%">
      <stop offset="0%" style="stop-color:#e8f5e9"/>
      <stop offset="100%" style="stop-color:#c8e6c9"/>
    </linearGradient>
    <linearGradient id="orangeGrad" x1="0%" y1="0%" x2="100%" y2="100%">
      <stop offset="0%" style="stop-color:#fff3e0"/>
      <stop offset="100%" style="stop-color:#ffe0b2"/>
    </linearGradient>
    <linearGradient id="purpleGrad" x1="0%" y1="0%" x2="100%" y2="100%">
      <stop offset="0%" style="stop-color:#f3e5f5"/>
      <stop offset="100%" style="stop-color:#e1bee7"/>
    </linearGradient>
    <linearGradient id="redGrad" x1="0%" y1="0%" x2="100%" y2="100%">
      <stop offset="0%" style="stop-color:#ffebee"/>
      <stop offset="100%" style="stop-color:#ffcdd2"/>
    </linearGradient>
    <filter id="shadow" x="-20%" y="-20%" width="140%" height="140%">
      <feDropShadow dx="2" dy="3" stdDeviation="3" flood-opacity="0.2"/>
    </filter>
    <marker id="arrowBlue" markerWidth="10" markerHeight="10" refX="9" refY="3" orient="auto">
      <path d="M0,0 L0,6 L9,3 z" fill="#1976d2"/>
    </marker>
    <marker id="arrowGreen" markerWidth="10" markerHeight="10" refX="9" refY="3" orient="auto">
      <path d="M0,0 L0,6 L9,3 z" fill="#388e3c"/>
    </marker>
  </defs>
  
  <style>
    @keyframes fadeInSlide {
      from { opacity: 0; transform: translateY(20px); }
      to { opacity: 1; transform: translateY(0); }
    }
    @keyframes scaleIn {
      from { opacity: 0; transform: scale(0.85); }
      to { opacity: 1; transform: scale(1); }
    }
    @keyframes textReveal {
      from { opacity: 0; transform: translateX(-10px); }
      to { opacity: 1; transform: translateX(0); }
    }
    @keyframes pulse {
      0%, 100% { transform: scale(1); }
      50% { transform: scale(1.03); }
    }
    .step { animation: fadeInSlide 0.6s ease-out; }
    .step rect { animation: scaleIn 0.5s cubic-bezier(0.34, 1.56, 0.64, 1); transform-origin: center; }
    .step text { animation: textReveal 0.4s ease-out 0.2s backwards; }
    .title-text { font-family: 'Segoe UI', sans-serif; font-weight: bold; }
    .body-text { font-family: 'Segoe UI', sans-serif; }
  </style>
  
  <!-- Background -->
  <rect width="800" height="1400" fill="#f8f9fa"/>
  
  <!-- Step 0: Title -->
  <g class="step" id="step0" data-narration="Contiguous Memory Allocation is a fundamental OS memory management technique where each process gets a single continuous block of memory.">
    <rect x="50" y="20" width="700" height="50" rx="10" fill="url(#blueGrad)" filter="url(#shadow)"/>
    <text x="400" y="52" text-anchor="middle" class="title-text" fill="#1565c0" font-size="22">Contiguous Memory Allocation</text>
    <text x="400" y="72" text-anchor="middle" class="body-text" fill="#1976d2" font-size="10">Operating System Concepts - Section 8.3</text>
  </g>
  
  <!-- Step 1: Memory Partitioning Overview -->
  <g class="step" id="step1" data-narration="Memory is divided into two partitions: the OS at low addresses and user processes at higher addresses. The OS must protect itself and each process.">
    <rect x="50" y="80" width="700" height="90" rx="8" fill="white" filter="url(#shadow)"/>
    <text x="70" y="100" class="title-text" fill="#1565c0" font-size="12">Memory Partitioning</text>
    <rect x="70" y="110" width="100" height="50" rx="4" fill="#e0e0e0"/>
    <text x="120" y="145" text-anchor="middle" class="body-text" fill="#424242" font-size="9">OS</text>
    <rect x="180" y="110" width="400" height="50" rx="4" fill="url(#blueGrad)"/>
    <text x="380" y="145" text-anchor="middle" class="body-text" fill="#1565c0" font-size="9">User Processes</text>
    <path d="M600" y1="110" d="M600,130 L600,170" stroke="#1976d2" stroke-width="2" marker-end="url(#arrowBlue)"/>
    <text x="610" y="145" class="body-text" fill="#1976d2" font-size="8">High Address</text>
    <path d="M600,170 L600,190" stroke="#1976d2" stroke-width="2" marker-end="url(#arrowBlue)"/>
    <text x="610" y="180" class="body-text" fill="#1976d2" font-size="8">Low Address</text>
  </g>
  
  <!-- Step 2: Base and Limit Registers -->
  <g class="step" id="step2" data-narration="Base and Limit registers provide hardware memory protection. The base holds the starting address and limit defines the size of the process's memory.">
    <rect x="50" y="180" width="700" height="90" rx="8" fill="white" filter="url(#shadow)"/>
    <text x="70" y="200" class="title-text" fill="#1565c0" font-size="12">Base and Limit Registers</text>
    <rect x="70" y="215" width="180" height="45" rx="6" fill="url(#greenGrad)"/>
    <text x="160" y="235" text-anchor="middle" class="body-text" fill="#2e7d32" font-size="10" font-weight="bold">BASE REGISTER</text>
    <text x="160" y="250" text-anchor="middle" class="body-text" fill="#388e3c" font-size="8">Smallest legal address</text>
    <rect x="270" y="215" width="180" height="45" rx="6" fill="url(#orangeGrad)"/>
    <text x="360" y="235" text-anchor="middle" class="body-text" fill="#ef6c00" font-size="10" font-weight="bold">LIMIT REGISTER</text>
    <text x="360" y="250" text-anchor="middle" class="body-text" fill="#ff9800" font-size="8">Size of range</text>
    <text x="480" y="225" class="body-text" fill="#424242" font-size="9">Valid access: base ≤ addr &lt; base+limit</text>
    <rect x="480" y="235" width="180" height="18" rx="4" fill="#ffebee"/>
    <text x="570" y="248" text-anchor="middle" class="body-text" fill="#c62828" font-size="8">TRAP if violated</text>
  </g>
  
  <!-- Step 3: Fixed Partitioning -->
  <g class="step" id="step3" data-narration="Fixed partitioning divides memory into predetermined partitions at system startup. Simple but inflexible - the number of partitions limits multiprogramming.">
    <rect x="50" y="280" width="700" height="100" rx="8" fill="white" filter="url(#shadow)"/>
    <text x="70" y="300" class="title-text" fill="#1565c0" font-size="12">Fixed Partitioning</text>
    <rect x="70" y="315" width="100" height="55" rx="4" fill="#e0e0e0"/>
    <text x="120" y="345" text-anchor="middle" class="body-text" fill="#424242" font-size="8">OS</text>
    <rect x="180" y="315" width="80" height="25" rx="4" fill="url(#blueGrad)"/>
    <text x="220" y="332" text-anchor="middle" class="body-text" fill="#1565c0" font-size="7">P1: 100KB</text>
    <rect x="180" y="345" width="80" height="25" rx="4" fill="url(#greenGrad)"/>
    <text x="220" y="362" text-anchor="middle" class="body-text" fill="#2e7d32" font-size="7">P2: 200KB</text>
    <rect x="270" y="315" width="80" height="55" rx="4" fill="url(#orangeGrad)"/>
    <text x="310" y="347" text-anchor="middle" class="body-text" fill="#ef6c00" font-size="7">P3: 400KB</text>
    <text x="310" y="358" text-anchor="middle" class="body-text" fill="#ef6c00" font-size="6">(empty)</text>
    <rect x="360" y="315" width="80" height="55" rx="4" fill="url(#purpleGrad)"/>
    <text x="400" y="347" text-anchor="middle" class="body-text" fill="#6a1b9a" font-size="7">P4: 300KB</text>
    <text x="530" y="325" class="body-text" fill="#424242" font-size="8">Advantages:</text>
    <text x="530" y="340" class="body-text" fill="#388e3c" font-size="7">• Simple to implement</text>
    <text x="530" y="352" class="body-text" fill="#388e3c" font-size="7">• Low overhead</text>
    <text x="530" y="364" class="body-text" fill="#f44336" font-size="7">• Internal fragmentation</text>
  </g>
  
  <!-- Step 4: Internal Fragmentation -->
  <g class="step" id="step4" data-narration="Internal fragmentation occurs in fixed partitioning when a process gets a partition larger than it needs. The wasted space inside the partition is lost forever.">
    <rect x="50" y="390" width="700" height="85" rx="8" fill="white" filter="url(#shadow)"/>
    <text x="70" y="410" class="title-text" fill="#c62828" font-size="12">Internal Fragmentation</text>
    <rect x="70" y="425" width="200" height="40" rx="4" fill="url(#blueGrad)"/>
    <text x="170" y="445" text-anchor="middle" class="body-text" fill="#1565c0" font-size="9">Partition: 200 KB</text>
    <rect x="80" y="435" width="120" height="20" rx="3" fill="#1976d2"/>
    <text x="140" y="449" text-anchor="middle" class="body-text" fill="white" font-size="8">Process: 150 KB</text>
    <path d="M200,455 Q230,465 250,455" stroke="#f44336" stroke-width="2" fill="none"/>
    <rect x="260" y="445" width="15" height="15" rx="2" fill="#ffcdd2"/>
    <text x="280" y="457" class="body-text" fill="#c62828" font-size="8">Wasted: 50 KB</text>
    <text x="480" y="435" class="body-text" fill="#424242" font-size="8">Formula:</text>
    <text x="480" y="455" class="body-text" fill="#424242" font-size="10">Internal Fragmentation =</text>
    <text x="620" y="455" class="body-text" fill="#c62828" font-size="10" font-style="italic">Partition Size - Process Size</text>
  </g>
  
  <!-- Step 5: Variable Partitioning -->
  <g class="step" id="step5" data-narration="Variable partitioning creates partitions dynamically to fit each process exactly. Memory is allocated precisely to the process size, reducing waste.">
    <rect x="50" y="485" width="700" height="100" rx="8" fill="white" filter="url(#shadow)"/>
    <text x="70" y="505" class="title-text" fill="#1565c0" font-size="12">Variable (Dynamic) Partitioning</text>
    <text x="70" y="522" class="body-text" fill="#424242" font-size="8">Initial - All Free:</text>
    <rect x="70" y="530" width="100" height="45" rx="3" fill="#e0e0e0"/>
    <text x="120" y="557" text-anchor="middle" class="body-text" fill="#424242" font-size="7">OS</text>
    <rect x="180" y="530" width="200" height="45" rx="3" fill="#e8f5e9"/>
    <text x="280" y="557" text-anchor="middle" class="body-text" fill="#2e7d32" font-size="7">Free: 1000 KB</text>
    
    <text x="400" y="522" class="body-text" fill="#424242" font-size="8">After P1(200), P2(400), P3(300):</text>
    <rect x="400" y="530" width="100" height="15" rx="2" fill="#e0e0e0"/>
    <rect x="400" y="548" width="80" height="12" rx="2" fill="#bbdefb"/>
    <rect x="400" y="563" width="100" height="12" rx="2" fill="#c8e6c9"/>
    <text x="480" y="560" class="body-text" fill="#424242" font-size="6">P1:200</text>
    <text x="480" y="573" class="body-text" fill="#424242" font-size="6">P2:400</text>
    <text x="400" y="585" class="body-text" fill="#388e3c" font-size="6">Free: 100KB</text>
  </g>
  
  <!-- Step 6: External Fragmentation -->
  <g class="step" id="step6" data-narration="External fragmentation happens in variable partitioning when free memory exists but is not contiguous. Small scattered holes cannot be used for large processes.">
    <rect x="50" y="595" width="700" height="85" rx="8" fill="white" filter="url(#shadow)"/>
    <text x="70" y="615" class="title-text" fill="#c62828" font-size="12">External Fragmentation</text>
    <rect x="70" y="630" width="100" height="40" rx="4" fill="#e0e0e0"/>
    <text x="120" y="655" text-anchor="middle" class="body-text" fill="#424242" font-size="7">OS</text>
    <rect x="180" y="630" width="80" height="15" rx="3" fill="#bbdefb"/>
    <text x="220" y="642" text-anchor="middle" class="body-text" fill="#1565c0" font-size="6">P1</text>
    <rect x="270" y="630" width="150" height="15" rx="3" fill="#fff3e0"/>
    <text x="345" y="642" text-anchor="middle" class="body-text" fill="#ff9800" font-size="6">HOLE (400KB)</text>
    <rect x="430" y="630" width="120" height="15" rx="3" fill="#c8e6c9"/>
    <text x="490" y="642" text-anchor="middle" class="body-text" fill="#2e7d32" font-size="6">P3</text>
    <rect x="560" y="630" width="80" height="15" rx="3" fill="#e8f5e9"/>
    <text x="600" y="642" text-anchor="middle" class="body-text" fill="#388e3c" font-size="6">Free</text>
    <text x="70" y="680" class="body-text" fill="#424242" font-size="8">Total free = 480KB but request of 500KB FAILS - not contiguous!</text>
  </g>
  
  <!-- Step 7: First Fit -->
  <g class="step" id="step7" data-narration="First Fit allocates the first hole large enough for the process. It's the fastest method because it stops searching once it finds a suitable hole.">
    <rect x="50" y="690" width="700" height="95" rx="8" fill="white" filter="url(#shadow)"/>
    <text x="70" y="710" class="title-text" fill="#1565c0" font-size="12">First Fit Strategy</text>
    <text x="70" y="730" class="body-text" fill="#424242" font-size="9">Holes: [100KB] [500KB] [200KB] [300KB]</text>
    <text x="70" y="745" class="body-text" fill="#424242" font-size="9">Request: 210KB</text>
    
    <rect x="70" y="755" width="50" height="20" rx="3" fill="#ffcdd2"/>
    <text x="95" y="770" text-anchor="middle" class="body-text" fill="#c62828" font-size="7">100KB</text>
    <rect x="130" y="755" width="120" height="20" rx="3" fill="#bbdefb"/>
    <rect x="135" y="758" width="110" height="14" rx="2" fill="#1976d2">
      <animate attributeName="opacity" values="0;1" dur="0.5s" fill="freeze"/>
    </rect>
    <text x="190" y="770" text-anchor="middle" class="body-text" fill="white" font-size="7">500KB ✓</text>
    <text x="195" y="768" class="body-text" fill="#1565c0" font-size="6">← First match</text>
    <rect x="260" y="755" width="60" height="20" rx="3" fill="#ffcdd2"/>
    <text x="290" y="770" text-anchor="middle" class="body-text" fill="#c62828" font-size="7">200KB</text>
    <rect x="330" y="755" width="80" height="20" rx="3" fill="#ffcdd2"/>
    <text x="370" y="770" text-anchor="middle" class="body-text" fill="#c62828" font-size="7">300KB</text>
    
    <text x="450" y="770" class="body-text" fill="#388e3c" font-size="8">Remaining: [100] [290] [200] [300]</text>
  </g>
  
  <!-- Step 8: Best Fit and Worst Fit -->
  <g class="step" id="step8" data-narration="Best Fit finds the smallest hole that fits - leaves tiny unusable fragments. Worst Fit takes the largest hole - causes fastest fragmentation.">
    <rect x="50" y="795" width="700" height="95" rx="8" fill="white" filter="url(#shadow)"/>
    <text x="70" y="815" class="title-text" fill="#1565c0" font-size="12">Best Fit vs Worst Fit</text>
    
    <text x="70" y="835" class="body-text" fill="#424242" font-size="9">Holes: [100KB] [500KB] [200KB] [300KB] | Request: 210KB</text>
    
    <text x="70" y="855" class="body-text" fill="#2e7d32" font-size="10" font-weight="bold">BEST FIT:</text>
    <rect x="150" y="845" width="50" height="18" rx="3" fill="#ffcdd2"/>
    <text x="175" y="858" text-anchor="middle" class="body-text" fill="#c62828" font-size="6">100KB</text>
    <rect x="210" y="845" width="70" height="18" rx="3" fill="#ffcdd2"/>
    <text x="245" y="858" text-anchor="middle" class="body-text" fill="#c62828" font-size="6">500KB</text>
    <rect x="290" y="845" width="55" height="18" rx="3" fill="#ffcdd2"/>
    <text x="317" y="858" text-anchor="middle" class="body-text" fill="#c62828" font-size="6">200KB</text>
    <rect x="355" y="845" width="70" height="18" rx="3" fill="#bbdefb"/>
    <rect x="360" y="848" width="60" height="12" rx="2" fill="#1976d2">
      <animate attributeName="opacity" values="0;1" dur="0.5s" fill="freeze"/>
    </rect>
    <text x="390" y="858" text-anchor="middle" class="body-text" fill="white" font-size="6">300KB ✓</text>
    <text x="395" y="856" class="body-text" fill="#1565c0" font-size="5">← Smallest</text>
    <text x="440" y="858" class="body-text" fill="#388e3c" font-size="7">Left: [100][500][200][90]</text>
    
    <text x="70" y="880" class="body-text" fill="#c62828" font-size="10" font-weight="bold">WORST FIT:</text>
    <rect x="170" y="870" width="50" height="18" rx="3" fill="#ffcdd2"/>
    <text x="195" y="883" text-anchor="middle" class="body-text" fill="#c62828" font-size="6">100KB</text>
    <rect x="230" y="870" width="70" height="18" rx="3" fill="#bbdefb"/>
    <rect x="235" y="873" width="60" height="12" rx="2" fill="#1976d2">
      <animate attributeName="opacity" values="0;1" dur="0.5s" fill="freeze"/>
    </rect>
    <text x="265" y="883" text-anchor="middle" class="body-text" fill="white" font-size="6">500KB ✓</text>
    <text x="270" y="881" class="body-text" fill="#1565c0" font-size="5">← Largest</text>
    <rect x="310" y="870" width="55" height="18" rx="3" fill="#ffcdd2"/>
    <text x="337" y="883" text-anchor="middle" class="body-text" fill="#c62828" font-size="6">200KB</text>
    <rect x="375" y="870" width="70" height="18" rx="3" fill="#ffcdd2"/>
    <text x="410" y="883" text-anchor="middle" class="body-text" fill="#c62828" font-size="6">300KB</text>
  </g>
  
  <!-- Step 9: Comparison Table -->
  <g class="step" id="step9" data-narration="First fit is generally preferred - it's fastest and provides good memory utilization. Best fit minimizes wasted space but is slower.">
    <rect x="50" y="900" width="700" height="85" rx="8" fill="white" filter="url(#shadow)"/>
    <text x="70" y="920" class="title-text" fill="#1565c0" font-size="12">Allocation Strategy Comparison</text>
    
    <rect x="70" y="935" width="180" height="40" rx="4" fill="#e3f2fd"/>
    <text x="160" y="952" text-anchor="middle" class="body-text" fill="#1565c0" font-size="9" font-weight="bold">First Fit</text>
    <text x="160" y="967" text-anchor="middle" class="body-text" fill="#1976d2" font-size="7">Fastest • Good utilization</text>
    
    <rect x="260" y="935" width="180" height="40" rx="4" fill="#e8f5e9"/>
    <text x="350" y="952" text-anchor="middle" class="body-text" fill="#2e7d32" font-size="9" font-weight="bold">Best Fit</text>
    <text x="350" y="967" text-anchor="middle" class="body-text" fill="#388e3c" font-size="7">Min leftover • Many fragments</text>
    
    <rect x="450" y="935" width="180" height="40" rx="4" fill="#ffebee"/>
    <text x="540" y="952" text-anchor="middle" class="body-text" fill="#c62828" font-size="9" font-weight="bold">Worst Fit</text>
    <text x="540" y="967" text-anchor="middle" class="body-text" fill="#f44336" font-size="7">Worst utilization</text>
    
    <rect x="70" y="985" width="560" height="20" rx="4" fill="#fff3e0"/>
    <text x="350" y="1000" text-anchor="middle" class="body-text" fill="#e65100" font-size="8">50-Percent Rule: ~0.5N blocks lost to fragmentation in First Fit</text>
  </g>
  
  <!-- Step 10: Compaction -->
  <g class="step" id="step10" data-narration="Compaction solves external fragmentation by moving all processes together, combining all free space into one large contiguous hole.">
    <rect x="50" y="1095" width="700" height="85" rx="8" fill="white" filter="url(#shadow)"/>
    <text x="70" y="1115" class="title-text" fill="#1565c0" font-size="12">Solution: Compaction</text>
    
    <text x="70" y="1135" class="body-text" fill="#424242" font-size="9">Before:</text>
    <rect x="70" y="1145" width="60" height="25" rx="3" fill="#e0e0e0"/>
    <rect x="140" y="1145" width="50" height="25" rx="3" fill="#bbdefb"/>
    <text x="165" y="1162" text-anchor="middle" class="body-text" fill="#1565c0" font-size="6">P1</text>
    <rect x="200" y="1145" width="80" height="25" rx="3" fill="#fff3e0"/>
    <text x="240" y="1162" text-anchor="middle" class="body-text" fill="#ff9800" font-size="6">HOLE</text>
    <rect x="290" y="1145" width="70" height="25" rx="3" fill="#c8e6c9"/>
    <text x="325" y="1162" text-anchor="middle" class="body-text" fill="#2e7d32" font-size="6">P3</text>
    <rect x="370" y="1145" width="50" height="25" rx="3" fill="#fff3e0"/>
    <text x="395" y="1162" text-anchor="middle" class="body-text" fill="#ff9800" font-size="6">Hole</text>
    
    <text x="480" y="1135" class="body-text" fill="#424242" font-size="9">After:</text>
    <rect x="480" y="1145" width="60" height="25" rx="3" fill="#e0e0e0"/>
    <rect x="550" y="1145" width="50" height="25" rx="3" fill="#bbdefb"/>
    <text x="575" y="1162" text-anchor="middle" class="body-text" fill="#1565c0" font-size="6">P1</text>
    <rect x="610" y="1145" width="70" height="25" rx="3" fill="#c8e6c9"/>
    <text x="645" y="1162" text-anchor="middle" class="body-text" fill="#2e7d32" font-size="6">P3</text>
    <rect x="690" y="1145" width="50" height="25" rx="3" fill="#e8f5e9"/>
    <text x="715" y="1162" text-anchor="middle" class="body-text" fill="#388e3c" font-size="6">FREE</text>
    
    <text x="70" y="1185" class="body-text" fill="#424242" font-size="8">Limitation: Requires dynamic relocation (relocation register). Expensive operation!</text>
  </g>
  
  <!-- Step 11: Summary Table -->
  <g class="step" id="step11" data-narration="Memory protection uses base and limit registers. Fixed partitioning causes internal fragmentation while variable partitioning leads to external fragmentation.">
    <rect x="50" y="1190" width="700" height="90" rx="8" fill="white" filter="url(#shadow)"/>
    <text x="70" y="1210" class="title-text" fill="#1565c0" font-size="12">Quick Reference Summary</text>
    
    <rect x="70" y="1225" width="160" height="45" rx="4" fill="url(#greenGrad)"/>
    <text x="150" y="1240" text-anchor="middle" class="body-text" fill="#2e7d32" font-size="8" font-weight="bold">Base + Limit</text>
    <text x="150" y="1255" text-anchor="middle" class="body-text" fill="#388e3c" font-size="6">Hardware protection</text>
    
    <rect x="240" y="1225" width="160" height="45" rx="4" fill="url(#blueGrad)"/>
    <text x="320" y="1240" text-anchor="middle" class="body-text" fill="#1565c0" font-size="8" font-weight="bold">Fixed Partitioning</text>
    <text x="320" y="1255" text-anchor="middle" class="body-text" fill="#1976d2" font-size="6">→ Internal fragmentation</text>
    
    <rect x="410" y="1225" width="160" height="45" rx="4" fill="url(#orangeGrad)"/>
    <text x="490" y="1240" text-anchor="middle" class="body-text" fill="#ef6c00" font-size="8" font-weight="bold">Variable Partitioning</text>
    <text x="490" y="1255" text-anchor="middle" class="body-text" fill="#ff9800" font-size="6">→ External fragmentation</text>
    
    <rect x="580" y="1225" width="160" height="45" rx="4" fill="url(#purpleGrad)"/>
    <text x="660" y="1240" text-anchor="middle" class="body-text" fill="#6a1b9a" font-size="8" font-weight="bold">Compaction</text>
    <text x="660" y="1255" text-anchor="middle" class="body-text" fill="#9c27b0" font-size="6">Solves external frag.</text>
  </g>
  
  <!-- Step 12: Exam Tips -->
  <g class="step" id="step12" data-narration="For exams: know first fit vs best fit tracing, internal vs external fragmentation differences, base-limit protection mechanism, and how paging solves fragmentation.">
    <rect x="50" y="1290" width="700" height="80" rx="8" fill="url(#purpleGrad)" filter="url(#shadow)"/>
    <text x="400" y="1312" text-anchor="middle" class="title-text" fill="#6a1b9a" font-size="14">🎯 Exam Tips</text>
    <text x="70" y="1335" class="body-text" fill="#424242" font-size="8">• First Fit vs Best Fit vs Worst Fit - trace through examples</text>
    <text x="70" y="1350" class="body-text" fill="#424242" font-size="8">• Internal (fixed) vs External (variable) fragmentation - know the difference</text>
    <text x="70" y="1365" class="body-text" fill="#424242" font-size="8">• Draw memory diagrams for allocation strategies and compaction</text>
    <text x="400" y="1365" text-anchor="middle" class="body-text" fill="#6a1b9a" font-size="8" font-weight="bold">First Fit preferred: fastest + good utilization</text>
  </g>
</svg>