<svg xmlns="http://www.w3.org/2000/svg" width="420" height="400" data-topic-id="computer-vision-morphological-image-processing">
  <rect x="0" y="0" width="420" height="400" fill="#C7B8EA" rx="10" />
  <title>Morphological Image Processing</title>
  <defs>
    <linearGradient id="gradient" x1="0%" y1="0%" x2="100%" y2="0%">
      <stop offset="0%" stop-color="#ADD8E6" stop-opacity="1" />
      <stop offset="100%" stop-color="#6495ED" stop-opacity="1" />
    </linearGradient>
  </defs>
  <g fill="none" fill-opacity="0.2">
    <rect x="10" y="50" width="390" height="300" fill="url(#gradient)" rx="10" />
  </g>
  <g transform="translate(20, 60)">
    <rect x="0" y="0" width="100" height="100" fill="#E6DAC3" rx="10" />
    <text x="50%" y="50%" text-anchor="middle" font-size="20" font-family="Arial" fill="#6495ED">
      <tspan data-narration="Introduction to Morphological Image Processing">Morphological Image Processing</tspan>
    </text>
  </g>
  <g transform="translate(150, 60)">
    <rect x="0" y="0" width="100" height="100" fill="#E6DAC3" rx="10" />
    <text x="50%" y="50%" text-anchor="middle" font-size="20" font-family="Arial" fill="#6495ED">
      <tspan data-narration="Key Concepts">Key Concepts</tspan>
    </text>
  </g>
  <g transform="translate(260, 60)">
    <rect x="0" y="0" width="100" height="100" fill="#E6DAC3" rx="10" />
    <text x="50%" y="50%" text-anchor="middle" font-size="20" font-family="Arial" fill="#6495ED">
      <tspan data-narration="Erosion and Dilation">Erosion and Dilation</tspan>
    </text>
  </g>
  <g transform="translate(370, 60)">
    <rect x="0" y="0" width="100" height="100" fill="#E6DAC3" rx="10" />
    <text x="50%" y="50%" text-anchor="middle" font-size="20" font-family="Arial" fill="#6495ED">
      <tspan data-narration="Mathematical Formula">Mathematical Formula</tspan>
    </text>
  </g>
  <g transform="translate(480, 60)">
    <rect x="0" y="0" width="100" height="100" fill="#E6DAC3" rx="10" />
    <text x="50%" y="50%" text-anchor="middle" font-size="20" font-family="Arial" fill="#6495ED">
      <tspan data-narration="Example">Example</tspan>
    </text>
  </g>
  <g transform="translate(590, 60)">
    <rect x="0" y="0" width="100" height="100" fill="#E6DAC3" rx="10" />
    <text x="50%" y="50%" text-anchor="middle" font-size="20" font-family="Arial" fill="#6495ED">
      <tspan data-narration="Real-World Applications">Real-World Applications</tspan>
    </text>
  </g>
  <g transform="translate(700, 60)">
    <rect x="0" y="0" width="100" height="100" fill="#E6DAC3" rx="10" />
    <text x="50%" y="50%" text-anchor="middle" font-size="20" font-family="Arial" fill="#6495ED">
      <tspan data-narration="Conclusion">Conclusion</tspan>
    </text>
  </g>
  <g transform="translate(810, 60)">
    <rect x="0" y="0" width="100" height="100" fill="#E6DAC3" rx="10" />
    <text x="50%" y="50%" text-anchor="middle" font-size="20" font-family="Arial" fill="#6495ED">
      <tspan data-narration="References">References</tspan>
    </text>
  </g>
  <g transform="translate(920, 60)">
    <rect x="0" y="0" width="100" height="100" fill="#E6DAC3" rx="10" />
    <text x="50%" y="50%" text-anchor="middle" font-size="20" font-family="Arial" fill="#6495ED">
      <tspan data-narration="Cite This Page">Cite This Page</tspan>
    </text>
  </g>
  <g transform="translate(1040, 60)">
    <rect x="0" y="0" width="100" height="100" fill="#E6DAC3" rx="10" />
    <text x="50%" y="50%" text-anchor="middle" font-size="20" font-family="Arial" fill="#6495ED">
      <tspan data-narration="Back to Top">Back to Top</tspan>
    </text>
  </g>
  <g transform="translate(20, 360)">
    <rect x="0" y="0" width="400" height="40" fill="#6495ED" rx="10" />
    <text x="50%" y="20%" text-anchor="middle" font-size="20" font-family="Arial" fill="#E6DAC3">
      Morphological Image Processing
    </text>
  </g>
  <g transform="translate(420, 360)">
    <rect x="0" y="0" width="400" height="40" fill="#6495ED" rx="10" />
    <text x="50%" y="20%" text-anchor="middle" font-size="20" font-family="Arial" fill="#E6DAC3">
      Chap 12
    </text>
  </g>
  <g transform="translate(440, 360)">
    <rect x="0" y="0" width="400" height="40" fill="#6495ED" rx="10" />
    <text x="50%" y="20%" text-anchor="middle" font-size="20" font-family="Arial" fill="#E6DAC3">
      121
    </text>
  </g>
  <g transform="translate(460, 360)">
    <rect x="0" y="0" width="400" height="40" fill="#6495ED" rx="10" />
    <text x="50%" y="20%" text-anchor="middle" font-size="20" font-family="Arial" fill="#E6DAC3">
      1231
    </text>
  </g>
  <g transform="translate(520, 240)">
    <path d="M 20 240 L 20 280 L 60 280 L 60 240 Z" stroke="#6495ED" stroke-width="2" fill="none" />
    <text x="50%" y="250%" text-anchor="middle" font-size="16" font-family="Arial" fill="#E6DAC3">
      Erosion
    </text>
  </g>
  <g transform="translate(520, 280)">
    <path d="M 20 280 L 20 320 L 60 320 L 60 280 Z" stroke="#6495ED" stroke-width="2" fill="none" />
    <text x="50%" y="290%" text-anchor="middle" font-size="16" font-family="Arial" fill="#E6DAC3">
      Dilation
    </text>
  </g>
  <g transform="translate(620, 240)">
    <path d="M 100 240 L 100 280 L 140 280 L 140 240 Z" stroke="#6495ED" stroke-width="2" fill="none" />
    <text x="50%" y="250%" text-anchor="middle" font-size="16" font-family="Arial" fill="#E6DAC3">
      Math Formula
    </text>
  </g>
  <g transform="translate(620, 280)">
    <path d="M 100 280 L 100 320 L 140 320 L 140 280 Z" stroke="#6495ED" stroke-width="2" fill="none" />
    <text x="50%" y="290%" text-anchor="middle" font-size="16" font-family="Arial" fill="#E6DAC3">
      Example
    </text>
  </g>
  <g transform="translate(820, 240)">
    <path d="M 200 240 L 200 280 L 240 280 L 240 240 Z" stroke="#6495ED" stroke-width="2" fill="none" />
    <text x="50%" y="250%" text-anchor="middle" font-size="16" font-family="Arial" fill="#E6DAC3">
      Real World
    </text>
  </g>
  <g transform="translate(820, 280)">
    <path d="M 200 280 L 200 320 L 240 320 L 240 280 Z" stroke="#6495ED" stroke-width="2" fill="none" />
    <text x="50%" y="290%" text-anchor="middle" font-size="16" font-family="Arial" fill="#E6DAC3">
      Conclusion
    </text>
  </g>
  <g transform="translate(920, 240)">
    <path d="M 300 240 L 300 280 L 340 280 L 340 240 Z" stroke="#6495ED" stroke-width="2" fill="none" />
    <text x="50%" y="250%" text-anchor="middle" font-size="16" font-family="Arial" fill="#E6DAC3">
      References
    </text>
  </g>
  <g transform="translate(920, 280)">
    <path d="M 300 280 L 300 320 L 340 320 L 340 280 Z" stroke="#6495ED" stroke-width="2" fill="none" />
    <text x="50%" y="290%" text-anchor="middle" font-size="16" font-family="Arial" fill="#E6DAC3">
      Cite This Page
    </text>
  </g>
  <g transform="translate(1020, 240)">
    <path d="M 400 240 L 400 280 L 440 280 L 440 240 Z" stroke="#6495ED" stroke-width="2" fill="none" />
    <text x="50%" y="250%" text-anchor="middle" font-size="16" font-family="Arial" fill="#E6DAC3">
      Back to Top
    </text>
  </g>
  <g transform="translate(1200, 260)">
    <line x1="20" y1="270" x2="20" y2="300" stroke="#6495ED" stroke-width="2" />
    <line x1="60" y1="270" x2="60" y2="300" stroke="#6495ED" stroke-width="2" />
    <line x1="100" y1="270" x2="100" y2="300" stroke="#6495ED" stroke-width="2" />
    <line x1="140" y1="270" x2="140" y2="300" stroke="#6495ED" stroke-width="2" />
    <line x1="200" y1="270" x2="200" y2="300" stroke="#6495ED" stroke-width="2" />
    <line x1="240" y1="270" x2="240" y2="300" stroke="#6495ED" stroke-width="2" />
    <line x1="280" y1="270" x2="280" y2="300" stroke="#6495ED" stroke-width="2" />
    <line x1="320" y1="270" x2="320" y2="300" stroke="#6495ED" stroke-width="2" />
    <line x1="360" y1="270" x2="360" y2="300" stroke="#6495ED" stroke-width="2" />
    <line x1="400" y1="270" x2="400" y2="300" stroke="#6495ED" stroke-width="2" />
    <line x1="440" y1="270" x2="440" y2="300" stroke="#6495ED" stroke-width="2" />
    <line x1="480" y1="270" x2="480" y2="300" stroke="#6495ED" stroke-width="2" />
    <line x1="520" y1="270" x2="520" y2="300" stroke="#6495ED" stroke-width="2" />
    <line x1="560" y1="270" x2="560" y2="300" stroke="#6495ED" stroke-width="2" />
    <line x1="600" y1="270" x2="600" y2="300" stroke="#6495ED" stroke-width="2" />
    <line x1="640" y1="270" x2="640" y2="300" stroke="#6495ED" stroke-width="2" />
    <line x1="680" y1="270" x2="680" y2="300" stroke="#6495ED" stroke-width="2" />
    <line x1="720" y1="270" x2="720" y2="300" stroke="#6495ED" stroke-width="2" />
    <line x1="760" y1="270" x2="760" y2="300" stroke="#6495ED" stroke-width="2" />
    <line x1="800" y1="270" x2="800" y2="300" stroke="#6495ED" stroke-width="2" />
    <line x1="840" y1="270" x2="840" y2="300" stroke="#6495ED" stroke-width="2" />
    <line x1="880" y1="270" x2="880" y2="300" stroke="#6495ED" stroke-width="2" />
    <line x1="920" y1="270" x2="920" y2="300" stroke="#6495ED" stroke-width="2" />
    <line x1="960" y1="270" x2="960" y2="300" stroke="#6495ED" stroke-width="2" />
    <line x1="1000" y1="270" x2="1000" y2="300" stroke="#6495ED" stroke-width="2" />
    <line x1="1040" y1="270" x2="1040" y2="300" stroke="#6495ED" stroke-width="2" />
    <line x1="1080" y1="270" x2="1080" y2="300" stroke="#6495ED" stroke-width="2" />
    <line x1="1120" y1="270" x2="1120" y2="300" stroke="#6495ED" stroke-width="2" />
    <line x1="1160" y1="270" x2="1160" y2="300" stroke="#6495ED" stroke-width="2" />
    <line x1="1200" y1="270" x2="1200" y2="300" stroke="#6495ED" stroke-width="2" />
    <line x1="1240" y1="270" x2="1240" y2="300" stroke="#6495ED" stroke-width="2" />
    <line x1="1280" y1="270" x2="1280" y2="300" stroke="#6495ED" stroke-width="2" />
    <line x1="1320" y1="270" x2="1320" y2="300" stroke="#6495ED" stroke-width="2" />
    <line x1="1360" y1="270" x2="1360" y2="300" stroke="#6495ED" stroke-width="2" />
    <line x1="1400" y1="270" x2="1400" y2="300" stroke="#6495ED" stroke-width="2" />
    <line x1="1440" y1="270" x2="1440" y2="300" stroke="#6495ED" stroke-width="2" />
    <line x1="1480" y1="270" x2="1480" y2="300" stroke="#6495ED" stroke-width="2" />
    <line x1="1520" y1="270" x2="1520" y2="300" stroke="#6495ED" stroke-width="2" />
    <line x1="1560" y1="270" x2="1560" y2="300" stroke="#6495ED" stroke-width="2" />
    <line x1="1600" y1="270" x2="1600" y2="300" stroke="#6495ED" stroke-width="2" />
    <line x1="1640" y1="270" x2="1640" y2="300" stroke="#6495ED" stroke-width="2" />
    <line x1="1680" y1="270" x2="1680" y2="300" stroke="#6495ED" stroke-width="2" />
    <line x1="1720" y1="270" x2="1720" y2="300" stroke="#6495ED" stroke-width="2" />
    <line x1="1760" y1="270" x2="1760" y2="300" stroke="#6495ED" stroke-width="2" />
    <line x1="1800" y1="270" x2="1800" y2="300" stroke="#6495ED" stroke-width="2" />
    <line x1="1840" y1="270" x2="1840" y2="300" stroke="#6495ED" stroke-width="2" />
    <line x1="1880" y1="270" x2="1880" y2="300" stroke="#6495ED" stroke-width="2" />
    <line x1="1920" y1="270" x2="1920" y2="300" stroke="#6495ED" stroke-width="2" />
    <line x1="1960" y1="270" x2="1960" y2="300" stroke="#6495ED" stroke-width="2" />
    <line x1="2000" y1="270" x2="2000" y2="300" stroke="#6495ED" stroke-width="2" />
    <line x1="2040" y1="270" x2="2040" y2="300" stroke="#6495ED" stroke-width="2" />
    <line x1="2080" y1="270" x2="2080" y2="300" stroke="#6495ED" stroke-width="2" />
    <line x1="2120" y1="270" x2="2120" y2="300" stroke="#6495ED" stroke-width="2" />
    <line x1="2160" y1="270" x2="2160" y2="300" stroke="#6495ED" stroke-width="2" />
    <line x1="2200" y1="270" x2="2200" y2="300" stroke="#6495ED" stroke-width="2" />
    <line x1="2240" y1="270" x2="2240" y2="300" stroke="#6495ED" stroke-width="2" />
    <line x1="2280" y1="270" x2="2280" y2="300" stroke="#6495ED" stroke-width="2" />
    <line x1="2320" y1="270" x2="2320" y2="300" stroke="#6495ED" stroke-width="2" />
    <line x1="2360" y1="270" x2="2360" y2="300" stroke="#6495ED" stroke-width="2" />
    <line x1="2400" y1="270" x2="2400" y2="300" stroke="#6495ED" stroke-width="2" />
    <line x1="2440" y1="270" x2="2440" y2="300" stroke="#6495ED" stroke-width="2" />
    <line x1="2480" y1="270" x2="2480" y2="300" stroke="#6495ED" stroke-width="2" />
    <line x1="2520" y1="270" x2="2520" y2="300" stroke="#6495ED" stroke-width="2" />
    <line x1="2560" y1="270" x2="2560" y2="300" stroke="#6495ED" stroke-width="2" />
    <line x1="2600" y1="270" x2="2600" y2="300" stroke="#6495ED" stroke-width="2" />
    <line x1="2640" y1="270" x2="2640" y2="300" stroke="#6495ED" stroke-width="2" />
    <line x1="2680" y1="270" x2="2680" y2="300" stroke="#6495ED" stroke-width="2" />
    <line x1="2720" y1="270" x2="2720" y2="300" stroke="#6495ED" stroke-width="2" />
    <line x1="2760" y1="270" x2="2760" y2="300" stroke="#6495ED" stroke-width="2" />
    <line x1="2800" y1="270" x2="2800" y2="300" stroke="#6495ED" stroke-width="2" />
    <line x1="2840" y1="270" x2="2840" y2="300" stroke="#6495ED" stroke-width="2" />
    <line x1="2880" y1="270" x2="2880" y2="300" stroke="#6495ED" stroke-width="2" />
    <line x1="2920" y1="270" x2="2920" y2="300" stroke="#6495ED" stroke-width="2" />
    <line x1="2960" y1="270" x2="2960" y2="300" stroke="#6495ED" stroke-width="2" />
    <line x1="3000" y1="270" x2="3000" y2="300" stroke="#6495ED" stroke-width="2" />
    <line x1="3040" y1="270" x2="3040" y2="300" stroke="#6495ED" stroke-width="2" />
    <line x1="3080" y1="270" x2="3080" y2="300" stroke="#6495ED" stroke-width="2" />
    <line x1="3120" y1="270" x2="3120" y2="300" stroke="#6495ED" stroke-width="2" />
    <line x1="3160" y1="270" x2="3160" y2="300" stroke="#6495ED" stroke-width="2" />
    <line x1="3200" y1="270" x2="3200" y2="300" stroke="#6495ED" stroke-width="2" />
  </g>
</svg>