<svg width="420" height="400" viewBox="0 0 420 400" xmlns="http://www.w3.org/2000/svg">
  <title>Remove The First City</title>
  <defs>
    <linearGradient id="gradient" x1="0%" y1="0%" x2="100%" y2="0%">
      <stop offset="0%" stop-color="#7a68d8" stop-opacity="1"/>
      <stop offset="50%" stop-color="#6495ed" stop-opacity="1"/>
      <stop offset="100%" stop-color="#c7b8ea" stop-opacity="1"/>
    </linearGradient>
  </defs>
  <g transform="translate(20, 50)">
    <rect x="0" y="0" width="400" height="350" fill="url(#gradient)"/>
    <g fill="#fff" opacity="0.9">
      <text text-anchor="middle" x="210" y="20" font-size="24" font-family="Arial, sans-serif">Remove The First City</text>
      <rect x="10" y="10" width="100" height="40" fill="#f0f0f0" rx="10" transform="rotate(45 50 50)">
        <text text-anchor="middle" x="50" y="25" font-size="18" font-family="Arial, sans-serif">What is a collection?</text>
      </rect>
      <rect x="120" y="10" width="100" height="40" fill="#f0f0f0" rx="10" transform="rotate(45 50 50)">
        <text text-anchor="middle" x="50" y="25" font-size="18" font-family="Arial, sans-serif">What is a document?</text>
      </rect>
      <rect x="230" y="10" width="100" height="40" fill="#f0f0f0" rx="10" transform="rotate(45 50 50)">
        <text text-anchor="middle" x="50" y="25" font-size="18" font-family="Arial, sans-serif">What is MongoDB Query Language?</text>
      </rect>
      <rect x="10" y="70" width="80" height="40" fill="#f0f0f0" rx="10" transform="rotate(45 50 50)">
        <text text-anchor="middle" x="50" y="25" font-size="18" font-family="Arial, sans-serif">Removing the first city</text>
      </rect>
      <rect x="120" y="70" width="80" height="40" fill="#f0f0f0" rx="10" transform="rotate(45 50 50)">
        <text text-anchor="middle" x="50" y="25" font-size="18" font-family="Arial, sans-serif">MongoDB Query Language syntax</text>
      </rect>
      <rect x="230" y="70" width="80" height="40" fill="#f0f0f0" rx="10" transform="rotate(45 50 50)">
        <text text-anchor="middle" x="50" y="25" font-size="18" font-family="Arial, sans-serif">Example</text>
      </rect>
      <rect x="10" y="130" width="80" height="40" fill="#f0f0f0" rx="10" transform="rotate(45 50 50)">
        <text text-anchor="middle" x="50" y="25" font-size="18" font-family="Arial, sans-serif">What is a collection?</text>
      </rect>
      <rect x="120" y="130" width="80" height="40" fill="#f0f0f0" rx="10" transform="rotate(45 50 50)">
        <text text-anchor="middle" x="50" y="25" font-size="18" font-family="Arial, sans-serif">What is a document?</text>
      </rect>
      <rect x="230" y="130" width="80" height="40" fill="#f0f0f0" rx="10" transform="rotate(45 50 50)">
        <text text-anchor="middle" x="50" y="25" font-size="18" font-family="Arial, sans-serif">What is MongoDB Query Language?</text>
      </rect>
      <rect x="10" y="190" width="80" height="40" fill="#f0f0f0" rx="10" transform="rotate(45 50 50)">
        <text text-anchor="middle" x="50" y="25" font-size="18" font-family="Arial, sans-serif">Removing the first city</text>
      </rect>
      <rect x="120" y="190" width="80" height="40" fill="#f0f0f0" rx="10" transform="rotate(45 50 50)">
        <text text-anchor="middle" x="50" y="25" font-size="18" font-family="Arial, sans-serif">MongoDB Query Language syntax</text>
      </rect>
      <rect x="230" y="190" width="80" height="40" fill="#f0f0f0" rx="10" transform="rotate(45 50 50)">
        <text text-anchor="middle" x="50" y="25" font-size="18" font-family="Arial, sans-serif">Example</text>
      </rect>
    </g>
    <animateTransform attributeName="transform" type="translate" from="0,50" to="0,150" dur="2s" begin="0s" repeatCount="indefinite"/>
    <g fill="#f0f0f0" opacity="0.9">
      <rect x="10" y="20" width="100" height="40" fill="#f0f0f0" rx="10">
        <text text-anchor="middle" x="50" y="25" font-size="18" font-family="Arial, sans-serif">What is a collection?</text>
      </rect>
      <rect x="120" y="20" width="100" height="40" fill="#f0f0f0" rx="10">
        <text text-anchor="middle" x="50" y="25" font-size="18" font-family="Arial, sans-serif">What is a document?</text>
      </rect>
      <rect x="230" y="20" width="100" height="40" fill="#f0f0f0" rx="10">
        <text text-anchor="middle" x="50" y="25" font-size="18" font-family="Arial, sans-serif">What is MongoDB Query Language?</text>
      </rect>
      <rect x="10" y="70" width="80" height="40" fill="#f0f0f0" rx="10">
        <text text-anchor="middle" x="50" y="25" font-size="18" font-family="Arial, sans-serif">Removing the first city</text>
      </rect>
      <rect x="120" y="70" width="80" height="40" fill="#f0f0f0" rx="10">
        <text text-anchor="middle" x="50" y="25" font-size="18" font-family="Arial, sans-serif">MongoDB Query Language syntax</text>
      </rect>
      <rect x="230" y="70" width="80" height="40" fill="#f0f0f0" rx="10">
        <text text-anchor="middle" x="50" y="25" font-size="18" font-family="Arial, sans-serif">Example</text>
      </rect>
      <rect x="10" y="130" width="80" height="40" fill="#f0f0f0" rx="10">
        <text text-anchor="middle" x="50" y="25" font-size="18" font-family="Arial, sans-serif">What is a collection?</text>
      </rect>
      <rect x="120" y="130" width="80" height="40" fill="#f0f0f0" rx="10">
        <text text-anchor="middle" x="50" y="25" font-size="18" font-family="Arial, sans-serif">What is a document?</text>
      </rect>
      <rect x="230" y="130" width="80" height="40" fill="#f0f0f0" rx="10">
        <text text-anchor="middle" x="50" y="25" font-size="18" font-family="Arial, sans-serif">What is MongoDB Query Language?</text>
      </rect>
      <rect x="10" y="190" width="80" height="40" fill="#f0f0f0" rx="10">
        <text text-anchor="middle" x="50" y="25" font-size="18" font-family="Arial, sans-serif">Removing the first city</text>
      </rect>
      <rect x="120" y="190" width="80" height="40" fill="#f0f0f0" rx="10">
        <text text-anchor="middle" x="50" y="25" font-size="18" font-family="Arial, sans-serif">MongoDB Query Language syntax</text>
      </rect>
      <rect x="230" y="190" width="80" height="40" fill="#f0f0f0" rx="10">
        <text text-anchor="middle" x="50" y="25" font-size="18" font-family="Arial, sans-serif">Example</text>
      </rect>
    </g>
    <g fill="#f0f0f0" opacity="0.9">
      <rect x="10" y="250" width="100" height="40" fill="#f0f0f0" rx="10">
        <text text-anchor="middle" x="50" y="25" font-size="18" font-family="Arial, sans-serif">Conclusion</text>
      </rect>
      <rect x="120" y="250" width="100" height="40" fill="#f0f0f0" rx="10">
        <text text-anchor="middle" x="50" y="25" font-size="18" font-family="Arial, sans-serif">Tutorial Summary</text>
      </rect>
      <rect x="230" y="250" width="100" height="40" fill="#f0f0f0" rx="10">
        <text text-anchor="middle" x="50" y="25" font-size="18" font-family="Arial, sans-serif">Challenge</text>
      </rect>
    </g>
    <circle cx="210" cy="50" r="10" fill="#6495ed"/>
    <rect x="10" y="10" width="100" height="40" fill="#f0f0f0" rx="10" transform="rotate(45 50 50)">
      <text text-anchor="middle" x="50" y="25" font-size="18" font-family="Arial, sans-serif">What is a collection?</text>
    </rect>
    <rect x="120" y="10" width="100" height="40" fill="#f0f0f0" rx="10" transform="rotate(45 50 50)">
      <text text-anchor="middle" x="50" y="25" font-size="18" font-family="Arial, sans-serif">What is a document?</text>
    </rect>
    <rect x="230" y="10" width="100" height="40" fill="#f0f0f0" rx="10" transform="rotate(45 50 50)">
      <text text-anchor="middle" x="50" y="25" font-size="18" font-family="Arial, sans-serif">What is MongoDB Query Language?</text>
    </rect>
    <line x1="10" y1="50" x2="20" y2="60" stroke="#f0f0f0" stroke-width="2" stroke-dasharray="2,2"/>
    <line x1="120" y1="50" x2="130" y2="60" stroke="#f0f0f0" stroke-width="2" stroke-dasharray="2,2"/>
    <line x1="230" y1="50" x2="240" y2="60" stroke="#f0f0f0" stroke-width="2" stroke-dasharray="2,2"/>
    <circle cx="210" cy="50" r="10" fill="#f0f0f0"/>
    <rect x="10" y="10" width="100" height="40" fill="#f0f0f0" rx="10" transform="rotate(45 50 50)">
      <text text-anchor="middle" x="50" y="25" font-size="18" font-family="Arial, sans-serif">Data Topic ID: Remove-The-First-City</text>
    </rect>
    <rect x="120" y="10" width="100" height="40" fill="#f0f0f0" rx="10" transform="rotate(45 50 50)">
      <text text-anchor="middle" x="50" y="25" font-size="18" font-family="Arial, sans-serif">Data Topic Slug: remove-the-first-city</text>
    </rect>
    <rect x="230" y="10" width="100" height="40" fill="#f0f0f0" rx="10" transform="rotate(45 50 50)">
      <text text-anchor="middle" x="50" y="25" font-size="18" font-family="Arial, sans-serif">Topic Name: Remove The First City</text>
    </rect>
  </g>
</svg>