<svg viewBox="0 0 800 1500" xmlns="http://www.w3.org/2000/svg">
  <defs>
    <!-- Gradients -->
    <linearGradient id="titleGrad" x1="0%" y1="0%" x2="100%" y2="100%">
      <stop offset="0%" style="stop-color:#1a237e;stop-opacity:1" />
      <stop offset="100%" style="stop-color:#303f9f;stop-opacity:1" />
    </linearGradient>
    <linearGradient id="blueGrad" x1="0%" y1="0%" x2="100%" y2="100%">
      <stop offset="0%" style="stop-color:#e3f2fd;stop-opacity:1" />
      <stop offset="100%" style="stop-color:#bbdefb;stop-opacity:1" />
    </linearGradient>
    <linearGradient id="greenGrad" x1="0%" y1="0%" x2="100%" y2="100%">
      <stop offset="0%" style="stop-color:#e8f5e9;stop-opacity:1" />
      <stop offset="100%" style="stop-color:#c8e6c9;stop-opacity:1" />
    </linearGradient>
    <linearGradient id="orangeGrad" x1="0%" y1="0%" x2="100%" y2="100%">
      <stop offset="0%" style="stop-color:#fff3e0;stop-opacity:1" />
      <stop offset="100%" style="stop-color:#ffe0b2;stop-opacity:1" />
    </linearGradient>
    <linearGradient id="purpleGrad" x1="0%" y1="0%" x2="100%" y2="100%">
      <stop offset="0%" style="stop-color:#f3e5f5;stop-opacity:1" />
      <stop offset="100%" style="stop-color:#e1bee7;stop-opacity:1" />
    </linearGradient>
    <linearGradient id="redGrad" x1="0%" y1="0%" x2="100%" y2="100%">
      <stop offset="0%" style="stop-color:#ffebee;stop-opacity:1" />
      <stop offset="100%" style="stop-color:#ffcdd2;stop-opacity:1" />
    </linearGradient>
    <linearGradient id="summaryGrad" x1="0%" y1="0%" x2="100%" y2="100%">
      <stop offset="0%" style="stop-color:#263238;stop-opacity:1" />
      <stop offset="100%" style="stop-color:#37474f;stop-opacity:1" />
    </linearGradient>
    
    <!-- Arrow marker -->
    <marker id="arrowBlue" markerWidth="10" markerHeight="10" refX="9" refY="3" orient="auto" markerUnits="strokeWidth">
      <path d="M0,0 L0,6 L9,3 z" fill="#1976d2" />
    </marker>
    <marker id="arrowGreen" markerWidth="10" markerHeight="10" refX="9" refY="3" orient="auto" markerUnits="strokeWidth">
      <path d="M0,0 L0,6 L9,3 z" fill="#388e3c" />
    </marker>
    
    <!-- Shadow filter -->
    <filter id="shadow" x="-20%" y="-20%" width="140%" height="140%">
      <feDropShadow dx="2" dy="3" stdDeviation="3" flood-opacity="0.2"/>
    </filter>
    
    <!-- Grid pattern -->
    <pattern id="grid" width="20" height="20" patternUnits="userSpaceOnUse">
      <path d="M 20 0 L 0 0 0 20" fill="none" stroke="#e0e0e0" stroke-width="0.5"/>
    </pattern>
  </defs>
  
  <style>
    @keyframes fadeInSlide {
      from { opacity: 0; transform: translateY(20px); }
      to { opacity: 1; transform: translateY(0); }
    }
    @keyframes scaleIn {
      from { opacity: 0; transform: scale(0.85); }
      to { opacity: 1; transform: scale(1); }
    }
    @keyframes textReveal {
      from { opacity: 0; transform: translateX(-10px); }
      to { opacity: 1; transform: translateX(0); }
    }
    @keyframes pulse {
      0%, 100% { transform: scale(1); }
      50% { transform: scale(1.03); }
    }
    @keyframes drawLine {
      from { stroke-dashoffset: 300; }
      to { stroke-dashoffset: 0; }
    }
    @keyframes fillIn {
      from { opacity: 0; }
      to { opacity: 1; }
    }
    @keyframes slideRight {
      from { transform: translateX(-30px); opacity: 0; }
      to { transform: translateX(0); opacity: 1; }
    }
    
    .step { animation: fadeInSlide 0.6s ease-out forwards; }
    .step rect { animation: scaleIn 0.5s cubic-bezier(0.34, 1.56, 0.64, 1) forwards; transform-origin: center; }
    .step text { animation: textReveal 0.4s ease-out 0.2s backwards; }
    .animated-line { stroke-dasharray: 300; stroke-dashoffset: 300; animation: drawLine 1.5s ease-out forwards; }
    .formula-text { animation: slideRight 0.5s ease-out forwards; opacity: 0; }
    
    text { font-family: 'Segoe UI', Arial, sans-serif; }
  </style>
  
  <!-- Background -->
  <rect width="800" height="1500" fill="#f8f9fa"/>
  
  <!-- STEP 0: Title -->
  <g class="step" id="step0" data-narration="Welcome to Parallel Line Algorithms - essential techniques in computer graphics for drawing lines on raster displays.">
    <rect x="40" y="10" width="720" height="45" rx="8" fill="url(#titleGrad)" filter="url(#shadow)"/>
    <text x="400" y="42" text-anchor="middle" fill="white" font-size="20" font-weight="bold">Parallel Line Algorithms</text>
    <text x="400" y="58" text-anchor="middle" fill="#5c6bc0" font-size="11">DDA • Bresenham's • Midpoint Algorithm</text>
  </g>
  
  <!-- STEP 1: Why Line Drawing Matters -->
  <g class="step" id="step1" data-narration="Computer screens are made of pixels in a grid. We need algorithms to determine which pixels to light up for a straight line.">
    <rect x="40" y="70" width="720" height="85" rx="8" fill="url(#blueGrad)" filter="url(#shadow)"/>
    <text x="60" y="92" fill="#1565c0" font-size="12" font-weight="bold">Why Do We Need Line Algorithms?</text>
    
    <!-- Raster grid visualization -->
    <rect x="60" y="105" width="160" height="40" fill="white" stroke="#90caf9" stroke-width="1"/>
    <g>
      <line x1="60" y1="105" x2="60" y2="145" stroke="#e0e0e0" stroke-width="0.5"/>
      <line x1="80" y1="105" x2="80" y2="145" stroke="#e0e0e0" stroke-width="0.5"/>
      <line x1="100" y1="105" x2="100" y2="145" stroke="#e0e0e0" stroke-width="0.5"/>
      <line x1="120" y1="105" x2="120" y2="145" stroke="#e0e0e0" stroke-width="0.5"/>
      <line x1="140" y1="105" x2="140" y2="145" stroke="#e0e0e0" stroke-width="0.5"/>
      <line x1="160" y1="105" x2="160" y2="145" stroke="#e0e0e0" stroke-width="0.5"/>
      <line x1="180" y1="105" x2="180" y2="145" stroke="#e0e0e0" stroke-width="0.5"/>
      <line x1="200" y1="105" x2="200" y2="145" stroke="#e0e0e0" stroke-width="0.5"/>
      <line x1="220" y1="105" x2="220" y2="145" stroke="#e0e0e0" stroke-width="0.5"/>
      <line x1="60" y1="105" x2="220" y2="105" stroke="#e0e0e0" stroke-width="0.5"/>
      <line x1="60" y1="125" x2="220" y2="125" stroke="#e0e0e0" stroke-width="0.5"/>
      <line x1="60" y1="145" x2="220" y2="145" stroke="#e0e0e0" stroke-width="0.5"/>
    </g>
    <!-- Pixels -->
    <rect x="101" y="106" width="18" height="18" fill="#1976d2" opacity="0.8"/>
    <rect x="121" y="126" width="18" height="18" fill="#1976d2" opacity="0.8"/>
    <rect x="141" y="126" width="18" height="18" fill="#1976d2" opacity="0.8"/>
    <rect x="161" y="106" width="18" height="18" fill="#1976d2" opacity="0.8"/>
    <rect x="181" y="126" width="18" height="18" fill="#1976d2" opacity="0.8"/>
    
    <text x="250" y="120" fill="#333" font-size="10">Raster Display:</text>
    <text x="250" y="135" fill="#666" font-size="9">Grid of pixels (discrete)</text>
    <text x="250" y="148" fill="#666" font-size="9">Line is continuous - needs</text>
    <text x="250" y="160" fill="#666" font-size="9">pixel approximation</text>
  </g>
  
  <!-- STEP 2: Problem Definition -->
  <g class="step" id="step2" data-narration="Given two endpoints, we must find which grid positions best represent the mathematical line connecting them.">
    <rect x="40" y="165" width="720" height="85" rx="8" fill="url(#orangeGrad)" filter="url(#shadow)"/>
    <text x="60" y="187" fill="#e65100" font-size="12" font-weight="bold">The Fundamental Problem</text>
    
    <!-- Coordinate visualization -->
    <g transform="translate(80, 200)">
      <line x1="0" y1="40" x2="200" y2="40" stroke="#333" stroke-width="1"/>
      <line x1="0" y1="0" x2="0" y2="80" stroke="#333" stroke-width="1"/>
      <text x="-5" y="45" text-anchor="end" font-size="8" fill="#666">0</text>
      <text x="-5" y="5" text-anchor="end" font-size="8" fill="#666">8</text>
      <text x="195" y="45" text-anchor="start" font-size="8" fill="#666">8</text>
      <!-- Ideal line -->
      <line x1="20" y1="60" x2="180" y2="20" stroke="#ff9800" stroke-width="2" class="animated-line"/>
      <!-- Approximated pixels -->
      <rect x="16" y="56" width="8" height="8" fill="#e65100"/>
      <rect x="36" y="48" width="8" height="8" fill="#e65100"/>
      <rect x="56" y="48" width="8" height="8" fill="#e65100"/>
      <rect x="76" y="40" width="8" height="8" fill="#e65100"/>
      <rect x="96" y="40" width="8" height="8" fill="#e65100"/>
      <rect x="116" y="32" width="8" height="8" fill="#e65100"/>
      <rect x="136" y="32" width="8" height="8" fill="#e65100"/>
      <rect x="156" y="24" width="8" height="8" fill="#e65100"/>
      <rect x="176" y="16" width="8" height="8" fill="#e65100"/>
    </g>
    
    <text x="300" y="215" fill="#333" font-size="10">Input: (x₁, y₁) and (x₂, y₂)</text>
    <text x="300" y="230" fill="#333" font-size="10">Output: Sequence of pixel</text>
    <text x="300" y="242" fill="#333" font-size="10">coordinates to illuminate</text>
    <text x="520" y="215" fill="#666" font-size="9">Orange: Ideal line</text>
    <text x="520" y="230" fill="#e65100" font-size="9">Red: Pixels chosen</text>
    <text x="520" y="242" fill="#666" font-size="9">Goal: Minimize error</text>
  </g>
  
  <!-- STEP 3: DDA Introduction -->
  <g class="step" id="step3" data-narration="DDA samples the line at regular intervals, calculating intermediate points by adding small increments to x and y coordinates.">
    <rect x="40" y="265" width="720" height="95" rx="8" fill="url(#greenGrad)" filter="url(#shadow)"/>
    <text x="60" y="287" fill="#2e7d32" font-size="12" font-weight="bold">DDA Algorithm (Digital Differential Analyzer)</text>
    
    <text x="60" y="310" fill="#333" font-size="10">DDA calculates the slope and steps through the major axis (axis with greater change):</text>
    
    <!-- Formula box -->
    <rect x="60" y="320" width="300" height="35" rx="4" fill="white" stroke="#388e3c" stroke-width="1"/>
    <text x="70" y="335" fill="#2e7d32" font-size="10" class="formula-text" style="animation-delay: 0.1s">dx = x₂ - x₁</text>
    <text x="150" y="335" fill="#333" font-size="10">,</text>
    <text x="160" y="335" fill="#2e7d32" font-size="10" class="formula-text" style="animation-delay: 0.2s">dy = y₂ - y₁</text>
    <text x="200" y="335" fill="#666" font-size="9">steps = max(|dx|,|dy|)</text>
    <text x="70" y="350" fill="#2e7d32" font-size="10" class="formula-text" style="animation-delay: 0.3s">xStep = dx/steps</text>
    <text x="160" y="350" fill="#333" font-size="10">,</text>
    <text x="170" y="350" fill="#2e7d32" font-size="10" class="formula-text" style="animation-delay: 0.4s">yStep = dy/steps</text>
    
    <!-- Algorithm flow -->
    <g transform="translate(400, 320)">
      <rect x="0" y="0" width="80" height="25" rx="4" fill="#81c784"/>
      <text x="40" y="16" text-anchor="middle" fill="#1b5e20" font-size="9">1. Calculate dx, dy</text>
      <line x1="40" y1="25" x2="40" y2="35" stroke="#388e3c" stroke-width="1" marker-end="url(#arrowGreen)"/>
      
      <rect x="0" y="35" width="80" height="25" rx="4" fill="#81c784"/>
      <text x="40" y="51" text-anchor="middle" fill="#1b5e20" font-size="9">2. Find steps</text>
      <line x1="40" y1="60" x2="40" y2="70" stroke="#388e3c" stroke-width="1" marker-end="url(#arrowGreen)"/>
      
      <rect x="0" y="70" width="80" height="25" rx="4" fill="#81c784"/>
      <text x="40" y="86" text-anchor="middle" fill="#1b5e20" font-size="9">3. Step & round</text>
    </g>
  </g>
  
  <!-- STEP 4: DDA Example -->
  <g class="step" id="step4" data-narration="Let's trace DDA for line from (2,3) to (8,7). We step through x coordinates and calculate corresponding y values.">
    <rect x="40" y="370" width="720" height="95" rx="8" fill="url(#greenGrad)" filter="url(#shadow)"/>
    <text x="60" y="392" fill="#2e7d32" font-size="12" font-weight="bold">DDA Example: Line from (2,3) to (8,7)</text>
    
    <!-- Grid -->
    <rect x="60" y="410" width="180" height="50" fill="white" stroke="#c8e6c9" stroke-width="1"/>
    <text x="65" y="425" fill="#666" font-size="8">dx=6, dy=4, steps=6</text>
    <text x="65" y="438" fill="#666" font-size="8">xStep=1, yStep=0.667</text>
    <text x="65" y="451" fill="#666" font-size="8">Plot: (2,3),(3,4),(4,4),(5,5),(6,6),(7,6),(8,7)</text>
    
    <!-- Visual of points -->
    <g transform="translate(280, 420)">
      <circle cx="0" cy="30" r="5" fill="#2e7d32"/>
      <text x="0" y="45" text-anchor="middle" fill="#333" font-size="8">(2,3)</text>
      <line x1="5" y1="28" x2="20" y2="20" stroke="#388e3c" stroke-width="1"/>
      
      <circle cx="30" cy="20" r="5" fill="#2e7d32"/>
      <text x="30" y="35" text-anchor="middle" fill="#333" font-size="8">(3,4)</text>
      <line x1="35" y1="18" x2="50" y2="18" stroke="#388e3c" stroke-width="1"/>
      
      <circle cx="60" cy="20" r="5" fill="#2e7d32"/>
      <text x="60" y="35" text-anchor="middle" fill="#333" font-size="8">(4,4)</text>
      <line x1="65" y1="18" x2="80" y2="10" stroke="#388e3c" stroke-width="1"/>
      
      <circle cx="90" cy="10" r="5" fill="#2e7d32"/>
      <text x="90" y="25" text-anchor="middle" fill="#333" font-size="8">(5,5)</text>
      <line x1="95" y1="8" x2="110" y2="0" stroke="#388e3c" stroke-width="1"/>
      
      <circle cx="120" cy="0" r="5" fill="#2e7d32"/>
      <text x="120" y="15" text-anchor="middle" fill="#333" font-size="8">(6,6)</text>
    </g>
    
    <!-- Pros/Cons -->
    <rect x="480" y="405" width="265" height="55" rx="4" fill="white" stroke="#388e3c" stroke-width="1"/>
    <text x="495" y="422" fill="#2e7d32" font-size="10" font-weight="bold">✓ Advantages</text>
    <text x="495" y="436" fill="#333" font-size="9">• Simple to understand</text>
    <text x="495" y="449" fill="#333" font-size="9">• Conceptually straightforward</text>
    <text x="610" y="422" fill="#c62828" font-size="10" font-weight="bold">✗ Disadvantages</text>
    <text x="610" y="436" fill="#333" font-size="9">• Uses floating-point</text>
    <text x="610" y="449" fill="#333" font-size="9">• Slower than integer methods</text>
  </g>
  
  <!-- STEP 5: Bresenham Introduction -->
  <g class="step" id="step5" data-narration="Bresenham's algorithm uses only integer arithmetic by comparing distances to choose the next pixel, making it extremely efficient.">
    <rect x="40" y="480" width="720" height="95" rx="8" fill="url(#purpleGrad)" filter="url(#shadow)"/>
    <text x="60" y="502" fill="#7b1fa2" font-size="12" font-weight="bold">Bresenham's Line Algorithm (1962)</text>
    
    <text x="60" y="525" fill="#333" font-size="10">Uses integer arithmetic only - the most widely used line drawing algorithm:</text>
    
    <!-- Key insight visualization -->
    <rect x="60" y="535" width="350" height="35" rx="4" fill="white" stroke="#9c27b0" stroke-width="1"/>
    <text x="70" y="550" fill="#7b1fa2" font-size="10" font-weight="bold">Decision Parameter: P = 2·dy - dx</text>
    <text x="70" y="565" fill="#666" font-size="9">If P &lt; 0: choose lower pixel | If P ≥ 0: choose upper pixel</text>
    
    <!-- Why integer works -->
    <g transform="translate(430, 535)">
      <circle cx="15" cy="15" r="12" fill="#e1bee7"/>
      <text x="15" y="18" text-anchor="middle" fill="#4a148c" font-size="9" font-weight="bold">P</text>
      <text x="40" y="18" fill="#333" font-size="9">compares vertical</text>
      <text x="40" y="30" fill="#333" font-size="9">distances to line</text>
    </g>
  </g>
  
  <!-- STEP 6: Bresenham Decision Parameter -->
  <g class="step" id="step6" data-narration="At each step, Bresenham compares two candidate pixels by checking which one is closer to the ideal line using the error term.">
    <rect x="40" y="585" width="720" height="95" rx="8" fill="url(#purpleGrad)" filter="url(#shadow)"/>
    <text x="60" y="607" fill="#7b1fa2" font-size="12" font-weight="bold">How Bresenham's Decision Works</text>
    
    <!-- Decision visualization -->
    <g transform="translate(80, 625)">
      <line x1="0" y1="20" x2="100" y2="20" stroke="#9c27b0" stroke-width="2" class="animated-line"/>
      <!-- Current pixel -->
      <rect x="15" y="10" width="10" height="10" fill="#7b1fa2"/>
      <text x="20" y="40" text-anchor="middle" fill="#333" font-size="8">Current</text>
      
      <!-- Two options -->
      <rect x="50" y="10" width="10" height="10" fill="#ba68c8" stroke="#7b1fa2" stroke-width="2"/>
      <text x="55" y="40" text-anchor="middle" fill="#7b1fa2" font-size="8">Option A</text>
      <line x1="55" y1="12" x2="55" y2="18" stroke="#666" stroke-width="0.5" stroke-dasharray="2"/>
      
      <rect x="50" y="0" width="10" height="10" fill="#ba68c8" stroke="#7b1fa2" stroke-width="2"/>
      <text x="55" y="-5" text-anchor="middle" fill="#7b1fa2" font-size="8">Option B</text>
      <line x1="55" y1="2" x2="55" y2="15" stroke="#666" stroke-width="0.5" stroke-dasharray="2"/>
    </g>
    
    <!-- Update formulas -->
    <rect x="220" y="620" width="280" height="55" rx="4" fill="white" stroke="#9c27b0" stroke-width="1"/>
    <text x="235" y="640" fill="#7b1fa2" font-size="10" font-weight="bold">Initial: P₀ = 2·dy - dx</text>
    <text x="235" y="658" fill="#333" font-size="9">If P &lt; 0: P += 2·dy (choose lower)</text>
    <text x="235" y="672" fill="#333" font-size="9">If P ≥ 0: P += 2·dy - 2·dx (choose upper)</text>
    
    <!-- Hardware icon -->
    <g transform="translate(540, 625)">
      <rect x="0" y="0" width="50" height="40" rx="4" fill="#4a148c"/>
      <text x="25" y="18" text-anchor="middle" fill="white" font-size="20">⚡</text>
      <text x="25" y="35" text-anchor="middle" fill="white" font-size="8">Hardware</text>
      <text x="25" y="45" text-anchor="middle" fill="#e1bee7" font-size="7">Friendly!</text>
    </g>
  </g>
  
  <!-- STEP 7: Bresenham Example -->
  <g class="step" id="step7" data-narration="Tracing Bresenham for the same line (2,3) to (8,7): Initial P₀ = 2, we plot points based on whether P is negative or positive.">
    <rect x="40" y="690" width="720" height="95" rx="8" fill="url(#purpleGrad)" filter="url(#shadow)"/>
    <text x="60" y="712" fill="#7b1fa2" font-size="12" font-weight="bold">Bresenham Example: Line from (2,3) to (8,7)</text>
    
    <!-- Table -->
    <rect x="60" y="730" width="400" height="50" rx="4" fill="white" stroke="#ce93d8" stroke-width="1"/>
    <text x="70" y="745" fill="#333" font-size="9">dx=6, dy=4, P₀=2·4-6=2</text>
    <text x="70" y="760" fill="#666" font-size="8">k=0: P=2≥0 → (3,4), P=-2 | k=1: P=-2&lt;0 → (4,4), P=6</text>
    <text x="70" y="775" fill="#666" font-size="8">k=2: P=6≥0 → (5,5), P=-2 | k=3: P=-2&lt;0 → (6,6), P=6</text>
    
    <!-- Visual comparison -->
    <rect x="480" y="730" width="265" height="50" rx="4" fill="#f3e5f5" stroke="#9c27b0" stroke-width="1"/>
    <text x="495" y="748" fill="#7b1fa2" font-size="10" font-weight="bold">Result Comparison</text>
    <text x="495" y="762" fill="#333" font-size="9">DDA: (2,3),(3,4),(4,4),(5,5),(6,6),(7,6),(8,7)</text>
    <text x="495" y="776" fill="#333" font-size="9">Bresenham: Same pixels! ✓</text>
  </g>
  
  <!-- STEP 8: Midpoint Introduction -->
  <g class="step" id="step8" data-narration="The Midpoint algorithm uses the implicit equation of a line to determine which pixel is closer to the ideal line.">
    <rect x="40" y="800" width="720" height="95" rx="8" fill="url(#redGrad)" filter="url(#shadow)"/>
    <text x="60" y="822" fill="#c62828" font-size="12" font-weight="bold">Midpoint Line Algorithm</text>
    
    <text x="60" y="845" fill="#333" font-size="10">Uses implicit line equation F(x,y) = Ax + By + C = 0 to make decisions:</text>
    
    <!-- Implicit equation -->
    <rect x="60" y="855" width="250" height="35" rx="4" fill="white" stroke="#ef5350" stroke-width="1"/>
    <text x="70" y="870" fill="#c62828" font-size="10" font-weight="bold">For (x₁,y₁) to (x₂,y₂):</text>
    <text x="70" y="885" fill="#333" font-size="9">A = y₁-y₂, B = x₂-x₁, C = x₁y₂ - x₂y₁</text>
    
    <!-- Decision principle -->
    <rect x="330" y="855" width="200" height="35" rx="4" fill="white" stroke="#ef5350" stroke-width="1"/>
    <text x="345" y="870" fill="#c62828" font-size="10" font-weight="bold">Decision: Evaluate at midpoint</text>
    <text x="345" y="885" fill="#666" font-size="9">If F(midpoint) &lt; 0: below line</text>
    
    <!-- Relationship -->
    <rect x="550" y="855" width="195" height="35" rx="4" fill="#ffcdd2"/>
    <text x="565" y="870" fill="#c62828" font-size="10" font-weight="bold">Key Insight</text>
    <text x="565" y="885" fill="#333" font-size="9">Produces identical results</text>
    <text x="565" y="895" fill="#333" font-size="9">to Bresenham!</text>
  </g>
  
  <!-- STEP 9: Midpoint Details -->
  <g class="step" id="step9" data-narration="The midpoint algorithm checks whether the midpoint between two candidate pixels lies above or below the line to make its choice.">
    <rect x="40" y="905" width="720" height="95" rx="8" fill="url(#redGrad)" filter="url(#shadow)"/>
    <text x="60" y="927" fill="#c62828" font-size="12" font-weight="bold">Midpoint Algorithm - Decision Process</text>
    
    <!-- Visual of midpoint -->
    <g transform="translate(80, 945)">
      <line x1="0" y1="30" x2="120" y2="30" stroke="#c62828" stroke-width="2" class="animated-line"/>
      <!-- Candidate 1 -->
      <rect x="40" y="20" width="10" height="10" fill="#e57373"/>
      <rect x="40" y="30" width="10" height="10" fill="#e57373"/>
      <!-- Midpoint -->
      <circle cx="60" cy="25" r="6" fill="#c62828"/>
      <text x="60" y="45" text-anchor="middle" fill="#333" font-size="8">midpoint</text>
      <!-- Candidate 2 -->
      <rect x="70" y="20" width="10" height="10" fill="#ef9a9a"/>
      <rect x="70" y="10" width="10" height="10" fill="#ef9a9a"/>
    </g>
    
    <!-- Formulas -->
    <rect x="250" y="940" width="300" height="55" rx="4" fill="white" stroke="#ef5350" stroke-width="1"/>
    <text x="265" y="958" fill="#c62828" font-size="10" font-weight="bold">Initial Decision Parameter</text>
    <text x="265" y="975" fill="#333" font-size="9">d = A + 0.5B (or integer: 2A + B)</text>
    <text x="265" y="990" fill="#666" font-size="9">Update rules similar to Bresenham</text>
    
    <!-- Comparison -->
    <rect x="570" y="940" width="175" height="55" rx="4" fill="#ffebee"/>
    <text x="585" y="958" fill="#c62828" font-size="10" font-weight="bold">Time Complexity</text>
    <text x="585" y="975" fill="#333" font-size="9">O(n) - same as</text>
    <text x="585" y="988" fill="#333" font-size="9">Bresenham!</text>
  </g>
  
  <!-- STEP 10: Handling Steep Lines -->
  <g class="step" id="step10" data-narration="When a line is steep (|dy| &gt; |dx|), we step through y coordinates instead of x to maintain accuracy.">
    <rect x="40" y="1010" width="720" height="95" rx="8" fill="url(#blueGrad)" filter="url(#shadow)"/>
    <text x="60" y="1032" fill="#1565c0" font-size="12" font-weight="bold">Handling Steep Lines (|dy| > |dx|)</text>
    
    <!-- Two cases visualization -->
    <g transform="translate(60, 1050)">
      <!-- Shallow line -->
      <rect x="0" y="0" width="150" height="40" rx="4" fill="white" stroke="#1976d2"/>
      <text x="75" y="18" text-anchor="middle" fill="#1565c0" font-size="10" font-weight="bold">Shallow (|dx| ≥ |dy|)</text>
      <text x="75" y="32" text-anchor="middle" fill="#666" font-size="9">Step through x, calc y</text>
      
      <!-- Steep line -->
      <rect x="170" y="0" width="150" height="40" rx="4" fill="white" stroke="#1976d2"/>
      <text x="245" y="18" text-anchor="middle" fill="#1565c0" font-size="10" font-weight="bold">Steep (|dy| > |dx|)</text>
      <text x="245" y="32" text-anchor="middle" fill="#666" font-size="9">Step through y, calc x</text>
    </g>
    
    <!-- Example -->
    <rect x="400" y="1045" width="345" height="55" rx="4" fill="#e3f2fd" stroke="#1976d2"/>
    <text x="415" y="1063" fill="#1565c0" font-size="10" font-weight="bold">Example: (1,1) to (3,7)</text>
    <text x="415" y="1080" fill="#333" font-size="9">dx=2, dy=6, |dy| > |dx| → steep</text>
    <text x="415" y="1095" fill="#666" font-size="9">Result: (1,1),(2,2),(2,3),(3,4),(3,5),(3,6),(3,7)</text>
  </g>
  
  <!-- STEP 11: Handling Different Orientations -->
  <g class="step" id="step11" data-narration="Lines can go in any direction - we handle negative slopes, right-to-left drawing, and swap axes when needed.">
    <rect x="40" y="1115" width="720" height="95" rx="8" fill="url(#orangeGrad)" filter="url(#shadow)"/>
    <text x="60" y="1137" fill="#e65100" font-size="12" font-weight="bold">Handling All Line Orientations</text>
    
    <!-- Octants visualization -->
    <g transform="translate(70, 1155)">
      <line x1="0" y1="30" x2="60" y2="30" stroke="#ff9800" stroke-width="1.5"/>
      <line x1="30" y1="0" x2="30" y2="60" stroke="#ff9800" stroke-width="1.5"/>
      <line x1="10" y1="10" x2="50" y2="50" stroke="#e65100" stroke-width="2"/>
      <line x1="10" y1="50" x2="50" y2="10" stroke="#e65100" stroke-width="2"/>
      <text x="30" y="70" text-anchor="middle" fill="#666" font-size="8">All 8 octants</text>
    </g>
    
    <!-- Handling techniques -->
    <rect x="180" y="1150" width="300" height="55" rx="4" fill="white" stroke="#ff9800"/>
    <text x="195" y="1168" fill="#e65100" font-size="10" font-weight="bold">Standard Techniques</text>
    <text x="195" y="1185" fill="#333" font-size="9">• Swap endpoints if x₂ &lt; x₁ to ensure left-to-right</text>
    <text x="195" y="1200" fill="#333" font-size="9">• Use |dx|, |dy| for negative slopes</text>
    <text x="195" y="1215" fill="#333" font-size="9">• Swap x,y for steep lines</text>
    
    <!-- Summary box -->
    <rect x="500" y="1150" width="245" height="55" rx="4" fill="#fff3e0"/>
    <text x="515" y="1168" fill="#e65100" font-size="10" font-weight="bold">Key Formula Change</text>
    <text x="515" y="1185" fill="#333" font-size="9">For steep lines, Bresenham uses:</text>
    <text x="515" y="1200" fill="#666" font-size="9">P₀ = 2·dx - dy (instead of 2·dy - dx)</text>
  </g>
  
  <!-- STEP 12: Algorithm Comparison -->
  <g class="step" id="step12" data-narration="Let's compare the three algorithms: DDA is simple but slow, Bresenham and Midpoint are fast with integer arithmetic.">
    <rect x="40" y="1220" width="720" height="95" rx="8" fill="url(#summaryGrad)" filter="url(#shadow)"/>
    <text x="60" y="1242" fill="white" font-size="12" font-weight="bold">Algorithm Comparison</text>
    
    <!-- Comparison table -->
    <g transform="translate(60, 1260)">
      <!-- Headers -->
      <rect x="0" y="0" width="130" height="18" fill="#546e7a"/>
      <text x="65" y="13" text-anchor="middle" fill="white" font-size="9" font-weight="bold">DDA</text>
      <rect x="130" y="0" width="130" height="18" fill="#546e7a"/>
      <text x="195" y="13" text-anchor="middle" fill="white" font-size="9" font-weight="bold">Bresenham</text>
      <rect x="260" y="0" width="130" height="18" fill="#546e7a"/>
      <text x="325" y="13" text-anchor="middle" fill="white" font-size="9" font-weight="bold">Midpoint</text>
      
      <!-- Row 1: Arithmetic -->
      <rect x="0" y="18" width="130" height="18" fill="#cfd8dc"/>
      <text x="10" y="30" fill="#333" font-size="9">Arithmetic</text>
      <rect x="130" y="18" width="130" height="18" fill="#eceff1"/>
      <text x="140" y="30" fill="#333" font-size="9">Floating-point</text>
      <rect x="260" y="18" width="130" height="18" fill="#eceff1"/>
      <text x="270" y="30" fill="#333" font-size="9">Integer</text>
      <text x="350" y="30" fill="#333" font-size="9">Integer</text>
      
      <!-- Row 2: Speed -->
      <rect x="0" y="36" width="130" height="18" fill="#cfd8dc"/>
      <text x="10" y="48" fill="#333" font-size="9">Speed</text>
      <rect x="130" y="36" width="130" height="18" fill="#ffcdd2"/>
      <text x="140" y="48" fill="#c62828" font-size="9">Slower</text>
      <rect x="260" y="36" width="130" height="18" fill="#c8e6c9"/>
      <text x="270" y="48" fill="#2e7d32" font-size="9">Fastest</text>
      <text x="350" y="48" fill="#2e7d32" font-size="9">Fastest</text>
      
      <!-- Row 3: Usage -->
      <rect x="0" y="54" width="130" height="18" fill="#cfd8dc"/>
      <text x="10" y="66" fill="#333" font-size="9">Usage</text>
      <rect x="130" y="54" width="130" height="18" fill="#e8f5e9"/>
      <text x="140" y="66" fill="#333" font-size="9">Learning</text>
      <rect x="260" y="54" width="130" height="18" fill="#e8f5e9"/>
      <text x="270" y="66" fill="#2e7d32" font-size="9">Industry std</text>
      <text x="350" y="66" fill="#333" font-size="9">Alternative</text>
    </g>
  </g>
  
  <!-- STEP 13: Key Takeaways -->
  <g class="step" id="step13" data-narration="Remember: All algorithms minimize error between ideal line and selected pixels. Bresenham dominates practical applications.">
    <rect x="40" y="1325" width="720" height="95" rx="8" fill="url(#summaryGrad)" filter="url(#shadow)"/>
    <text x="60" y="1347" fill="white" font-size="12" font-weight="bold">Key Takeaways</text>
    
    <!-- Formula summary -->
    <rect x="60" y="1360" width="230" height="55" rx="4" fill="#455a64"/>
    <text x="75" y="1378" fill="#81d4fa" font-size="10" font-weight="bold">DDA</text>
    <text x="75" y="1395" fill="#cfd8dc" font-size="9">steps = max(|dx|,|dy|)</text>
    <text x="75" y="1410" fill="#cfd8dc" font-size="9">xStep = dx/steps, yStep = dy/steps</text>
    
    <rect x="300" y="1360" width="230" height="55" rx="4" fill="#455a64"/>
    <text x="315" y="1378" fill="#81d4fa" font-size="10" font-weight="bold">Bresenham</text>
    <text x="315" y="1395" fill="#cfd8dc" font-size="9">P₀ = 2·dy - dx</text>
    <text x="315" y="1410" fill="#cfd8dc" font-size="9">P &lt; 0: P+=2·dy | else: P+=2·dy-2·dx</text>
    
    <rect x="540" y="1360" width="205" height="55" rx="4" fill="#455a64"/>
    <text x="555" y="1378" fill="#81d4fa" font-size="10" font-weight="bold">Midpoint</text>
    <text x="555" y="1395" fill="#cfd8dc" font-size="9">F(x,y) = Ax + By + C = 0</text>
    <text x="555" y="1410" fill="#cfd8dc" font-size="9">Evaluate at midpoint</text>
    
    <!-- Final note -->
    <text x="400" y="1435" text-anchor="middle" fill="#b0bec5" font-size="11" font-style="italic">"Bresenham's algorithm is the industry standard for hardware implementations"</text>
  </g>
</svg>