<svg width="420" height="400" data-topic-id="chap-3-31" xmlns="http://www.w3.org/2000/svg">
  <title>Chap 3 31</title>
  <rect x="0" y="0" width="420" height="40" fill="#C7B8EA" rx="10"/>
  <rect x="0" y="40" width="420" height="320" fill="#F7F7F7"/>
  
  <defs>
    <linearGradient id="pastel-gradient" x1="0%" y1="0%" x2="100%" y2="0%">
      <stop offset="0%" stop-color="#FFC5C5"/>
      <stop offset="100%" stop-color="#A7A7F7"/>
    </linearGradient>
  </defs>
  
  <g transform="translate(20, 50)">
    <rect x="0" y="0" width="300" height="200" fill="url(#pastel-gradient)" rx="10"/>
    
    <g data-narration="In computer vision, an image is represented as a collection of pixel values that correspond to the amount of light that enters the camera.">
      <text x="50%" y="70%" font-size="18">Photometric Image</text>
      <rect x="50%" y="60%" width="100" height="20" fill="#3B5998" rx="5"/>
    </g>
    
    <g data-narration="A photometric image is a 2D array of pixel values that represent the amount of light that enters a camera. Each pixel value is typically represented as a color value, which can be specified in various color models such as RGB, YUV, or CMYK.">
      <text x="50%" y="120%" font-size="18">Definition</text>
      <rect x="50%" y="110%" width="100" height="20" fill="#34A85A" rx="5"/>
    </g>
    
    <g data-narration="Each pixel value represents the amount of light that enters the camera at that specific location. Photometric images are used to represent images that are captured using a camera, where the amount of light is the primary factor in determining the color and intensity of the image. Photometric images are typically represented in a digital format, where each pixel value is a numerical representation of the amount of light that enters the camera.">
      <text x="50%" y="170%" font-size="18">Characteristics</text>
      <rect x="50%" y="160%" width="100" height="20" fill="#FF9800" rx="5"/>
    </g>
    
    <g data-narration="Consider a camera that captures an image of a sunset. The photometric image of the sunset would represent the amount of light that enters the camera at each pixel location. The pixel values would be higher for the parts of the image that receive more light (i.e., the sun) and lower for the parts that receive less light (i.e., the shadows).">
      <text x="50%" y="220%" font-size="18">Example</text>
      <rect x="50%" y="210%" width="100" height="20" fill="#2196F3" rx="5"/>
    </g>
    
    <g data-narration="The formation of a photometric image occurs through the following steps:">
      <text x="50%" y="270%" font-size="18">Image Formation Process</text>
      <rect x="50%" y="260%" width="100" height="20" fill="#FFC400" rx="5"/>
    </g>
    
    <g data-narration="1. Light absorption: Light enters the camera and is absorbed by the camera's sensor.">
      <text x="50%" y="320%" font-size="18">Step 1: Light Absorption</text>
      <rect x="50%" y="310%" width="100" height="20" fill="#2196F3" rx="5"/>
      <animate attributeName="opacity" begin="0s" dur="2s" from="1" to="0"/>
    </g>
    
    <g data-narration="2. Conversion to electrical signal: The absorbed light is converted into an electrical signal.">
      <text x="50%" y="370%" font-size="18">Step 2: Conversion to Electrical Signal</text>
      <rect x="50%" y="360%" width="100" height="20" fill="#2196F3" rx="5"/>
      <animate attributeName="opacity" begin="2s" dur="2s" from="0" to="1"/>
    </g>
    
    <g data-narration="3. Processing: The electrical signal is processed to create the final image.">
      <text x="50%" y="420%" font-size="18">Step 3: Processing</text>
      <rect x="50%" y="410%" width="100" height="20" fill="#2196F3" rx="5"/>
      <animate attributeName="opacity" begin="4s" dur="2s" from="0" to="1"/>
    </g>
    <g data-narration="4. Output: The final image is displayed on the screen.">
      <text x="50%" y="470%" font-size="18">Step 4: Output</text>
      <rect x="50%" y="460%" width="100" height="20" fill="#2196F3" rx="5"/>
      <animate attributeName="opacity" begin="6s" dur="2s" from="0" to="1"/>
    </g>
    
    <g data-narration="5. Storage: The final image is stored on a memory device.">
      <text x="50%" y="530%" font-size="18">Step 5: Storage</text>
      <rect x="50%" y="520%" width="100" height="20" fill="#2196F3" rx="5"/>
      <animate attributeName="opacity" begin="8s" dur="2s" from="0" to="1"/>
    </g>
    
    <g data-narration="6. Display: The stored image is displayed on a screen.">
      <text x="50%" y="590%" font-size="18">Step 6: Display</text>
      <rect x="50%" y="580%" width="100" height="20" fill="#2196F3" rx="5"/>
      <animate attributeName="opacity" begin="10s" dur="2s" from="0" to="1"/>
    </g>
    
    <g data-narration="7. Editing: The displayed image can be edited to create a new image.">
      <text x="50%" y="650%" font-size="18">Step 7: Editing</text>
      <rect x="50%" y="640%" width="100" height="20" fill="#2196F3" rx="5"/>
      <animate attributeName="opacity" begin="12s" dur="2s" from="0" to="1"/>
    </g>
    
    <g data-narration="8. Sharing: The edited image can be shared with others.">
      <text x="50%" y="710%" font-size="18">Step 8: Sharing</text>
      <rect x="50%" y="700%" width="100" height="20" fill="#2196F3" rx="5"/>
      <animate attributeName="opacity" begin="14s" dur="2s" from="0" to="1"/>
    </g>
  </g>
  
  <g transform="translate(20, 420)">
    <text x="50%" y="70%" font-size="18">Key Concepts</text>
    <rect x="50%" y="60%" width="100" height="20" fill="#3B5998" rx="5"/>
    <text x="50%" y="120%" font-size="18">Pixel Value</text>
    <rect x="50%" y="110%" width="100" height="20" fill="#34A85A" rx="5"/>
    <text x="50%" y="170%" font-size="18">Color Model</text>
    <rect x="50%" y="160%" width="100" height="20" fill="#FF9800" rx="5"/>
    <text x="50%" y="220%" font-size="18">Photometric Image</text>
    <rect x="50%" y="210%" width="100" height="20" fill="#2196F3" rx="5"/>
    <text x="50%" y="270%" font-size="18">Digital Image</text>
    <rect x="50%" y="260%" width="100" height="20" fill="#2196F3" rx="5"/>
  </g>
  
  <g transform="translate(20, 450)">
    <g data-narration="In a photometric image, each pixel value represents the amount of light that enters the camera at that specific location.">
      <text x="50%" y="70%" font-size="18">Pixel Value Represents Light</text>
      <rect x="50%" y="60%" width="100" height="20" fill="#3B5998" rx="5"/>
      <text x="50%" y="120%" font-size="18">Characteristics of Photometric Images</text>
      <rect x="50%" y="110%" width="100" height="20" fill="#34A85A" rx="5"/>
    </g>
    
    <g data-narration="Photometric images are used to represent images that are captured using a camera, where the amount of light is the primary factor in determining the color and intensity of the image.">
      <text x="50%" y="70%" font-size="18">Photometric Images Represent Camera Captured Images</text>
      <rect x="50%" y="60%" width="100" height="20" fill="#3B5998" rx="5"/>
      <text x="50%" y="120%" font-size="18">Characteristics of Photometric Images</text>
      <rect x="50%" y="110%" width="100" height="20" fill="#34A85A" rx="5"/>
    </g>
    
    <g data-narration="Photometric images are typically represented in a digital format, where each pixel value is a numerical representation of the amount of light that enters the camera.">
      <text x="50%" y="70%" font-size="18">Photometric Images are Digital</text>
      <rect x="50%" y="60%" width="100" height="20" fill="#3B5998" rx="5"/>
      <text x="50%" y="120%" font-size="18">Characteristics of Photometric Images</text>
      <rect x="50%" y="110%" width="100" height="20" fill="#34A85A" rx="5"/>
    </g>
    
    <g data-narration="The formation of a photometric image occurs through the following steps: Light absorption, conversion to electrical signal, processing, output, storage, and display.">
      <text x="50%" y="70%" font-size="18">Image Formation Process</text>
      <rect x="50%" y="60%" width="100" height="20" fill="#3B5998" rx="5"/>
      <text x="50%" y="120%" font-size="18">Photometric Image Formation Process</text>
      <rect x="50%" y="110%" width="100" height="20" fill="#34A85A" rx="5"/>
    </g>
  </g>
  
  <g transform="translate(20, 500)">
    <g data-narration="1. Light absorption: Light enters the camera and is absorbed by the camera's sensor.">
      <text x="50%" y="70%" font-size="18">Step 1: Light Absorption</text>
      <rect x="50%" y="60%" width="100" height="20" fill="#3B5998" rx="5"/>
      <rect x="50%" y="60%" width="100" height="20" fill="#FFC400" rx="5"/>
      <animate attributeName="opacity" begin="0s" dur="2s" from="1" to="0"/>
    </g>
    
    <g data-narration="2. Conversion to electrical signal: The absorbed light is converted into an electrical signal.">
      <text x="50%" y="120%" font-size="18">Step 2: Conversion to Electrical Signal</text>
      <rect x="50%" y="110%" width="100" height="20" fill="#34A85A" rx="5"/>
      <rect x="50%" y="110%" width="100" height="20" fill="#FFC400" rx="5"/>
      <animate attributeName="opacity" begin="2s" dur="2s" from="0" to="1"/>
    </g>
    
    <g data-narration="3. Processing: The electrical signal is processed to create the final image.">
      <text x="50%" y="170%" font-size="18">Step 3: Processing</text>
      <rect x="50%" y="160%" width="100" height="20" fill="#3B5998" rx="5"/>
      <rect x="50%" y="160%" width="100" height="20" fill="#FFC400" rx="5"/>
      <animate attributeName="opacity" begin="4s" dur="2s" from="0" to="1"/>
    </g>
    
    <g data-narration="4. Output: The final image is displayed on the screen.">
      <text x="50%" y="220%" font-size="18">Step 4: Output</text>
      <rect x="50%" y="210%" width="100" height="20" fill="#34A85A" rx="5"/>
      <rect x="50%" y="210%" width="100" height="20" fill="#FFC400" rx="5"/>
      <animate attributeName="opacity" begin="6s" dur="2s" from="0" to="1"/>
    </g>
    
    <g data-narration="5. Storage: The final image is stored on a memory device.">
      <text x="50%" y="270%" font-size="18">Step 5: Storage</text>
      <rect x="50%" y="260%" width="100" height="20" fill="#3B5998" rx="5"/>
      <rect x="50%" y="260%" width="100" height="20" fill="#FFC400" rx="5"/>
      <animate attributeName="opacity" begin="8s" dur="2s" from="0" to="1"/>
    </g>
    
    <g data-narration="6. Display: The stored image is displayed on a screen.">
      <text x="50%" y="320%" font-size="18">Step 6: Display</text>
      <rect x="50%" y="310%" width="100" height="20" fill="#34A85A" rx="5"/>
      <rect x="50%" y="310%" width="100" height="20" fill="#FFC400" rx="5"/>
      <animate attributeName="opacity" begin="10s" dur="2s" from="0" to="1"/>
    </g>
    
    <g data-narration="7. Editing: The displayed image can be edited to create a new image.">
      <text x="50%" y="380%" font-size="18">Step 7: Editing</text>
      <rect x="50%" y="370%" width="100" height="20" fill="#3B5998" rx="5"/>
      <rect x="50%" y="370%" width="100" height="20" fill="#FFC400" rx="5"/>
      <animate attributeName="opacity" begin="12s" dur="2s" from="0" to="1"/>
    </g>
    
    <g data-narration="8. Sharing: The edited image can be shared with others.">
      <text x="50%" y="450%" font-size="18">Step 8: Sharing</text>
      <rect x="50%" y="440%" width="100" height="20" fill="#3B5998" rx="5"/>
      <rect x="50%" y="440%" width="100" height="20" fill="#FFC400" rx="5"/>
      <animate attributeName="opacity" begin="14s" dur="2s" from="0" to="1"/>
    </g>
  </g>
  
  <g transform="translate(20, 550)">
    <g data-narration="The formation of a photometric image occurs through the following steps: Light absorption, conversion to electrical signal, processing, output, storage, and display.">
      <text x="50%" y="70%" font-size="18">Image Formation Process</text>
      <rect x="50%" y="60%" width="100" height="20" fill="#3B5998" rx="5"/>
      <text x="50%" y="120%" font-size="18">Step 1: Light Absorption</text>
      <rect x="50%" y="110%" width="100" height="20" fill="#34A85A" rx="5"/>
      <rect x="50%" y="110%" width="100" height="20" fill="#FFC400" rx="5"/>
      <animate attributeName="opacity" begin="0s" dur="2s" from="1" to="0"/>
    </g>
    
    <g data-narration="2. Conversion to electrical signal: The absorbed light is converted into an electrical signal.">
      <text x="50%" y="170%" font-size="18">Step 2: Conversion to Electrical Signal</text>
      <rect x="50%" y="160%" width="100" height="20" fill="#3B5998" rx="5"/>
      <rect x="50%" y="160%" width="100" height="20" fill="#FFC400" rx="5"/>
      <animate attributeName="opacity" begin="2s" dur="2s" from="0" to="1"/>
    </g>
    
    <g data-narration="3. Processing: The electrical signal is processed to create the final image.">
      <text x="50%" y="230%" font-size="18">Step 3: Processing</text>
      <rect x="50%" y="220%" width="100" height="20" fill="#3B5998" rx="5"/>
      <rect x="50%" y="220%" width="100" height="20" fill="#FFC400" rx="5"/>
      <animate attributeName="opacity" begin="4s" dur="2s" from="0" to="1"/>
    </g>
    
    <g data-narration="4. Output: The final image is displayed on the screen.">
      <text x="50%" y="290%" font-size="18">Step 4: Output</text>
      <rect x="50%" y="280%" width="100" height="20" fill="#34A85A" rx="5"/>
      <rect x="50%" y="280%" width="100" height="20" fill="#FFC400" rx="5"/>
      <animate attributeName="opacity" begin="6s" dur="2s" from="0" to="1"/>
    </g>
    
    <g data-narration="5. Storage: The final image is stored on a memory device.">
      <text x="50%" y="350%" font-size="18">Step 5: Storage</text>
      <rect x="50%" y="340%" width="100" height="20" fill="#3B5998" rx="5"/>
      <rect x="50%" y="340%" width="100" height="20" fill="#FFC400" rx="5"/>
      <animate attributeName="opacity" begin="8s" dur="2s" from="0" to="1"/>
    </g>
    
    <g data-narration="6. Display: The stored image is displayed on a screen.">
      <text x="50%" y="410%" font-size="18">Step 6: Display</text>
      <rect x="50%" y="400%" width="100" height="20" fill="#34A85A" rx="5"/>
      <rect x="50%" y="400%" width="100" height="20" fill="#FFC400" rx="5"/>
      <animate attributeName="opacity" begin="10s" dur="2s" from="0" to="1"/>
    </g>
    
    <g data-narration="7. Editing: The displayed image can be edited to create a new image.">
      <text x="50%" y="470%" font-size="18">Step 7: Editing</text>
      <rect x="50%" y="460%" width="100" height="20" fill="#3B5998" rx="5"/>
      <rect x="50%" y="460%" width="100" height="20" fill="#FFC400" rx="5"/>
      <animate attributeName="opacity" begin="12s" dur="2s" from="0" to="1"/>
    </g>
    
    <g data-narration="8. Sharing: The edited image can be shared with others.">
      <text x="50%" y="530%" font-size="18">Step 8: Sharing</text>
      <rect x="50%" y="520%" width="100" height="20" fill="#3B5998" rx="5"/>
      <rect x="50%" y="520%" width="100" height="20" fill="#FFC400" rx="5"/>
      <animate attributeName="opacity" begin="14s" dur="2s" from="0" to="1"/>
    </g>
  </g>
  
  <g transform="translate(20, 600)">
    <g data-narration="In a photometric image, each pixel value represents the amount of light that enters the camera at that specific location.">
      <text x="50%" y="70%" font-size="18">Pixel Value Represents Light</text>
      <rect x="50%" y="60%" width="100" height="20" fill="#3B5998" rx="5"/>
      <rect x="50%" y="60%" width="100" height="20" fill="#3B5998" rx="5"/>
    </g>
    
    <g data-narration="Photometric images are used to represent images that are captured using a camera, where the amount of light is the primary factor in determining the color and intensity of the image.">
      <text x="50%" y="120%" font-size="18">Photometric Images Represent Camera Captured Images</text>
      <rect x="50%" y="110%" width="100" height="20" fill="#34A85A" rx="5"/>
      <rect x="50%" y="110%" width="100" height="20" fill="#34A85A" rx="5"/>
    </g>
    
    <g data-narration="Photometric images are typically represented in a digital format, where each pixel value is a numerical representation of the amount of light that enters the camera.">
      <text x="50%" y="170%" font-size="18">Photometric Images are Digital</text>
      <rect x="50%" y="160%" width="100" height="20" fill="#3B5998" rx="5"/>
      <rect x="50%" y="160%" width="100" height="20" fill="#3B5998" rx="5"/>
    </g>
    
    <g data-narration="The formation of a photometric image occurs through the following steps: Light absorption, conversion to electrical signal, processing, output, storage, and display.">
      <text x="50%" y="230%" font-size="18">Image Formation Process</text>
      <rect x="50%" y="220%" width="100" height="20" fill="#3B5998" rx="5"/>
      <rect x="50%" y="220%" width="100" height="20" fill="#3B5998" rx="5"/>
    </g>
  </g>
  
  <g transform="translate(20, 640)">
    <g data-narration="1. Light absorption: Light enters the camera and is absorbed by the camera's sensor.">
      <text x="50%" y="70%" font-size="18">Step 1: Light Absorption</text>
      <rect x="50%" y="60%" width="100" height="20" fill="#3B5998" rx="5"/>
      <rect x="50%" y="60%" width="100" height="20" fill="#FFC400" rx="5"/>
      <animate attributeName="opacity" begin="0s" dur="2s" from="1" to="0"/>
    </g>
    
    <g data-narration="2. Conversion to electrical signal: The absorbed light is converted into an electrical signal.">
      <text x="50%" y="120%" font-size="18">Step 2: Conversion to Electrical Signal</text>
      <rect x="50%" y="110%" width="100" height="20" fill="#34A85A" rx="5"/>
      <rect x="50%" y="110%" width="100" height="20" fill="#FFC400" rx="5"/>
      <animate attributeName="opacity" begin="2s" dur="2s" from="0" to="1"/>
    </g>
    
    <g data-narration="3. Processing: The electrical signal is processed to create the final image.">
      <text x="50%" y="170%" font-size="18">Step 3: Processing</text>
      <rect x="50%" y="160%" width="100" height="20" fill="#3B5998" rx="5"/>
      <rect x="50%" y="160%" width="100" height="20" fill="#FFC400" rx="5"/>
      <animate attributeName="opacity" begin="4s" dur="2s" from="0" to="1"/>
    </g>
    
    <g data-narration="4. Output: The final image is displayed on the screen.">
      <text x="50%" y="230%" font-size="18">Step 4: Output</text>
      <rect x="50%" y="220%" width="100" height="20" fill="#34A85A" rx="5"/>
      <rect x="50%" y="220%" width="100" height="20" fill="#FFC400" rx="5"/>
      <animate attributeName="opacity" begin="6s" dur="2s" from="0" to="1"/>
    </g>
    
    <g data-narration="5. Storage: The final image is stored on a memory device.">
      <text x="50%" y="290%" font-size="18">Step 5: Storage</text>
      <rect x="50%" y="280%" width="100" height="20" fill="#3B5998" rx="5"/>
      <rect x="50%" y="280%" width="100" height="20" fill="#FFC400" rx="5"/>
      <animate attributeName="opacity" begin="8s" dur="2s" from="0" to="1"/>
    </g>
    
    <g data-narration="6. Display: The stored image is displayed on a screen.">
      <text x="50%" y="350%" font-size="18">Step 6: Display</text>
      <rect x="50%" y="340%" width="100" height="20" fill="#34A85A" rx="5"/>
      <rect x="50%" y="340%" width="100" height="20" fill="#FFC400" rx="5"/>
      <animate attributeName="opacity" begin="10s" dur="2s" from="0" to="1"/>
    </g>
    
    <g data-narration="7. Editing: The displayed image can be edited to create a new image.">
      <text x="50%" y="410%" font-size="18">Step 7: Editing</text>
      <rect x="50%" y="400%" width="100" height="20" fill="#3B5998" rx="5"/>
      <rect x="50%" y="400%" width="100" height="20" fill="#FFC400" rx="5"/>
      <animate attributeName="opacity" begin="12s" dur="2s" from="0" to="1"/>
    </g>
    
    <g data-narration="8. Sharing: The edited image can be shared with others.">
      <text x="50%" y="470%" font-size="18">Step 8: Sharing</text>
      <rect x="50%" y="460%" width="100" height="20" fill="#3B5998" rx="5"/>
      <rect x="50%" y="460%" width="100" height="20" fill="#FFC400" rx="5"/>
      <animate attributeName="opacity" begin="14s" dur="2s" from="0" to="1"/>
    </g>
  </g>
  
  <g transform="translate(20, 680)">
    <g data-narration="1. Light absorption: Light enters the camera and is absorbed by the camera's sensor.">
      <text x="50%" y="70%" font-size="18">Step 1: Light Absorption</text>
      <rect x="50%" y="60%" width="100" height="20" fill="#3B5998" rx="5"/>
      <rect x="50%" y="60%" width="100" height="20" fill="#3B5998" rx="5"/>
    </g>
    
    <g data-narration="2. Conversion to electrical signal: The absorbed light is converted into an electrical signal.">
      <text x="50%" y="120%" font-size="18">Step 2: Conversion to Electrical Signal</text>
      <rect x="50%" y="110%" width="100" height="20" fill="#34A85A" rx="5"/>
      <rect x="50%" y="110%" width="100" height="20" fill="#34A85A" rx="5"/>
    </g>
    
    <g data-narration="3. Processing: The electrical signal is processed to create the final image.">
      <text x="50%" y="170%" font-size="18">Step 3: Processing</text>
      <rect x="50%" y="160%" width="100" height="20" fill="#3B5998" rx="5"/>
      <rect x="50%" y="160%" width="100" height="20" fill="#3B5998" rx="5"/>
    </g>
    
    <g data-narration="4. Output: The final image is displayed on the screen.">
      <text x="50%" y="230%" font-size="18">Step 4: Output</text>
      <rect x="50%" y="220%" width="100" height="20" fill="#34A85A" rx="5"/>
      <rect x="50%" y="220%" width="100" height="20" fill="#34A85A" rx="5"/>
    </g>
    
    <g data-narration="5. Storage: The final image is stored on a memory device.">
      <text x="50%" y="290%" font-size="18">Step 5: Storage</text>
      <rect x="50%" y="280%" width="100" height="20" fill="#3B5998" rx="5"/>
      <rect x="50%" y="280%" width="100" height="20" fill="#3B5998" rx="5"/>
    </g>
    
    <g data-narration="6. Display: The stored image is displayed on a screen.">
      <text x="50%" y="350%" font-size="18">Step 6: Display</text>
      <rect x="50%" y="340%" width="100" height="20" fill="#34A85A" rx="5"/>
      <rect x="50%" y="340%" width="100" height="20" fill="#34A85A" rx="5"/>
    </g>
    
    <g data-narration="7. Editing: The displayed image can be edited to create a new image.">
      <text x="50%" y="410%" font-size="18">Step 7: Editing</text>
      <rect x="50%" y="400%" width="100" height="20" fill="#3B5998" rx="5"/>
      <rect x="50%" y="400%" width="100" height="20" fill="#3B5998" rx="5"/>
    </g>
    
    <g data-narration="8. Sharing: The edited image can be shared with others.">
      <text x="50%" y="470%" font-size="18">Step 8: Sharing</text>
      <rect x="50%" y="460%" width="100" height="20" fill="#3B5998" rx="5"/>
      <rect x="50%" y="460%" width="100" height="20" fill="#3B5998" rx="5"/>
    </g>
  </g>
</svg>