<svg viewBox="0 0 800 1900" xmlns="http://www.w3.org/2000/svg">
  <defs>
    <!-- Gradients -->
    <linearGradient id="titleGradient" x1="0%" y1="0%" x2="100%" y2="100%">
      <stop offset="0%" style="stop-color:#1565c0"/>
      <stop offset="100%" style="stop-color:#0d47a1"/>
    </linearGradient>
    <linearGradient id="blueGradient" x1="0%" y1="0%" x2="0%" y2="100%">
      <stop offset="0%" style="stop-color:#e3f2fd"/>
      <stop offset="100%" style="stop-color:#bbdefb"/>
    </linearGradient>
    <linearGradient id="greenGradient" x1="0%" y1="0%" x2="0%" y2="100%">
      <stop offset="0%" style="stop-color:#e8f5e9"/>
      <stop offset="100%" style="stop-color:#c8e6c9"/>
    </linearGradient>
    <linearGradient id="orangeGradient" x1="0%" y1="0%" x2="0%" y2="100%">
      <stop offset="0%" style="stop-color:#fff3e0"/>
      <stop offset="100%" style="stop-color:#ffe0b2"/>
    </linearGradient>
    <linearGradient id="redGradient" x1="0%" y1="0%" x2="0%" y2="100%">
      <stop offset="0%" style="stop-color:#ffebee"/>
      <stop offset="100%" style="stop-color:#ffcdd2"/>
    </linearGradient>
    <linearGradient id="purpleGradient" x1="0%" y1="0%" x2="0%" y2="100%">
      <stop offset="0%" style="stop-color:#f3e5f5"/>
      <stop offset="100%" style="stop-color:#e1bee7"/>
    </linearGradient>
    <linearGradient id="tealGradient" x1="0%" y1="0%" x2="0%" y2="100%">
      <stop offset="0%" style="stop-color:#e0f2f1"/>
      <stop offset="100%" style="stop-color:#b2dfdb"/>
    </linearGradient>
    
    <!-- Arrow marker -->
    <marker id="arrowhead" markerWidth="10" markerHeight="7" refX="9" refY="3.5" orient="auto">
      <polygon points="0 0, 10 3.5, 0 7" fill="#1976d2"/>
    </marker>
    <marker id="arrowGreen" markerWidth="10" markerHeight="7" refX="9" refY="3.5" orient="auto">
      <polygon points="0 0, 10 3.5, 0 7" fill="#388e3c"/>
    </marker>
    <marker id="arrowOrange" markerWidth="10" markerHeight="7" refX="9" refY="3.5" orient="auto">
      <polygon points="0 0, 10 3.5, 0 7" fill="#ff9800"/>
    </marker>
    
    <!-- Shadow filter -->
    <filter id="shadow" x="-20%" y="-20%" width="140%" height="140%">
      <feDropShadow dx="2" dy="2" stdDeviation="3" flood-opacity="0.2"/>
    </filter>
  </defs>
  
  <style>
    @keyframes fadeInSlide {
      from { opacity: 0; transform: translateY(20px); }
      to { opacity: 1; transform: translateY(0); }
    }
    @keyframes scaleIn {
      from { opacity: 0; transform: scale(0.85); }
      to { opacity: 1; transform: scale(1); }
    }
    @keyframes textReveal {
      from { opacity: 0; transform: translateX(-10px); }
      to { opacity: 1; transform: translateX(0); }
    }
    @keyframes pulse {
      0%, 100% { transform: scale(1); }
      50% { transform: scale(1.03); }
    }
    @keyframes drawLine {
      from { stroke-dashoffset: 500; }
      to { stroke-dashoffset: 0; }
    }
    @keyframes flowPulse {
      0%, 100% { opacity: 0.6; }
      50% { opacity: 1; }
    }
    
    .step { animation: fadeInSlide 0.6s ease-out; }
    .step rect {
      animation: scaleIn 0.5s cubic-bezier(0.34, 1.56, 0.64, 1);
      transform-origin: center;
    }
    .step text { animation: textReveal 0.4s ease-out 0.2s backwards; }
    
    .title-box { fill: url(#titleGradient); }
    .content-box { filter: url(#shadow); }
    .flow-line { stroke-dasharray: 500; animation: drawLine 1s ease-out forwards; }
    .pulse-anim { animation: pulse 2s ease-in-out infinite; }
    .flow-pulse { animation: flowPulse 1.5s ease-in-out infinite; }
  </style>

  <!-- Background -->
  <rect width="800" height="1900" fill="#f8f9fa"/>

  <!-- Step 0: Title -->
  <g class="step" id="step0" data-narration="Welcome to interrupts and interrupt handling. We will explore how CPUs respond to urgent events efficiently.">
    <rect x="50" y="10" width="700" height="50" rx="10" class="title-box"/>
    <text x="400" y="42" text-anchor="middle" font-size="22" font-weight="bold" fill="white">Interrupts and Interrupt Handling</text>
  </g>

  <!-- Step 1: Why Interrupts - Polling vs Interrupt -->
  <g class="step" id="step1" data-narration="Without interrupts, CPUs must poll devices continuously, wasting cycles. Interrupts let devices alert the CPU only when needed.">
    <rect x="40" y="70" width="720" height="90" rx="8" fill="url(#blueGradient)" class="content-box"/>
    <text x="60" y="92" font-size="12" font-weight="bold" fill="#1565c0">Why Interrupts?</text>
    
    <!-- Polling representation -->
    <rect x="60" y="105" width="280" height="45" rx="5" fill="#ffebee"/>
    <text x="200" y="122" text-anchor="middle" font-size="10" fill="#c62828">POLLING (Inefficient)</text>
    <text x="200" y="138" text-anchor="middle" font-size="9" fill="#c62828">CPU checks every device constantly</text>
    <text x="200" y="150" text-anchor="middle" font-size="8" fill="#c62828">Wastes CPU cycles!</text>
    
    <!-- Arrow -->
    <path d="M355 115 L390 115" stroke="#1976d2" stroke-width="2" marker-end="url(#arrowhead)"/>
    
    <!-- Interrupt representation -->
    <rect x="400" y="105" width="280" height="45" rx="5" fill="#e8f5e9"/>
    <text x="540" y="122" text-anchor="middle" font-size="10" fill="#2e7d32">INTERRUPT (Efficient)</text>
    <text x="540" y="138" text-anchor="middle" font-size="9" fill="#2e7d32">CPU notified only when needed</text>
    <text x="540" y="150" text-anchor="middle" font-size="8" fill="#2e7d32">CPU free for other tasks!</text>
  </g>

  <!-- Step 2: What is an Interrupt? -->
  <g class="step" id="step2" data-narration="An interrupt is a signal requiring immediate attention. The CPU suspends current work, saves state, and runs a handler routine.">
    <rect x="40" y="170" width="720" height="85" rx="8" fill="url(#greenGradient)" class="content-box"/>
    <text x="60" y="192" font-size="12" font-weight="bold" fill="#2e7d32">What is an Interrupt?</text>
    
    <rect x="60" y="205" width="320" height="40" rx="5" fill="#fff" stroke="#388e3c" stroke-width="1"/>
    <text x="220" y="222" text-anchor="middle" font-size="10" fill="#1b5e20">Definition</text>
    <text x="220" y="236" text-anchor="middle" font-size="9" fill="#1b5e20">Signal requiring immediate CPU attention</text>
    
    <rect x="395" y="205" width="320" height="40" rx="5" fill="#fff" stroke="#388e3c" stroke-width="1"/>
    <text x="555" y="222" text-anchor="middle" font-size="10" fill="#1b5e20">Handler</text>
    <text x="555" y="236" text-anchor="middle" font-size="9" fill="#1b5e20">Interrupt Service Routine (ISR)</text>
  </g>

  <!-- Step 3: Hardware Interrupts -->
  <g class="step" id="step3" data-narration="Hardware interrupts come from external devices like keyboards and network cards. They are asynchronous to program execution.">
    <rect x="40" y="265" width="720" height="90" rx="8" fill="url(#orangeGradient)" class="content-box"/>
    <text x="60" y="287" font-size="12" font-weight="bold" fill="#e65100">Type 1: Hardware Interrupts</text>
    
    <rect x="60" y="300" width="220" height="45" rx="5" fill="#fff"/>
    <text x="170" y="318" text-anchor="middle" font-size="10" fill="#e65100">Source</text>
    <text x="170" y="332" text-anchor="middle" font-size="9" fill="#bf360c">External hardware devices</text>
    <text x="170" y="343" text-anchor="middle" font-size="8" fill="#bf360c">(Keyboard, Mouse, Disk)</text>
    
    <rect x="295" y="300" width="220" height="45" rx="5" fill="#fff"/>
    <text x="405" y="318" text-anchor="middle" font-size="10" fill="#e65100">Timing</text>
    <text x="405" y="332" text-anchor="middle" font-size="9" fill="#bf360c">Asynchronous</text>
    <text x="405" y="343" text-anchor="middle" font-size="8" fill="#bf360c">(Not tied to program)</text>
    
    <rect x="530" y="300" width="200" height="45" rx="5" fill="#fff"/>
    <text x="630" y="318" text-anchor="middle" font-size="10" fill="#e65100">Signal</text>
    <text x="630" y="332" text-anchor="middle" font-size="9" fill="#bf360c">Via IRQ lines</text>
    <text x="630" y="343" text-anchor="middle" font-size="8" fill="#bf360c">(Interrupt Request)</text>
  </g>

  <!-- Step 4: Software Interrupts (Traps) -->
  <g class="step" id="step4" data-narration="Software interrupts are triggered by programs using special instructions like INT n. They request OS services like file operations.">
    <rect x="40" y="365" width="720" height="90" rx="8" fill="url(#purpleGradient)" class="content-box"/>
    <text x="60" y="387" font-size="12" font-weight="bold" fill="#6a1b9a">Type 2: Software Interrupts (Traps)</text>
    
    <rect x="60" y="400" width="220" height="45" rx="5" fill="#fff"/>
    <text x="170" y="418" text-anchor="middle" font-size="10" fill="#6a1b9a">Source</text>
    <text x="170" y="432" text-anchor="middle" font-size="9" fill="#4a148c">Executing program</text>
    <text x="170" y="443" text-anchor="middle" font-size="8" fill="#4a148c">(INT instruction)</text>
    
    <rect x="295" y="400" width="220" height="45" rx="5" fill="#fff"/>
    <text x="405" y="418" text-anchor="middle" font-size="10" fill="#6a1b9a">Timing</text>
    <text x="405" y="432" text-anchor="middle" font-size="9" fill="#4a148c">Synchronous</text>
    <text x="405" y="443" text-anchor="middle" font-size="8" fill="#4a148c">(Caused by program)</text>
    
    <rect x="530" y="400" width="200" height="45" rx="5" fill="#fff"/>
    <text x="630" y="418" text-anchor="middle" font-size="10" fill="#6a1b9a">Examples</text>
    <text x="630" y="432" text-anchor="middle" font-size="9" fill="#4a148c">System calls</text>
    <text x="630" y="443" text-anchor="middle" font-size="8" fill="#4a148c">(read, write, open)</text>
  </g>

  <!-- Step 5: Exceptions -->
  <g class="step" id="step5" data-narration="Exceptions are generated by the CPU when encountering errors like division by zero or page faults. They are synchronous to execution.">
    <rect x="40" y="465" width="720" height="90" rx="8" fill="url(#redGradient)" class="content-box"/>
    <text x="60" y="487" font-size="12" font-weight="bold" fill="#c62828">Type 3: Exceptions</text>
    
    <rect x="60" y="500" width="220" height="45" rx="5" fill="#fff"/>
    <text x="170" y="518" text-anchor="middle" font-size="10" fill="#c62828">Source</text>
    <text x="170" y="532" text-anchor="middle" font-size="9" fill="#b71c1c">CPU itself</text>
    <text x="170" y="543" text-anchor="middle" font-size="8" fill="#b71c1c">(Error conditions)</text>
    
    <rect x="295" y="500" width="220" height="45" rx="5" fill="#fff"/>
    <text x="405" y="518" text-anchor="middle" font-size="10" fill="#c62828">Timing</text>
    <text x="405" y="532" text-anchor="middle" font-size="9" fill="#b71c1c">Synchronous</text>
    <text x="405" y="543" text-anchor="middle" font-size="8" fill="#b71c1c">(During instruction)</text>
    
    <rect x="530" y="500" width="200" height="45" rx="5" fill="#fff"/>
    <text x="630" y="518" text-anchor="middle" font-size="10" fill="#c62828">Examples</text>
    <text x="630" y="532" text-anchor="middle" font-size="9" fill="#b71c1c">Page fault,</text>
    <text x="630" y="543" text-anchor="middle" font-size="8" fill="#b71c1c">Division by zero</text>
  </g>

  <!-- Step 6: Comparison Table -->
  <g class="step" id="step6" data-narration="Hardware interrupts are async from devices. Software interrupts are sync from programs. Exceptions are sync CPU-generated errors.">
    <rect x="40" y="565" width="720" height="110" rx="8" fill="url(#tealGradient)" class="content-box"/>
    <text x="60" y="587" font-size="12" font-weight="bold" fill="#00695c">Comparison: Types of Interrupts</text>
    
    <!-- Table header -->
    <rect x="60" y="595" width="150" height="20" rx="3" fill="#00695c"/>
    <rect x="210" y="595" width="180" height="20" rx="3" fill="#00695c"/>
    <rect x="390" y="595" width="180" height="20" rx="3" fill="#00695c"/>
    <rect x="570" y="595" width="170" height="20" rx="3" fill="#00695c"/>
    
    <text x="135" y="609" text-anchor="middle" font-size="9" fill="white" font-weight="bold">Source</text>
    <text x="300" y="609" text-anchor="middle" font-size="9" fill="white" font-weight="bold">Synchronicity</text>
    <text x="480" y="609" text-anchor="middle" font-size="9" fill="white" font-weight="bold">Purpose</text>
    <text x="655" y="609" text-anchor="middle" font-size="9" fill="white" font-weight="bold">Example</text>
    
    <!-- Row 1: Hardware -->
    <rect x="60" y="615" width="150" height="22" rx="3" fill="#fff"/>
    <text x="135" y="631" text-anchor="middle" font-size="8" fill="#00695c">Hardware Device</text>
    
    <rect x="210" y="615" width="180" height="22" rx="3" fill="#fff"/>
    <text x="300" y="631" text-anchor="middle" font-size="8" fill="#00695c">Asynchronous</text>
    
    <rect x="390" y="615" width="180" height="22" rx="3" fill="#fff"/>
    <text x="480" y="631" text-anchor="middle" font-size="8" fill="#00695c">Handle I/O Events</text>
    
    <rect x="570" y="615" width="170" height="22" rx="3" fill="#fff"/>
    <text x="655" y="631" text-anchor="middle" font-size="8" fill="#00695c">Key press</text>
    
    <!-- Row 2: Software -->
    <rect x="60" y="637" width="150" height="22" rx="3" fill="#fff"/>
    <text x="135" y="653" text-anchor="middle" font-size="8" fill="#00695c">Program (INT)</text>
    
    <rect x="210" y="637" width="180" height="22" rx="3" fill="#fff"/>
    <text x="300" y="653" text-anchor="middle" font-size="8" fill="#00695c">Synchronous</text>
    
    <rect x="390" y="637" width="180" height="22" rx="3" fill="#fff"/>
    <text x="480" y="653" text-anchor="middle" font-size="8" fill="#00695c">Request OS Services</text>
    
    <rect x="570" y="637" width="170" height="22" rx="3" fill="#fff"/>
    <text x="655" y="653" text-anchor="middle" font-size="8" fill="#00695c">System call</text>
    
    <!-- Row 3: Exception -->
    <rect x="60" y="659" width="150" height="22" rx="3" fill="#fff"/>
    <text x="135" y="675" text-anchor="middle" font-size="8" fill="#00695c">CPU (Error)</text>
    
    <rect x="210" y="659" width="180" height="22" rx="3" fill="#fff"/>
    <text x="300" y="675" text-anchor="middle" font-size="8" fill="#00695c">Synchronous</text>
    
    <rect x="390" y="659" width="180" height="22" rx="3" fill="#fff"/>
    <text x="480" y="675" text-anchor="middle" font-size="8" fill="#00695c">Signal Errors</text>
    
    <rect x="570" y="659" width="170" height="22" rx="3" fill="#fff"/>
    <text x="655" y="675" text-anchor="middle" font-size="8" fill="#00695c">Page fault</text>
  </g>

  <!-- Step 7: Interrupt Handling - Overview Flow -->
  <g class="step" id="step7" data-narration="The interrupt handling process has six steps: occurrence, CPU acknowledgement, state saving, finding the handler, executing it, and resuming.">
    <rect x="40" y="685" width="720" height="90" rx="8" fill="url(#blueGradient)" class="content-box"/>
    <text x="60" y="707" font-size="12" font-weight="bold" fill="#1565c0">Interrupt Handling Process</text>
    
    <!-- Flow steps -->
    <g class="flow-pulse">
      <rect x="60" y="720" width="100" height="45" rx="5" fill="#1976d2"/>
      <text x="110" y="738" text-anchor="middle" font-size="9" fill="white">1. Interrupt</text>
      <text x="110" y="750" text-anchor="middle" font-size="8" fill="white">Occurrence</text>
    </g>
    <path d="M165 742 L185 742" stroke="#1976d2" stroke-width="2" marker-end="url(#arrowhead)"/>
    
    <rect x="190" y="720" width="100" height="45" rx="5" fill="#1976d2"/>
    <text x="240" y="738" text-anchor="middle" font-size="9" fill="white">2. CPU</text>
    <text x="240" y="750" text-anchor="middle" font-size="8" fill="white">Acknowledge</text>
    <path d="M295 742 L315 742" stroke="#1976d2" stroke-width="2" marker-end="url(#arrowhead)"/>
    
    <rect x="320" y="720" width="100" height="45" rx="5" fill="#1976d2"/>
    <text x="370" y="738" text-anchor="middle" font-size="9" fill="white">3. Save</text>
    <text x="370" y="750" text-anchor="middle" font-size="8" fill="white">State (PC, PSW)</text>
    <path d="M425 742 L445 742" stroke="#1976d2" stroke-width="2" marker-end="url(#arrowhead)"/>
    
    <rect x="450" y="720" width="100" height="45" rx="5" fill="#1976d2"/>
    <text x="500" y="738" text-anchor="middle" font-size="9" fill="white">4. Get</text>
    <text x="500" y="750" text-anchor="middle" font-size="8" fill="white">Vector</text>
    <path d="M555 742 L575 742" stroke="#1976d2" stroke-width="2" marker-end="url(#arrowhead)"/>
    
    <rect x="580" y="720" width="80" height="45" rx="5" fill="#1976d2"/>
    <text x="620" y="738" text-anchor="middle" font-size="9" fill="white">5. Execute</text>
    <text x="620" y="750" text-anchor="middle" font-size="8" fill="white">ISR</text>
    <path d="M665 742 L685 742" stroke="#1976d2" stroke-width="2" marker-end="url(#arrowhead)"/>
    
    <rect x="690" y="720" width="60" height="45" rx="5" fill="#388e3c"/>
    <text x="720" y="738" text-anchor="middle" font-size="9" fill="white">6. RTI</text>
    <text x="720" y="750" text-anchor="middle" font-size="8" fill="white">Resume</text>
  </g>

  <!-- Step 8: State Saving - Context Preservation -->
  <g class="step" id="step8" data-narration="The CPU saves the Program Counter and Processor Status Word onto the stack to resume the interrupted program exactly where it left off.">
    <rect x="40" y="785" width="720" height="95" rx="8" fill="url(#greenGradient)" class="content-box"/>
    <text x="60" y="807" font-size="12" font-weight="bold" fill="#2e7d32">Step 3: State Saving (Context Preservation)</text>
    
    <!-- CPU representation -->
    <rect x="60" y="820" width="120" height="50" rx="5" fill="#1565c0"/>
    <text x="120" y="840" text-anchor="middle" font-size="10" fill="white">CPU</text>
    <text x="120" y="855" text-anchor="middle" font-size="8" fill="white">Current Program</text>
    
    <!-- Stack representation -->
    <rect x="250" y="820" width="200" height="50" rx="5" fill="#ff9800"/>
    <text x="350" y="840" text-anchor="middle" font-size="10" fill="white">STACK (Memory)</text>
    <text x="350" y="855" text-anchor="middle" font-size="8" fill="white">Context saved here</text>
    
    <!-- Arrow showing push -->
    <path d="M190 845 L240 845" stroke="#e65100" stroke-width="3" marker-end="url(#arrowOrange)" class="flow-line"/>
    
    <!-- What's saved -->
    <rect x="470" y="820" width="270" height="50" rx="5" fill="#fff" stroke="#2e7d32" stroke-width="2"/>
    <text x="605" y="838" text-anchor="middle" font-size="10" font-weight="bold" fill="#2e7d32">Saved Items:</text>
    <text x="605" y="855" text-anchor="middle" font-size="9" fill="#1b5e20">PC (Next Instruction) + PSW (Flags)</text>
  </g>

  <!-- Step 9: Interrupt Vector Table -->
  <g class="step" id="step9" data-narration="The Interrupt Vector Table maps interrupt numbers to handler addresses. The CPU uses the interrupt vector to find which ISR to execute.">
    <rect x="40" y="890" width="720" height="110" rx="8" fill="url(#purpleGradient)" class="content-box"/>
    <text x="60" y="912" font-size="12" font-weight="bold" fill="#6a1b9a">Step 4: Interrupt Vector Table (IVT)</text>
    
    <!-- Device -->
    <rect x="60" y="925" width="100" height="65" rx="5" fill="#e91e63"/>
    <text x="110" y="948" text-anchor="middle" font-size="10" fill="white">Keyboard</text>
    <text x="110" y="962" text-anchor="middle" font-size="8" fill="white">IRQ 1 → Vector 0x21</text>
    
    <path d="M165 958 L195 958" stroke="#e91e63" stroke-width="2" marker-end="url(#arrowhead)"/>
    
    <!-- IVT Table -->
    <rect x="200" y="925" width="250" height="65" rx="5" fill="#fff" stroke="#6a1b9a" stroke-width="2"/>
    <text x="325" y="942" text-anchor="middle" font-size="10" font-weight="bold" fill="#6a1b9a">Interrupt Vector Table</text>
    <text x="245" y="960" font-size="8" fill="#4a148c">0x00: ISR_0</text>
    <text x="325" y="960" font-size="8" fill="#6a1b9a">0x21: ISR_Keyboard ←</text>
    <text x="410" y="960" font-size="8" fill="#4a148c">0x22: ISR_...</text>
    
    <path d="M455 958 L485 958" stroke="#6a1b9a" stroke-width="2" marker-end="url(#arrowhead)"/>
    
    <!-- ISR -->
    <rect x="490" y="925" width="250" height="65" rx="5" fill="#7b1fa2"/>
    <text x="615" y="948" text-anchor="middle" font-size="10" fill="white">Interrupt Service Routine</text>
    <text x="615" y="962" text-anchor="middle" font-size="9" fill="white">Keyboard ISR - Read keycode</text>
  </g>

  <!-- Step 10: ISR Execution -->
  <g class="step" id="step10" data-narration="The ISR saves additional registers, services the device, sends End of Interrupt signal, restores registers, and executes RTI.">
    <rect x="40" y="1010" width="720" height="100" rx="8" fill="url(#orangeGradient)" class="content-box"/>
    <text x="60" y="1032" font-size="12" font-weight="bold" fill="#e65100">Step 5: Executing the ISR</text>
    
    <!-- ISR steps -->
    <rect x="60" y="1045" width="120" height="55" rx="5" fill="#fff"/>
    <text x="120" y="1062" text-anchor="middle" font-size="9" fill="#e65100">Save Registers</text>
    <text x="120" y="1078" text-anchor="middle" font-size="8" fill="#bf360c">PUSH used registers</text>
    <text x="120" y="2087" text-anchor="middle" font-size="7" fill="#bf360c">to stack</text>
    
    <path d="M185 1072 L205 1072" stroke="#e65100" stroke-width="2" marker-end="url(#arrowhead)"/>
    
    <rect x="210" y="1045" width="120" height="55" rx="5" fill="#fff"/>
    <text x="270" y="1062" text-anchor="middle" font-size="9" fill="#e65100">Service Device</text>
    <text x="270" y="1078" text-anchor="middle" font-size="8" fill="#bf360c">Read data from</text>
    <text x="270" y="2087" text-anchor="middle" font-size="7" fill="#bf360c">device registers</text>
    
    <path d="M335 1072 L355 1072" stroke="#e65100" stroke-width="2" marker-end="url(#arrowhead)"/>
    
    <rect x="360" y="1045" width="120" height="55" rx="5" fill="#fff"/>
    <text x="420" y="1062" text-anchor="middle" font-size="9" fill="#e65100">Send EOI</text>
    <text x="420" y="1078" text-anchor="middle" font-size="8" fill="#bf360c">End of Interrupt</text>
    <text x="420" y="2087" text-anchor="middle" font-size="7" fill="#bf360c">to PIC</text>
    
    <path d="M485 1072 L505 1072" stroke="#e65100" stroke-width="2" marker-end="url(#arrowhead)"/>
    
    <rect x="510" y="1045" width="120" height="55" rx="5" fill="#fff"/>
    <text x="570" y="1062" text-anchor="middle" font-size="9" fill="#e65100">Restore</text>
    <text x="570" y="1078" text-anchor="middle" font-size="8" fill="#bf360c">POP registers</text>
    <text x="570" y="2087" text-anchor="middle" font-size="7" fill="#bf360c">from stack</text>
    
    <path d="M635 1072 L655 1072" stroke="#e65100" stroke-width="2" marker-end="url(#arrowhead)"/>
    
    <rect x="660" y="1045" width="90" height="55" rx="5" fill="#388e3c"/>
    <text x="705" y="1062" text-anchor="middle" font-size="9" fill="white">RTI</text>
    <text x="705" y="1078" text-anchor="middle" font-size="8" fill="white">Return from</text>
    <text x="705" y="2087" text-anchor="middle" font-size="7" fill="white">Interrupt</text>
  </g>

  <!-- Step 11: State Restoration and Resumption -->
  <g class="step" id="step11" data-narration="The RTI instruction pops saved PC and PSW from the stack. The CPU resumes the interrupted program from exactly where it stopped.">
    <rect x="40" y="1120" width="720" height="95" rx="8" fill="url(#tealGradient)" class="content-box"/>
    <text x="60" y="1142" font-size="12" font-weight="bold" fill="#00695c">Step 6: State Restoration and Resumption</text>
    
    <!-- Stack -->
    <rect x="60" y="1155" width="200" height="50" rx="5" fill="#ff9800"/>
    <text x="160" y="1175" text-anchor="middle" font-size="10" fill="white">STACK</text>
    <text x="160" y="1190" text-anchor="middle" font-size="8" fill="white">PC &amp; PSW stored here</text>
    
    <!-- RTI arrow -->
    <path d="M270 1180 L310 1180" stroke="#00695c" stroke-width="3" marker-end="url(#arrowGreen)" class="flow-line"/>
    
    <!-- RTI instruction -->
    <rect x="320" y="1155" width="120" height="50" rx="5" fill="#00695c"/>
    <text x="380" y="1175" text-anchor="middle" font-size="10" fill="white">RTI Instruction</text>
    <text x="380" y="1190" text-anchor="middle" font-size="8" fill="white">Pop PC &amp; PSW</text>
    
    <!-- Resume -->
    <path d="M450 1180 L470 1180" stroke="#00695c" stroke-width="3" marker-end="url(#arrowGreen)" class="flow-line"/>
    
    <rect x="480" y="1155" width="270" height="50" rx="5" fill="#388e3c"/>
    <text x="615" y="1175" text-anchor="middle" font-size="10" fill="white">Program Resumes</text>
    <text x="615" y="1190" text-anchor="middle" font-size="8" fill="white">From exact point - transparent to user</text>
  </g>

  <!-- Step 12: Key Concepts - Masking, Priority, DMA -->
  <g class="step" id="step12" data-narration="Interrupt masking disables interrupts to protect critical code. Priority handles simultaneous interrupts. DMA reduces interrupt overhead by bulk transfers.">
    <rect x="40" y="1225" width="720" height="100" rx="8" fill="url(#blueGradient)" class="content-box"/>
    <text x="60" y="1247" font-size="12" font-weight="bold" fill="#1565c0">Key Concepts in Interrupt Handling</text>
    
    <!-- Masking -->
    <rect x="60" y="1260" width="220" height="55" rx="5" fill="#fff"/>
    <text x="170" y="1278" text-anchor="middle" font-size="10" font-weight="bold" fill="#1565c0">Interrupt Masking</text>
    <text x="170" y="1294" text-anchor="middle" font-size="8" fill="#0d47a1">IE flag controls maskable interrupts</text>
    <text x="170" y="1306" text-anchor="middle" font-size="7" fill="#0d47a1">NMI cannot be disabled</text>
    
    <!-- Priority -->
    <rect x="290" y="1260" width="220" height="55" rx="5" fill="#fff"/>
    <text x="400" y="1278" text-anchor="middle" font-size="10" font-weight="bold" fill="#1565c0">Priority &amp; Nesting</text>
    <text x="400" y="1294" text-anchor="middle" font-size="8" fill="#0d47a1">Hardware resolves conflicts</text>
    <text x="400" y="1306" text-anchor="middle" font-size="7" fill="#0d47a1">Higher priority can interrupt ISR</text>
    
    <!-- DMA -->
    <rect x="520" y="1260" width="220" height="55" rx="5" fill="#fff"/>
    <text x="630" y="1278" text-anchor="middle" font-size="10" font-weight="bold" fill="#1565c0">DMA &amp; Interrupts</text>
    <text x="630" y="1294" text-anchor="middle" font-size="8" fill="#0d47a1">One interrupt per block transfer</text>
    <text x="630" y="1306" text-anchor="middle" font-size="7" fill="#0d47a1">Reduces CPU interrupt load</text>
  </g>

  <!-- Step 13: DMA Flow -->
  <g class="step" id="step13" data-narration="DMA allows devices to transfer data directly to memory. The CPU initiates the transfer, then continues work while DMA handles the data movement.">
    <rect x="40" y="1335" width="720" height="90" rx="8" fill="url(#greenGradient)" class="content-box"/>
    <text x="60" y="1357" font-size="12" font-weight="bold" fill="#2e7d32">DMA Interaction with Interrupts</text>
    
    <!-- CPU initiates -->
    <rect x="60" y="1370" width="100" height="45" rx="5" fill="#1565c0"/>
    <text x="110" y="1388" text-anchor="middle" font-size="9" fill="white">CPU</text>
    <text x="110" y="1402" text-anchor="middle" font-size="8" fill="white">Init DMA</text>
    
    <path d="M165 1392 L195 1392" stroke="#388e3c" stroke-width="2" marker-end="url(#arrowGreen)"/>
    
    <!-- DMA Controller -->
    <rect x="200" y="1370" width="120" height="45" rx="5" fill="#7b1fa2"/>
    <text x="260" y="1388" text-anchor="middle" font-size="9" fill="white">DMA Controller</text>
    <text x="260" y="1402" text-anchor="middle" font-size="8" fill="white">Transfers data</text>
    
    <!-- Disk to RAM -->
    <path d="M320 1385 L380 1385" stroke="#7b1fa2" stroke-width="2" marker-end="url(#arrowhead)"/>
    <text x="350" y="1378" text-anchor="middle" font-size="7" fill="#4a148c">to RAM</text>
    
    <!-- Disk -->
    <rect x="385" y="1370" width="70" height="45" rx="5" fill="#607d8b"/>
    <text x="420" y="1388" text-anchor="middle" font-size="9" fill="white">Disk</text>
    <text x="420" y="1402" text-anchor="middle" font-size="8" fill="white">I/O</text>
    
    <!-- CPU continues -->
    <rect x="500" y="1370" width="120" height="45" rx="5" fill="#1565c0"/>
    <text x="560" y="1388" text-anchor="middle" font-size="9" fill="white">CPU continues</text>
    <text x="560" y="1402" text-anchor="middle" font-size="8" fill="white">other work</text>
    
    <!-- Final interrupt -->
    <path d="M625 1392 L645 1392" stroke="#388e3c" stroke-width="2" marker-end="url(#arrowGreen)"/>
    <rect x="650" y="1370" width="100" height="45" rx="5" fill="#c62828"/>
    <text x="700" y="1388" text-anchor="middle" font-size="9" fill="white">Interrupt!</text>
    <text x="700" y="1402" text-anchor="middle" font-size="8" fill="white">Transfer done</text>
  </g>

  <!-- Step 14: Summary -->
  <g class="step" id="step14" data-narration="In summary, interrupts enable efficient I/O by allowing devices to alert the CPU. Types include hardware, software, and exceptions with distinct characteristics.">
    <rect x="40" y="1435" width="720" height="100" rx="8" fill="url(#titleGradient)" class="content-box"/>
    <text x="400" y="1457" text-anchor="middle" font-size="14" font-weight="bold" fill="white">Summary: Key Takeaways</text>
    
    <text x="60" y="1480" font-size="10" fill="white">✓ Interrupts = Efficient CPU notification vs polling</text>
    <text x="60" y="1498" font-size="10" fill="white">✓ Three types: Hardware (async), Software/Trap (sync), Exceptions (CPU errors)</text>
    <text x="60" y="1516" font-size="10" fill="white">✓ 6-step process: Occur → Acknowledge → Save State → Get Vector → Execute ISR → RTI</text>
    <text x="60" y="1534" font-size="10" fill="white">✓ IVT maps vectors to ISR addresses for quick routing</text>
  </g>

  <!-- Step 15: Exam Tips -->
  <g class="step" id="step15" data-narration="For exams, memorize the interrupt handling sequence, understand IVT purpose, and know how DMA reduces interrupt overhead in I/O operations.">
    <rect x="40" y="1545" width="720" height="85" rx="8" fill="url(#orangeGradient)" class="content-box"/>
    <text x="60" y="1567" font-size="12" font-weight="bold" fill="#e65100">Exam Tips</text>
    
    <rect x="60" y="1580" width="220" height="40" rx="5" fill="#fff"/>
    <text x="170" y="1595" text-anchor="middle" font-size="9" fill="#e65100">Memorize Sequence</text>
    <text x="170" y="1608" text-anchor="middle" font-size="8" fill="#bf360c">6-step handling cycle</text>
    
    <rect x="290" y="1580" width="220" height="40" rx="5" fill="#fff"/>
    <text x="400" y="1595" text-anchor="middle" font-size="9" fill="#e65100">IVT Purpose</text>
    <text x="400" y="1608" text-anchor="middle" font-size="8" fill="#bf360c">Route to correct ISR</text>
    
    <rect x="520" y="1580" width="220" height="40" rx="5" fill="#fff"/>
    <text x="630" y="1595" text-anchor="middle" font-size="9" fill="#e65100">DMA Contrast</text>
    <text x="630" y="1608" text-anchor="middle" font-size="8" fill="#bf360c">One interrupt vs many</text>
  </g>

  <!-- Step 16: Learning Objectives -->
  <g class="step" id="step16" data-narration="You can now define interrupts, classify their types, describe the handling sequence, explain IVT, differentiate masking types, and analyze DMA interaction.">
    <rect x="40" y="1640" width="720" height="80" rx="8" fill="url(#tealGradient)" class="content-box"/>
    <text x="60" y="1662" font-size="12" font-weight="bold" fill="#00695c">Learning Objectives Achieved</text>
    
    <text x="60" y="1682" font-size="9" fill="#004d40">1. Define interrupt &amp; contrast with polling</text>
    <text x="60" y="1698" font-size="9" fill="#004d40">2. Classify: Hardware, Software, Exceptions</text>
    <text x="320" y="1682" font-size="9" fill="#004d40">3. Describe 6-step handling sequence</text>
    <text x="320" y="1698" font-size="9" fill="#004d40">4. Explain IVT &amp; vectored interrupts</text>
    <text x="580" y="1682" font-size="9" fill="#004d40">5. Differentiate maskable vs NMI</text>
    <text x="580" y="1698" font-size="9" fill="#004d40">6. Analyze DMA &amp; interrupt overhead</text>
  </g>

  <!-- Step 17: End Card -->
  <g class="step" id="step17" data-narration="Thank you for studying interrupts and interrupt handling. This fundamental concept is essential for understanding computer system architecture.">
    <rect x="200" y="1730" width="400" height="50" rx="10" fill="url(#titleGradient)"/>
    <text x="400" y="1760" text-anchor="middle" font-size="16" font-weight="bold" fill="white">End of Topic</text>
  </g>
</svg>