<svg
  width="420"
  height="400"
  viewBox="0 0 420 400"
  data-topic-id="boundary-preprocessing-boundary-following-chain-co"
  xmlns="http://www.w3.org/2000/svg"
  xmlns:xlink="http://www.w3.org/1999/xlink"
  style="background-image: linear-gradient(to bottom, #C7B8EA, #87CEEB)">
  <title>Boundary Preprocessing: Boundary Following and Chain Codes</title>
  <defs>
    <linearGradient id="pastel-gradient" x1="0%" y1="0%" x2="0%" y2="100%">
      <stop offset="0%" stop-color="#C7B8EA" stop-opacity="1"/>
      <stop offset="100%" stop-color="#87CEEB" stop-opacity="1"/>
    </linearGradient>
  </defs>
  <g>
    <rect fill="#87CEEB" width="100%" height="100px"/>
    <rect fill="#87CEEB" width="100%" height="100px"/>
    <rect fill="#87CEEB" width="100%" height="100px"/>
    <rect fill="#C7B8EA" width="100%" height="100px"/>
    <rect fill="#C7B8EA" width="100%" height="100px"/>
    <rect fill="#87CEEB" width="100%" height="100px"/>
    <path fill="#FFFFFF" stroke="#000000" stroke-width="1"
          d="M 10 10 L 20 20 L 30 30 L 40 20 L 50 10 L 60 0 L 70 0 L 80 10 L 90 20 L 100 30 L 110 40 L 120 50 L 130 60 L 140 70 L 150 80 L 160 90 L 170 100 L 180 110 L 190 120 L 200 130 L 210 140 L 220 150 L 230 160 L 240 170 L 250 180 L 260 190 L 270 200 L 280 210 L 290 220 L 300 230 L 310 240 L 320 250 L 330 260 L 340 270 L 350 280 L 360 290 L 370 300 L 380 310 L 390 320 L 400 330 Z"/>
    <text x="10" y="50" font-size="16" fill="#000000" data-narration="Boundary Preprocessing">
      <tspan>Boundary Preprocessing</tspan>
    </text>
    <text x="10" y="150" font-size="16" fill="#000000" data-narration="Boundary Preprocessing: Boundary Following">
      <tspan>Boundary Following</tspan>
    </text>
    <text x="10" y="250" font-size="16" fill="#000000" data-narration="Boundary Preprocessing: Chain Codes">
      <tspan>Chain Codes</tspan>
    </text>
    <path fill="#FFFFFF" stroke="#000000" stroke-width="1"
          d="M 200 20 L 210 30 L 220 40 L 230 50 L 240 60 L 250 70 L 260 80 L 270 90 L 280 100 L 290 110 L 300 120 L 310 130 L 320 140 L 330 150 L 340 160 L 350 170 L 360 180 L 370 190 L 380 200 L 390 210 L 400 220 Z"/>
    <text x="200" y="50" font-size="16" fill="#000000" data-narration="Chain Codes: Sequence of numbers representing boundary">
      <tspan>Chain Codes: Sequence of numbers representing boundary</tspan>
    </text>
    <path fill="#FFFFFF" stroke="#000000" stroke-width="1"
          d="M 10 200 L 20 210 L 30 220 L 40 230 L 50 240 L 60 250 L 70 260 L 80 270 L 90 280 L 100 290 L 110 300 L 120 310 L 130 320 L 140 330 L 150 340 L 160 350 L 170 360 L 180 370 L 190 380 L 200 390 L 210 400 L 220 410 L 230 420 L 240 430 L 250 440 L 260 450 L 270 460 L 280 470 L 290 480 L 300 490 L 310 500 L 320 510 L 330 520 L 340 530 L 350 540 L 360 550 L 370 560 L 380 570 L 390 580 L 400 590 Z"/>
    <text x="10" y="300" font-size="16" fill="#000000" data-narration="Chain Codes: Tracing boundary from seed point">
      <tspan>Chain Codes: Tracing boundary from seed point</tspan>
    </text>
    <animate attributeName="opacity" begin="0s" dur="2s" repeatCount="indefinite"/>
    <animate attributeName="x" begin="0s" dur="2s" repeatCount="indefinite"/>
    <animate attributeName="y" begin="0s" dur="2s" repeatCount="indefinite"/>
    <animate attributeName="fill" begin="2s" dur="2s" repeatCount="indefinite" from="#C7B8EA" to="#87CEEB"/>
    <animate attributeName="stroke" begin="2s" dur="2s" repeatCount="indefinite" from="#000000" to="#87CEEB"/>
    <animate attributeName="stroke-width" begin="2s" dur="2s" repeatCount="indefinite" from="1" to="5"/>
    <animate attributeName="fill" begin="4s" dur="2s" repeatCount="indefinite" from="#87CEEB" to="#C7B8EA"/>
    <animate attributeName="stroke" begin="4s" dur="2s" repeatCount="indefinite" from="#87CEEB" to="#000000"/>
    <animate attributeName="stroke-width" begin="4s" dur="2s" repeatCount="indefinite" from="5" to="1"/>
  </g>
  <rect x="10" y="350" width="400" height="50" fill="#F7F7F7"/>
  <text x="15" y="370" font-size="16" fill="#000000" data-narration="Footer">
    <tspan>Boundary Preprocessing: Boundary Following and Chain Codes</tspan>
  </text>
</svg>