<svg viewBox="0 0 800 1400" xmlns="http://www.w3.org/2000/svg">
<defs>
<linearGradient id="bgGrad" x1="0%" y1="0%" x2="0%" y2="100%">
<stop offset="0%" style="stop-color:#f8f9fa"/>
<stop offset="100%" style="stop-color:#e9ecef"/>
</linearGradient>
<linearGradient id="blueGrad" x1="0%" y1="0%" x2="100%" y2="100%">
<stop offset="0%" style="stop-color:#e3f2fd"/>
<stop offset="100%" style="stop-color:#bbdefb"/>
</linearGradient>
<linearGradient id="greenGrad" x1="0%" y1="0%" x2="100%" y2="100%">
<stop offset="0%" style="stop-color:#e8f5e9"/>
<stop offset="100%" style="stop-color:#c8e6c9"/>
</linearGradient>
<linearGradient id="orangeGrad" x1="0%" y1="0%" x2="100%" y2="100%">
<stop offset="0%" style="stop-color:#fff3e0"/>
<stop offset="100%" style="stop-color:#ffe0b2"/>
</linearGradient>
<linearGradient id="purpleGrad" x1="0%" y1="0%" x2="100%" y2="100%">
<stop offset="0%" style="stop-color:#f3e5f5"/>
<stop offset="100%" style="stop-color:#e1bee7"/>
</linearGradient>
<linearGradient id="redGrad" x1="0%" y1="0%" x2="100%" y2="100%">
<stop offset="0%" style="stop-color:#ffebee"/>
<stop offset="100%" style="stop-color:#ffcdd2"/>
</linearGradient>
<filter id="shadow" x="-20%" y="-20%" width="140%" height="140%">
<feDropShadow dx="2" dy="2" stdDeviation="3" flood-opacity="0.2"/>
</filter>
<marker id="arrowBlue" markerWidth="10" markerHeight="10" refX="9" refY="3" orient="auto">
<path d="M0,0 L0,6 L9,3 z" fill="#1976d2"/>
</marker>
<marker id="arrowGreen" markerWidth="10" markerHeight="10" refX="9" refY="3" orient="auto">
<path d="M0,0 L0,6 L9,3 z" fill="#388e3c"/>
</marker>
<marker id="arrowOrange" markerWidth="10" markerHeight="10" refX="9" refY="3" orient="auto">
<path d="M0,0 L0,6 L9,3 z" fill="#ff9800"/>
</marker>
<style>
@keyframes fadeInSlide {
from { opacity: 0; transform: translateY(20px); }
to { opacity: 1; transform: translateY(0); }
}
@keyframes scaleIn {
from { opacity: 0; transform: scale(0.85); }
to { opacity: 1; transform: scale(1); }
}
@keyframes textReveal {
from { opacity: 0; transform: translateX(-10px); }
to { opacity: 1; transform: translateX(0); }
}
@keyframes drawLine {
from { stroke-dashoffset: 300; }
to { stroke-dashoffset: 0; }
}
@keyframes pulse {
0%, 100% { transform: scale(1); }
50% { transform: scale(1.03); }
}
@keyframes slideInLeft {
from { opacity: 0; transform: translateX(-30px); }
to { opacity: 1; transform: translateX(0); }
}
@keyframes growHeight {
from { transform: scaleY(0); }
to { transform: scaleY(1); }
}
.step { animation: fadeInSlide 0.6s ease-out; }
.step > rect:first-child { animation: scaleIn 0.5s cubic-bezier(0.34, 1.56, 0.64, 1); transform-origin: center; }
.step text { animation: textReveal 0.4s ease-out 0.2s backwards; }
.line-anim { stroke-dasharray: 300; stroke-dashoffset: 300; animation: drawLine 1.5s ease-out forwards; }
</style>
</defs>
<rect x="0" y="0" width="800" height="1400" fill="#f8f9fa"/>

<!-- Title Section -->
<g class="step" id="step0" data-narration="Welcome to learning about interrupt assignment in 8051 microcontrollers. This topic is essential for embedded systems design.">
<rect x="10" y="10" width="780" height="50" rx="10" fill="#1976d2" filter="url(#shadow)"/>
<text x="400" y="42" text-anchor="middle" font-size="22" font-weight="bold" fill="white">Assigning Interrupts in 8051 Microcontroller</text>
</g>

<!-- Step 1: What is Interrupt? -->
<g class="step" id="step1" data-narration="An interrupt is an asynchronous signal that temporarily suspends the main program to handle a specific event or condition.">
<rect x="30" y="70" width="740" height="85" rx="10" fill="url(#blueGrad)" filter="url(#shadow)"/>
<text x="50" y="95" font-size="14" font-weight="bold" fill="#1976d2">What is an Interrupt?</text>
<text x="50" y="115" font-size="11" fill="#333">An asynchronous event that temporarily suspends main program execution</text>
<text x="50" y="132" font-size="11" fill="#333">to handle specific conditions like external signals or timer overflows.</text>
<rect x="580" y="85" width="150" height="55" rx="8" fill="#1976d2"/>
<text x="655" y="115" text-anchor="middle" font-size="13" font-weight="bold" fill="white">Interrupt</text>
<text x="655" y="132" text-anchor="middle" font-size="10" fill="white">Event-Driven</text>
</g>

<!-- Step 2: Polling vs Interrupt -->
<g class="step" id="step2" data-narration="Compare polling (continuously checking devices) with interrupt-driven approach (responding to events when they occur).">
<rect x="30" y="165" width="740" height="90" rx="10" fill="url(#greenGrad)" filter="url(#shadow)"/>
<text x="50" y="190" font-size="14" font-weight="bold" fill="#388e3c">Polling vs Interrupt-Driven</text>
<rect x="50" y="205" width="320" height="40" rx="8" fill="#388e3c" opacity="0.8"/>
<text x="210" y="225" text-anchor="middle" font-size="11" fill="white">POLLING (Inefficient)</text>
<text x="210" y="238" text-anchor="middle" font-size="9" fill="white">CPU constantly checks devices</text>
<rect x="390" y="205" width="320" height="40" rx="8" fill="#388e3c" opacity="0.8"/>
<text x="550" y="225" text-anchor="middle" font-size="11" fill="white">INTERRUPT (Efficient)</text>
<text x="550" y="238" text-anchor="middle" font-size="9" fill="white">CPU responds when called</text>
<path d="M170 255 L380 255" stroke="#666" stroke-width="2" marker-end="url(#arrowGreen)"/>
<text x="275" y="275" text-anchor="middle" font-size="10" fill="#666" font-style="italic">Better approach for real-time systems</text>
</g>

<!-- Step 3: Five Interrupt Sources -->
<g class="step" id="step3" data-narration="The 8051 has five interrupt sources: two external, two timer interrupts, and one serial port interrupt.">
<rect x="30" y="265" width="740" height="100" rx="10" fill="url(#orangeGrad)" filter="url(#shadow)"/>
<text x="50" y="290" font-size="14" font-weight="bold" fill="#ff9800">Five Interrupt Sources in 8051</text>
<rect x="50" y="305" width="130" height="50" rx="8" fill="#ff9800" opacity="0.7"/>
<text x="115" y="325" text-anchor="middle" font-size="10" fill="white" font-weight="bold">External</text>
<text x="115" y="340" text-anchor="middle" font-size="9" fill="white">INT0, INT1</text>
<rect x="190" y="305" width="130" height="50" rx="8" fill="#ff9800" opacity="0.7"/>
<text x="255" y="325" text-anchor="middle" font-size="10" fill="white" font-weight="bold">Timer</text>
<text x="255" y="340" text-anchor="middle" font-size="9" fill="white">TF0, TF1</text>
<rect x="330" y="305" width="130" height="50" rx="8" fill="#ff9800" opacity="0.7"/>
<text x="395" y="325" text-anchor="middle" font-size="10" fill="white" font-weight="bold">Serial Port</text>
<text x="395" y="340" text-anchor="middle" font-size="9" fill="white">RI/TI</text>
<text x="580" y="325" font-size="11" fill="#333">Priority Order:</text>
<text x="580" y="345" font-size="10" fill="#666">IE0 &gt; TF0 &gt; IE1 &gt; TF1 &gt; RI/TI</text>
</g>

<!-- Step 4: Vector Addresses -->
<g class="step" id="step4" data-narration="Each interrupt has a fixed vector address in program memory where the CPU jumps when the interrupt occurs.">
<rect x="30" y="375" width="740" height="95" rx="10" fill="url(#purpleGrad)" filter="url(#shadow)"/>
<text x="50" y="400" font-size="14" font-weight="bold" fill="#9c27b0">Interrupt Vector Addresses</text>
<rect x="50" y="415" width="180" height="45" rx="8" fill="#9c27b0" opacity="0.8"/>
<text x="140" y="435" text-anchor="middle" font-size="10" fill="white">IE0 (INT0)</text>
<text x="140" y="450" text-anchor="middle" font-size="9" fill="white">0003H</text>
<rect x="240" y="415" width="180" height="45" rx="8" fill="#9c27b0" opacity="0.8"/>
<text x="330" y="435" text-anchor="middle" font-size="10" fill="white">TF0 (TMR0)</text>
<text x="330" y="450" text-anchor="middle" font-size="9" fill="white">000BH</text>
<rect x="430" y="415" width="180" height="45" rx="8" fill="#9c27b0" opacity="0.8"/>
<text x="520" y="435" text-anchor="middle" font-size="10" fill="white">IE1 (INT1)</text>
<text x="520" y="450" text-anchor="middle" font-size="9" fill="white">0013H</text>
<rect x="620" y="415" width="140" height="45" rx="8" fill="#9c27b0" opacity="0.8"/>
<text x="690" y="435" text-anchor="middle" font-size="10" fill="white">TF1/RI+TI</text>
<text x="690" y="450" text-anchor="middle" font-size="9" fill="white">001BH/23H</text>
</g>

<!-- Step 5: IE Register -->
<g class="step" id="step5" data-narration="The IE register controls interrupt enabling. The EA bit must be 1 along with specific interrupt enable bits to activate interrupts.">
<rect x="30" y="480" width="740" height="105" rx="10" fill="url(#blueGrad)" filter="url(#shadow)"/>
<text x="50" y="505" font-size="14" font-weight="bold" fill="#1976d2">Interrupt Enable (IE) Register - Address A8H</text>
<rect x="50" y="520" width="450" height="55" rx="8" fill="#e3f2fd" stroke="#1976d2" stroke-width="1"/>
<text x="70" y="538" font-size="10" fill="#333">Bit:</text>
<text x="95" y="538" font-size="9" font-weight="bold" fill="#d32f2f">D7</text>
<text x="130" y="538" font-size="9" fill="#666">D6</text>
<text x="165" y="538" font-size="9" fill="#666">D5</text>
<text x="200" y="538" font-size="9" fill="#666">D4</text>
<text x="235" y="538" font-size="9" fill="#666">D3</text>
<text x="270" y="538" font-size="9" fill="#666">D2</text>
<text x="305" y="538" font-size="9" fill="#666">D1</text>
<text x="340" y="538" font-size="9" font-weight="bold" fill="#d32f2f">D0</text>
<text x="70" y="555" font-size="9" fill="#333">Symbol:</text>
<text x="110" y="555" font-size="9" font-weight="bold" fill="#1976d2">EA</text>
<text x="200" y="555" font-size="9" fill="#666">-</text>
<text x="235" y="555" font-size="9" fill="#666">-</text>
<text x="270" y="555" font-size="9" fill="#1976d2">ES</text>
<text x="305" y="555" font-size="9" fill="#1976d2">ET1</text>
<text x="340" y="555" font-size="9" fill="#1976d2">EX1</text>
<text x="375" y="555" font-size="9" fill="#1976d2">ET0</text>
<text x="410" y="555" font-size="9" fill="#1976d2">EX0</text>
<text x="520" y="535" font-size="10" fill="#333">Enable:</text>
<text x="520" y="555" font-size="9" fill="#333">EA = Global Enable (must be 1)</text>
<text x="520" y="570" font-size="9" fill="#333">ES = Serial, ET1/ET0 = Timers, EX1/EX0 = External</text>
</g>

<!-- Step 6: IP Register -->
<g class="step" id="step6" data-narration="The IP register assigns priority levels. Setting a bit to 1 gives high priority, 0 gives low priority to that interrupt.">
<rect x="30" y="595" width="740" height="100" rx="10" fill="url(#greenGrad)" filter="url(#shadow)"/>
<text x="50" y="620" font-size="14" font-weight="bold" fill="#388e3c">Interrupt Priority (IP) Register - Address B8H</text>
<rect x="50" y="635" width="400" height="50" rx="8" fill="#e8f5e9" stroke="#388e3c" stroke-width="1"/>
<text x="70" y="652" font-size="10" fill="#333">Bit:</text>
<text x="100" y="652" font-size="9" fill="#666">D7</text>
<text x="135" y="652" font-size="9" fill="#666">D6</text>
<text x="170" y="652" font-size="9" fill="#666">D5</text>
<text x="205" y="652" font-size="9" font-weight="bold" fill="#d32f2f">D4</text>
<text x="240" y="652" font-size="9" font-weight="bold" fill="#d32f2f">D3</text>
<text x="275" y="652" font-size="9" font-weight="bold" fill="#d32f2f">D2</text>
<text x="310" y="652" font-size="9" font-weight="bold" fill="#d32f2f">D1</text>
<text x="345" y="652" font-size="9" font-weight="bold" fill="#d32f2f">D0</text>
<text x="70" y="670" font-size="9" fill="#333">Symbol:</text>
<text x="115" y="670" font-size="9" fill="#666">-</text>
<text x="205" y="670" font-size="9" fill="#388e3c">PS</text>
<text x="240" y="670" font-size="9" fill="#388e3c">PT1</text>
<text x="275" y="670" font-size="9" fill="#388e3c">PX1</text>
<text x="310" y="670" font-size="9" fill="#388e3c">PT0</text>
<text x="345" y="670" font-size="9" fill="#388e3c">PX0</text>
<text x="470" y="655" font-size="10" fill="#333">Priority Control:</text>
<text x="470" y="675" font-size="9" fill="#333">1 = High Priority</text>
<text x="470" y="688" font-size="9" fill="#333">0 = Low Priority</text>
</g>

<!-- Step 7: TCON Register -->
<g class="step" id="step7" data-narration="The TCON register configures external interrupts as level-triggered or edge-triggered using IT0 and IT1 bits.">
<rect x="30" y="705" width="740" height="95" rx="10" fill="url(#orangeGrad)" filter="url(#shadow)"/>
<text x="50" y="730" font-size="14" font-weight="bold" fill="#ff9800">TCON Register - External Interrupt Type</text>
<rect x="50" y="745" width="340" height="45" rx="8" fill="#fff3e0" stroke="#ff9800" stroke-width="1"/>
<text x="70" y="762" font-size="10" fill="#333">IT0 (TCON.0):</text>
<text x="180" y="762" font-size="10" fill="#333">0 = Level-triggered</text>
<text x="320" y="762" font-size="10" fill="#333">1 = Edge-triggered</text>
<text x="70" y="778" font-size="10" fill="#333">IT1 (TCON.2):</text>
<text x="180" y="778" font-size="10" fill="#333">0 = Level-triggered</text>
<text x="320" y="778" font-size="10" fill="#333">1 = Edge-triggered</text>
<rect x="410" y="750" width="340" height="35" rx="8" fill="#ff9800" opacity="0.8"/>
<text x="580" y="770" text-anchor="middle" font-size="10" fill="white">Edge-triggered recommended</text>
<text x="580" y="782" text-anchor="middle" font-size="9" fill="white">Flag cleared automatically by hardware</text>
</g>

<!-- Step 8: ISR Basics -->
<g class="step" id="step8" data-narration="An ISR is a special function executed in response to an interrupt. In C, use the interrupt keyword and volatile for shared variables.">
<rect x="30" y="810" width="740" height="90" rx="10" fill="url(#redGrad)" filter="url(#shadow)"/>
<text x="50" y="835" font-size="14" font-weight="bold" fill="#f44336">Interrupt Service Routine (ISR)</text>
<rect x="50" y="850" width="320" height="40" rx="8" fill="#f44336" opacity="0.8"/>
<text x="210" y="868" text-anchor="middle" font-size="10" fill="white">C Language ISR Declaration</text>
<text x="210" y="882" text-anchor="middle" font-size="9" fill="white">void ext_int0(void) interrupt 0 { }</text>
<rect x="380" y="850" width="370" height="40" rx="8" fill="#f44336" opacity="0.8"/>
<text x="565" y="868" text-anchor="middle" font-size="10" fill="white">Key Points:</text>
<text x="565" y="882" text-anchor="middle" font-size="9" fill="white">Use volatile for shared vars • End with RETI • Keep it short</text>
</g>

<!-- Step 9: Processing Sequence -->
<g class="step" id="step9" data-narration="When an interrupt occurs: finish current instruction, push PC to stack, jump to vector address, execute ISR, then RETI.">
<rect x="30" y="910" width="740" height="95" rx="10" fill="url(#purpleGrad)" filter="url(#shadow)"/>
<text x="50" y="935" font-size="14" font-weight="bold" fill="#9c27b0">Interrupt Processing Sequence</text>
<rect x="50" y="950" width="115" height="45" rx="8" fill="#9c27b0" opacity="0.7"/>
<text x="107" y="967" text-anchor="middle" font-size="9" fill="white">1. Finish</text>
<text x="107" y="982" text-anchor="middle" font-size="8" fill="white">Instruction</text>
<rect x="175" y="950" width="115" height="45" rx="8" fill="#9c27b0" opacity="0.7"/>
<text x="232" y="967" text-anchor="middle" font-size="9" fill="white">2. Push PC</text>
<text x="232" y="982" text-anchor="middle" font-size="8" fill="white">to Stack</text>
<rect x="300" y="950" width="115" height="45" rx="8" fill="#9c27b0" opacity="0.7"/>
<text x="357" y="967" text-anchor="middle" font-size="9" fill="white">3. Clear</text>
<text x="357" y="982" text-anchor="middle" font-size="8" fill="white">Flag</text>
<rect x="425" y="950" width="115" height="45" rx="8" fill="#9c27b0" opacity="0.7"/>
<text x="482" y="967" text-anchor="middle" font-size="9" fill="white">4. Jump to</text>
<text x="482" y="982" text-anchor="middle" font-size="8" fill="white">Vector</text>
<rect x="550" y="950" width="115" height="45" rx="8" fill="#9c27b0" opacity="0.7"/>
<text x="607" y="967" text-anchor="middle" font-size="9" fill="white">5. Execute</text>
<text x="607" y="982" text-anchor="middle" font-size="8" fill="white">ISR</text>
<rect x="675" y="950" width="75" height="45" rx="8" fill="#9c27b0" opacity="0.7"/>
<text x="712" y="967" text-anchor="middle" font-size="9" fill="white">6. RETI</text>
<text x="712" y="982" text-anchor="middle" font-size="8" fill="white">Return</text>
</g>

<!-- Step 10: Example Code -->
<g class="step" id="step10" data-narration="This example enables external interrupt 0 as edge-triggered and configures the IE register to enable global and EX0 interrupts.">
<rect x="30" y="1015" width="740" height="90" rx="10" fill="url(#blueGrad)" filter="url(#shadow)"/>
<text x="50" y="1040" font-size="14" font-weight="bold" fill="#1976d2">Example 1: Enable External Interrupt 0</text>
<rect x="50" y="1055" width="360" height="40" rx="8" fill="#1565c0" opacity="0.9"/>
<text x="230" y="1073" text-anchor="middle" font-size="10" fill="white">// Edge-triggered: TCON |= 0x01;</text>
<text x="230" y="1088" text-anchor="middle" font-size="10" fill="white">// Enable: IE = 0x81; // 10000001B</text>
<rect x="420" y="1055" width="340" height="40" rx="8" fill="#1976d2" opacity="0.8"/>
<text x="590" y="1073" text-anchor="middle" font-size="10" fill="white">// ISR for INT0</text>
<text x="590" y="1088" text-anchor="middle" font-size="10" fill="white">void ext_int0(void) interrupt 0 { }</text>
</g>

<!-- Step 11: Timer Calculation -->
<g class="step" id="step11" data-narration="For timer interrupts, calculate initial value: Initial equals 65536 minus delay divided by machine cycle.">
<rect x="30" y="1115" width="740" height="95" rx="10" fill="url(#greenGrad)" filter="url(#shadow)"/>
<text x="50" y="1140" font-size="14" font-weight="bold" fill="#388e3c">Timer Interrupt Calculation</text>
<rect x="50" y="1155" width="300" height="45" rx="8" fill="#388e3c" opacity="0.8"/>
<text x="200" y="1175" text-anchor="middle" font-size="11" fill="white">Formula:</text>
<text x="200" y="1190" text-anchor="middle" font-size="10" fill="white">Initial = 65536 - (Delay / T)</text>
<rect x="360" y="1155" width="220" height="45" rx="8" fill="#388e3c" opacity="0.8"/>
<text x="470" y="1175" text-anchor="middle" font-size="10" fill="white">12MHz Crystal:</text>
<text x="470" y="1190" text-anchor="middle" font-size="10" fill="white">Machine Cycle = 1us</text>
<rect x="590" y="1155" width="170" height="45" rx="8" fill="#388e3c" opacity="0.8"/>
<text x="675" y="1175" text-anchor="middle" font-size="10" fill="white">10ms delay:</text>
<text x="675" y="1190" text-anchor="middle" font-size="10" fill="white">65536 - 10000 = D8F0H</text>
</g>

<!-- Step 12: Key Formulas -->
<g class="step" id="step12" data-narration="Remember key formulas: IE needs EA plus specific bit, timer value calculation, machine cycle formula, and vector addresses.">
<rect x="30" y="1220" width="740" height="85" rx="10" fill="url(#orangeGrad)" filter="url(#shadow)"/>
<text x="50" y="1245" font-size="14" font-weight="bold" fill="#ff9800">Key Formulas Summary</text>
<rect x="50" y="1260" width="170" height="35" rx="6" fill="#ff9800" opacity="0.7"/>
<text x="135" y="1278" text-anchor="middle" font-size="9" fill="white">Machine Cycle</text>
<text x="135" y="1290" text-anchor="middle" font-size="8" fill="white">12 / Crystal (Hz)</text>
<rect x="230" y="1260" width="170" height="35" rx="6" fill="#ff9800" opacity="0.7"/>
<text x="315" y="1278" text-anchor="middle" font-size="9" fill="white">Timer Value</text>
<text x="315" y="1290" text-anchor="middle" font-size="8" fill="white">65536 - Delay/us</text>
<rect x="410" y="1260" width="170" height="35" rx="6" fill="#ff9800" opacity="0.7"/>
<text x="495" y="1278" text-anchor="middle" font-size="9" fill="white">IE Enable</text>
<text x="495" y="1290" text-anchor="middle" font-size="8" fill="white">EA=1 + Specific=1</text>
<rect x="590" y="1260" width="170" height="35" rx="6" fill="#ff9800" opacity="0.7"/>
<text x="675" y="1278" text-anchor="middle" font-size="9" fill="white">Vector Order</text>
<text x="675" y="1290" text-anchor="middle" font-size="8" fill="white">IE0&gt;TF0&gt;IE1&gt;TF1&gt;RI/TI</text>
</g>

<!-- Step 13: Common Mistakes -->
<g class="step" id="step13" data-narration="Avoid common mistakes: forgetting EA bit, not reloading timer, using wrong return instruction, and level-triggered interrupt flag clearing.">
<rect x="30" y="1315" width="740" height="75" rx="10" fill="url(#redGrad)" filter="url(#shadow)"/>
<text x="50" y="1340" font-size="14" font-weight="bold" fill="#f44336">Common Mistakes to Avoid</text>
<rect x="50" y="1355" width="220" height="25" rx="6" fill="#f44336" opacity="0.7"/>
<text x="160" y="1371" text-anchor="middle" font-size="9" fill="white">X Forgetting EA bit in IE</text>
<rect x="280" y="1355" width="220" height="25" rx="6" fill="#f44336" opacity="0.7"/>
<text x="390" y="1371" text-anchor="middle" font-size="9" fill="white">X Not reloading timer in ISR</text>
<rect x="510" y="1355" width="220" height="25" rx="6" fill="#f44336" opacity="0.7"/>
<text x="620" y="1371" text-anchor="middle" font-size="9" fill="white">X Using RETURN instead of RETI</text>
</g>
</svg>