<svg viewBox="0 0 800 1700" xmlns="http://www.w3.org/2000/svg">
  <defs>
    <!-- Gradients -->
    <linearGradient id="blueGrad" x1="0%" y1="0%" x2="100%" y2="100%">
      <stop offset="0%" stop-color="#e3f2fd"/>
      <stop offset="100%" stop-color="#1976d2"/>
    </linearGradient>
    <linearGradient id="greenGrad" x1="0%" y1="0%" x2="100%" y2="100%">
      <stop offset="0%" stop-color="#e8f5e9"/>
      <stop offset="100%" stop-color="#388e3c"/>
    </linearGradient>
    <linearGradient id="orangeGrad" x1="0%" y1="0%" x2="100%" y2="100%">
      <stop offset="0%" stop-color="#fff3e0"/>
      <stop offset="100%" stop-color="#ff9800"/>
    </linearGradient>
    <linearGradient id="purpleGrad" x1="0%" y1="0%" x2="100%" y2="100%">
      <stop offset="0%" stop-color="#f3e5f5"/>
      <stop offset="100%" stop-color="#9c27b0"/>
    </linearGradient>
    <linearGradient id="redGrad" x1="0%" y1="0%" x2="100%" y2="100%">
      <stop offset="0%" stop-color="#ffebee"/>
      <stop offset="100%" stop-color="#f44336"/>
    </linearGradient>
    <linearGradient id="tealGrad" x1="0%" y1="0%" x2="100%" y2="100%">
      <stop offset="0%" stop-color="#e0f2f1"/>
      <stop offset="100%" stop-color="#00796b"/>
    </linearGradient>
    
    <!-- Arrow marker -->
    <marker id="arrow" markerWidth="10" markerHeight="10" refX="9" refY="3" orient="auto">
      <path d="M0,0 L0,6 L9,3 z" fill="#1976d2"/>
    </marker>
    
    <!-- Shadow filter -->
    <filter id="shadow" x="-20%" y="-20%" width="140%" height="140%">
      <feDropShadow dx="2" dy="2" stdDeviation="3" flood-opacity="0.2"/>
    </filter>
  </defs>
  
  <style>
    @keyframes fadeInSlide {
      from { opacity: 0; transform: translateY(20px); }
      to { opacity: 1; transform: translateY(0); }
    }
    @keyframes scaleIn {
      from { opacity: 0; transform: scale(0.85); }
      to { opacity: 1; transform: scale(1); }
    }
    @keyframes textReveal {
      from { opacity: 0; transform: translateX(-10px); }
      to { opacity: 1; transform: translateX(0); }
    }
    @keyframes pulse {
      0%, 100% { transform: scale(1); }
      50% { transform: scale(1.03); }
    }
    @keyframes drawLine {
      from { stroke-dashoffset: 300; }
      to { stroke-dashoffset: 0; }
    }
    @keyframes growBar {
      from { transform: scaleX(0); }
      to { transform: scaleX(1); }
    }
    .step { animation: fadeInSlide 0.6s ease-out; }
    .step rect {
      animation: scaleIn 0.5s cubic-bezier(0.34, 1.56, 0.64, 1);
      transform-origin: center;
    }
    .step text { animation: textReveal 0.4s ease-out 0.2s backwards; }
    .formula { font-family: 'Courier New', monospace; }
    .title-text { font-size: 22px; font-weight: bold; }
    .subtitle-text { font-size: 14px; }
    .body-text { font-size: 11px; }
    .label-text { font-size: 10px; }
    .highlight { fill: #ff9800; }
    .draw-line {
      stroke-dasharray: 300;
      animation: drawLine 1.5s ease-out forwards;
    }
    .grow-bar {
      transform-origin: left;
      animation: growBar 0.8s ease-out forwards;
    }
  </style>
  
  <!-- Background -->
  <rect width="800" height="1700" fill="#f8f9fa"/>
  
  <!-- ==================== STEP 0: Title ==================== -->
  <g class="step" id="step0" data-narration="Welcome to Queues Using Dynamic Arrays. We'll explore how queues can grow automatically to handle unbounded data.">
    <rect x="50" y="10" width="700" height="45" rx="10" fill="url(#blueGrad)" filter="url(#shadow)"/>
    <text x="400" y="42" text-anchor="middle" class="title-text" fill="#1565c0">Queues Using Dynamic Arrays</text>
    <text x="400" y="62" text-anchor="middle" class="subtitle-text" fill="#1976d2">FIFO with Unbounded Capacity</text>
  </g>
  
  <!-- ==================== STEP 1: What is a Queue ==================== -->
  <g class="step" id="step1" data-narration="A queue is a First-In-First-Out structure. Elements enter at the rear and leave from the front, like a line at a store.">
    <rect x="50" y="70" width="700" height="85" rx="8" fill="white" stroke="#e3f2fd" stroke-width="2"/>
    <text x="70" y="95" class="title-text" fill="#1976d2">What is a Queue?</text>
    <text x="70" y="115" class="body-text" fill="#333">FIFO: First In, First Out</text>
    
    <!-- Visual queue representation -->
    <rect x="250" y="95" width="45" height="35" rx="4" fill="#e3f2fd" stroke="#1976d2"/>
    <text x="272" y="117" text-anchor="middle" font-size="12" fill="#1976d2">A</text>
    <rect x="300" y="95" width="45" height="35" rx="4" fill="#e3f2fd" stroke="#1976d2"/>
    <text x="322" y="117" text-anchor="middle" font-size="12" fill="#1976d2">B</text>
    <rect x="350" y="95" width="45" height="35" rx="4" fill="#e3f2fd" stroke="#1976d2"/>
    <text x="372" y="117" text-anchor="middle" font-size="12" fill="#1976d2">C</text>
    <rect x="400" y="95" width="45" height="35" rx="4" fill="#bbdefb" stroke="#1565c0"/>
    <text x="422" y="117" text-anchor="middle" font-size="12" fill="#1565c0" font-weight="bold">D</text>
    <rect x="450" y="95" width="45" height="35" rx="4" fill="#e3f2fd" stroke="#1976d2"/>
    <text x="472" y="117" text-anchor="middle" font-size="12" fill="#1976d2">E</text>
    
    <!-- Arrows -->
    <path d="M245 112 L195 112" stroke="#388e3c" stroke-width="2" marker-end="url(#arrow)"/>
    <text x="180" y="116" class="label-text" fill="#388e3c">enqueue</text>
    <path d="M500 112 L550 112" stroke="#f44336" stroke-width="2" marker-end="url(#arrow)"/>
    <text x="560" y="116" class="label-text" fill="#f44336">dequeue</text>
    
    <text x="70" y="140" class="body-text" fill="#666">Elements added at rear, removed from front</text>
  </g>
  
  <!-- ==================== STEP 2: Limitations of Fixed-Size ==================== -->
  <g class="step" id="step2" data-narration="Fixed-size queues have three key problems: overflow when full, wasted space in linear queues, and fixed capacity chosen at compile time.">
    <rect x="50" y="165" width="700" height="85" rx="8" fill="white" stroke="#ffebee" stroke-width="2"/>
    <text x="70" y="190" class="title-text" fill="#c62828">Limitations of Fixed-Size Queues</text>
    
    <rect x="70" y="205" width="200" height="35" rx="6" fill="#ffebee"/>
    <text x="170" y="220" text-anchor="middle" class="body-text" fill="#c62828">⚠ Overflow</text>
    <text x="170" y="232" text-anchor="middle" class="label-text" fill="#666">Cannot add when full</text>
    
    <rect x="280" y="205" width="200" height="35" rx="6" fill="#fff3e0"/>
    <text x="380" y="220" text-anchor="middle" class="body-text" fill="#e65100">⚡ Wasted Space</text>
    <text x="380" y="232" text-anchor="middle" class="label-text" fill="#666">Unused slots cannot be reclaimed</text>
    
    <rect x="490" y="205" width="200" height="35" rx="6" fill="#e3f2fd"/>
    <text x="590" y="220" text-anchor="middle" class="body-text" fill="#1565c0">📊 Fixed Capacity</text>
    <text x="590" y="232" text-anchor="middle" class="label-text" fill="#666">Must guess maximum size</text>
  </g>
  
  <!-- ==================== STEP 3: Circular Queue Concept ==================== -->
  <g class="step" id="step3" data-narration="A circular queue wraps around like a ring, reusing empty slots. The array indices connect from end back to beginning.">
    <rect x="50" y="260" width="700" height="85" rx="8" fill="white" stroke="#e8f5e9" stroke-width="2"/>
    <text x="70" y="285" class="title-text" fill="#2e7d32">Circular Queue: Wrap-Around</text>
    
    <!-- Circular array visualization -->
    <ellipse cx="400" cy="315" rx="100" ry="40" fill="none" stroke="#388e3c" stroke-width="2"/>
    
    <!-- Array cells around ellipse -->
    <rect x="300" y="305" width="35" height="25" rx="3" fill="#e8f5e9" stroke="#388e3c"/>
    <text x="317" y="322" text-anchor="middle" font-size="10" fill="#2e7d32">20</text>
    <rect x="340" y="325" width="35" height="25" rx="3" fill="#e8f5e9" stroke="#388e3c"/>
    <text x="357" y="342" text-anchor="middle" font-size="10" fill="#2e7d32">30</text>
    <rect x="380" y="340" width="35" height="25" rx="3" fill="#c8e6c9" stroke="#388e3c"/>
    <text x="397" y="357" text-anchor="middle" font-size="10" fill="#2e7d32" font-weight="bold">40</text>
    <rect x="420" y="325" width="35" height="25" rx="3" fill="#e8f5e9" stroke="#388e3c"/>
    <text x="437" y="342" text-anchor="middle" font-size="10" fill="#2e7d32">50</text>
    <rect x="460" y="305" width="35" height="25" rx="3" fill="#e8f5e9" stroke="#388e3c"/>
    <text x="477" y="322" text-anchor="middle" font-size="10" fill="#2e7d32">60</text>
    
    <!-- Front and Rear markers -->
    <path d="M380 295 L380 305" stroke="#f44336" stroke-width="2"/>
    <text x="380" y="288" text-anchor="middle" class="label-text" fill="#f44336">front</text>
    <path d="M455 295 L455 305" stroke="#ff9800" stroke-width="2"/>
    <text x="455" y="288" text-anchor="middle" class="label-text" fill="#ff9800">rear</text>
    
    <text x="600" y="330" class="body-text" fill="#333">Elements wrap around</text>
    <text x="600" y="345" class="body-text" fill="#333">from index 7 back to 0</text>
  </g>
  
  <!-- ==================== STEP 4: Key Formulas ==================== -->
  <g class="step" id="step4" data-narration="The circular indexing formula is: next position equals current index plus one, modulo capacity. This handles wrap-around automatically.">
    <rect x="50" y="355" width="700" height="85" rx="8" fill="url(#tealGrad)" filter="url(#shadow)"/>
    <text x="70" y="380" class="title-text" fill="#00695c">Key Circular Queue Formulas</text>
    
    <!-- Formula boxes -->
    <rect x="70" y="395" width="150" height="35" rx="6" fill="white"/>
    <text x="145" y="412" text-anchor="middle" class="formula" fill="#00695c">next = (i+1) % cap</text>
    <text x="145" y="426" text-anchor="middle" class="label-text" fill="#666">Next position</text>
    
    <rect x="230" y="395" width="150" height="35" rx="6" fill="white"/>
    <text x="305" y="412" text-anchor="middle" class="formula" fill="#00695c">size = (r-f+cap) % cap</text>
    <text x="305" y="426" text-anchor="middle" class="label-text" fill="#666">Queue size</text>
    
    <rect x="390" y="395" width="190" height="35" rx="6" fill="white"/>
    <text x="485" y="412" text-anchor="middle" class="formula" fill="#00695c">(rear+1) % cap == front</text>
    <text x="485" y="426" text-anchor="middle" class="label-text" fill="#666">Full condition</text>
    
    <rect x="590" y="395" width="150" height="35" rx="6" fill="white"/>
    <text x="665" y="412" text-anchor="middle" class="formula" fill="#00695c">front == rear</text>
    <text x="665" y="426" text-anchor="middle" class="label-text" fill="#666">Empty condition</text>
  </g>
  
  <!-- ==================== STEP 5: Structure Definition ==================== -->
  <g class="step" id="step5" data-narration="The DynamicQueue structure has five fields: data pointer, front index, rear index, capacity, and size. The size field avoids wasting one slot.">
    <rect x="50" y="450" width="700" height="85" rx="8" fill="white" stroke="#f3e5f5" stroke-width="2"/>
    <text x="70" y="475" class="title-text" fill="#7b1fa2">Dynamic Queue Structure</text>
    
    <rect x="70" y="490" width="660" height="35" rx="6" fill="#f3e5f5"/>
    <text x="400" y="512" text-anchor="middle" class="formula" fill="#7b1fa2" font-size="12">typedef struct { int *data; int front; int rear; int capacity; int size; } DynamicQueue;</text>
    
    <!-- Visual representation -->
    <rect x="100" y="535" width="80" height="30" rx="4" fill="#e1bee7"/>
    <text x="140" y="555" text-anchor="middle" class="label-text" fill="#7b1fa2">data*</text>
    <rect x="190" y="535" width="70" height="30" rx="4" fill="#e1bee7"/>
    <text x="225" y="555" text-anchor="middle" class="label-text" fill="#7b1fa2">front</text>
    <rect x="270" y="535" width="70" height="30" rx="4" fill="#e1bee7"/>
    <text x="305" y="555" text-anchor="middle" class="label-text" fill="#7b1fa2">rear</text>
    <rect x="350" y="535" width="90" height="30" rx="4" fill="#e1bee7"/>
    <text x="395" y="555" text-anchor="middle" class="label-text" fill="#7b1fa2">capacity</text>
    <rect x="450" y="535" width="70" height="30" rx="4" fill="#e1bee7"/>
    <text x="485" y="555" text-anchor="middle" class="label-text" fill="#7b1fa2">size</text>
    
    <text x="560" y="555" class="label-text" fill="#666">size field avoids</text>
    <text x="560" y="568" class="label-text" fill="#666">wasting a slot!</text>
  </g>
  
  <!-- ==================== STEP 6: Create Queue ==================== -->
  <g class="step" id="step6" data-narration="The createQueue function allocates memory for the queue structure and its internal array, then initializes all fields to zero.">
    <rect x="50" y="545" width="700" height="85" rx="8" fill="white" stroke="#e3f2fd" stroke-width="2"/>
    <text x="70" y="570" class="title-text" fill="#1976d2">Creating the Queue</text>
    
    <rect x="70" y="585" width="320" height="35" rx="6" fill="#e3f2fd"/>
    <text x="230" y="607" text-anchor="middle" class="formula" fill="#1565c0" font-size="11">DynamicQueue* createQueue(int cap) {</text>
    
    <rect x="90" y="625" width="280" height="35" rx="6" fill="#e3f2fd"/>
    <text x="230" y="647" text-anchor="middle" class="formula" fill="#1565c0" font-size="10">q = malloc(sizeof(DynamicQueue));</text>
    
    <rect x="380" y="585" width="360" height="35" rx="6" fill="#e8f5e9"/>
    <text x="560" y="607" text-anchor="middle" class="formula" fill="#2e7d32" font-size="11">q->data = malloc(cap * sizeof(int));</text>
    
    <rect x="400" y="625" width="340" height="35" rx="6" fill="#e8f5e9"/>
    <text x="570" y="647" text-anchor="middle" class="formula" fill="#2e7d32" font-size="10">front=0; rear=0; size=0; capacity=cap;</text>
  </g>
  
  <!-- ==================== STEP 7: Resizing Strategy ==================== -->
  <g class="step" id="step7" data-narration="When the queue is full, resizeQueue doubles the capacity. Elements are copied in logical order from front to rear into the new linear array.">
    <rect x="50" y="640" width="700" height="85" rx="8" fill="url(#orangeGrad)" filter="url(#shadow)"/>
    <text x="70" y="665" class="title-text" fill="#e65100">Resizing: Doubling Strategy</text>
    
    <!-- Before state -->
    <text x="70" y="685" class="body-text" fill="#333">Before (capacity 4):</text>
    <rect x="180" y="670" width="30" height="25" rx="3" fill="#ffcc80"/>
    <text x="195" y="687" text-anchor="middle" font-size="9" fill="#e65100">20</text>
    <rect x="215" y="670" width="30" height="25" rx="3" fill="#ffcc80"/>
    <text x="230" y="687" text-anchor="middle" font-size="9" fill="#e65100">30</text>
    <rect x="250" y="670" width="30" height="25" rx="3" fill="#ffcc80"/>
    <text x="265" y="687" text-anchor="middle" font-size="9" fill="#e65100">40</text>
    <rect x="285" y="670" width="30" height="25" rx="3" fill="#ffcc80"/>
    <text x="300" y="687" text-anchor="middle" font-size="9" fill="#e65100">50</text>
    <text x="340" y="687" class="label-text" fill="#666">front=3, rear=3</text>
    
    <!-- Arrow -->
    <path d="M380 682 L420 682" stroke="#e65100" stroke-width="2" marker-end="url(#arrow)"/>
    
    <!-- After state -->
    <text x="450" y="685" class="body-text" fill="#333">After (capacity 8):</text>
    <rect x="550" y="670" width="30" height="25" rx="3" fill="#ffe0b2"/>
    <text x="565" y="687" text-anchor="middle" font-size="9" fill="#e65100">20</text>
    <rect x="585" y="670" width="30" height="25" rx="3" fill="#ffe0b2"/>
    <text x="600" y="687" text-anchor="middle" font-size="9" fill="#e65100">30</text>
    <rect x="620" y="670" width="30" height="25" rx="3" fill="#ffe0b2"/>
    <text x="635" y="687" text-anchor="middle" font-size="9" fill="#e65100">40</text>
    <rect x="655" y="670" width="30" height="25" rx="3" fill="#ffe0b2"/>
    <text x="670" y="687" text-anchor="middle" font-size="9" fill="#e65100">50</text>
    <rect x="690" y="670" width="30" height="25" rx="3" fill="#ffe0b2"/>
    <text x="705" y="687" text-anchor="middle" font-size="9" fill="#e65100">60</text>
    
    <text x="70" y="710" class="body-text" fill="#333">Copy in logical order (20,30,40,50), unwrap circular to linear starting at index 0</text>
  </g>
  
  <!-- ==================== STEP 8: Enqueue Operation ==================== -->
  <g class="step" id="step8" data-narration="Enqueue first checks if full and resizes if needed, then adds the element at rear position and advances rear using circular indexing.">
    <rect x="50" y="735" width="700" height="85" rx="8" fill="white" stroke="#e8f5e9" stroke-width="2"/>
    <text x="70" y="760" class="title-text" fill="#2e7d32">Enqueue Operation</text>
    
    <rect x="70" y="775" width="450" height="35" rx="6" fill="#e8f5e9"/>
    <text x="295" y="797" text-anchor="middle" class="formula" fill="#2e7d32" font-size="11">void enqueue(DynamicQueue *q, int value) {</text>
    
    <rect x="90" y="815" width="200" height="35" rx="6" fill="#c8e6c9"/>
    <text x="190" y="837" text-anchor="middle" class="formula" fill="#1b5e20" font-size="10">if (isFull(q)) resizeQueue(q);</text>
    
    <rect x="300" y="815" width="220" height="35" rx="6" fill="#c8e6c9"/>
    <text x="410" y="837" text-anchor="middle" class="formula" fill="#1b5e20" font-size="10">q->data[q->rear] = value;</text>
    
    <rect x="530" y="815" width="200" height="35" rx="6" fill="#c8e6c9"/>
    <text x="630" y="837" text-anchor="middle" class="formula" fill="#1b5e20" font-size="10">q->rear = (q->rear+1) % cap;</text>
  </g>
  
  <!-- ==================== STEP 9: Dequeue Operation ==================== -->
  <g class="step" id="step9" data-narration="Dequeue returns the front element, advances front using circular indexing, and decrements size. It also checks for underflow.">
    <rect x="50" y="830" width="700" height="85" rx="8" fill="white" stroke="#ffebee" stroke-width="2"/>
    <text x="70" y="855" class="title-text" fill="#c62828">Dequeue Operation</text>
    
    <rect x="70" y="870" width="400" height="35" rx="6" fill="#ffebee"/>
    <text x="270" y="892" text-anchor="middle" class="formula" fill="#c62828" font-size="11">int dequeue(DynamicQueue *q) {</text>
    
    <rect x="90" y="910" width="280" height="35" rx="6" fill="#ffcdd2"/>
    <text x="230" y="932" text-anchor="middle" class="formula" fill="#b71c1c" font-size="10">if (isEmpty(q)) { /* underflow error */ }</text>
    
    <rect x="380" y="910" width="180" height="35" rx="6" fill="#ffcdd2"/>
    <text x="470" y="932" text-anchor="middle" class="formula" fill="#b71c1c" font-size="10">int value = q->data[front];</text>
    
    <rect x="570" y="910" width="160" height="35" rx="6" fill="#ffcdd2"/>
    <text x="650" y="932" text-anchor="middle" class="formula" fill="#b71c1c" font-size="10">front = (front+1) % cap;</text>
  </g>
  
  <!-- ==================== STEP 10: Resize Example Step-by-Step ==================== -->
  <g class="step" id="step10" data-narration="In this example, the queue has wrapped around (front=3, rear=2). When resizing, we must unwrap and copy elements in logical order: 20,30,40,50.">
    <rect x="50" y="925" width="700" height="85" rx="8" fill="white" stroke="#fff3e0" stroke-width="2"/>
    <text x="70" y="950" class="title-text" fill="#ef6c00">Resize Example: Step by Step</text>
    
    <!-- Step 1 -->
    <text x="70" y="970" class="label-text" fill="#333">Step 1 - Wrapped state:</text>
    <rect x="200" y="960" width="30" height="22" rx="3" fill="#ffcc80"/>
    <text x="215" y="975" text-anchor="middle" font-size="8" fill="#e65100">30</text>
    <rect x="235" y="960" width="30" height="22" rx="3" fill="#ffcc80"/>
    <text x="250" y="975" text-anchor="middle" font-size="8" fill="#e65100">40</text>
    <rect x="270" y="960" width="30" height="22" rx="3" fill="#ffcc80"/>
    <text x="285" y="975" text-anchor="middle" font-size="8" fill="#e65100">50</text>
    <rect x="305" y="960" width="30" height="22" rx="3" fill="#ffe0b2"/>
    <text x="320" y="975" text-anchor="middle" font-size="8" fill="#e65100">20</text>
    <text x="350" y="975" class="label-text" fill="#666">front=3, rear=2</text>
    
    <!-- Arrow and Step 2 -->
    <path d="M380 970 L420 970" stroke="#ef6c00" stroke-width="2"/>
    <text x="450" y="975" class="label-text" fill="#333">Step 2 - Copy logical order:</text>
    <rect x="570" y="960" width="28" height="22" rx="3" fill="#ffe0b2"/>
    <text x="584" y="975" text-anchor="middle" font-size="8" fill="#e65100">20</text>
    <rect x="600" y="960" width="28" height="22" rx="3" fill="#ffe0b2"/>
    <text x="614" y="975" text-anchor="middle" font-size="8" fill="#e65100">30</text>
    <rect x="630" y="960" width="28" height="22" rx="3" fill="#ffe0b2"/>
    <text x="644" y="975" text-anchor="middle" font-size="8" fill="#e65100">40</text>
    <rect x="660" y="960" width="28" height="22" rx="3" fill="#ffe0b2"/>
    <text x="674" y="975" text-anchor="middle" font-size="8" fill="#e65100">50</text>
    <rect x="690" y="960" width="28" height="22" rx="3" fill="#ffe0b2"/>
    <text x="704" y="975" text-anchor="middle" font-size="8" fill="#e65100">60</text>
    
    <text x="70" y="1000" class="label-text" fill="#666">Unwrapping: data[3],data[0],data[1],data[2] → new[0],new[1],new[2],new[3]</text>
  </g>
  
  <!-- ==================== STEP 11: Amortized Analysis ==================== -->
  <g class="step" id="step11" data-narration="Enqueue is amortized O(1) because each element saves 2 credits during insertion. These credits pay for the O(n) copy during resize.">
    <rect x="50" y="1020" width="700" height="85" rx="8" fill="url(#purpleGrad)" filter="url(#shadow)"/>
    <text x="70" y="1045" class="title-text" fill="#6a1b9a">Amortized Analysis: Why O(1)?</text>
    
    <rect x="70" y="1060" width="320" height="35" rx="6" fill="white"/>
    <text x="230" y="1082" text-anchor="middle" class="body-text" fill="#4a148c">Accounting Method: Charge 3 units per enqueue</text>
    
    <rect x="70" y="1100" width="160" height="35" rx="6" fill="#e1bee7"/>
    <text x="150" y="1122" text-anchor="middle" class="label-text" fill="#6a1b9a">1 unit: actual insertion</text>
    
    <rect x="240" y="1100" width="160" height="35" rx="6" fill="#e1bee7"/>
    <text x="320" y="1122" text-anchor="middle" class="label-text" fill="#6a1b9a">2 units: saved as credit</text>
    
    <rect x="410" y="1060" width="280" height="35" rx="6" fill="#f3e5f5"/>
    <text x="550" y="1082" text-anchor="middle" class="body-text" fill="#6a1b9a">Resize copies k elements</text>
    
    <rect x="410" y="1100" width="280" height="35" rx="6" fill="#f3e5f5"/>
    <text x="550" y="1122" text-anchor="middle" class="body-text" fill="#6a1b9a">k/2 elements × 2 credits = k credits ✓</text>
  </g>
  
  <!-- ==================== STEP 12: Comparison Table ==================== -->
  <g class="step" id="step12" data-narration="Fixed-size queues are simple but can overflow. Dynamic queues grow automatically but have occasional O(n) resize costs.">
    <rect x="50" y="1115" width="700" height="85" rx="8" fill="white" stroke="#e3f2fd" stroke-width="2"/>
    <text x="70" y="1140" class="title-text" fill="#1565c0">Fixed-Size vs Dynamic Queue</text>
    
    <!-- Table header -->
    <rect x="70" y="1150" width="140" height="25" rx="4" fill="#1976d2"/>
    <text x="140" y="1168" text-anchor="middle" class="label-text" fill="white">Feature</text>
    <rect x="210" y="1150" width="170" height="25" rx="4" fill="#1976d2"/>
    <text x="295" y="1168" text-anchor="middle" class="label-text" fill="white">Fixed-Size</text>
    <rect x="380" y="1150" width="170" height="25" rx="4" fill="#1976d2"/>
    <text x="465" y="1168" text-anchor="middle" class="label-text" fill="white">Dynamic</text>
    
    <!-- Row 1 -->
    <rect x="70" y="1175" width="140" height="22" rx="4" fill="#e3f2fd"/>
    <text x="140" y="1191" text-anchor="middle" class="label-text" fill="#1565c0">Max Capacity</text>
    <rect x="210" y="1175" width="170" height="22" rx="4" fill="#fff"/>
    <text x="295" y="1191" text-anchor="middle" class="label-text" fill="#333">Fixed</text>
    <rect x="380" y="1175" width="170" height="22" rx="4" fill="#fff"/>
    <text x="465" y="1191" text-anchor="middle" class="label-text" fill="#333">Grows as needed</text>
    
    <!-- Row 2 -->
    <rect x="70" y="1197" width="140" height="22" rx="4" fill="#e3f2fd"/>
    <text x="140" y="1213" text-anchor="middle" class="label-text" fill="#1565c0">Overflow</text>
    <rect x="210" y="1197" width="170" height="22" rx="4" fill="#ffebee"/>
    <text x="295" y="1213" text-anchor="middle" class="label-text" fill="#c62828">Yes possible</text>
    <rect x="380" y="1197" width="170" height="22" rx="4" fill="#e8f5e9"/>
    <text x="465" y="1213" text-anchor="middle" class="label-text" fill="#2e7d32">No (memory limit)</text>
  </g>
  
  <!-- ==================== STEP 13: Shrinking Strategy ==================== -->
  <g class="step" id="step13" data-narration="To avoid holding excess memory, the queue can shrink when size drops below one-quarter capacity. The threshold avoids thrashing between sizes.">
    <rect x="50" y="1210" width="700" height="85" rx="8" fill="white" stroke="#e8f5e9" stroke-width="2"/>
    <text x="70" y="1235" class="title-text" fill="#2e7d32">Optional: Shrinking Strategy</text>
    
    <rect x="70" y="1250" width="480" height="35" rx="6" fill="#e8f5e9"/>
    <text x="310" y="1272" text-anchor="middle" class="formula" fill="#1b5e20" font-size="11">void shrinkIfNeeded(DynamicQueue *q) {</text>
    
    <rect x="90" y="1290" width="300" height="30" rx="6" fill="#c8e6c9"/>
    <text x="240" y="1308" text-anchor="middle" class="formula" fill="#1b5e20" font-size="10">if (size <= capacity/4 && capacity > 4)</text>
    
    <rect x="400" y="1290" width="240" height="30" rx="6" fill="#c8e6c9"/>
    <text x="520" y="1308" text-anchor="middle" class="formula" fill="#1b5e20" font-size="10">capacity = capacity / 2;</text>
    
    <text x="70" y="1340" class="label-text" fill="#666">Why 1/4? Prevents thrashing - avoids repeated grow/shrink at boundary</text>
  </g>
  
  <!-- ==================== STEP 14: Advantages ==================== -->
  <g class="step" id="step14" data-narration="Dynamic array queues have key advantages: no overflow, cache-friendly contiguous memory, amortized O(1) operations, and random access capability.">
    <rect x="50" y="1305" width="700" height="85" rx="8" fill="white" stroke="#e8f5e9" stroke-width="2"/>
    <text x="70" y="1330" class="title-text" fill="#2e7d32">Advantages of Dynamic Array Queues</text>
    
    <!-- Advantage cards -->
    <rect x="70" y="1345" width="160" height="35" rx="6" fill="#e8f5e9"/>
    <text x="150" y="1362" text-anchor="middle" class="body-text" fill="#1b5e20">✓ No Overflow</text>
    <text x="150" y="1376" text-anchor="middle" class="label-text" fill="#666">Grows as needed</text>
    
    <rect x="240" y="1345" width="160" height="35" rx="6" fill="#e3f2fd"/>
    <text x="320" y="1362" text-anchor="middle" class="body-text" fill="#1565c0">✓ Cache Friendly</text>
    <text x="320" y="1376" text-anchor="middle" class="label-text" fill="#666">Contiguous memory</text>
    
    <rect x="410" y="1345" width="160" height="35" rx="6" fill="#fff3e0"/>
    <text x="490" y="1362" text-anchor="middle" class="body-text" fill="#e65100">✓ Amortized O(1)</text>
    <text x="490" y="1376" text-anchor="middle" class="label-text" fill="#666">Efficient overall</text>
    
    <rect x="580" y="1345" width="160" height="35" rx="6" fill="#f3e5f5"/>
    <text x="660" y="1362" text-anchor="middle" class="body-text" fill="#7b1fa2">✓ Random Access</text>
    <text x="660" y="1376" text-anchor="middle" class="label-text" fill="#666">O(1) element access</text>
  </g>
  
  <!-- ==================== STEP 15: Exam Tips & Summary ==================== -->
  <g class="step" id="step15" data-narration="Key exam points: remember the doubling strategy, explain amortized O(1), know the circular indexing formula, and understand the difference between size and capacity.">
    <rect x="50" y="1400" width="700" height="85" rx="8" fill="url(#blueGrad)" filter="url(#shadow)"/>
    <text x="70" y="1425" class="title-text" fill="#0d47a1">Exam Tips & Summary</text>
    
    <rect x="70" y="1440" width="330" height="35" rx="6" fill="white"/>
    <text x="235" y="1462" text-anchor="middle" class="label-text" fill="#1565c0">🎯 Remember: Doubling strategy copies in logical order</text>
    
    <rect x="410" y="1440" width="330" height="35" rx="6" fill="white"/>
    <text x="575" y="1462" text-anchor="middle" class="label-text" fill="#1565c0">🎯 Formula: (index + 1) % capacity</text>
    
    <rect x="70" y="1480" width="330" height="35" rx="6" fill="white"/>
    <text x="235" y="1502" text-anchor="middle" class="label-text" fill="#1565c0">🎯 Amortized O(1) - accounting method proof</text>
    
    <rect x="410" y="1480" width="330" height="35" rx="6" fill="white"/>
    <text x="575" y="1502" text-anchor="middle" class="label-text" fill="#1565c0">🎯 Shrink at capacity/4 to avoid thrashing</text>
  </g>
  
  <!-- ==================== STEP 16: Final Summary ==================== -->
  <g class="step" id="step16" data-narration="In this lecture, we covered dynamic queues that grow automatically using the doubling strategy, with amortized O(1) performance. Congratulations on completing this topic!">
    <rect x="50" y="1495" width="700" height="45" rx="10" fill="url(#greenGrad)" filter="url(#shadow)"/>
    <text x="400" y="1522" text-anchor="middle" class="title-text" fill="#1b5e20">✓ Topic Complete!</text>
    <text x="400" y="1540" text-anchor="middle" class="body-text" fill="#2e7d32">Dynamic arrays enable unbounded queues with amortized O(1) performance</text>
  </g>

  <!-- Animations -->
  <rect x="50" y="70" width="0" height="85" rx="8" fill="white" stroke="#e3f2fd" stroke-width="2">
    <animate attributeName="width" from="0" to="700" dur="0.5s" begin="0.3s" fill="freeze"/>
  </rect>
  
  <!-- Drawing animation for circular queue -->
  <ellipse cx="400" cy="315" rx="0" ry="40" fill="none" stroke="#388e3c" stroke-width="2">
    <animate attributeName="rx" from="0" to="100" dur="1s" begin="3.5s" fill="freeze"/>
  </ellipse>
  
  <!-- Growth animation for resize visualization -->
  <g>
    <rect x="550" y="670" width="0" height="25" rx="3" fill="#ffe0b2">
      <animate attributeName="width" from="0" to="30" dur="0.3s" begin="7.5s" fill="freeze"/>
    </rect>
    <rect x="585" y="670" width="0" height="25" rx="3" fill="#ffe0b2">
      <animate attributeName="width" from="0" to="30" dur="0.3s" begin="7.7s" fill="freeze"/>
    </rect>
    <rect x="620" y="670" width="0" height="25" rx="3" fill="#ffe0b2">
      <animate attributeName="width" from="0" to="30" dur="0.3s" begin="7.9s" fill="freeze"/>
    </rect>
    <rect x="655" y="670" width="0" height="25" rx="3" fill="#ffe0b2">
      <animate attributeName="width" from="0" to="30" dur="0.3s" begin="8.1s" fill="freeze"/>
    </rect>
    <rect x="690" y="670" width="0" height="25" rx="3" fill="#ffe0b2">
      <animate attributeName="width" from="0" to="30" dur="0.3s" begin="8.3s" fill="freeze"/>
    </rect>
  </g>
  
  <!-- Formula reveal animations -->
  <g>
    <text x="145" y="412" class="formula" fill="#00695c" opacity="0">
      <animate attributeName="opacity" from="0" to="1" dur="0.5s" begin="4.5s" fill="freeze"/>
    </text>
    <text x="305" y="412" class="formula" fill="#00695c" opacity="0">
      <animate attributeName="opacity" from="0" to="1" dur="0.5s" begin="4.7s" fill="freeze"/>
    </text>
    <text x="485" y="412" class="formula" fill="#00695c" opacity="0">
      <animate attributeName="opacity" from="0" to="1" dur="0.5s" begin="4.9s" fill="freeze"/>
    </text>
  </g>
  
  <!-- Comparison table animation -->
  <g>
    <rect x="70" y="1150" width="0" height="25" rx="4" fill="#1976d2">
      <animate attributeName="width" from="0" to="140" dur="0.4s" begin="12s" fill="freeze"/>
    </rect>
    <rect x="210" y="1150" width="0" height="25" rx="4" fill="#1976d2">
      <animate attributeName="width" from="0" to="170" dur="0.4s" begin="12.2s" fill="freeze"/>
    </rect>
  </g>
</svg>