<svg width="420" height="400" data-topic-id="mathematics-for-multivariate-data">
  <defs>
    <linearGradient id="gradient" x1="0%" y1="0%" x2="100%" y2="0%">
      <stop offset="0%" stop-color="#64A3CC" stop-opacity="1" />
      <stop offset="100%" stop-color="#2799F8" stop-opacity="1" />
    </linearGradient>
  </defs>
  <rect fill="url(#gradient)" width="100%" height="100%" rx="10"/>
  <g transform="translate(10,10)">
    <text x="10" y="40" font-size="24" font-family="Arial" fill="#1A1D23">Mathematics for Multivariate Data</text>
    <rect x="50" y="100" width="200" height="50" stroke="#FFC107" stroke-width="2" rx="10" fill="#FFFFFF" opacity="0.8"/>
    <text x="55" y="115" font-size="18" font-family="Arial" fill="#1A1D23">Bivariate and Multivariate Data Analysis</text>
    <rect x="50" y="170" width="200" height="50" stroke="#FFC107" stroke-width="2" rx="10" fill="#FFFFFF" opacity="0.8"/>
    <text x="55" y="185" font-size="18" font-family="Arial" fill="#1A1D23">Examine relationships between multiple variables</text>
    <rect x="50" y="235" width="200" height="50" stroke="#FFC107" stroke-width="2" rx="10" fill="#FFFFFF" opacity="0.8"/>
    <text x="55" y="250" font-size="18" font-family="Arial" fill="#1A1D23">Identify patterns, correlations, or causal relationships</text>
    <rect x="50" y="305" width="200" height="50" stroke="#FFC107" stroke-width="2" rx="10" fill="#FFFFFF" opacity="0.8"/>
    <text x="55" y="320" font-size="18" font-family="Arial" fill="#1A1D23">Distinguish correlation from causation</text>
    <rect x="50" y="380" width="200" height="50" stroke="#FFC107" stroke-width="2" rx="10" fill="#FFFFFF" opacity="0.8"/>
    <text x="55" y="395" font-size="18" font-family="Arial" fill="#1A1D23">Covariance and correlation coefficients</text>
  </g>
  <g transform="translate(10,10)">
    <line x1="50" y1="110" x2="350" y2="110" stroke="#1A1D23" stroke-width="2" opacity="0.5" style="stroke-dasharray: 5,5;"/>
    <line x1="50" y1="170" x2="350" y2="170" stroke="#1A1D23" stroke-width="2" opacity="0.5" style="stroke-dasharray: 5,5;"/>
    <line x1="50" y1="230" x2="350" y2="230" stroke="#1A1D23" stroke-width="2" opacity="0.5" style="stroke-dasharray: 5,5;"/>
    <line x1="50" y1="290" x2="350" y2="290" stroke="#1A1D23" stroke-width="2" opacity="0.5" style="stroke-dasharray: 5,5;"/>
    <line x1="55" y1="115" x2="55" y2="170" stroke="#1A1D23" stroke-width="2" opacity="0.5" arrowhead="triangle" arrowmarker="url(#arrow)" />
    <line x1="55" y1="185" x2="55" y2="235" stroke="#1A1D23" stroke-width="2" opacity="0.5" arrowhead="triangle" arrowmarker="url(#arrow)" />
    <line x1="55" y1="245" x2="55" y2="305" stroke="#1A1D23" stroke-width="2" opacity="0.5" arrowhead="triangle" arrowmarker="url(#arrow)" />
    <line x1="55" y1="305" x2="55" y2="365" stroke="#1A1D23" stroke-width="2" opacity="0.5" arrowhead="triangle" arrowmarker="url(#arrow)" />
  </g>
  <defs>
    <symbol id="arrow">
      <circle cx="10" cy="10" r="10" fill="#FFFFFF"/>
      <line x1="15" y1="0" x2="10" y2="10" stroke="#1A1D23" stroke-width="2"/>
      <line x1="10" y1="0" x2="10" y2="10" stroke="#1A1D23" stroke-width="2"/>
    </symbol>
  </defs>
  <rect x="10" y="410" width="400" height="20" fill="#1A1D23" opacity="0.8"/>
  <text x="10" y="425" font-size="18" font-family="Arial" fill="#FFFFFF">Mathematics for Multivariate Data</text>
</svg>